<svg width="433" height="84" viewBox="0 0 433 84" fill="none" xmlns="http://www.w3.org/2000/svg">
<path d="M4.40925 64C3.45725 64 2.50525 63.72 1.55325 63.16C0.65725 62.6 0.20925 61.9 0.20925 61.06C0.20925 60.836 0.23725 60.612 0.29325 60.388L17.5133 4.528C17.7373 3.688 18.2693 3.072 19.1093 2.68C19.9493 2.288 20.8453 2.092 21.7973 2.092C22.8053 2.092 23.7293 2.316 24.5693 2.764C25.4093 3.156 25.9413 3.744 26.1653 4.528L43.3013 60.388C43.4133 60.612 43.4693 60.808 43.4693 60.976C43.4693 61.816 42.9653 62.544 41.9572 63.16C41.0053 63.72 40.0533 64 39.1013 64C37.7573 64 36.9173 63.468 36.5813 62.404L32.8013 49.888H10.7093L7.09725 62.404C6.87325 62.964 6.53725 63.384 6.08925 63.664C5.64125 63.888 5.08125 64 4.40925 64ZM12.3893 44.092H31.2053L21.7973 12.508L12.3893 44.092ZM65.2128 64.672C61.3488 64.672 58.1568 63.972 55.6368 62.572C53.1728 61.116 51.3248 59.156 50.0928 56.692C48.9168 54.228 48.3288 51.456 48.3288 48.376V39.976C48.3288 36.952 48.9168 34.208 50.0928 31.744C51.3248 29.28 53.1728 27.32 55.6368 25.864C58.1008 24.408 61.2648 23.68 65.1288 23.68C67.5928 23.68 69.7488 23.988 71.5968 24.604C73.4448 25.22 74.8728 25.976 75.8808 26.872C76.8888 27.768 77.3928 28.636 77.3928 29.476C77.3928 30.204 77.1128 30.96 76.5528 31.744C75.9928 32.528 75.3208 32.92 74.5368 32.92C73.9768 32.92 73.3608 32.668 72.6888 32.164C72.0728 31.66 71.2048 31.184 70.0848 30.736C69.0208 30.232 67.5088 29.98 65.5488 29.98C62.1328 29.98 59.5568 30.876 57.8208 32.668C56.1408 34.46 55.3008 36.896 55.3008 39.976V48.376C55.3008 51.456 56.1408 53.892 57.8208 55.684C59.5568 57.476 62.1608 58.372 65.6328 58.372C67.6488 58.372 69.2168 58.12 70.3368 57.616C71.4568 57.112 72.3248 56.608 72.9408 56.104C73.6128 55.6 74.2568 55.348 74.8728 55.348C75.7688 55.348 76.4968 55.74 77.0568 56.524C77.6168 57.252 77.8968 57.98 77.8968 58.708C77.8968 59.548 77.3648 60.444 76.3008 61.396C75.2368 62.292 73.7528 63.076 71.8488 63.748C69.9448 64.364 67.7328 64.672 65.2128 64.672ZM98.6422 64C94.1062 64 90.6342 62.992 88.2262 60.976C85.8742 58.96 84.6982 55.74 84.6982 51.316V8.056C84.6982 7.328 85.0622 6.74 85.7902 6.292C86.5182 5.844 87.3022 5.62 88.1422 5.62C89.0382 5.62 89.8502 5.844 90.5782 6.292C91.3062 6.74 91.6702 7.328 91.6702 8.056V24.184H102.254C102.926 24.184 103.43 24.492 103.766 25.108C104.158 25.668 104.354 26.284 104.354 26.956C104.354 27.684 104.158 28.328 103.766 28.888C103.43 29.392 102.926 29.644 102.254 29.644H91.6702V51.316C91.6702 53.724 92.1742 55.432 93.1822 56.44C94.2462 57.392 96.0662 57.868 98.6422 57.868H101.246C102.198 57.868 102.926 58.176 103.43 58.792C103.99 59.408 104.27 60.108 104.27 60.892C104.27 61.732 103.99 62.46 103.43 63.076C102.926 63.692 102.198 64 101.246 64H98.6422ZM114.232 64C113.224 64 112.384 63.748 111.712 63.244C111.096 62.684 110.788 62.096 110.788 61.48V26.62C110.788 25.892 111.096 25.304 111.712 24.856C112.384 24.408 113.224 24.184 114.232 24.184C115.184 24.184 115.996 24.408 116.668 24.856C117.396 25.304 117.76 25.892 117.76 26.62V61.48C117.76 62.096 117.396 62.684 116.668 63.244C115.996 63.748 115.184 64 114.232 64ZM114.232 13.264C113 13.264 111.964 12.872 111.124 12.088C110.284 11.248 109.864 10.296 109.864 9.232C109.864 8.168 110.284 7.244 111.124 6.45999C111.964 5.67599 113 5.28399 114.232 5.28399C115.408 5.28399 116.416 5.67599 117.256 6.45999C118.096 7.244 118.516 8.168 118.516 9.232C118.516 10.296 118.096 11.248 117.256 12.088C116.416 12.872 115.408 13.264 114.232 13.264ZM140.96 64.756C140.232 64.756 139.56 64.616 138.944 64.336C138.384 64.112 137.992 63.748 137.768 63.244L123.992 28.384C123.936 28.272 123.852 28.076 123.74 27.796C123.684 27.516 123.656 27.264 123.656 27.04C123.656 26.2 124.16 25.5 125.168 24.94C126.176 24.324 127.156 24.016 128.108 24.016C129.228 24.016 129.984 24.464 130.376 25.36L140.96 53.92L151.544 25.696C151.768 25.192 152.048 24.8 152.384 24.52C152.72 24.184 153.196 24.016 153.812 24.016C154.596 24.016 155.548 24.324 156.668 24.94C157.788 25.5 158.348 26.2 158.348 27.04C158.348 27.32 158.292 27.572 158.18 27.796C158.124 28.02 158.068 28.216 158.012 28.384L144.236 63.244C144.012 63.692 143.592 64.056 142.976 64.336C142.36 64.616 141.688 64.756 140.96 64.756ZM181.246 64.672C177.606 64.672 174.358 64 171.502 62.656C168.702 61.256 166.49 59.352 164.866 56.944C163.298 54.48 162.514 51.624 162.514 48.376V39.556C162.514 36.7 163.27 34.068 164.782 31.66C166.294 29.252 168.31 27.32 170.83 25.864C173.406 24.408 176.206 23.68 179.23 23.68C182.086 23.68 184.746 24.352 187.21 25.696C189.674 27.04 191.634 28.888 193.09 31.24C194.602 33.536 195.358 36.168 195.358 39.136C195.358 41.376 194.994 43 194.266 44.008C193.594 44.96 192.67 45.548 191.494 45.772C190.374 45.996 189.198 46.108 187.966 46.108H169.486V48.628C169.486 51.764 170.606 54.256 172.846 56.104C175.086 57.896 177.97 58.792 181.498 58.792C183.57 58.792 185.222 58.512 186.454 57.952C187.686 57.392 188.666 56.86 189.394 56.356C190.178 55.796 190.906 55.516 191.578 55.516C192.418 55.516 193.09 55.908 193.594 56.692C194.154 57.42 194.434 58.092 194.434 58.708C194.434 59.436 193.902 60.276 192.838 61.228C191.774 62.124 190.234 62.936 188.218 63.664C186.258 64.336 183.934 64.672 181.246 64.672ZM169.486 41.404H185.026C186.482 41.404 187.462 41.236 187.966 40.9C188.47 40.564 188.722 39.836 188.722 38.716C188.722 37.036 188.302 35.496 187.462 34.096C186.678 32.64 185.558 31.464 184.102 30.568C182.646 29.672 180.994 29.224 179.146 29.224C176.514 29.224 174.246 30.12 172.342 31.912C170.438 33.704 169.486 35.86 169.486 38.38V41.404ZM206.433 64C205.481 64 204.669 63.748 203.997 63.244C203.381 62.684 203.073 62.096 203.073 61.48V26.62C203.073 25.892 203.381 25.304 203.997 24.856C204.669 24.408 205.481 24.184 206.433 24.184C207.329 24.184 208.085 24.408 208.701 24.856C209.373 25.304 209.709 25.892 209.709 26.62V30.568C210.605 28.832 212.005 27.264 213.909 25.864C215.813 24.408 218.081 23.68 220.713 23.68H223.569C224.241 23.68 224.857 24.016 225.417 24.688C225.977 25.304 226.257 26.032 226.257 26.872C226.257 27.712 225.977 28.44 225.417 29.056C224.857 29.672 224.241 29.98 223.569 29.98H220.713C218.921 29.98 217.213 30.484 215.589 31.492C213.965 32.5 212.621 33.928 211.557 35.776C210.549 37.568 210.045 39.752 210.045 42.328V61.48C210.045 62.096 209.681 62.684 208.953 63.244C208.281 63.748 207.441 64 206.433 64ZM252.801 64C251.793 64 250.953 63.748 250.281 63.244C249.665 62.684 249.357 62.096 249.357 61.48V2.596C249.357 1.868 249.665 1.28 250.281 0.831997C250.953 0.383996 251.793 0.159996 252.801 0.159996C253.753 0.159996 254.565 0.383996 255.237 0.831997C255.965 1.28 256.329 1.868 256.329 2.596V61.48C256.329 62.096 255.965 62.684 255.237 63.244C254.565 63.748 253.753 64 252.801 64ZM284.196 64.672C280.556 64.672 277.308 64 274.452 62.656C271.652 61.256 269.44 59.352 267.816 56.944C266.248 54.48 265.464 51.624 265.464 48.376V39.556C265.464 36.7 266.22 34.068 267.732 31.66C269.244 29.252 271.26 27.32 273.78 25.864C276.356 24.408 279.156 23.68 282.18 23.68C285.036 23.68 287.696 24.352 290.16 25.696C292.624 27.04 294.584 28.888 296.04 31.24C297.552 33.536 298.308 36.168 298.308 39.136C298.308 41.376 297.944 43 297.216 44.008C296.544 44.96 295.62 45.548 294.444 45.772C293.324 45.996 292.148 46.108 290.916 46.108H272.436V48.628C272.436 51.764 273.556 54.256 275.796 56.104C278.036 57.896 280.92 58.792 284.448 58.792C286.52 58.792 288.172 58.512 289.404 57.952C290.636 57.392 291.616 56.86 292.344 56.356C293.128 55.796 293.856 55.516 294.528 55.516C295.368 55.516 296.04 55.908 296.544 56.692C297.104 57.42 297.384 58.092 297.384 58.708C297.384 59.436 296.852 60.276 295.788 61.228C294.724 62.124 293.184 62.936 291.168 63.664C289.208 64.336 286.884 64.672 284.196 64.672ZM272.436 41.404H287.976C289.432 41.404 290.412 41.236 290.916 40.9C291.42 40.564 291.672 39.836 291.672 38.716C291.672 37.036 291.252 35.496 290.412 34.096C289.628 32.64 288.508 31.464 287.052 30.568C285.596 29.672 283.944 29.224 282.096 29.224C279.464 29.224 277.196 30.12 275.292 31.912C273.388 33.704 272.436 35.86 272.436 38.38V41.404ZM334.263 64.672C331.575 64.672 329.195 64.336 327.123 63.664C325.051 62.992 323.427 62.18 322.251 61.228C321.075 60.22 320.487 59.24 320.487 58.288C320.487 57.672 320.711 57 321.159 56.272C321.663 55.488 322.251 55.096 322.923 55.096C323.595 55.096 324.295 55.432 325.023 56.104C325.807 56.72 326.871 57.364 328.215 58.036C329.615 58.708 331.575 59.044 334.095 59.044C337.063 59.044 339.135 58.512 340.311 57.448C341.487 56.328 342.075 55.096 342.075 53.752C342.075 52.016 341.571 50.7 340.563 49.804C339.555 48.852 338.267 48.124 336.699 47.62C335.131 47.06 333.479 46.528 331.743 46.024C330.007 45.52 328.355 44.904 326.787 44.176C325.219 43.392 323.931 42.328 322.923 40.984C321.971 39.64 321.495 37.792 321.495 35.44C321.495 33.592 321.943 31.772 322.839 29.98C323.735 28.188 325.191 26.704 327.207 25.528C329.223 24.296 331.911 23.68 335.271 23.68C337.231 23.68 339.107 23.904 340.899 24.352C342.747 24.8 344.231 25.36 345.351 26.032C346.527 26.704 347.115 27.432 347.115 28.216C347.115 28.776 346.863 29.504 346.359 30.4C345.855 31.296 345.183 31.744 344.343 31.744C343.839 31.744 343.195 31.548 342.411 31.156C341.627 30.708 340.647 30.288 339.471 29.896C338.351 29.504 336.979 29.308 335.355 29.308C332.555 29.308 330.567 29.98 329.391 31.324C328.271 32.668 327.711 33.956 327.711 35.188C327.711 36.588 328.187 37.68 329.139 38.464C330.147 39.248 331.435 39.892 333.003 40.396C334.571 40.844 336.223 41.32 337.959 41.824C339.751 42.272 341.431 42.944 342.999 43.84C344.567 44.68 345.855 45.856 346.863 47.368C347.871 48.88 348.375 50.896 348.375 53.416C348.375 56.832 347.143 59.576 344.679 61.648C342.215 63.664 338.743 64.672 334.263 64.672ZM371.015 64.672C368.047 64.672 365.303 63.916 362.783 62.404C360.263 60.836 358.247 58.82 356.735 56.356C355.223 53.892 354.467 51.232 354.467 48.376V39.808C354.467 36.952 355.195 34.32 356.651 31.912C358.163 29.448 360.179 27.46 362.699 25.948C365.219 24.436 367.991 23.68 371.015 23.68C373.983 23.68 376.727 24.408 379.247 25.864C381.767 27.32 383.783 29.28 385.295 31.744C386.863 34.208 387.647 36.896 387.647 39.808V48.376C387.647 51.176 386.863 53.836 385.295 56.356C383.783 58.82 381.767 60.836 379.247 62.404C376.727 63.916 373.983 64.672 371.015 64.672ZM371.015 58.372C372.807 58.372 374.431 57.896 375.887 56.944C377.343 55.992 378.491 54.76 379.331 53.248C380.227 51.68 380.675 50.056 380.675 48.376V39.808C380.675 38.184 380.227 36.616 379.331 35.104C378.491 33.592 377.343 32.36 375.887 31.408C374.431 30.456 372.807 29.98 371.015 29.98C369.223 29.98 367.599 30.456 366.143 31.408C364.687 32.36 363.539 33.592 362.699 35.104C361.859 36.616 361.439 38.184 361.439 39.808V48.376C361.439 50.056 361.859 51.68 362.699 53.248C363.539 54.76 364.687 55.992 366.143 56.944C367.599 57.896 369.223 58.372 371.015 58.372ZM399.455 64C398.447 64 397.607 63.748 396.935 63.244C396.319 62.684 396.011 62.096 396.011 61.48V26.62C396.011 25.892 396.319 25.304 396.935 24.856C397.607 24.408 398.447 24.184 399.455 24.184C400.295 24.184 401.023 24.408 401.639 24.856C402.311 25.304 402.647 25.892 402.647 26.62V30.064C403.487 28.44 404.859 26.984 406.763 25.696C408.723 24.352 411.103 23.68 413.903 23.68C416.535 23.68 418.971 24.408 421.211 25.864C423.451 27.32 425.243 29.28 426.587 31.744C427.987 34.208 428.687 36.896 428.687 39.808V61.48C428.687 62.32 428.323 62.964 427.595 63.412C426.867 63.804 426.055 64 425.159 64C424.319 64 423.535 63.804 422.807 63.412C422.079 62.964 421.715 62.32 421.715 61.48V39.808C421.715 38.184 421.267 36.616 420.371 35.104C419.531 33.592 418.383 32.36 416.927 31.408C415.471 30.456 413.875 29.98 412.139 29.98C410.627 29.98 409.171 30.372 407.771 31.156C406.371 31.94 405.223 33.088 404.327 34.6C403.431 36.056 402.983 37.792 402.983 39.808V61.48C402.983 62.096 402.619 62.684 401.891 63.244C401.219 63.748 400.407 64 399.455 64Z" fill="white"/>
</svg>
