<svg width="1920" height="54" viewBox="0 0 1920 54" fill="none" xmlns="http://www.w3.org/2000/svg">
<path d="M944.284 15.09C943.714 15.09 943.194 14.985 942.724 14.775C942.254 14.565 941.879 14.225 941.599 13.755C941.319 13.285 941.179 12.66 941.179 11.88V7.23C941.179 6.46 941.319 5.84 941.599 5.37C941.889 4.9 942.269 4.56 942.739 4.35C943.219 4.14 943.744 4.035 944.314 4.035C944.974 4.035 945.534 4.15 945.994 4.38C946.454 4.61 946.804 4.915 947.044 5.295C947.294 5.675 947.419 6.09 947.419 6.54C947.419 6.79 947.374 6.955 947.284 7.035C947.204 7.105 947.084 7.14 946.924 7.14C946.744 7.14 946.614 7.105 946.534 7.035C946.464 6.955 946.429 6.865 946.429 6.765C946.419 6.605 946.384 6.425 946.324 6.225C946.274 6.015 946.174 5.815 946.024 5.625C945.884 5.425 945.674 5.265 945.394 5.145C945.124 5.015 944.769 4.95 944.329 4.95C943.629 4.95 943.089 5.135 942.709 5.505C942.339 5.875 942.154 6.45 942.154 7.23V11.88C942.154 12.67 942.344 13.25 942.724 13.62C943.104 13.99 943.654 14.175 944.374 14.175C944.814 14.175 945.164 14.115 945.424 13.995C945.694 13.875 945.894 13.72 946.024 13.53C946.164 13.34 946.259 13.14 946.309 12.93C946.359 12.71 946.399 12.51 946.429 12.33C946.449 12.08 946.609 11.955 946.909 11.955C947.079 11.955 947.204 11.995 947.284 12.075C947.374 12.155 947.419 12.315 947.419 12.555C947.419 13.005 947.294 13.425 947.044 13.815C946.794 14.195 946.434 14.505 945.964 14.745C945.494 14.975 944.934 15.09 944.284 15.09ZM949.435 15C949.295 15 949.18 14.96 949.09 14.88C949 14.8 948.955 14.715 948.955 14.625V8.265C948.955 8.165 949 8.08 949.09 8.01C949.18 7.94 949.295 7.905 949.435 7.905C949.565 7.905 949.675 7.94 949.765 8.01C949.855 8.08 949.9 8.165 949.9 8.265V9C950.06 8.7 950.31 8.43 950.65 8.19C951 7.94 951.42 7.815 951.91 7.815H952.435C952.535 7.815 952.625 7.86 952.705 7.95C952.785 8.04 952.825 8.145 952.825 8.265C952.825 8.385 952.785 8.49 952.705 8.58C952.625 8.67 952.535 8.715 952.435 8.715H951.91C951.58 8.715 951.26 8.805 950.95 8.985C950.65 9.155 950.405 9.405 950.215 9.735C950.025 10.055 949.93 10.445 949.93 10.905V14.625C949.93 14.715 949.88 14.8 949.78 14.88C949.69 14.96 949.575 15 949.435 15ZM956.554 15.105C955.924 15.105 955.364 14.99 954.874 14.76C954.394 14.52 954.014 14.185 953.734 13.755C953.464 13.325 953.329 12.825 953.329 12.255V10.575C953.329 10.075 953.459 9.62 953.719 9.21C953.979 8.79 954.324 8.455 954.754 8.205C955.194 7.945 955.674 7.815 956.194 7.815C956.694 7.815 957.154 7.935 957.574 8.175C958.004 8.405 958.349 8.725 958.609 9.135C958.869 9.545 958.999 10.015 958.999 10.545C958.999 10.935 958.934 11.215 958.804 11.385C958.674 11.545 958.509 11.645 958.309 11.685C958.119 11.725 957.914 11.745 957.694 11.745H954.304V12.3C954.304 12.9 954.519 13.38 954.949 13.74C955.379 14.09 955.924 14.265 956.584 14.265C956.984 14.265 957.289 14.215 957.499 14.115C957.719 14.015 957.894 13.915 958.024 13.815C958.154 13.715 958.274 13.665 958.384 13.665C958.504 13.665 958.604 13.72 958.684 13.83C958.764 13.93 958.804 14.025 958.804 14.115C958.804 14.235 958.709 14.375 958.519 14.535C958.339 14.685 958.079 14.82 957.739 14.94C957.409 15.05 957.014 15.105 956.554 15.105ZM954.304 11.025H957.304C957.604 11.025 957.804 10.995 957.904 10.935C958.004 10.865 958.054 10.725 958.054 10.515C958.054 10.195 957.974 9.895 957.814 9.615C957.654 9.325 957.434 9.09 957.154 8.91C956.874 8.72 956.549 8.625 956.179 8.625C955.829 8.625 955.514 8.71 955.234 8.88C954.954 9.04 954.729 9.26 954.559 9.54C954.389 9.82 954.304 10.125 954.304 10.455V11.025ZM955.399 6.135C955.289 6.135 955.194 6.095 955.114 6.015C955.044 5.925 955.009 5.825 955.009 5.715C955.009 5.585 955.064 5.495 955.174 5.445L956.839 4.53C956.889 4.5 956.934 4.485 956.974 4.485C957.084 4.485 957.169 4.535 957.229 4.635C957.299 4.725 957.334 4.815 957.334 4.905C957.334 5.065 957.269 5.175 957.139 5.235L955.549 6.09C955.499 6.12 955.449 6.135 955.399 6.135ZM962.854 15.105C962.374 15.105 961.934 14.975 961.534 14.715C961.134 14.445 960.809 14.095 960.559 13.665C960.319 13.225 960.199 12.755 960.199 12.255V10.62C960.199 10.11 960.319 9.645 960.559 9.225C960.799 8.795 961.124 8.455 961.534 8.205C961.944 7.945 962.394 7.815 962.884 7.815C963.374 7.815 963.784 7.935 964.114 8.175C964.454 8.405 964.704 8.665 964.864 8.955V3.915C964.864 3.815 964.909 3.73 964.999 3.66C965.099 3.59 965.219 3.555 965.359 3.555C965.499 3.555 965.614 3.59 965.704 3.66C965.794 3.73 965.839 3.815 965.839 3.915V14.625C965.839 14.715 965.794 14.8 965.704 14.88C965.614 14.96 965.499 15 965.359 15C965.239 15 965.134 14.96 965.044 14.88C964.954 14.8 964.909 14.715 964.909 14.625V13.95C964.739 14.26 964.469 14.53 964.099 14.76C963.729 14.99 963.314 15.105 962.854 15.105ZM963.019 14.205C963.369 14.205 963.684 14.115 963.964 13.935C964.244 13.745 964.464 13.535 964.624 13.305C964.784 13.065 964.864 12.87 964.864 12.72V10.62C964.864 10.22 964.774 9.88 964.594 9.6C964.414 9.31 964.184 9.09 963.904 8.94C963.624 8.79 963.334 8.715 963.034 8.715C962.694 8.715 962.379 8.81 962.089 9C961.809 9.18 961.584 9.415 961.414 9.705C961.244 9.995 961.159 10.3 961.159 10.62V12.255C961.159 12.585 961.244 12.9 961.414 13.2C961.584 13.5 961.809 13.745 962.089 13.935C962.379 14.115 962.689 14.205 963.019 14.205ZM968.2 15C968.07 15 967.955 14.96 967.855 14.88C967.765 14.8 967.72 14.715 967.72 14.625V8.265C967.72 8.165 967.765 8.08 967.855 8.01C967.955 7.94 968.07 7.905 968.2 7.905C968.34 7.905 968.455 7.94 968.545 8.01C968.645 8.08 968.695 8.165 968.695 8.265V14.625C968.695 14.715 968.645 14.8 968.545 14.88C968.455 14.96 968.34 15 968.2 15ZM968.2 5.805C968.02 5.805 967.865 5.745 967.735 5.625C967.605 5.495 967.54 5.345 967.54 5.175C967.54 5.005 967.605 4.86 967.735 4.74C967.865 4.62 968.02 4.56 968.2 4.56C968.38 4.56 968.535 4.62 968.665 4.74C968.795 4.86 968.86 5.005 968.86 5.175C968.86 5.345 968.795 5.495 968.665 5.625C968.535 5.745 968.38 5.805 968.2 5.805ZM972.916 15C972.146 15 971.556 14.825 971.146 14.475C970.736 14.125 970.531 13.565 970.531 12.795V4.89C970.531 4.79 970.581 4.705 970.681 4.635C970.791 4.565 970.901 4.53 971.011 4.53C971.141 4.53 971.256 4.565 971.356 4.635C971.456 4.705 971.506 4.79 971.506 4.89V7.905H973.456C973.556 7.905 973.636 7.95 973.696 8.04C973.756 8.12 973.786 8.21 973.786 8.31C973.786 8.42 973.756 8.515 973.696 8.595C973.636 8.675 973.556 8.715 973.456 8.715H971.506V12.795C971.506 13.285 971.611 13.63 971.821 13.83C972.031 14.02 972.396 14.115 972.916 14.115H973.336C973.466 14.115 973.571 14.16 973.651 14.25C973.731 14.34 973.771 14.44 973.771 14.55C973.771 14.67 973.731 14.775 973.651 14.865C973.571 14.955 973.466 15 973.336 15H972.916ZM976.92 15.105C976.45 15.105 976.035 15.05 975.675 14.94C975.325 14.82 975.05 14.675 974.85 14.505C974.66 14.335 974.565 14.175 974.565 14.025C974.565 13.935 974.595 13.84 974.655 13.74C974.725 13.64 974.81 13.59 974.91 13.59C975.02 13.59 975.14 13.65 975.27 13.77C975.4 13.88 975.59 13.995 975.84 14.115C976.09 14.225 976.44 14.28 976.89 14.28C977.46 14.28 977.86 14.175 978.09 13.965C978.32 13.745 978.435 13.495 978.435 13.215C978.435 12.885 978.345 12.63 978.165 12.45C977.985 12.26 977.755 12.115 977.475 12.015C977.195 11.905 976.895 11.81 976.575 11.73C976.265 11.64 975.965 11.53 975.675 11.4C975.395 11.26 975.165 11.07 974.985 10.83C974.815 10.59 974.73 10.265 974.73 9.855C974.73 9.535 974.805 9.22 974.955 8.91C975.115 8.6 975.37 8.34 975.72 8.13C976.07 7.92 976.53 7.815 977.1 7.815C977.43 7.815 977.745 7.85 978.045 7.92C978.355 7.99 978.61 8.085 978.81 8.205C979.01 8.315 979.11 8.43 979.11 8.55C979.11 8.63 979.07 8.735 978.99 8.865C978.92 8.995 978.825 9.06 978.705 9.06C978.625 9.06 978.515 9.025 978.375 8.955C978.245 8.885 978.075 8.815 977.865 8.745C977.655 8.675 977.405 8.64 977.115 8.64C976.745 8.64 976.45 8.705 976.23 8.835C976.01 8.965 975.85 9.12 975.75 9.3C975.66 9.48 975.615 9.65 975.615 9.81C975.615 10.1 975.705 10.325 975.885 10.485C976.065 10.635 976.295 10.755 976.575 10.845C976.865 10.935 977.165 11.025 977.475 11.115C977.795 11.195 978.095 11.31 978.375 11.46C978.655 11.61 978.885 11.82 979.065 12.09C979.245 12.36 979.335 12.72 979.335 13.17C979.335 13.77 979.125 14.245 978.705 14.595C978.285 14.935 977.69 15.105 976.92 15.105Z" fill="white"/>
<line x1="946.354" y1="34.1464" x2="960.354" y2="48.1464" stroke="white"/>
<line x1="974.354" y1="34.8536" x2="960.354" y2="48.8536" stroke="white"/>
</svg>
