<svg width="1920" height="60" viewBox="0 0 1920 60" fill="none" xmlns="http://www.w3.org/2000/svg">
<path d="M933.807 26.15C932.873 26.15 932.007 25.975 931.207 25.625C930.423 25.275 929.798 24.7083 929.332 23.925C928.865 23.1417 928.632 22.1 928.632 20.8V13.05C928.632 11.7667 928.865 10.7333 929.332 9.95C929.815 9.16667 930.448 8.6 931.232 8.25C932.032 7.9 932.907 7.725 933.857 7.725C934.957 7.725 935.89 7.91667 936.657 8.3C937.423 8.68333 938.007 9.19167 938.407 9.825C938.823 10.4583 939.032 11.15 939.032 11.9C939.032 12.3 938.957 12.5667 938.807 12.7C938.673 12.8333 938.473 12.9 938.207 12.9C937.907 12.9 937.69 12.8417 937.557 12.725C937.44 12.5917 937.382 12.4417 937.382 12.275C937.365 12.0083 937.307 11.7 937.207 11.35C937.123 11 936.957 10.6667 936.707 10.35C936.473 10.0333 936.123 9.775 935.657 9.575C935.207 9.35833 934.615 9.25 933.882 9.25C932.715 9.25 931.823 9.55833 931.207 10.175C930.59 10.7917 930.282 11.75 930.282 13.05V20.8C930.282 22.1167 930.59 23.0833 931.207 23.7C931.84 24.3167 932.757 24.625 933.957 24.625C934.707 24.625 935.298 24.525 935.732 24.325C936.165 24.1083 936.49 23.85 936.707 23.55C936.94 23.2333 937.098 22.9 937.182 22.55C937.265 22.1833 937.332 21.85 937.382 21.55C937.398 21.3333 937.473 21.175 937.607 21.075C937.74 20.9583 937.932 20.9 938.182 20.9C938.465 20.9 938.673 20.975 938.807 21.125C938.957 21.2583 939.032 21.525 939.032 21.925C939.032 22.675 938.823 23.375 938.407 24.025C937.99 24.6583 937.39 25.175 936.607 25.575C935.84 25.9583 934.907 26.15 933.807 26.15ZM942.392 26C942.175 26 941.983 25.9333 941.817 25.8C941.667 25.6667 941.592 25.5167 941.592 25.35V14.775C941.592 14.5917 941.667 14.45 941.817 14.35C941.983 14.2333 942.175 14.175 942.392 14.175C942.608 14.175 942.792 14.2333 942.942 14.35C943.092 14.45 943.167 14.5917 943.167 14.775V16C943.35 15.6667 943.6 15.35 943.917 15.05C944.233 14.75 944.608 14.5083 945.042 14.325C945.475 14.125 945.967 14.025 946.517 14.025H947.392C947.575 14.025 947.725 14.1 947.842 14.25C947.975 14.3833 948.042 14.5583 948.042 14.775C948.042 14.975 947.975 15.15 947.842 15.3C947.725 15.45 947.575 15.525 947.392 15.525H946.517C945.967 15.525 945.433 15.675 944.917 15.975C944.417 16.2583 944.008 16.675 943.692 17.225C943.375 17.7583 943.217 18.4083 943.217 19.175V25.35C943.217 25.5167 943.133 25.6667 942.967 25.8C942.817 25.9333 942.625 26 942.392 26ZM954.256 26.175C953.206 26.175 952.273 25.975 951.456 25.575C950.656 25.175 950.023 24.625 949.556 23.925C949.106 23.2083 948.881 22.375 948.881 21.425V18.625C948.881 17.7917 949.098 17.025 949.531 16.325C949.965 15.625 950.54 15.0667 951.256 14.65C951.99 14.2333 952.79 14.025 953.656 14.025C954.49 14.025 955.256 14.225 955.956 14.625C956.673 15.0083 957.248 15.5417 957.681 16.225C958.115 16.9083 958.331 17.6917 958.331 18.575C958.331 19.225 958.223 19.6917 958.006 19.975C957.79 20.2417 957.515 20.4083 957.181 20.475C956.865 20.5417 956.523 20.575 956.156 20.575H950.506V21.5C950.506 22.5 950.865 23.2917 951.581 23.875C952.298 24.4583 953.206 24.75 954.306 24.75C954.973 24.75 955.49 24.6667 955.856 24.5C956.223 24.3333 956.506 24.1667 956.706 24C956.923 23.8333 957.123 23.75 957.306 23.75C957.44 23.75 957.556 23.8 957.656 23.9C957.773 23.9833 957.856 24.0833 957.906 24.2C957.973 24.3167 958.006 24.425 958.006 24.525C958.006 24.7083 957.856 24.9333 957.556 25.2C957.256 25.4667 956.823 25.7 956.256 25.9C955.69 26.0833 955.023 26.175 954.256 26.175ZM950.506 19.375H955.506C956.006 19.375 956.34 19.325 956.506 19.225C956.673 19.1083 956.756 18.875 956.756 18.525C956.756 17.9917 956.623 17.4833 956.356 17C956.106 16.5167 955.74 16.125 955.256 15.825C954.79 15.525 954.248 15.375 953.631 15.375C953.065 15.375 952.54 15.5167 952.056 15.8C951.59 16.0667 951.215 16.4333 950.931 16.9C950.648 17.35 950.506 17.8583 950.506 18.425V19.375ZM952.331 11.225C952.165 11.225 952.015 11.15 951.881 11C951.748 10.85 951.681 10.6917 951.681 10.525C951.681 10.3083 951.773 10.1583 951.956 10.075L954.756 8.55C954.84 8.5 954.906 8.475 954.956 8.475C955.14 8.475 955.281 8.55 955.381 8.7C955.498 8.85 955.556 9.00833 955.556 9.175C955.556 9.425 955.456 9.60833 955.256 9.725L952.581 11.15C952.548 11.1667 952.506 11.1833 952.456 11.2C952.406 11.2167 952.365 11.225 952.331 11.225ZM964.757 26.175C963.973 26.175 963.24 25.9583 962.557 25.525C961.873 25.075 961.332 24.4833 960.932 23.75C960.532 23.0167 960.332 22.2417 960.332 21.425V18.7C960.332 17.8333 960.532 17.05 960.932 16.35C961.332 15.65 961.873 15.0917 962.557 14.675C963.24 14.2417 963.99 14.025 964.807 14.025C965.623 14.025 966.307 14.225 966.857 14.625C967.423 15.0083 967.84 15.4417 968.107 15.925V7.525C968.107 7.34167 968.19 7.2 968.357 7.1C968.523 6.98333 968.715 6.925 968.932 6.925C969.182 6.925 969.373 6.98333 969.507 7.1C969.657 7.2 969.732 7.34167 969.732 7.525V25.35C969.732 25.5167 969.657 25.6667 969.507 25.8C969.373 25.9333 969.182 26 968.932 26C968.732 26 968.557 25.9333 968.407 25.8C968.257 25.6667 968.182 25.5167 968.182 25.35V24.25C967.915 24.7667 967.465 25.2167 966.832 25.6C966.215 25.9833 965.523 26.175 964.757 26.175ZM965.032 24.675C965.632 24.675 966.157 24.525 966.607 24.225C967.073 23.9083 967.44 23.5583 967.707 23.175C967.973 22.775 968.107 22.45 968.107 22.2V18.7C968.107 18.0333 967.957 17.4667 967.657 17C967.357 16.5333 966.973 16.175 966.507 15.925C966.04 15.6583 965.557 15.525 965.057 15.525C964.49 15.525 963.973 15.6833 963.507 16C963.04 16.3 962.665 16.6917 962.382 17.175C962.098 17.6583 961.957 18.1667 961.957 18.7V21.425C961.957 21.975 962.098 22.5 962.382 23C962.665 23.5 963.04 23.9083 963.507 24.225C963.973 24.525 964.482 24.675 965.032 24.675ZM973.666 26C973.449 26 973.258 25.9333 973.091 25.8C972.941 25.6667 972.866 25.5167 972.866 25.35V14.775C972.866 14.5917 972.941 14.45 973.091 14.35C973.258 14.2333 973.449 14.175 973.666 14.175C973.899 14.175 974.091 14.2333 974.241 14.35C974.408 14.45 974.491 14.5917 974.491 14.775V25.35C974.491 25.5167 974.408 25.6667 974.241 25.8C974.091 25.9333 973.899 26 973.666 26ZM973.666 10.675C973.366 10.675 973.108 10.575 972.891 10.375C972.674 10.1583 972.566 9.90833 972.566 9.625C972.566 9.34167 972.674 9.1 972.891 8.9C973.108 8.7 973.366 8.6 973.666 8.6C973.983 8.6 974.241 8.7 974.441 8.9C974.658 9.1 974.766 9.34167 974.766 9.625C974.766 9.90833 974.658 10.1583 974.441 10.375C974.241 10.575 973.983 10.675 973.666 10.675ZM981.527 26C980.244 26 979.261 25.7083 978.577 25.125C977.894 24.5417 977.552 23.6083 977.552 22.325V9.15C977.552 8.96667 977.636 8.825 977.802 8.725C977.986 8.60833 978.169 8.55 978.352 8.55C978.569 8.55 978.761 8.60833 978.927 8.725C979.094 8.825 979.177 8.96667 979.177 9.15V14.175H982.427C982.594 14.175 982.727 14.2417 982.827 14.375C982.927 14.5083 982.977 14.6667 982.977 14.85C982.977 15.0333 982.927 15.1917 982.827 15.325C982.727 15.4583 982.594 15.525 982.427 15.525H979.177V22.325C979.177 23.1417 979.352 23.7167 979.702 24.05C980.052 24.3667 980.661 24.525 981.527 24.525H982.227C982.461 24.525 982.636 24.6 982.752 24.75C982.886 24.8833 982.952 25.05 982.952 25.25C982.952 25.45 982.886 25.625 982.752 25.775C982.636 25.925 982.461 26 982.227 26H981.527ZM988.2 26.175C987.417 26.175 986.734 26.075 986.15 25.875C985.567 25.675 985.109 25.4417 984.775 25.175C984.442 24.8917 984.275 24.625 984.275 24.375C984.275 24.2583 984.3 24.15 984.35 24.05C984.4 23.9333 984.467 23.8333 984.55 23.75C984.65 23.6667 984.75 23.625 984.85 23.625C985.034 23.625 985.234 23.725 985.45 23.925C985.684 24.1083 986 24.3 986.4 24.5C986.817 24.7 987.4 24.8 988.15 24.8C989.1 24.8 989.767 24.625 990.15 24.275C990.534 23.9083 990.725 23.4917 990.725 23.025C990.725 22.475 990.575 22.05 990.275 21.75C989.992 21.4333 989.609 21.1917 989.125 21.025C988.659 20.8417 988.159 20.6833 987.625 20.55C987.109 20.4 986.609 20.2167 986.125 20C985.659 19.7667 985.275 19.45 984.975 19.05C984.692 18.65 984.55 18.1083 984.55 17.425C984.55 16.8917 984.684 16.3667 984.95 15.85C985.217 15.3167 985.634 14.8833 986.2 14.55C986.784 14.2 987.55 14.025 988.5 14.025C989.05 14.025 989.584 14.0833 990.1 14.2C990.617 14.3167 991.034 14.475 991.35 14.675C991.684 14.8583 991.85 15.05 991.85 15.25C991.85 15.3333 991.817 15.4417 991.75 15.575C991.7 15.7083 991.625 15.8333 991.525 15.95C991.425 16.05 991.309 16.1 991.175 16.1C991.042 16.1 990.859 16.0417 990.625 15.925C990.409 15.7917 990.125 15.675 989.775 15.575C989.425 15.4583 989.009 15.4 988.525 15.4C987.925 15.4 987.442 15.5083 987.075 15.725C986.709 15.9417 986.442 16.2 986.275 16.5C986.109 16.7833 986.025 17.0667 986.025 17.35C986.025 17.8333 986.175 18.2 986.475 18.45C986.775 18.7 987.159 18.9083 987.625 19.075C988.109 19.225 988.609 19.375 989.125 19.525C989.659 19.6583 990.159 19.85 990.625 20.1C991.109 20.35 991.492 20.7 991.775 21.15C992.075 21.6 992.225 22.2 992.225 22.95C992.225 23.9333 991.875 24.7167 991.175 25.3C990.475 25.8833 989.484 26.175 988.2 26.175Z" fill="white"/>
<line x1="946.354" y1="44.1464" x2="960.354" y2="58.1464" stroke="white"/>
<line x1="974.354" y1="44.8536" x2="960.354" y2="58.8536" stroke="white"/>
</svg>
