<svg width="1920" height="81" viewBox="0 0 1920 81" fill="none" xmlns="http://www.w3.org/2000/svg">
<path d="M939.504 52.525C939.304 52.525 939.138 52.4333 939.004 52.25C938.871 52.0667 938.754 51.875 938.654 51.675L934.779 44.175H931.604V51.875C931.604 52.075 931.513 52.2333 931.329 52.35C931.163 52.45 930.979 52.5 930.779 52.5C930.563 52.5 930.371 52.45 930.204 52.35C930.038 52.2333 929.954 52.075 929.954 51.875V34.825C929.954 34.675 930.013 34.5417 930.129 34.425C930.246 34.3083 930.396 34.2417 930.579 34.225H935.004C935.988 34.225 936.888 34.375 937.704 34.675C938.521 34.975 939.171 35.4833 939.654 36.2C940.154 36.9167 940.404 37.9 940.404 39.15C940.404 40.1833 940.229 41.0333 939.879 41.7C939.529 42.3667 939.063 42.8833 938.479 43.25C937.896 43.6 937.238 43.8417 936.504 43.975L940.354 51.375C940.421 51.475 940.454 51.5833 940.454 51.7C940.454 51.9167 940.354 52.1083 940.154 52.275C939.954 52.4417 939.738 52.525 939.504 52.525ZM931.604 42.75H935.004C936.121 42.75 937.021 42.4833 937.704 41.95C938.404 41.4 938.754 40.4917 938.754 39.225C938.754 37.975 938.404 37.0833 937.704 36.55C937.021 36.0167 936.121 35.75 935.004 35.75H931.604V42.75ZM947.494 52.675C946.444 52.675 945.51 52.4833 944.694 52.1C943.894 51.7 943.26 51.1417 942.794 50.425C942.344 49.7083 942.119 48.875 942.119 47.925V45.125C942.119 44.2917 942.335 43.5333 942.769 42.85C943.202 42.15 943.777 41.5917 944.494 41.175C945.227 40.7417 946.027 40.525 946.894 40.525C947.727 40.525 948.494 40.725 949.194 41.125C949.91 41.5083 950.485 42.0417 950.919 42.725C951.352 43.4083 951.569 44.1917 951.569 45.075C951.569 45.725 951.46 46.1917 951.244 46.475C951.027 46.7417 950.752 46.9083 950.419 46.975C950.102 47.0417 949.76 47.075 949.394 47.075H943.744V48C943.744 49 944.102 49.8 944.819 50.4C945.535 50.9833 946.444 51.275 947.544 51.275C948.21 51.275 948.719 51.1917 949.069 51.025C949.435 50.8583 949.727 50.6917 949.944 50.525C950.16 50.3583 950.36 50.275 950.544 50.275C950.744 50.275 950.91 50.3667 951.044 50.55C951.177 50.7167 951.244 50.875 951.244 51.025C951.244 51.225 951.085 51.4583 950.769 51.725C950.469 51.975 950.035 52.2 949.469 52.4C948.919 52.5833 948.26 52.675 947.494 52.675ZM943.744 45.875H948.744C949.244 45.875 949.577 45.825 949.744 45.725C949.91 45.6083 949.994 45.375 949.994 45.025C949.994 44.4917 949.86 43.9917 949.594 43.525C949.327 43.0417 948.96 42.65 948.494 42.35C948.027 42.0333 947.485 41.875 946.869 41.875C946.285 41.875 945.76 42.0167 945.294 42.3C944.827 42.5667 944.452 42.9333 944.169 43.4C943.885 43.8667 943.744 44.375 943.744 44.925V45.875ZM957.919 52.5C956.636 52.5 955.652 52.2083 954.969 51.625C954.286 51.0417 953.944 50.1083 953.944 48.825V35.65C953.944 35.4833 954.027 35.3417 954.194 35.225C954.377 35.1083 954.561 35.05 954.744 35.05C954.961 35.05 955.152 35.1083 955.319 35.225C955.486 35.3417 955.569 35.4833 955.569 35.65V40.675H958.819C958.986 40.675 959.119 40.75 959.219 40.9C959.319 41.0333 959.369 41.1833 959.369 41.35C959.369 41.5333 959.319 41.6917 959.219 41.825C959.119 41.9583 958.986 42.025 958.819 42.025H955.569V48.825C955.569 49.6417 955.744 50.2167 956.094 50.55C956.444 50.8667 957.052 51.025 957.919 51.025H958.619C958.836 51.025 959.011 51.1 959.144 51.25C959.277 51.4 959.344 51.5667 959.344 51.75C959.344 51.95 959.277 52.125 959.144 52.275C959.011 52.425 958.836 52.5 958.619 52.5H957.919ZM965.423 52.675C964.573 52.675 963.789 52.4583 963.073 52.025C962.356 51.575 961.773 50.9917 961.323 50.275C960.889 49.5417 960.673 48.7583 960.673 47.925V45.2C960.673 44.3667 960.889 43.6 961.323 42.9C961.756 42.1833 962.331 41.6083 963.048 41.175C963.764 40.7417 964.556 40.525 965.423 40.525C966.273 40.525 967.056 40.7417 967.773 41.175C968.489 41.5917 969.064 42.1583 969.498 42.875C969.948 43.575 970.173 44.35 970.173 45.2V47.925C970.173 48.7583 969.948 49.5417 969.498 50.275C969.064 50.9917 968.489 51.575 967.773 52.025C967.056 52.4583 966.273 52.675 965.423 52.675ZM965.423 51.175C965.989 51.175 966.506 51.025 966.973 50.725C967.456 50.4083 967.839 50.0083 968.123 49.525C968.406 49.025 968.548 48.4917 968.548 47.925V45.2C968.548 44.6667 968.406 44.1583 968.123 43.675C967.856 43.1917 967.481 42.8 966.998 42.5C966.531 42.1833 966.006 42.025 965.423 42.025C964.839 42.025 964.306 42.1833 963.823 42.5C963.356 42.8 962.981 43.1917 962.698 43.675C962.431 44.1583 962.298 44.6667 962.298 45.2V47.925C962.298 48.4917 962.439 49.025 962.723 49.525C963.006 50.0083 963.381 50.4083 963.848 50.725C964.314 51.025 964.839 51.175 965.423 51.175ZM977.517 52.675C976.633 52.675 975.833 52.4583 975.117 52.025C974.4 51.575 973.825 51 973.392 50.3C972.958 49.5833 972.742 48.8083 972.742 47.975V41.3C972.742 41.15 972.817 41.0083 972.967 40.875C973.133 40.7417 973.333 40.675 973.567 40.675C973.783 40.675 973.967 40.7417 974.117 40.875C974.283 41.0083 974.367 41.15 974.367 41.3V47.975C974.367 48.525 974.508 49.0417 974.792 49.525C975.075 50.0083 975.45 50.4083 975.917 50.725C976.4 51.025 976.933 51.175 977.517 51.175C978.083 51.175 978.6 51.025 979.067 50.725C979.55 50.425 979.925 50.0333 980.192 49.55C980.475 49.05 980.617 48.525 980.617 47.975V41.275C980.617 41.125 980.7 40.9917 980.867 40.875C981.033 40.7417 981.225 40.675 981.442 40.675C981.675 40.675 981.867 40.7417 982.017 40.875C982.167 40.9917 982.242 41.125 982.242 41.275V47.975C982.242 48.8083 982.025 49.5833 981.592 50.3C981.158 51.0167 980.583 51.5917 979.867 52.025C979.15 52.4583 978.367 52.675 977.517 52.675ZM986.044 52.5C985.811 52.5 985.619 52.4333 985.469 52.3C985.319 52.1667 985.244 52.025 985.244 51.875V41.275C985.244 41.1083 985.319 40.9667 985.469 40.85C985.619 40.7333 985.811 40.675 986.044 40.675C986.261 40.675 986.444 40.7333 986.594 40.85C986.744 40.9667 986.819 41.1083 986.819 41.275V42.5C987.086 42 987.502 41.55 988.069 41.15C988.652 40.7333 989.352 40.525 990.169 40.525H991.044C991.211 40.525 991.361 40.6 991.494 40.75C991.627 40.9 991.694 41.075 991.694 41.275C991.694 41.475 991.627 41.65 991.494 41.8C991.361 41.95 991.211 42.025 991.044 42.025H990.169C989.619 42.025 989.086 42.175 988.569 42.475C988.069 42.7583 987.661 43.175 987.344 43.725C987.027 44.2583 986.869 44.9083 986.869 45.675V51.875C986.869 52.025 986.786 52.1667 986.619 52.3C986.469 52.4333 986.277 52.5 986.044 52.5Z" fill="#485F62"/>
<line y1="-0.5" x2="19.799" y2="-0.5" transform="matrix(0.707107 -0.707107 -0.707107 -0.707107 946 15)" stroke="#485F62"/>
<line y1="-0.5" x2="19.799" y2="-0.5" transform="matrix(-0.707107 -0.707107 -0.707107 0.707107 974 15)" stroke="#485F62"/>
</svg>
