<svg width="1920" height="54" viewBox="0 0 1920 54" fill="none" xmlns="http://www.w3.org/2000/svg">
<path d="M876.757 15.105C876.117 15.105 875.567 15.01 875.107 14.82C874.647 14.62 874.292 14.395 874.042 14.145C873.802 13.885 873.682 13.665 873.682 13.485C873.682 13.365 873.727 13.245 873.817 13.125C873.917 12.995 874.022 12.93 874.132 12.93C874.232 12.93 874.332 12.995 874.432 13.125C874.542 13.245 874.682 13.39 874.852 13.56C875.032 13.72 875.267 13.865 875.557 13.995C875.847 14.115 876.227 14.175 876.697 14.175C877.397 14.175 877.942 14.005 878.332 13.665C878.732 13.315 878.932 12.795 878.932 12.105C878.932 11.635 878.842 11.25 878.662 10.95C878.482 10.65 878.242 10.41 877.942 10.23C877.652 10.04 877.327 9.88 876.967 9.75C876.617 9.62 876.262 9.485 875.902 9.345C875.552 9.205 875.227 9.035 874.927 8.835C874.637 8.625 874.402 8.355 874.222 8.025C874.042 7.685 873.952 7.255 873.952 6.735C873.952 6.185 874.052 5.735 874.252 5.385C874.452 5.025 874.707 4.745 875.017 4.545C875.337 4.345 875.682 4.205 876.052 4.125C876.422 4.045 876.782 4.005 877.132 4.005C877.502 4.005 877.882 4.045 878.272 4.125C878.662 4.205 878.987 4.315 879.247 4.455C879.517 4.585 879.652 4.74 879.652 4.92C879.652 5.02 879.612 5.14 879.532 5.28C879.462 5.41 879.357 5.475 879.217 5.475C879.127 5.475 879.002 5.43 878.842 5.34C878.682 5.24 878.462 5.145 878.182 5.055C877.912 4.955 877.557 4.905 877.117 4.905C876.747 4.905 876.397 4.96 876.067 5.07C875.737 5.17 875.467 5.35 875.257 5.61C875.047 5.86 874.942 6.205 874.942 6.645C874.942 7.045 875.032 7.37 875.212 7.62C875.392 7.86 875.627 8.06 875.917 8.22C876.217 8.37 876.542 8.505 876.892 8.625C877.252 8.745 877.607 8.88 877.957 9.03C878.317 9.18 878.642 9.375 878.932 9.615C879.232 9.855 879.472 10.165 879.652 10.545C879.832 10.925 879.922 11.415 879.922 12.015C879.922 12.725 879.787 13.31 879.517 13.77C879.247 14.22 878.872 14.555 878.392 14.775C877.922 14.995 877.377 15.105 876.757 15.105ZM884.154 15.105C883.494 15.105 882.949 14.98 882.519 14.73C882.089 14.48 881.769 14.145 881.559 13.725C881.349 13.295 881.244 12.805 881.244 12.255V10.65C881.244 10.12 881.344 9.64 881.544 9.21C881.754 8.78 882.074 8.44 882.504 8.19C882.934 7.94 883.484 7.815 884.154 7.815C884.574 7.815 884.939 7.87 885.249 7.98C885.569 8.08 885.814 8.21 885.984 8.37C886.164 8.52 886.254 8.66 886.254 8.79C886.254 8.89 886.209 8.995 886.119 9.105C886.039 9.215 885.944 9.27 885.834 9.27C885.734 9.27 885.629 9.225 885.519 9.135C885.409 9.035 885.249 8.94 885.039 8.85C884.839 8.76 884.559 8.715 884.199 8.715C883.549 8.715 883.054 8.89 882.714 9.24C882.384 9.58 882.219 10.05 882.219 10.65V12.255C882.219 12.865 882.384 13.345 882.714 13.695C883.044 14.035 883.544 14.205 884.214 14.205C884.594 14.205 884.889 14.16 885.099 14.07C885.309 13.97 885.469 13.875 885.579 13.785C885.699 13.695 885.809 13.65 885.909 13.65C886.039 13.65 886.144 13.7 886.224 13.8C886.304 13.9 886.344 14.005 886.344 14.115C886.344 14.245 886.254 14.39 886.074 14.55C885.894 14.7 885.639 14.83 885.309 14.94C884.979 15.05 884.594 15.105 884.154 15.105ZM888.146 15C888.006 15 887.891 14.96 887.801 14.88C887.711 14.8 887.666 14.715 887.666 14.625V8.265C887.666 8.165 887.711 8.08 887.801 8.01C887.891 7.94 888.006 7.905 888.146 7.905C888.276 7.905 888.386 7.94 888.476 8.01C888.566 8.08 888.611 8.165 888.611 8.265V9C888.771 8.7 889.021 8.43 889.361 8.19C889.711 7.94 890.131 7.815 890.621 7.815H891.146C891.246 7.815 891.336 7.86 891.416 7.95C891.496 8.04 891.536 8.145 891.536 8.265C891.536 8.385 891.496 8.49 891.416 8.58C891.336 8.67 891.246 8.715 891.146 8.715H890.621C890.291 8.715 889.971 8.805 889.661 8.985C889.361 9.155 889.116 9.405 888.926 9.735C888.736 10.055 888.641 10.445 888.641 10.905V14.625C888.641 14.715 888.591 14.8 888.491 14.88C888.401 14.96 888.286 15 888.146 15ZM894.875 15.105C894.365 15.105 893.895 14.975 893.465 14.715C893.035 14.445 892.685 14.095 892.415 13.665C892.155 13.225 892.025 12.755 892.025 12.255V10.62C892.025 10.12 892.155 9.66 892.415 9.24C892.675 8.81 893.02 8.465 893.45 8.205C893.88 7.945 894.355 7.815 894.875 7.815C895.385 7.815 895.855 7.945 896.285 8.205C896.715 8.455 897.06 8.795 897.32 9.225C897.59 9.645 897.725 10.11 897.725 10.62V12.255C897.725 12.755 897.59 13.225 897.32 13.665C897.06 14.095 896.715 14.445 896.285 14.715C895.855 14.975 895.385 15.105 894.875 15.105ZM894.875 14.205C895.215 14.205 895.525 14.115 895.805 13.935C896.095 13.745 896.325 13.505 896.495 13.215C896.665 12.915 896.75 12.595 896.75 12.255V10.62C896.75 10.3 896.665 9.995 896.495 9.705C896.335 9.415 896.11 9.18 895.82 9C895.54 8.81 895.225 8.715 894.875 8.715C894.525 8.715 894.205 8.81 893.915 9C893.635 9.18 893.41 9.415 893.24 9.705C893.08 9.995 893 10.3 893 10.62V12.255C893 12.595 893.085 12.915 893.255 13.215C893.425 13.505 893.65 13.745 893.93 13.935C894.21 14.115 894.525 14.205 894.875 14.205ZM899.941 15C899.801 15 899.686 14.96 899.596 14.88C899.506 14.8 899.461 14.715 899.461 14.625V3.915C899.461 3.815 899.506 3.73 899.596 3.66C899.686 3.59 899.801 3.555 899.941 3.555C900.081 3.555 900.196 3.59 900.286 3.66C900.386 3.73 900.436 3.815 900.436 3.915V14.625C900.436 14.715 900.386 14.8 900.286 14.88C900.196 14.96 900.081 15 899.941 15ZM903.046 15C902.906 15 902.791 14.96 902.701 14.88C902.611 14.8 902.566 14.715 902.566 14.625V3.915C902.566 3.815 902.611 3.73 902.701 3.66C902.791 3.59 902.906 3.555 903.046 3.555C903.186 3.555 903.301 3.59 903.391 3.66C903.491 3.73 903.541 3.815 903.541 3.915V14.625C903.541 14.715 903.491 14.8 903.391 14.88C903.301 14.96 903.186 15 903.046 15ZM908.507 15.105C907.877 15.105 907.317 14.99 906.827 14.76C906.347 14.52 905.967 14.185 905.687 13.755C905.417 13.325 905.282 12.825 905.282 12.255V10.575C905.282 10.075 905.412 9.62 905.672 9.21C905.932 8.79 906.277 8.455 906.707 8.205C907.147 7.945 907.627 7.815 908.147 7.815C908.647 7.815 909.107 7.935 909.527 8.175C909.957 8.405 910.302 8.725 910.562 9.135C910.822 9.545 910.952 10.015 910.952 10.545C910.952 10.935 910.887 11.215 910.757 11.385C910.627 11.545 910.462 11.645 910.262 11.685C910.072 11.725 909.867 11.745 909.647 11.745H906.257V12.3C906.257 12.9 906.472 13.38 906.902 13.74C907.332 14.09 907.877 14.265 908.537 14.265C908.937 14.265 909.242 14.215 909.452 14.115C909.672 14.015 909.847 13.915 909.977 13.815C910.107 13.715 910.227 13.665 910.337 13.665C910.457 13.665 910.557 13.72 910.637 13.83C910.717 13.93 910.757 14.025 910.757 14.115C910.757 14.235 910.662 14.375 910.472 14.535C910.292 14.685 910.032 14.82 909.692 14.94C909.362 15.05 908.967 15.105 908.507 15.105ZM906.257 11.025H909.257C909.557 11.025 909.757 10.995 909.857 10.935C909.957 10.865 910.007 10.725 910.007 10.515C910.007 10.195 909.927 9.895 909.767 9.615C909.607 9.325 909.387 9.09 909.107 8.91C908.827 8.72 908.502 8.625 908.132 8.625C907.782 8.625 907.467 8.71 907.187 8.88C906.907 9.04 906.682 9.26 906.512 9.54C906.342 9.82 906.257 10.125 906.257 10.455V11.025ZM912.227 15C912.107 15 912.012 14.96 911.942 14.88C911.872 14.8 911.837 14.715 911.837 14.625C911.837 14.485 911.887 14.36 911.987 14.25L915.647 8.76H912.347C912.247 8.76 912.157 8.72 912.077 8.64C912.007 8.56 911.972 8.46 911.972 8.34C911.972 8.22 912.007 8.12 912.077 8.04C912.147 7.95 912.237 7.905 912.347 7.905H916.577C916.687 7.905 916.777 7.94 916.847 8.01C916.927 8.08 916.967 8.175 916.967 8.295C916.967 8.425 916.922 8.545 916.832 8.655L913.157 14.145H916.772C916.872 14.145 916.957 14.19 917.027 14.28C917.107 14.36 917.147 14.46 917.147 14.58C917.147 14.69 917.112 14.79 917.042 14.88C916.972 14.96 916.882 15 916.772 15H912.227ZM921.925 18.48C921.785 18.48 921.67 18.44 921.58 18.36C921.49 18.28 921.445 18.19 921.445 18.09V8.265C921.445 8.165 921.49 8.08 921.58 8.01C921.67 7.94 921.785 7.905 921.925 7.905C922.055 7.905 922.165 7.94 922.255 8.01C922.345 8.08 922.39 8.165 922.39 8.265V8.955C922.55 8.665 922.8 8.405 923.14 8.175C923.49 7.935 923.91 7.815 924.4 7.815C924.89 7.815 925.34 7.945 925.75 8.205C926.16 8.455 926.485 8.795 926.725 9.225C926.975 9.645 927.1 10.11 927.1 10.62V12.255C927.1 12.755 926.975 13.225 926.725 13.665C926.485 14.095 926.16 14.445 925.75 14.715C925.35 14.975 924.915 15.105 924.445 15.105C923.985 15.105 923.57 14.99 923.2 14.76C922.84 14.53 922.58 14.26 922.42 13.95V18.09C922.42 18.19 922.37 18.28 922.27 18.36C922.18 18.44 922.065 18.48 921.925 18.48ZM924.265 14.205C924.595 14.205 924.9 14.115 925.18 13.935C925.46 13.745 925.685 13.5 925.855 13.2C926.035 12.9 926.125 12.585 926.125 12.255V10.62C926.125 10.3 926.04 9.995 925.87 9.705C925.7 9.415 925.47 9.18 925.18 9C924.9 8.81 924.585 8.715 924.235 8.715C923.935 8.715 923.645 8.79 923.365 8.94C923.095 9.09 922.87 9.31 922.69 9.6C922.51 9.88 922.42 10.22 922.42 10.62V12.72C922.42 12.87 922.5 13.065 922.66 13.305C922.82 13.535 923.035 13.745 923.305 13.935C923.585 14.115 923.905 14.205 924.265 14.205ZM931.276 15.105C930.766 15.105 930.296 14.975 929.866 14.715C929.436 14.445 929.086 14.095 928.816 13.665C928.556 13.225 928.426 12.755 928.426 12.255V10.62C928.426 10.12 928.556 9.66 928.816 9.24C929.076 8.81 929.421 8.465 929.851 8.205C930.281 7.945 930.756 7.815 931.276 7.815C931.786 7.815 932.256 7.945 932.686 8.205C933.116 8.455 933.461 8.795 933.721 9.225C933.991 9.645 934.126 10.11 934.126 10.62V12.255C934.126 12.755 933.991 13.225 933.721 13.665C933.461 14.095 933.116 14.445 932.686 14.715C932.256 14.975 931.786 15.105 931.276 15.105ZM931.276 14.205C931.616 14.205 931.926 14.115 932.206 13.935C932.496 13.745 932.726 13.505 932.896 13.215C933.066 12.915 933.151 12.595 933.151 12.255V10.62C933.151 10.3 933.066 9.995 932.896 9.705C932.736 9.415 932.511 9.18 932.221 9C931.941 8.81 931.626 8.715 931.276 8.715C930.926 8.715 930.606 8.81 930.316 9C930.036 9.18 929.811 9.415 929.641 9.705C929.481 9.995 929.401 10.3 929.401 10.62V12.255C929.401 12.595 929.486 12.915 929.656 13.215C929.826 13.505 930.051 13.745 930.331 13.935C930.611 14.115 930.926 14.205 931.276 14.205ZM938.532 15.105C938.002 15.105 937.522 14.975 937.092 14.715C936.662 14.445 936.317 14.1 936.057 13.68C935.797 13.25 935.667 12.785 935.667 12.285V8.28C935.667 8.19 935.712 8.105 935.802 8.025C935.902 7.945 936.022 7.905 936.162 7.905C936.292 7.905 936.402 7.945 936.492 8.025C936.592 8.105 936.642 8.19 936.642 8.28V12.285C936.642 12.615 936.727 12.925 936.897 13.215C937.067 13.505 937.292 13.745 937.572 13.935C937.862 14.115 938.182 14.205 938.532 14.205C938.872 14.205 939.182 14.115 939.462 13.935C939.752 13.755 939.977 13.52 940.137 13.23C940.307 12.93 940.392 12.615 940.392 12.285V8.265C940.392 8.175 940.442 8.095 940.542 8.025C940.642 7.945 940.757 7.905 940.887 7.905C941.027 7.905 941.142 7.945 941.232 8.025C941.322 8.095 941.367 8.175 941.367 8.265V12.285C941.367 12.785 941.237 13.25 940.977 13.68C940.717 14.11 940.372 14.455 939.942 14.715C939.512 14.975 939.042 15.105 938.532 15.105ZM943.649 15C943.509 15 943.394 14.96 943.304 14.88C943.214 14.8 943.169 14.715 943.169 14.625V8.265C943.169 8.165 943.214 8.08 943.304 8.01C943.394 7.94 943.509 7.905 943.649 7.905C943.779 7.905 943.889 7.94 943.979 8.01C944.069 8.08 944.114 8.165 944.114 8.265V9C944.274 8.7 944.524 8.43 944.864 8.19C945.214 7.94 945.634 7.815 946.124 7.815H946.649C946.749 7.815 946.839 7.86 946.919 7.95C946.999 8.04 947.039 8.145 947.039 8.265C947.039 8.385 946.999 8.49 946.919 8.58C946.839 8.67 946.749 8.715 946.649 8.715H946.124C945.794 8.715 945.474 8.805 945.164 8.985C944.864 9.155 944.619 9.405 944.429 9.735C944.239 10.055 944.144 10.445 944.144 10.905V14.625C944.144 14.715 944.094 14.8 943.994 14.88C943.904 14.96 943.789 15 943.649 15ZM953.523 15.105C953.043 15.105 952.603 14.975 952.203 14.715C951.803 14.445 951.478 14.095 951.228 13.665C950.988 13.225 950.868 12.755 950.868 12.255V10.62C950.868 10.11 950.988 9.645 951.228 9.225C951.468 8.795 951.793 8.455 952.203 8.205C952.613 7.945 953.063 7.815 953.553 7.815C954.043 7.815 954.453 7.935 954.783 8.175C955.123 8.405 955.373 8.665 955.533 8.955V3.915C955.533 3.815 955.578 3.73 955.668 3.66C955.768 3.59 955.888 3.555 956.028 3.555C956.168 3.555 956.283 3.59 956.373 3.66C956.463 3.73 956.508 3.815 956.508 3.915V14.625C956.508 14.715 956.463 14.8 956.373 14.88C956.283 14.96 956.168 15 956.028 15C955.908 15 955.803 14.96 955.713 14.88C955.623 14.8 955.578 14.715 955.578 14.625V13.95C955.408 14.26 955.138 14.53 954.768 14.76C954.398 14.99 953.983 15.105 953.523 15.105ZM953.688 14.205C954.038 14.205 954.353 14.115 954.633 13.935C954.913 13.745 955.133 13.535 955.293 13.305C955.453 13.065 955.533 12.87 955.533 12.72V10.62C955.533 10.22 955.443 9.88 955.263 9.6C955.083 9.31 954.853 9.09 954.573 8.94C954.293 8.79 954.003 8.715 953.703 8.715C953.363 8.715 953.048 8.81 952.758 9C952.478 9.18 952.253 9.415 952.083 9.705C951.913 9.995 951.828 10.3 951.828 10.62V12.255C951.828 12.585 951.913 12.9 952.083 13.2C952.253 13.5 952.478 13.745 952.758 13.935C953.048 14.115 953.358 14.205 953.688 14.205ZM961.358 15.105C960.728 15.105 960.168 14.99 959.678 14.76C959.198 14.52 958.818 14.185 958.538 13.755C958.268 13.325 958.133 12.825 958.133 12.255V10.575C958.133 10.075 958.263 9.62 958.523 9.21C958.783 8.79 959.128 8.455 959.558 8.205C959.998 7.945 960.478 7.815 960.998 7.815C961.498 7.815 961.958 7.935 962.378 8.175C962.808 8.405 963.153 8.725 963.413 9.135C963.673 9.545 963.803 10.015 963.803 10.545C963.803 10.935 963.738 11.215 963.608 11.385C963.478 11.545 963.313 11.645 963.113 11.685C962.923 11.725 962.718 11.745 962.498 11.745H959.108V12.3C959.108 12.9 959.323 13.38 959.753 13.74C960.183 14.09 960.728 14.265 961.388 14.265C961.788 14.265 962.093 14.215 962.303 14.115C962.523 14.015 962.698 13.915 962.828 13.815C962.958 13.715 963.078 13.665 963.188 13.665C963.308 13.665 963.408 13.72 963.488 13.83C963.568 13.93 963.608 14.025 963.608 14.115C963.608 14.235 963.513 14.375 963.323 14.535C963.143 14.685 962.883 14.82 962.543 14.94C962.213 15.05 961.818 15.105 961.358 15.105ZM959.108 11.025H962.108C962.408 11.025 962.608 10.995 962.708 10.935C962.808 10.865 962.858 10.725 962.858 10.515C962.858 10.195 962.778 9.895 962.618 9.615C962.458 9.325 962.238 9.09 961.958 8.91C961.678 8.72 961.353 8.625 960.983 8.625C960.633 8.625 960.318 8.71 960.038 8.88C959.758 9.04 959.533 9.26 959.363 9.54C959.193 9.82 959.108 10.125 959.108 10.455V11.025ZM960.203 6.135C960.093 6.135 959.998 6.095 959.918 6.015C959.848 5.925 959.813 5.825 959.813 5.715C959.813 5.585 959.868 5.495 959.978 5.445L961.643 4.53C961.693 4.5 961.738 4.485 961.778 4.485C961.888 4.485 961.973 4.535 962.033 4.635C962.103 4.725 962.138 4.815 962.138 4.905C962.138 5.065 962.073 5.175 961.943 5.235L960.353 6.09C960.303 6.12 960.253 6.135 960.203 6.135ZM967.929 15.105C967.269 15.105 966.724 14.98 966.294 14.73C965.864 14.48 965.544 14.145 965.334 13.725C965.124 13.295 965.019 12.805 965.019 12.255V10.65C965.019 10.12 965.119 9.64 965.319 9.21C965.529 8.78 965.849 8.44 966.279 8.19C966.709 7.94 967.259 7.815 967.929 7.815C968.349 7.815 968.714 7.87 969.024 7.98C969.344 8.08 969.589 8.21 969.759 8.37C969.939 8.52 970.029 8.66 970.029 8.79C970.029 8.89 969.984 8.995 969.894 9.105C969.814 9.215 969.719 9.27 969.609 9.27C969.509 9.27 969.404 9.225 969.294 9.135C969.184 9.035 969.024 8.94 968.814 8.85C968.614 8.76 968.334 8.715 967.974 8.715C967.324 8.715 966.829 8.89 966.489 9.24C966.159 9.58 965.994 10.05 965.994 10.65V12.255C965.994 12.865 966.159 13.345 966.489 13.695C966.819 14.035 967.319 14.205 967.989 14.205C968.369 14.205 968.664 14.16 968.874 14.07C969.084 13.97 969.244 13.875 969.354 13.785C969.474 13.695 969.584 13.65 969.684 13.65C969.814 13.65 969.919 13.7 969.999 13.8C970.079 13.9 970.119 14.005 970.119 14.115C970.119 14.245 970.029 14.39 969.849 14.55C969.669 14.7 969.414 14.83 969.084 14.94C968.754 15.05 968.369 15.105 967.929 15.105ZM973.932 15.105C973.422 15.105 972.952 14.975 972.522 14.715C972.092 14.445 971.742 14.095 971.472 13.665C971.212 13.225 971.082 12.755 971.082 12.255V10.62C971.082 10.12 971.212 9.66 971.472 9.24C971.732 8.81 972.077 8.465 972.507 8.205C972.937 7.945 973.412 7.815 973.932 7.815C974.442 7.815 974.912 7.945 975.342 8.205C975.772 8.455 976.117 8.795 976.377 9.225C976.647 9.645 976.782 10.11 976.782 10.62V12.255C976.782 12.755 976.647 13.225 976.377 13.665C976.117 14.095 975.772 14.445 975.342 14.715C974.912 14.975 974.442 15.105 973.932 15.105ZM973.932 14.205C974.272 14.205 974.582 14.115 974.862 13.935C975.152 13.745 975.382 13.505 975.552 13.215C975.722 12.915 975.807 12.595 975.807 12.255V10.62C975.807 10.3 975.722 9.995 975.552 9.705C975.392 9.415 975.167 9.18 974.877 9C974.597 8.81 974.282 8.715 973.932 8.715C973.582 8.715 973.262 8.81 972.972 9C972.692 9.18 972.467 9.415 972.297 9.705C972.137 9.995 972.057 10.3 972.057 10.62V12.255C972.057 12.595 972.142 12.915 972.312 13.215C972.482 13.505 972.707 13.745 972.987 13.935C973.267 14.115 973.582 14.205 973.932 14.205ZM981.189 15.105C980.659 15.105 980.179 14.975 979.749 14.715C979.319 14.445 978.974 14.1 978.714 13.68C978.454 13.25 978.324 12.785 978.324 12.285V8.28C978.324 8.19 978.369 8.105 978.459 8.025C978.559 7.945 978.679 7.905 978.819 7.905C978.949 7.905 979.059 7.945 979.149 8.025C979.249 8.105 979.299 8.19 979.299 8.28V12.285C979.299 12.615 979.384 12.925 979.554 13.215C979.724 13.505 979.949 13.745 980.229 13.935C980.519 14.115 980.839 14.205 981.189 14.205C981.529 14.205 981.839 14.115 982.119 13.935C982.409 13.755 982.634 13.52 982.794 13.23C982.964 12.93 983.049 12.615 983.049 12.285V8.265C983.049 8.175 983.099 8.095 983.199 8.025C983.299 7.945 983.414 7.905 983.544 7.905C983.684 7.905 983.799 7.945 983.889 8.025C983.979 8.095 984.024 8.175 984.024 8.265V12.285C984.024 12.785 983.894 13.25 983.634 13.68C983.374 14.11 983.029 14.455 982.599 14.715C982.169 14.975 981.699 15.105 981.189 15.105ZM988.045 15.12C987.805 15.12 987.655 15.04 987.595 14.88L985.18 8.55C985.17 8.53 985.155 8.495 985.135 8.445C985.125 8.395 985.12 8.355 985.12 8.325C985.12 8.205 985.185 8.1 985.315 8.01C985.445 7.92 985.575 7.875 985.705 7.875C985.885 7.875 986.005 7.95 986.065 8.1L988.045 13.5L990.025 8.16C990.055 8.08 990.09 8.015 990.13 7.965C990.18 7.905 990.26 7.875 990.37 7.875C990.48 7.875 990.605 7.92 990.745 8.01C990.895 8.09 990.97 8.19 990.97 8.31C990.97 8.36 990.96 8.405 990.94 8.445C990.93 8.485 990.92 8.52 990.91 8.55L988.495 14.88C988.425 15.04 988.275 15.12 988.045 15.12ZM992.604 15C992.464 15 992.349 14.96 992.259 14.88C992.169 14.8 992.124 14.715 992.124 14.625V8.265C992.124 8.165 992.169 8.08 992.259 8.01C992.349 7.94 992.464 7.905 992.604 7.905C992.734 7.905 992.844 7.94 992.934 8.01C993.024 8.08 993.069 8.165 993.069 8.265V9C993.229 8.7 993.479 8.43 993.819 8.19C994.169 7.94 994.589 7.815 995.079 7.815H995.604C995.704 7.815 995.794 7.86 995.874 7.95C995.954 8.04 995.994 8.145 995.994 8.265C995.994 8.385 995.954 8.49 995.874 8.58C995.794 8.67 995.704 8.715 995.604 8.715H995.079C994.749 8.715 994.429 8.805 994.119 8.985C993.819 9.155 993.574 9.405 993.384 9.735C993.194 10.055 993.099 10.445 993.099 10.905V14.625C993.099 14.715 993.049 14.8 992.949 14.88C992.859 14.96 992.744 15 992.604 15ZM997.555 15C997.425 15 997.31 14.96 997.21 14.88C997.12 14.8 997.075 14.715 997.075 14.625V8.265C997.075 8.165 997.12 8.08 997.21 8.01C997.31 7.94 997.425 7.905 997.555 7.905C997.695 7.905 997.81 7.94 997.9 8.01C998 8.08 998.05 8.165 998.05 8.265V14.625C998.05 14.715 998 14.8 997.9 14.88C997.81 14.96 997.695 15 997.555 15ZM997.555 5.805C997.375 5.805 997.22 5.745 997.09 5.625C996.96 5.495 996.895 5.345 996.895 5.175C996.895 5.005 996.96 4.86 997.09 4.74C997.22 4.62 997.375 4.56 997.555 4.56C997.735 4.56 997.89 4.62 998.02 4.74C998.15 4.86 998.215 5.005 998.215 5.175C998.215 5.345 998.15 5.495 998.02 5.625C997.89 5.745 997.735 5.805 997.555 5.805ZM1000.4 15C1000.26 15 1000.14 14.96 1000.05 14.88C999.962 14.8 999.917 14.715 999.917 14.625V8.265C999.917 8.165 999.962 8.08 1000.05 8.01C1000.14 7.94 1000.26 7.905 1000.4 7.905C1000.53 7.905 1000.64 7.94 1000.73 8.01C1000.82 8.08 1000.86 8.165 1000.86 8.265V9C1001.02 8.7 1001.27 8.43 1001.61 8.19C1001.96 7.94 1002.38 7.815 1002.87 7.815H1003.4C1003.5 7.815 1003.59 7.86 1003.67 7.95C1003.75 8.04 1003.79 8.145 1003.79 8.265C1003.79 8.385 1003.75 8.49 1003.67 8.58C1003.59 8.67 1003.5 8.715 1003.4 8.715H1002.87C1002.54 8.715 1002.22 8.805 1001.91 8.985C1001.61 9.155 1001.37 9.405 1001.18 9.735C1000.99 10.055 1000.89 10.445 1000.89 10.905V14.625C1000.89 14.715 1000.84 14.8 1000.74 14.88C1000.65 14.96 1000.54 15 1000.4 15ZM1008.49 15C1008.35 15 1008.23 14.96 1008.14 14.88C1008.05 14.8 1008.01 14.715 1008.01 14.625V3.915C1008.01 3.815 1008.05 3.73 1008.14 3.66C1008.23 3.59 1008.35 3.555 1008.49 3.555C1008.63 3.555 1008.74 3.59 1008.83 3.66C1008.93 3.73 1008.98 3.815 1008.98 3.915V14.625C1008.98 14.715 1008.93 14.8 1008.83 14.88C1008.74 14.96 1008.63 15 1008.49 15ZM1012.55 15.105C1011.98 15.105 1011.5 14.945 1011.1 14.625C1010.71 14.295 1010.51 13.795 1010.51 13.125C1010.51 12.575 1010.66 12.155 1010.95 11.865C1011.25 11.565 1011.66 11.36 1012.18 11.25C1012.71 11.13 1013.32 11.07 1014.01 11.07H1014.77V10.71C1014.77 10.39 1014.71 10.075 1014.59 9.765C1014.48 9.445 1014.3 9.185 1014.04 8.985C1013.78 8.775 1013.43 8.67 1013 8.67C1012.67 8.67 1012.4 8.71 1012.19 8.79C1011.98 8.86 1011.82 8.93 1011.7 9C1011.58 9.07 1011.48 9.105 1011.4 9.105C1011.27 9.105 1011.17 9.045 1011.1 8.925C1011.04 8.805 1011.01 8.69 1011.01 8.58C1011.01 8.45 1011.11 8.33 1011.31 8.22C1011.52 8.1 1011.78 8.005 1012.09 7.935C1012.4 7.855 1012.71 7.815 1013.03 7.815C1013.7 7.815 1014.23 7.955 1014.62 8.235C1015.02 8.505 1015.31 8.86 1015.48 9.3C1015.66 9.74 1015.75 10.21 1015.75 10.71V14.625C1015.75 14.725 1015.7 14.815 1015.61 14.895C1015.52 14.965 1015.41 15 1015.27 15C1015.14 15 1015.03 14.965 1014.94 14.895C1014.86 14.815 1014.82 14.725 1014.82 14.625V13.95C1014.56 14.25 1014.24 14.52 1013.86 14.76C1013.49 14.99 1013.05 15.105 1012.55 15.105ZM1012.79 14.295C1013.11 14.295 1013.42 14.21 1013.72 14.04C1014.03 13.87 1014.28 13.66 1014.47 13.41C1014.67 13.16 1014.77 12.925 1014.77 12.705V11.745H1014.14C1013.68 11.745 1013.25 11.775 1012.84 11.835C1012.44 11.885 1012.11 12.005 1011.86 12.195C1011.61 12.375 1011.49 12.655 1011.49 13.035C1011.49 13.465 1011.61 13.785 1011.86 13.995C1012.11 14.195 1012.42 14.295 1012.79 14.295ZM1022.49 15.105C1022.02 15.105 1021.61 15.05 1021.25 14.94C1020.9 14.82 1020.62 14.675 1020.42 14.505C1020.23 14.335 1020.14 14.175 1020.14 14.025C1020.14 13.935 1020.17 13.84 1020.23 13.74C1020.3 13.64 1020.38 13.59 1020.48 13.59C1020.59 13.59 1020.71 13.65 1020.84 13.77C1020.97 13.88 1021.16 13.995 1021.41 14.115C1021.66 14.225 1022.01 14.28 1022.46 14.28C1023.03 14.28 1023.43 14.175 1023.66 13.965C1023.89 13.745 1024.01 13.495 1024.01 13.215C1024.01 12.885 1023.92 12.63 1023.74 12.45C1023.56 12.26 1023.33 12.115 1023.05 12.015C1022.77 11.905 1022.47 11.81 1022.15 11.73C1021.84 11.64 1021.54 11.53 1021.25 11.4C1020.97 11.26 1020.74 11.07 1020.56 10.83C1020.39 10.59 1020.3 10.265 1020.3 9.855C1020.3 9.535 1020.38 9.22 1020.53 8.91C1020.69 8.6 1020.94 8.34 1021.29 8.13C1021.64 7.92 1022.1 7.815 1022.67 7.815C1023 7.815 1023.32 7.85 1023.62 7.92C1023.93 7.99 1024.18 8.085 1024.38 8.205C1024.58 8.315 1024.68 8.43 1024.68 8.55C1024.68 8.63 1024.64 8.735 1024.56 8.865C1024.49 8.995 1024.4 9.06 1024.28 9.06C1024.2 9.06 1024.09 9.025 1023.95 8.955C1023.82 8.885 1023.65 8.815 1023.44 8.745C1023.23 8.675 1022.98 8.64 1022.69 8.64C1022.32 8.64 1022.02 8.705 1021.8 8.835C1021.58 8.965 1021.42 9.12 1021.32 9.3C1021.23 9.48 1021.19 9.65 1021.19 9.81C1021.19 10.1 1021.28 10.325 1021.46 10.485C1021.64 10.635 1021.87 10.755 1022.15 10.845C1022.44 10.935 1022.74 11.025 1023.05 11.115C1023.37 11.195 1023.67 11.31 1023.95 11.46C1024.23 11.61 1024.46 11.82 1024.64 12.09C1024.82 12.36 1024.91 12.72 1024.91 13.17C1024.91 13.77 1024.7 14.245 1024.28 14.595C1023.86 14.935 1023.26 15.105 1022.49 15.105ZM1029.16 15.105C1028.63 15.105 1028.15 14.975 1027.72 14.715C1027.29 14.445 1026.95 14.1 1026.69 13.68C1026.43 13.25 1026.3 12.785 1026.3 12.285V8.28C1026.3 8.19 1026.34 8.105 1026.43 8.025C1026.53 7.945 1026.65 7.905 1026.79 7.905C1026.92 7.905 1027.03 7.945 1027.12 8.025C1027.22 8.105 1027.27 8.19 1027.27 8.28V12.285C1027.27 12.615 1027.36 12.925 1027.53 13.215C1027.7 13.505 1027.92 13.745 1028.2 13.935C1028.49 14.115 1028.81 14.205 1029.16 14.205C1029.5 14.205 1029.81 14.115 1030.09 13.935C1030.38 13.755 1030.61 13.52 1030.77 13.23C1030.94 12.93 1031.02 12.615 1031.02 12.285V8.265C1031.02 8.175 1031.07 8.095 1031.17 8.025C1031.27 7.945 1031.39 7.905 1031.52 7.905C1031.66 7.905 1031.77 7.945 1031.86 8.025C1031.95 8.095 1032 8.175 1032 8.265V12.285C1032 12.785 1031.87 13.25 1031.61 13.68C1031.35 14.11 1031 14.455 1030.57 14.715C1030.14 14.975 1029.67 15.105 1029.16 15.105ZM1034.28 15C1034.15 15 1034.03 14.96 1033.93 14.88C1033.84 14.8 1033.8 14.715 1033.8 14.625V8.265C1033.8 8.165 1033.84 8.08 1033.93 8.01C1034.03 7.94 1034.15 7.905 1034.28 7.905C1034.42 7.905 1034.53 7.94 1034.62 8.01C1034.72 8.08 1034.77 8.165 1034.77 8.265V14.625C1034.77 14.715 1034.72 14.8 1034.62 14.88C1034.53 14.96 1034.42 15 1034.28 15ZM1034.28 5.805C1034.1 5.805 1033.94 5.745 1033.81 5.625C1033.68 5.495 1033.62 5.345 1033.62 5.175C1033.62 5.005 1033.68 4.86 1033.81 4.74C1033.94 4.62 1034.1 4.56 1034.28 4.56C1034.46 4.56 1034.61 4.62 1034.74 4.74C1034.87 4.86 1034.94 5.005 1034.94 5.175C1034.94 5.345 1034.87 5.495 1034.74 5.625C1034.61 5.745 1034.46 5.805 1034.28 5.805ZM1039 15C1038.23 15 1037.64 14.825 1037.23 14.475C1036.82 14.125 1036.61 13.565 1036.61 12.795V4.89C1036.61 4.79 1036.66 4.705 1036.76 4.635C1036.87 4.565 1036.98 4.53 1037.09 4.53C1037.22 4.53 1037.34 4.565 1037.44 4.635C1037.54 4.705 1037.59 4.79 1037.59 4.89V7.905H1039.54C1039.64 7.905 1039.72 7.95 1039.78 8.04C1039.84 8.12 1039.87 8.21 1039.87 8.31C1039.87 8.42 1039.84 8.515 1039.78 8.595C1039.72 8.675 1039.64 8.715 1039.54 8.715H1037.59V12.795C1037.59 13.285 1037.69 13.63 1037.9 13.83C1038.11 14.02 1038.48 14.115 1039 14.115H1039.42C1039.55 14.115 1039.65 14.16 1039.73 14.25C1039.81 14.34 1039.85 14.44 1039.85 14.55C1039.85 14.67 1039.81 14.775 1039.73 14.865C1039.65 14.955 1039.55 15 1039.42 15H1039ZM1043.89 15.105C1043.26 15.105 1042.7 14.99 1042.21 14.76C1041.73 14.52 1041.35 14.185 1041.07 13.755C1040.8 13.325 1040.66 12.825 1040.66 12.255V10.575C1040.66 10.075 1040.79 9.62 1041.05 9.21C1041.31 8.79 1041.66 8.455 1042.09 8.205C1042.53 7.945 1043.01 7.815 1043.53 7.815C1044.03 7.815 1044.49 7.935 1044.91 8.175C1045.34 8.405 1045.68 8.725 1045.94 9.135C1046.2 9.545 1046.33 10.015 1046.33 10.545C1046.33 10.935 1046.27 11.215 1046.14 11.385C1046.01 11.545 1045.84 11.645 1045.64 11.685C1045.45 11.725 1045.25 11.745 1045.03 11.745H1041.64V12.3C1041.64 12.9 1041.85 13.38 1042.28 13.74C1042.71 14.09 1043.26 14.265 1043.92 14.265C1044.32 14.265 1044.62 14.215 1044.83 14.115C1045.05 14.015 1045.23 13.915 1045.36 13.815C1045.49 13.715 1045.61 13.665 1045.72 13.665C1045.84 13.665 1045.94 13.72 1046.02 13.83C1046.1 13.93 1046.14 14.025 1046.14 14.115C1046.14 14.235 1046.04 14.375 1045.85 14.535C1045.67 14.685 1045.41 14.82 1045.07 14.94C1044.74 15.05 1044.35 15.105 1043.89 15.105ZM1041.64 11.025H1044.64C1044.94 11.025 1045.14 10.995 1045.24 10.935C1045.34 10.865 1045.39 10.725 1045.39 10.515C1045.39 10.195 1045.31 9.895 1045.15 9.615C1044.99 9.325 1044.77 9.09 1044.49 8.91C1044.21 8.72 1043.88 8.625 1043.51 8.625C1043.16 8.625 1042.85 8.71 1042.57 8.88C1042.29 9.04 1042.06 9.26 1041.89 9.54C1041.72 9.82 1041.64 10.125 1041.64 10.455V11.025Z" fill="#485F62"/>
<line x1="946.354" y1="34.1464" x2="960.354" y2="48.1464" stroke="#485F62"/>
<line x1="974.354" y1="34.8536" x2="960.354" y2="48.8536" stroke="#485F62"/>
</svg>
