<svg width="1920" height="60" viewBox="0 0 1920 60" fill="none" xmlns="http://www.w3.org/2000/svg">
<path d="M939.804 26.175C938.738 26.175 937.821 26.0167 937.054 25.7C936.288 25.3667 935.696 24.9917 935.279 24.575C934.879 24.1417 934.679 23.775 934.679 23.475C934.679 23.275 934.754 23.075 934.904 22.875C935.071 22.6583 935.246 22.55 935.429 22.55C935.596 22.55 935.763 22.6583 935.929 22.875C936.113 23.075 936.346 23.3167 936.629 23.6C936.929 23.8667 937.321 24.1083 937.804 24.325C938.288 24.525 938.921 24.625 939.704 24.625C940.871 24.625 941.779 24.3417 942.429 23.775C943.096 23.1917 943.429 22.325 943.429 21.175C943.429 20.3917 943.279 19.75 942.979 19.25C942.679 18.75 942.279 18.35 941.779 18.05C941.296 17.7333 940.754 17.4667 940.154 17.25C939.571 17.0333 938.979 16.8083 938.379 16.575C937.796 16.3417 937.254 16.0583 936.754 15.725C936.271 15.375 935.879 14.925 935.579 14.375C935.279 13.8083 935.129 13.0917 935.129 12.225C935.129 11.3083 935.296 10.5583 935.629 9.975C935.963 9.375 936.388 8.90833 936.904 8.575C937.438 8.24167 938.013 8.00833 938.629 7.875C939.246 7.74167 939.846 7.675 940.429 7.675C941.046 7.675 941.679 7.74167 942.329 7.875C942.979 8.00833 943.521 8.19167 943.954 8.425C944.404 8.64167 944.629 8.9 944.629 9.2C944.629 9.36667 944.563 9.56667 944.429 9.8C944.313 10.0167 944.138 10.125 943.904 10.125C943.754 10.125 943.546 10.05 943.279 9.9C943.013 9.73333 942.646 9.575 942.179 9.425C941.729 9.25833 941.138 9.175 940.404 9.175C939.788 9.175 939.204 9.26667 938.654 9.45C938.104 9.61667 937.654 9.91667 937.304 10.35C936.954 10.7667 936.779 11.3417 936.779 12.075C936.779 12.7417 936.929 13.2833 937.229 13.7C937.529 14.1 937.921 14.4333 938.404 14.7C938.904 14.95 939.446 15.175 940.029 15.375C940.629 15.575 941.221 15.8 941.804 16.05C942.404 16.3 942.946 16.625 943.429 17.025C943.929 17.425 944.329 17.9417 944.629 18.575C944.929 19.2083 945.079 20.025 945.079 21.025C945.079 22.2083 944.854 23.1833 944.404 23.95C943.954 24.7 943.329 25.2583 942.529 25.625C941.746 25.9917 940.838 26.175 939.804 26.175ZM952.133 26.175C951.033 26.175 950.124 25.9667 949.408 25.55C948.691 25.1333 948.158 24.575 947.808 23.875C947.458 23.1583 947.283 22.3417 947.283 21.425V18.75C947.283 17.8667 947.449 17.0667 947.783 16.35C948.133 15.6333 948.666 15.0667 949.383 14.65C950.099 14.2333 951.016 14.025 952.133 14.025C952.833 14.025 953.441 14.1167 953.958 14.3C954.491 14.4667 954.899 14.6833 955.183 14.95C955.483 15.2 955.633 15.4333 955.633 15.65C955.633 15.8167 955.558 15.9917 955.408 16.175C955.274 16.3583 955.116 16.45 954.933 16.45C954.766 16.45 954.591 16.375 954.408 16.225C954.224 16.0583 953.958 15.9 953.608 15.75C953.274 15.6 952.808 15.525 952.208 15.525C951.124 15.525 950.299 15.8167 949.733 16.4C949.183 16.9667 948.908 17.75 948.908 18.75V21.425C948.908 22.4417 949.183 23.2417 949.733 23.825C950.283 24.3917 951.116 24.675 952.233 24.675C952.866 24.675 953.358 24.6 953.708 24.45C954.058 24.2833 954.324 24.125 954.508 23.975C954.708 23.825 954.891 23.75 955.058 23.75C955.274 23.75 955.449 23.8333 955.583 24C955.716 24.1667 955.783 24.3417 955.783 24.525C955.783 24.7417 955.633 24.9833 955.333 25.25C955.033 25.5 954.608 25.7167 954.058 25.9C953.508 26.0833 952.866 26.175 952.133 26.175ZM958.786 26C958.552 26 958.361 25.9333 958.211 25.8C958.061 25.6667 957.986 25.525 957.986 25.375V14.775C957.986 14.6083 958.061 14.4667 958.211 14.35C958.361 14.2333 958.552 14.175 958.786 14.175C959.002 14.175 959.186 14.2333 959.336 14.35C959.486 14.4667 959.561 14.6083 959.561 14.775V16C959.827 15.5 960.244 15.05 960.811 14.65C961.394 14.2333 962.094 14.025 962.911 14.025H963.786C963.952 14.025 964.102 14.1 964.236 14.25C964.369 14.4 964.436 14.575 964.436 14.775C964.436 14.975 964.369 15.15 964.236 15.3C964.102 15.45 963.952 15.525 963.786 15.525H962.911C962.361 15.525 961.827 15.675 961.311 15.975C960.811 16.2583 960.402 16.675 960.086 17.225C959.769 17.7583 959.611 18.4083 959.611 19.175V25.375C959.611 25.525 959.527 25.6667 959.361 25.8C959.211 25.9333 959.019 26 958.786 26ZM970 26.175C969.15 26.175 968.367 25.9583 967.65 25.525C966.934 25.075 966.35 24.4917 965.9 23.775C965.467 23.0417 965.25 22.2583 965.25 21.425V18.7C965.25 17.8667 965.467 17.1 965.9 16.4C966.334 15.6833 966.909 15.1083 967.625 14.675C968.342 14.2417 969.134 14.025 970 14.025C970.85 14.025 971.634 14.2417 972.35 14.675C973.067 15.0917 973.642 15.6583 974.075 16.375C974.525 17.075 974.75 17.85 974.75 18.7V21.425C974.75 22.2583 974.525 23.0417 974.075 23.775C973.642 24.4917 973.067 25.075 972.35 25.525C971.634 25.9583 970.85 26.175 970 26.175ZM970 24.675C970.567 24.675 971.084 24.525 971.55 24.225C972.034 23.9083 972.417 23.5083 972.7 23.025C972.984 22.525 973.125 21.9917 973.125 21.425V18.7C973.125 18.1667 972.984 17.6583 972.7 17.175C972.434 16.6917 972.059 16.3 971.575 16C971.109 15.6833 970.584 15.525 970 15.525C969.417 15.525 968.884 15.6833 968.4 16C967.934 16.3 967.559 16.6917 967.275 17.175C967.009 17.6583 966.875 18.1667 966.875 18.7V21.425C966.875 21.9917 967.017 22.525 967.3 23.025C967.584 23.5083 967.959 23.9083 968.425 24.225C968.892 24.525 969.417 24.675 970 24.675ZM978.444 26C978.211 26 978.019 25.9333 977.869 25.8C977.719 25.6667 977.644 25.525 977.644 25.375V7.525C977.644 7.35833 977.719 7.21667 977.869 7.1C978.019 6.98333 978.211 6.925 978.444 6.925C978.677 6.925 978.869 6.98333 979.019 7.1C979.186 7.21667 979.269 7.35833 979.269 7.525V25.375C979.269 25.525 979.186 25.6667 979.019 25.8C978.869 25.9333 978.677 26 978.444 26ZM983.62 26C983.387 26 983.195 25.9333 983.045 25.8C982.895 25.6667 982.82 25.525 982.82 25.375V7.525C982.82 7.35833 982.895 7.21667 983.045 7.1C983.195 6.98333 983.387 6.925 983.62 6.925C983.853 6.925 984.045 6.98333 984.195 7.1C984.362 7.21667 984.445 7.35833 984.445 7.525V25.375C984.445 25.525 984.362 25.6667 984.195 25.8C984.045 25.9333 983.853 26 983.62 26Z" fill="#485F62"/>
<line x1="946.354" y1="44.1464" x2="960.354" y2="58.1464" stroke="#485F62"/>
<line x1="974.354" y1="44.8536" x2="960.354" y2="58.8536" stroke="#485F62"/>
</svg>
