<svg width="432" height="65" viewBox="0 0 432 65" fill="none" xmlns="http://www.w3.org/2000/svg">
<path d="M20.5663 64C19.6703 64 18.8583 63.804 18.1303 63.412C17.4023 62.964 17.0383 62.32 17.0383 61.48V9.148H3.43033C2.64633 9.148 2.03033 8.812 1.58233 8.14C1.19033 7.468 0.994328 6.684 0.994328 5.788C0.994328 5.004 1.19033 4.276 1.58233 3.604C1.97433 2.932 2.59033 2.596 3.43033 2.596H37.7023C38.5423 2.596 39.1583 2.932 39.5503 3.604C39.9423 4.276 40.1383 5.004 40.1383 5.788C40.1383 6.628 39.9143 7.412 39.4663 8.14C39.0743 8.812 38.4863 9.148 37.7023 9.148H24.0943V61.48C24.0943 62.32 23.7303 62.964 23.0023 63.412C22.2743 63.804 21.4623 64 20.5663 64ZM55.7951 64.672C52.1551 64.672 48.9071 64 46.0511 62.656C43.2511 61.256 41.0391 59.352 39.4151 56.944C37.8471 54.48 37.0631 51.624 37.0631 48.376V39.556C37.0631 36.7 37.8191 34.068 39.3311 31.66C40.8431 29.252 42.8591 27.32 45.3791 25.864C47.9551 24.408 50.7551 23.68 53.7791 23.68C56.6351 23.68 59.2951 24.352 61.7591 25.696C64.2231 27.04 66.1831 28.888 67.6391 31.24C69.1511 33.536 69.9071 36.168 69.9071 39.136C69.9071 41.376 69.5431 43 68.8151 44.008C68.1431 44.96 67.2191 45.548 66.0431 45.772C64.9231 45.996 63.7471 46.108 62.5151 46.108H44.0351V48.628C44.0351 51.764 45.1551 54.256 47.3951 56.104C49.6351 57.896 52.5191 58.792 56.0471 58.792C58.1191 58.792 59.7711 58.512 61.0031 57.952C62.2351 57.392 63.2151 56.86 63.9431 56.356C64.7271 55.796 65.4551 55.516 66.1271 55.516C66.9671 55.516 67.6391 55.908 68.1431 56.692C68.7031 57.42 68.9831 58.092 68.9831 58.708C68.9831 59.436 68.4511 60.276 67.3871 61.228C66.3231 62.124 64.7831 62.936 62.7671 63.664C60.8071 64.336 58.4831 64.672 55.7951 64.672ZM44.0351 41.404H59.5751C61.0311 41.404 62.0111 41.236 62.5151 40.9C63.0191 40.564 63.2711 39.836 63.2711 38.716C63.2711 37.036 62.8511 35.496 62.0111 34.096C61.2271 32.64 60.1071 31.464 58.6511 30.568C57.1951 29.672 55.5431 29.224 53.6951 29.224C51.0631 29.224 48.7951 30.12 46.8911 31.912C44.9871 33.704 44.0351 35.86 44.0351 38.38V41.404ZM78.882 64.672C78.098 64.672 77.174 64.308 76.11 63.58C75.102 62.796 74.598 62.012 74.598 61.228C74.598 60.724 74.766 60.248 75.102 59.8L85.854 43.84L75.438 28.552C75.102 28.104 74.934 27.656 74.934 27.208C74.934 26.368 75.438 25.584 76.446 24.856C77.51 24.072 78.49 23.68 79.386 23.68C79.666 23.68 79.974 23.764 80.31 23.932C80.702 24.044 81.01 24.296 81.234 24.688L90.558 39.136L99.966 24.688C100.134 24.352 100.386 24.1 100.722 23.932C101.114 23.764 101.478 23.68 101.814 23.68C102.654 23.68 103.578 24.072 104.586 24.856C105.65 25.584 106.182 26.368 106.182 27.208C106.182 27.6 106.014 28.048 105.678 28.552L95.178 43.84L106.098 59.8C106.378 60.248 106.518 60.724 106.518 61.228C106.518 62.012 106.014 62.796 105.006 63.58C104.054 64.308 103.102 64.672 102.15 64.672C101.87 64.672 101.534 64.588 101.142 64.42C100.806 64.252 100.526 64 100.302 63.664L90.558 48.796L80.898 63.664C80.45 64.336 79.778 64.672 78.882 64.672ZM127.164 64C122.628 64 119.156 62.992 116.748 60.976C114.396 58.96 113.22 55.74 113.22 51.316V8.056C113.22 7.328 113.584 6.74 114.312 6.292C115.04 5.844 115.824 5.62 116.664 5.62C117.56 5.62 118.372 5.844 119.1 6.292C119.828 6.74 120.192 7.328 120.192 8.056V24.184H130.776C131.448 24.184 131.952 24.492 132.288 25.108C132.68 25.668 132.876 26.284 132.876 26.956C132.876 27.684 132.68 28.328 132.288 28.888C131.952 29.392 131.448 29.644 130.776 29.644H120.192V51.316C120.192 53.724 120.696 55.432 121.704 56.44C122.768 57.392 124.588 57.868 127.164 57.868H129.768C130.72 57.868 131.448 58.176 131.952 58.792C132.512 59.408 132.792 60.108 132.792 60.892C132.792 61.732 132.512 62.46 131.952 63.076C131.448 63.692 130.72 64 129.768 64H127.164ZM155.791 64.672C152.151 64.672 148.903 64 146.047 62.656C143.247 61.256 141.035 59.352 139.411 56.944C137.843 54.48 137.059 51.624 137.059 48.376V39.556C137.059 36.7 137.815 34.068 139.327 31.66C140.839 29.252 142.855 27.32 145.375 25.864C147.951 24.408 150.751 23.68 153.775 23.68C156.631 23.68 159.291 24.352 161.755 25.696C164.219 27.04 166.179 28.888 167.635 31.24C169.147 33.536 169.903 36.168 169.903 39.136C169.903 41.376 169.539 43 168.811 44.008C168.139 44.96 167.215 45.548 166.039 45.772C164.919 45.996 163.743 46.108 162.511 46.108H144.031V48.628C144.031 51.764 145.151 54.256 147.391 56.104C149.631 57.896 152.515 58.792 156.043 58.792C158.115 58.792 159.767 58.512 160.999 57.952C162.231 57.392 163.211 56.86 163.939 56.356C164.723 55.796 165.451 55.516 166.123 55.516C166.963 55.516 167.635 55.908 168.139 56.692C168.699 57.42 168.979 58.092 168.979 58.708C168.979 59.436 168.447 60.276 167.383 61.228C166.319 62.124 164.779 62.936 162.763 63.664C160.803 64.336 158.479 64.672 155.791 64.672ZM144.031 41.404H159.571C161.027 41.404 162.007 41.236 162.511 40.9C163.015 40.564 163.267 39.836 163.267 38.716C163.267 37.036 162.847 35.496 162.007 34.096C161.223 32.64 160.103 31.464 158.647 30.568C157.191 29.672 155.539 29.224 153.691 29.224C151.059 29.224 148.791 30.12 146.887 31.912C144.983 33.704 144.031 35.86 144.031 38.38V41.404ZM189.042 64.672C186.354 64.672 183.974 64.336 181.902 63.664C179.83 62.992 178.206 62.18 177.03 61.228C175.854 60.22 175.266 59.24 175.266 58.288C175.266 57.672 175.49 57 175.938 56.272C176.442 55.488 177.03 55.096 177.702 55.096C178.374 55.096 179.074 55.432 179.802 56.104C180.586 56.72 181.65 57.364 182.994 58.036C184.394 58.708 186.354 59.044 188.874 59.044C191.842 59.044 193.914 58.512 195.09 57.448C196.266 56.328 196.854 55.096 196.854 53.752C196.854 52.016 196.35 50.7 195.342 49.804C194.334 48.852 193.046 48.124 191.478 47.62C189.91 47.06 188.258 46.528 186.522 46.024C184.786 45.52 183.134 44.904 181.566 44.176C179.998 43.392 178.71 42.328 177.702 40.984C176.75 39.64 176.274 37.792 176.274 35.44C176.274 33.592 176.722 31.772 177.618 29.98C178.514 28.188 179.97 26.704 181.986 25.528C184.002 24.296 186.69 23.68 190.05 23.68C192.01 23.68 193.886 23.904 195.678 24.352C197.526 24.8 199.01 25.36 200.13 26.032C201.306 26.704 201.894 27.432 201.894 28.216C201.894 28.776 201.642 29.504 201.138 30.4C200.634 31.296 199.962 31.744 199.122 31.744C198.618 31.744 197.974 31.548 197.19 31.156C196.406 30.708 195.426 30.288 194.25 29.896C193.13 29.504 191.758 29.308 190.134 29.308C187.334 29.308 185.346 29.98 184.17 31.324C183.05 32.668 182.49 33.956 182.49 35.188C182.49 36.588 182.966 37.68 183.918 38.464C184.926 39.248 186.214 39.892 187.782 40.396C189.35 40.844 191.002 41.32 192.738 41.824C194.53 42.272 196.21 42.944 197.778 43.84C199.346 44.68 200.634 45.856 201.642 47.368C202.65 48.88 203.154 50.896 203.154 53.416C203.154 56.832 201.922 59.576 199.458 61.648C196.994 63.664 193.522 64.672 189.042 64.672ZM236.311 64.672C233.175 64.672 230.487 63.776 228.247 61.984C226.063 60.136 224.971 57.308 224.971 53.5C224.971 50.42 225.783 48.04 227.407 46.36C229.087 44.624 231.383 43.448 234.295 42.832C237.263 42.16 240.707 41.824 244.627 41.824H248.659V40.06C248.659 38.38 248.351 36.756 247.735 35.188C247.119 33.564 246.139 32.248 244.795 31.24C243.451 30.176 241.659 29.644 239.419 29.644C237.459 29.644 235.891 29.868 234.715 30.316C233.595 30.708 232.699 31.1 232.027 31.492C231.355 31.884 230.767 32.08 230.263 32.08C229.423 32.08 228.779 31.688 228.331 30.904C227.883 30.12 227.659 29.336 227.659 28.552C227.659 27.656 228.247 26.844 229.423 26.116C230.655 25.388 232.195 24.8 234.043 24.352C235.891 23.904 237.739 23.68 239.587 23.68C243.507 23.68 246.643 24.464 248.995 26.032C251.347 27.6 253.027 29.616 254.035 32.08C255.099 34.544 255.631 37.176 255.631 39.976V61.48C255.631 62.208 255.295 62.824 254.623 63.328C254.007 63.776 253.195 64 252.187 64C251.291 64 250.535 63.776 249.919 63.328C249.303 62.824 248.995 62.208 248.995 61.48V58.12C247.539 59.8 245.775 61.312 243.703 62.656C241.631 64 239.167 64.672 236.311 64.672ZM238.495 59.044C240.119 59.044 241.687 58.596 243.199 57.7C244.767 56.804 246.055 55.712 247.063 54.424C248.127 53.08 248.659 51.764 248.659 50.476V46.108H245.719C243.367 46.108 241.127 46.248 238.999 46.528C236.927 46.808 235.247 47.424 233.959 48.376C232.671 49.328 232.027 50.784 232.027 52.744C232.027 54.928 232.643 56.524 233.875 57.532C235.107 58.54 236.647 59.044 238.495 59.044ZM281.357 64.672C278.333 64.672 275.561 63.916 273.041 62.404C270.521 60.892 268.505 58.904 266.993 56.44C265.481 53.976 264.725 51.344 264.725 48.544V26.704C264.725 26.088 265.061 25.528 265.733 25.024C266.461 24.464 267.301 24.184 268.253 24.184C269.205 24.184 270.017 24.464 270.689 25.024C271.361 25.528 271.697 26.088 271.697 26.704V48.544C271.697 50.168 272.117 51.736 272.957 53.248C273.853 54.76 275.029 55.992 276.485 56.944C277.941 57.896 279.565 58.372 281.357 58.372C283.149 58.372 284.773 57.896 286.229 56.944C287.685 55.992 288.833 54.788 289.673 53.332C290.513 51.82 290.933 50.224 290.933 48.544V26.62C290.933 26.004 291.269 25.444 291.941 24.94C292.669 24.436 293.509 24.184 294.461 24.184C295.469 24.184 296.281 24.436 296.897 24.94C297.569 25.444 297.905 26.004 297.905 26.62V48.544C297.905 51.4 297.149 54.06 295.637 56.524C294.181 58.932 292.193 60.892 289.673 62.404C287.153 63.916 284.381 64.672 281.357 64.672ZM320.83 64.672C318.198 64.672 315.734 63.916 313.438 62.404C311.198 60.836 309.378 58.82 307.978 56.356C306.634 53.836 305.962 51.176 305.962 48.376V39.808C305.962 36.896 306.634 34.208 307.978 31.744C309.378 29.28 311.198 27.32 313.438 25.864C315.734 24.408 318.254 23.68 320.998 23.68C323.686 23.68 325.954 24.352 327.802 25.696C329.706 26.984 331.106 28.44 332.002 30.064V2.596C332.002 1.868 332.338 1.28 333.01 0.831997C333.738 0.383996 334.606 0.159996 335.614 0.159996C336.566 0.159996 337.35 0.383996 337.966 0.831997C338.638 1.28 338.974 1.868 338.974 2.596V61.48C338.974 62.096 338.638 62.684 337.966 63.244C337.35 63.748 336.566 64 335.614 64C334.718 64 333.934 63.748 333.262 63.244C332.646 62.684 332.338 62.096 332.338 61.48V58.12C331.442 59.856 329.93 61.396 327.802 62.74C325.73 64.028 323.406 64.672 320.83 64.672ZM322.51 58.372C324.302 58.372 325.898 57.896 327.298 56.944C328.754 55.936 329.902 54.844 330.742 53.668C331.582 52.436 332.002 51.428 332.002 50.644V39.808C332.002 37.792 331.526 36.056 330.574 34.6C329.678 33.088 328.502 31.94 327.046 31.156C325.59 30.372 324.106 29.98 322.594 29.98C320.802 29.98 319.178 30.456 317.722 31.408C316.266 32.36 315.09 33.592 314.194 35.104C313.354 36.616 312.934 38.184 312.934 39.808V48.376C312.934 50.056 313.354 51.652 314.194 53.164C315.09 54.676 316.266 55.936 317.722 56.944C319.178 57.896 320.774 58.372 322.51 58.372ZM352.425 64C351.417 64 350.577 63.748 349.905 63.244C349.289 62.684 348.981 62.096 348.981 61.48V26.62C348.981 25.892 349.289 25.304 349.905 24.856C350.577 24.408 351.417 24.184 352.425 24.184C353.377 24.184 354.189 24.408 354.861 24.856C355.589 25.304 355.953 25.892 355.953 26.62V61.48C355.953 62.096 355.589 62.684 354.861 63.244C354.189 63.748 353.377 64 352.425 64ZM352.425 13.264C351.193 13.264 350.157 12.872 349.317 12.088C348.477 11.248 348.057 10.296 348.057 9.232C348.057 8.168 348.477 7.244 349.317 6.45999C350.157 5.67599 351.193 5.28399 352.425 5.28399C353.601 5.28399 354.609 5.67599 355.449 6.45999C356.289 7.244 356.709 8.168 356.709 9.232C356.709 10.296 356.289 11.248 355.449 12.088C354.609 12.872 353.601 13.264 352.425 13.264ZM380.834 64.672C377.866 64.672 375.122 63.916 372.602 62.404C370.082 60.836 368.066 58.82 366.554 56.356C365.042 53.892 364.286 51.232 364.286 48.376V39.808C364.286 36.952 365.014 34.32 366.47 31.912C367.982 29.448 369.998 27.46 372.518 25.948C375.038 24.436 377.81 23.68 380.834 23.68C383.802 23.68 386.546 24.408 389.066 25.864C391.586 27.32 393.602 29.28 395.114 31.744C396.682 34.208 397.466 36.896 397.466 39.808V48.376C397.466 51.176 396.682 53.836 395.114 56.356C393.602 58.82 391.586 60.836 389.066 62.404C386.546 63.916 383.802 64.672 380.834 64.672ZM380.834 58.372C382.626 58.372 384.25 57.896 385.706 56.944C387.162 55.992 388.31 54.76 389.15 53.248C390.046 51.68 390.494 50.056 390.494 48.376V39.808C390.494 38.184 390.046 36.616 389.15 35.104C388.31 33.592 387.162 32.36 385.706 31.408C384.25 30.456 382.626 29.98 380.834 29.98C379.042 29.98 377.418 30.456 375.962 31.408C374.506 32.36 373.358 33.592 372.518 35.104C371.678 36.616 371.258 38.184 371.258 39.808V48.376C371.258 50.056 371.678 51.68 372.518 53.248C373.358 54.76 374.506 55.992 375.962 56.944C377.418 57.896 379.042 58.372 380.834 58.372ZM417.253 64.672C414.565 64.672 412.185 64.336 410.113 63.664C408.041 62.992 406.417 62.18 405.241 61.228C404.065 60.22 403.477 59.24 403.477 58.288C403.477 57.672 403.701 57 404.149 56.272C404.653 55.488 405.241 55.096 405.913 55.096C406.585 55.096 407.285 55.432 408.013 56.104C408.797 56.72 409.861 57.364 411.205 58.036C412.605 58.708 414.565 59.044 417.085 59.044C420.053 59.044 422.125 58.512 423.301 57.448C424.477 56.328 425.065 55.096 425.065 53.752C425.065 52.016 424.561 50.7 423.553 49.804C422.545 48.852 421.257 48.124 419.689 47.62C418.121 47.06 416.469 46.528 414.733 46.024C412.997 45.52 411.345 44.904 409.777 44.176C408.209 43.392 406.921 42.328 405.913 40.984C404.961 39.64 404.485 37.792 404.485 35.44C404.485 33.592 404.933 31.772 405.829 29.98C406.725 28.188 408.181 26.704 410.197 25.528C412.213 24.296 414.901 23.68 418.261 23.68C420.221 23.68 422.097 23.904 423.889 24.352C425.737 24.8 427.221 25.36 428.341 26.032C429.517 26.704 430.105 27.432 430.105 28.216C430.105 28.776 429.853 29.504 429.349 30.4C428.845 31.296 428.173 31.744 427.333 31.744C426.829 31.744 426.185 31.548 425.401 31.156C424.617 30.708 423.637 30.288 422.461 29.896C421.341 29.504 419.969 29.308 418.345 29.308C415.545 29.308 413.557 29.98 412.381 31.324C411.261 32.668 410.701 33.956 410.701 35.188C410.701 36.588 411.177 37.68 412.129 38.464C413.137 39.248 414.425 39.892 415.993 40.396C417.561 40.844 419.213 41.32 420.949 41.824C422.741 42.272 424.421 42.944 425.989 43.84C427.557 44.68 428.845 45.856 429.853 47.368C430.861 48.88 431.365 50.896 431.365 53.416C431.365 56.832 430.133 59.576 427.669 61.648C425.205 63.664 421.733 64.672 417.253 64.672Z" fill="#485F62"/>
</svg>
