<svg width="794" height="197" viewBox="0 0 794 197" fill="none" xmlns="http://www.w3.org/2000/svg">
<g clip-path="url(#clip0)">
<path d="M440.596 45.4551C440.141 25.78 423.489 4.53756 397.579 4.12508C372.497 3.75385 354.15 23.8001 353.323 45.4138C353.86 45.4138 354.398 45.4138 354.976 45.4138C358.695 45.3726 361.546 48.0537 361.588 51.7247C361.629 59.6854 361.629 67.6874 361.588 75.6482C361.588 79.4017 358.778 81.9591 355.018 81.9591C346.381 81.9178 339.439 75.8545 337.621 68.4712C335.431 59.6029 339.356 51.1885 347.29 47.3524C348.158 46.94 348.406 46.445 348.489 45.4963C349.356 33.3283 353.943 22.8102 362.621 14.1895C370.472 6.43494 379.894 1.77397 390.927 0.412807C402.745 -1.0721 413.737 1.48524 423.654 7.9611C434.026 14.7257 440.885 24.2539 443.984 36.2981C444.77 39.3917 445.059 42.6502 445.513 45.8263C445.596 46.5275 445.803 46.94 446.505 47.27C453.489 50.5285 457.91 58.3243 456.918 65.5013C455.761 74.0396 450.018 80.2267 442.001 81.7116C439.356 82.2066 436.753 82.4128 434.522 80.4329C433.241 79.278 432.414 77.8756 432.414 76.1432C432.373 67.8524 432.373 59.6029 432.414 51.3122C432.414 48.2599 434.976 45.7025 438.075 45.4551C438.86 45.4138 439.728 45.4551 440.596 45.4551ZM356.712 63.8102C356.712 59.9329 356.712 56.0557 356.712 52.1784C356.712 50.7347 356.257 50.2398 354.894 50.281C347.745 50.4048 341.836 56.3032 341.712 63.5627C341.588 70.5748 347.414 76.8856 354.398 77.2569C356.216 77.3394 356.712 76.9269 356.712 75.0708C356.753 71.276 356.712 67.5637 356.712 63.8102ZM437.125 63.604C437.125 66.9037 437.166 70.2448 437.125 73.5446C437.042 77.0919 437.125 77.7931 441.505 76.8444C448.323 75.3595 452.579 69.4611 452.084 62.4903C451.629 56.0557 446.216 50.776 439.522 50.1985C437.745 50.0335 437.166 50.5697 437.166 52.3434C437.125 56.0969 437.125 59.8504 437.125 63.604Z" fill="white"/>
</g>
<path d="M14.6197 177.24C14.0864 177.24 13.6464 177.053 13.2997 176.68C12.953 176.307 12.7797 175.88 12.7797 175.4C12.7797 174.867 12.953 174.427 13.2997 174.08C13.6464 173.707 14.0864 173.52 14.6197 173.52C15.0997 173.52 15.513 173.707 15.8597 174.08C16.233 174.427 16.4197 174.867 16.4197 175.4C16.4197 175.88 16.233 176.307 15.8597 176.68C15.513 177.053 15.0997 177.24 14.6197 177.24ZM21.4556 177.24C20.9223 177.24 20.4823 177.053 20.1356 176.68C19.789 176.307 19.6156 175.88 19.6156 175.4C19.6156 174.867 19.789 174.427 20.1356 174.08C20.4823 173.707 20.9223 173.52 21.4556 173.52C21.9356 173.52 22.349 173.707 22.6956 174.08C23.069 174.427 23.2556 174.867 23.2556 175.4C23.2556 175.88 23.069 176.307 22.6956 176.68C22.349 177.053 21.9356 177.24 21.4556 177.24ZM28.2916 177.24C27.7582 177.24 27.3182 177.053 26.9716 176.68C26.6249 176.307 26.4516 175.88 26.4516 175.4C26.4516 174.867 26.6249 174.427 26.9716 174.08C27.3182 173.707 27.7582 173.52 28.2916 173.52C28.7716 173.52 29.1849 173.707 29.5316 174.08C29.9049 174.427 30.0916 174.867 30.0916 175.4C30.0916 175.88 29.9049 176.307 29.5316 176.68C29.1849 177.053 28.7716 177.24 28.2916 177.24ZM35.4875 186.28C35.1408 186.28 34.8342 186.173 34.5675 185.96C34.3275 185.747 34.2075 185.507 34.2075 185.24V159.04C34.2075 158.747 34.3275 158.52 34.5675 158.36C34.8342 158.173 35.1408 158.08 35.4875 158.08C35.8342 158.08 36.1275 158.173 36.3675 158.36C36.6075 158.52 36.7275 158.747 36.7275 159.04V160.88C37.1808 160.107 37.8608 159.413 38.7675 158.8C39.6742 158.16 40.7808 157.84 42.0875 157.84C43.4208 157.84 44.6208 158.187 45.6875 158.88C46.7808 159.547 47.6475 160.44 48.2875 161.56C48.9542 162.68 49.2875 163.933 49.2875 165.32V169.68C49.2875 170.987 48.9542 172.227 48.2875 173.4C47.6475 174.573 46.7942 175.52 45.7275 176.24C44.6608 176.933 43.4875 177.28 42.2075 177.28C40.9808 177.28 39.8875 176.973 38.9275 176.36C37.9675 175.747 37.2608 175.027 36.8075 174.2V185.24C36.8075 185.507 36.6742 185.747 36.4075 185.96C36.1675 186.173 35.8608 186.28 35.4875 186.28ZM41.7275 174.88C42.6075 174.88 43.4208 174.64 44.1675 174.16C44.9142 173.653 45.5142 173 45.9675 172.2C46.4475 171.4 46.6875 170.56 46.6875 169.68V165.32C46.6875 164.467 46.4608 163.653 46.0075 162.88C45.5542 162.107 44.9408 161.48 44.1675 161C43.4208 160.493 42.5808 160.24 41.6475 160.24C40.8475 160.24 40.0742 160.453 39.3275 160.88C38.6075 161.28 38.0075 161.853 37.5275 162.6C37.0475 163.347 36.8075 164.253 36.8075 165.32V170.92C36.8075 171.32 37.0208 171.84 37.4475 172.48C37.8742 173.093 38.4608 173.653 39.2075 174.16C39.9542 174.64 40.7942 174.88 41.7275 174.88ZM60.4225 177.28C59.0625 177.28 57.8092 176.933 56.6625 176.24C55.5158 175.52 54.5825 174.587 53.8625 173.44C53.1692 172.267 52.8225 171.013 52.8225 169.68V165.32C52.8225 163.987 53.1692 162.76 53.8625 161.64C54.5558 160.493 55.4758 159.573 56.6225 158.88C57.7692 158.187 59.0358 157.84 60.4225 157.84C61.7825 157.84 63.0358 158.187 64.1825 158.88C65.3558 159.547 66.2892 160.44 66.9825 161.56C67.6758 162.68 68.0225 163.933 68.0225 165.32V169.68C68.0225 170.987 67.6758 172.227 66.9825 173.4C66.2892 174.573 65.3558 175.52 64.1825 176.24C63.0358 176.933 61.7825 177.28 60.4225 177.28ZM60.4225 174.88C61.3558 174.88 62.1958 174.64 62.9425 174.16C63.6892 173.653 64.2892 173 64.7425 172.2C65.1958 171.4 65.4225 170.56 65.4225 169.68V165.32C65.4225 164.467 65.1958 163.653 64.7425 162.88C64.3158 162.107 63.7158 161.48 62.9425 161C62.1958 160.493 61.3558 160.24 60.4225 160.24C59.4892 160.24 58.6492 160.493 57.9025 161C57.1558 161.48 56.5558 162.107 56.1025 162.88C55.6492 163.653 55.4225 164.467 55.4225 165.32V169.68C55.4225 170.56 55.6492 171.4 56.1025 172.2C56.5558 173 57.1558 173.653 57.9025 174.16C58.6758 174.64 59.5158 174.88 60.4225 174.88ZM79.7725 177.28C78.3592 177.28 77.0792 176.933 75.9325 176.24C74.7858 175.547 73.8658 174.627 73.1725 173.48C72.4792 172.307 72.1325 171.067 72.1325 169.76V159.08C72.1325 158.84 72.2658 158.613 72.5325 158.4C72.7992 158.187 73.1058 158.08 73.4525 158.08C73.7992 158.08 74.0925 158.187 74.3325 158.4C74.5992 158.613 74.7325 158.84 74.7325 159.08V169.76C74.7325 170.64 74.9592 171.467 75.4125 172.24C75.8658 173.013 76.4658 173.653 77.2125 174.16C77.9592 174.64 78.7992 174.88 79.7325 174.88C80.6925 174.88 81.5458 174.64 82.2925 174.16C83.0392 173.68 83.6258 173.053 84.0525 172.28C84.5058 171.48 84.7325 170.64 84.7325 169.76V159.04C84.7325 158.773 84.8658 158.547 85.1325 158.36C85.3992 158.173 85.7058 158.08 86.0525 158.08C86.4525 158.08 86.7592 158.173 86.9725 158.36C87.2125 158.547 87.3325 158.773 87.3325 159.04V169.76C87.3325 171.12 86.9858 172.373 86.2925 173.52C85.6258 174.64 84.7058 175.547 83.5325 176.24C82.3858 176.933 81.1325 177.28 79.7725 177.28ZM93.4163 177C93.0696 177 92.7629 176.893 92.4963 176.68C92.2563 176.467 92.1363 176.227 92.1363 175.96V159.04C92.1363 158.747 92.2563 158.52 92.4963 158.36C92.7629 158.173 93.0696 158.08 93.4163 158.08C93.7629 158.08 94.0563 158.173 94.2963 158.36C94.5363 158.52 94.6562 158.747 94.6562 159.04V161C94.9496 160.467 95.3496 159.96 95.8563 159.48C96.3629 159 96.9629 158.613 97.6563 158.32C98.3496 158 99.1363 157.84 100.016 157.84H101.416C101.71 157.84 101.95 157.96 102.136 158.2C102.35 158.413 102.456 158.693 102.456 159.04C102.456 159.36 102.35 159.64 102.136 159.88C101.95 160.12 101.71 160.24 101.416 160.24H100.016C99.1363 160.24 98.2829 160.48 97.4563 160.96C96.6563 161.413 96.0029 162.08 95.4963 162.96C94.9896 163.813 94.7363 164.853 94.7363 166.08V175.96C94.7363 176.227 94.6029 176.467 94.3363 176.68C94.0963 176.893 93.7896 177 93.4163 177ZM120.827 177.28C119.414 177.28 118.134 176.933 116.987 176.24C115.841 175.547 114.921 174.627 114.227 173.48C113.534 172.307 113.187 171.067 113.187 169.76V159.08C113.187 158.84 113.321 158.613 113.587 158.4C113.854 158.187 114.161 158.08 114.507 158.08C114.854 158.08 115.147 158.187 115.387 158.4C115.654 158.613 115.787 158.84 115.787 159.08V169.76C115.787 170.64 116.014 171.467 116.467 172.24C116.921 173.013 117.521 173.653 118.267 174.16C119.014 174.64 119.854 174.88 120.787 174.88C121.747 174.88 122.601 174.64 123.347 174.16C124.094 173.68 124.681 173.053 125.107 172.28C125.561 171.48 125.787 170.64 125.787 169.76V159.04C125.787 158.773 125.921 158.547 126.187 158.36C126.454 158.173 126.761 158.08 127.107 158.08C127.507 158.08 127.814 158.173 128.027 158.36C128.267 158.547 128.387 158.773 128.387 159.04V169.76C128.387 171.12 128.041 172.373 127.347 173.52C126.681 174.64 125.761 175.547 124.587 176.24C123.441 176.933 122.187 177.28 120.827 177.28ZM134.471 177C134.124 177 133.818 176.893 133.551 176.68C133.311 176.467 133.191 176.227 133.191 175.96V159.04C133.191 158.747 133.311 158.52 133.551 158.36C133.818 158.173 134.124 158.08 134.471 158.08C134.818 158.08 135.111 158.173 135.351 158.36C135.591 158.52 135.711 158.747 135.711 159.04V160.88C136.138 160.107 136.804 159.413 137.711 158.8C138.618 158.16 139.738 157.84 141.071 157.84C142.351 157.84 143.524 158.187 144.591 158.88C145.684 159.547 146.551 160.44 147.191 161.56C147.831 162.68 148.151 163.933 148.151 165.32V175.96C148.151 176.307 148.018 176.573 147.751 176.76C147.484 176.92 147.178 177 146.831 177C146.538 177 146.244 176.92 145.951 176.76C145.684 176.573 145.551 176.307 145.551 175.96V165.32C145.551 164.467 145.324 163.653 144.871 162.88C144.418 162.107 143.818 161.48 143.071 161C142.324 160.493 141.498 160.24 140.591 160.24C139.791 160.24 139.018 160.453 138.271 160.88C137.551 161.28 136.951 161.853 136.471 162.6C136.018 163.347 135.791 164.253 135.791 165.32V175.96C135.791 176.227 135.658 176.467 135.391 176.68C135.151 176.893 134.844 177 134.471 177ZM160.877 177.28C159.197 177.28 157.703 176.96 156.397 176.32C155.117 175.68 154.103 174.8 153.357 173.68C152.637 172.533 152.277 171.2 152.277 169.68V165.2C152.277 163.867 152.623 162.64 153.317 161.52C154.01 160.4 154.93 159.507 156.077 158.84C157.25 158.173 158.53 157.84 159.917 157.84C161.25 157.84 162.477 158.16 163.597 158.8C164.743 159.413 165.663 160.267 166.357 161.36C167.05 162.453 167.397 163.707 167.397 165.12C167.397 166.16 167.223 166.907 166.877 167.36C166.53 167.787 166.09 168.053 165.557 168.16C165.05 168.267 164.503 168.32 163.917 168.32H154.877V169.8C154.877 171.4 155.45 172.667 156.597 173.6C157.743 174.533 159.197 175 160.957 175C162.023 175 162.85 174.867 163.437 174.6C164.023 174.333 164.477 174.067 164.797 173.8C165.143 173.533 165.463 173.4 165.757 173.4C165.97 173.4 166.157 173.48 166.317 173.64C166.503 173.773 166.637 173.933 166.717 174.12C166.823 174.307 166.877 174.48 166.877 174.64C166.877 174.933 166.637 175.293 166.157 175.72C165.677 176.147 164.983 176.52 164.077 176.84C163.17 177.133 162.103 177.28 160.877 177.28ZM154.877 166.4H162.877C163.677 166.4 164.21 166.32 164.477 166.16C164.743 165.973 164.877 165.6 164.877 165.04C164.877 164.187 164.663 163.373 164.237 162.6C163.837 161.827 163.25 161.2 162.477 160.72C161.73 160.24 160.863 160 159.877 160C158.97 160 158.13 160.227 157.357 160.68C156.61 161.107 156.01 161.693 155.557 162.44C155.103 163.16 154.877 163.973 154.877 164.88V166.4ZM187.205 177.28C185.525 177.28 184.031 176.96 182.725 176.32C181.445 175.68 180.431 174.8 179.685 173.68C178.965 172.533 178.605 171.2 178.605 169.68V165.2C178.605 163.867 178.951 162.64 179.645 161.52C180.338 160.4 181.258 159.507 182.405 158.84C183.578 158.173 184.858 157.84 186.245 157.84C187.578 157.84 188.805 158.16 189.925 158.8C191.071 159.413 191.991 160.267 192.685 161.36C193.378 162.453 193.725 163.707 193.725 165.12C193.725 166.16 193.551 166.907 193.205 167.36C192.858 167.787 192.418 168.053 191.885 168.16C191.378 168.267 190.831 168.32 190.245 168.32H181.205V169.8C181.205 171.4 181.778 172.667 182.925 173.6C184.071 174.533 185.525 175 187.285 175C188.351 175 189.178 174.867 189.765 174.6C190.351 174.333 190.805 174.067 191.125 173.8C191.471 173.533 191.791 173.4 192.085 173.4C192.298 173.4 192.485 173.48 192.645 173.64C192.831 173.773 192.965 173.933 193.045 174.12C193.151 174.307 193.205 174.48 193.205 174.64C193.205 174.933 192.965 175.293 192.485 175.72C192.005 176.147 191.311 176.52 190.405 176.84C189.498 177.133 188.431 177.28 187.205 177.28ZM181.205 166.4H189.205C190.005 166.4 190.538 166.32 190.805 166.16C191.071 165.973 191.205 165.6 191.205 165.04C191.205 164.187 190.991 163.373 190.565 162.6C190.165 161.827 189.578 161.2 188.805 160.72C188.058 160.24 187.191 160 186.205 160C185.298 160 184.458 160.227 183.685 160.68C182.938 161.107 182.338 161.693 181.885 162.44C181.431 163.16 181.205 163.973 181.205 164.88V166.4ZM197.645 177.28C197.458 177.28 197.245 177.213 197.005 177.08C196.765 176.947 196.552 176.787 196.365 176.6C196.205 176.387 196.125 176.187 196.125 176C196.125 175.787 196.178 175.6 196.285 175.44L201.605 167.44L196.405 159.68C196.378 159.6 196.338 159.52 196.285 159.44C196.232 159.333 196.205 159.24 196.205 159.16C196.205 158.947 196.285 158.747 196.445 158.56C196.632 158.347 196.845 158.173 197.085 158.04C197.325 157.907 197.565 157.84 197.805 157.84C197.938 157.84 198.072 157.867 198.205 157.92C198.365 157.973 198.498 158.08 198.605 158.24L203.325 165.56L208.085 158.24C208.165 158.107 208.272 158.013 208.405 157.96C208.565 157.88 208.712 157.84 208.845 157.84C209.085 157.84 209.325 157.907 209.565 158.04C209.805 158.147 210.005 158.307 210.165 158.52C210.352 158.707 210.445 158.92 210.445 159.16C210.445 159.32 210.378 159.493 210.245 159.68L205.005 167.44L210.365 175.44C210.418 175.493 210.458 175.573 210.485 175.68C210.512 175.787 210.525 175.893 210.525 176C210.525 176.187 210.445 176.387 210.285 176.6C210.125 176.787 209.925 176.947 209.685 177.08C209.445 177.213 209.205 177.28 208.965 177.28C208.832 177.28 208.685 177.24 208.525 177.16C208.392 177.107 208.285 177.013 208.205 176.88L203.325 169.4L198.485 176.88C198.378 177.013 198.245 177.107 198.085 177.16C197.952 177.24 197.805 177.28 197.645 177.28ZM215.292 186.28C214.946 186.28 214.639 186.173 214.372 185.96C214.132 185.747 214.012 185.507 214.012 185.24V159.04C214.012 158.747 214.132 158.52 214.372 158.36C214.639 158.173 214.946 158.08 215.292 158.08C215.639 158.08 215.932 158.173 216.172 158.36C216.412 158.52 216.532 158.747 216.532 159.04V160.88C216.986 160.107 217.666 159.413 218.572 158.8C219.479 158.16 220.586 157.84 221.892 157.84C223.226 157.84 224.426 158.187 225.492 158.88C226.586 159.547 227.452 160.44 228.092 161.56C228.759 162.68 229.092 163.933 229.092 165.32V169.68C229.092 170.987 228.759 172.227 228.092 173.4C227.452 174.573 226.599 175.52 225.532 176.24C224.466 176.933 223.292 177.28 222.012 177.28C220.786 177.28 219.692 176.973 218.732 176.36C217.772 175.747 217.066 175.027 216.612 174.2V185.24C216.612 185.507 216.479 185.747 216.212 185.96C215.972 186.173 215.666 186.28 215.292 186.28ZM221.532 174.88C222.412 174.88 223.226 174.64 223.972 174.16C224.719 173.653 225.319 173 225.772 172.2C226.252 171.4 226.492 170.56 226.492 169.68V165.32C226.492 164.467 226.266 163.653 225.812 162.88C225.359 162.107 224.746 161.48 223.972 161C223.226 160.493 222.386 160.24 221.452 160.24C220.652 160.24 219.879 160.453 219.132 160.88C218.412 161.28 217.812 161.853 217.332 162.6C216.852 163.347 216.612 164.253 216.612 165.32V170.92C216.612 171.32 216.826 171.84 217.252 172.48C217.679 173.093 218.266 173.653 219.012 174.16C219.759 174.64 220.599 174.88 221.532 174.88ZM241.267 177.28C239.587 177.28 238.094 176.96 236.787 176.32C235.507 175.68 234.494 174.8 233.747 173.68C233.027 172.533 232.667 171.2 232.667 169.68V165.2C232.667 163.867 233.014 162.64 233.707 161.52C234.401 160.4 235.321 159.507 236.467 158.84C237.641 158.173 238.921 157.84 240.307 157.84C241.641 157.84 242.867 158.16 243.987 158.8C245.134 159.413 246.054 160.267 246.747 161.36C247.441 162.453 247.787 163.707 247.787 165.12C247.787 166.16 247.614 166.907 247.267 167.36C246.921 167.787 246.481 168.053 245.947 168.16C245.441 168.267 244.894 168.32 244.307 168.32H235.267V169.8C235.267 171.4 235.841 172.667 236.987 173.6C238.134 174.533 239.587 175 241.347 175C242.414 175 243.241 174.867 243.827 174.6C244.414 174.333 244.867 174.067 245.187 173.8C245.534 173.533 245.854 173.4 246.147 173.4C246.361 173.4 246.547 173.48 246.707 173.64C246.894 173.773 247.027 173.933 247.107 174.12C247.214 174.307 247.267 174.48 247.267 174.64C247.267 174.933 247.027 175.293 246.547 175.72C246.067 176.147 245.374 176.52 244.467 176.84C243.561 177.133 242.494 177.28 241.267 177.28ZM235.267 166.4H243.267C244.067 166.4 244.601 166.32 244.867 166.16C245.134 165.973 245.267 165.6 245.267 165.04C245.267 164.187 245.054 163.373 244.627 162.6C244.227 161.827 243.641 161.2 242.867 160.72C242.121 160.24 241.254 160 240.267 160C239.361 160 238.521 160.227 237.747 160.68C237.001 161.107 236.401 161.693 235.947 162.44C235.494 163.16 235.267 163.973 235.267 164.88V166.4ZM238.187 153.36C237.921 153.36 237.681 153.24 237.467 153C237.254 152.76 237.147 152.507 237.147 152.24C237.147 151.893 237.294 151.653 237.587 151.52L242.067 149.08C242.201 149 242.307 148.96 242.387 148.96C242.681 148.96 242.907 149.08 243.067 149.32C243.254 149.56 243.347 149.813 243.347 150.08C243.347 150.48 243.187 150.773 242.867 150.96L238.587 153.24C238.534 153.267 238.467 153.293 238.387 153.32C238.307 153.347 238.241 153.36 238.187 153.36ZM252.948 177C252.601 177 252.294 176.893 252.028 176.68C251.788 176.467 251.668 176.227 251.668 175.96V159.04C251.668 158.747 251.788 158.52 252.028 158.36C252.294 158.173 252.601 158.08 252.948 158.08C253.294 158.08 253.588 158.173 253.828 158.36C254.068 158.52 254.188 158.747 254.188 159.04V161C254.481 160.467 254.881 159.96 255.388 159.48C255.894 159 256.494 158.613 257.188 158.32C257.881 158 258.668 157.84 259.548 157.84H260.947C261.241 157.84 261.481 157.96 261.668 158.2C261.881 158.413 261.988 158.693 261.988 159.04C261.988 159.36 261.881 159.64 261.668 159.88C261.481 160.12 261.241 160.24 260.947 160.24H259.548C258.668 160.24 257.814 160.48 256.988 160.96C256.188 161.413 255.534 162.08 255.028 162.96C254.521 163.813 254.268 164.853 254.268 166.08V175.96C254.268 176.227 254.134 176.467 253.868 176.68C253.628 176.893 253.321 177 252.948 177ZM266.151 177C265.804 177 265.497 176.893 265.231 176.68C264.991 176.467 264.871 176.227 264.871 175.96V159.04C264.871 158.747 264.991 158.52 265.231 158.36C265.497 158.173 265.804 158.08 266.151 158.08C266.524 158.08 266.831 158.173 267.071 158.36C267.337 158.52 267.471 158.747 267.471 159.04V175.96C267.471 176.227 267.337 176.467 267.071 176.68C266.831 176.893 266.524 177 266.151 177ZM266.151 152.48C265.671 152.48 265.257 152.32 264.911 152C264.564 151.653 264.391 151.253 264.391 150.8C264.391 150.347 264.564 149.96 264.911 149.64C265.257 149.32 265.671 149.16 266.151 149.16C266.657 149.16 267.071 149.32 267.391 149.64C267.737 149.96 267.911 150.347 267.911 150.8C267.911 151.253 267.737 151.653 267.391 152C267.071 152.32 266.657 152.48 266.151 152.48ZM280.369 177.28C278.689 177.28 277.195 176.96 275.889 176.32C274.609 175.68 273.595 174.8 272.849 173.68C272.129 172.533 271.769 171.2 271.769 169.68V165.2C271.769 163.867 272.115 162.64 272.809 161.52C273.502 160.4 274.422 159.507 275.569 158.84C276.742 158.173 278.022 157.84 279.409 157.84C280.742 157.84 281.969 158.16 283.089 158.8C284.235 159.413 285.155 160.267 285.849 161.36C286.542 162.453 286.889 163.707 286.889 165.12C286.889 166.16 286.715 166.907 286.369 167.36C286.022 167.787 285.582 168.053 285.049 168.16C284.542 168.267 283.995 168.32 283.409 168.32H274.369V169.8C274.369 171.4 274.942 172.667 276.089 173.6C277.235 174.533 278.689 175 280.449 175C281.515 175 282.342 174.867 282.929 174.6C283.515 174.333 283.969 174.067 284.289 173.8C284.635 173.533 284.955 173.4 285.249 173.4C285.462 173.4 285.649 173.48 285.809 173.64C285.995 173.773 286.129 173.933 286.209 174.12C286.315 174.307 286.369 174.48 286.369 174.64C286.369 174.933 286.129 175.293 285.649 175.72C285.169 176.147 284.475 176.52 283.569 176.84C282.662 177.133 281.595 177.28 280.369 177.28ZM274.369 166.4H282.369C283.169 166.4 283.702 166.32 283.969 166.16C284.235 165.973 284.369 165.6 284.369 165.04C284.369 164.187 284.155 163.373 283.729 162.6C283.329 161.827 282.742 161.2 281.969 160.72C281.222 160.24 280.355 160 279.369 160C278.462 160 277.622 160.227 276.849 160.68C276.102 161.107 275.502 161.693 275.049 162.44C274.595 163.16 274.369 163.973 274.369 164.88V166.4ZM292.049 177C291.702 177 291.396 176.893 291.129 176.68C290.889 176.467 290.769 176.227 290.769 175.96V159.04C290.769 158.747 290.889 158.52 291.129 158.36C291.396 158.173 291.702 158.08 292.049 158.08C292.396 158.08 292.689 158.173 292.929 158.36C293.169 158.52 293.289 158.747 293.289 159.04V160.88C293.716 160.107 294.382 159.413 295.289 158.8C296.196 158.16 297.316 157.84 298.649 157.84C299.929 157.84 301.102 158.187 302.169 158.88C303.262 159.547 304.129 160.44 304.769 161.56C305.409 162.68 305.729 163.933 305.729 165.32V175.96C305.729 176.307 305.596 176.573 305.329 176.76C305.062 176.92 304.756 177 304.409 177C304.116 177 303.822 176.92 303.529 176.76C303.262 176.573 303.129 176.307 303.129 175.96V165.32C303.129 164.467 302.902 163.653 302.449 162.88C301.996 162.107 301.396 161.48 300.649 161C299.902 160.493 299.076 160.24 298.169 160.24C297.369 160.24 296.596 160.453 295.849 160.88C295.129 161.28 294.529 161.853 294.049 162.6C293.596 163.347 293.369 164.253 293.369 165.32V175.96C293.369 176.227 293.236 176.467 292.969 176.68C292.729 176.893 292.422 177 292.049 177ZM317.655 177.28C315.895 177.28 314.441 176.947 313.295 176.28C312.148 175.613 311.295 174.707 310.735 173.56C310.175 172.413 309.895 171.12 309.895 169.68V165.4C309.895 163.987 310.161 162.707 310.695 161.56C311.255 160.413 312.108 159.507 313.255 158.84C314.428 158.173 315.895 157.84 317.655 157.84C318.775 157.84 319.748 157.987 320.575 158.28C321.428 158.547 322.081 158.88 322.535 159.28C323.015 159.68 323.255 160.067 323.255 160.44C323.255 160.6 323.201 160.787 323.095 161C323.015 161.187 322.881 161.36 322.695 161.52C322.535 161.653 322.348 161.72 322.135 161.72C321.895 161.72 321.615 161.6 321.295 161.36C321.001 161.093 320.588 160.84 320.055 160.6C319.521 160.36 318.761 160.24 317.775 160.24C316.041 160.24 314.721 160.707 313.815 161.64C312.935 162.547 312.495 163.8 312.495 165.4V169.68C312.495 171.307 312.935 172.587 313.815 173.52C314.721 174.427 316.055 174.88 317.815 174.88C318.828 174.88 319.615 174.76 320.175 174.52C320.735 174.253 321.161 174 321.455 173.76C321.775 173.493 322.068 173.36 322.335 173.36C322.575 173.36 322.775 173.427 322.935 173.56C323.121 173.693 323.255 173.853 323.335 174.04C323.441 174.227 323.495 174.427 323.495 174.64C323.495 174.987 323.255 175.373 322.775 175.8C322.295 176.2 321.615 176.547 320.735 176.84C319.881 177.133 318.855 177.28 317.655 177.28ZM334.705 177.28C333.025 177.28 331.531 176.96 330.225 176.32C328.945 175.68 327.931 174.8 327.185 173.68C326.465 172.533 326.105 171.2 326.105 169.68V165.2C326.105 163.867 326.451 162.64 327.145 161.52C327.838 160.4 328.758 159.507 329.905 158.84C331.078 158.173 332.358 157.84 333.745 157.84C335.078 157.84 336.305 158.16 337.425 158.8C338.571 159.413 339.491 160.267 340.185 161.36C340.878 162.453 341.225 163.707 341.225 165.12C341.225 166.16 341.051 166.907 340.705 167.36C340.358 167.787 339.918 168.053 339.385 168.16C338.878 168.267 338.331 168.32 337.745 168.32H328.705V169.8C328.705 171.4 329.278 172.667 330.425 173.6C331.571 174.533 333.025 175 334.785 175C335.851 175 336.678 174.867 337.265 174.6C337.851 174.333 338.305 174.067 338.625 173.8C338.971 173.533 339.291 173.4 339.585 173.4C339.798 173.4 339.985 173.48 340.145 173.64C340.331 173.773 340.465 173.933 340.545 174.12C340.651 174.307 340.705 174.48 340.705 174.64C340.705 174.933 340.465 175.293 339.985 175.72C339.505 176.147 338.811 176.52 337.905 176.84C336.998 177.133 335.931 177.28 334.705 177.28ZM328.705 166.4H336.705C337.505 166.4 338.038 166.32 338.305 166.16C338.571 165.973 338.705 165.6 338.705 165.04C338.705 164.187 338.491 163.373 338.065 162.6C337.665 161.827 337.078 161.2 336.305 160.72C335.558 160.24 334.691 160 333.705 160C332.798 160 331.958 160.227 331.185 160.68C330.438 161.107 329.838 161.693 329.385 162.44C328.931 163.16 328.705 163.973 328.705 164.88V166.4ZM354.393 177C354.046 177 353.739 176.893 353.473 176.68C353.233 176.467 353.113 176.227 353.113 175.96V159.04C353.113 158.747 353.233 158.52 353.473 158.36C353.739 158.173 354.046 158.08 354.393 158.08C354.766 158.08 355.073 158.173 355.313 158.36C355.579 158.52 355.713 158.747 355.713 159.04V175.96C355.713 176.227 355.579 176.467 355.313 176.68C355.073 176.893 354.766 177 354.393 177ZM354.393 152.48C353.913 152.48 353.499 152.32 353.153 152C352.806 151.653 352.633 151.253 352.633 150.8C352.633 150.347 352.806 149.96 353.153 149.64C353.499 149.32 353.913 149.16 354.393 149.16C354.899 149.16 355.313 149.32 355.633 149.64C355.979 149.96 356.153 150.347 356.153 150.8C356.153 151.253 355.979 151.653 355.633 152C355.313 152.32 354.899 152.48 354.393 152.48ZM361.971 177C361.624 177 361.318 176.893 361.051 176.68C360.811 176.467 360.691 176.227 360.691 175.96V159.04C360.691 158.747 360.811 158.52 361.051 158.36C361.318 158.173 361.624 158.08 361.971 158.08C362.318 158.08 362.611 158.173 362.851 158.36C363.091 158.52 363.211 158.747 363.211 159.04V160.88C363.664 160.107 364.331 159.413 365.211 158.8C366.118 158.16 367.224 157.84 368.531 157.84C369.864 157.84 371.024 158.213 372.011 158.96C372.998 159.707 373.731 160.667 374.211 161.84C374.904 160.48 375.798 159.48 376.891 158.84C378.011 158.173 379.144 157.84 380.291 157.84C381.438 157.84 382.518 158.133 383.531 158.72C384.571 159.307 385.411 160.16 386.051 161.28C386.691 162.373 387.011 163.72 387.011 165.32V175.96C387.011 176.227 386.878 176.467 386.611 176.68C386.371 176.893 386.064 177 385.691 177C385.344 177 385.038 176.893 384.771 176.68C384.531 176.467 384.411 176.227 384.411 175.96V165.32C384.411 164.2 384.184 163.267 383.731 162.52C383.278 161.773 382.704 161.213 382.011 160.84C381.318 160.44 380.598 160.24 379.851 160.24C379.078 160.24 378.331 160.44 377.611 160.84C376.918 161.24 376.331 161.813 375.851 162.56C375.398 163.28 375.171 164.147 375.171 165.16V176C375.171 176.347 375.024 176.6 374.731 176.76C374.464 176.92 374.171 177 373.851 177C373.558 177 373.264 176.92 372.971 176.76C372.704 176.6 372.571 176.347 372.571 176V165.2C372.571 164.24 372.358 163.387 371.931 162.64C371.531 161.893 370.984 161.307 370.291 160.88C369.598 160.453 368.838 160.24 368.011 160.24C367.238 160.24 366.491 160.44 365.771 160.84C365.051 161.24 364.451 161.813 363.971 162.56C363.518 163.307 363.291 164.227 363.291 165.32V175.96C363.291 176.227 363.158 176.467 362.891 176.68C362.651 176.893 362.344 177 361.971 177ZM393.143 177C392.796 177 392.489 176.893 392.223 176.68C391.983 176.467 391.863 176.227 391.863 175.96V159.04C391.863 158.747 391.983 158.52 392.223 158.36C392.489 158.173 392.796 158.08 393.143 158.08C393.489 158.08 393.783 158.173 394.023 158.36C394.263 158.52 394.383 158.747 394.383 159.04V160.88C394.836 160.107 395.503 159.413 396.383 158.8C397.289 158.16 398.396 157.84 399.703 157.84C401.036 157.84 402.196 158.213 403.183 158.96C404.169 159.707 404.903 160.667 405.383 161.84C406.076 160.48 406.969 159.48 408.063 158.84C409.183 158.173 410.316 157.84 411.463 157.84C412.609 157.84 413.689 158.133 414.703 158.72C415.743 159.307 416.583 160.16 417.223 161.28C417.863 162.373 418.183 163.72 418.183 165.32V175.96C418.183 176.227 418.049 176.467 417.783 176.68C417.543 176.893 417.236 177 416.863 177C416.516 177 416.209 176.893 415.943 176.68C415.703 176.467 415.583 176.227 415.583 175.96V165.32C415.583 164.2 415.356 163.267 414.903 162.52C414.449 161.773 413.876 161.213 413.183 160.84C412.489 160.44 411.769 160.24 411.023 160.24C410.249 160.24 409.503 160.44 408.783 160.84C408.089 161.24 407.503 161.813 407.023 162.56C406.569 163.28 406.343 164.147 406.343 165.16V176C406.343 176.347 406.196 176.6 405.903 176.76C405.636 176.92 405.343 177 405.023 177C404.729 177 404.436 176.92 404.143 176.76C403.876 176.6 403.743 176.347 403.743 176V165.2C403.743 164.24 403.529 163.387 403.103 162.64C402.703 161.893 402.156 161.307 401.463 160.88C400.769 160.453 400.009 160.24 399.183 160.24C398.409 160.24 397.663 160.44 396.943 160.84C396.223 161.24 395.623 161.813 395.143 162.56C394.689 163.307 394.463 164.227 394.463 165.32V175.96C394.463 176.227 394.329 176.467 394.063 176.68C393.823 176.893 393.516 177 393.143 177ZM430.955 177.28C429.275 177.28 427.781 176.96 426.475 176.32C425.195 175.68 424.181 174.8 423.435 173.68C422.715 172.533 422.355 171.2 422.355 169.68V165.2C422.355 163.867 422.701 162.64 423.395 161.52C424.088 160.4 425.008 159.507 426.155 158.84C427.328 158.173 428.608 157.84 429.995 157.84C431.328 157.84 432.555 158.16 433.675 158.8C434.821 159.413 435.741 160.267 436.435 161.36C437.128 162.453 437.475 163.707 437.475 165.12C437.475 166.16 437.301 166.907 436.955 167.36C436.608 167.787 436.168 168.053 435.635 168.16C435.128 168.267 434.581 168.32 433.995 168.32H424.955V169.8C424.955 171.4 425.528 172.667 426.675 173.6C427.821 174.533 429.275 175 431.035 175C432.101 175 432.928 174.867 433.515 174.6C434.101 174.333 434.555 174.067 434.875 173.8C435.221 173.533 435.541 173.4 435.835 173.4C436.048 173.4 436.235 173.48 436.395 173.64C436.581 173.773 436.715 173.933 436.795 174.12C436.901 174.307 436.955 174.48 436.955 174.64C436.955 174.933 436.715 175.293 436.235 175.72C435.755 176.147 435.061 176.52 434.155 176.84C433.248 177.133 432.181 177.28 430.955 177.28ZM424.955 166.4H432.955C433.755 166.4 434.288 166.32 434.555 166.16C434.821 165.973 434.955 165.6 434.955 165.04C434.955 164.187 434.741 163.373 434.315 162.6C433.915 161.827 433.328 161.2 432.555 160.72C431.808 160.24 430.941 160 429.955 160C429.048 160 428.208 160.227 427.435 160.68C426.688 161.107 426.088 161.693 425.635 162.44C425.181 163.16 424.955 163.973 424.955 164.88V166.4ZM442.635 177C442.288 177 441.982 176.893 441.715 176.68C441.475 176.467 441.355 176.227 441.355 175.96V159.04C441.355 158.747 441.475 158.52 441.715 158.36C441.982 158.173 442.288 158.08 442.635 158.08C442.982 158.08 443.275 158.173 443.515 158.36C443.755 158.52 443.875 158.747 443.875 159.04V161C444.168 160.467 444.568 159.96 445.075 159.48C445.582 159 446.182 158.613 446.875 158.32C447.568 158 448.355 157.84 449.235 157.84H450.635C450.928 157.84 451.168 157.96 451.355 158.2C451.568 158.413 451.675 158.693 451.675 159.04C451.675 159.36 451.568 159.64 451.355 159.88C451.168 160.12 450.928 160.24 450.635 160.24H449.235C448.355 160.24 447.502 160.48 446.675 160.96C445.875 161.413 445.222 162.08 444.715 162.96C444.208 163.813 443.955 164.853 443.955 166.08V175.96C443.955 176.227 443.822 176.467 443.555 176.68C443.315 176.893 443.008 177 442.635 177ZM459.562 177.28C458.309 177.28 457.215 177.12 456.282 176.8C455.349 176.48 454.615 176.107 454.082 175.68C453.549 175.227 453.282 174.8 453.282 174.4C453.282 174.213 453.322 174.04 453.402 173.88C453.482 173.693 453.589 173.533 453.722 173.4C453.882 173.267 454.042 173.2 454.202 173.2C454.495 173.2 454.815 173.36 455.162 173.68C455.535 173.973 456.042 174.28 456.682 174.6C457.349 174.92 458.282 175.08 459.482 175.08C461.002 175.08 462.069 174.8 462.682 174.24C463.295 173.653 463.602 172.987 463.602 172.24C463.602 171.36 463.362 170.68 462.882 170.2C462.429 169.693 461.815 169.307 461.042 169.04C460.295 168.747 459.495 168.493 458.642 168.28C457.815 168.04 457.015 167.747 456.242 167.4C455.495 167.027 454.882 166.52 454.402 165.88C453.949 165.24 453.722 164.373 453.722 163.28C453.722 162.427 453.935 161.587 454.362 160.76C454.789 159.907 455.455 159.213 456.362 158.68C457.295 158.12 458.522 157.84 460.042 157.84C460.922 157.84 461.775 157.933 462.602 158.12C463.429 158.307 464.095 158.56 464.602 158.88C465.135 159.173 465.402 159.48 465.402 159.8C465.402 159.933 465.349 160.107 465.242 160.32C465.162 160.533 465.042 160.733 464.882 160.92C464.722 161.08 464.535 161.16 464.322 161.16C464.109 161.16 463.815 161.067 463.442 160.88C463.095 160.667 462.642 160.48 462.082 160.32C461.522 160.133 460.855 160.04 460.082 160.04C459.122 160.04 458.349 160.213 457.762 160.56C457.175 160.907 456.749 161.32 456.482 161.8C456.215 162.253 456.082 162.707 456.082 163.16C456.082 163.933 456.322 164.52 456.802 164.92C457.282 165.32 457.895 165.653 458.642 165.92C459.415 166.16 460.215 166.4 461.042 166.64C461.895 166.853 462.695 167.16 463.442 167.56C464.215 167.96 464.829 168.52 465.282 169.24C465.762 169.96 466.002 170.92 466.002 172.12C466.002 173.693 465.442 174.947 464.322 175.88C463.202 176.813 461.615 177.28 459.562 177.28ZM471.151 177C470.804 177 470.497 176.893 470.231 176.68C469.991 176.467 469.871 176.227 469.871 175.96V159.04C469.871 158.747 469.991 158.52 470.231 158.36C470.497 158.173 470.804 158.08 471.151 158.08C471.524 158.08 471.831 158.173 472.071 158.36C472.337 158.52 472.471 158.747 472.471 159.04V175.96C472.471 176.227 472.337 176.467 472.071 176.68C471.831 176.893 471.524 177 471.151 177ZM471.151 152.48C470.671 152.48 470.257 152.32 469.911 152C469.564 151.653 469.391 151.253 469.391 150.8C469.391 150.347 469.564 149.96 469.911 149.64C470.257 149.32 470.671 149.16 471.151 149.16C471.657 149.16 472.071 149.32 472.391 149.64C472.737 149.96 472.911 150.347 472.911 150.8C472.911 151.253 472.737 151.653 472.391 152C472.071 152.32 471.657 152.48 471.151 152.48ZM483.369 177.32C483.075 177.32 482.822 177.267 482.609 177.16C482.395 177.053 482.249 176.893 482.169 176.68L475.729 159.8C475.702 159.747 475.662 159.653 475.609 159.52C475.582 159.387 475.569 159.28 475.569 159.2C475.569 158.987 475.649 158.787 475.809 158.6C475.969 158.413 476.169 158.267 476.409 158.16C476.675 158.053 476.915 158 477.129 158C477.342 158 477.529 158.053 477.689 158.16C477.875 158.24 478.009 158.387 478.089 158.6L483.369 173L488.649 158.76C488.702 158.547 488.795 158.373 488.929 158.24C489.062 158.08 489.275 158 489.569 158C489.782 158 490.009 158.053 490.249 158.16C490.489 158.267 490.702 158.413 490.889 158.6C491.075 158.76 491.169 158.947 491.169 159.16C491.169 159.293 491.155 159.413 491.129 159.52C491.102 159.627 491.062 159.72 491.009 159.8L484.569 176.68C484.489 176.867 484.329 177.013 484.089 177.12C483.875 177.253 483.635 177.32 483.369 177.32ZM502.127 177.28C500.447 177.28 498.953 176.96 497.647 176.32C496.367 175.68 495.353 174.8 494.607 173.68C493.887 172.533 493.527 171.2 493.527 169.68V165.2C493.527 163.867 493.873 162.64 494.567 161.52C495.26 160.4 496.18 159.507 497.327 158.84C498.5 158.173 499.78 157.84 501.167 157.84C502.5 157.84 503.727 158.16 504.847 158.8C505.993 159.413 506.913 160.267 507.607 161.36C508.3 162.453 508.647 163.707 508.647 165.12C508.647 166.16 508.473 166.907 508.127 167.36C507.78 167.787 507.34 168.053 506.807 168.16C506.3 168.267 505.753 168.32 505.167 168.32H496.127V169.8C496.127 171.4 496.7 172.667 497.847 173.6C498.993 174.533 500.447 175 502.207 175C503.273 175 504.1 174.867 504.687 174.6C505.273 174.333 505.727 174.067 506.047 173.8C506.393 173.533 506.713 173.4 507.007 173.4C507.22 173.4 507.407 173.48 507.567 173.64C507.753 173.773 507.887 173.933 507.967 174.12C508.073 174.307 508.127 174.48 508.127 174.64C508.127 174.933 507.887 175.293 507.407 175.72C506.927 176.147 506.233 176.52 505.327 176.84C504.42 177.133 503.353 177.28 502.127 177.28ZM496.127 166.4H504.127C504.927 166.4 505.46 166.32 505.727 166.16C505.993 165.973 506.127 165.6 506.127 165.04C506.127 164.187 505.913 163.373 505.487 162.6C505.087 161.827 504.5 161.2 503.727 160.72C502.98 160.24 502.113 160 501.127 160C500.22 160 499.38 160.227 498.607 160.68C497.86 161.107 497.26 161.693 496.807 162.44C496.353 163.16 496.127 163.973 496.127 164.88V166.4ZM528.015 177.28C526.601 177.28 525.321 176.933 524.175 176.24C523.028 175.547 522.108 174.627 521.415 173.48C520.721 172.307 520.375 171.067 520.375 169.76V159.08C520.375 158.84 520.508 158.613 520.775 158.4C521.041 158.187 521.348 158.08 521.695 158.08C522.041 158.08 522.335 158.187 522.575 158.4C522.841 158.613 522.975 158.84 522.975 159.08V169.76C522.975 170.64 523.201 171.467 523.655 172.24C524.108 173.013 524.708 173.653 525.455 174.16C526.201 174.64 527.041 174.88 527.975 174.88C528.935 174.88 529.788 174.64 530.535 174.16C531.281 173.68 531.868 173.053 532.295 172.28C532.748 171.48 532.975 170.64 532.975 169.76V159.04C532.975 158.773 533.108 158.547 533.375 158.36C533.641 158.173 533.948 158.08 534.295 158.08C534.695 158.08 535.001 158.173 535.215 158.36C535.455 158.547 535.575 158.773 535.575 159.04V169.76C535.575 171.12 535.228 172.373 534.535 173.52C533.868 174.64 532.948 175.547 531.775 176.24C530.628 176.933 529.375 177.28 528.015 177.28ZM546.658 177C544.605 177 543.032 176.533 541.938 175.6C540.845 174.667 540.298 173.173 540.298 171.12V150.04C540.298 149.747 540.432 149.52 540.698 149.36C540.992 149.173 541.285 149.08 541.578 149.08C541.925 149.08 542.232 149.173 542.498 149.36C542.765 149.52 542.898 149.747 542.898 150.04V158.08H548.098C548.365 158.08 548.578 158.187 548.738 158.4C548.898 158.613 548.978 158.867 548.978 159.16C548.978 159.453 548.898 159.707 548.738 159.92C548.578 160.133 548.365 160.24 548.098 160.24H542.898V171.12C542.898 172.427 543.178 173.347 543.738 173.88C544.298 174.387 545.272 174.64 546.658 174.64H547.778C548.152 174.64 548.432 174.76 548.618 175C548.832 175.213 548.938 175.48 548.938 175.8C548.938 176.12 548.832 176.4 548.618 176.64C548.432 176.88 548.152 177 547.778 177H546.658ZM553.455 177C553.109 177 552.802 176.893 552.535 176.68C552.295 176.467 552.175 176.227 552.175 175.96V159.04C552.175 158.747 552.295 158.52 552.535 158.36C552.802 158.173 553.109 158.08 553.455 158.08C553.829 158.08 554.135 158.173 554.375 158.36C554.642 158.52 554.775 158.747 554.775 159.04V175.96C554.775 176.227 554.642 176.467 554.375 176.68C554.135 176.893 553.829 177 553.455 177ZM553.455 152.48C552.975 152.48 552.562 152.32 552.215 152C551.869 151.653 551.695 151.253 551.695 150.8C551.695 150.347 551.869 149.96 552.215 149.64C552.562 149.32 552.975 149.16 553.455 149.16C553.962 149.16 554.375 149.32 554.695 149.64C555.042 149.96 555.215 150.347 555.215 150.8C555.215 151.253 555.042 151.653 554.695 152C554.375 152.32 553.962 152.48 553.455 152.48ZM561.393 177C561.047 177 560.74 176.893 560.473 176.68C560.233 176.467 560.113 176.227 560.113 175.96V147.44C560.113 147.147 560.233 146.92 560.473 146.76C560.74 146.573 561.047 146.48 561.393 146.48C561.767 146.48 562.073 146.573 562.313 146.76C562.58 146.92 562.713 147.147 562.713 147.44V175.96C562.713 176.227 562.58 176.467 562.313 176.68C562.073 176.893 561.767 177 561.393 177ZM569.354 177C569.007 177 568.7 176.893 568.434 176.68C568.194 176.467 568.074 176.227 568.074 175.96V159.04C568.074 158.747 568.194 158.52 568.434 158.36C568.7 158.173 569.007 158.08 569.354 158.08C569.727 158.08 570.034 158.173 570.274 158.36C570.54 158.52 570.674 158.747 570.674 159.04V175.96C570.674 176.227 570.54 176.467 570.274 176.68C570.034 176.893 569.727 177 569.354 177ZM569.354 152.48C568.874 152.48 568.46 152.32 568.114 152C567.767 151.653 567.594 151.253 567.594 150.8C567.594 150.347 567.767 149.96 568.114 149.64C568.46 149.32 568.874 149.16 569.354 149.16C569.86 149.16 570.274 149.32 570.594 149.64C570.94 149.96 571.114 150.347 571.114 150.8C571.114 151.253 570.94 151.653 570.594 152C570.274 152.32 569.86 152.48 569.354 152.48ZM580.812 177.28C579.559 177.28 578.465 177.12 577.532 176.8C576.599 176.48 575.865 176.107 575.332 175.68C574.799 175.227 574.532 174.8 574.532 174.4C574.532 174.213 574.572 174.04 574.652 173.88C574.732 173.693 574.839 173.533 574.972 173.4C575.132 173.267 575.292 173.2 575.452 173.2C575.745 173.2 576.065 173.36 576.412 173.68C576.785 173.973 577.292 174.28 577.932 174.6C578.599 174.92 579.532 175.08 580.732 175.08C582.252 175.08 583.319 174.8 583.932 174.24C584.545 173.653 584.852 172.987 584.852 172.24C584.852 171.36 584.612 170.68 584.132 170.2C583.679 169.693 583.065 169.307 582.292 169.04C581.545 168.747 580.745 168.493 579.892 168.28C579.065 168.04 578.265 167.747 577.492 167.4C576.745 167.027 576.132 166.52 575.652 165.88C575.199 165.24 574.972 164.373 574.972 163.28C574.972 162.427 575.185 161.587 575.612 160.76C576.039 159.907 576.705 159.213 577.612 158.68C578.545 158.12 579.772 157.84 581.292 157.84C582.172 157.84 583.025 157.933 583.852 158.12C584.679 158.307 585.345 158.56 585.852 158.88C586.385 159.173 586.652 159.48 586.652 159.8C586.652 159.933 586.599 160.107 586.492 160.32C586.412 160.533 586.292 160.733 586.132 160.92C585.972 161.08 585.785 161.16 585.572 161.16C585.359 161.16 585.065 161.067 584.692 160.88C584.345 160.667 583.892 160.48 583.332 160.32C582.772 160.133 582.105 160.04 581.332 160.04C580.372 160.04 579.599 160.213 579.012 160.56C578.425 160.907 577.999 161.32 577.732 161.8C577.465 162.253 577.332 162.707 577.332 163.16C577.332 163.933 577.572 164.52 578.052 164.92C578.532 165.32 579.145 165.653 579.892 165.92C580.665 166.16 581.465 166.4 582.292 166.64C583.145 166.853 583.945 167.16 584.692 167.56C585.465 167.96 586.079 168.52 586.532 169.24C587.012 169.96 587.252 170.92 587.252 172.12C587.252 173.693 586.692 174.947 585.572 175.88C584.452 176.813 582.865 177.28 580.812 177.28ZM599.041 177.28C597.361 177.28 595.867 176.96 594.561 176.32C593.281 175.68 592.267 174.8 591.521 173.68C590.801 172.533 590.441 171.2 590.441 169.68V165.2C590.441 163.867 590.787 162.64 591.481 161.52C592.174 160.4 593.094 159.507 594.241 158.84C595.414 158.173 596.694 157.84 598.081 157.84C599.414 157.84 600.641 158.16 601.761 158.8C602.907 159.413 603.827 160.267 604.521 161.36C605.214 162.453 605.561 163.707 605.561 165.12C605.561 166.16 605.387 166.907 605.041 167.36C604.694 167.787 604.254 168.053 603.721 168.16C603.214 168.267 602.667 168.32 602.081 168.32H593.041V169.8C593.041 171.4 593.614 172.667 594.761 173.6C595.907 174.533 597.361 175 599.121 175C600.187 175 601.014 174.867 601.601 174.6C602.187 174.333 602.641 174.067 602.961 173.8C603.307 173.533 603.627 173.4 603.921 173.4C604.134 173.4 604.321 173.48 604.481 173.64C604.667 173.773 604.801 173.933 604.881 174.12C604.987 174.307 605.041 174.48 605.041 174.64C605.041 174.933 604.801 175.293 604.321 175.72C603.841 176.147 603.147 176.52 602.241 176.84C601.334 177.133 600.267 177.28 599.041 177.28ZM593.041 166.4H601.041C601.841 166.4 602.374 166.32 602.641 166.16C602.907 165.973 603.041 165.6 603.041 165.04C603.041 164.187 602.827 163.373 602.401 162.6C602.001 161.827 601.414 161.2 600.641 160.72C599.894 160.24 599.027 160 598.041 160C597.134 160 596.294 160.227 595.521 160.68C594.774 161.107 594.174 161.693 593.721 162.44C593.267 163.16 593.041 163.973 593.041 164.88V166.4ZM610.721 177C610.374 177 610.068 176.893 609.801 176.68C609.561 176.467 609.441 176.227 609.441 175.96V159.04C609.441 158.747 609.561 158.52 609.801 158.36C610.068 158.173 610.374 158.08 610.721 158.08C611.068 158.08 611.361 158.173 611.601 158.36C611.841 158.52 611.961 158.747 611.961 159.04V161C612.254 160.467 612.654 159.96 613.161 159.48C613.668 159 614.268 158.613 614.961 158.32C615.654 158 616.441 157.84 617.321 157.84H618.721C619.014 157.84 619.254 157.96 619.441 158.2C619.654 158.413 619.761 158.693 619.761 159.04C619.761 159.36 619.654 159.64 619.441 159.88C619.254 160.12 619.014 160.24 618.721 160.24H617.321C616.441 160.24 615.588 160.48 614.761 160.96C613.961 161.413 613.308 162.08 612.801 162.96C612.294 163.813 612.041 164.853 612.041 166.08V175.96C612.041 176.227 611.908 176.467 611.641 176.68C611.401 176.893 611.094 177 610.721 177ZM638.132 177.28C636.719 177.28 635.439 176.933 634.292 176.24C633.145 175.547 632.225 174.627 631.532 173.48C630.839 172.307 630.492 171.067 630.492 169.76V159.08C630.492 158.84 630.625 158.613 630.892 158.4C631.159 158.187 631.465 158.08 631.812 158.08C632.159 158.08 632.452 158.187 632.692 158.4C632.959 158.613 633.092 158.84 633.092 159.08V169.76C633.092 170.64 633.319 171.467 633.772 172.24C634.225 173.013 634.825 173.653 635.572 174.16C636.319 174.64 637.159 174.88 638.092 174.88C639.052 174.88 639.905 174.64 640.652 174.16C641.399 173.68 641.985 173.053 642.412 172.28C642.865 171.48 643.092 170.64 643.092 169.76V159.04C643.092 158.773 643.225 158.547 643.492 158.36C643.759 158.173 644.065 158.08 644.412 158.08C644.812 158.08 645.119 158.173 645.332 158.36C645.572 158.547 645.692 158.773 645.692 159.04V169.76C645.692 171.12 645.345 172.373 644.652 173.52C643.985 174.64 643.065 175.547 641.892 176.24C640.745 176.933 639.492 177.28 638.132 177.28ZM651.776 177C651.429 177 651.122 176.893 650.856 176.68C650.616 176.467 650.496 176.227 650.496 175.96V159.04C650.496 158.747 650.616 158.52 650.856 158.36C651.122 158.173 651.429 158.08 651.776 158.08C652.122 158.08 652.416 158.173 652.656 158.36C652.896 158.52 653.016 158.747 653.016 159.04V160.88C653.442 160.107 654.109 159.413 655.016 158.8C655.922 158.16 657.042 157.84 658.376 157.84C659.656 157.84 660.829 158.187 661.896 158.88C662.989 159.547 663.856 160.44 664.496 161.56C665.136 162.68 665.456 163.933 665.456 165.32V175.96C665.456 176.307 665.322 176.573 665.056 176.76C664.789 176.92 664.482 177 664.136 177C663.842 177 663.549 176.92 663.256 176.76C662.989 176.573 662.856 176.307 662.856 175.96V165.32C662.856 164.467 662.629 163.653 662.176 162.88C661.722 162.107 661.122 161.48 660.376 161C659.629 160.493 658.802 160.24 657.896 160.24C657.096 160.24 656.322 160.453 655.576 160.88C654.856 161.28 654.256 161.853 653.776 162.6C653.322 163.347 653.096 164.253 653.096 165.32V175.96C653.096 176.227 652.962 176.467 652.696 176.68C652.456 176.893 652.149 177 651.776 177ZM685.389 177.28C683.629 177.28 682.176 176.947 681.029 176.28C679.882 175.613 679.029 174.707 678.469 173.56C677.909 172.413 677.629 171.12 677.629 169.68V165.4C677.629 163.987 677.896 162.707 678.429 161.56C678.989 160.413 679.842 159.507 680.989 158.84C682.162 158.173 683.629 157.84 685.389 157.84C686.509 157.84 687.482 157.987 688.309 158.28C689.162 158.547 689.816 158.88 690.269 159.28C690.749 159.68 690.989 160.067 690.989 160.44C690.989 160.6 690.936 160.787 690.829 161C690.749 161.187 690.616 161.36 690.429 161.52C690.269 161.653 690.082 161.72 689.869 161.72C689.629 161.72 689.349 161.6 689.029 161.36C688.736 161.093 688.322 160.84 687.789 160.6C687.256 160.36 686.496 160.24 685.509 160.24C683.776 160.24 682.456 160.707 681.549 161.64C680.669 162.547 680.229 163.8 680.229 165.4V169.68C680.229 171.307 680.669 172.587 681.549 173.52C682.456 174.427 683.789 174.88 685.549 174.88C686.562 174.88 687.349 174.76 687.909 174.52C688.469 174.253 688.896 174 689.189 173.76C689.509 173.493 689.802 173.36 690.069 173.36C690.309 173.36 690.509 173.427 690.669 173.56C690.856 173.693 690.989 173.853 691.069 174.04C691.176 174.227 691.229 174.427 691.229 174.64C691.229 174.987 690.989 175.373 690.509 175.8C690.029 176.2 689.349 176.547 688.469 176.84C687.616 177.133 686.589 177.28 685.389 177.28ZM698.953 177.28C697.46 177.28 696.18 176.853 695.113 176C694.047 175.12 693.513 173.787 693.513 172C693.513 170.533 693.9 169.413 694.673 168.64C695.473 167.84 696.567 167.293 697.953 167C699.367 166.68 700.993 166.52 702.833 166.52H704.873V165.56C704.873 164.707 704.713 163.867 704.393 163.04C704.1 162.187 703.607 161.493 702.913 160.96C702.247 160.4 701.327 160.12 700.153 160.12C699.273 160.12 698.553 160.213 697.993 160.4C697.433 160.587 696.993 160.787 696.673 161C696.353 161.187 696.087 161.28 695.873 161.28C695.553 161.28 695.3 161.12 695.113 160.8C694.927 160.48 694.833 160.173 694.833 159.88C694.833 159.533 695.1 159.213 695.633 158.92C696.193 158.6 696.887 158.347 697.713 158.16C698.567 157.947 699.407 157.84 700.233 157.84C702.02 157.84 703.433 158.213 704.473 158.96C705.54 159.68 706.3 160.627 706.753 161.8C707.233 162.973 707.473 164.227 707.473 165.56V175.96C707.473 176.253 707.353 176.507 707.113 176.72C706.9 176.907 706.593 177 706.193 177C705.873 177 705.593 176.907 705.353 176.72C705.113 176.507 704.993 176.253 704.993 175.96V174.2C704.3 174.973 703.46 175.68 702.473 176.32C701.487 176.96 700.313 177.28 698.953 177.28ZM699.593 175.08C700.473 175.08 701.313 174.853 702.113 174.4C702.913 173.947 703.567 173.4 704.073 172.76C704.607 172.093 704.873 171.467 704.873 170.88V168.32H703.193C701.993 168.32 700.847 168.4 699.753 168.56C698.687 168.693 697.807 169 697.113 169.48C696.447 169.96 696.113 170.72 696.113 171.76C696.113 172.907 696.447 173.747 697.113 174.28C697.807 174.813 698.633 175.08 699.593 175.08ZM717.453 177.28C716.199 177.28 715.106 177.12 714.173 176.8C713.239 176.48 712.506 176.107 711.973 175.68C711.439 175.227 711.173 174.8 711.173 174.4C711.173 174.213 711.213 174.04 711.293 173.88C711.373 173.693 711.479 173.533 711.613 173.4C711.773 173.267 711.933 173.2 712.093 173.2C712.386 173.2 712.706 173.36 713.053 173.68C713.426 173.973 713.933 174.28 714.573 174.6C715.239 174.92 716.173 175.08 717.373 175.08C718.893 175.08 719.959 174.8 720.573 174.24C721.186 173.653 721.493 172.987 721.493 172.24C721.493 171.36 721.253 170.68 720.773 170.2C720.319 169.693 719.706 169.307 718.933 169.04C718.186 168.747 717.386 168.493 716.533 168.28C715.706 168.04 714.906 167.747 714.133 167.4C713.386 167.027 712.773 166.52 712.293 165.88C711.839 165.24 711.613 164.373 711.613 163.28C711.613 162.427 711.826 161.587 712.253 160.76C712.679 159.907 713.346 159.213 714.253 158.68C715.186 158.12 716.413 157.84 717.933 157.84C718.813 157.84 719.666 157.933 720.493 158.12C721.319 158.307 721.986 158.56 722.493 158.88C723.026 159.173 723.293 159.48 723.293 159.8C723.293 159.933 723.239 160.107 723.133 160.32C723.053 160.533 722.933 160.733 722.773 160.92C722.613 161.08 722.426 161.16 722.213 161.16C721.999 161.16 721.706 161.067 721.333 160.88C720.986 160.667 720.533 160.48 719.973 160.32C719.413 160.133 718.746 160.04 717.973 160.04C717.013 160.04 716.239 160.213 715.653 160.56C715.066 160.907 714.639 161.32 714.373 161.8C714.106 162.253 713.973 162.707 713.973 163.16C713.973 163.933 714.213 164.52 714.693 164.92C715.173 165.32 715.786 165.653 716.533 165.92C717.306 166.16 718.106 166.4 718.933 166.64C719.786 166.853 720.586 167.16 721.333 167.56C722.106 167.96 722.719 168.52 723.173 169.24C723.653 169.96 723.893 170.92 723.893 172.12C723.893 173.693 723.333 174.947 722.213 175.88C721.093 176.813 719.506 177.28 717.453 177.28ZM740.841 186.28C740.495 186.28 740.188 186.173 739.921 185.96C739.655 185.747 739.521 185.507 739.521 185.24V174.2C739.121 175.027 738.428 175.747 737.441 176.36C736.455 176.973 735.361 177.28 734.161 177.28C732.908 177.28 731.735 176.933 730.641 176.24C729.548 175.52 728.681 174.573 728.041 173.4C727.401 172.227 727.081 170.987 727.081 169.68V165.32C727.081 163.933 727.401 162.68 728.041 161.56C728.681 160.44 729.548 159.547 730.641 158.88C731.735 158.187 732.935 157.84 734.241 157.84C735.575 157.84 736.695 158.16 737.601 158.8C738.508 159.413 739.188 160.107 739.641 160.88V159.04C739.641 158.747 739.761 158.52 740.001 158.36C740.241 158.173 740.535 158.08 740.881 158.08C741.255 158.08 741.548 158.173 741.761 158.36C742.001 158.52 742.121 158.747 742.121 159.04V185.24C742.121 185.507 742.001 185.747 741.761 185.96C741.548 186.173 741.241 186.28 740.841 186.28ZM734.641 174.88C735.575 174.88 736.401 174.64 737.121 174.16C737.868 173.653 738.455 173.093 738.881 172.48C739.308 171.84 739.521 171.32 739.521 170.92V165.32C739.521 164.253 739.281 163.347 738.801 162.6C738.348 161.853 737.748 161.28 737.001 160.88C736.255 160.453 735.481 160.24 734.681 160.24C733.775 160.24 732.935 160.493 732.161 161C731.415 161.48 730.815 162.107 730.361 162.88C729.908 163.653 729.681 164.467 729.681 165.32V169.68C729.681 170.56 729.908 171.4 730.361 172.2C730.815 173 731.415 173.653 732.161 174.16C732.935 174.64 733.761 174.88 734.641 174.88ZM754.616 177.28C753.203 177.28 751.923 176.933 750.776 176.24C749.63 175.547 748.71 174.627 748.016 173.48C747.323 172.307 746.976 171.067 746.976 169.76V159.08C746.976 158.84 747.11 158.613 747.376 158.4C747.643 158.187 747.95 158.08 748.296 158.08C748.643 158.08 748.936 158.187 749.176 158.4C749.443 158.613 749.576 158.84 749.576 159.08V169.76C749.576 170.64 749.803 171.467 750.256 172.24C750.71 173.013 751.31 173.653 752.056 174.16C752.803 174.64 753.643 174.88 754.576 174.88C755.536 174.88 756.39 174.64 757.136 174.16C757.883 173.68 758.47 173.053 758.896 172.28C759.35 171.48 759.576 170.64 759.576 169.76V159.04C759.576 158.773 759.71 158.547 759.976 158.36C760.243 158.173 760.55 158.08 760.896 158.08C761.296 158.08 761.603 158.173 761.816 158.36C762.056 158.547 762.176 158.773 762.176 159.04V169.76C762.176 171.12 761.83 172.373 761.136 173.52C760.47 174.64 759.55 175.547 758.376 176.24C757.23 176.933 755.976 177.28 754.616 177.28ZM774.9 177.28C773.22 177.28 771.727 176.96 770.42 176.32C769.14 175.68 768.127 174.8 767.38 173.68C766.66 172.533 766.3 171.2 766.3 169.68V165.2C766.3 163.867 766.647 162.64 767.34 161.52C768.033 160.4 768.953 159.507 770.1 158.84C771.273 158.173 772.553 157.84 773.94 157.84C775.273 157.84 776.5 158.16 777.62 158.8C778.767 159.413 779.687 160.267 780.38 161.36C781.073 162.453 781.42 163.707 781.42 165.12C781.42 166.16 781.247 166.907 780.9 167.36C780.553 167.787 780.113 168.053 779.58 168.16C779.073 168.267 778.527 168.32 777.94 168.32H768.9V169.8C768.9 171.4 769.473 172.667 770.62 173.6C771.767 174.533 773.22 175 774.98 175C776.047 175 776.873 174.867 777.46 174.6C778.047 174.333 778.5 174.067 778.82 173.8C779.167 173.533 779.487 173.4 779.78 173.4C779.993 173.4 780.18 173.48 780.34 173.64C780.527 173.773 780.66 173.933 780.74 174.12C780.847 174.307 780.9 174.48 780.9 174.64C780.9 174.933 780.66 175.293 780.18 175.72C779.7 176.147 779.007 176.52 778.1 176.84C777.193 177.133 776.127 177.28 774.9 177.28ZM768.9 166.4H776.9C777.7 166.4 778.233 166.32 778.5 166.16C778.767 165.973 778.9 165.6 778.9 165.04C778.9 164.187 778.687 163.373 778.26 162.6C777.86 161.827 777.273 161.2 776.5 160.72C775.753 160.24 774.887 160 773.9 160C772.993 160 772.153 160.227 771.38 160.68C770.633 161.107 770.033 161.693 769.58 162.44C769.127 163.16 768.9 163.973 768.9 164.88V166.4Z" fill="white"/>
<defs>
<clipPath id="clip0">
<rect x="337" width="120" height="82" fill="white"/>
</clipPath>
</defs>
</svg>
