<svg width="351" height="381" viewBox="0 0 351 381" fill="none" xmlns="http://www.w3.org/2000/svg">
<path d="M312.586 325.296C312.586 325.471 312.763 325.471 312.763 325.646C320.552 337.372 320.552 354.348 320.375 368.524" stroke="white" stroke-width="0.9124" stroke-miterlimit="10"/>
<path d="M303.38 317.596C289.749 310.071 268.86 306.92 264.612 292.919" stroke="white" stroke-width="0.9124" stroke-miterlimit="10"/>
<path d="M264.789 281.193C267.267 272.793 275.588 268.768 282.314 263.867C293.467 255.817 302.672 246.191 306.036 233.24" stroke="white" stroke-width="0.9124" stroke-miterlimit="10"/>
<path d="M289.75 167.436C290.458 171.811 291.874 176.187 293.998 180.387C301.256 193.863 307.629 206.114 307.452 221.515" stroke="white" stroke-width="0.9124" stroke-miterlimit="10"/>
<path d="M289.396 155.535C290.635 140.659 298.07 125.608 307.629 113.532" stroke="white" stroke-width="0.9124" stroke-miterlimit="10"/>
<path d="M315.772 104.607C318.25 102.332 320.552 100.232 323.03 98.4819C333.12 91.1314 342.149 79.5807 344.096 67.5049" stroke="white" stroke-width="0.9124" stroke-miterlimit="10"/>
<path d="M309.399 12.9004C311.701 35.8269 327.633 31.9766 338.077 45.2775C340.733 48.6027 342.503 52.103 343.388 55.6032" stroke="white" stroke-width="0.9124" stroke-miterlimit="10"/>
<path d="M309.045 12.9008C312.369 12.9008 315.064 10.2367 315.064 6.95039C315.064 3.66408 312.369 1 309.045 1C305.721 1 303.026 3.66408 303.026 6.95039C303.026 10.2367 305.721 12.9008 309.045 12.9008Z" fill="white" stroke="white" stroke-width="0.9124" stroke-miterlimit="10"/>
<path d="M320.375 380.25C323.699 380.25 326.394 377.586 326.394 374.3C326.394 371.013 323.699 368.349 320.375 368.349C317.051 368.349 314.356 371.013 314.356 374.3C314.356 377.586 317.051 380.25 320.375 380.25Z" stroke="white" stroke-width="0.9124" stroke-miterlimit="10"/>
<path d="M264.019 292.509C267.343 292.509 270.038 289.845 270.038 286.559C270.038 283.272 267.343 280.608 264.019 280.608C260.695 280.608 258 283.272 258 286.559C258 289.845 260.695 292.509 264.019 292.509Z" stroke="white" stroke-width="0.9124" stroke-miterlimit="10"/>
<path d="M306.859 232.83C310.183 232.83 312.877 230.166 312.877 226.88C312.877 223.593 310.183 220.929 306.859 220.929C303.535 220.929 300.84 223.593 300.84 226.88C300.84 230.166 303.535 232.83 306.859 232.83Z" stroke="white" stroke-width="0.9124" stroke-miterlimit="10"/>
<path d="M308.275 326.636C311.599 326.636 314.294 323.972 314.294 320.686C314.294 317.399 311.599 314.735 308.275 314.735C304.951 314.735 302.256 317.399 302.256 320.686C302.256 323.972 304.951 326.636 308.275 326.636Z" stroke="white" stroke-width="0.9124" stroke-miterlimit="10"/>
<path d="M289.333 167.026C292.657 167.026 295.352 164.362 295.352 161.075C295.352 157.789 292.657 155.125 289.333 155.125C286.009 155.125 283.314 157.789 283.314 161.075C283.314 164.362 286.009 167.026 289.333 167.026Z" fill="white" stroke="white" stroke-width="0.9124" stroke-miterlimit="10"/>
<path d="M344.096 67.5043C347.42 67.5043 350.115 64.8402 350.115 61.5539C350.115 58.2676 347.42 55.6035 344.096 55.6035C340.772 55.6035 338.077 58.2676 338.077 61.5539C338.077 64.8402 340.772 67.5043 344.096 67.5043Z" fill="white" stroke="white" stroke-width="0.9124" stroke-miterlimit="10"/>
<path d="M311.7 114.933C315.025 114.933 317.719 112.269 317.719 108.983C317.719 105.696 315.025 103.032 311.7 103.032C308.376 103.032 305.682 105.696 305.682 108.983C305.682 112.269 308.376 114.933 311.7 114.933Z" fill="white" stroke="white" stroke-width="0.9124" stroke-miterlimit="10"/>
<line x1="289.867" y1="161.625" x2="246" y2="161.625" stroke="white"/>
<path d="M66.409 166.425C65.3757 166.425 64.4257 166.233 63.559 165.85C62.6923 165.467 61.934 164.917 61.284 164.2C60.6507 163.467 60.1507 162.575 59.784 161.525C59.434 160.458 59.259 159.258 59.259 157.925C59.259 156.608 59.4423 155.425 59.809 154.375C60.1757 153.325 60.684 152.433 61.334 151.7C61.984 150.967 62.7507 150.408 63.634 150.025C64.5173 149.625 65.484 149.425 66.534 149.425C67.534 149.425 68.409 149.633 69.159 150.05C69.9257 150.45 70.5507 150.917 71.034 151.45L69.909 152.8C69.4757 152.333 68.984 151.958 68.434 151.675C67.884 151.392 67.259 151.25 66.559 151.25C65.7757 151.25 65.0673 151.408 64.434 151.725C63.8007 152.025 63.259 152.467 62.809 153.05C62.359 153.617 62.009 154.308 61.759 155.125C61.5257 155.942 61.409 156.858 61.409 157.875C61.409 158.908 61.5257 159.842 61.759 160.675C62.009 161.492 62.3507 162.192 62.784 162.775C63.2173 163.358 63.7423 163.808 64.359 164.125C64.9923 164.442 65.7007 164.6 66.484 164.6C67.284 164.6 67.984 164.442 68.584 164.125C69.184 163.792 69.7507 163.333 70.284 162.75L71.434 164.05C70.784 164.8 70.0507 165.383 69.234 165.8C68.4173 166.217 67.4757 166.425 66.409 166.425ZM74.2912 166.125V148.325H76.3412V153.175L76.2662 155.675C76.8495 155.125 77.4579 154.658 78.0912 154.275C78.7245 153.875 79.4662 153.675 80.3162 153.675C81.5995 153.675 82.5329 154.075 83.1162 154.875C83.7162 155.675 84.0162 156.858 84.0162 158.425V166.125H81.9662V158.7C81.9662 157.55 81.7829 156.725 81.4162 156.225C81.0495 155.708 80.4662 155.45 79.6662 155.45C79.0329 155.45 78.4745 155.608 77.9912 155.925C77.5079 156.242 76.9579 156.708 76.3412 157.325V166.125H74.2912ZM91.4398 166.425C90.1398 166.425 89.1898 166.025 88.5898 165.225C88.0065 164.425 87.7148 163.242 87.7148 161.675V153.975H89.7898V161.4C89.7898 162.55 89.9648 163.383 90.3148 163.9C90.6815 164.4 91.2648 164.65 92.0648 164.65C92.6982 164.65 93.2565 164.492 93.7398 164.175C94.2232 163.842 94.7565 163.317 95.3398 162.6V153.975H97.3898V166.125H95.6898L95.5148 164.225H95.4398C94.8732 164.892 94.2732 165.425 93.6398 165.825C93.0232 166.225 92.2898 166.425 91.4398 166.425ZM105.313 166.425C104.663 166.425 104.113 166.325 103.663 166.125C103.23 165.925 102.872 165.65 102.588 165.3C102.322 164.95 102.13 164.525 102.013 164.025C101.897 163.525 101.838 162.975 101.838 162.375V155.65H100.038V154.1L101.938 153.975L102.188 150.575H103.913V153.975H107.188V155.65H103.913V162.4C103.913 163.15 104.047 163.733 104.313 164.15C104.597 164.55 105.088 164.75 105.788 164.75C106.005 164.75 106.238 164.717 106.488 164.65C106.738 164.583 106.963 164.508 107.163 164.425L107.563 165.975C107.23 166.092 106.863 166.192 106.463 166.275C106.08 166.375 105.697 166.425 105.313 166.425ZM114.519 166.425C113.702 166.425 112.936 166.283 112.219 166C111.519 165.7 110.902 165.283 110.369 164.75C109.852 164.2 109.444 163.533 109.144 162.75C108.844 161.967 108.694 161.075 108.694 160.075C108.694 159.075 108.844 158.183 109.144 157.4C109.461 156.6 109.869 155.925 110.369 155.375C110.886 154.825 111.469 154.408 112.119 154.125C112.769 153.825 113.444 153.675 114.144 153.675C114.911 153.675 115.594 153.808 116.194 154.075C116.811 154.342 117.319 154.725 117.719 155.225C118.136 155.725 118.452 156.325 118.669 157.025C118.886 157.725 118.994 158.508 118.994 159.375C118.994 159.592 118.986 159.808 118.969 160.025C118.969 160.225 118.952 160.4 118.919 160.55H110.719C110.802 161.85 111.202 162.883 111.919 163.65C112.652 164.4 113.602 164.775 114.769 164.775C115.352 164.775 115.886 164.692 116.369 164.525C116.869 164.342 117.344 164.108 117.794 163.825L118.519 165.175C117.986 165.508 117.394 165.8 116.744 166.05C116.094 166.3 115.352 166.425 114.519 166.425ZM110.694 159.075H117.194C117.194 157.842 116.927 156.908 116.394 156.275C115.877 155.625 115.144 155.3 114.194 155.3C113.761 155.3 113.344 155.383 112.944 155.55C112.561 155.717 112.211 155.967 111.894 156.3C111.577 156.617 111.311 157.008 111.094 157.475C110.894 157.942 110.761 158.475 110.694 159.075ZM131.151 166.425C129.618 166.425 128.393 165.875 127.476 164.775C126.576 163.675 126.126 162.108 126.126 160.075C126.126 159.092 126.268 158.208 126.551 157.425C126.851 156.625 127.243 155.95 127.726 155.4C128.21 154.85 128.768 154.425 129.401 154.125C130.035 153.825 130.701 153.675 131.401 153.675C132.101 153.675 132.71 153.8 133.226 154.05C133.743 154.3 134.268 154.642 134.801 155.075L134.701 153V148.325H136.776V166.125H135.076L134.901 164.7H134.826C134.343 165.167 133.785 165.575 133.151 165.925C132.535 166.258 131.868 166.425 131.151 166.425ZM131.601 164.7C132.168 164.7 132.701 164.567 133.201 164.3C133.701 164.017 134.201 163.592 134.701 163.025V156.675C134.185 156.208 133.685 155.883 133.201 155.7C132.735 155.5 132.251 155.4 131.751 155.4C131.268 155.4 130.81 155.517 130.376 155.75C129.96 155.967 129.593 156.283 129.276 156.7C128.96 157.1 128.71 157.583 128.526 158.15C128.343 158.717 128.251 159.35 128.251 160.05C128.251 161.517 128.543 162.658 129.126 163.475C129.71 164.292 130.535 164.7 131.601 164.7ZM145.793 166.425C144.977 166.425 144.21 166.283 143.493 166C142.793 165.7 142.177 165.283 141.643 164.75C141.127 164.2 140.718 163.533 140.418 162.75C140.118 161.967 139.968 161.075 139.968 160.075C139.968 159.075 140.118 158.183 140.418 157.4C140.735 156.6 141.143 155.925 141.643 155.375C142.16 154.825 142.743 154.408 143.393 154.125C144.043 153.825 144.718 153.675 145.418 153.675C146.185 153.675 146.868 153.808 147.468 154.075C148.085 154.342 148.593 154.725 148.993 155.225C149.41 155.725 149.727 156.325 149.943 157.025C150.16 157.725 150.268 158.508 150.268 159.375C150.268 159.592 150.26 159.808 150.243 160.025C150.243 160.225 150.227 160.4 150.193 160.55H141.993C142.077 161.85 142.477 162.883 143.193 163.65C143.927 164.4 144.877 164.775 146.043 164.775C146.627 164.775 147.16 164.692 147.643 164.525C148.143 164.342 148.618 164.108 149.068 163.825L149.793 165.175C149.26 165.508 148.668 165.8 148.018 166.05C147.368 166.3 146.627 166.425 145.793 166.425ZM141.968 159.075H148.468C148.468 157.842 148.202 156.908 147.668 156.275C147.152 155.625 146.418 155.3 145.468 155.3C145.035 155.3 144.618 155.383 144.218 155.55C143.835 155.717 143.485 155.967 143.168 156.3C142.852 156.617 142.585 157.008 142.368 157.475C142.168 157.942 142.035 158.475 141.968 159.075ZM161.526 166.425C159.476 166.425 157.967 165.55 157.001 163.8L158.501 162.75C158.867 163.4 159.284 163.875 159.751 164.175C160.217 164.458 160.742 164.6 161.326 164.6C162.209 164.6 162.867 164.333 163.301 163.8C163.734 163.25 163.951 162.35 163.951 161.1V149.725H166.051V161.3C166.051 162 165.959 162.667 165.776 163.3C165.609 163.917 165.342 164.458 164.976 164.925C164.626 165.392 164.159 165.758 163.576 166.025C163.009 166.292 162.326 166.425 161.526 166.425ZM173.087 166.425C172.071 166.425 171.221 166.125 170.537 165.525C169.871 164.925 169.537 164.075 169.537 162.975C169.537 161.642 170.129 160.625 171.312 159.925C172.496 159.208 174.387 158.708 176.987 158.425C176.987 158.042 176.946 157.667 176.862 157.3C176.796 156.933 176.671 156.608 176.487 156.325C176.304 156.042 176.046 155.817 175.712 155.65C175.396 155.467 174.987 155.375 174.487 155.375C173.787 155.375 173.129 155.508 172.512 155.775C171.896 156.042 171.346 156.342 170.862 156.675L170.062 155.25C170.629 154.883 171.321 154.533 172.137 154.2C172.954 153.85 173.854 153.675 174.837 153.675C176.321 153.675 177.396 154.133 178.062 155.05C178.729 155.95 179.062 157.158 179.062 158.675V166.125H177.362L177.187 164.675H177.112C176.529 165.158 175.904 165.575 175.237 165.925C174.571 166.258 173.854 166.425 173.087 166.425ZM173.687 164.775C174.271 164.775 174.821 164.642 175.337 164.375C175.854 164.092 176.404 163.683 176.987 163.15V159.775C175.971 159.908 175.112 160.067 174.412 160.25C173.729 160.433 173.171 160.65 172.737 160.9C172.321 161.15 172.012 161.442 171.812 161.775C171.629 162.092 171.537 162.442 171.537 162.825C171.537 163.525 171.746 164.025 172.162 164.325C172.579 164.625 173.087 164.775 173.687 164.775ZM187.685 166.425C186.885 166.425 186.135 166.283 185.435 166C184.735 165.717 184.127 165.308 183.61 164.775C183.11 164.225 182.71 163.558 182.41 162.775C182.127 161.975 181.985 161.075 181.985 160.075C181.985 159.058 182.143 158.158 182.46 157.375C182.777 156.575 183.202 155.9 183.735 155.35C184.268 154.8 184.885 154.383 185.585 154.1C186.302 153.817 187.052 153.675 187.835 153.675C188.635 153.675 189.318 153.817 189.885 154.1C190.452 154.383 190.952 154.717 191.385 155.1L190.335 156.45C189.985 156.133 189.61 155.875 189.21 155.675C188.827 155.475 188.393 155.375 187.91 155.375C187.36 155.375 186.852 155.492 186.385 155.725C185.918 155.942 185.518 156.258 185.185 156.675C184.852 157.092 184.585 157.592 184.385 158.175C184.202 158.742 184.11 159.375 184.11 160.075C184.11 160.775 184.202 161.408 184.385 161.975C184.568 162.542 184.818 163.033 185.135 163.45C185.468 163.85 185.868 164.167 186.335 164.4C186.802 164.617 187.31 164.725 187.86 164.725C188.427 164.725 188.943 164.608 189.41 164.375C189.893 164.125 190.327 163.833 190.71 163.5L191.61 164.875C191.06 165.358 190.452 165.742 189.785 166.025C189.118 166.292 188.418 166.425 187.685 166.425ZM201.449 171.25V166.925L201.549 164.725C201.066 165.208 200.508 165.617 199.874 165.95C199.258 166.267 198.599 166.425 197.899 166.425C196.366 166.425 195.141 165.875 194.224 164.775C193.324 163.675 192.874 162.108 192.874 160.075C192.874 159.092 193.016 158.208 193.299 157.425C193.599 156.625 193.991 155.95 194.474 155.4C194.958 154.85 195.516 154.425 196.149 154.125C196.783 153.825 197.449 153.675 198.149 153.675C198.849 153.675 199.466 153.8 199.999 154.05C200.533 154.283 201.074 154.642 201.624 155.125H201.674L201.874 153.975H203.524V171.25H201.449ZM198.349 164.7C198.916 164.7 199.449 164.567 199.949 164.3C200.449 164.017 200.949 163.592 201.449 163.025V156.675C200.933 156.208 200.433 155.883 199.949 155.7C199.483 155.5 198.999 155.4 198.499 155.4C198.016 155.4 197.558 155.517 197.124 155.75C196.708 155.967 196.341 156.283 196.024 156.7C195.708 157.1 195.458 157.583 195.274 158.15C195.091 158.717 194.999 159.35 194.999 160.05C194.999 161.517 195.291 162.658 195.874 163.475C196.458 164.292 197.283 164.7 198.349 164.7ZM211.166 166.425C209.866 166.425 208.916 166.025 208.316 165.225C207.733 164.425 207.441 163.242 207.441 161.675V153.975H209.516V161.4C209.516 162.55 209.691 163.383 210.041 163.9C210.408 164.4 210.991 164.65 211.791 164.65C212.425 164.65 212.983 164.492 213.466 164.175C213.95 163.842 214.483 163.317 215.066 162.6V153.975H217.116V166.125H215.416L215.241 164.225H215.166C214.6 164.892 214 165.425 213.366 165.825C212.75 166.225 212.016 166.425 211.166 166.425ZM226.14 166.425C225.323 166.425 224.557 166.283 223.84 166C223.14 165.7 222.523 165.283 221.99 164.75C221.473 164.2 221.065 163.533 220.765 162.75C220.465 161.967 220.315 161.075 220.315 160.075C220.315 159.075 220.465 158.183 220.765 157.4C221.082 156.6 221.49 155.925 221.99 155.375C222.507 154.825 223.09 154.408 223.74 154.125C224.39 153.825 225.065 153.675 225.765 153.675C226.532 153.675 227.215 153.808 227.815 154.075C228.432 154.342 228.94 154.725 229.34 155.225C229.757 155.725 230.073 156.325 230.29 157.025C230.507 157.725 230.615 158.508 230.615 159.375C230.615 159.592 230.607 159.808 230.59 160.025C230.59 160.225 230.573 160.4 230.54 160.55H222.34C222.423 161.85 222.823 162.883 223.54 163.65C224.273 164.4 225.223 164.775 226.39 164.775C226.973 164.775 227.507 164.692 227.99 164.525C228.49 164.342 228.965 164.108 229.415 163.825L230.14 165.175C229.607 165.508 229.015 165.8 228.365 166.05C227.715 166.3 226.973 166.425 226.14 166.425ZM222.315 159.075H228.815C228.815 157.842 228.548 156.908 228.015 156.275C227.498 155.625 226.765 155.3 225.815 155.3C225.382 155.3 224.965 155.383 224.565 155.55C224.182 155.717 223.832 155.967 223.515 156.3C223.198 156.617 222.932 157.008 222.715 157.475C222.515 157.942 222.382 158.475 222.315 159.075ZM236.792 166.425C235.926 166.425 235.101 166.267 234.317 165.95C233.534 165.633 232.851 165.233 232.267 164.75L233.292 163.375C233.826 163.808 234.367 164.158 234.917 164.425C235.484 164.692 236.134 164.825 236.867 164.825C237.667 164.825 238.267 164.642 238.667 164.275C239.067 163.908 239.267 163.458 239.267 162.925C239.267 162.608 239.184 162.333 239.017 162.1C238.851 161.867 238.634 161.667 238.367 161.5C238.117 161.317 237.826 161.158 237.492 161.025C237.159 160.892 236.826 160.758 236.492 160.625C236.059 160.475 235.626 160.308 235.192 160.125C234.759 159.925 234.367 159.692 234.017 159.425C233.684 159.142 233.409 158.817 233.192 158.45C232.976 158.083 232.867 157.642 232.867 157.125C232.867 156.642 232.959 156.192 233.142 155.775C233.342 155.342 233.617 154.975 233.967 154.675C234.334 154.358 234.776 154.117 235.292 153.95C235.809 153.767 236.392 153.675 237.042 153.675C237.809 153.675 238.509 153.808 239.142 154.075C239.792 154.342 240.351 154.667 240.817 155.05L239.842 156.35C239.426 156.033 238.992 155.775 238.542 155.575C238.092 155.375 237.601 155.275 237.067 155.275C236.301 155.275 235.734 155.45 235.367 155.8C235.017 156.15 234.842 156.558 234.842 157.025C234.842 157.308 234.917 157.558 235.067 157.775C235.217 157.975 235.417 158.158 235.667 158.325C235.917 158.475 236.201 158.617 236.517 158.75C236.851 158.867 237.192 158.992 237.542 159.125C237.976 159.292 238.409 159.467 238.842 159.65C239.292 159.833 239.692 160.067 240.042 160.35C240.392 160.617 240.676 160.95 240.892 161.35C241.126 161.75 241.242 162.233 241.242 162.8C241.242 163.3 241.142 163.767 240.942 164.2C240.759 164.633 240.476 165.017 240.092 165.35C239.726 165.683 239.259 165.942 238.692 166.125C238.142 166.325 237.509 166.425 236.792 166.425Z" fill="white"/>
</svg>
