<svg width="351" height="381" viewBox="0 0 351 381" fill="none" xmlns="http://www.w3.org/2000/svg">
<path d="M312.586 325.171C312.586 325.346 312.763 325.346 312.763 325.521C320.552 337.247 320.552 354.223 320.375 368.399" stroke="#485F62" stroke-width="0.9124" stroke-miterlimit="10"/>
<path d="M303.38 317.471C289.749 309.946 268.86 306.795 264.612 292.794" stroke="#485F62" stroke-width="0.9124" stroke-miterlimit="10"/>
<path d="M264.789 281.068C267.267 272.668 275.588 268.643 282.314 263.742C293.467 255.692 302.672 246.066 306.036 233.115" stroke="#485F62" stroke-width="0.9124" stroke-miterlimit="10"/>
<path d="M289.75 167.311C290.458 171.686 291.874 176.062 293.998 180.262C301.256 193.738 307.629 205.989 307.452 221.39" stroke="#485F62" stroke-width="0.9124" stroke-miterlimit="10"/>
<path d="M289.396 155.41C290.635 140.534 298.07 125.483 307.629 113.407" stroke="#485F62" stroke-width="0.9124" stroke-miterlimit="10"/>
<path d="M315.772 104.482C318.25 102.207 320.552 100.107 323.03 98.3569C333.12 91.0064 342.149 79.4557 344.096 67.3799" stroke="#485F62" stroke-width="0.9124" stroke-miterlimit="10"/>
<path d="M309.399 12.7754C311.701 35.7019 327.633 31.8516 338.077 45.1525C340.733 48.4777 342.503 51.978 343.388 55.4782" stroke="#485F62" stroke-width="0.9124" stroke-miterlimit="10"/>
<path d="M309.045 12.7758C312.369 12.7758 315.064 10.1117 315.064 6.82539C315.064 3.53908 312.369 0.875 309.045 0.875C305.721 0.875 303.026 3.53908 303.026 6.82539C303.026 10.1117 305.721 12.7758 309.045 12.7758Z" fill="#485F62" stroke="#485F62" stroke-width="0.9124" stroke-miterlimit="10"/>
<path d="M320.375 380.125C323.699 380.125 326.394 377.461 326.394 374.175C326.394 370.888 323.699 368.224 320.375 368.224C317.051 368.224 314.356 370.888 314.356 374.175C314.356 377.461 317.051 380.125 320.375 380.125Z" stroke="#485F62" stroke-width="0.9124" stroke-miterlimit="10"/>
<path d="M264.019 292.384C267.343 292.384 270.038 289.72 270.038 286.434C270.038 283.147 267.343 280.483 264.019 280.483C260.695 280.483 258 283.147 258 286.434C258 289.72 260.695 292.384 264.019 292.384Z" stroke="#485F62" stroke-width="0.9124" stroke-miterlimit="10"/>
<path d="M306.859 232.705C310.183 232.705 312.877 230.041 312.877 226.755C312.877 223.468 310.183 220.804 306.859 220.804C303.535 220.804 300.84 223.468 300.84 226.755C300.84 230.041 303.535 232.705 306.859 232.705Z" stroke="#485F62" stroke-width="0.9124" stroke-miterlimit="10"/>
<path d="M308.275 326.511C311.599 326.511 314.294 323.847 314.294 320.561C314.294 317.274 311.599 314.61 308.275 314.61C304.951 314.61 302.256 317.274 302.256 320.561C302.256 323.847 304.951 326.511 308.275 326.511Z" stroke="#485F62" stroke-width="0.9124" stroke-miterlimit="10"/>
<path d="M289.333 166.901C292.657 166.901 295.352 164.237 295.352 160.95C295.352 157.664 292.657 155 289.333 155C286.009 155 283.314 157.664 283.314 160.95C283.314 164.237 286.009 166.901 289.333 166.901Z" fill="#485F62" stroke="#485F62" stroke-width="0.9124" stroke-miterlimit="10"/>
<path d="M344.096 67.3793C347.42 67.3793 350.115 64.7152 350.115 61.4289C350.115 58.1426 347.42 55.4785 344.096 55.4785C340.772 55.4785 338.077 58.1426 338.077 61.4289C338.077 64.7152 340.772 67.3793 344.096 67.3793Z" fill="#485F62" stroke="#485F62" stroke-width="0.9124" stroke-miterlimit="10"/>
<path d="M311.7 114.808C315.025 114.808 317.719 112.144 317.719 108.858C317.719 105.571 315.025 102.907 311.7 102.907C308.376 102.907 305.682 105.571 305.682 108.858C305.682 112.144 308.376 114.808 311.7 114.808Z" fill="#485F62" stroke="#485F62" stroke-width="0.9124" stroke-miterlimit="10"/>
<line x1="289.867" y1="161.5" x2="246" y2="161.5" stroke="#485F62"/>
<path d="M66.409 166.3C65.3757 166.3 64.4257 166.108 63.559 165.725C62.6923 165.342 61.934 164.792 61.284 164.075C60.6507 163.342 60.1507 162.45 59.784 161.4C59.434 160.333 59.259 159.133 59.259 157.8C59.259 156.483 59.4423 155.3 59.809 154.25C60.1757 153.2 60.684 152.308 61.334 151.575C61.984 150.842 62.7507 150.283 63.634 149.9C64.5173 149.5 65.484 149.3 66.534 149.3C67.534 149.3 68.409 149.508 69.159 149.925C69.9257 150.325 70.5507 150.792 71.034 151.325L69.909 152.675C69.4757 152.208 68.984 151.833 68.434 151.55C67.884 151.267 67.259 151.125 66.559 151.125C65.7757 151.125 65.0673 151.283 64.434 151.6C63.8007 151.9 63.259 152.342 62.809 152.925C62.359 153.492 62.009 154.183 61.759 155C61.5257 155.817 61.409 156.733 61.409 157.75C61.409 158.783 61.5257 159.717 61.759 160.55C62.009 161.367 62.3507 162.067 62.784 162.65C63.2173 163.233 63.7423 163.683 64.359 164C64.9923 164.317 65.7007 164.475 66.484 164.475C67.284 164.475 67.984 164.317 68.584 164C69.184 163.667 69.7507 163.208 70.284 162.625L71.434 163.925C70.784 164.675 70.0507 165.258 69.234 165.675C68.4173 166.092 67.4757 166.3 66.409 166.3ZM74.2912 166V148.2H76.3412V153.05L76.2662 155.55C76.8495 155 77.4579 154.533 78.0912 154.15C78.7245 153.75 79.4662 153.55 80.3162 153.55C81.5995 153.55 82.5329 153.95 83.1162 154.75C83.7162 155.55 84.0162 156.733 84.0162 158.3V166H81.9662V158.575C81.9662 157.425 81.7829 156.6 81.4162 156.1C81.0495 155.583 80.4662 155.325 79.6662 155.325C79.0329 155.325 78.4745 155.483 77.9912 155.8C77.5079 156.117 76.9579 156.583 76.3412 157.2V166H74.2912ZM91.4398 166.3C90.1398 166.3 89.1898 165.9 88.5898 165.1C88.0065 164.3 87.7148 163.117 87.7148 161.55V153.85H89.7898V161.275C89.7898 162.425 89.9648 163.258 90.3148 163.775C90.6815 164.275 91.2648 164.525 92.0648 164.525C92.6982 164.525 93.2565 164.367 93.7398 164.05C94.2232 163.717 94.7565 163.192 95.3398 162.475V153.85H97.3898V166H95.6898L95.5148 164.1H95.4398C94.8732 164.767 94.2732 165.3 93.6398 165.7C93.0232 166.1 92.2898 166.3 91.4398 166.3ZM105.313 166.3C104.663 166.3 104.113 166.2 103.663 166C103.23 165.8 102.872 165.525 102.588 165.175C102.322 164.825 102.13 164.4 102.013 163.9C101.897 163.4 101.838 162.85 101.838 162.25V155.525H100.038V153.975L101.938 153.85L102.188 150.45H103.913V153.85H107.188V155.525H103.913V162.275C103.913 163.025 104.047 163.608 104.313 164.025C104.597 164.425 105.088 164.625 105.788 164.625C106.005 164.625 106.238 164.592 106.488 164.525C106.738 164.458 106.963 164.383 107.163 164.3L107.563 165.85C107.23 165.967 106.863 166.067 106.463 166.15C106.08 166.25 105.697 166.3 105.313 166.3ZM114.519 166.3C113.702 166.3 112.936 166.158 112.219 165.875C111.519 165.575 110.902 165.158 110.369 164.625C109.852 164.075 109.444 163.408 109.144 162.625C108.844 161.842 108.694 160.95 108.694 159.95C108.694 158.95 108.844 158.058 109.144 157.275C109.461 156.475 109.869 155.8 110.369 155.25C110.886 154.7 111.469 154.283 112.119 154C112.769 153.7 113.444 153.55 114.144 153.55C114.911 153.55 115.594 153.683 116.194 153.95C116.811 154.217 117.319 154.6 117.719 155.1C118.136 155.6 118.452 156.2 118.669 156.9C118.886 157.6 118.994 158.383 118.994 159.25C118.994 159.467 118.986 159.683 118.969 159.9C118.969 160.1 118.952 160.275 118.919 160.425H110.719C110.802 161.725 111.202 162.758 111.919 163.525C112.652 164.275 113.602 164.65 114.769 164.65C115.352 164.65 115.886 164.567 116.369 164.4C116.869 164.217 117.344 163.983 117.794 163.7L118.519 165.05C117.986 165.383 117.394 165.675 116.744 165.925C116.094 166.175 115.352 166.3 114.519 166.3ZM110.694 158.95H117.194C117.194 157.717 116.927 156.783 116.394 156.15C115.877 155.5 115.144 155.175 114.194 155.175C113.761 155.175 113.344 155.258 112.944 155.425C112.561 155.592 112.211 155.842 111.894 156.175C111.577 156.492 111.311 156.883 111.094 157.35C110.894 157.817 110.761 158.35 110.694 158.95ZM131.151 166.3C129.618 166.3 128.393 165.75 127.476 164.65C126.576 163.55 126.126 161.983 126.126 159.95C126.126 158.967 126.268 158.083 126.551 157.3C126.851 156.5 127.243 155.825 127.726 155.275C128.21 154.725 128.768 154.3 129.401 154C130.035 153.7 130.701 153.55 131.401 153.55C132.101 153.55 132.71 153.675 133.226 153.925C133.743 154.175 134.268 154.517 134.801 154.95L134.701 152.875V148.2H136.776V166H135.076L134.901 164.575H134.826C134.343 165.042 133.785 165.45 133.151 165.8C132.535 166.133 131.868 166.3 131.151 166.3ZM131.601 164.575C132.168 164.575 132.701 164.442 133.201 164.175C133.701 163.892 134.201 163.467 134.701 162.9V156.55C134.185 156.083 133.685 155.758 133.201 155.575C132.735 155.375 132.251 155.275 131.751 155.275C131.268 155.275 130.81 155.392 130.376 155.625C129.96 155.842 129.593 156.158 129.276 156.575C128.96 156.975 128.71 157.458 128.526 158.025C128.343 158.592 128.251 159.225 128.251 159.925C128.251 161.392 128.543 162.533 129.126 163.35C129.71 164.167 130.535 164.575 131.601 164.575ZM145.793 166.3C144.977 166.3 144.21 166.158 143.493 165.875C142.793 165.575 142.177 165.158 141.643 164.625C141.127 164.075 140.718 163.408 140.418 162.625C140.118 161.842 139.968 160.95 139.968 159.95C139.968 158.95 140.118 158.058 140.418 157.275C140.735 156.475 141.143 155.8 141.643 155.25C142.16 154.7 142.743 154.283 143.393 154C144.043 153.7 144.718 153.55 145.418 153.55C146.185 153.55 146.868 153.683 147.468 153.95C148.085 154.217 148.593 154.6 148.993 155.1C149.41 155.6 149.727 156.2 149.943 156.9C150.16 157.6 150.268 158.383 150.268 159.25C150.268 159.467 150.26 159.683 150.243 159.9C150.243 160.1 150.227 160.275 150.193 160.425H141.993C142.077 161.725 142.477 162.758 143.193 163.525C143.927 164.275 144.877 164.65 146.043 164.65C146.627 164.65 147.16 164.567 147.643 164.4C148.143 164.217 148.618 163.983 149.068 163.7L149.793 165.05C149.26 165.383 148.668 165.675 148.018 165.925C147.368 166.175 146.627 166.3 145.793 166.3ZM141.968 158.95H148.468C148.468 157.717 148.202 156.783 147.668 156.15C147.152 155.5 146.418 155.175 145.468 155.175C145.035 155.175 144.618 155.258 144.218 155.425C143.835 155.592 143.485 155.842 143.168 156.175C142.852 156.492 142.585 156.883 142.368 157.35C142.168 157.817 142.035 158.35 141.968 158.95ZM161.526 166.3C159.476 166.3 157.967 165.425 157.001 163.675L158.501 162.625C158.867 163.275 159.284 163.75 159.751 164.05C160.217 164.333 160.742 164.475 161.326 164.475C162.209 164.475 162.867 164.208 163.301 163.675C163.734 163.125 163.951 162.225 163.951 160.975V149.6H166.051V161.175C166.051 161.875 165.959 162.542 165.776 163.175C165.609 163.792 165.342 164.333 164.976 164.8C164.626 165.267 164.159 165.633 163.576 165.9C163.009 166.167 162.326 166.3 161.526 166.3ZM173.087 166.3C172.071 166.3 171.221 166 170.537 165.4C169.871 164.8 169.537 163.95 169.537 162.85C169.537 161.517 170.129 160.5 171.312 159.8C172.496 159.083 174.387 158.583 176.987 158.3C176.987 157.917 176.946 157.542 176.862 157.175C176.796 156.808 176.671 156.483 176.487 156.2C176.304 155.917 176.046 155.692 175.712 155.525C175.396 155.342 174.987 155.25 174.487 155.25C173.787 155.25 173.129 155.383 172.512 155.65C171.896 155.917 171.346 156.217 170.862 156.55L170.062 155.125C170.629 154.758 171.321 154.408 172.137 154.075C172.954 153.725 173.854 153.55 174.837 153.55C176.321 153.55 177.396 154.008 178.062 154.925C178.729 155.825 179.062 157.033 179.062 158.55V166H177.362L177.187 164.55H177.112C176.529 165.033 175.904 165.45 175.237 165.8C174.571 166.133 173.854 166.3 173.087 166.3ZM173.687 164.65C174.271 164.65 174.821 164.517 175.337 164.25C175.854 163.967 176.404 163.558 176.987 163.025V159.65C175.971 159.783 175.112 159.942 174.412 160.125C173.729 160.308 173.171 160.525 172.737 160.775C172.321 161.025 172.012 161.317 171.812 161.65C171.629 161.967 171.537 162.317 171.537 162.7C171.537 163.4 171.746 163.9 172.162 164.2C172.579 164.5 173.087 164.65 173.687 164.65ZM187.685 166.3C186.885 166.3 186.135 166.158 185.435 165.875C184.735 165.592 184.127 165.183 183.61 164.65C183.11 164.1 182.71 163.433 182.41 162.65C182.127 161.85 181.985 160.95 181.985 159.95C181.985 158.933 182.143 158.033 182.46 157.25C182.777 156.45 183.202 155.775 183.735 155.225C184.268 154.675 184.885 154.258 185.585 153.975C186.302 153.692 187.052 153.55 187.835 153.55C188.635 153.55 189.318 153.692 189.885 153.975C190.452 154.258 190.952 154.592 191.385 154.975L190.335 156.325C189.985 156.008 189.61 155.75 189.21 155.55C188.827 155.35 188.393 155.25 187.91 155.25C187.36 155.25 186.852 155.367 186.385 155.6C185.918 155.817 185.518 156.133 185.185 156.55C184.852 156.967 184.585 157.467 184.385 158.05C184.202 158.617 184.11 159.25 184.11 159.95C184.11 160.65 184.202 161.283 184.385 161.85C184.568 162.417 184.818 162.908 185.135 163.325C185.468 163.725 185.868 164.042 186.335 164.275C186.802 164.492 187.31 164.6 187.86 164.6C188.427 164.6 188.943 164.483 189.41 164.25C189.893 164 190.327 163.708 190.71 163.375L191.61 164.75C191.06 165.233 190.452 165.617 189.785 165.9C189.118 166.167 188.418 166.3 187.685 166.3ZM201.449 171.125V166.8L201.549 164.6C201.066 165.083 200.508 165.492 199.874 165.825C199.258 166.142 198.599 166.3 197.899 166.3C196.366 166.3 195.141 165.75 194.224 164.65C193.324 163.55 192.874 161.983 192.874 159.95C192.874 158.967 193.016 158.083 193.299 157.3C193.599 156.5 193.991 155.825 194.474 155.275C194.958 154.725 195.516 154.3 196.149 154C196.783 153.7 197.449 153.55 198.149 153.55C198.849 153.55 199.466 153.675 199.999 153.925C200.533 154.158 201.074 154.517 201.624 155H201.674L201.874 153.85H203.524V171.125H201.449ZM198.349 164.575C198.916 164.575 199.449 164.442 199.949 164.175C200.449 163.892 200.949 163.467 201.449 162.9V156.55C200.933 156.083 200.433 155.758 199.949 155.575C199.483 155.375 198.999 155.275 198.499 155.275C198.016 155.275 197.558 155.392 197.124 155.625C196.708 155.842 196.341 156.158 196.024 156.575C195.708 156.975 195.458 157.458 195.274 158.025C195.091 158.592 194.999 159.225 194.999 159.925C194.999 161.392 195.291 162.533 195.874 163.35C196.458 164.167 197.283 164.575 198.349 164.575ZM211.166 166.3C209.866 166.3 208.916 165.9 208.316 165.1C207.733 164.3 207.441 163.117 207.441 161.55V153.85H209.516V161.275C209.516 162.425 209.691 163.258 210.041 163.775C210.408 164.275 210.991 164.525 211.791 164.525C212.425 164.525 212.983 164.367 213.466 164.05C213.95 163.717 214.483 163.192 215.066 162.475V153.85H217.116V166H215.416L215.241 164.1H215.166C214.6 164.767 214 165.3 213.366 165.7C212.75 166.1 212.016 166.3 211.166 166.3ZM226.14 166.3C225.323 166.3 224.557 166.158 223.84 165.875C223.14 165.575 222.523 165.158 221.99 164.625C221.473 164.075 221.065 163.408 220.765 162.625C220.465 161.842 220.315 160.95 220.315 159.95C220.315 158.95 220.465 158.058 220.765 157.275C221.082 156.475 221.49 155.8 221.99 155.25C222.507 154.7 223.09 154.283 223.74 154C224.39 153.7 225.065 153.55 225.765 153.55C226.532 153.55 227.215 153.683 227.815 153.95C228.432 154.217 228.94 154.6 229.34 155.1C229.757 155.6 230.073 156.2 230.29 156.9C230.507 157.6 230.615 158.383 230.615 159.25C230.615 159.467 230.607 159.683 230.59 159.9C230.59 160.1 230.573 160.275 230.54 160.425H222.34C222.423 161.725 222.823 162.758 223.54 163.525C224.273 164.275 225.223 164.65 226.39 164.65C226.973 164.65 227.507 164.567 227.99 164.4C228.49 164.217 228.965 163.983 229.415 163.7L230.14 165.05C229.607 165.383 229.015 165.675 228.365 165.925C227.715 166.175 226.973 166.3 226.14 166.3ZM222.315 158.95H228.815C228.815 157.717 228.548 156.783 228.015 156.15C227.498 155.5 226.765 155.175 225.815 155.175C225.382 155.175 224.965 155.258 224.565 155.425C224.182 155.592 223.832 155.842 223.515 156.175C223.198 156.492 222.932 156.883 222.715 157.35C222.515 157.817 222.382 158.35 222.315 158.95ZM236.792 166.3C235.926 166.3 235.101 166.142 234.317 165.825C233.534 165.508 232.851 165.108 232.267 164.625L233.292 163.25C233.826 163.683 234.367 164.033 234.917 164.3C235.484 164.567 236.134 164.7 236.867 164.7C237.667 164.7 238.267 164.517 238.667 164.15C239.067 163.783 239.267 163.333 239.267 162.8C239.267 162.483 239.184 162.208 239.017 161.975C238.851 161.742 238.634 161.542 238.367 161.375C238.117 161.192 237.826 161.033 237.492 160.9C237.159 160.767 236.826 160.633 236.492 160.5C236.059 160.35 235.626 160.183 235.192 160C234.759 159.8 234.367 159.567 234.017 159.3C233.684 159.017 233.409 158.692 233.192 158.325C232.976 157.958 232.867 157.517 232.867 157C232.867 156.517 232.959 156.067 233.142 155.65C233.342 155.217 233.617 154.85 233.967 154.55C234.334 154.233 234.776 153.992 235.292 153.825C235.809 153.642 236.392 153.55 237.042 153.55C237.809 153.55 238.509 153.683 239.142 153.95C239.792 154.217 240.351 154.542 240.817 154.925L239.842 156.225C239.426 155.908 238.992 155.65 238.542 155.45C238.092 155.25 237.601 155.15 237.067 155.15C236.301 155.15 235.734 155.325 235.367 155.675C235.017 156.025 234.842 156.433 234.842 156.9C234.842 157.183 234.917 157.433 235.067 157.65C235.217 157.85 235.417 158.033 235.667 158.2C235.917 158.35 236.201 158.492 236.517 158.625C236.851 158.742 237.192 158.867 237.542 159C237.976 159.167 238.409 159.342 238.842 159.525C239.292 159.708 239.692 159.942 240.042 160.225C240.392 160.492 240.676 160.825 240.892 161.225C241.126 161.625 241.242 162.108 241.242 162.675C241.242 163.175 241.142 163.642 240.942 164.075C240.759 164.508 240.476 164.892 240.092 165.225C239.726 165.558 239.259 165.817 238.692 166C238.142 166.2 237.509 166.3 236.792 166.3Z" fill="#485F62"/>
</svg>
