<svg width="339" height="381" viewBox="0 0 339 381" fill="none" xmlns="http://www.w3.org/2000/svg">
<path d="M300.586 325.171C300.586 325.346 300.763 325.346 300.763 325.521C308.552 337.247 308.552 354.223 308.375 368.399" stroke="#485F62" stroke-width="0.9124" stroke-miterlimit="10"/>
<path d="M291.38 317.471C277.749 309.946 256.86 306.795 252.612 292.794" stroke="#485F62" stroke-width="0.9124" stroke-miterlimit="10"/>
<path d="M252.789 281.068C255.267 272.668 263.588 268.643 270.314 263.742C281.467 255.692 290.672 246.066 294.036 233.115" stroke="#485F62" stroke-width="0.9124" stroke-miterlimit="10"/>
<path d="M277.75 167.311C278.458 171.686 279.874 176.062 281.998 180.262C289.256 193.738 295.629 205.989 295.452 221.39" stroke="#485F62" stroke-width="0.9124" stroke-miterlimit="10"/>
<path d="M277.396 155.41C278.635 140.534 286.07 125.483 295.629 113.407" stroke="#485F62" stroke-width="0.9124" stroke-miterlimit="10"/>
<path d="M303.772 104.482C306.25 102.207 308.552 100.107 311.03 98.3569C321.12 91.0064 330.149 79.4557 332.096 67.3799" stroke="#485F62" stroke-width="0.9124" stroke-miterlimit="10"/>
<path d="M297.399 12.7754C299.701 35.7019 315.633 31.8516 326.077 45.1525C328.733 48.4777 330.503 51.978 331.388 55.4782" stroke="#485F62" stroke-width="0.9124" stroke-miterlimit="10"/>
<path d="M297.045 12.7758C300.369 12.7758 303.064 10.1117 303.064 6.82539C303.064 3.53908 300.369 0.875 297.045 0.875C293.721 0.875 291.026 3.53908 291.026 6.82539C291.026 10.1117 293.721 12.7758 297.045 12.7758Z" fill="#485F62" stroke="#485F62" stroke-width="0.9124" stroke-miterlimit="10"/>
<path d="M308.375 380.125C311.699 380.125 314.394 377.461 314.394 374.175C314.394 370.888 311.699 368.224 308.375 368.224C305.051 368.224 302.356 370.888 302.356 374.175C302.356 377.461 305.051 380.125 308.375 380.125Z" stroke="#485F62" stroke-width="0.9124" stroke-miterlimit="10"/>
<path d="M252.019 292.384C255.343 292.384 258.038 289.72 258.038 286.434C258.038 283.147 255.343 280.483 252.019 280.483C248.695 280.483 246 283.147 246 286.434C246 289.72 248.695 292.384 252.019 292.384Z" fill="#485F62" stroke="#485F62" stroke-width="0.9124" stroke-miterlimit="10"/>
<path d="M294.859 232.705C298.183 232.705 300.877 230.041 300.877 226.755C300.877 223.468 298.183 220.804 294.859 220.804C291.535 220.804 288.84 223.468 288.84 226.755C288.84 230.041 291.535 232.705 294.859 232.705Z" fill="#485F62" stroke="#485F62" stroke-width="0.9124" stroke-miterlimit="10"/>
<path d="M296.275 326.511C299.599 326.511 302.294 323.847 302.294 320.561C302.294 317.274 299.599 314.61 296.275 314.61C292.951 314.61 290.256 317.274 290.256 320.561C290.256 323.847 292.951 326.511 296.275 326.511Z" fill="#485F62" stroke="#485F62" stroke-width="0.9124" stroke-miterlimit="10"/>
<path d="M277.333 166.901C280.657 166.901 283.352 164.237 283.352 160.95C283.352 157.664 280.657 155 277.333 155C274.009 155 271.314 157.664 271.314 160.95C271.314 164.237 274.009 166.901 277.333 166.901Z" fill="#485F62" stroke="#485F62" stroke-width="0.9124" stroke-miterlimit="10"/>
<path d="M332.096 67.3793C335.42 67.3793 338.115 64.7152 338.115 61.4289C338.115 58.1426 335.42 55.4785 332.096 55.4785C328.772 55.4785 326.077 58.1426 326.077 61.4289C326.077 64.7152 328.772 67.3793 332.096 67.3793Z" fill="#485F62" stroke="#485F62" stroke-width="0.9124" stroke-miterlimit="10"/>
<path d="M299.7 114.808C303.025 114.808 305.719 112.144 305.719 108.858C305.719 105.571 303.025 102.907 299.7 102.907C296.376 102.907 293.682 105.571 293.682 108.858C293.682 112.144 296.376 114.808 299.7 114.808Z" fill="#485F62" stroke="#485F62" stroke-width="0.9124" stroke-miterlimit="10"/>
<line x1="296.867" y1="321.5" x2="253" y2="321.5" stroke="#485F62"/>
<path d="M54.0322 328V311.6H56.1822L62.1072 321.9L63.8822 325.3H63.9822C63.9322 324.467 63.8739 323.608 63.8072 322.725C63.7572 321.825 63.7322 320.942 63.7322 320.075V311.6H65.7072V328H63.5572L57.6072 317.675L55.8322 314.3H55.7322C55.7989 315.133 55.8572 315.983 55.9072 316.85C55.9739 317.7 56.0072 318.558 56.0072 319.425V328H54.0322ZM74.7438 328.3C73.9938 328.3 73.2771 328.158 72.5938 327.875C71.9271 327.592 71.3354 327.183 70.8188 326.65C70.3021 326.1 69.8854 325.433 69.5688 324.65C69.2688 323.85 69.1188 322.95 69.1188 321.95C69.1188 320.933 69.2688 320.033 69.5688 319.25C69.8854 318.45 70.3021 317.775 70.8188 317.225C71.3354 316.675 71.9271 316.258 72.5938 315.975C73.2771 315.692 73.9938 315.55 74.7438 315.55C75.4938 315.55 76.2021 315.692 76.8688 315.975C77.5521 316.258 78.1521 316.675 78.6688 317.225C79.1854 317.775 79.5938 318.45 79.8938 319.25C80.2104 320.033 80.3688 320.933 80.3688 321.95C80.3688 322.95 80.2104 323.85 79.8938 324.65C79.5938 325.433 79.1854 326.1 78.6688 326.65C78.1521 327.183 77.5521 327.592 76.8688 327.875C76.2021 328.158 75.4938 328.3 74.7438 328.3ZM74.7438 326.6C75.2604 326.6 75.7354 326.492 76.1688 326.275C76.6021 326.042 76.9688 325.725 77.2688 325.325C77.5854 324.908 77.8271 324.417 77.9938 323.85C78.1604 323.283 78.2438 322.65 78.2438 321.95C78.2438 321.25 78.1604 320.617 77.9938 320.05C77.8271 319.467 77.5854 318.967 77.2688 318.55C76.9688 318.133 76.6021 317.817 76.1688 317.6C75.7354 317.367 75.2604 317.25 74.7438 317.25C74.2271 317.25 73.7521 317.367 73.3188 317.6C72.8854 317.817 72.5104 318.133 72.1938 318.55C71.8938 318.967 71.6604 319.467 71.4938 320.05C71.3271 320.617 71.2438 321.25 71.2438 321.95C71.2438 322.65 71.3271 323.283 71.4938 323.85C71.6604 324.417 71.8938 324.908 72.1938 325.325C72.5104 325.725 72.8854 326.042 73.3188 326.275C73.7521 326.492 74.2271 326.6 74.7438 326.6ZM86.9785 328.3C86.3285 328.3 85.7785 328.2 85.3285 328C84.8952 327.8 84.5368 327.525 84.2535 327.175C83.9868 326.825 83.7952 326.4 83.6785 325.9C83.5618 325.4 83.5035 324.85 83.5035 324.25V317.525H81.7035V315.975L83.6035 315.85L83.8535 312.45H85.5785V315.85H88.8535V317.525H85.5785V324.275C85.5785 325.025 85.7118 325.608 85.9785 326.025C86.2618 326.425 86.7535 326.625 87.4535 326.625C87.6702 326.625 87.9035 326.592 88.1535 326.525C88.4035 326.458 88.6285 326.383 88.8285 326.3L89.2285 327.85C88.8952 327.967 88.5285 328.067 88.1285 328.15C87.7452 328.25 87.3618 328.3 86.9785 328.3ZM91.6008 328V315.85H93.3008L93.4758 318.05H93.5508C93.9674 317.283 94.4674 316.675 95.0508 316.225C95.6508 315.775 96.3008 315.55 97.0008 315.55C97.4841 315.55 97.9174 315.633 98.3008 315.8L97.9008 317.6C97.7008 317.533 97.5174 317.483 97.3508 317.45C97.1841 317.417 96.9758 317.4 96.7258 317.4C96.2091 317.4 95.6674 317.608 95.1008 318.025C94.5508 318.442 94.0674 319.167 93.6508 320.2V328H91.6008ZM104.949 328.3C104.132 328.3 103.365 328.158 102.649 327.875C101.949 327.575 101.332 327.158 100.799 326.625C100.282 326.075 99.8736 325.408 99.5736 324.625C99.2736 323.842 99.1236 322.95 99.1236 321.95C99.1236 320.95 99.2736 320.058 99.5736 319.275C99.8903 318.475 100.299 317.8 100.799 317.25C101.315 316.7 101.899 316.283 102.549 316C103.199 315.7 103.874 315.55 104.574 315.55C105.34 315.55 106.024 315.683 106.624 315.95C107.24 316.217 107.749 316.6 108.149 317.1C108.565 317.6 108.882 318.2 109.099 318.9C109.315 319.6 109.424 320.383 109.424 321.25C109.424 321.467 109.415 321.683 109.399 321.9C109.399 322.1 109.382 322.275 109.349 322.425H101.149C101.232 323.725 101.632 324.758 102.349 325.525C103.082 326.275 104.032 326.65 105.199 326.65C105.782 326.65 106.315 326.567 106.799 326.4C107.299 326.217 107.774 325.983 108.224 325.7L108.949 327.05C108.415 327.383 107.824 327.675 107.174 327.925C106.524 328.175 105.782 328.3 104.949 328.3ZM101.124 320.95H107.624C107.624 319.717 107.357 318.783 106.824 318.15C106.307 317.5 105.574 317.175 104.624 317.175C104.19 317.175 103.774 317.258 103.374 317.425C102.99 317.592 102.64 317.842 102.324 318.175C102.007 318.492 101.74 318.883 101.524 319.35C101.324 319.817 101.19 320.35 101.124 320.95ZM120.231 328.3C119.214 328.3 118.364 328 117.681 327.4C117.014 326.8 116.681 325.95 116.681 324.85C116.681 323.517 117.273 322.5 118.456 321.8C119.639 321.083 121.531 320.583 124.131 320.3C124.131 319.917 124.089 319.542 124.006 319.175C123.939 318.808 123.814 318.483 123.631 318.2C123.448 317.917 123.189 317.692 122.856 317.525C122.539 317.342 122.131 317.25 121.631 317.25C120.931 317.25 120.273 317.383 119.656 317.65C119.039 317.917 118.489 318.217 118.006 318.55L117.206 317.125C117.773 316.758 118.464 316.408 119.281 316.075C120.098 315.725 120.998 315.55 121.981 315.55C123.464 315.55 124.539 316.008 125.206 316.925C125.873 317.825 126.206 319.033 126.206 320.55V328H124.506L124.331 326.55H124.256C123.673 327.033 123.048 327.45 122.381 327.8C121.714 328.133 120.998 328.3 120.231 328.3ZM120.831 326.65C121.414 326.65 121.964 326.517 122.481 326.25C122.998 325.967 123.548 325.558 124.131 325.025V321.65C123.114 321.783 122.256 321.942 121.556 322.125C120.873 322.308 120.314 322.525 119.881 322.775C119.464 323.025 119.156 323.317 118.956 323.65C118.773 323.967 118.681 324.317 118.681 324.7C118.681 325.4 118.889 325.9 119.306 326.2C119.723 326.5 120.231 326.65 120.831 326.65ZM130.029 328V315.85H131.729L131.904 317.6H131.979C132.512 317.017 133.087 316.533 133.704 316.15C134.337 315.75 135.02 315.55 135.754 315.55C136.687 315.55 137.412 315.758 137.929 316.175C138.462 316.575 138.854 317.142 139.104 317.875C139.737 317.175 140.37 316.617 141.004 316.2C141.654 315.767 142.354 315.55 143.104 315.55C144.354 315.55 145.279 315.95 145.879 316.75C146.495 317.55 146.804 318.733 146.804 320.3V328H144.754V320.575C144.754 319.425 144.57 318.6 144.204 318.1C143.837 317.583 143.27 317.325 142.504 317.325C141.587 317.325 140.57 317.95 139.454 319.2V328H137.404V320.575C137.404 319.425 137.22 318.6 136.854 318.1C136.487 317.583 135.912 317.325 135.129 317.325C134.212 317.325 133.195 317.95 132.079 319.2V328H130.029ZM150.756 328V315.85H152.806V328H150.756ZM151.806 313.35C151.406 313.35 151.064 313.225 150.781 312.975C150.514 312.725 150.381 312.408 150.381 312.025C150.381 311.625 150.514 311.308 150.781 311.075C151.064 310.825 151.406 310.7 151.806 310.7C152.206 310.7 152.539 310.825 152.806 311.075C153.089 311.308 153.231 311.625 153.231 312.025C153.231 312.408 153.089 312.725 152.806 312.975C152.539 313.225 152.206 313.35 151.806 313.35ZM166.663 328.3C165.513 328.3 164.447 328.083 163.463 327.65C162.48 327.217 161.63 326.625 160.913 325.875L162.163 324.425C162.747 325.042 163.43 325.542 164.213 325.925C165.013 326.292 165.838 326.475 166.688 326.475C167.772 326.475 168.613 326.233 169.213 325.75C169.813 325.25 170.113 324.6 170.113 323.8C170.113 323.383 170.038 323.033 169.888 322.75C169.755 322.45 169.563 322.2 169.313 322C169.08 321.783 168.797 321.592 168.463 321.425C168.13 321.258 167.772 321.083 167.388 320.9L165.038 319.875C164.655 319.708 164.263 319.508 163.863 319.275C163.463 319.042 163.105 318.758 162.788 318.425C162.472 318.092 162.213 317.7 162.013 317.25C161.813 316.783 161.713 316.25 161.713 315.65C161.713 315.033 161.838 314.458 162.088 313.925C162.355 313.392 162.713 312.933 163.163 312.55C163.63 312.15 164.172 311.842 164.788 311.625C165.422 311.408 166.113 311.3 166.863 311.3C167.847 311.3 168.755 311.492 169.588 311.875C170.422 312.242 171.13 312.725 171.713 313.325L170.588 314.675C170.088 314.192 169.53 313.817 168.913 313.55C168.313 313.267 167.63 313.125 166.863 313.125C165.947 313.125 165.205 313.342 164.638 313.775C164.088 314.192 163.813 314.775 163.813 315.525C163.813 315.925 163.888 316.267 164.038 316.55C164.205 316.817 164.422 317.058 164.688 317.275C164.955 317.475 165.247 317.658 165.563 317.825C165.88 317.975 166.205 318.117 166.538 318.25L168.863 319.25C169.33 319.45 169.772 319.683 170.188 319.95C170.605 320.2 170.963 320.5 171.263 320.85C171.563 321.183 171.797 321.583 171.963 322.05C172.147 322.5 172.238 323.025 172.238 323.625C172.238 324.275 172.105 324.883 171.838 325.45C171.588 326.017 171.222 326.517 170.738 326.95C170.255 327.367 169.672 327.7 168.988 327.95C168.305 328.183 167.53 328.3 166.663 328.3ZM178.482 328.3C177.832 328.3 177.282 328.2 176.832 328C176.399 327.8 176.041 327.525 175.757 327.175C175.491 326.825 175.299 326.4 175.182 325.9C175.066 325.4 175.007 324.85 175.007 324.25V317.525H173.207V315.975L175.107 315.85L175.357 312.45H177.082V315.85H180.357V317.525H177.082V324.275C177.082 325.025 177.216 325.608 177.482 326.025C177.766 326.425 178.257 326.625 178.957 326.625C179.174 326.625 179.407 326.592 179.657 326.525C179.907 326.458 180.132 326.383 180.332 326.3L180.732 327.85C180.399 327.967 180.032 328.067 179.632 328.15C179.249 328.25 178.866 328.3 178.482 328.3ZM187.488 328.3C186.738 328.3 186.021 328.158 185.338 327.875C184.671 327.592 184.08 327.183 183.563 326.65C183.046 326.1 182.63 325.433 182.313 324.65C182.013 323.85 181.863 322.95 181.863 321.95C181.863 320.933 182.013 320.033 182.313 319.25C182.63 318.45 183.046 317.775 183.563 317.225C184.08 316.675 184.671 316.258 185.338 315.975C186.021 315.692 186.738 315.55 187.488 315.55C188.238 315.55 188.946 315.692 189.613 315.975C190.296 316.258 190.896 316.675 191.413 317.225C191.93 317.775 192.338 318.45 192.638 319.25C192.955 320.033 193.113 320.933 193.113 321.95C193.113 322.95 192.955 323.85 192.638 324.65C192.338 325.433 191.93 326.1 191.413 326.65C190.896 327.183 190.296 327.592 189.613 327.875C188.946 328.158 188.238 328.3 187.488 328.3ZM187.488 326.6C188.005 326.6 188.48 326.492 188.913 326.275C189.346 326.042 189.713 325.725 190.013 325.325C190.33 324.908 190.571 324.417 190.738 323.85C190.905 323.283 190.988 322.65 190.988 321.95C190.988 321.25 190.905 320.617 190.738 320.05C190.571 319.467 190.33 318.967 190.013 318.55C189.713 318.133 189.346 317.817 188.913 317.6C188.48 317.367 188.005 317.25 187.488 317.25C186.971 317.25 186.496 317.367 186.063 317.6C185.63 317.817 185.255 318.133 184.938 318.55C184.638 318.967 184.405 319.467 184.238 320.05C184.071 320.617 183.988 321.25 183.988 321.95C183.988 322.65 184.071 323.283 184.238 323.85C184.405 324.417 184.638 324.908 184.938 325.325C185.255 325.725 185.63 326.042 186.063 326.275C186.496 326.492 186.971 326.6 187.488 326.6ZM201.688 328.3C201.121 328.3 200.529 328.167 199.913 327.9C199.313 327.617 198.746 327.233 198.213 326.75H198.138L197.963 328H196.313V310.2H198.363V315.05L198.313 317.25C198.863 316.767 199.463 316.367 200.113 316.05C200.763 315.717 201.429 315.55 202.113 315.55C202.896 315.55 203.588 315.7 204.188 316C204.788 316.283 205.288 316.7 205.688 317.25C206.104 317.783 206.413 318.433 206.613 319.2C206.829 319.95 206.938 320.792 206.938 321.725C206.938 322.758 206.796 323.683 206.513 324.5C206.229 325.317 205.846 326.008 205.363 326.575C204.879 327.142 204.321 327.575 203.688 327.875C203.054 328.158 202.388 328.3 201.688 328.3ZM201.338 326.575C201.838 326.575 202.296 326.467 202.713 326.25C203.146 326.017 203.513 325.7 203.813 325.3C204.129 324.883 204.371 324.375 204.538 323.775C204.721 323.175 204.813 322.5 204.813 321.75C204.813 321.083 204.754 320.475 204.638 319.925C204.521 319.375 204.329 318.908 204.063 318.525C203.813 318.125 203.479 317.817 203.063 317.6C202.663 317.383 202.179 317.275 201.613 317.275C200.629 317.275 199.546 317.825 198.363 318.925V325.3C198.896 325.767 199.421 326.1 199.938 326.3C200.471 326.483 200.938 326.575 201.338 326.575ZM214.281 328.3C212.748 328.3 211.523 327.75 210.606 326.65C209.706 325.55 209.256 323.983 209.256 321.95C209.256 320.967 209.398 320.083 209.681 319.3C209.981 318.5 210.373 317.825 210.856 317.275C211.339 316.725 211.898 316.3 212.531 316C213.164 315.7 213.831 315.55 214.531 315.55C215.231 315.55 215.839 315.675 216.356 315.925C216.873 316.175 217.398 316.517 217.931 316.95L217.831 314.875V310.2H219.906V328H218.206L218.031 326.575H217.956C217.473 327.042 216.914 327.45 216.281 327.8C215.664 328.133 214.998 328.3 214.281 328.3ZM214.731 326.575C215.298 326.575 215.831 326.442 216.331 326.175C216.831 325.892 217.331 325.467 217.831 324.9V318.55C217.314 318.083 216.814 317.758 216.331 317.575C215.864 317.375 215.381 317.275 214.881 317.275C214.398 317.275 213.939 317.392 213.506 317.625C213.089 317.842 212.723 318.158 212.406 318.575C212.089 318.975 211.839 319.458 211.656 320.025C211.473 320.592 211.381 321.225 211.381 321.925C211.381 323.392 211.673 324.533 212.256 325.35C212.839 326.167 213.664 326.575 214.731 326.575ZM226.798 328.3C225.782 328.3 224.932 328 224.248 327.4C223.582 326.8 223.248 325.95 223.248 324.85C223.248 323.517 223.84 322.5 225.023 321.8C226.207 321.083 228.098 320.583 230.698 320.3C230.698 319.917 230.657 319.542 230.573 319.175C230.507 318.808 230.382 318.483 230.198 318.2C230.015 317.917 229.757 317.692 229.423 317.525C229.107 317.342 228.698 317.25 228.198 317.25C227.498 317.25 226.84 317.383 226.223 317.65C225.607 317.917 225.057 318.217 224.573 318.55L223.773 317.125C224.34 316.758 225.032 316.408 225.848 316.075C226.665 315.725 227.565 315.55 228.548 315.55C230.032 315.55 231.107 316.008 231.773 316.925C232.44 317.825 232.773 319.033 232.773 320.55V328H231.073L230.898 326.55H230.823C230.24 327.033 229.615 327.45 228.948 327.8C228.282 328.133 227.565 328.3 226.798 328.3ZM227.398 326.65C227.982 326.65 228.532 326.517 229.048 326.25C229.565 325.967 230.115 325.558 230.698 325.025V321.65C229.682 321.783 228.823 321.942 228.123 322.125C227.44 322.308 226.882 322.525 226.448 322.775C226.032 323.025 225.723 323.317 225.523 323.65C225.34 323.967 225.248 324.317 225.248 324.7C225.248 325.4 225.457 325.9 225.873 326.2C226.29 326.5 226.798 326.65 227.398 326.65ZM236.596 328V315.85H238.296L238.471 317.6H238.546C239.129 317.017 239.738 316.533 240.371 316.15C241.021 315.75 241.771 315.55 242.621 315.55C243.904 315.55 244.838 315.95 245.421 316.75C246.021 317.55 246.321 318.733 246.321 320.3V328H244.271V320.575C244.271 319.425 244.088 318.6 243.721 318.1C243.354 317.583 242.771 317.325 241.971 317.325C241.338 317.325 240.779 317.483 240.296 317.8C239.813 318.117 239.263 318.583 238.646 319.2V328H236.596Z" fill="#485F62"/>
</svg>
