<svg width="349" height="381" viewBox="0 0 349 381" fill="none" xmlns="http://www.w3.org/2000/svg">
<path d="M310.586 325.171C310.586 325.346 310.763 325.346 310.763 325.521C318.552 337.247 318.552 354.223 318.375 368.399" stroke="#485F62" stroke-width="0.9124" stroke-miterlimit="10"/>
<path d="M301.38 317.471C287.749 309.946 266.86 306.795 262.612 292.794" stroke="#485F62" stroke-width="0.9124" stroke-miterlimit="10"/>
<path d="M262.789 281.068C265.267 272.668 273.588 268.643 280.314 263.742C291.467 255.692 300.672 246.066 304.036 233.115" stroke="#485F62" stroke-width="0.9124" stroke-miterlimit="10"/>
<path d="M287.75 167.311C288.458 171.686 289.874 176.062 291.998 180.262C299.256 193.738 305.629 205.989 305.452 221.39" stroke="#485F62" stroke-width="0.9124" stroke-miterlimit="10"/>
<path d="M287.396 155.41C288.635 140.534 296.07 125.483 305.629 113.407" stroke="#485F62" stroke-width="0.9124" stroke-miterlimit="10"/>
<path d="M313.772 104.482C316.25 102.207 318.552 100.107 321.03 98.3569C331.12 91.0064 340.149 79.4557 342.096 67.3799" stroke="#485F62" stroke-width="0.9124" stroke-miterlimit="10"/>
<path d="M307.399 12.7754C309.701 35.7019 325.633 31.8516 336.077 45.1525C338.733 48.4777 340.503 51.978 341.388 55.4782" stroke="#485F62" stroke-width="0.9124" stroke-miterlimit="10"/>
<path d="M307.045 12.7758C310.369 12.7758 313.064 10.1117 313.064 6.82539C313.064 3.53908 310.369 0.875 307.045 0.875C303.721 0.875 301.026 3.53908 301.026 6.82539C301.026 10.1117 303.721 12.7758 307.045 12.7758Z" fill="#485F62" stroke="#485F62" stroke-width="0.9124" stroke-miterlimit="10"/>
<path d="M318.375 380.125C321.699 380.125 324.394 377.461 324.394 374.175C324.394 370.888 321.699 368.224 318.375 368.224C315.051 368.224 312.356 370.888 312.356 374.175C312.356 377.461 315.051 380.125 318.375 380.125Z" stroke="#485F62" stroke-width="0.9124" stroke-miterlimit="10"/>
<path d="M262.019 292.384C265.343 292.384 268.038 289.72 268.038 286.434C268.038 283.147 265.343 280.483 262.019 280.483C258.695 280.483 256 283.147 256 286.434C256 289.72 258.695 292.384 262.019 292.384Z" stroke="#485F62" stroke-width="0.9124" stroke-miterlimit="10"/>
<path d="M304.859 232.705C308.183 232.705 310.877 230.041 310.877 226.755C310.877 223.468 308.183 220.804 304.859 220.804C301.535 220.804 298.84 223.468 298.84 226.755C298.84 230.041 301.535 232.705 304.859 232.705Z" stroke="#485F62" stroke-width="0.9124" stroke-miterlimit="10"/>
<path d="M306.275 326.511C309.599 326.511 312.294 323.847 312.294 320.561C312.294 317.274 309.599 314.61 306.275 314.61C302.951 314.61 300.256 317.274 300.256 320.561C300.256 323.847 302.951 326.511 306.275 326.511Z" stroke="#485F62" stroke-width="0.9124" stroke-miterlimit="10"/>
<path d="M287.333 166.901C290.657 166.901 293.352 164.237 293.352 160.95C293.352 157.664 290.657 155 287.333 155C284.009 155 281.314 157.664 281.314 160.95C281.314 164.237 284.009 166.901 287.333 166.901Z" stroke="#485F62" stroke-width="0.9124" stroke-miterlimit="10"/>
<path d="M342.096 67.3793C345.42 67.3793 348.115 64.7152 348.115 61.4289C348.115 58.1426 345.42 55.4785 342.096 55.4785C338.772 55.4785 336.077 58.1426 336.077 61.4289C336.077 64.7152 338.772 67.3793 342.096 67.3793Z" fill="#485F62" stroke="#485F62" stroke-width="0.9124" stroke-miterlimit="10"/>
<path d="M309.7 114.808C313.025 114.808 315.719 112.144 315.719 108.858C315.719 105.571 313.025 102.907 309.7 102.907C306.376 102.907 303.682 105.571 303.682 108.858C303.682 112.144 306.376 114.808 309.7 114.808Z" fill="#485F62" stroke="#485F62" stroke-width="0.9124" stroke-miterlimit="10"/>
<line x1="309.867" y1="109.5" x2="266" y2="109.5" stroke="#485F62"/>
<path d="M41.8374 113V96.6H45.9374C48.4707 96.6 50.3957 97.3 51.7124 98.7C53.0291 100.1 53.6874 102.108 53.6874 104.725C53.6874 106.025 53.5207 107.192 53.1874 108.225C52.8541 109.242 52.3624 110.108 51.7124 110.825C51.0624 111.525 50.2624 112.067 49.3124 112.45C48.3624 112.817 47.2707 113 46.0374 113H41.8374ZM43.9124 111.3H45.7874C47.7041 111.3 49.1374 110.725 50.0874 109.575C51.0541 108.425 51.5374 106.808 51.5374 104.725C51.5374 102.642 51.0541 101.05 50.0874 99.95C49.1374 98.85 47.7041 98.3 45.7874 98.3H43.9124V111.3ZM61.9433 113.3C61.1266 113.3 60.3599 113.158 59.6433 112.875C58.9433 112.575 58.3266 112.158 57.7933 111.625C57.2766 111.075 56.8683 110.408 56.5683 109.625C56.2683 108.842 56.1183 107.95 56.1183 106.95C56.1183 105.95 56.2683 105.058 56.5683 104.275C56.8849 103.475 57.2933 102.8 57.7933 102.25C58.3099 101.7 58.8933 101.283 59.5433 101C60.1933 100.7 60.8683 100.55 61.5683 100.55C62.3349 100.55 63.0183 100.683 63.6183 100.95C64.2349 101.217 64.7433 101.6 65.1433 102.1C65.5599 102.6 65.8766 103.2 66.0933 103.9C66.3099 104.6 66.4183 105.383 66.4183 106.25C66.4183 106.467 66.4099 106.683 66.3933 106.9C66.3933 107.1 66.3766 107.275 66.3433 107.425H58.1433C58.2266 108.725 58.6266 109.758 59.3433 110.525C60.0766 111.275 61.0266 111.65 62.1933 111.65C62.7766 111.65 63.3099 111.567 63.7933 111.4C64.2933 111.217 64.7683 110.983 65.2183 110.7L65.9433 112.05C65.4099 112.383 64.8183 112.675 64.1683 112.925C63.5183 113.175 62.7766 113.3 61.9433 113.3ZM58.1183 105.95H64.6183C64.6183 104.717 64.3516 103.783 63.8183 103.15C63.3016 102.5 62.5683 102.175 61.6183 102.175C61.1849 102.175 60.7683 102.258 60.3683 102.425C59.9849 102.592 59.6349 102.842 59.3183 103.175C59.0016 103.492 58.7349 103.883 58.5183 104.35C58.3183 104.817 58.1849 105.35 58.1183 105.95ZM61.2433 98.675L60.1933 97.65L63.7183 93.475L65.1683 94.85L61.2433 98.675ZM74.7956 113.3C74.2289 113.3 73.6373 113.167 73.0206 112.9C72.4206 112.617 71.8539 112.233 71.3206 111.75H71.2456L71.0706 113H69.4206V95.2H71.4706V100.05L71.4206 102.25C71.9706 101.767 72.5706 101.367 73.2206 101.05C73.8706 100.717 74.5373 100.55 75.2206 100.55C76.0039 100.55 76.6956 100.7 77.2956 101C77.8956 101.283 78.3956 101.7 78.7956 102.25C79.2123 102.783 79.5206 103.433 79.7206 104.2C79.9373 104.95 80.0456 105.792 80.0456 106.725C80.0456 107.758 79.9039 108.683 79.6206 109.5C79.3373 110.317 78.9539 111.008 78.4706 111.575C77.9873 112.142 77.4289 112.575 76.7956 112.875C76.1623 113.158 75.4956 113.3 74.7956 113.3ZM74.4456 111.575C74.9456 111.575 75.4039 111.467 75.8206 111.25C76.2539 111.017 76.6206 110.7 76.9206 110.3C77.2373 109.883 77.4789 109.375 77.6456 108.775C77.8289 108.175 77.9206 107.5 77.9206 106.75C77.9206 106.083 77.8623 105.475 77.7456 104.925C77.6289 104.375 77.4373 103.908 77.1706 103.525C76.9206 103.125 76.5873 102.817 76.1706 102.6C75.7706 102.383 75.2873 102.275 74.7206 102.275C73.7373 102.275 72.6539 102.825 71.4706 103.925V110.3C72.0039 110.767 72.5289 111.1 73.0456 111.3C73.5789 111.483 74.0456 111.575 74.4456 111.575ZM86.789 113.3C85.489 113.3 84.539 112.9 83.939 112.1C83.3556 111.3 83.064 110.117 83.064 108.55V100.85H85.139V108.275C85.139 109.425 85.314 110.258 85.664 110.775C86.0306 111.275 86.614 111.525 87.414 111.525C88.0473 111.525 88.6056 111.367 89.089 111.05C89.5723 110.717 90.1056 110.192 90.689 109.475V100.85H92.739V113H91.039L90.864 111.1H90.789C90.2223 111.767 89.6223 112.3 88.989 112.7C88.3723 113.1 87.639 113.3 86.789 113.3ZM100.663 113.3C100.013 113.3 99.4626 113.2 99.0126 113C98.5793 112.8 98.2209 112.525 97.9376 112.175C97.6709 111.825 97.4793 111.4 97.3626 110.9C97.2459 110.4 97.1876 109.85 97.1876 109.25V102.525H95.3876V100.975L97.2876 100.85L97.5376 97.45H99.2626V100.85H102.538V102.525H99.2626V109.275C99.2626 110.025 99.3959 110.608 99.6626 111.025C99.9459 111.425 100.438 111.625 101.138 111.625C101.354 111.625 101.588 111.592 101.838 111.525C102.088 111.458 102.313 111.383 102.513 111.3L102.913 112.85C102.579 112.967 102.213 113.067 101.813 113.15C101.429 113.25 101.046 113.3 100.663 113.3ZM114.44 113.3C112.906 113.3 111.681 112.75 110.765 111.65C109.865 110.55 109.415 108.983 109.415 106.95C109.415 105.967 109.556 105.083 109.84 104.3C110.14 103.5 110.531 102.825 111.015 102.275C111.498 101.725 112.056 101.3 112.69 101C113.323 100.7 113.99 100.55 114.69 100.55C115.39 100.55 115.998 100.675 116.515 100.925C117.031 101.175 117.556 101.517 118.09 101.95L117.99 99.875V95.2H120.065V113H118.365L118.19 111.575H118.115C117.631 112.042 117.073 112.45 116.44 112.8C115.823 113.133 115.156 113.3 114.44 113.3ZM114.89 111.575C115.456 111.575 115.99 111.442 116.49 111.175C116.99 110.892 117.49 110.467 117.99 109.9V103.55C117.473 103.083 116.973 102.758 116.49 102.575C116.023 102.375 115.54 102.275 115.04 102.275C114.556 102.275 114.098 102.392 113.665 102.625C113.248 102.842 112.881 103.158 112.565 103.575C112.248 103.975 111.998 104.458 111.815 105.025C111.631 105.592 111.54 106.225 111.54 106.925C111.54 108.392 111.831 109.533 112.415 110.35C112.998 111.167 113.823 111.575 114.89 111.575ZM129.082 113.3C128.265 113.3 127.499 113.158 126.782 112.875C126.082 112.575 125.465 112.158 124.932 111.625C124.415 111.075 124.007 110.408 123.707 109.625C123.407 108.842 123.257 107.95 123.257 106.95C123.257 105.95 123.407 105.058 123.707 104.275C124.024 103.475 124.432 102.8 124.932 102.25C125.449 101.7 126.032 101.283 126.682 101C127.332 100.7 128.007 100.55 128.707 100.55C129.474 100.55 130.157 100.683 130.757 100.95C131.374 101.217 131.882 101.6 132.282 102.1C132.699 102.6 133.015 103.2 133.232 103.9C133.449 104.6 133.557 105.383 133.557 106.25C133.557 106.467 133.549 106.683 133.532 106.9C133.532 107.1 133.515 107.275 133.482 107.425H125.282C125.365 108.725 125.765 109.758 126.482 110.525C127.215 111.275 128.165 111.65 129.332 111.65C129.915 111.65 130.449 111.567 130.932 111.4C131.432 111.217 131.907 110.983 132.357 110.7L133.082 112.05C132.549 112.383 131.957 112.675 131.307 112.925C130.657 113.175 129.915 113.3 129.082 113.3ZM125.257 105.95H131.757C131.757 104.717 131.49 103.783 130.957 103.15C130.44 102.5 129.707 102.175 128.757 102.175C128.324 102.175 127.907 102.258 127.507 102.425C127.124 102.592 126.774 102.842 126.457 103.175C126.14 103.492 125.874 103.883 125.657 104.35C125.457 104.817 125.324 105.35 125.257 105.95ZM143.739 113.3C142.956 113.3 142.397 113.067 142.064 112.6C141.731 112.133 141.564 111.45 141.564 110.55V95.2H143.614V110.7C143.614 111.033 143.672 111.267 143.789 111.4C143.906 111.533 144.039 111.6 144.189 111.6C144.256 111.6 144.314 111.6 144.364 111.6C144.431 111.6 144.522 111.583 144.639 111.55L144.914 113.1C144.781 113.167 144.622 113.217 144.439 113.25C144.256 113.283 144.022 113.3 143.739 113.3ZM150.736 113.3C149.72 113.3 148.87 113 148.186 112.4C147.52 111.8 147.186 110.95 147.186 109.85C147.186 108.517 147.778 107.5 148.961 106.8C150.145 106.083 152.036 105.583 154.636 105.3C154.636 104.917 154.595 104.542 154.511 104.175C154.445 103.808 154.32 103.483 154.136 103.2C153.953 102.917 153.695 102.692 153.361 102.525C153.045 102.342 152.636 102.25 152.136 102.25C151.436 102.25 150.778 102.383 150.161 102.65C149.545 102.917 148.995 103.217 148.511 103.55L147.711 102.125C148.278 101.758 148.97 101.408 149.786 101.075C150.603 100.725 151.503 100.55 152.486 100.55C153.97 100.55 155.045 101.008 155.711 101.925C156.378 102.825 156.711 104.033 156.711 105.55V113H155.011L154.836 111.55H154.761C154.178 112.033 153.553 112.45 152.886 112.8C152.22 113.133 151.503 113.3 150.736 113.3ZM151.336 111.65C151.92 111.65 152.47 111.517 152.986 111.25C153.503 110.967 154.053 110.558 154.636 110.025V106.65C153.62 106.783 152.761 106.942 152.061 107.125C151.378 107.308 150.82 107.525 150.386 107.775C149.97 108.025 149.661 108.317 149.461 108.65C149.278 108.967 149.186 109.317 149.186 109.7C149.186 110.4 149.395 110.9 149.811 111.2C150.228 111.5 150.736 111.65 151.336 111.65ZM169.364 113.3C168.714 113.3 168.164 113.2 167.714 113C167.28 112.8 166.922 112.525 166.639 112.175C166.372 111.825 166.18 111.4 166.064 110.9C165.947 110.4 165.889 109.85 165.889 109.25V102.525H164.089V100.975L165.989 100.85L166.239 97.45H167.964V100.85H171.239V102.525H167.964V109.275C167.964 110.025 168.097 110.608 168.364 111.025C168.647 111.425 169.139 111.625 169.839 111.625C170.055 111.625 170.289 111.592 170.539 111.525C170.789 111.458 171.014 111.383 171.214 111.3L171.614 112.85C171.28 112.967 170.914 113.067 170.514 113.15C170.13 113.25 169.747 113.3 169.364 113.3ZM173.986 113V100.85H175.686L175.861 103.05H175.936C176.353 102.283 176.853 101.675 177.436 101.225C178.036 100.775 178.686 100.55 179.386 100.55C179.869 100.55 180.303 100.633 180.686 100.8L180.286 102.6C180.086 102.533 179.903 102.483 179.736 102.45C179.569 102.417 179.361 102.4 179.111 102.4C178.594 102.4 178.053 102.608 177.486 103.025C176.936 103.442 176.453 104.167 176.036 105.2V113H173.986ZM184.843 113.3C183.826 113.3 182.976 113 182.293 112.4C181.626 111.8 181.293 110.95 181.293 109.85C181.293 108.517 181.884 107.5 183.068 106.8C184.251 106.083 186.143 105.583 188.743 105.3C188.743 104.917 188.701 104.542 188.618 104.175C188.551 103.808 188.426 103.483 188.243 103.2C188.059 102.917 187.801 102.692 187.468 102.525C187.151 102.342 186.743 102.25 186.243 102.25C185.543 102.25 184.884 102.383 184.268 102.65C183.651 102.917 183.101 103.217 182.618 103.55L181.818 102.125C182.384 101.758 183.076 101.408 183.893 101.075C184.709 100.725 185.609 100.55 186.593 100.55C188.076 100.55 189.151 101.008 189.818 101.925C190.484 102.825 190.818 104.033 190.818 105.55V113H189.118L188.943 111.55H188.868C188.284 112.033 187.659 112.45 186.993 112.8C186.326 113.133 185.609 113.3 184.843 113.3ZM185.443 111.65C186.026 111.65 186.576 111.517 187.093 111.25C187.609 110.967 188.159 110.558 188.743 110.025V106.65C187.726 106.783 186.868 106.942 186.168 107.125C185.484 107.308 184.926 107.525 184.493 107.775C184.076 108.025 183.768 108.317 183.568 108.65C183.384 108.967 183.293 109.317 183.293 109.7C183.293 110.4 183.501 110.9 183.918 111.2C184.334 111.5 184.843 111.65 185.443 111.65ZM197.265 113L192.89 100.85H195.015L197.315 107.75C197.499 108.35 197.682 108.95 197.865 109.55C198.065 110.15 198.257 110.742 198.44 111.325H198.54C198.724 110.742 198.907 110.15 199.09 109.55C199.274 108.95 199.457 108.35 199.64 107.75L201.94 100.85H203.965L199.665 113H197.265ZM211.138 113.3C210.321 113.3 209.554 113.158 208.838 112.875C208.138 112.575 207.521 112.158 206.988 111.625C206.471 111.075 206.063 110.408 205.763 109.625C205.463 108.842 205.313 107.95 205.313 106.95C205.313 105.95 205.463 105.058 205.763 104.275C206.079 103.475 206.488 102.8 206.988 102.25C207.504 101.7 208.088 101.283 208.738 101C209.388 100.7 210.063 100.55 210.763 100.55C211.529 100.55 212.213 100.683 212.813 100.95C213.429 101.217 213.938 101.6 214.338 102.1C214.754 102.6 215.071 103.2 215.288 103.9C215.504 104.6 215.613 105.383 215.613 106.25C215.613 106.467 215.604 106.683 215.588 106.9C215.588 107.1 215.571 107.275 215.538 107.425H207.338C207.421 108.725 207.821 109.758 208.538 110.525C209.271 111.275 210.221 111.65 211.388 111.65C211.971 111.65 212.504 111.567 212.988 111.4C213.488 111.217 213.963 110.983 214.413 110.7L215.138 112.05C214.604 112.383 214.013 112.675 213.363 112.925C212.713 113.175 211.971 113.3 211.138 113.3ZM207.313 105.95H213.813C213.813 104.717 213.546 103.783 213.013 103.15C212.496 102.5 211.763 102.175 210.813 102.175C210.379 102.175 209.963 102.258 209.563 102.425C209.179 102.592 208.829 102.842 208.513 103.175C208.196 103.492 207.929 103.883 207.713 104.35C207.513 104.817 207.379 105.35 207.313 105.95ZM218.615 113V100.85H220.315L220.49 103.05H220.565C220.982 102.283 221.482 101.675 222.065 101.225C222.665 100.775 223.315 100.55 224.015 100.55C224.498 100.55 224.932 100.633 225.315 100.8L224.915 102.6C224.715 102.533 224.532 102.483 224.365 102.45C224.198 102.417 223.99 102.4 223.74 102.4C223.223 102.4 222.682 102.608 222.115 103.025C221.565 103.442 221.082 104.167 220.665 105.2V113H218.615ZM230.359 113.3C229.493 113.3 228.668 113.142 227.884 112.825C227.101 112.508 226.418 112.108 225.834 111.625L226.859 110.25C227.393 110.683 227.934 111.033 228.484 111.3C229.051 111.567 229.701 111.7 230.434 111.7C231.234 111.7 231.834 111.517 232.234 111.15C232.634 110.783 232.834 110.333 232.834 109.8C232.834 109.483 232.751 109.208 232.584 108.975C232.418 108.742 232.201 108.542 231.934 108.375C231.684 108.192 231.393 108.033 231.059 107.9C230.726 107.767 230.393 107.633 230.059 107.5C229.626 107.35 229.193 107.183 228.759 107C228.326 106.8 227.934 106.567 227.584 106.3C227.251 106.017 226.976 105.692 226.759 105.325C226.543 104.958 226.434 104.517 226.434 104C226.434 103.517 226.526 103.067 226.709 102.65C226.909 102.217 227.184 101.85 227.534 101.55C227.901 101.233 228.343 100.992 228.859 100.825C229.376 100.642 229.959 100.55 230.609 100.55C231.376 100.55 232.076 100.683 232.709 100.95C233.359 101.217 233.918 101.542 234.384 101.925L233.409 103.225C232.993 102.908 232.559 102.65 232.109 102.45C231.659 102.25 231.168 102.15 230.634 102.15C229.868 102.15 229.301 102.325 228.934 102.675C228.584 103.025 228.409 103.433 228.409 103.9C228.409 104.183 228.484 104.433 228.634 104.65C228.784 104.85 228.984 105.033 229.234 105.2C229.484 105.35 229.768 105.492 230.084 105.625C230.418 105.742 230.759 105.867 231.109 106C231.543 106.167 231.976 106.342 232.409 106.525C232.859 106.708 233.259 106.942 233.609 107.225C233.959 107.492 234.243 107.825 234.459 108.225C234.693 108.625 234.809 109.108 234.809 109.675C234.809 110.175 234.709 110.642 234.509 111.075C234.326 111.508 234.043 111.892 233.659 112.225C233.293 112.558 232.826 112.817 232.259 113C231.709 113.2 231.076 113.3 230.359 113.3ZM242.583 113.3C241.766 113.3 241 113.158 240.283 112.875C239.583 112.575 238.966 112.158 238.433 111.625C237.916 111.075 237.508 110.408 237.208 109.625C236.908 108.842 236.758 107.95 236.758 106.95C236.758 105.95 236.908 105.058 237.208 104.275C237.525 103.475 237.933 102.8 238.433 102.25C238.95 101.7 239.533 101.283 240.183 101C240.833 100.7 241.508 100.55 242.208 100.55C242.975 100.55 243.658 100.683 244.258 100.95C244.875 101.217 245.383 101.6 245.783 102.1C246.2 102.6 246.516 103.2 246.733 103.9C246.95 104.6 247.058 105.383 247.058 106.25C247.058 106.467 247.05 106.683 247.033 106.9C247.033 107.1 247.016 107.275 246.983 107.425H238.783C238.866 108.725 239.266 109.758 239.983 110.525C240.716 111.275 241.666 111.65 242.833 111.65C243.416 111.65 243.95 111.567 244.433 111.4C244.933 111.217 245.408 110.983 245.858 110.7L246.583 112.05C246.05 112.383 245.458 112.675 244.808 112.925C244.158 113.175 243.416 113.3 242.583 113.3ZM238.758 105.95H245.258C245.258 104.717 244.991 103.783 244.458 103.15C243.941 102.5 243.208 102.175 242.258 102.175C241.825 102.175 241.408 102.258 241.008 102.425C240.625 102.592 240.275 102.842 239.958 103.175C239.641 103.492 239.375 103.883 239.158 104.35C238.958 104.817 238.825 105.35 238.758 105.95ZM241.883 98.675L240.833 97.65L244.358 93.475L245.808 94.85L241.883 98.675ZM254.985 113.3C254.169 113.3 253.402 113.158 252.685 112.875C251.985 112.575 251.369 112.158 250.835 111.625C250.319 111.075 249.91 110.408 249.61 109.625C249.31 108.842 249.16 107.95 249.16 106.95C249.16 105.95 249.31 105.058 249.61 104.275C249.927 103.475 250.335 102.8 250.835 102.25C251.352 101.7 251.935 101.283 252.585 101C253.235 100.7 253.91 100.55 254.61 100.55C255.377 100.55 256.06 100.683 256.66 100.95C257.277 101.217 257.785 101.6 258.185 102.1C258.602 102.6 258.919 103.2 259.135 103.9C259.352 104.6 259.46 105.383 259.46 106.25C259.46 106.467 259.452 106.683 259.435 106.9C259.435 107.1 259.419 107.275 259.385 107.425H251.185C251.269 108.725 251.669 109.758 252.385 110.525C253.119 111.275 254.069 111.65 255.235 111.65C255.819 111.65 256.352 111.567 256.835 111.4C257.335 111.217 257.81 110.983 258.26 110.7L258.985 112.05C258.452 112.383 257.86 112.675 257.21 112.925C256.56 113.175 255.819 113.3 254.985 113.3ZM251.16 105.95H257.66C257.66 104.717 257.394 103.783 256.86 103.15C256.344 102.5 255.61 102.175 254.66 102.175C254.227 102.175 253.81 102.258 253.41 102.425C253.027 102.592 252.677 102.842 252.36 103.175C252.044 103.492 251.777 103.883 251.56 104.35C251.36 104.817 251.227 105.35 251.16 105.95Z" fill="#485F62"/>
</svg>
