<svg width="339" height="381" viewBox="0 0 339 381" fill="none" xmlns="http://www.w3.org/2000/svg">
<path d="M300.586 325.296C300.586 325.471 300.763 325.471 300.763 325.646C308.552 337.372 308.552 354.348 308.375 368.524" stroke="white" stroke-width="0.9124" stroke-miterlimit="10"/>
<path d="M291.38 317.596C277.749 310.071 256.86 306.92 252.612 292.919" stroke="white" stroke-width="0.9124" stroke-miterlimit="10"/>
<path d="M252.789 281.193C255.267 272.793 263.588 268.768 270.314 263.867C281.467 255.817 290.672 246.191 294.036 233.24" stroke="white" stroke-width="0.9124" stroke-miterlimit="10"/>
<path d="M277.75 167.436C278.458 171.811 279.874 176.187 281.998 180.387C289.256 193.863 295.629 206.114 295.452 221.515" stroke="white" stroke-width="0.9124" stroke-miterlimit="10"/>
<path d="M277.396 155.535C278.635 140.659 286.07 125.608 295.629 113.532" stroke="white" stroke-width="0.9124" stroke-miterlimit="10"/>
<path d="M303.772 104.607C306.25 102.332 308.552 100.232 311.03 98.4819C321.12 91.1314 330.149 79.5807 332.096 67.5049" stroke="white" stroke-width="0.9124" stroke-miterlimit="10"/>
<path d="M297.399 12.9004C299.701 35.8269 315.633 31.9766 326.077 45.2775C328.733 48.6027 330.503 52.103 331.388 55.6032" stroke="white" stroke-width="0.9124" stroke-miterlimit="10"/>
<path d="M297.045 12.9008C300.369 12.9008 303.064 10.2367 303.064 6.95039C303.064 3.66408 300.369 1 297.045 1C293.721 1 291.026 3.66408 291.026 6.95039C291.026 10.2367 293.721 12.9008 297.045 12.9008Z" fill="white" stroke="white" stroke-width="0.9124" stroke-miterlimit="10"/>
<path d="M308.375 380.25C311.699 380.25 314.394 377.586 314.394 374.3C314.394 371.013 311.699 368.349 308.375 368.349C305.051 368.349 302.356 371.013 302.356 374.3C302.356 377.586 305.051 380.25 308.375 380.25Z" stroke="white" stroke-width="0.9124" stroke-miterlimit="10"/>
<path d="M252.019 292.509C255.343 292.509 258.038 289.845 258.038 286.559C258.038 283.272 255.343 280.608 252.019 280.608C248.695 280.608 246 283.272 246 286.559C246 289.845 248.695 292.509 252.019 292.509Z" fill="white" stroke="white" stroke-width="0.9124" stroke-miterlimit="10"/>
<path d="M294.859 232.83C298.183 232.83 300.877 230.166 300.877 226.88C300.877 223.593 298.183 220.929 294.859 220.929C291.535 220.929 288.84 223.593 288.84 226.88C288.84 230.166 291.535 232.83 294.859 232.83Z" fill="white" stroke="white" stroke-width="0.9124" stroke-miterlimit="10"/>
<path d="M296.275 326.636C299.599 326.636 302.294 323.972 302.294 320.686C302.294 317.399 299.599 314.735 296.275 314.735C292.951 314.735 290.256 317.399 290.256 320.686C290.256 323.972 292.951 326.636 296.275 326.636Z" fill="white" stroke="white" stroke-width="0.9124" stroke-miterlimit="10"/>
<path d="M277.333 167.026C280.657 167.026 283.352 164.362 283.352 161.075C283.352 157.789 280.657 155.125 277.333 155.125C274.009 155.125 271.314 157.789 271.314 161.075C271.314 164.362 274.009 167.026 277.333 167.026Z" fill="white" stroke="white" stroke-width="0.9124" stroke-miterlimit="10"/>
<path d="M332.096 67.5043C335.42 67.5043 338.115 64.8402 338.115 61.5539C338.115 58.2676 335.42 55.6035 332.096 55.6035C328.772 55.6035 326.077 58.2676 326.077 61.5539C326.077 64.8402 328.772 67.5043 332.096 67.5043Z" fill="white" stroke="white" stroke-width="0.9124" stroke-miterlimit="10"/>
<path d="M299.7 114.933C303.025 114.933 305.719 112.269 305.719 108.983C305.719 105.696 303.025 103.032 299.7 103.032C296.376 103.032 293.682 105.696 293.682 108.983C293.682 112.269 296.376 114.933 299.7 114.933Z" fill="white" stroke="white" stroke-width="0.9124" stroke-miterlimit="10"/>
<line x1="296.867" y1="321.625" x2="253" y2="321.625" stroke="white"/>
<path d="M54.0322 328.125V311.725H56.1822L62.1072 322.025L63.8822 325.425H63.9822C63.9322 324.592 63.8739 323.733 63.8072 322.85C63.7572 321.95 63.7322 321.067 63.7322 320.2V311.725H65.7072V328.125H63.5572L57.6072 317.8L55.8322 314.425H55.7322C55.7989 315.258 55.8572 316.108 55.9072 316.975C55.9739 317.825 56.0072 318.683 56.0072 319.55V328.125H54.0322ZM74.7438 328.425C73.9938 328.425 73.2771 328.283 72.5938 328C71.9271 327.717 71.3354 327.308 70.8188 326.775C70.3021 326.225 69.8854 325.558 69.5688 324.775C69.2688 323.975 69.1188 323.075 69.1188 322.075C69.1188 321.058 69.2688 320.158 69.5688 319.375C69.8854 318.575 70.3021 317.9 70.8188 317.35C71.3354 316.8 71.9271 316.383 72.5938 316.1C73.2771 315.817 73.9938 315.675 74.7438 315.675C75.4938 315.675 76.2021 315.817 76.8688 316.1C77.5521 316.383 78.1521 316.8 78.6688 317.35C79.1854 317.9 79.5938 318.575 79.8938 319.375C80.2104 320.158 80.3688 321.058 80.3688 322.075C80.3688 323.075 80.2104 323.975 79.8938 324.775C79.5938 325.558 79.1854 326.225 78.6688 326.775C78.1521 327.308 77.5521 327.717 76.8688 328C76.2021 328.283 75.4938 328.425 74.7438 328.425ZM74.7438 326.725C75.2604 326.725 75.7354 326.617 76.1688 326.4C76.6021 326.167 76.9688 325.85 77.2688 325.45C77.5854 325.033 77.8271 324.542 77.9938 323.975C78.1604 323.408 78.2438 322.775 78.2438 322.075C78.2438 321.375 78.1604 320.742 77.9938 320.175C77.8271 319.592 77.5854 319.092 77.2688 318.675C76.9688 318.258 76.6021 317.942 76.1688 317.725C75.7354 317.492 75.2604 317.375 74.7438 317.375C74.2271 317.375 73.7521 317.492 73.3188 317.725C72.8854 317.942 72.5104 318.258 72.1938 318.675C71.8938 319.092 71.6604 319.592 71.4938 320.175C71.3271 320.742 71.2438 321.375 71.2438 322.075C71.2438 322.775 71.3271 323.408 71.4938 323.975C71.6604 324.542 71.8938 325.033 72.1938 325.45C72.5104 325.85 72.8854 326.167 73.3188 326.4C73.7521 326.617 74.2271 326.725 74.7438 326.725ZM86.9785 328.425C86.3285 328.425 85.7785 328.325 85.3285 328.125C84.8952 327.925 84.5368 327.65 84.2535 327.3C83.9868 326.95 83.7952 326.525 83.6785 326.025C83.5618 325.525 83.5035 324.975 83.5035 324.375V317.65H81.7035V316.1L83.6035 315.975L83.8535 312.575H85.5785V315.975H88.8535V317.65H85.5785V324.4C85.5785 325.15 85.7118 325.733 85.9785 326.15C86.2618 326.55 86.7535 326.75 87.4535 326.75C87.6702 326.75 87.9035 326.717 88.1535 326.65C88.4035 326.583 88.6285 326.508 88.8285 326.425L89.2285 327.975C88.8952 328.092 88.5285 328.192 88.1285 328.275C87.7452 328.375 87.3618 328.425 86.9785 328.425ZM91.6008 328.125V315.975H93.3008L93.4758 318.175H93.5508C93.9674 317.408 94.4674 316.8 95.0508 316.35C95.6508 315.9 96.3008 315.675 97.0008 315.675C97.4841 315.675 97.9174 315.758 98.3008 315.925L97.9008 317.725C97.7008 317.658 97.5174 317.608 97.3508 317.575C97.1841 317.542 96.9758 317.525 96.7258 317.525C96.2091 317.525 95.6674 317.733 95.1008 318.15C94.5508 318.567 94.0674 319.292 93.6508 320.325V328.125H91.6008ZM104.949 328.425C104.132 328.425 103.365 328.283 102.649 328C101.949 327.7 101.332 327.283 100.799 326.75C100.282 326.2 99.8736 325.533 99.5736 324.75C99.2736 323.967 99.1236 323.075 99.1236 322.075C99.1236 321.075 99.2736 320.183 99.5736 319.4C99.8903 318.6 100.299 317.925 100.799 317.375C101.315 316.825 101.899 316.408 102.549 316.125C103.199 315.825 103.874 315.675 104.574 315.675C105.34 315.675 106.024 315.808 106.624 316.075C107.24 316.342 107.749 316.725 108.149 317.225C108.565 317.725 108.882 318.325 109.099 319.025C109.315 319.725 109.424 320.508 109.424 321.375C109.424 321.592 109.415 321.808 109.399 322.025C109.399 322.225 109.382 322.4 109.349 322.55H101.149C101.232 323.85 101.632 324.883 102.349 325.65C103.082 326.4 104.032 326.775 105.199 326.775C105.782 326.775 106.315 326.692 106.799 326.525C107.299 326.342 107.774 326.108 108.224 325.825L108.949 327.175C108.415 327.508 107.824 327.8 107.174 328.05C106.524 328.3 105.782 328.425 104.949 328.425ZM101.124 321.075H107.624C107.624 319.842 107.357 318.908 106.824 318.275C106.307 317.625 105.574 317.3 104.624 317.3C104.19 317.3 103.774 317.383 103.374 317.55C102.99 317.717 102.64 317.967 102.324 318.3C102.007 318.617 101.74 319.008 101.524 319.475C101.324 319.942 101.19 320.475 101.124 321.075ZM120.231 328.425C119.214 328.425 118.364 328.125 117.681 327.525C117.014 326.925 116.681 326.075 116.681 324.975C116.681 323.642 117.273 322.625 118.456 321.925C119.639 321.208 121.531 320.708 124.131 320.425C124.131 320.042 124.089 319.667 124.006 319.3C123.939 318.933 123.814 318.608 123.631 318.325C123.448 318.042 123.189 317.817 122.856 317.65C122.539 317.467 122.131 317.375 121.631 317.375C120.931 317.375 120.273 317.508 119.656 317.775C119.039 318.042 118.489 318.342 118.006 318.675L117.206 317.25C117.773 316.883 118.464 316.533 119.281 316.2C120.098 315.85 120.998 315.675 121.981 315.675C123.464 315.675 124.539 316.133 125.206 317.05C125.873 317.95 126.206 319.158 126.206 320.675V328.125H124.506L124.331 326.675H124.256C123.673 327.158 123.048 327.575 122.381 327.925C121.714 328.258 120.998 328.425 120.231 328.425ZM120.831 326.775C121.414 326.775 121.964 326.642 122.481 326.375C122.998 326.092 123.548 325.683 124.131 325.15V321.775C123.114 321.908 122.256 322.067 121.556 322.25C120.873 322.433 120.314 322.65 119.881 322.9C119.464 323.15 119.156 323.442 118.956 323.775C118.773 324.092 118.681 324.442 118.681 324.825C118.681 325.525 118.889 326.025 119.306 326.325C119.723 326.625 120.231 326.775 120.831 326.775ZM130.029 328.125V315.975H131.729L131.904 317.725H131.979C132.512 317.142 133.087 316.658 133.704 316.275C134.337 315.875 135.02 315.675 135.754 315.675C136.687 315.675 137.412 315.883 137.929 316.3C138.462 316.7 138.854 317.267 139.104 318C139.737 317.3 140.37 316.742 141.004 316.325C141.654 315.892 142.354 315.675 143.104 315.675C144.354 315.675 145.279 316.075 145.879 316.875C146.495 317.675 146.804 318.858 146.804 320.425V328.125H144.754V320.7C144.754 319.55 144.57 318.725 144.204 318.225C143.837 317.708 143.27 317.45 142.504 317.45C141.587 317.45 140.57 318.075 139.454 319.325V328.125H137.404V320.7C137.404 319.55 137.22 318.725 136.854 318.225C136.487 317.708 135.912 317.45 135.129 317.45C134.212 317.45 133.195 318.075 132.079 319.325V328.125H130.029ZM150.756 328.125V315.975H152.806V328.125H150.756ZM151.806 313.475C151.406 313.475 151.064 313.35 150.781 313.1C150.514 312.85 150.381 312.533 150.381 312.15C150.381 311.75 150.514 311.433 150.781 311.2C151.064 310.95 151.406 310.825 151.806 310.825C152.206 310.825 152.539 310.95 152.806 311.2C153.089 311.433 153.231 311.75 153.231 312.15C153.231 312.533 153.089 312.85 152.806 313.1C152.539 313.35 152.206 313.475 151.806 313.475ZM166.663 328.425C165.513 328.425 164.447 328.208 163.463 327.775C162.48 327.342 161.63 326.75 160.913 326L162.163 324.55C162.747 325.167 163.43 325.667 164.213 326.05C165.013 326.417 165.838 326.6 166.688 326.6C167.772 326.6 168.613 326.358 169.213 325.875C169.813 325.375 170.113 324.725 170.113 323.925C170.113 323.508 170.038 323.158 169.888 322.875C169.755 322.575 169.563 322.325 169.313 322.125C169.08 321.908 168.797 321.717 168.463 321.55C168.13 321.383 167.772 321.208 167.388 321.025L165.038 320C164.655 319.833 164.263 319.633 163.863 319.4C163.463 319.167 163.105 318.883 162.788 318.55C162.472 318.217 162.213 317.825 162.013 317.375C161.813 316.908 161.713 316.375 161.713 315.775C161.713 315.158 161.838 314.583 162.088 314.05C162.355 313.517 162.713 313.058 163.163 312.675C163.63 312.275 164.172 311.967 164.788 311.75C165.422 311.533 166.113 311.425 166.863 311.425C167.847 311.425 168.755 311.617 169.588 312C170.422 312.367 171.13 312.85 171.713 313.45L170.588 314.8C170.088 314.317 169.53 313.942 168.913 313.675C168.313 313.392 167.63 313.25 166.863 313.25C165.947 313.25 165.205 313.467 164.638 313.9C164.088 314.317 163.813 314.9 163.813 315.65C163.813 316.05 163.888 316.392 164.038 316.675C164.205 316.942 164.422 317.183 164.688 317.4C164.955 317.6 165.247 317.783 165.563 317.95C165.88 318.1 166.205 318.242 166.538 318.375L168.863 319.375C169.33 319.575 169.772 319.808 170.188 320.075C170.605 320.325 170.963 320.625 171.263 320.975C171.563 321.308 171.797 321.708 171.963 322.175C172.147 322.625 172.238 323.15 172.238 323.75C172.238 324.4 172.105 325.008 171.838 325.575C171.588 326.142 171.222 326.642 170.738 327.075C170.255 327.492 169.672 327.825 168.988 328.075C168.305 328.308 167.53 328.425 166.663 328.425ZM178.482 328.425C177.832 328.425 177.282 328.325 176.832 328.125C176.399 327.925 176.041 327.65 175.757 327.3C175.491 326.95 175.299 326.525 175.182 326.025C175.066 325.525 175.007 324.975 175.007 324.375V317.65H173.207V316.1L175.107 315.975L175.357 312.575H177.082V315.975H180.357V317.65H177.082V324.4C177.082 325.15 177.216 325.733 177.482 326.15C177.766 326.55 178.257 326.75 178.957 326.75C179.174 326.75 179.407 326.717 179.657 326.65C179.907 326.583 180.132 326.508 180.332 326.425L180.732 327.975C180.399 328.092 180.032 328.192 179.632 328.275C179.249 328.375 178.866 328.425 178.482 328.425ZM187.488 328.425C186.738 328.425 186.021 328.283 185.338 328C184.671 327.717 184.08 327.308 183.563 326.775C183.046 326.225 182.63 325.558 182.313 324.775C182.013 323.975 181.863 323.075 181.863 322.075C181.863 321.058 182.013 320.158 182.313 319.375C182.63 318.575 183.046 317.9 183.563 317.35C184.08 316.8 184.671 316.383 185.338 316.1C186.021 315.817 186.738 315.675 187.488 315.675C188.238 315.675 188.946 315.817 189.613 316.1C190.296 316.383 190.896 316.8 191.413 317.35C191.93 317.9 192.338 318.575 192.638 319.375C192.955 320.158 193.113 321.058 193.113 322.075C193.113 323.075 192.955 323.975 192.638 324.775C192.338 325.558 191.93 326.225 191.413 326.775C190.896 327.308 190.296 327.717 189.613 328C188.946 328.283 188.238 328.425 187.488 328.425ZM187.488 326.725C188.005 326.725 188.48 326.617 188.913 326.4C189.346 326.167 189.713 325.85 190.013 325.45C190.33 325.033 190.571 324.542 190.738 323.975C190.905 323.408 190.988 322.775 190.988 322.075C190.988 321.375 190.905 320.742 190.738 320.175C190.571 319.592 190.33 319.092 190.013 318.675C189.713 318.258 189.346 317.942 188.913 317.725C188.48 317.492 188.005 317.375 187.488 317.375C186.971 317.375 186.496 317.492 186.063 317.725C185.63 317.942 185.255 318.258 184.938 318.675C184.638 319.092 184.405 319.592 184.238 320.175C184.071 320.742 183.988 321.375 183.988 322.075C183.988 322.775 184.071 323.408 184.238 323.975C184.405 324.542 184.638 325.033 184.938 325.45C185.255 325.85 185.63 326.167 186.063 326.4C186.496 326.617 186.971 326.725 187.488 326.725ZM201.688 328.425C201.121 328.425 200.529 328.292 199.913 328.025C199.313 327.742 198.746 327.358 198.213 326.875H198.138L197.963 328.125H196.313V310.325H198.363V315.175L198.313 317.375C198.863 316.892 199.463 316.492 200.113 316.175C200.763 315.842 201.429 315.675 202.113 315.675C202.896 315.675 203.588 315.825 204.188 316.125C204.788 316.408 205.288 316.825 205.688 317.375C206.104 317.908 206.413 318.558 206.613 319.325C206.829 320.075 206.938 320.917 206.938 321.85C206.938 322.883 206.796 323.808 206.513 324.625C206.229 325.442 205.846 326.133 205.363 326.7C204.879 327.267 204.321 327.7 203.688 328C203.054 328.283 202.388 328.425 201.688 328.425ZM201.338 326.7C201.838 326.7 202.296 326.592 202.713 326.375C203.146 326.142 203.513 325.825 203.813 325.425C204.129 325.008 204.371 324.5 204.538 323.9C204.721 323.3 204.813 322.625 204.813 321.875C204.813 321.208 204.754 320.6 204.638 320.05C204.521 319.5 204.329 319.033 204.063 318.65C203.813 318.25 203.479 317.942 203.063 317.725C202.663 317.508 202.179 317.4 201.613 317.4C200.629 317.4 199.546 317.95 198.363 319.05V325.425C198.896 325.892 199.421 326.225 199.938 326.425C200.471 326.608 200.938 326.7 201.338 326.7ZM214.281 328.425C212.748 328.425 211.523 327.875 210.606 326.775C209.706 325.675 209.256 324.108 209.256 322.075C209.256 321.092 209.398 320.208 209.681 319.425C209.981 318.625 210.373 317.95 210.856 317.4C211.339 316.85 211.898 316.425 212.531 316.125C213.164 315.825 213.831 315.675 214.531 315.675C215.231 315.675 215.839 315.8 216.356 316.05C216.873 316.3 217.398 316.642 217.931 317.075L217.831 315V310.325H219.906V328.125H218.206L218.031 326.7H217.956C217.473 327.167 216.914 327.575 216.281 327.925C215.664 328.258 214.998 328.425 214.281 328.425ZM214.731 326.7C215.298 326.7 215.831 326.567 216.331 326.3C216.831 326.017 217.331 325.592 217.831 325.025V318.675C217.314 318.208 216.814 317.883 216.331 317.7C215.864 317.5 215.381 317.4 214.881 317.4C214.398 317.4 213.939 317.517 213.506 317.75C213.089 317.967 212.723 318.283 212.406 318.7C212.089 319.1 211.839 319.583 211.656 320.15C211.473 320.717 211.381 321.35 211.381 322.05C211.381 323.517 211.673 324.658 212.256 325.475C212.839 326.292 213.664 326.7 214.731 326.7ZM226.798 328.425C225.782 328.425 224.932 328.125 224.248 327.525C223.582 326.925 223.248 326.075 223.248 324.975C223.248 323.642 223.84 322.625 225.023 321.925C226.207 321.208 228.098 320.708 230.698 320.425C230.698 320.042 230.657 319.667 230.573 319.3C230.507 318.933 230.382 318.608 230.198 318.325C230.015 318.042 229.757 317.817 229.423 317.65C229.107 317.467 228.698 317.375 228.198 317.375C227.498 317.375 226.84 317.508 226.223 317.775C225.607 318.042 225.057 318.342 224.573 318.675L223.773 317.25C224.34 316.883 225.032 316.533 225.848 316.2C226.665 315.85 227.565 315.675 228.548 315.675C230.032 315.675 231.107 316.133 231.773 317.05C232.44 317.95 232.773 319.158 232.773 320.675V328.125H231.073L230.898 326.675H230.823C230.24 327.158 229.615 327.575 228.948 327.925C228.282 328.258 227.565 328.425 226.798 328.425ZM227.398 326.775C227.982 326.775 228.532 326.642 229.048 326.375C229.565 326.092 230.115 325.683 230.698 325.15V321.775C229.682 321.908 228.823 322.067 228.123 322.25C227.44 322.433 226.882 322.65 226.448 322.9C226.032 323.15 225.723 323.442 225.523 323.775C225.34 324.092 225.248 324.442 225.248 324.825C225.248 325.525 225.457 326.025 225.873 326.325C226.29 326.625 226.798 326.775 227.398 326.775ZM236.596 328.125V315.975H238.296L238.471 317.725H238.546C239.129 317.142 239.738 316.658 240.371 316.275C241.021 315.875 241.771 315.675 242.621 315.675C243.904 315.675 244.838 316.075 245.421 316.875C246.021 317.675 246.321 318.858 246.321 320.425V328.125H244.271V320.7C244.271 319.55 244.088 318.725 243.721 318.225C243.354 317.708 242.771 317.45 241.971 317.45C241.338 317.45 240.779 317.608 240.296 317.925C239.813 318.242 239.263 318.708 238.646 319.325V328.125H236.596Z" fill="white"/>
</svg>
