<svg width="327" height="393" viewBox="0 0 327 393" fill="none" xmlns="http://www.w3.org/2000/svg">
<path d="M288.586 337.172C288.586 337.347 288.763 337.347 288.763 337.522C296.552 349.248 296.552 366.224 296.375 380.4" stroke="#485F62" stroke-width="0.9124" stroke-miterlimit="10"/>
<path d="M265.75 179.311C266.458 183.686 267.874 188.061 269.998 192.261C277.256 205.737 283.629 217.988 283.452 233.389" stroke="#485F62" stroke-width="0.9124" stroke-miterlimit="10"/>
<path d="M265.396 167.41C266.635 152.534 274.07 137.483 283.629 125.407" stroke="#485F62" stroke-width="0.9124" stroke-miterlimit="10"/>
<path d="M291.772 116.482C294.25 114.207 296.552 112.107 299.03 110.357C309.12 103.006 318.149 91.4557 320.096 79.3799" stroke="#485F62" stroke-width="0.9124" stroke-miterlimit="10"/>
<path d="M285.399 24.7754C287.701 47.7019 303.633 43.8516 314.077 57.1525C316.733 60.4777 318.503 63.978 319.388 67.4782" stroke="#485F62" stroke-width="0.9124" stroke-miterlimit="10"/>
<path d="M285.045 24.7758C288.369 24.7758 291.064 22.1117 291.064 18.8254C291.064 15.5391 288.369 12.875 285.045 12.875C281.721 12.875 279.026 15.5391 279.026 18.8254C279.026 22.1117 281.721 24.7758 285.045 24.7758Z" fill="#485F62" stroke="#485F62" stroke-width="0.9124" stroke-miterlimit="10"/>
<path d="M296.375 392.125C299.699 392.125 302.394 389.461 302.394 386.175C302.394 382.889 299.699 380.225 296.375 380.225C293.051 380.225 290.356 382.889 290.356 386.175C290.356 389.461 293.051 392.125 296.375 392.125Z" stroke="#485F62" stroke-width="0.9124" stroke-miterlimit="10"/>
<path d="M240.019 304.384C243.343 304.384 246.038 301.72 246.038 298.434C246.038 295.147 243.343 292.483 240.019 292.483C236.695 292.483 234 295.147 234 298.434C234 301.72 236.695 304.384 240.019 304.384Z" stroke="#485F62" stroke-width="0.9124" stroke-miterlimit="10"/>
<path d="M282.859 244.705C286.183 244.705 288.877 242.041 288.877 238.755C288.877 235.469 286.183 232.805 282.859 232.805C279.535 232.805 276.84 235.469 276.84 238.755C276.84 242.041 279.535 244.705 282.859 244.705Z" stroke="#485F62" stroke-width="0.9124" stroke-miterlimit="10"/>
<path d="M284.275 338.511C287.599 338.511 290.294 335.847 290.294 332.561C290.294 329.274 287.599 326.61 284.275 326.61C280.951 326.61 278.256 329.274 278.256 332.561C278.256 335.847 280.951 338.511 284.275 338.511Z" stroke="#485F62" stroke-width="0.9124" stroke-miterlimit="10"/>
<path d="M265.333 178.901C268.657 178.901 271.352 176.237 271.352 172.95C271.352 169.664 268.657 167 265.333 167C262.009 167 259.314 169.664 259.314 172.95C259.314 176.237 262.009 178.901 265.333 178.901Z" stroke="#485F62" stroke-width="0.9124" stroke-miterlimit="10"/>
<path d="M320.096 79.3793C323.42 79.3793 326.115 76.7152 326.115 73.4289C326.115 70.1426 323.42 67.4785 320.096 67.4785C316.772 67.4785 314.077 70.1426 314.077 73.4289C314.077 76.7152 316.772 79.3793 320.096 79.3793Z" stroke="#485F62" stroke-width="0.9124" stroke-miterlimit="10"/>
<path d="M287.7 126.808C291.025 126.808 293.719 124.144 293.719 120.858C293.719 117.571 291.025 114.907 287.7 114.907C284.376 114.907 281.682 117.571 281.682 120.858C281.682 124.144 284.376 126.808 287.7 126.808Z" stroke="#485F62" stroke-width="0.9124" stroke-miterlimit="10"/>
<line x1="285.64" y1="18.7666" x2="241.773" y2="18.7666" stroke="#485F62"/>
<path d="M64.3228 24V7.6H68.9978C69.9144 7.6 70.7478 7.68333 71.4978 7.85C72.2644 8.01667 72.9144 8.29167 73.4478 8.675C73.9811 9.04167 74.3978 9.53333 74.6978 10.15C74.9978 10.7667 75.1478 11.525 75.1478 12.425C75.1478 13.2917 74.9978 14.0417 74.6978 14.675C74.4144 15.3083 74.0061 15.8333 73.4728 16.25C72.9394 16.6667 72.2978 16.9833 71.5478 17.2C70.8144 17.4 69.9978 17.5 69.0978 17.5H66.3978V24H64.3228ZM66.3978 15.8H68.8478C70.2811 15.8 71.3394 15.5333 72.0228 15C72.7228 14.45 73.0728 13.5917 73.0728 12.425C73.0728 11.2417 72.7061 10.425 71.9728 9.975C71.2561 9.50833 70.1811 9.275 68.7478 9.275H66.3978V15.8ZM80.0087 24.3C78.992 24.3 78.142 24 77.4587 23.4C76.792 22.8 76.4587 21.95 76.4587 20.85C76.4587 19.5167 77.0504 18.5 78.2337 17.8C79.417 17.0833 81.3087 16.5833 83.9087 16.3C83.9087 15.9167 83.867 15.5417 83.7837 15.175C83.717 14.8083 83.592 14.4833 83.4087 14.2C83.2254 13.9167 82.967 13.6917 82.6337 13.525C82.317 13.3417 81.9087 13.25 81.4087 13.25C80.7087 13.25 80.0504 13.3833 79.4337 13.65C78.817 13.9167 78.267 14.2167 77.7837 14.55L76.9837 13.125C77.5504 12.7583 78.242 12.4083 79.0587 12.075C79.8754 11.725 80.7754 11.55 81.7587 11.55C83.242 11.55 84.317 12.0083 84.9837 12.925C85.6504 13.825 85.9837 15.0333 85.9837 16.55V24H84.2837L84.1087 22.55H84.0337C83.4504 23.0333 82.8254 23.45 82.1587 23.8C81.492 24.1333 80.7754 24.3 80.0087 24.3ZM80.6087 22.65C81.192 22.65 81.742 22.5167 82.2587 22.25C82.7754 21.9667 83.3254 21.5583 83.9087 21.025V17.65C82.892 17.7833 82.0337 17.9417 81.3337 18.125C80.6504 18.3083 80.092 18.525 79.6587 18.775C79.242 19.025 78.9337 19.3167 78.7337 19.65C78.5504 19.9667 78.4587 20.3167 78.4587 20.7C78.4587 21.4 78.667 21.9 79.0837 22.2C79.5004 22.5 80.0087 22.65 80.6087 22.65ZM89.8063 24V11.85H91.5063L91.6813 14.05H91.7563C92.173 13.2833 92.673 12.675 93.2563 12.225C93.8563 11.775 94.5063 11.55 95.2063 11.55C95.6897 11.55 96.123 11.6333 96.5063 11.8L96.1063 13.6C95.9063 13.5333 95.723 13.4833 95.5563 13.45C95.3897 13.4167 95.1813 13.4 94.9313 13.4C94.4147 13.4 93.873 13.6083 93.3063 14.025C92.7563 14.4417 92.273 15.1667 91.8563 16.2V24H89.8063ZM102.298 24.3C101.648 24.3 101.098 24.2 100.648 24C100.215 23.8 99.8567 23.525 99.5733 23.175C99.3067 22.825 99.115 22.4 98.9983 21.9C98.8817 21.4 98.8233 20.85 98.8233 20.25V13.525H97.0233V11.975L98.9233 11.85L99.1733 8.45H100.898V11.85H104.173V13.525H100.898V20.275C100.898 21.025 101.032 21.6083 101.298 22.025C101.582 22.425 102.073 22.625 102.773 22.625C102.99 22.625 103.223 22.5917 103.473 22.525C103.723 22.4583 103.948 22.3833 104.148 22.3L104.548 23.85C104.215 23.9667 103.848 24.0667 103.448 24.15C103.065 24.25 102.682 24.3 102.298 24.3ZM106.921 24V11.85H108.971V24H106.921ZM107.971 9.35C107.571 9.35 107.229 9.225 106.946 8.975C106.679 8.725 106.546 8.40833 106.546 8.025C106.546 7.625 106.679 7.30833 106.946 7.075C107.229 6.825 107.571 6.7 107.971 6.7C108.371 6.7 108.704 6.825 108.971 7.075C109.254 7.30833 109.396 7.625 109.396 8.025C109.396 8.40833 109.254 8.725 108.971 8.975C108.704 9.225 108.371 9.35 107.971 9.35ZM113.073 24V11.85H114.773L114.948 14.05H115.023C115.44 13.2833 115.94 12.675 116.523 12.225C117.123 11.775 117.773 11.55 118.473 11.55C118.956 11.55 119.39 11.6333 119.773 11.8L119.373 13.6C119.173 13.5333 118.99 13.4833 118.823 13.45C118.656 13.4167 118.448 13.4 118.198 13.4C117.681 13.4 117.14 13.6083 116.573 14.025C116.023 14.4417 115.54 15.1667 115.123 16.2V24H113.073ZM129.545 24.3C128.528 24.3 127.678 24 126.995 23.4C126.328 22.8 125.995 21.95 125.995 20.85C125.995 19.5167 126.586 18.5 127.77 17.8C128.953 17.0833 130.845 16.5833 133.445 16.3C133.445 15.9167 133.403 15.5417 133.32 15.175C133.253 14.8083 133.128 14.4833 132.945 14.2C132.761 13.9167 132.503 13.6917 132.17 13.525C131.853 13.3417 131.445 13.25 130.945 13.25C130.245 13.25 129.586 13.3833 128.97 13.65C128.353 13.9167 127.803 14.2167 127.32 14.55L126.52 13.125C127.086 12.7583 127.778 12.4083 128.595 12.075C129.411 11.725 130.311 11.55 131.295 11.55C132.778 11.55 133.853 12.0083 134.52 12.925C135.186 13.825 135.52 15.0333 135.52 16.55V24H133.82L133.645 22.55H133.57C132.986 23.0333 132.361 23.45 131.695 23.8C131.028 24.1333 130.311 24.3 129.545 24.3ZM130.145 22.65C130.728 22.65 131.278 22.5167 131.795 22.25C132.311 21.9667 132.861 21.5583 133.445 21.025V17.65C132.428 17.7833 131.57 17.9417 130.87 18.125C130.186 18.3083 129.628 18.525 129.195 18.775C128.778 19.025 128.47 19.3167 128.27 19.65C128.086 19.9667 127.995 20.3167 127.995 20.7C127.995 21.4 128.203 21.9 128.62 22.2C129.036 22.5 129.545 22.65 130.145 22.65ZM131.595 9.675L127.67 5.85L129.12 4.475L132.645 8.65L131.595 9.675ZM146.522 24.3C145.739 24.3 145.181 24.0667 144.847 23.6C144.514 23.1333 144.347 22.45 144.347 21.55V6.2H146.397V21.7C146.397 22.0333 146.456 22.2667 146.572 22.4C146.689 22.5333 146.822 22.6 146.972 22.6C147.039 22.6 147.097 22.6 147.147 22.6C147.214 22.6 147.306 22.5833 147.422 22.55L147.697 24.1C147.564 24.1667 147.406 24.2167 147.222 24.25C147.039 24.2833 146.806 24.3 146.522 24.3ZM150.819 13.225L150.244 12.275C150.878 11.8583 151.344 11.4167 151.644 10.95C151.961 10.4667 152.119 9.86667 152.119 9.15C152.069 9.16667 152.003 9.175 151.919 9.175C151.569 9.175 151.261 9.06667 150.994 8.85C150.728 8.63333 150.594 8.325 150.594 7.925C150.594 7.49167 150.719 7.15 150.969 6.9C151.219 6.65 151.536 6.525 151.919 6.525C152.403 6.525 152.786 6.725 153.069 7.125C153.353 7.50833 153.494 8.06667 153.494 8.8C153.494 9.8 153.261 10.6667 152.794 11.4C152.344 12.1167 151.686 12.725 150.819 13.225ZM158.109 24.3C157.093 24.3 156.243 24 155.559 23.4C154.893 22.8 154.559 21.95 154.559 20.85C154.559 19.5167 155.151 18.5 156.334 17.8C157.518 17.0833 159.409 16.5833 162.009 16.3C162.009 15.9167 161.968 15.5417 161.884 15.175C161.818 14.8083 161.693 14.4833 161.509 14.2C161.326 13.9167 161.068 13.6917 160.734 13.525C160.418 13.3417 160.009 13.25 159.509 13.25C158.809 13.25 158.151 13.3833 157.534 13.65C156.918 13.9167 156.368 14.2167 155.884 14.55L155.084 13.125C155.651 12.7583 156.343 12.4083 157.159 12.075C157.976 11.725 158.876 11.55 159.859 11.55C161.343 11.55 162.418 12.0083 163.084 12.925C163.751 13.825 164.084 15.0333 164.084 16.55V24H162.384L162.209 22.55H162.134C161.551 23.0333 160.926 23.45 160.259 23.8C159.593 24.1333 158.876 24.3 158.109 24.3ZM158.709 22.65C159.293 22.65 159.843 22.5167 160.359 22.25C160.876 21.9667 161.426 21.5583 162.009 21.025V17.65C160.993 17.7833 160.134 17.9417 159.434 18.125C158.751 18.3083 158.193 18.525 157.759 18.775C157.343 19.025 157.034 19.3167 156.834 19.65C156.651 19.9667 156.559 20.3167 156.559 20.7C156.559 21.4 156.768 21.9 157.184 22.2C157.601 22.5 158.109 22.65 158.709 22.65ZM170.532 24L166.157 11.85H168.282L170.582 18.75C170.765 19.35 170.949 19.95 171.132 20.55C171.332 21.15 171.524 21.7417 171.707 22.325H171.807C171.99 21.7417 172.174 21.15 172.357 20.55C172.54 19.95 172.724 19.35 172.907 18.75L175.207 11.85H177.232L172.932 24H170.532ZM184.404 24.3C183.588 24.3 182.821 24.1583 182.104 23.875C181.404 23.575 180.788 23.1583 180.254 22.625C179.738 22.075 179.329 21.4083 179.029 20.625C178.729 19.8417 178.579 18.95 178.579 17.95C178.579 16.95 178.729 16.0583 179.029 15.275C179.346 14.475 179.754 13.8 180.254 13.25C180.771 12.7 181.354 12.2833 182.004 12C182.654 11.7 183.329 11.55 184.029 11.55C184.796 11.55 185.479 11.6833 186.079 11.95C186.696 12.2167 187.204 12.6 187.604 13.1C188.021 13.6 188.338 14.2 188.554 14.9C188.771 15.6 188.879 16.3833 188.879 17.25C188.879 17.4667 188.871 17.6833 188.854 17.9C188.854 18.1 188.838 18.275 188.804 18.425H180.604C180.688 19.725 181.088 20.7583 181.804 21.525C182.538 22.275 183.488 22.65 184.654 22.65C185.238 22.65 185.771 22.5667 186.254 22.4C186.754 22.2167 187.229 21.9833 187.679 21.7L188.404 23.05C187.871 23.3833 187.279 23.675 186.629 23.925C185.979 24.175 185.238 24.3 184.404 24.3ZM180.579 16.95H187.079C187.079 15.7167 186.813 14.7833 186.279 14.15C185.763 13.5 185.029 13.175 184.079 13.175C183.646 13.175 183.229 13.2583 182.829 13.425C182.446 13.5917 182.096 13.8417 181.779 14.175C181.463 14.4917 181.196 14.8833 180.979 15.35C180.779 15.8167 180.646 16.35 180.579 16.95ZM191.882 24V11.85H193.582L193.757 13.6H193.832C194.415 13.0167 195.023 12.5333 195.657 12.15C196.307 11.75 197.057 11.55 197.907 11.55C199.19 11.55 200.123 11.95 200.707 12.75C201.307 13.55 201.607 14.7333 201.607 16.3V24H199.557V16.575C199.557 15.425 199.373 14.6 199.007 14.1C198.64 13.5833 198.057 13.325 197.257 13.325C196.623 13.325 196.065 13.4833 195.582 13.8C195.098 14.1167 194.548 14.5833 193.932 15.2V24H191.882ZM209.103 24.3C207.803 24.3 206.853 23.9 206.253 23.1C205.67 22.3 205.378 21.1167 205.378 19.55V11.85H207.453V19.275C207.453 20.425 207.628 21.2583 207.978 21.775C208.345 22.275 208.928 22.525 209.728 22.525C210.362 22.525 210.92 22.3667 211.403 22.05C211.887 21.7167 212.42 21.1917 213.003 20.475V11.85H215.053V24H213.353L213.178 22.1H213.103C212.537 22.7667 211.937 23.3 211.303 23.7C210.687 24.1 209.953 24.3 209.103 24.3ZM219.152 24V11.85H220.852L221.027 14.05H221.102C221.519 13.2833 222.019 12.675 222.602 12.225C223.202 11.775 223.852 11.55 224.552 11.55C225.035 11.55 225.469 11.6333 225.852 11.8L225.452 13.6C225.252 13.5333 225.069 13.4833 224.902 13.45C224.735 13.4167 224.527 13.4 224.277 13.4C223.76 13.4 223.219 13.6083 222.652 14.025C222.102 14.4417 221.619 15.1667 221.202 16.2V24H219.152ZM232.5 24.3C231.683 24.3 230.917 24.1583 230.2 23.875C229.5 23.575 228.883 23.1583 228.35 22.625C227.833 22.075 227.425 21.4083 227.125 20.625C226.825 19.8417 226.675 18.95 226.675 17.95C226.675 16.95 226.825 16.0583 227.125 15.275C227.442 14.475 227.85 13.8 228.35 13.25C228.867 12.7 229.45 12.2833 230.1 12C230.75 11.7 231.425 11.55 232.125 11.55C232.892 11.55 233.575 11.6833 234.175 11.95C234.792 12.2167 235.3 12.6 235.7 13.1C236.117 13.6 236.433 14.2 236.65 14.9C236.867 15.6 236.975 16.3833 236.975 17.25C236.975 17.4667 236.967 17.6833 236.95 17.9C236.95 18.1 236.933 18.275 236.9 18.425H228.7C228.783 19.725 229.183 20.7583 229.9 21.525C230.633 22.275 231.583 22.65 232.75 22.65C233.333 22.65 233.867 22.5667 234.35 22.4C234.85 22.2167 235.325 21.9833 235.775 21.7L236.5 23.05C235.967 23.3833 235.375 23.675 234.725 23.925C234.075 24.175 233.333 24.3 232.5 24.3ZM228.675 16.95H235.175C235.175 15.7167 234.908 14.7833 234.375 14.15C233.858 13.5 233.125 13.175 232.175 13.175C231.742 13.175 231.325 13.2583 230.925 13.425C230.542 13.5917 230.192 13.8417 229.875 14.175C229.558 14.4917 229.292 14.8833 229.075 15.35C228.875 15.8167 228.742 16.35 228.675 16.95Z" fill="#485F62"/>
<path d="M288.586 337.172C288.586 337.347 288.763 337.347 288.763 337.522C296.552 349.248 296.552 366.224 296.375 380.4" stroke="#485F62" stroke-width="0.9124" stroke-miterlimit="10"/>
<path d="M279.38 329.472C265.749 321.946 244.86 318.796 240.612 304.795" stroke="#485F62" stroke-width="0.9124" stroke-miterlimit="10"/>
<path d="M240.789 293.068C243.267 284.668 251.588 280.643 258.314 275.742C269.467 267.692 278.672 258.066 282.036 245.115" stroke="#485F62" stroke-width="0.9124" stroke-miterlimit="10"/>
<path d="M265.75 179.311C266.458 183.686 267.874 188.061 269.998 192.261C277.256 205.737 283.629 217.988 283.452 233.389" stroke="#485F62" stroke-width="0.9124" stroke-miterlimit="10"/>
<path d="M265.396 167.41C266.635 152.534 274.07 137.483 283.629 125.407" stroke="#485F62" stroke-width="0.9124" stroke-miterlimit="10"/>
<path d="M291.772 116.482C294.25 114.207 296.552 112.107 299.03 110.357C309.12 103.006 318.149 91.4557 320.096 79.3799" stroke="#485F62" stroke-width="0.9124" stroke-miterlimit="10"/>
<path d="M285.399 24.7754C287.701 47.7019 303.633 43.8516 314.077 57.1525C316.733 60.4777 318.503 63.978 319.388 67.4782" stroke="#485F62" stroke-width="0.9124" stroke-miterlimit="10"/>
<path d="M285.045 24.7758C288.369 24.7758 291.064 22.1117 291.064 18.8254C291.064 15.5391 288.369 12.875 285.045 12.875C281.721 12.875 279.026 15.5391 279.026 18.8254C279.026 22.1117 281.721 24.7758 285.045 24.7758Z" fill="#485F62" stroke="#485F62" stroke-width="0.9124" stroke-miterlimit="10"/>
<path d="M296.375 392.125C299.699 392.125 302.394 389.461 302.394 386.175C302.394 382.889 299.699 380.225 296.375 380.225C293.051 380.225 290.356 382.889 290.356 386.175C290.356 389.461 293.051 392.125 296.375 392.125Z" stroke="#485F62" stroke-width="0.9124" stroke-miterlimit="10"/>
<path d="M282.859 244.705C286.183 244.705 288.877 242.041 288.877 238.755C288.877 235.469 286.183 232.805 282.859 232.805C279.535 232.805 276.84 235.469 276.84 238.755C276.84 242.041 279.535 244.705 282.859 244.705Z" stroke="#485F62" stroke-width="0.9124" stroke-miterlimit="10"/>
<path d="M284.275 338.511C287.599 338.511 290.294 335.847 290.294 332.561C290.294 329.274 287.599 326.61 284.275 326.61C280.951 326.61 278.256 329.274 278.256 332.561C278.256 335.847 280.951 338.511 284.275 338.511Z" stroke="#485F62" stroke-width="0.9124" stroke-miterlimit="10"/>
<path d="M265.333 178.901C268.657 178.901 271.352 176.237 271.352 172.95C271.352 169.664 268.657 167 265.333 167C262.009 167 259.314 169.664 259.314 172.95C259.314 176.237 262.009 178.901 265.333 178.901Z" stroke="#485F62" stroke-width="0.9124" stroke-miterlimit="10"/>
<path d="M287.7 126.808C291.025 126.808 293.719 124.144 293.719 120.858C293.719 117.571 291.025 114.907 287.7 114.907C284.376 114.907 281.682 117.571 281.682 120.858C281.682 124.144 284.376 126.808 287.7 126.808Z" stroke="#485F62" stroke-width="0.9124" stroke-miterlimit="10"/>
<line x1="285.64" y1="18.7666" x2="241.773" y2="18.7666" stroke="#485F62"/>
<path d="M64.3228 24V7.6H68.9978C69.9144 7.6 70.7478 7.68333 71.4978 7.85C72.2644 8.01667 72.9144 8.29167 73.4478 8.675C73.9811 9.04167 74.3978 9.53333 74.6978 10.15C74.9978 10.7667 75.1478 11.525 75.1478 12.425C75.1478 13.2917 74.9978 14.0417 74.6978 14.675C74.4144 15.3083 74.0061 15.8333 73.4728 16.25C72.9394 16.6667 72.2978 16.9833 71.5478 17.2C70.8144 17.4 69.9978 17.5 69.0978 17.5H66.3978V24H64.3228ZM66.3978 15.8H68.8478C70.2811 15.8 71.3394 15.5333 72.0228 15C72.7228 14.45 73.0728 13.5917 73.0728 12.425C73.0728 11.2417 72.7061 10.425 71.9728 9.975C71.2561 9.50833 70.1811 9.275 68.7478 9.275H66.3978V15.8ZM80.0087 24.3C78.992 24.3 78.142 24 77.4587 23.4C76.792 22.8 76.4587 21.95 76.4587 20.85C76.4587 19.5167 77.0504 18.5 78.2337 17.8C79.417 17.0833 81.3087 16.5833 83.9087 16.3C83.9087 15.9167 83.867 15.5417 83.7837 15.175C83.717 14.8083 83.592 14.4833 83.4087 14.2C83.2254 13.9167 82.967 13.6917 82.6337 13.525C82.317 13.3417 81.9087 13.25 81.4087 13.25C80.7087 13.25 80.0504 13.3833 79.4337 13.65C78.817 13.9167 78.267 14.2167 77.7837 14.55L76.9837 13.125C77.5504 12.7583 78.242 12.4083 79.0587 12.075C79.8754 11.725 80.7754 11.55 81.7587 11.55C83.242 11.55 84.317 12.0083 84.9837 12.925C85.6504 13.825 85.9837 15.0333 85.9837 16.55V24H84.2837L84.1087 22.55H84.0337C83.4504 23.0333 82.8254 23.45 82.1587 23.8C81.492 24.1333 80.7754 24.3 80.0087 24.3ZM80.6087 22.65C81.192 22.65 81.742 22.5167 82.2587 22.25C82.7754 21.9667 83.3254 21.5583 83.9087 21.025V17.65C82.892 17.7833 82.0337 17.9417 81.3337 18.125C80.6504 18.3083 80.092 18.525 79.6587 18.775C79.242 19.025 78.9337 19.3167 78.7337 19.65C78.5504 19.9667 78.4587 20.3167 78.4587 20.7C78.4587 21.4 78.667 21.9 79.0837 22.2C79.5004 22.5 80.0087 22.65 80.6087 22.65ZM89.8063 24V11.85H91.5063L91.6813 14.05H91.7563C92.173 13.2833 92.673 12.675 93.2563 12.225C93.8563 11.775 94.5063 11.55 95.2063 11.55C95.6897 11.55 96.123 11.6333 96.5063 11.8L96.1063 13.6C95.9063 13.5333 95.723 13.4833 95.5563 13.45C95.3897 13.4167 95.1813 13.4 94.9313 13.4C94.4147 13.4 93.873 13.6083 93.3063 14.025C92.7563 14.4417 92.273 15.1667 91.8563 16.2V24H89.8063ZM102.298 24.3C101.648 24.3 101.098 24.2 100.648 24C100.215 23.8 99.8567 23.525 99.5733 23.175C99.3067 22.825 99.115 22.4 98.9983 21.9C98.8817 21.4 98.8233 20.85 98.8233 20.25V13.525H97.0233V11.975L98.9233 11.85L99.1733 8.45H100.898V11.85H104.173V13.525H100.898V20.275C100.898 21.025 101.032 21.6083 101.298 22.025C101.582 22.425 102.073 22.625 102.773 22.625C102.99 22.625 103.223 22.5917 103.473 22.525C103.723 22.4583 103.948 22.3833 104.148 22.3L104.548 23.85C104.215 23.9667 103.848 24.0667 103.448 24.15C103.065 24.25 102.682 24.3 102.298 24.3ZM106.921 24V11.85H108.971V24H106.921ZM107.971 9.35C107.571 9.35 107.229 9.225 106.946 8.975C106.679 8.725 106.546 8.40833 106.546 8.025C106.546 7.625 106.679 7.30833 106.946 7.075C107.229 6.825 107.571 6.7 107.971 6.7C108.371 6.7 108.704 6.825 108.971 7.075C109.254 7.30833 109.396 7.625 109.396 8.025C109.396 8.40833 109.254 8.725 108.971 8.975C108.704 9.225 108.371 9.35 107.971 9.35ZM113.073 24V11.85H114.773L114.948 14.05H115.023C115.44 13.2833 115.94 12.675 116.523 12.225C117.123 11.775 117.773 11.55 118.473 11.55C118.956 11.55 119.39 11.6333 119.773 11.8L119.373 13.6C119.173 13.5333 118.99 13.4833 118.823 13.45C118.656 13.4167 118.448 13.4 118.198 13.4C117.681 13.4 117.14 13.6083 116.573 14.025C116.023 14.4417 115.54 15.1667 115.123 16.2V24H113.073ZM129.545 24.3C128.528 24.3 127.678 24 126.995 23.4C126.328 22.8 125.995 21.95 125.995 20.85C125.995 19.5167 126.586 18.5 127.77 17.8C128.953 17.0833 130.845 16.5833 133.445 16.3C133.445 15.9167 133.403 15.5417 133.32 15.175C133.253 14.8083 133.128 14.4833 132.945 14.2C132.761 13.9167 132.503 13.6917 132.17 13.525C131.853 13.3417 131.445 13.25 130.945 13.25C130.245 13.25 129.586 13.3833 128.97 13.65C128.353 13.9167 127.803 14.2167 127.32 14.55L126.52 13.125C127.086 12.7583 127.778 12.4083 128.595 12.075C129.411 11.725 130.311 11.55 131.295 11.55C132.778 11.55 133.853 12.0083 134.52 12.925C135.186 13.825 135.52 15.0333 135.52 16.55V24H133.82L133.645 22.55H133.57C132.986 23.0333 132.361 23.45 131.695 23.8C131.028 24.1333 130.311 24.3 129.545 24.3ZM130.145 22.65C130.728 22.65 131.278 22.5167 131.795 22.25C132.311 21.9667 132.861 21.5583 133.445 21.025V17.65C132.428 17.7833 131.57 17.9417 130.87 18.125C130.186 18.3083 129.628 18.525 129.195 18.775C128.778 19.025 128.47 19.3167 128.27 19.65C128.086 19.9667 127.995 20.3167 127.995 20.7C127.995 21.4 128.203 21.9 128.62 22.2C129.036 22.5 129.545 22.65 130.145 22.65ZM131.595 9.675L127.67 5.85L129.12 4.475L132.645 8.65L131.595 9.675ZM146.522 24.3C145.739 24.3 145.181 24.0667 144.847 23.6C144.514 23.1333 144.347 22.45 144.347 21.55V6.2H146.397V21.7C146.397 22.0333 146.456 22.2667 146.572 22.4C146.689 22.5333 146.822 22.6 146.972 22.6C147.039 22.6 147.097 22.6 147.147 22.6C147.214 22.6 147.306 22.5833 147.422 22.55L147.697 24.1C147.564 24.1667 147.406 24.2167 147.222 24.25C147.039 24.2833 146.806 24.3 146.522 24.3ZM150.819 13.225L150.244 12.275C150.878 11.8583 151.344 11.4167 151.644 10.95C151.961 10.4667 152.119 9.86667 152.119 9.15C152.069 9.16667 152.003 9.175 151.919 9.175C151.569 9.175 151.261 9.06667 150.994 8.85C150.728 8.63333 150.594 8.325 150.594 7.925C150.594 7.49167 150.719 7.15 150.969 6.9C151.219 6.65 151.536 6.525 151.919 6.525C152.403 6.525 152.786 6.725 153.069 7.125C153.353 7.50833 153.494 8.06667 153.494 8.8C153.494 9.8 153.261 10.6667 152.794 11.4C152.344 12.1167 151.686 12.725 150.819 13.225ZM158.109 24.3C157.093 24.3 156.243 24 155.559 23.4C154.893 22.8 154.559 21.95 154.559 20.85C154.559 19.5167 155.151 18.5 156.334 17.8C157.518 17.0833 159.409 16.5833 162.009 16.3C162.009 15.9167 161.968 15.5417 161.884 15.175C161.818 14.8083 161.693 14.4833 161.509 14.2C161.326 13.9167 161.068 13.6917 160.734 13.525C160.418 13.3417 160.009 13.25 159.509 13.25C158.809 13.25 158.151 13.3833 157.534 13.65C156.918 13.9167 156.368 14.2167 155.884 14.55L155.084 13.125C155.651 12.7583 156.343 12.4083 157.159 12.075C157.976 11.725 158.876 11.55 159.859 11.55C161.343 11.55 162.418 12.0083 163.084 12.925C163.751 13.825 164.084 15.0333 164.084 16.55V24H162.384L162.209 22.55H162.134C161.551 23.0333 160.926 23.45 160.259 23.8C159.593 24.1333 158.876 24.3 158.109 24.3ZM158.709 22.65C159.293 22.65 159.843 22.5167 160.359 22.25C160.876 21.9667 161.426 21.5583 162.009 21.025V17.65C160.993 17.7833 160.134 17.9417 159.434 18.125C158.751 18.3083 158.193 18.525 157.759 18.775C157.343 19.025 157.034 19.3167 156.834 19.65C156.651 19.9667 156.559 20.3167 156.559 20.7C156.559 21.4 156.768 21.9 157.184 22.2C157.601 22.5 158.109 22.65 158.709 22.65ZM170.532 24L166.157 11.85H168.282L170.582 18.75C170.765 19.35 170.949 19.95 171.132 20.55C171.332 21.15 171.524 21.7417 171.707 22.325H171.807C171.99 21.7417 172.174 21.15 172.357 20.55C172.54 19.95 172.724 19.35 172.907 18.75L175.207 11.85H177.232L172.932 24H170.532ZM184.404 24.3C183.588 24.3 182.821 24.1583 182.104 23.875C181.404 23.575 180.788 23.1583 180.254 22.625C179.738 22.075 179.329 21.4083 179.029 20.625C178.729 19.8417 178.579 18.95 178.579 17.95C178.579 16.95 178.729 16.0583 179.029 15.275C179.346 14.475 179.754 13.8 180.254 13.25C180.771 12.7 181.354 12.2833 182.004 12C182.654 11.7 183.329 11.55 184.029 11.55C184.796 11.55 185.479 11.6833 186.079 11.95C186.696 12.2167 187.204 12.6 187.604 13.1C188.021 13.6 188.338 14.2 188.554 14.9C188.771 15.6 188.879 16.3833 188.879 17.25C188.879 17.4667 188.871 17.6833 188.854 17.9C188.854 18.1 188.838 18.275 188.804 18.425H180.604C180.688 19.725 181.088 20.7583 181.804 21.525C182.538 22.275 183.488 22.65 184.654 22.65C185.238 22.65 185.771 22.5667 186.254 22.4C186.754 22.2167 187.229 21.9833 187.679 21.7L188.404 23.05C187.871 23.3833 187.279 23.675 186.629 23.925C185.979 24.175 185.238 24.3 184.404 24.3ZM180.579 16.95H187.079C187.079 15.7167 186.813 14.7833 186.279 14.15C185.763 13.5 185.029 13.175 184.079 13.175C183.646 13.175 183.229 13.2583 182.829 13.425C182.446 13.5917 182.096 13.8417 181.779 14.175C181.463 14.4917 181.196 14.8833 180.979 15.35C180.779 15.8167 180.646 16.35 180.579 16.95ZM191.882 24V11.85H193.582L193.757 13.6H193.832C194.415 13.0167 195.023 12.5333 195.657 12.15C196.307 11.75 197.057 11.55 197.907 11.55C199.19 11.55 200.123 11.95 200.707 12.75C201.307 13.55 201.607 14.7333 201.607 16.3V24H199.557V16.575C199.557 15.425 199.373 14.6 199.007 14.1C198.64 13.5833 198.057 13.325 197.257 13.325C196.623 13.325 196.065 13.4833 195.582 13.8C195.098 14.1167 194.548 14.5833 193.932 15.2V24H191.882ZM209.103 24.3C207.803 24.3 206.853 23.9 206.253 23.1C205.67 22.3 205.378 21.1167 205.378 19.55V11.85H207.453V19.275C207.453 20.425 207.628 21.2583 207.978 21.775C208.345 22.275 208.928 22.525 209.728 22.525C210.362 22.525 210.92 22.3667 211.403 22.05C211.887 21.7167 212.42 21.1917 213.003 20.475V11.85H215.053V24H213.353L213.178 22.1H213.103C212.537 22.7667 211.937 23.3 211.303 23.7C210.687 24.1 209.953 24.3 209.103 24.3ZM219.152 24V11.85H220.852L221.027 14.05H221.102C221.519 13.2833 222.019 12.675 222.602 12.225C223.202 11.775 223.852 11.55 224.552 11.55C225.035 11.55 225.469 11.6333 225.852 11.8L225.452 13.6C225.252 13.5333 225.069 13.4833 224.902 13.45C224.735 13.4167 224.527 13.4 224.277 13.4C223.76 13.4 223.219 13.6083 222.652 14.025C222.102 14.4417 221.619 15.1667 221.202 16.2V24H219.152ZM232.5 24.3C231.683 24.3 230.917 24.1583 230.2 23.875C229.5 23.575 228.883 23.1583 228.35 22.625C227.833 22.075 227.425 21.4083 227.125 20.625C226.825 19.8417 226.675 18.95 226.675 17.95C226.675 16.95 226.825 16.0583 227.125 15.275C227.442 14.475 227.85 13.8 228.35 13.25C228.867 12.7 229.45 12.2833 230.1 12C230.75 11.7 231.425 11.55 232.125 11.55C232.892 11.55 233.575 11.6833 234.175 11.95C234.792 12.2167 235.3 12.6 235.7 13.1C236.117 13.6 236.433 14.2 236.65 14.9C236.867 15.6 236.975 16.3833 236.975 17.25C236.975 17.4667 236.967 17.6833 236.95 17.9C236.95 18.1 236.933 18.275 236.9 18.425H228.7C228.783 19.725 229.183 20.7583 229.9 21.525C230.633 22.275 231.583 22.65 232.75 22.65C233.333 22.65 233.867 22.5667 234.35 22.4C234.85 22.2167 235.325 21.9833 235.775 21.7L236.5 23.05C235.967 23.3833 235.375 23.675 234.725 23.925C234.075 24.175 233.333 24.3 232.5 24.3ZM228.675 16.95H235.175C235.175 15.7167 234.908 14.7833 234.375 14.15C233.858 13.5 233.125 13.175 232.175 13.175C231.742 13.175 231.325 13.2583 230.925 13.425C230.542 13.5917 230.192 13.8417 229.875 14.175C229.558 14.4917 229.292 14.8833 229.075 15.35C228.875 15.8167 228.742 16.35 228.675 16.95Z" fill="#485F62"/>
</svg>
