<svg width="349" height="381" viewBox="0 0 349 381" fill="none" xmlns="http://www.w3.org/2000/svg">
<path d="M310.586 325.296C310.586 325.471 310.763 325.471 310.763 325.646C318.552 337.372 318.552 354.348 318.375 368.524" stroke="white" stroke-width="0.9124" stroke-miterlimit="10"/>
<path d="M301.38 317.596C287.749 310.071 266.86 306.92 262.612 292.919" stroke="white" stroke-width="0.9124" stroke-miterlimit="10"/>
<path d="M262.789 281.193C265.267 272.793 273.588 268.768 280.314 263.867C291.467 255.817 300.672 246.191 304.036 233.24" stroke="white" stroke-width="0.9124" stroke-miterlimit="10"/>
<path d="M287.75 167.436C288.458 171.811 289.874 176.187 291.998 180.387C299.256 193.863 305.629 206.114 305.452 221.515" stroke="white" stroke-width="0.9124" stroke-miterlimit="10"/>
<path d="M287.396 155.535C288.635 140.659 296.07 125.608 305.629 113.532" stroke="white" stroke-width="0.9124" stroke-miterlimit="10"/>
<path d="M313.772 104.607C316.25 102.332 318.552 100.232 321.03 98.4819C331.12 91.1314 340.149 79.5807 342.096 67.5049" stroke="white" stroke-width="0.9124" stroke-miterlimit="10"/>
<path d="M307.399 12.9004C309.701 35.8269 325.633 31.9766 336.077 45.2775C338.733 48.6027 340.503 52.103 341.388 55.6032" stroke="white" stroke-width="0.9124" stroke-miterlimit="10"/>
<path d="M307.045 12.9008C310.369 12.9008 313.064 10.2367 313.064 6.95039C313.064 3.66408 310.369 1 307.045 1C303.721 1 301.026 3.66408 301.026 6.95039C301.026 10.2367 303.721 12.9008 307.045 12.9008Z" fill="white" stroke="white" stroke-width="0.9124" stroke-miterlimit="10"/>
<path d="M318.375 380.25C321.699 380.25 324.394 377.586 324.394 374.3C324.394 371.013 321.699 368.349 318.375 368.349C315.051 368.349 312.356 371.013 312.356 374.3C312.356 377.586 315.051 380.25 318.375 380.25Z" stroke="white" stroke-width="0.9124" stroke-miterlimit="10"/>
<path d="M262.019 292.509C265.343 292.509 268.038 289.845 268.038 286.559C268.038 283.272 265.343 280.608 262.019 280.608C258.695 280.608 256 283.272 256 286.559C256 289.845 258.695 292.509 262.019 292.509Z" stroke="white" stroke-width="0.9124" stroke-miterlimit="10"/>
<path d="M304.859 232.83C308.183 232.83 310.877 230.166 310.877 226.88C310.877 223.593 308.183 220.929 304.859 220.929C301.535 220.929 298.84 223.593 298.84 226.88C298.84 230.166 301.535 232.83 304.859 232.83Z" stroke="white" stroke-width="0.9124" stroke-miterlimit="10"/>
<path d="M306.275 326.636C309.599 326.636 312.294 323.972 312.294 320.686C312.294 317.399 309.599 314.735 306.275 314.735C302.951 314.735 300.256 317.399 300.256 320.686C300.256 323.972 302.951 326.636 306.275 326.636Z" stroke="white" stroke-width="0.9124" stroke-miterlimit="10"/>
<path d="M287.333 167.026C290.657 167.026 293.352 164.362 293.352 161.075C293.352 157.789 290.657 155.125 287.333 155.125C284.009 155.125 281.314 157.789 281.314 161.075C281.314 164.362 284.009 167.026 287.333 167.026Z" stroke="white" stroke-width="0.9124" stroke-miterlimit="10"/>
<path d="M342.096 67.5043C345.42 67.5043 348.115 64.8402 348.115 61.5539C348.115 58.2676 345.42 55.6035 342.096 55.6035C338.772 55.6035 336.077 58.2676 336.077 61.5539C336.077 64.8402 338.772 67.5043 342.096 67.5043Z" fill="white" stroke="white" stroke-width="0.9124" stroke-miterlimit="10"/>
<path d="M309.7 114.933C313.025 114.933 315.719 112.269 315.719 108.983C315.719 105.696 313.025 103.032 309.7 103.032C306.376 103.032 303.682 105.696 303.682 108.983C303.682 112.269 306.376 114.933 309.7 114.933Z" fill="white" stroke="white" stroke-width="0.9124" stroke-miterlimit="10"/>
<line x1="309.867" y1="109.625" x2="266" y2="109.625" stroke="white"/>
<path d="M41.8374 113.125V96.725H45.9374C48.4707 96.725 50.3957 97.425 51.7124 98.825C53.0291 100.225 53.6874 102.233 53.6874 104.85C53.6874 106.15 53.5207 107.317 53.1874 108.35C52.8541 109.367 52.3624 110.233 51.7124 110.95C51.0624 111.65 50.2624 112.192 49.3124 112.575C48.3624 112.942 47.2707 113.125 46.0374 113.125H41.8374ZM43.9124 111.425H45.7874C47.7041 111.425 49.1374 110.85 50.0874 109.7C51.0541 108.55 51.5374 106.933 51.5374 104.85C51.5374 102.767 51.0541 101.175 50.0874 100.075C49.1374 98.975 47.7041 98.425 45.7874 98.425H43.9124V111.425ZM61.9433 113.425C61.1266 113.425 60.3599 113.283 59.6433 113C58.9433 112.7 58.3266 112.283 57.7933 111.75C57.2766 111.2 56.8683 110.533 56.5683 109.75C56.2683 108.967 56.1183 108.075 56.1183 107.075C56.1183 106.075 56.2683 105.183 56.5683 104.4C56.8849 103.6 57.2933 102.925 57.7933 102.375C58.3099 101.825 58.8933 101.408 59.5433 101.125C60.1933 100.825 60.8683 100.675 61.5683 100.675C62.3349 100.675 63.0183 100.808 63.6183 101.075C64.2349 101.342 64.7433 101.725 65.1433 102.225C65.5599 102.725 65.8766 103.325 66.0933 104.025C66.3099 104.725 66.4183 105.508 66.4183 106.375C66.4183 106.592 66.4099 106.808 66.3933 107.025C66.3933 107.225 66.3766 107.4 66.3433 107.55H58.1433C58.2266 108.85 58.6266 109.883 59.3433 110.65C60.0766 111.4 61.0266 111.775 62.1933 111.775C62.7766 111.775 63.3099 111.692 63.7933 111.525C64.2933 111.342 64.7683 111.108 65.2183 110.825L65.9433 112.175C65.4099 112.508 64.8183 112.8 64.1683 113.05C63.5183 113.3 62.7766 113.425 61.9433 113.425ZM58.1183 106.075H64.6183C64.6183 104.842 64.3516 103.908 63.8183 103.275C63.3016 102.625 62.5683 102.3 61.6183 102.3C61.1849 102.3 60.7683 102.383 60.3683 102.55C59.9849 102.717 59.6349 102.967 59.3183 103.3C59.0016 103.617 58.7349 104.008 58.5183 104.475C58.3183 104.942 58.1849 105.475 58.1183 106.075ZM61.2433 98.8L60.1933 97.775L63.7183 93.6L65.1683 94.975L61.2433 98.8ZM74.7956 113.425C74.2289 113.425 73.6373 113.292 73.0206 113.025C72.4206 112.742 71.8539 112.358 71.3206 111.875H71.2456L71.0706 113.125H69.4206V95.325H71.4706V100.175L71.4206 102.375C71.9706 101.892 72.5706 101.492 73.2206 101.175C73.8706 100.842 74.5373 100.675 75.2206 100.675C76.0039 100.675 76.6956 100.825 77.2956 101.125C77.8956 101.408 78.3956 101.825 78.7956 102.375C79.2123 102.908 79.5206 103.558 79.7206 104.325C79.9373 105.075 80.0456 105.917 80.0456 106.85C80.0456 107.883 79.9039 108.808 79.6206 109.625C79.3373 110.442 78.9539 111.133 78.4706 111.7C77.9873 112.267 77.4289 112.7 76.7956 113C76.1623 113.283 75.4956 113.425 74.7956 113.425ZM74.4456 111.7C74.9456 111.7 75.4039 111.592 75.8206 111.375C76.2539 111.142 76.6206 110.825 76.9206 110.425C77.2373 110.008 77.4789 109.5 77.6456 108.9C77.8289 108.3 77.9206 107.625 77.9206 106.875C77.9206 106.208 77.8623 105.6 77.7456 105.05C77.6289 104.5 77.4373 104.033 77.1706 103.65C76.9206 103.25 76.5873 102.942 76.1706 102.725C75.7706 102.508 75.2873 102.4 74.7206 102.4C73.7373 102.4 72.6539 102.95 71.4706 104.05V110.425C72.0039 110.892 72.5289 111.225 73.0456 111.425C73.5789 111.608 74.0456 111.7 74.4456 111.7ZM86.789 113.425C85.489 113.425 84.539 113.025 83.939 112.225C83.3556 111.425 83.064 110.242 83.064 108.675V100.975H85.139V108.4C85.139 109.55 85.314 110.383 85.664 110.9C86.0306 111.4 86.614 111.65 87.414 111.65C88.0473 111.65 88.6056 111.492 89.089 111.175C89.5723 110.842 90.1056 110.317 90.689 109.6V100.975H92.739V113.125H91.039L90.864 111.225H90.789C90.2223 111.892 89.6223 112.425 88.989 112.825C88.3723 113.225 87.639 113.425 86.789 113.425ZM100.663 113.425C100.013 113.425 99.4626 113.325 99.0126 113.125C98.5793 112.925 98.2209 112.65 97.9376 112.3C97.6709 111.95 97.4793 111.525 97.3626 111.025C97.2459 110.525 97.1876 109.975 97.1876 109.375V102.65H95.3876V101.1L97.2876 100.975L97.5376 97.575H99.2626V100.975H102.538V102.65H99.2626V109.4C99.2626 110.15 99.3959 110.733 99.6626 111.15C99.9459 111.55 100.438 111.75 101.138 111.75C101.354 111.75 101.588 111.717 101.838 111.65C102.088 111.583 102.313 111.508 102.513 111.425L102.913 112.975C102.579 113.092 102.213 113.192 101.813 113.275C101.429 113.375 101.046 113.425 100.663 113.425ZM114.44 113.425C112.906 113.425 111.681 112.875 110.765 111.775C109.865 110.675 109.415 109.108 109.415 107.075C109.415 106.092 109.556 105.208 109.84 104.425C110.14 103.625 110.531 102.95 111.015 102.4C111.498 101.85 112.056 101.425 112.69 101.125C113.323 100.825 113.99 100.675 114.69 100.675C115.39 100.675 115.998 100.8 116.515 101.05C117.031 101.3 117.556 101.642 118.09 102.075L117.99 100V95.325H120.065V113.125H118.365L118.19 111.7H118.115C117.631 112.167 117.073 112.575 116.44 112.925C115.823 113.258 115.156 113.425 114.44 113.425ZM114.89 111.7C115.456 111.7 115.99 111.567 116.49 111.3C116.99 111.017 117.49 110.592 117.99 110.025V103.675C117.473 103.208 116.973 102.883 116.49 102.7C116.023 102.5 115.54 102.4 115.04 102.4C114.556 102.4 114.098 102.517 113.665 102.75C113.248 102.967 112.881 103.283 112.565 103.7C112.248 104.1 111.998 104.583 111.815 105.15C111.631 105.717 111.54 106.35 111.54 107.05C111.54 108.517 111.831 109.658 112.415 110.475C112.998 111.292 113.823 111.7 114.89 111.7ZM129.082 113.425C128.265 113.425 127.499 113.283 126.782 113C126.082 112.7 125.465 112.283 124.932 111.75C124.415 111.2 124.007 110.533 123.707 109.75C123.407 108.967 123.257 108.075 123.257 107.075C123.257 106.075 123.407 105.183 123.707 104.4C124.024 103.6 124.432 102.925 124.932 102.375C125.449 101.825 126.032 101.408 126.682 101.125C127.332 100.825 128.007 100.675 128.707 100.675C129.474 100.675 130.157 100.808 130.757 101.075C131.374 101.342 131.882 101.725 132.282 102.225C132.699 102.725 133.015 103.325 133.232 104.025C133.449 104.725 133.557 105.508 133.557 106.375C133.557 106.592 133.549 106.808 133.532 107.025C133.532 107.225 133.515 107.4 133.482 107.55H125.282C125.365 108.85 125.765 109.883 126.482 110.65C127.215 111.4 128.165 111.775 129.332 111.775C129.915 111.775 130.449 111.692 130.932 111.525C131.432 111.342 131.907 111.108 132.357 110.825L133.082 112.175C132.549 112.508 131.957 112.8 131.307 113.05C130.657 113.3 129.915 113.425 129.082 113.425ZM125.257 106.075H131.757C131.757 104.842 131.49 103.908 130.957 103.275C130.44 102.625 129.707 102.3 128.757 102.3C128.324 102.3 127.907 102.383 127.507 102.55C127.124 102.717 126.774 102.967 126.457 103.3C126.14 103.617 125.874 104.008 125.657 104.475C125.457 104.942 125.324 105.475 125.257 106.075ZM143.739 113.425C142.956 113.425 142.397 113.192 142.064 112.725C141.731 112.258 141.564 111.575 141.564 110.675V95.325H143.614V110.825C143.614 111.158 143.672 111.392 143.789 111.525C143.906 111.658 144.039 111.725 144.189 111.725C144.256 111.725 144.314 111.725 144.364 111.725C144.431 111.725 144.522 111.708 144.639 111.675L144.914 113.225C144.781 113.292 144.622 113.342 144.439 113.375C144.256 113.408 144.022 113.425 143.739 113.425ZM150.736 113.425C149.72 113.425 148.87 113.125 148.186 112.525C147.52 111.925 147.186 111.075 147.186 109.975C147.186 108.642 147.778 107.625 148.961 106.925C150.145 106.208 152.036 105.708 154.636 105.425C154.636 105.042 154.595 104.667 154.511 104.3C154.445 103.933 154.32 103.608 154.136 103.325C153.953 103.042 153.695 102.817 153.361 102.65C153.045 102.467 152.636 102.375 152.136 102.375C151.436 102.375 150.778 102.508 150.161 102.775C149.545 103.042 148.995 103.342 148.511 103.675L147.711 102.25C148.278 101.883 148.97 101.533 149.786 101.2C150.603 100.85 151.503 100.675 152.486 100.675C153.97 100.675 155.045 101.133 155.711 102.05C156.378 102.95 156.711 104.158 156.711 105.675V113.125H155.011L154.836 111.675H154.761C154.178 112.158 153.553 112.575 152.886 112.925C152.22 113.258 151.503 113.425 150.736 113.425ZM151.336 111.775C151.92 111.775 152.47 111.642 152.986 111.375C153.503 111.092 154.053 110.683 154.636 110.15V106.775C153.62 106.908 152.761 107.067 152.061 107.25C151.378 107.433 150.82 107.65 150.386 107.9C149.97 108.15 149.661 108.442 149.461 108.775C149.278 109.092 149.186 109.442 149.186 109.825C149.186 110.525 149.395 111.025 149.811 111.325C150.228 111.625 150.736 111.775 151.336 111.775ZM169.364 113.425C168.714 113.425 168.164 113.325 167.714 113.125C167.28 112.925 166.922 112.65 166.639 112.3C166.372 111.95 166.18 111.525 166.064 111.025C165.947 110.525 165.889 109.975 165.889 109.375V102.65H164.089V101.1L165.989 100.975L166.239 97.575H167.964V100.975H171.239V102.65H167.964V109.4C167.964 110.15 168.097 110.733 168.364 111.15C168.647 111.55 169.139 111.75 169.839 111.75C170.055 111.75 170.289 111.717 170.539 111.65C170.789 111.583 171.014 111.508 171.214 111.425L171.614 112.975C171.28 113.092 170.914 113.192 170.514 113.275C170.13 113.375 169.747 113.425 169.364 113.425ZM173.986 113.125V100.975H175.686L175.861 103.175H175.936C176.353 102.408 176.853 101.8 177.436 101.35C178.036 100.9 178.686 100.675 179.386 100.675C179.869 100.675 180.303 100.758 180.686 100.925L180.286 102.725C180.086 102.658 179.903 102.608 179.736 102.575C179.569 102.542 179.361 102.525 179.111 102.525C178.594 102.525 178.053 102.733 177.486 103.15C176.936 103.567 176.453 104.292 176.036 105.325V113.125H173.986ZM184.843 113.425C183.826 113.425 182.976 113.125 182.293 112.525C181.626 111.925 181.293 111.075 181.293 109.975C181.293 108.642 181.884 107.625 183.068 106.925C184.251 106.208 186.143 105.708 188.743 105.425C188.743 105.042 188.701 104.667 188.618 104.3C188.551 103.933 188.426 103.608 188.243 103.325C188.059 103.042 187.801 102.817 187.468 102.65C187.151 102.467 186.743 102.375 186.243 102.375C185.543 102.375 184.884 102.508 184.268 102.775C183.651 103.042 183.101 103.342 182.618 103.675L181.818 102.25C182.384 101.883 183.076 101.533 183.893 101.2C184.709 100.85 185.609 100.675 186.593 100.675C188.076 100.675 189.151 101.133 189.818 102.05C190.484 102.95 190.818 104.158 190.818 105.675V113.125H189.118L188.943 111.675H188.868C188.284 112.158 187.659 112.575 186.993 112.925C186.326 113.258 185.609 113.425 184.843 113.425ZM185.443 111.775C186.026 111.775 186.576 111.642 187.093 111.375C187.609 111.092 188.159 110.683 188.743 110.15V106.775C187.726 106.908 186.868 107.067 186.168 107.25C185.484 107.433 184.926 107.65 184.493 107.9C184.076 108.15 183.768 108.442 183.568 108.775C183.384 109.092 183.293 109.442 183.293 109.825C183.293 110.525 183.501 111.025 183.918 111.325C184.334 111.625 184.843 111.775 185.443 111.775ZM197.265 113.125L192.89 100.975H195.015L197.315 107.875C197.499 108.475 197.682 109.075 197.865 109.675C198.065 110.275 198.257 110.867 198.44 111.45H198.54C198.724 110.867 198.907 110.275 199.09 109.675C199.274 109.075 199.457 108.475 199.64 107.875L201.94 100.975H203.965L199.665 113.125H197.265ZM211.138 113.425C210.321 113.425 209.554 113.283 208.838 113C208.138 112.7 207.521 112.283 206.988 111.75C206.471 111.2 206.063 110.533 205.763 109.75C205.463 108.967 205.313 108.075 205.313 107.075C205.313 106.075 205.463 105.183 205.763 104.4C206.079 103.6 206.488 102.925 206.988 102.375C207.504 101.825 208.088 101.408 208.738 101.125C209.388 100.825 210.063 100.675 210.763 100.675C211.529 100.675 212.213 100.808 212.813 101.075C213.429 101.342 213.938 101.725 214.338 102.225C214.754 102.725 215.071 103.325 215.288 104.025C215.504 104.725 215.613 105.508 215.613 106.375C215.613 106.592 215.604 106.808 215.588 107.025C215.588 107.225 215.571 107.4 215.538 107.55H207.338C207.421 108.85 207.821 109.883 208.538 110.65C209.271 111.4 210.221 111.775 211.388 111.775C211.971 111.775 212.504 111.692 212.988 111.525C213.488 111.342 213.963 111.108 214.413 110.825L215.138 112.175C214.604 112.508 214.013 112.8 213.363 113.05C212.713 113.3 211.971 113.425 211.138 113.425ZM207.313 106.075H213.813C213.813 104.842 213.546 103.908 213.013 103.275C212.496 102.625 211.763 102.3 210.813 102.3C210.379 102.3 209.963 102.383 209.563 102.55C209.179 102.717 208.829 102.967 208.513 103.3C208.196 103.617 207.929 104.008 207.713 104.475C207.513 104.942 207.379 105.475 207.313 106.075ZM218.615 113.125V100.975H220.315L220.49 103.175H220.565C220.982 102.408 221.482 101.8 222.065 101.35C222.665 100.9 223.315 100.675 224.015 100.675C224.498 100.675 224.932 100.758 225.315 100.925L224.915 102.725C224.715 102.658 224.532 102.608 224.365 102.575C224.198 102.542 223.99 102.525 223.74 102.525C223.223 102.525 222.682 102.733 222.115 103.15C221.565 103.567 221.082 104.292 220.665 105.325V113.125H218.615ZM230.359 113.425C229.493 113.425 228.668 113.267 227.884 112.95C227.101 112.633 226.418 112.233 225.834 111.75L226.859 110.375C227.393 110.808 227.934 111.158 228.484 111.425C229.051 111.692 229.701 111.825 230.434 111.825C231.234 111.825 231.834 111.642 232.234 111.275C232.634 110.908 232.834 110.458 232.834 109.925C232.834 109.608 232.751 109.333 232.584 109.1C232.418 108.867 232.201 108.667 231.934 108.5C231.684 108.317 231.393 108.158 231.059 108.025C230.726 107.892 230.393 107.758 230.059 107.625C229.626 107.475 229.193 107.308 228.759 107.125C228.326 106.925 227.934 106.692 227.584 106.425C227.251 106.142 226.976 105.817 226.759 105.45C226.543 105.083 226.434 104.642 226.434 104.125C226.434 103.642 226.526 103.192 226.709 102.775C226.909 102.342 227.184 101.975 227.534 101.675C227.901 101.358 228.343 101.117 228.859 100.95C229.376 100.767 229.959 100.675 230.609 100.675C231.376 100.675 232.076 100.808 232.709 101.075C233.359 101.342 233.918 101.667 234.384 102.05L233.409 103.35C232.993 103.033 232.559 102.775 232.109 102.575C231.659 102.375 231.168 102.275 230.634 102.275C229.868 102.275 229.301 102.45 228.934 102.8C228.584 103.15 228.409 103.558 228.409 104.025C228.409 104.308 228.484 104.558 228.634 104.775C228.784 104.975 228.984 105.158 229.234 105.325C229.484 105.475 229.768 105.617 230.084 105.75C230.418 105.867 230.759 105.992 231.109 106.125C231.543 106.292 231.976 106.467 232.409 106.65C232.859 106.833 233.259 107.067 233.609 107.35C233.959 107.617 234.243 107.95 234.459 108.35C234.693 108.75 234.809 109.233 234.809 109.8C234.809 110.3 234.709 110.767 234.509 111.2C234.326 111.633 234.043 112.017 233.659 112.35C233.293 112.683 232.826 112.942 232.259 113.125C231.709 113.325 231.076 113.425 230.359 113.425ZM242.583 113.425C241.766 113.425 241 113.283 240.283 113C239.583 112.7 238.966 112.283 238.433 111.75C237.916 111.2 237.508 110.533 237.208 109.75C236.908 108.967 236.758 108.075 236.758 107.075C236.758 106.075 236.908 105.183 237.208 104.4C237.525 103.6 237.933 102.925 238.433 102.375C238.95 101.825 239.533 101.408 240.183 101.125C240.833 100.825 241.508 100.675 242.208 100.675C242.975 100.675 243.658 100.808 244.258 101.075C244.875 101.342 245.383 101.725 245.783 102.225C246.2 102.725 246.516 103.325 246.733 104.025C246.95 104.725 247.058 105.508 247.058 106.375C247.058 106.592 247.05 106.808 247.033 107.025C247.033 107.225 247.016 107.4 246.983 107.55H238.783C238.866 108.85 239.266 109.883 239.983 110.65C240.716 111.4 241.666 111.775 242.833 111.775C243.416 111.775 243.95 111.692 244.433 111.525C244.933 111.342 245.408 111.108 245.858 110.825L246.583 112.175C246.05 112.508 245.458 112.8 244.808 113.05C244.158 113.3 243.416 113.425 242.583 113.425ZM238.758 106.075H245.258C245.258 104.842 244.991 103.908 244.458 103.275C243.941 102.625 243.208 102.3 242.258 102.3C241.825 102.3 241.408 102.383 241.008 102.55C240.625 102.717 240.275 102.967 239.958 103.3C239.641 103.617 239.375 104.008 239.158 104.475C238.958 104.942 238.825 105.475 238.758 106.075ZM241.883 98.8L240.833 97.775L244.358 93.6L245.808 94.975L241.883 98.8ZM254.985 113.425C254.169 113.425 253.402 113.283 252.685 113C251.985 112.7 251.369 112.283 250.835 111.75C250.319 111.2 249.91 110.533 249.61 109.75C249.31 108.967 249.16 108.075 249.16 107.075C249.16 106.075 249.31 105.183 249.61 104.4C249.927 103.6 250.335 102.925 250.835 102.375C251.352 101.825 251.935 101.408 252.585 101.125C253.235 100.825 253.91 100.675 254.61 100.675C255.377 100.675 256.06 100.808 256.66 101.075C257.277 101.342 257.785 101.725 258.185 102.225C258.602 102.725 258.919 103.325 259.135 104.025C259.352 104.725 259.46 105.508 259.46 106.375C259.46 106.592 259.452 106.808 259.435 107.025C259.435 107.225 259.419 107.4 259.385 107.55H251.185C251.269 108.85 251.669 109.883 252.385 110.65C253.119 111.4 254.069 111.775 255.235 111.775C255.819 111.775 256.352 111.692 256.835 111.525C257.335 111.342 257.81 111.108 258.26 110.825L258.985 112.175C258.452 112.508 257.86 112.8 257.21 113.05C256.56 113.3 255.819 113.425 254.985 113.425ZM251.16 106.075H257.66C257.66 104.842 257.394 103.908 256.86 103.275C256.344 102.625 255.61 102.3 254.66 102.3C254.227 102.3 253.81 102.383 253.41 102.55C253.027 102.717 252.677 102.967 252.36 103.3C252.044 103.617 251.777 104.008 251.56 104.475C251.36 104.942 251.227 105.475 251.16 106.075Z" fill="white"/>
</svg>
