<svg width="359" height="393" viewBox="0 0 359 393" fill="none" xmlns="http://www.w3.org/2000/svg">
<path d="M310.586 337.171C310.586 337.346 310.763 337.346 310.763 337.521C318.552 349.247 318.552 366.223 318.375 380.399" stroke="white" stroke-width="0.9124" stroke-miterlimit="10"/>
<path d="M301.38 329.471C287.749 321.946 266.86 318.795 262.612 304.794" stroke="white" stroke-width="0.9124" stroke-miterlimit="10"/>
<path d="M262.789 293.068C265.267 284.668 273.588 280.643 280.314 275.742C291.467 267.692 300.672 258.066 304.036 245.115" stroke="white" stroke-width="0.9124" stroke-miterlimit="10"/>
<path d="M287.75 179.311C288.458 183.686 289.874 188.062 291.998 192.262C299.256 205.738 305.629 217.989 305.452 233.39" stroke="white" stroke-width="0.9124" stroke-miterlimit="10"/>
<path d="M287.396 167.41C288.635 152.534 296.07 137.483 305.629 125.407" stroke="white" stroke-width="0.9124" stroke-miterlimit="10"/>
<path d="M313.772 116.482C316.25 114.207 318.552 112.107 321.03 110.357C331.12 103.006 340.149 91.4557 342.096 79.3799" stroke="white" stroke-width="0.9124" stroke-miterlimit="10"/>
<path d="M307.399 24.7754C309.701 47.7019 325.633 43.8516 336.077 57.1525C338.733 60.4777 340.503 63.978 341.388 67.4782" stroke="white" stroke-width="0.9124" stroke-miterlimit="10"/>
<path d="M307.045 24.7758C310.369 24.7758 313.064 22.1117 313.064 18.8254C313.064 15.5391 310.369 12.875 307.045 12.875C303.721 12.875 301.026 15.5391 301.026 18.8254C301.026 22.1117 303.721 24.7758 307.045 24.7758Z" fill="white" stroke="white" stroke-width="0.9124" stroke-miterlimit="10"/>
<path d="M318.375 392.125C321.699 392.125 324.394 389.461 324.394 386.175C324.394 382.888 321.699 380.224 318.375 380.224C315.051 380.224 312.356 382.888 312.356 386.175C312.356 389.461 315.051 392.125 318.375 392.125Z" stroke="white" stroke-width="0.9124" stroke-miterlimit="10"/>
<path d="M262.019 304.384C265.343 304.384 268.038 301.72 268.038 298.434C268.038 295.147 265.343 292.483 262.019 292.483C258.695 292.483 256 295.147 256 298.434C256 301.72 258.695 304.384 262.019 304.384Z" stroke="white" stroke-width="0.9124" stroke-miterlimit="10"/>
<path d="M304.859 244.705C308.183 244.705 310.877 242.041 310.877 238.755C310.877 235.468 308.183 232.804 304.859 232.804C301.535 232.804 298.84 235.468 298.84 238.755C298.84 242.041 301.535 244.705 304.859 244.705Z" stroke="white" stroke-width="0.9124" stroke-miterlimit="10"/>
<path d="M306.275 338.511C309.599 338.511 312.294 335.847 312.294 332.561C312.294 329.274 309.599 326.61 306.275 326.61C302.951 326.61 300.256 329.274 300.256 332.561C300.256 335.847 302.951 338.511 306.275 338.511Z" stroke="white" stroke-width="0.9124" stroke-miterlimit="10"/>
<path d="M287.333 178.901C290.657 178.901 293.352 176.237 293.352 172.95C293.352 169.664 290.657 167 287.333 167C284.009 167 281.314 169.664 281.314 172.95C281.314 176.237 284.009 178.901 287.333 178.901Z" stroke="white" stroke-width="0.9124" stroke-miterlimit="10"/>
<path d="M342.096 79.3793C345.42 79.3793 348.115 76.7152 348.115 73.4289C348.115 70.1426 345.42 67.4785 342.096 67.4785C338.772 67.4785 336.077 70.1426 336.077 73.4289C336.077 76.7152 338.772 79.3793 342.096 79.3793Z" fill="white" stroke="white" stroke-width="0.9124" stroke-miterlimit="10"/>
<path d="M309.7 126.808C313.025 126.808 315.719 124.144 315.719 120.858C315.719 117.571 313.025 114.907 309.7 114.907C306.376 114.907 303.682 117.571 303.682 120.858C303.682 124.144 306.376 126.808 309.7 126.808Z" fill="white" stroke="white" stroke-width="0.9124" stroke-miterlimit="10"/>
<line x1="307.64" y1="18.7666" x2="263.773" y2="18.7666" stroke="white"/>
<path d="M78.0991 24V7.6H82.7741C83.6908 7.6 84.5241 7.68333 85.2741 7.85C86.0408 8.01667 86.6908 8.29167 87.2241 8.675C87.7575 9.04167 88.1741 9.53333 88.4741 10.15C88.7741 10.7667 88.9241 11.525 88.9241 12.425C88.9241 13.2917 88.7741 14.0417 88.4741 14.675C88.1908 15.3083 87.7825 15.8333 87.2491 16.25C86.7158 16.6667 86.0741 16.9833 85.3241 17.2C84.5908 17.4 83.7741 17.5 82.8741 17.5H80.1741V24H78.0991ZM80.1741 15.8H82.6241C84.0575 15.8 85.1158 15.5333 85.7991 15C86.4991 14.45 86.8491 13.5917 86.8491 12.425C86.8491 11.2417 86.4825 10.425 85.7491 9.975C85.0325 9.50833 83.9575 9.275 82.5241 9.275H80.1741V15.8ZM93.7851 24.3C92.7684 24.3 91.9184 24 91.2351 23.4C90.5684 22.8 90.2351 21.95 90.2351 20.85C90.2351 19.5167 90.8267 18.5 92.0101 17.8C93.1934 17.0833 95.0851 16.5833 97.6851 16.3C97.6851 15.9167 97.6434 15.5417 97.5601 15.175C97.4934 14.8083 97.3684 14.4833 97.1851 14.2C97.0017 13.9167 96.7434 13.6917 96.4101 13.525C96.0934 13.3417 95.6851 13.25 95.1851 13.25C94.4851 13.25 93.8267 13.3833 93.2101 13.65C92.5934 13.9167 92.0434 14.2167 91.5601 14.55L90.7601 13.125C91.3267 12.7583 92.0184 12.4083 92.8351 12.075C93.6517 11.725 94.5517 11.55 95.5351 11.55C97.0184 11.55 98.0934 12.0083 98.7601 12.925C99.4267 13.825 99.7601 15.0333 99.7601 16.55V24H98.0601L97.8851 22.55H97.8101C97.2267 23.0333 96.6017 23.45 95.9351 23.8C95.2684 24.1333 94.5517 24.3 93.7851 24.3ZM94.3851 22.65C94.9684 22.65 95.5184 22.5167 96.0351 22.25C96.5517 21.9667 97.1017 21.5583 97.6851 21.025V17.65C96.6684 17.7833 95.8101 17.9417 95.1101 18.125C94.4267 18.3083 93.8684 18.525 93.4351 18.775C93.0184 19.025 92.7101 19.3167 92.5101 19.65C92.3267 19.9667 92.2351 20.3167 92.2351 20.7C92.2351 21.4 92.4434 21.9 92.8601 22.2C93.2767 22.5 93.7851 22.65 94.3851 22.65ZM103.583 24V11.85H105.283L105.458 14.05H105.533C105.949 13.2833 106.449 12.675 107.033 12.225C107.633 11.775 108.283 11.55 108.983 11.55C109.466 11.55 109.899 11.6333 110.283 11.8L109.883 13.6C109.683 13.5333 109.499 13.4833 109.333 13.45C109.166 13.4167 108.958 13.4 108.708 13.4C108.191 13.4 107.649 13.6083 107.083 14.025C106.533 14.4417 106.049 15.1667 105.633 16.2V24H103.583ZM116.075 24.3C115.425 24.3 114.875 24.2 114.425 24C113.991 23.8 113.633 23.525 113.35 23.175C113.083 22.825 112.891 22.4 112.775 21.9C112.658 21.4 112.6 20.85 112.6 20.25V13.525H110.8V11.975L112.7 11.85L112.95 8.45H114.675V11.85H117.95V13.525H114.675V20.275C114.675 21.025 114.808 21.6083 115.075 22.025C115.358 22.425 115.85 22.625 116.55 22.625C116.766 22.625 117 22.5917 117.25 22.525C117.5 22.4583 117.725 22.3833 117.925 22.3L118.325 23.85C117.991 23.9667 117.625 24.0667 117.225 24.15C116.841 24.25 116.458 24.3 116.075 24.3ZM120.697 24V11.85H122.747V24H120.697ZM121.747 9.35C121.347 9.35 121.005 9.225 120.722 8.975C120.455 8.725 120.322 8.40833 120.322 8.025C120.322 7.625 120.455 7.30833 120.722 7.075C121.005 6.825 121.347 6.7 121.747 6.7C122.147 6.7 122.48 6.825 122.747 7.075C123.03 7.30833 123.172 7.625 123.172 8.025C123.172 8.40833 123.03 8.725 122.747 8.975C122.48 9.225 122.147 9.35 121.747 9.35ZM126.849 24V11.85H128.549L128.724 14.05H128.799C129.216 13.2833 129.716 12.675 130.299 12.225C130.899 11.775 131.549 11.55 132.249 11.55C132.733 11.55 133.166 11.6333 133.549 11.8L133.149 13.6C132.949 13.5333 132.766 13.4833 132.599 13.45C132.433 13.4167 132.224 13.4 131.974 13.4C131.458 13.4 130.916 13.6083 130.349 14.025C129.799 14.4417 129.316 15.1667 128.899 16.2V24H126.849ZM143.321 24.3C142.305 24.3 141.455 24 140.771 23.4C140.105 22.8 139.771 21.95 139.771 20.85C139.771 19.5167 140.363 18.5 141.546 17.8C142.73 17.0833 144.621 16.5833 147.221 16.3C147.221 15.9167 147.18 15.5417 147.096 15.175C147.03 14.8083 146.905 14.4833 146.721 14.2C146.538 13.9167 146.28 13.6917 145.946 13.525C145.63 13.3417 145.221 13.25 144.721 13.25C144.021 13.25 143.363 13.3833 142.746 13.65C142.13 13.9167 141.58 14.2167 141.096 14.55L140.296 13.125C140.863 12.7583 141.555 12.4083 142.371 12.075C143.188 11.725 144.088 11.55 145.071 11.55C146.555 11.55 147.63 12.0083 148.296 12.925C148.963 13.825 149.296 15.0333 149.296 16.55V24H147.596L147.421 22.55H147.346C146.763 23.0333 146.138 23.45 145.471 23.8C144.805 24.1333 144.088 24.3 143.321 24.3ZM143.921 22.65C144.505 22.65 145.055 22.5167 145.571 22.25C146.088 21.9667 146.638 21.5583 147.221 21.025V17.65C146.205 17.7833 145.346 17.9417 144.646 18.125C143.963 18.3083 143.405 18.525 142.971 18.775C142.555 19.025 142.246 19.3167 142.046 19.65C141.863 19.9667 141.771 20.3167 141.771 20.7C141.771 21.4 141.98 21.9 142.396 22.2C142.813 22.5 143.321 22.65 143.921 22.65ZM145.371 9.675L141.446 5.85L142.896 4.475L146.421 8.65L145.371 9.675ZM160.299 24.3C159.515 24.3 158.957 24.0667 158.624 23.6C158.29 23.1333 158.124 22.45 158.124 21.55V6.2H160.174V21.7C160.174 22.0333 160.232 22.2667 160.349 22.4C160.465 22.5333 160.599 22.6 160.749 22.6C160.815 22.6 160.874 22.6 160.924 22.6C160.99 22.6 161.082 22.5833 161.199 22.55L161.474 24.1C161.34 24.1667 161.182 24.2167 160.999 24.25C160.815 24.2833 160.582 24.3 160.299 24.3ZM164.596 13.225L164.021 12.275C164.654 11.8583 165.121 11.4167 165.421 10.95C165.737 10.4667 165.896 9.86667 165.896 9.15C165.846 9.16667 165.779 9.175 165.696 9.175C165.346 9.175 165.037 9.06667 164.771 8.85C164.504 8.63333 164.371 8.325 164.371 7.925C164.371 7.49167 164.496 7.15 164.746 6.9C164.996 6.65 165.312 6.525 165.696 6.525C166.179 6.525 166.562 6.725 166.846 7.125C167.129 7.50833 167.271 8.06667 167.271 8.8C167.271 9.8 167.037 10.6667 166.571 11.4C166.121 12.1167 165.462 12.725 164.596 13.225ZM171.886 24.3C170.869 24.3 170.019 24 169.336 23.4C168.669 22.8 168.336 21.95 168.336 20.85C168.336 19.5167 168.927 18.5 170.111 17.8C171.294 17.0833 173.186 16.5833 175.786 16.3C175.786 15.9167 175.744 15.5417 175.661 15.175C175.594 14.8083 175.469 14.4833 175.286 14.2C175.102 13.9167 174.844 13.6917 174.511 13.525C174.194 13.3417 173.786 13.25 173.286 13.25C172.586 13.25 171.927 13.3833 171.311 13.65C170.694 13.9167 170.144 14.2167 169.661 14.55L168.861 13.125C169.427 12.7583 170.119 12.4083 170.936 12.075C171.752 11.725 172.652 11.55 173.636 11.55C175.119 11.55 176.194 12.0083 176.861 12.925C177.527 13.825 177.861 15.0333 177.861 16.55V24H176.161L175.986 22.55H175.911C175.327 23.0333 174.702 23.45 174.036 23.8C173.369 24.1333 172.652 24.3 171.886 24.3ZM172.486 22.65C173.069 22.65 173.619 22.5167 174.136 22.25C174.652 21.9667 175.202 21.5583 175.786 21.025V17.65C174.769 17.7833 173.911 17.9417 173.211 18.125C172.527 18.3083 171.969 18.525 171.536 18.775C171.119 19.025 170.811 19.3167 170.611 19.65C170.427 19.9667 170.336 20.3167 170.336 20.7C170.336 21.4 170.544 21.9 170.961 22.2C171.377 22.5 171.886 22.65 172.486 22.65ZM184.308 24L179.933 11.85H182.058L184.358 18.75C184.542 19.35 184.725 19.95 184.908 20.55C185.108 21.15 185.3 21.7417 185.483 22.325H185.583C185.767 21.7417 185.95 21.15 186.133 20.55C186.317 19.95 186.5 19.35 186.683 18.75L188.983 11.85H191.008L186.708 24H184.308ZM198.181 24.3C197.364 24.3 196.597 24.1583 195.881 23.875C195.181 23.575 194.564 23.1583 194.031 22.625C193.514 22.075 193.106 21.4083 192.806 20.625C192.506 19.8417 192.356 18.95 192.356 17.95C192.356 16.95 192.506 16.0583 192.806 15.275C193.122 14.475 193.531 13.8 194.031 13.25C194.547 12.7 195.131 12.2833 195.781 12C196.431 11.7 197.106 11.55 197.806 11.55C198.572 11.55 199.256 11.6833 199.856 11.95C200.472 12.2167 200.981 12.6 201.381 13.1C201.797 13.6 202.114 14.2 202.331 14.9C202.547 15.6 202.656 16.3833 202.656 17.25C202.656 17.4667 202.647 17.6833 202.631 17.9C202.631 18.1 202.614 18.275 202.581 18.425H194.381C194.464 19.725 194.864 20.7583 195.581 21.525C196.314 22.275 197.264 22.65 198.431 22.65C199.014 22.65 199.547 22.5667 200.031 22.4C200.531 22.2167 201.006 21.9833 201.456 21.7L202.181 23.05C201.647 23.3833 201.056 23.675 200.406 23.925C199.756 24.175 199.014 24.3 198.181 24.3ZM194.356 16.95H200.856C200.856 15.7167 200.589 14.7833 200.056 14.15C199.539 13.5 198.806 13.175 197.856 13.175C197.422 13.175 197.006 13.2583 196.606 13.425C196.222 13.5917 195.872 13.8417 195.556 14.175C195.239 14.4917 194.972 14.8833 194.756 15.35C194.556 15.8167 194.422 16.35 194.356 16.95ZM205.658 24V11.85H207.358L207.533 13.6H207.608C208.191 13.0167 208.8 12.5333 209.433 12.15C210.083 11.75 210.833 11.55 211.683 11.55C212.966 11.55 213.9 11.95 214.483 12.75C215.083 13.55 215.383 14.7333 215.383 16.3V24H213.333V16.575C213.333 15.425 213.15 14.6 212.783 14.1C212.416 13.5833 211.833 13.325 211.033 13.325C210.4 13.325 209.841 13.4833 209.358 13.8C208.875 14.1167 208.325 14.5833 207.708 15.2V24H205.658ZM223.155 24.3C222.505 24.3 221.955 24.2 221.505 24C221.071 23.8 220.713 23.525 220.43 23.175C220.163 22.825 219.971 22.4 219.855 21.9C219.738 21.4 219.68 20.85 219.68 20.25V13.525H217.88V11.975L219.78 11.85L220.03 8.45H221.755V11.85H225.03V13.525H221.755V20.275C221.755 21.025 221.888 21.6083 222.155 22.025C222.438 22.425 222.93 22.625 223.63 22.625C223.846 22.625 224.08 22.5917 224.33 22.525C224.58 22.4583 224.805 22.3833 225.005 22.3L225.405 23.85C225.071 23.9667 224.705 24.0667 224.305 24.15C223.921 24.25 223.538 24.3 223.155 24.3ZM231.327 24.3C230.027 24.3 229.077 23.9 228.477 23.1C227.894 22.3 227.602 21.1167 227.602 19.55V11.85H229.677V19.275C229.677 20.425 229.852 21.2583 230.202 21.775C230.569 22.275 231.152 22.525 231.952 22.525C232.585 22.525 233.144 22.3667 233.627 22.05C234.11 21.7167 234.644 21.1917 235.227 20.475V11.85H237.277V24H235.577L235.402 22.1H235.327C234.76 22.7667 234.16 23.3 233.527 23.7C232.91 24.1 232.177 24.3 231.327 24.3ZM241.376 24V11.85H243.076L243.251 14.05H243.326C243.742 13.2833 244.242 12.675 244.826 12.225C245.426 11.775 246.076 11.55 246.776 11.55C247.259 11.55 247.692 11.6333 248.076 11.8L247.676 13.6C247.476 13.5333 247.292 13.4833 247.126 13.45C246.959 13.4167 246.751 13.4 246.501 13.4C245.984 13.4 245.442 13.6083 244.876 14.025C244.326 14.4417 243.842 15.1667 243.426 16.2V24H241.376ZM254.724 24.3C253.907 24.3 253.14 24.1583 252.424 23.875C251.724 23.575 251.107 23.1583 250.574 22.625C250.057 22.075 249.649 21.4083 249.349 20.625C249.049 19.8417 248.899 18.95 248.899 17.95C248.899 16.95 249.049 16.0583 249.349 15.275C249.665 14.475 250.074 13.8 250.574 13.25C251.09 12.7 251.674 12.2833 252.324 12C252.974 11.7 253.649 11.55 254.349 11.55C255.115 11.55 255.799 11.6833 256.399 11.95C257.015 12.2167 257.524 12.6 257.924 13.1C258.34 13.6 258.657 14.2 258.874 14.9C259.09 15.6 259.199 16.3833 259.199 17.25C259.199 17.4667 259.19 17.6833 259.174 17.9C259.174 18.1 259.157 18.275 259.124 18.425H250.924C251.007 19.725 251.407 20.7583 252.124 21.525C252.857 22.275 253.807 22.65 254.974 22.65C255.557 22.65 256.09 22.5667 256.574 22.4C257.074 22.2167 257.549 21.9833 257.999 21.7L258.724 23.05C258.19 23.3833 257.599 23.675 256.949 23.925C256.299 24.175 255.557 24.3 254.724 24.3ZM250.899 16.95H257.399C257.399 15.7167 257.132 14.7833 256.599 14.15C256.082 13.5 255.349 13.175 254.399 13.175C253.965 13.175 253.549 13.2583 253.149 13.425C252.765 13.5917 252.415 13.8417 252.099 14.175C251.782 14.4917 251.515 14.8833 251.299 15.35C251.099 15.8167 250.965 16.35 250.899 16.95Z" fill="white"/>
<path d="M342 72.7666H298.133" stroke="white"/>
<path d="M130.152 68.825L129.377 71.325H134.302L133.527 68.825C133.227 67.9083 132.943 67 132.677 66.1C132.41 65.1833 132.143 64.25 131.877 63.3H131.777C131.527 64.25 131.268 65.1833 131.002 66.1C130.735 67 130.452 67.9083 130.152 68.825ZM125.152 78L130.702 61.6H133.052L138.602 78H136.377L134.827 73H128.852L127.277 78H125.152ZM145.65 78.3C144.834 78.3 144.067 78.1583 143.35 77.875C142.65 77.575 142.034 77.1583 141.5 76.625C140.984 76.075 140.575 75.4083 140.275 74.625C139.975 73.8417 139.825 72.95 139.825 71.95C139.825 70.95 139.975 70.0583 140.275 69.275C140.592 68.475 141 67.8 141.5 67.25C142.017 66.7 142.6 66.2833 143.25 66C143.9 65.7 144.575 65.55 145.275 65.55C146.042 65.55 146.725 65.6833 147.325 65.95C147.942 66.2167 148.45 66.6 148.85 67.1C149.267 67.6 149.584 68.2 149.8 68.9C150.017 69.6 150.125 70.3833 150.125 71.25C150.125 71.4667 150.117 71.6833 150.1 71.9C150.1 72.1 150.084 72.275 150.05 72.425H141.85C141.934 73.725 142.334 74.7583 143.05 75.525C143.784 76.275 144.734 76.65 145.9 76.65C146.484 76.65 147.017 76.5667 147.5 76.4C148 76.2167 148.475 75.9833 148.925 75.7L149.65 77.05C149.117 77.3833 148.525 77.675 147.875 77.925C147.225 78.175 146.484 78.3 145.65 78.3ZM141.825 70.95H148.325C148.325 69.7167 148.059 68.7833 147.525 68.15C147.009 67.5 146.275 67.175 145.325 67.175C144.892 67.175 144.475 67.2583 144.075 67.425C143.692 67.5917 143.342 67.8417 143.025 68.175C142.709 68.4917 142.442 68.8833 142.225 69.35C142.025 69.8167 141.892 70.35 141.825 70.95ZM144.95 63.675L143.9 62.65L147.425 58.475L148.875 59.85L144.95 63.675ZM153.128 78V65.85H154.828L155.003 68.05H155.078C155.494 67.2833 155.994 66.675 156.578 66.225C157.178 65.775 157.828 65.55 158.528 65.55C159.011 65.55 159.444 65.6333 159.828 65.8L159.428 67.6C159.228 67.5333 159.044 67.4833 158.878 67.45C158.711 67.4167 158.503 67.4 158.253 67.4C157.736 67.4 157.194 67.6083 156.628 68.025C156.078 68.4417 155.594 69.1667 155.178 70.2V78H153.128ZM166.275 78.3C165.525 78.3 164.809 78.1583 164.125 77.875C163.459 77.5917 162.867 77.1833 162.35 76.65C161.834 76.1 161.417 75.4333 161.1 74.65C160.8 73.85 160.65 72.95 160.65 71.95C160.65 70.9333 160.8 70.0333 161.1 69.25C161.417 68.45 161.834 67.775 162.35 67.225C162.867 66.675 163.459 66.2583 164.125 65.975C164.809 65.6917 165.525 65.55 166.275 65.55C167.025 65.55 167.734 65.6917 168.4 65.975C169.084 66.2583 169.684 66.675 170.2 67.225C170.717 67.775 171.125 68.45 171.425 69.25C171.742 70.0333 171.9 70.9333 171.9 71.95C171.9 72.95 171.742 73.85 171.425 74.65C171.125 75.4333 170.717 76.1 170.2 76.65C169.684 77.1833 169.084 77.5917 168.4 77.875C167.734 78.1583 167.025 78.3 166.275 78.3ZM166.275 76.6C166.792 76.6 167.267 76.4917 167.7 76.275C168.134 76.0417 168.5 75.725 168.8 75.325C169.117 74.9083 169.359 74.4167 169.525 73.85C169.692 73.2833 169.775 72.65 169.775 71.95C169.775 71.25 169.692 70.6167 169.525 70.05C169.359 69.4667 169.117 68.9667 168.8 68.55C168.5 68.1333 168.134 67.8167 167.7 67.6C167.267 67.3667 166.792 67.25 166.275 67.25C165.759 67.25 165.284 67.3667 164.85 67.6C164.417 67.8167 164.042 68.1333 163.725 68.55C163.425 68.9667 163.192 69.4667 163.025 70.05C162.859 70.6167 162.775 71.25 162.775 71.95C162.775 72.65 162.859 73.2833 163.025 73.85C163.192 74.4167 163.425 74.9083 163.725 75.325C164.042 75.725 164.417 76.0417 164.85 76.275C165.284 76.4917 165.759 76.6 166.275 76.6ZM175.1 83.125V65.85H176.8L176.975 67.25H177.05C177.6 66.7833 178.2 66.3833 178.85 66.05C179.517 65.7167 180.209 65.55 180.925 65.55C181.709 65.55 182.4 65.7 183 66C183.6 66.2833 184.1 66.7 184.5 67.25C184.9 67.7833 185.2 68.4333 185.4 69.2C185.617 69.95 185.725 70.8 185.725 71.75C185.725 72.7833 185.584 73.7083 185.3 74.525C185.017 75.325 184.634 76.0083 184.15 76.575C183.667 77.1417 183.109 77.575 182.475 77.875C181.842 78.1583 181.175 78.3 180.475 78.3C179.909 78.3 179.342 78.175 178.775 77.925C178.225 77.675 177.667 77.3333 177.1 76.9L177.15 79.025V83.125H175.1ZM180.125 76.575C180.625 76.575 181.084 76.4667 181.5 76.25C181.934 76.0167 182.3 75.7 182.6 75.3C182.917 74.8833 183.159 74.375 183.325 73.775C183.509 73.175 183.6 72.5 183.6 71.75C183.6 71.0833 183.542 70.475 183.425 69.925C183.309 69.375 183.117 68.9083 182.85 68.525C182.6 68.125 182.267 67.8167 181.85 67.6C181.45 67.3833 180.967 67.275 180.4 67.275C179.884 67.275 179.359 67.4167 178.825 67.7C178.309 67.9833 177.75 68.3917 177.15 68.925V75.3C177.7 75.7667 178.234 76.1 178.75 76.3C179.267 76.4833 179.725 76.575 180.125 76.575ZM193.692 78.3C192.942 78.3 192.226 78.1583 191.542 77.875C190.876 77.5917 190.284 77.1833 189.767 76.65C189.251 76.1 188.834 75.4333 188.517 74.65C188.217 73.85 188.067 72.95 188.067 71.95C188.067 70.9333 188.217 70.0333 188.517 69.25C188.834 68.45 189.251 67.775 189.767 67.225C190.284 66.675 190.876 66.2583 191.542 65.975C192.226 65.6917 192.942 65.55 193.692 65.55C194.442 65.55 195.151 65.6917 195.817 65.975C196.501 66.2583 197.101 66.675 197.617 67.225C198.134 67.775 198.542 68.45 198.842 69.25C199.159 70.0333 199.317 70.9333 199.317 71.95C199.317 72.95 199.159 73.85 198.842 74.65C198.542 75.4333 198.134 76.1 197.617 76.65C197.101 77.1833 196.501 77.5917 195.817 77.875C195.151 78.1583 194.442 78.3 193.692 78.3ZM193.692 76.6C194.209 76.6 194.684 76.4917 195.117 76.275C195.551 76.0417 195.917 75.725 196.217 75.325C196.534 74.9083 196.776 74.4167 196.942 73.85C197.109 73.2833 197.192 72.65 197.192 71.95C197.192 71.25 197.109 70.6167 196.942 70.05C196.776 69.4667 196.534 68.9667 196.217 68.55C195.917 68.1333 195.551 67.8167 195.117 67.6C194.684 67.3667 194.209 67.25 193.692 67.25C193.176 67.25 192.701 67.3667 192.267 67.6C191.834 67.8167 191.459 68.1333 191.142 68.55C190.842 68.9667 190.609 69.4667 190.442 70.05C190.276 70.6167 190.192 71.25 190.192 71.95C190.192 72.65 190.276 73.2833 190.442 73.85C190.609 74.4167 190.842 74.9083 191.142 75.325C191.459 75.725 191.834 76.0417 192.267 76.275C192.701 76.4917 193.176 76.6 193.692 76.6ZM202.517 78V65.85H204.217L204.392 68.05H204.467C204.884 67.2833 205.384 66.675 205.967 66.225C206.567 65.775 207.217 65.55 207.917 65.55C208.401 65.55 208.834 65.6333 209.217 65.8L208.817 67.6C208.617 67.5333 208.434 67.4833 208.267 67.45C208.101 67.4167 207.892 67.4 207.642 67.4C207.126 67.4 206.584 67.6083 206.017 68.025C205.467 68.4417 204.984 69.1667 204.567 70.2V78H202.517ZM215.009 78.3C214.359 78.3 213.809 78.2 213.359 78C212.926 77.8 212.568 77.525 212.284 77.175C212.018 76.825 211.826 76.4 211.709 75.9C211.593 75.4 211.534 74.85 211.534 74.25V67.525H209.734V65.975L211.634 65.85L211.884 62.45H213.609V65.85H216.884V67.525H213.609V74.275C213.609 75.025 213.743 75.6083 214.009 76.025C214.293 76.425 214.784 76.625 215.484 76.625C215.701 76.625 215.934 76.5917 216.184 76.525C216.434 76.4583 216.659 76.3833 216.859 76.3L217.259 77.85C216.926 77.9667 216.559 78.0667 216.159 78.15C215.776 78.25 215.393 78.3 215.009 78.3ZM228.786 78.3C227.253 78.3 226.028 77.75 225.111 76.65C224.211 75.55 223.761 73.9833 223.761 71.95C223.761 70.9667 223.903 70.0833 224.186 69.3C224.486 68.5 224.878 67.825 225.361 67.275C225.845 66.725 226.403 66.3 227.036 66C227.67 65.7 228.336 65.55 229.036 65.55C229.736 65.55 230.345 65.675 230.861 65.925C231.378 66.175 231.903 66.5167 232.436 66.95L232.336 64.875V60.2H234.411V78H232.711L232.536 76.575H232.461C231.978 77.0417 231.42 77.45 230.786 77.8C230.17 78.1333 229.503 78.3 228.786 78.3ZM229.236 76.575C229.803 76.575 230.336 76.4417 230.836 76.175C231.336 75.8917 231.836 75.4667 232.336 74.9V68.55C231.82 68.0833 231.32 67.7583 230.836 67.575C230.37 67.375 229.886 67.275 229.386 67.275C228.903 67.275 228.445 67.3917 228.011 67.625C227.595 67.8417 227.228 68.1583 226.911 68.575C226.595 68.975 226.345 69.4583 226.161 70.025C225.978 70.5917 225.886 71.225 225.886 71.925C225.886 73.3917 226.178 74.5333 226.761 75.35C227.345 76.1667 228.17 76.575 229.236 76.575ZM242.054 78.3C240.754 78.3 239.804 77.9 239.204 77.1C238.62 76.3 238.329 75.1167 238.329 73.55V65.85H240.404V73.275C240.404 74.425 240.579 75.2583 240.929 75.775C241.295 76.275 241.879 76.525 242.679 76.525C243.312 76.525 243.87 76.3667 244.354 76.05C244.837 75.7167 245.37 75.1917 245.954 74.475V65.85H248.004V78H246.304L246.129 76.1H246.054C245.487 76.7667 244.887 77.3 244.254 77.7C243.637 78.1 242.904 78.3 242.054 78.3ZM257.307 78V61.6H259.382V76.225H266.557V78H257.307ZM273.897 78.3C273.081 78.3 272.314 78.1583 271.597 77.875C270.897 77.575 270.281 77.1583 269.747 76.625C269.231 76.075 268.822 75.4083 268.522 74.625C268.222 73.8417 268.072 72.95 268.072 71.95C268.072 70.95 268.222 70.0583 268.522 69.275C268.839 68.475 269.247 67.8 269.747 67.25C270.264 66.7 270.847 66.2833 271.497 66C272.147 65.7 272.822 65.55 273.522 65.55C274.289 65.55 274.972 65.6833 275.572 65.95C276.189 66.2167 276.697 66.6 277.097 67.1C277.514 67.6 277.831 68.2 278.047 68.9C278.264 69.6 278.372 70.3833 278.372 71.25C278.372 71.4667 278.364 71.6833 278.347 71.9C278.347 72.1 278.331 72.275 278.297 72.425H270.097C270.181 73.725 270.581 74.7583 271.297 75.525C272.031 76.275 272.981 76.65 274.147 76.65C274.731 76.65 275.264 76.5667 275.747 76.4C276.247 76.2167 276.722 75.9833 277.172 75.7L277.897 77.05C277.364 77.3833 276.772 77.675 276.122 77.925C275.472 78.175 274.731 78.3 273.897 78.3ZM270.072 70.95H276.572C276.572 69.7167 276.306 68.7833 275.772 68.15C275.256 67.5 274.522 67.175 273.572 67.175C273.139 67.175 272.722 67.2583 272.322 67.425C271.939 67.5917 271.589 67.8417 271.272 68.175C270.956 68.4917 270.689 68.8833 270.472 69.35C270.272 69.8167 270.139 70.35 270.072 70.95ZM281.375 78V60.2H283.425V65.05L283.35 67.55C283.933 67 284.541 66.5333 285.175 66.15C285.808 65.75 286.55 65.55 287.4 65.55C288.683 65.55 289.616 65.95 290.2 66.75C290.8 67.55 291.1 68.7333 291.1 70.3V78H289.05V70.575C289.05 69.425 288.866 68.6 288.5 68.1C288.133 67.5833 287.55 67.325 286.75 67.325C286.116 67.325 285.558 67.4833 285.075 67.8C284.591 68.1167 284.041 68.5833 283.425 69.2V78H281.375Z" fill="white"/>
<line x1="309.867" y1="121.5" x2="266" y2="121.5" stroke="white"/>
<path d="M41.8374 125V108.6H45.9374C48.4707 108.6 50.3957 109.3 51.7124 110.7C53.0291 112.1 53.6874 114.108 53.6874 116.725C53.6874 118.025 53.5207 119.192 53.1874 120.225C52.8541 121.242 52.3624 122.108 51.7124 122.825C51.0624 123.525 50.2624 124.067 49.3124 124.45C48.3624 124.817 47.2707 125 46.0374 125H41.8374ZM43.9124 123.3H45.7874C47.7041 123.3 49.1374 122.725 50.0874 121.575C51.0541 120.425 51.5374 118.808 51.5374 116.725C51.5374 114.642 51.0541 113.05 50.0874 111.95C49.1374 110.85 47.7041 110.3 45.7874 110.3H43.9124V123.3ZM61.9433 125.3C61.1266 125.3 60.3599 125.158 59.6433 124.875C58.9433 124.575 58.3266 124.158 57.7933 123.625C57.2766 123.075 56.8683 122.408 56.5683 121.625C56.2683 120.842 56.1183 119.95 56.1183 118.95C56.1183 117.95 56.2683 117.058 56.5683 116.275C56.8849 115.475 57.2933 114.8 57.7933 114.25C58.3099 113.7 58.8933 113.283 59.5433 113C60.1933 112.7 60.8683 112.55 61.5683 112.55C62.3349 112.55 63.0183 112.683 63.6183 112.95C64.2349 113.217 64.7433 113.6 65.1433 114.1C65.5599 114.6 65.8766 115.2 66.0933 115.9C66.3099 116.6 66.4183 117.383 66.4183 118.25C66.4183 118.467 66.4099 118.683 66.3933 118.9C66.3933 119.1 66.3766 119.275 66.3433 119.425H58.1433C58.2266 120.725 58.6266 121.758 59.3433 122.525C60.0766 123.275 61.0266 123.65 62.1933 123.65C62.7766 123.65 63.3099 123.567 63.7933 123.4C64.2933 123.217 64.7683 122.983 65.2183 122.7L65.9433 124.05C65.4099 124.383 64.8183 124.675 64.1683 124.925C63.5183 125.175 62.7766 125.3 61.9433 125.3ZM58.1183 117.95H64.6183C64.6183 116.717 64.3516 115.783 63.8183 115.15C63.3016 114.5 62.5683 114.175 61.6183 114.175C61.1849 114.175 60.7683 114.258 60.3683 114.425C59.9849 114.592 59.6349 114.842 59.3183 115.175C59.0016 115.492 58.7349 115.883 58.5183 116.35C58.3183 116.817 58.1849 117.35 58.1183 117.95ZM61.2433 110.675L60.1933 109.65L63.7183 105.475L65.1683 106.85L61.2433 110.675ZM74.7956 125.3C74.2289 125.3 73.6373 125.167 73.0206 124.9C72.4206 124.617 71.8539 124.233 71.3206 123.75H71.2456L71.0706 125H69.4206V107.2H71.4706V112.05L71.4206 114.25C71.9706 113.767 72.5706 113.367 73.2206 113.05C73.8706 112.717 74.5373 112.55 75.2206 112.55C76.0039 112.55 76.6956 112.7 77.2956 113C77.8956 113.283 78.3956 113.7 78.7956 114.25C79.2123 114.783 79.5206 115.433 79.7206 116.2C79.9373 116.95 80.0456 117.792 80.0456 118.725C80.0456 119.758 79.9039 120.683 79.6206 121.5C79.3373 122.317 78.9539 123.008 78.4706 123.575C77.9873 124.142 77.4289 124.575 76.7956 124.875C76.1623 125.158 75.4956 125.3 74.7956 125.3ZM74.4456 123.575C74.9456 123.575 75.4039 123.467 75.8206 123.25C76.2539 123.017 76.6206 122.7 76.9206 122.3C77.2373 121.883 77.4789 121.375 77.6456 120.775C77.8289 120.175 77.9206 119.5 77.9206 118.75C77.9206 118.083 77.8623 117.475 77.7456 116.925C77.6289 116.375 77.4373 115.908 77.1706 115.525C76.9206 115.125 76.5873 114.817 76.1706 114.6C75.7706 114.383 75.2873 114.275 74.7206 114.275C73.7373 114.275 72.6539 114.825 71.4706 115.925V122.3C72.0039 122.767 72.5289 123.1 73.0456 123.3C73.5789 123.483 74.0456 123.575 74.4456 123.575ZM86.789 125.3C85.489 125.3 84.539 124.9 83.939 124.1C83.3556 123.3 83.064 122.117 83.064 120.55V112.85H85.139V120.275C85.139 121.425 85.314 122.258 85.664 122.775C86.0306 123.275 86.614 123.525 87.414 123.525C88.0473 123.525 88.6056 123.367 89.089 123.05C89.5723 122.717 90.1056 122.192 90.689 121.475V112.85H92.739V125H91.039L90.864 123.1H90.789C90.2223 123.767 89.6223 124.3 88.989 124.7C88.3723 125.1 87.639 125.3 86.789 125.3ZM100.663 125.3C100.013 125.3 99.4626 125.2 99.0126 125C98.5793 124.8 98.2209 124.525 97.9376 124.175C97.6709 123.825 97.4793 123.4 97.3626 122.9C97.2459 122.4 97.1876 121.85 97.1876 121.25V114.525H95.3876V112.975L97.2876 112.85L97.5376 109.45H99.2626V112.85H102.538V114.525H99.2626V121.275C99.2626 122.025 99.3959 122.608 99.6626 123.025C99.9459 123.425 100.438 123.625 101.138 123.625C101.354 123.625 101.588 123.592 101.838 123.525C102.088 123.458 102.313 123.383 102.513 123.3L102.913 124.85C102.579 124.967 102.213 125.067 101.813 125.15C101.429 125.25 101.046 125.3 100.663 125.3ZM114.44 125.3C112.906 125.3 111.681 124.75 110.765 123.65C109.865 122.55 109.415 120.983 109.415 118.95C109.415 117.967 109.556 117.083 109.84 116.3C110.14 115.5 110.531 114.825 111.015 114.275C111.498 113.725 112.056 113.3 112.69 113C113.323 112.7 113.99 112.55 114.69 112.55C115.39 112.55 115.998 112.675 116.515 112.925C117.031 113.175 117.556 113.517 118.09 113.95L117.99 111.875V107.2H120.065V125H118.365L118.19 123.575H118.115C117.631 124.042 117.073 124.45 116.44 124.8C115.823 125.133 115.156 125.3 114.44 125.3ZM114.89 123.575C115.456 123.575 115.99 123.442 116.49 123.175C116.99 122.892 117.49 122.467 117.99 121.9V115.55C117.473 115.083 116.973 114.758 116.49 114.575C116.023 114.375 115.54 114.275 115.04 114.275C114.556 114.275 114.098 114.392 113.665 114.625C113.248 114.842 112.881 115.158 112.565 115.575C112.248 115.975 111.998 116.458 111.815 117.025C111.631 117.592 111.54 118.225 111.54 118.925C111.54 120.392 111.831 121.533 112.415 122.35C112.998 123.167 113.823 123.575 114.89 123.575ZM129.082 125.3C128.265 125.3 127.499 125.158 126.782 124.875C126.082 124.575 125.465 124.158 124.932 123.625C124.415 123.075 124.007 122.408 123.707 121.625C123.407 120.842 123.257 119.95 123.257 118.95C123.257 117.95 123.407 117.058 123.707 116.275C124.024 115.475 124.432 114.8 124.932 114.25C125.449 113.7 126.032 113.283 126.682 113C127.332 112.7 128.007 112.55 128.707 112.55C129.474 112.55 130.157 112.683 130.757 112.95C131.374 113.217 131.882 113.6 132.282 114.1C132.699 114.6 133.015 115.2 133.232 115.9C133.449 116.6 133.557 117.383 133.557 118.25C133.557 118.467 133.549 118.683 133.532 118.9C133.532 119.1 133.515 119.275 133.482 119.425H125.282C125.365 120.725 125.765 121.758 126.482 122.525C127.215 123.275 128.165 123.65 129.332 123.65C129.915 123.65 130.449 123.567 130.932 123.4C131.432 123.217 131.907 122.983 132.357 122.7L133.082 124.05C132.549 124.383 131.957 124.675 131.307 124.925C130.657 125.175 129.915 125.3 129.082 125.3ZM125.257 117.95H131.757C131.757 116.717 131.49 115.783 130.957 115.15C130.44 114.5 129.707 114.175 128.757 114.175C128.324 114.175 127.907 114.258 127.507 114.425C127.124 114.592 126.774 114.842 126.457 115.175C126.14 115.492 125.874 115.883 125.657 116.35C125.457 116.817 125.324 117.35 125.257 117.95ZM143.739 125.3C142.956 125.3 142.397 125.067 142.064 124.6C141.731 124.133 141.564 123.45 141.564 122.55V107.2H143.614V122.7C143.614 123.033 143.672 123.267 143.789 123.4C143.906 123.533 144.039 123.6 144.189 123.6C144.256 123.6 144.314 123.6 144.364 123.6C144.431 123.6 144.522 123.583 144.639 123.55L144.914 125.1C144.781 125.167 144.622 125.217 144.439 125.25C144.256 125.283 144.022 125.3 143.739 125.3ZM150.736 125.3C149.72 125.3 148.87 125 148.186 124.4C147.52 123.8 147.186 122.95 147.186 121.85C147.186 120.517 147.778 119.5 148.961 118.8C150.145 118.083 152.036 117.583 154.636 117.3C154.636 116.917 154.595 116.542 154.511 116.175C154.445 115.808 154.32 115.483 154.136 115.2C153.953 114.917 153.695 114.692 153.361 114.525C153.045 114.342 152.636 114.25 152.136 114.25C151.436 114.25 150.778 114.383 150.161 114.65C149.545 114.917 148.995 115.217 148.511 115.55L147.711 114.125C148.278 113.758 148.97 113.408 149.786 113.075C150.603 112.725 151.503 112.55 152.486 112.55C153.97 112.55 155.045 113.008 155.711 113.925C156.378 114.825 156.711 116.033 156.711 117.55V125H155.011L154.836 123.55H154.761C154.178 124.033 153.553 124.45 152.886 124.8C152.22 125.133 151.503 125.3 150.736 125.3ZM151.336 123.65C151.92 123.65 152.47 123.517 152.986 123.25C153.503 122.967 154.053 122.558 154.636 122.025V118.65C153.62 118.783 152.761 118.942 152.061 119.125C151.378 119.308 150.82 119.525 150.386 119.775C149.97 120.025 149.661 120.317 149.461 120.65C149.278 120.967 149.186 121.317 149.186 121.7C149.186 122.4 149.395 122.9 149.811 123.2C150.228 123.5 150.736 123.65 151.336 123.65ZM169.364 125.3C168.714 125.3 168.164 125.2 167.714 125C167.28 124.8 166.922 124.525 166.639 124.175C166.372 123.825 166.18 123.4 166.064 122.9C165.947 122.4 165.889 121.85 165.889 121.25V114.525H164.089V112.975L165.989 112.85L166.239 109.45H167.964V112.85H171.239V114.525H167.964V121.275C167.964 122.025 168.097 122.608 168.364 123.025C168.647 123.425 169.139 123.625 169.839 123.625C170.055 123.625 170.289 123.592 170.539 123.525C170.789 123.458 171.014 123.383 171.214 123.3L171.614 124.85C171.28 124.967 170.914 125.067 170.514 125.15C170.13 125.25 169.747 125.3 169.364 125.3ZM173.986 125V112.85H175.686L175.861 115.05H175.936C176.353 114.283 176.853 113.675 177.436 113.225C178.036 112.775 178.686 112.55 179.386 112.55C179.869 112.55 180.303 112.633 180.686 112.8L180.286 114.6C180.086 114.533 179.903 114.483 179.736 114.45C179.569 114.417 179.361 114.4 179.111 114.4C178.594 114.4 178.053 114.608 177.486 115.025C176.936 115.442 176.453 116.167 176.036 117.2V125H173.986ZM184.843 125.3C183.826 125.3 182.976 125 182.293 124.4C181.626 123.8 181.293 122.95 181.293 121.85C181.293 120.517 181.884 119.5 183.068 118.8C184.251 118.083 186.143 117.583 188.743 117.3C188.743 116.917 188.701 116.542 188.618 116.175C188.551 115.808 188.426 115.483 188.243 115.2C188.059 114.917 187.801 114.692 187.468 114.525C187.151 114.342 186.743 114.25 186.243 114.25C185.543 114.25 184.884 114.383 184.268 114.65C183.651 114.917 183.101 115.217 182.618 115.55L181.818 114.125C182.384 113.758 183.076 113.408 183.893 113.075C184.709 112.725 185.609 112.55 186.593 112.55C188.076 112.55 189.151 113.008 189.818 113.925C190.484 114.825 190.818 116.033 190.818 117.55V125H189.118L188.943 123.55H188.868C188.284 124.033 187.659 124.45 186.993 124.8C186.326 125.133 185.609 125.3 184.843 125.3ZM185.443 123.65C186.026 123.65 186.576 123.517 187.093 123.25C187.609 122.967 188.159 122.558 188.743 122.025V118.65C187.726 118.783 186.868 118.942 186.168 119.125C185.484 119.308 184.926 119.525 184.493 119.775C184.076 120.025 183.768 120.317 183.568 120.65C183.384 120.967 183.293 121.317 183.293 121.7C183.293 122.4 183.501 122.9 183.918 123.2C184.334 123.5 184.843 123.65 185.443 123.65ZM197.265 125L192.89 112.85H195.015L197.315 119.75C197.499 120.35 197.682 120.95 197.865 121.55C198.065 122.15 198.257 122.742 198.44 123.325H198.54C198.724 122.742 198.907 122.15 199.09 121.55C199.274 120.95 199.457 120.35 199.64 119.75L201.94 112.85H203.965L199.665 125H197.265ZM211.138 125.3C210.321 125.3 209.554 125.158 208.838 124.875C208.138 124.575 207.521 124.158 206.988 123.625C206.471 123.075 206.063 122.408 205.763 121.625C205.463 120.842 205.313 119.95 205.313 118.95C205.313 117.95 205.463 117.058 205.763 116.275C206.079 115.475 206.488 114.8 206.988 114.25C207.504 113.7 208.088 113.283 208.738 113C209.388 112.7 210.063 112.55 210.763 112.55C211.529 112.55 212.213 112.683 212.813 112.95C213.429 113.217 213.938 113.6 214.338 114.1C214.754 114.6 215.071 115.2 215.288 115.9C215.504 116.6 215.613 117.383 215.613 118.25C215.613 118.467 215.604 118.683 215.588 118.9C215.588 119.1 215.571 119.275 215.538 119.425H207.338C207.421 120.725 207.821 121.758 208.538 122.525C209.271 123.275 210.221 123.65 211.388 123.65C211.971 123.65 212.504 123.567 212.988 123.4C213.488 123.217 213.963 122.983 214.413 122.7L215.138 124.05C214.604 124.383 214.013 124.675 213.363 124.925C212.713 125.175 211.971 125.3 211.138 125.3ZM207.313 117.95H213.813C213.813 116.717 213.546 115.783 213.013 115.15C212.496 114.5 211.763 114.175 210.813 114.175C210.379 114.175 209.963 114.258 209.563 114.425C209.179 114.592 208.829 114.842 208.513 115.175C208.196 115.492 207.929 115.883 207.713 116.35C207.513 116.817 207.379 117.35 207.313 117.95ZM218.615 125V112.85H220.315L220.49 115.05H220.565C220.982 114.283 221.482 113.675 222.065 113.225C222.665 112.775 223.315 112.55 224.015 112.55C224.498 112.55 224.932 112.633 225.315 112.8L224.915 114.6C224.715 114.533 224.532 114.483 224.365 114.45C224.198 114.417 223.99 114.4 223.74 114.4C223.223 114.4 222.682 114.608 222.115 115.025C221.565 115.442 221.082 116.167 220.665 117.2V125H218.615ZM230.359 125.3C229.493 125.3 228.668 125.142 227.884 124.825C227.101 124.508 226.418 124.108 225.834 123.625L226.859 122.25C227.393 122.683 227.934 123.033 228.484 123.3C229.051 123.567 229.701 123.7 230.434 123.7C231.234 123.7 231.834 123.517 232.234 123.15C232.634 122.783 232.834 122.333 232.834 121.8C232.834 121.483 232.751 121.208 232.584 120.975C232.418 120.742 232.201 120.542 231.934 120.375C231.684 120.192 231.393 120.033 231.059 119.9C230.726 119.767 230.393 119.633 230.059 119.5C229.626 119.35 229.193 119.183 228.759 119C228.326 118.8 227.934 118.567 227.584 118.3C227.251 118.017 226.976 117.692 226.759 117.325C226.543 116.958 226.434 116.517 226.434 116C226.434 115.517 226.526 115.067 226.709 114.65C226.909 114.217 227.184 113.85 227.534 113.55C227.901 113.233 228.343 112.992 228.859 112.825C229.376 112.642 229.959 112.55 230.609 112.55C231.376 112.55 232.076 112.683 232.709 112.95C233.359 113.217 233.918 113.542 234.384 113.925L233.409 115.225C232.993 114.908 232.559 114.65 232.109 114.45C231.659 114.25 231.168 114.15 230.634 114.15C229.868 114.15 229.301 114.325 228.934 114.675C228.584 115.025 228.409 115.433 228.409 115.9C228.409 116.183 228.484 116.433 228.634 116.65C228.784 116.85 228.984 117.033 229.234 117.2C229.484 117.35 229.768 117.492 230.084 117.625C230.418 117.742 230.759 117.867 231.109 118C231.543 118.167 231.976 118.342 232.409 118.525C232.859 118.708 233.259 118.942 233.609 119.225C233.959 119.492 234.243 119.825 234.459 120.225C234.693 120.625 234.809 121.108 234.809 121.675C234.809 122.175 234.709 122.642 234.509 123.075C234.326 123.508 234.043 123.892 233.659 124.225C233.293 124.558 232.826 124.817 232.259 125C231.709 125.2 231.076 125.3 230.359 125.3ZM242.583 125.3C241.766 125.3 241 125.158 240.283 124.875C239.583 124.575 238.966 124.158 238.433 123.625C237.916 123.075 237.508 122.408 237.208 121.625C236.908 120.842 236.758 119.95 236.758 118.95C236.758 117.95 236.908 117.058 237.208 116.275C237.525 115.475 237.933 114.8 238.433 114.25C238.95 113.7 239.533 113.283 240.183 113C240.833 112.7 241.508 112.55 242.208 112.55C242.975 112.55 243.658 112.683 244.258 112.95C244.875 113.217 245.383 113.6 245.783 114.1C246.2 114.6 246.516 115.2 246.733 115.9C246.95 116.6 247.058 117.383 247.058 118.25C247.058 118.467 247.05 118.683 247.033 118.9C247.033 119.1 247.016 119.275 246.983 119.425H238.783C238.866 120.725 239.266 121.758 239.983 122.525C240.716 123.275 241.666 123.65 242.833 123.65C243.416 123.65 243.95 123.567 244.433 123.4C244.933 123.217 245.408 122.983 245.858 122.7L246.583 124.05C246.05 124.383 245.458 124.675 244.808 124.925C244.158 125.175 243.416 125.3 242.583 125.3ZM238.758 117.95H245.258C245.258 116.717 244.991 115.783 244.458 115.15C243.941 114.5 243.208 114.175 242.258 114.175C241.825 114.175 241.408 114.258 241.008 114.425C240.625 114.592 240.275 114.842 239.958 115.175C239.641 115.492 239.375 115.883 239.158 116.35C238.958 116.817 238.825 117.35 238.758 117.95ZM241.883 110.675L240.833 109.65L244.358 105.475L245.808 106.85L241.883 110.675ZM254.985 125.3C254.169 125.3 253.402 125.158 252.685 124.875C251.985 124.575 251.369 124.158 250.835 123.625C250.319 123.075 249.91 122.408 249.61 121.625C249.31 120.842 249.16 119.95 249.16 118.95C249.16 117.95 249.31 117.058 249.61 116.275C249.927 115.475 250.335 114.8 250.835 114.25C251.352 113.7 251.935 113.283 252.585 113C253.235 112.7 253.91 112.55 254.61 112.55C255.377 112.55 256.06 112.683 256.66 112.95C257.277 113.217 257.785 113.6 258.185 114.1C258.602 114.6 258.919 115.2 259.135 115.9C259.352 116.6 259.46 117.383 259.46 118.25C259.46 118.467 259.452 118.683 259.435 118.9C259.435 119.1 259.419 119.275 259.385 119.425H251.185C251.269 120.725 251.669 121.758 252.385 122.525C253.119 123.275 254.069 123.65 255.235 123.65C255.819 123.65 256.352 123.567 256.835 123.4C257.335 123.217 257.81 122.983 258.26 122.7L258.985 124.05C258.452 124.383 257.86 124.675 257.21 124.925C256.56 125.175 255.819 125.3 254.985 125.3ZM251.16 117.95H257.66C257.66 116.717 257.394 115.783 256.86 115.15C256.344 114.5 255.61 114.175 254.66 114.175C254.227 114.175 253.81 114.258 253.41 114.425C253.027 114.592 252.677 114.842 252.36 115.175C252.044 115.492 251.777 115.883 251.56 116.35C251.36 116.817 251.227 117.35 251.16 117.95Z" fill="white"/>
</svg>
