<svg width="300" height="381" viewBox="0 0 300 381" fill="none" xmlns="http://www.w3.org/2000/svg">
<path d="M251.586 325.296C251.586 325.471 251.763 325.471 251.763 325.646C259.552 337.372 259.552 354.348 259.375 368.524" stroke="white" stroke-width="0.9124" stroke-miterlimit="10"/>
<path d="M242.38 317.596C228.749 310.071 207.86 306.92 203.611 292.919" stroke="white" stroke-width="0.9124" stroke-miterlimit="10"/>
<path d="M203.789 281.193C206.267 272.793 214.588 268.768 221.314 263.867C232.467 255.817 241.672 246.191 245.036 233.24" stroke="white" stroke-width="0.9124" stroke-miterlimit="10"/>
<path d="M228.75 167.436C229.458 171.811 230.874 176.187 232.999 180.387C240.257 193.863 246.629 206.114 246.452 221.515" stroke="white" stroke-width="0.9124" stroke-miterlimit="10"/>
<path d="M228.396 155.535C229.635 140.659 237.07 125.608 246.629 113.532" stroke="white" stroke-width="0.9124" stroke-miterlimit="10"/>
<path d="M254.771 104.607C257.25 102.332 259.551 100.232 262.029 98.4819C272.12 91.1314 281.148 79.5807 283.095 67.5049" stroke="white" stroke-width="0.9124" stroke-miterlimit="10"/>
<path d="M248.399 12.9004C250.701 35.8269 266.633 31.9766 277.077 45.2775C279.733 48.6027 281.503 52.103 282.388 55.6032" stroke="white" stroke-width="0.9124" stroke-miterlimit="10"/>
<path d="M248.045 12.9008C251.369 12.9008 254.064 10.2367 254.064 6.95039C254.064 3.66408 251.369 1 248.045 1C244.721 1 242.026 3.66408 242.026 6.95039C242.026 10.2367 244.721 12.9008 248.045 12.9008Z" fill="white" stroke="white" stroke-width="0.9124" stroke-miterlimit="10"/>
<path d="M259.374 380.25C262.698 380.25 265.393 377.586 265.393 374.3C265.393 371.013 262.698 368.349 259.374 368.349C256.05 368.349 253.355 371.013 253.355 374.3C253.355 377.586 256.05 380.25 259.374 380.25Z" stroke="white" stroke-width="0.9124" stroke-miterlimit="10"/>
<path d="M203.019 292.509C206.343 292.509 209.038 289.845 209.038 286.559C209.038 283.272 206.343 280.608 203.019 280.608C199.695 280.608 197 283.272 197 286.559C197 289.845 199.695 292.509 203.019 292.509Z" stroke="white" stroke-width="0.9124" stroke-miterlimit="10"/>
<path d="M245.859 232.83C249.183 232.83 251.877 230.166 251.877 226.88C251.877 223.593 249.183 220.929 245.859 220.929C242.535 220.929 239.84 223.593 239.84 226.88C239.84 230.166 242.535 232.83 245.859 232.83Z" stroke="white" stroke-width="0.9124" stroke-miterlimit="10"/>
<path d="M247.275 326.636C250.599 326.636 253.294 323.972 253.294 320.686C253.294 317.399 250.599 314.735 247.275 314.735C243.951 314.735 241.256 317.399 241.256 320.686C241.256 323.972 243.951 326.636 247.275 326.636Z" stroke="white" stroke-width="0.9124" stroke-miterlimit="10"/>
<path d="M228.333 167.026C231.657 167.026 234.352 164.362 234.352 161.075C234.352 157.789 231.657 155.125 228.333 155.125C225.009 155.125 222.314 157.789 222.314 161.075C222.314 164.362 225.009 167.026 228.333 167.026Z" stroke="white" stroke-width="0.9124" stroke-miterlimit="10"/>
<path d="M283.096 67.5043C286.42 67.5043 289.115 64.8402 289.115 61.5539C289.115 58.2676 286.42 55.6035 283.096 55.6035C279.772 55.6035 277.077 58.2676 277.077 61.5539C277.077 64.8402 279.772 67.5043 283.096 67.5043Z" fill="white" stroke="white" stroke-width="0.9124" stroke-miterlimit="10"/>
<path d="M250.7 114.933C254.025 114.933 256.719 112.269 256.719 108.983C256.719 105.696 254.025 103.032 250.7 103.032C247.376 103.032 244.682 105.696 244.682 108.983C244.682 112.269 247.376 114.933 250.7 114.933Z" stroke="white" stroke-width="0.9124" stroke-miterlimit="10"/>
<path d="M283 60.8916L239.133 60.8916" stroke="white"/>
<path d="M71.1517 56.95L70.3767 59.45H75.3017L74.5267 56.95C74.2267 56.0333 73.9433 55.125 73.6767 54.225C73.41 53.3083 73.1433 52.375 72.8767 51.425H72.7767C72.5267 52.375 72.2683 53.3083 72.0017 54.225C71.735 55.125 71.4517 56.0333 71.1517 56.95ZM66.1517 66.125L71.7017 49.725H74.0517L79.6017 66.125H77.3767L75.8267 61.125H69.8517L68.2767 66.125H66.1517ZM86.6503 66.425C85.8336 66.425 85.067 66.2833 84.3503 66C83.6503 65.7 83.0336 65.2833 82.5003 64.75C81.9836 64.2 81.5753 63.5333 81.2753 62.75C80.9753 61.9667 80.8253 61.075 80.8253 60.075C80.8253 59.075 80.9753 58.1833 81.2753 57.4C81.592 56.6 82.0003 55.925 82.5003 55.375C83.017 54.825 83.6003 54.4083 84.2503 54.125C84.9003 53.825 85.5753 53.675 86.2753 53.675C87.042 53.675 87.7253 53.8083 88.3253 54.075C88.942 54.3417 89.4503 54.725 89.8503 55.225C90.267 55.725 90.5836 56.325 90.8003 57.025C91.017 57.725 91.1253 58.5083 91.1253 59.375C91.1253 59.5917 91.117 59.8083 91.1003 60.025C91.1003 60.225 91.0836 60.4 91.0503 60.55H82.8503C82.9336 61.85 83.3336 62.8833 84.0503 63.65C84.7836 64.4 85.7336 64.775 86.9003 64.775C87.4836 64.775 88.017 64.6917 88.5003 64.525C89.0003 64.3417 89.4753 64.1083 89.9253 63.825L90.6503 65.175C90.117 65.5083 89.5253 65.8 88.8753 66.05C88.2253 66.3 87.4836 66.425 86.6503 66.425ZM82.8253 59.075H89.3253C89.3253 57.8417 89.0586 56.9083 88.5253 56.275C88.0086 55.625 87.2753 55.3 86.3253 55.3C85.892 55.3 85.4753 55.3833 85.0753 55.55C84.692 55.7167 84.342 55.9667 84.0253 56.3C83.7086 56.6167 83.442 57.0083 83.2253 57.475C83.0253 57.9417 82.892 58.475 82.8253 59.075ZM85.9503 51.8L84.9003 50.775L88.4253 46.6L89.8753 47.975L85.9503 51.8ZM94.1276 66.125V53.975H95.8276L96.0026 56.175H96.0776C96.4943 55.4083 96.9943 54.8 97.5776 54.35C98.1776 53.9 98.8276 53.675 99.5276 53.675C100.011 53.675 100.444 53.7583 100.828 53.925L100.428 55.725C100.228 55.6583 100.044 55.6083 99.8776 55.575C99.711 55.5417 99.5026 55.525 99.2526 55.525C98.736 55.525 98.1943 55.7333 97.6276 56.15C97.0776 56.5667 96.5943 57.2917 96.1776 58.325V66.125H94.1276ZM107.275 66.425C106.525 66.425 105.809 66.2833 105.125 66C104.459 65.7167 103.867 65.3083 103.35 64.775C102.834 64.225 102.417 63.5583 102.1 62.775C101.8 61.975 101.65 61.075 101.65 60.075C101.65 59.0583 101.8 58.1583 102.1 57.375C102.417 56.575 102.834 55.9 103.35 55.35C103.867 54.8 104.459 54.3833 105.125 54.1C105.809 53.8167 106.525 53.675 107.275 53.675C108.025 53.675 108.734 53.8167 109.4 54.1C110.084 54.3833 110.684 54.8 111.2 55.35C111.717 55.9 112.125 56.575 112.425 57.375C112.742 58.1583 112.9 59.0583 112.9 60.075C112.9 61.075 112.742 61.975 112.425 62.775C112.125 63.5583 111.717 64.225 111.2 64.775C110.684 65.3083 110.084 65.7167 109.4 66C108.734 66.2833 108.025 66.425 107.275 66.425ZM107.275 64.725C107.792 64.725 108.267 64.6167 108.7 64.4C109.134 64.1667 109.5 63.85 109.8 63.45C110.117 63.0333 110.359 62.5417 110.525 61.975C110.692 61.4083 110.775 60.775 110.775 60.075C110.775 59.375 110.692 58.7417 110.525 58.175C110.359 57.5917 110.117 57.0917 109.8 56.675C109.5 56.2583 109.134 55.9417 108.7 55.725C108.267 55.4917 107.792 55.375 107.275 55.375C106.759 55.375 106.284 55.4917 105.85 55.725C105.417 55.9417 105.042 56.2583 104.725 56.675C104.425 57.0917 104.192 57.5917 104.025 58.175C103.859 58.7417 103.775 59.375 103.775 60.075C103.775 60.775 103.859 61.4083 104.025 61.975C104.192 62.5417 104.425 63.0333 104.725 63.45C105.042 63.85 105.417 64.1667 105.85 64.4C106.284 64.6167 106.759 64.725 107.275 64.725ZM116.1 71.25V53.975H117.8L117.975 55.375H118.05C118.6 54.9083 119.2 54.5083 119.85 54.175C120.517 53.8417 121.209 53.675 121.925 53.675C122.709 53.675 123.4 53.825 124 54.125C124.6 54.4083 125.1 54.825 125.5 55.375C125.9 55.9083 126.2 56.5583 126.4 57.325C126.617 58.075 126.725 58.925 126.725 59.875C126.725 60.9083 126.584 61.8333 126.3 62.65C126.017 63.45 125.634 64.1333 125.15 64.7C124.667 65.2667 124.109 65.7 123.475 66C122.842 66.2833 122.175 66.425 121.475 66.425C120.909 66.425 120.342 66.3 119.775 66.05C119.225 65.8 118.667 65.4583 118.1 65.025L118.15 67.15V71.25H116.1ZM121.125 64.7C121.625 64.7 122.084 64.5917 122.5 64.375C122.934 64.1417 123.3 63.825 123.6 63.425C123.917 63.0083 124.159 62.5 124.325 61.9C124.509 61.3 124.6 60.625 124.6 59.875C124.6 59.2083 124.542 58.6 124.425 58.05C124.309 57.5 124.117 57.0333 123.85 56.65C123.6 56.25 123.267 55.9417 122.85 55.725C122.45 55.5083 121.967 55.4 121.4 55.4C120.884 55.4 120.359 55.5417 119.825 55.825C119.309 56.1083 118.75 56.5167 118.15 57.05V63.425C118.7 63.8917 119.234 64.225 119.75 64.425C120.267 64.6083 120.725 64.7 121.125 64.7ZM134.692 66.425C133.942 66.425 133.226 66.2833 132.542 66C131.876 65.7167 131.284 65.3083 130.767 64.775C130.251 64.225 129.834 63.5583 129.517 62.775C129.217 61.975 129.067 61.075 129.067 60.075C129.067 59.0583 129.217 58.1583 129.517 57.375C129.834 56.575 130.251 55.9 130.767 55.35C131.284 54.8 131.876 54.3833 132.542 54.1C133.226 53.8167 133.942 53.675 134.692 53.675C135.442 53.675 136.151 53.8167 136.817 54.1C137.501 54.3833 138.101 54.8 138.617 55.35C139.134 55.9 139.542 56.575 139.842 57.375C140.159 58.1583 140.317 59.0583 140.317 60.075C140.317 61.075 140.159 61.975 139.842 62.775C139.542 63.5583 139.134 64.225 138.617 64.775C138.101 65.3083 137.501 65.7167 136.817 66C136.151 66.2833 135.442 66.425 134.692 66.425ZM134.692 64.725C135.209 64.725 135.684 64.6167 136.117 64.4C136.551 64.1667 136.917 63.85 137.217 63.45C137.534 63.0333 137.776 62.5417 137.942 61.975C138.109 61.4083 138.192 60.775 138.192 60.075C138.192 59.375 138.109 58.7417 137.942 58.175C137.776 57.5917 137.534 57.0917 137.217 56.675C136.917 56.2583 136.551 55.9417 136.117 55.725C135.684 55.4917 135.209 55.375 134.692 55.375C134.176 55.375 133.701 55.4917 133.267 55.725C132.834 55.9417 132.459 56.2583 132.142 56.675C131.842 57.0917 131.609 57.5917 131.442 58.175C131.276 58.7417 131.192 59.375 131.192 60.075C131.192 60.775 131.276 61.4083 131.442 61.975C131.609 62.5417 131.842 63.0333 132.142 63.45C132.459 63.85 132.834 64.1667 133.267 64.4C133.701 64.6167 134.176 64.725 134.692 64.725ZM143.517 66.125V53.975H145.217L145.392 56.175H145.467C145.884 55.4083 146.384 54.8 146.967 54.35C147.567 53.9 148.217 53.675 148.917 53.675C149.401 53.675 149.834 53.7583 150.217 53.925L149.817 55.725C149.617 55.6583 149.434 55.6083 149.267 55.575C149.101 55.5417 148.892 55.525 148.642 55.525C148.126 55.525 147.584 55.7333 147.017 56.15C146.467 56.5667 145.984 57.2917 145.567 58.325V66.125H143.517ZM156.009 66.425C155.359 66.425 154.809 66.325 154.359 66.125C153.926 65.925 153.568 65.65 153.284 65.3C153.018 64.95 152.826 64.525 152.709 64.025C152.593 63.525 152.534 62.975 152.534 62.375V55.65H150.734V54.1L152.634 53.975L152.884 50.575H154.609V53.975H157.884V55.65H154.609V62.4C154.609 63.15 154.743 63.7333 155.009 64.15C155.293 64.55 155.784 64.75 156.484 64.75C156.701 64.75 156.934 64.7167 157.184 64.65C157.434 64.5833 157.659 64.5083 157.859 64.425L158.259 65.975C157.926 66.0917 157.559 66.1917 157.159 66.275C156.776 66.375 156.393 66.425 156.009 66.425ZM169.786 66.425C168.253 66.425 167.028 65.875 166.111 64.775C165.211 63.675 164.761 62.1083 164.761 60.075C164.761 59.0917 164.903 58.2083 165.186 57.425C165.486 56.625 165.878 55.95 166.361 55.4C166.845 54.85 167.403 54.425 168.036 54.125C168.67 53.825 169.336 53.675 170.036 53.675C170.736 53.675 171.345 53.8 171.861 54.05C172.378 54.3 172.903 54.6417 173.436 55.075L173.336 53V48.325H175.411V66.125H173.711L173.536 64.7H173.461C172.978 65.1667 172.42 65.575 171.786 65.925C171.17 66.2583 170.503 66.425 169.786 66.425ZM170.236 64.7C170.803 64.7 171.336 64.5667 171.836 64.3C172.336 64.0167 172.836 63.5917 173.336 63.025V56.675C172.82 56.2083 172.32 55.8833 171.836 55.7C171.37 55.5 170.886 55.4 170.386 55.4C169.903 55.4 169.445 55.5167 169.011 55.75C168.595 55.9667 168.228 56.2833 167.911 56.7C167.595 57.1 167.345 57.5833 167.161 58.15C166.978 58.7167 166.886 59.35 166.886 60.05C166.886 61.5167 167.178 62.6583 167.761 63.475C168.345 64.2917 169.17 64.7 170.236 64.7ZM183.054 66.425C181.754 66.425 180.804 66.025 180.204 65.225C179.62 64.425 179.329 63.2417 179.329 61.675V53.975H181.404V61.4C181.404 62.55 181.579 63.3833 181.929 63.9C182.295 64.4 182.879 64.65 183.679 64.65C184.312 64.65 184.87 64.4917 185.354 64.175C185.837 63.8417 186.37 63.3167 186.954 62.6V53.975H189.004V66.125H187.304L187.129 64.225H187.054C186.487 64.8917 185.887 65.425 185.254 65.825C184.637 66.225 183.904 66.425 183.054 66.425ZM198.307 66.125V49.725H200.382V64.35H207.557V66.125H198.307ZM214.897 66.425C214.081 66.425 213.314 66.2833 212.597 66C211.897 65.7 211.281 65.2833 210.747 64.75C210.231 64.2 209.822 63.5333 209.522 62.75C209.222 61.9667 209.072 61.075 209.072 60.075C209.072 59.075 209.222 58.1833 209.522 57.4C209.839 56.6 210.247 55.925 210.747 55.375C211.264 54.825 211.847 54.4083 212.497 54.125C213.147 53.825 213.822 53.675 214.522 53.675C215.289 53.675 215.972 53.8083 216.572 54.075C217.189 54.3417 217.697 54.725 218.097 55.225C218.514 55.725 218.831 56.325 219.047 57.025C219.264 57.725 219.372 58.5083 219.372 59.375C219.372 59.5917 219.364 59.8083 219.347 60.025C219.347 60.225 219.331 60.4 219.297 60.55H211.097C211.181 61.85 211.581 62.8833 212.297 63.65C213.031 64.4 213.981 64.775 215.147 64.775C215.731 64.775 216.264 64.6917 216.747 64.525C217.247 64.3417 217.722 64.1083 218.172 63.825L218.897 65.175C218.364 65.5083 217.772 65.8 217.122 66.05C216.472 66.3 215.731 66.425 214.897 66.425ZM211.072 59.075H217.572C217.572 57.8417 217.306 56.9083 216.772 56.275C216.256 55.625 215.522 55.3 214.572 55.3C214.139 55.3 213.722 55.3833 213.322 55.55C212.939 55.7167 212.589 55.9667 212.272 56.3C211.956 56.6167 211.689 57.0083 211.472 57.475C211.272 57.9417 211.139 58.475 211.072 59.075ZM222.375 66.125V48.325H224.425V53.175L224.35 55.675C224.933 55.125 225.541 54.6583 226.175 54.275C226.808 53.875 227.55 53.675 228.4 53.675C229.683 53.675 230.616 54.075 231.2 54.875C231.8 55.675 232.1 56.8583 232.1 58.425V66.125H230.05V58.7C230.05 57.55 229.866 56.725 229.5 56.225C229.133 55.7083 228.55 55.45 227.75 55.45C227.116 55.45 226.558 55.6083 226.075 55.925C225.591 56.2417 225.041 56.7083 224.425 57.325V66.125H222.375Z" fill="white"/>
</svg>
