<svg width="361" height="393" viewBox="0 0 361 393" fill="none" xmlns="http://www.w3.org/2000/svg">
<path d="M312.586 337.171C312.586 337.346 312.763 337.346 312.763 337.521C320.552 349.247 320.552 366.223 320.375 380.399" stroke="white" stroke-width="0.9124" stroke-miterlimit="10"/>
<path d="M303.38 329.471C289.749 321.946 268.86 318.795 264.612 304.794" stroke="white" stroke-width="0.9124" stroke-miterlimit="10"/>
<path d="M264.789 293.068C267.267 284.668 275.588 280.643 282.314 275.742C293.467 267.692 302.672 258.066 306.036 245.115" stroke="white" stroke-width="0.9124" stroke-miterlimit="10"/>
<path d="M289.75 179.311C290.458 183.686 291.874 188.062 293.998 192.262C301.256 205.738 307.629 217.989 307.452 233.39" stroke="white" stroke-width="0.9124" stroke-miterlimit="10"/>
<path d="M289.396 167.41C290.635 152.534 298.07 137.483 307.629 125.407" stroke="white" stroke-width="0.9124" stroke-miterlimit="10"/>
<path d="M315.772 116.482C318.25 114.207 320.552 112.107 323.03 110.357C333.12 103.006 342.149 91.4557 344.096 79.3799" stroke="white" stroke-width="0.9124" stroke-miterlimit="10"/>
<path d="M309.399 24.7754C311.701 47.7019 327.633 43.8516 338.077 57.1525C340.733 60.4777 342.503 63.978 343.388 67.4782" stroke="white" stroke-width="0.9124" stroke-miterlimit="10"/>
<path d="M309.045 24.7758C312.369 24.7758 315.064 22.1117 315.064 18.8254C315.064 15.5391 312.369 12.875 309.045 12.875C305.721 12.875 303.026 15.5391 303.026 18.8254C303.026 22.1117 305.721 24.7758 309.045 24.7758Z" fill="white" stroke="white" stroke-width="0.9124" stroke-miterlimit="10"/>
<path d="M320.375 392.125C323.699 392.125 326.394 389.461 326.394 386.175C326.394 382.888 323.699 380.224 320.375 380.224C317.051 380.224 314.356 382.888 314.356 386.175C314.356 389.461 317.051 392.125 320.375 392.125Z" stroke="white" stroke-width="0.9124" stroke-miterlimit="10"/>
<path d="M264.019 304.384C267.343 304.384 270.038 301.72 270.038 298.434C270.038 295.147 267.343 292.483 264.019 292.483C260.695 292.483 258 295.147 258 298.434C258 301.72 260.695 304.384 264.019 304.384Z" stroke="white" stroke-width="0.9124" stroke-miterlimit="10"/>
<path d="M306.859 244.705C310.183 244.705 312.877 242.041 312.877 238.755C312.877 235.468 310.183 232.804 306.859 232.804C303.535 232.804 300.84 235.468 300.84 238.755C300.84 242.041 303.535 244.705 306.859 244.705Z" stroke="white" stroke-width="0.9124" stroke-miterlimit="10"/>
<path d="M308.275 338.511C311.599 338.511 314.294 335.847 314.294 332.561C314.294 329.274 311.599 326.61 308.275 326.61C304.951 326.61 302.256 329.274 302.256 332.561C302.256 335.847 304.951 338.511 308.275 338.511Z" stroke="white" stroke-width="0.9124" stroke-miterlimit="10"/>
<path d="M289.333 178.901C292.657 178.901 295.352 176.237 295.352 172.95C295.352 169.664 292.657 167 289.333 167C286.009 167 283.314 169.664 283.314 172.95C283.314 176.237 286.009 178.901 289.333 178.901Z" fill="white" stroke="white" stroke-width="0.9124" stroke-miterlimit="10"/>
<path d="M344.096 79.3793C347.42 79.3793 350.115 76.7152 350.115 73.4289C350.115 70.1426 347.42 67.4785 344.096 67.4785C340.772 67.4785 338.077 70.1426 338.077 73.4289C338.077 76.7152 340.772 79.3793 344.096 79.3793Z" fill="white" stroke="white" stroke-width="0.9124" stroke-miterlimit="10"/>
<path d="M311.7 126.808C315.025 126.808 317.719 124.144 317.719 120.858C317.719 117.571 315.025 114.907 311.7 114.907C308.376 114.907 305.682 117.571 305.682 120.858C305.682 124.144 308.376 126.808 311.7 126.808Z" fill="white" stroke="white" stroke-width="0.9124" stroke-miterlimit="10"/>
<line x1="309.64" y1="18.7666" x2="265.773" y2="18.7666" stroke="white"/>
<path d="M80.0991 24V7.6H84.7741C85.6908 7.6 86.5241 7.68333 87.2741 7.85C88.0408 8.01667 88.6908 8.29167 89.2241 8.675C89.7575 9.04167 90.1741 9.53333 90.4741 10.15C90.7741 10.7667 90.9241 11.525 90.9241 12.425C90.9241 13.2917 90.7741 14.0417 90.4741 14.675C90.1908 15.3083 89.7825 15.8333 89.2491 16.25C88.7158 16.6667 88.0741 16.9833 87.3241 17.2C86.5908 17.4 85.7741 17.5 84.8741 17.5H82.1741V24H80.0991ZM82.1741 15.8H84.6241C86.0575 15.8 87.1158 15.5333 87.7991 15C88.4991 14.45 88.8491 13.5917 88.8491 12.425C88.8491 11.2417 88.4825 10.425 87.7491 9.975C87.0325 9.50833 85.9575 9.275 84.5241 9.275H82.1741V15.8ZM95.7851 24.3C94.7684 24.3 93.9184 24 93.2351 23.4C92.5684 22.8 92.2351 21.95 92.2351 20.85C92.2351 19.5167 92.8267 18.5 94.0101 17.8C95.1934 17.0833 97.0851 16.5833 99.6851 16.3C99.6851 15.9167 99.6434 15.5417 99.5601 15.175C99.4934 14.8083 99.3684 14.4833 99.1851 14.2C99.0017 13.9167 98.7434 13.6917 98.4101 13.525C98.0934 13.3417 97.6851 13.25 97.1851 13.25C96.4851 13.25 95.8267 13.3833 95.2101 13.65C94.5934 13.9167 94.0434 14.2167 93.5601 14.55L92.7601 13.125C93.3267 12.7583 94.0184 12.4083 94.8351 12.075C95.6517 11.725 96.5517 11.55 97.5351 11.55C99.0184 11.55 100.093 12.0083 100.76 12.925C101.427 13.825 101.76 15.0333 101.76 16.55V24H100.06L99.8851 22.55H99.8101C99.2267 23.0333 98.6017 23.45 97.9351 23.8C97.2684 24.1333 96.5517 24.3 95.7851 24.3ZM96.3851 22.65C96.9684 22.65 97.5184 22.5167 98.0351 22.25C98.5517 21.9667 99.1017 21.5583 99.6851 21.025V17.65C98.6684 17.7833 97.8101 17.9417 97.1101 18.125C96.4267 18.3083 95.8684 18.525 95.4351 18.775C95.0184 19.025 94.7101 19.3167 94.5101 19.65C94.3267 19.9667 94.2351 20.3167 94.2351 20.7C94.2351 21.4 94.4434 21.9 94.8601 22.2C95.2767 22.5 95.7851 22.65 96.3851 22.65ZM105.583 24V11.85H107.283L107.458 14.05H107.533C107.949 13.2833 108.449 12.675 109.033 12.225C109.633 11.775 110.283 11.55 110.983 11.55C111.466 11.55 111.899 11.6333 112.283 11.8L111.883 13.6C111.683 13.5333 111.499 13.4833 111.333 13.45C111.166 13.4167 110.958 13.4 110.708 13.4C110.191 13.4 109.649 13.6083 109.083 14.025C108.533 14.4417 108.049 15.1667 107.633 16.2V24H105.583ZM118.075 24.3C117.425 24.3 116.875 24.2 116.425 24C115.991 23.8 115.633 23.525 115.35 23.175C115.083 22.825 114.891 22.4 114.775 21.9C114.658 21.4 114.6 20.85 114.6 20.25V13.525H112.8V11.975L114.7 11.85L114.95 8.45H116.675V11.85H119.95V13.525H116.675V20.275C116.675 21.025 116.808 21.6083 117.075 22.025C117.358 22.425 117.85 22.625 118.55 22.625C118.766 22.625 119 22.5917 119.25 22.525C119.5 22.4583 119.725 22.3833 119.925 22.3L120.325 23.85C119.991 23.9667 119.625 24.0667 119.225 24.15C118.841 24.25 118.458 24.3 118.075 24.3ZM122.697 24V11.85H124.747V24H122.697ZM123.747 9.35C123.347 9.35 123.005 9.225 122.722 8.975C122.455 8.725 122.322 8.40833 122.322 8.025C122.322 7.625 122.455 7.30833 122.722 7.075C123.005 6.825 123.347 6.7 123.747 6.7C124.147 6.7 124.48 6.825 124.747 7.075C125.03 7.30833 125.172 7.625 125.172 8.025C125.172 8.40833 125.03 8.725 124.747 8.975C124.48 9.225 124.147 9.35 123.747 9.35ZM128.849 24V11.85H130.549L130.724 14.05H130.799C131.216 13.2833 131.716 12.675 132.299 12.225C132.899 11.775 133.549 11.55 134.249 11.55C134.733 11.55 135.166 11.6333 135.549 11.8L135.149 13.6C134.949 13.5333 134.766 13.4833 134.599 13.45C134.433 13.4167 134.224 13.4 133.974 13.4C133.458 13.4 132.916 13.6083 132.349 14.025C131.799 14.4417 131.316 15.1667 130.899 16.2V24H128.849ZM145.321 24.3C144.305 24.3 143.455 24 142.771 23.4C142.105 22.8 141.771 21.95 141.771 20.85C141.771 19.5167 142.363 18.5 143.546 17.8C144.73 17.0833 146.621 16.5833 149.221 16.3C149.221 15.9167 149.18 15.5417 149.096 15.175C149.03 14.8083 148.905 14.4833 148.721 14.2C148.538 13.9167 148.28 13.6917 147.946 13.525C147.63 13.3417 147.221 13.25 146.721 13.25C146.021 13.25 145.363 13.3833 144.746 13.65C144.13 13.9167 143.58 14.2167 143.096 14.55L142.296 13.125C142.863 12.7583 143.555 12.4083 144.371 12.075C145.188 11.725 146.088 11.55 147.071 11.55C148.555 11.55 149.63 12.0083 150.296 12.925C150.963 13.825 151.296 15.0333 151.296 16.55V24H149.596L149.421 22.55H149.346C148.763 23.0333 148.138 23.45 147.471 23.8C146.805 24.1333 146.088 24.3 145.321 24.3ZM145.921 22.65C146.505 22.65 147.055 22.5167 147.571 22.25C148.088 21.9667 148.638 21.5583 149.221 21.025V17.65C148.205 17.7833 147.346 17.9417 146.646 18.125C145.963 18.3083 145.405 18.525 144.971 18.775C144.555 19.025 144.246 19.3167 144.046 19.65C143.863 19.9667 143.771 20.3167 143.771 20.7C143.771 21.4 143.98 21.9 144.396 22.2C144.813 22.5 145.321 22.65 145.921 22.65ZM147.371 9.675L143.446 5.85L144.896 4.475L148.421 8.65L147.371 9.675ZM162.299 24.3C161.515 24.3 160.957 24.0667 160.624 23.6C160.29 23.1333 160.124 22.45 160.124 21.55V6.2H162.174V21.7C162.174 22.0333 162.232 22.2667 162.349 22.4C162.465 22.5333 162.599 22.6 162.749 22.6C162.815 22.6 162.874 22.6 162.924 22.6C162.99 22.6 163.082 22.5833 163.199 22.55L163.474 24.1C163.34 24.1667 163.182 24.2167 162.999 24.25C162.815 24.2833 162.582 24.3 162.299 24.3ZM166.596 13.225L166.021 12.275C166.654 11.8583 167.121 11.4167 167.421 10.95C167.737 10.4667 167.896 9.86667 167.896 9.15C167.846 9.16667 167.779 9.175 167.696 9.175C167.346 9.175 167.037 9.06667 166.771 8.85C166.504 8.63333 166.371 8.325 166.371 7.925C166.371 7.49167 166.496 7.15 166.746 6.9C166.996 6.65 167.312 6.525 167.696 6.525C168.179 6.525 168.562 6.725 168.846 7.125C169.129 7.50833 169.271 8.06667 169.271 8.8C169.271 9.8 169.037 10.6667 168.571 11.4C168.121 12.1167 167.462 12.725 166.596 13.225ZM173.886 24.3C172.869 24.3 172.019 24 171.336 23.4C170.669 22.8 170.336 21.95 170.336 20.85C170.336 19.5167 170.927 18.5 172.111 17.8C173.294 17.0833 175.186 16.5833 177.786 16.3C177.786 15.9167 177.744 15.5417 177.661 15.175C177.594 14.8083 177.469 14.4833 177.286 14.2C177.102 13.9167 176.844 13.6917 176.511 13.525C176.194 13.3417 175.786 13.25 175.286 13.25C174.586 13.25 173.927 13.3833 173.311 13.65C172.694 13.9167 172.144 14.2167 171.661 14.55L170.861 13.125C171.427 12.7583 172.119 12.4083 172.936 12.075C173.752 11.725 174.652 11.55 175.636 11.55C177.119 11.55 178.194 12.0083 178.861 12.925C179.527 13.825 179.861 15.0333 179.861 16.55V24H178.161L177.986 22.55H177.911C177.327 23.0333 176.702 23.45 176.036 23.8C175.369 24.1333 174.652 24.3 173.886 24.3ZM174.486 22.65C175.069 22.65 175.619 22.5167 176.136 22.25C176.652 21.9667 177.202 21.5583 177.786 21.025V17.65C176.769 17.7833 175.911 17.9417 175.211 18.125C174.527 18.3083 173.969 18.525 173.536 18.775C173.119 19.025 172.811 19.3167 172.611 19.65C172.427 19.9667 172.336 20.3167 172.336 20.7C172.336 21.4 172.544 21.9 172.961 22.2C173.377 22.5 173.886 22.65 174.486 22.65ZM186.308 24L181.933 11.85H184.058L186.358 18.75C186.542 19.35 186.725 19.95 186.908 20.55C187.108 21.15 187.3 21.7417 187.483 22.325H187.583C187.767 21.7417 187.95 21.15 188.133 20.55C188.317 19.95 188.5 19.35 188.683 18.75L190.983 11.85H193.008L188.708 24H186.308ZM200.181 24.3C199.364 24.3 198.597 24.1583 197.881 23.875C197.181 23.575 196.564 23.1583 196.031 22.625C195.514 22.075 195.106 21.4083 194.806 20.625C194.506 19.8417 194.356 18.95 194.356 17.95C194.356 16.95 194.506 16.0583 194.806 15.275C195.122 14.475 195.531 13.8 196.031 13.25C196.547 12.7 197.131 12.2833 197.781 12C198.431 11.7 199.106 11.55 199.806 11.55C200.572 11.55 201.256 11.6833 201.856 11.95C202.472 12.2167 202.981 12.6 203.381 13.1C203.797 13.6 204.114 14.2 204.331 14.9C204.547 15.6 204.656 16.3833 204.656 17.25C204.656 17.4667 204.647 17.6833 204.631 17.9C204.631 18.1 204.614 18.275 204.581 18.425H196.381C196.464 19.725 196.864 20.7583 197.581 21.525C198.314 22.275 199.264 22.65 200.431 22.65C201.014 22.65 201.547 22.5667 202.031 22.4C202.531 22.2167 203.006 21.9833 203.456 21.7L204.181 23.05C203.647 23.3833 203.056 23.675 202.406 23.925C201.756 24.175 201.014 24.3 200.181 24.3ZM196.356 16.95H202.856C202.856 15.7167 202.589 14.7833 202.056 14.15C201.539 13.5 200.806 13.175 199.856 13.175C199.422 13.175 199.006 13.2583 198.606 13.425C198.222 13.5917 197.872 13.8417 197.556 14.175C197.239 14.4917 196.972 14.8833 196.756 15.35C196.556 15.8167 196.422 16.35 196.356 16.95ZM207.658 24V11.85H209.358L209.533 13.6H209.608C210.191 13.0167 210.8 12.5333 211.433 12.15C212.083 11.75 212.833 11.55 213.683 11.55C214.966 11.55 215.9 11.95 216.483 12.75C217.083 13.55 217.383 14.7333 217.383 16.3V24H215.333V16.575C215.333 15.425 215.15 14.6 214.783 14.1C214.416 13.5833 213.833 13.325 213.033 13.325C212.4 13.325 211.841 13.4833 211.358 13.8C210.875 14.1167 210.325 14.5833 209.708 15.2V24H207.658ZM225.155 24.3C224.505 24.3 223.955 24.2 223.505 24C223.071 23.8 222.713 23.525 222.43 23.175C222.163 22.825 221.971 22.4 221.855 21.9C221.738 21.4 221.68 20.85 221.68 20.25V13.525H219.88V11.975L221.78 11.85L222.03 8.45H223.755V11.85H227.03V13.525H223.755V20.275C223.755 21.025 223.888 21.6083 224.155 22.025C224.438 22.425 224.93 22.625 225.63 22.625C225.846 22.625 226.08 22.5917 226.33 22.525C226.58 22.4583 226.805 22.3833 227.005 22.3L227.405 23.85C227.071 23.9667 226.705 24.0667 226.305 24.15C225.921 24.25 225.538 24.3 225.155 24.3ZM233.327 24.3C232.027 24.3 231.077 23.9 230.477 23.1C229.894 22.3 229.602 21.1167 229.602 19.55V11.85H231.677V19.275C231.677 20.425 231.852 21.2583 232.202 21.775C232.569 22.275 233.152 22.525 233.952 22.525C234.585 22.525 235.144 22.3667 235.627 22.05C236.11 21.7167 236.644 21.1917 237.227 20.475V11.85H239.277V24H237.577L237.402 22.1H237.327C236.76 22.7667 236.16 23.3 235.527 23.7C234.91 24.1 234.177 24.3 233.327 24.3ZM243.376 24V11.85H245.076L245.251 14.05H245.326C245.742 13.2833 246.242 12.675 246.826 12.225C247.426 11.775 248.076 11.55 248.776 11.55C249.259 11.55 249.692 11.6333 250.076 11.8L249.676 13.6C249.476 13.5333 249.292 13.4833 249.126 13.45C248.959 13.4167 248.751 13.4 248.501 13.4C247.984 13.4 247.442 13.6083 246.876 14.025C246.326 14.4417 245.842 15.1667 245.426 16.2V24H243.376ZM256.724 24.3C255.907 24.3 255.14 24.1583 254.424 23.875C253.724 23.575 253.107 23.1583 252.574 22.625C252.057 22.075 251.649 21.4083 251.349 20.625C251.049 19.8417 250.899 18.95 250.899 17.95C250.899 16.95 251.049 16.0583 251.349 15.275C251.665 14.475 252.074 13.8 252.574 13.25C253.09 12.7 253.674 12.2833 254.324 12C254.974 11.7 255.649 11.55 256.349 11.55C257.115 11.55 257.799 11.6833 258.399 11.95C259.015 12.2167 259.524 12.6 259.924 13.1C260.34 13.6 260.657 14.2 260.874 14.9C261.09 15.6 261.199 16.3833 261.199 17.25C261.199 17.4667 261.19 17.6833 261.174 17.9C261.174 18.1 261.157 18.275 261.124 18.425H252.924C253.007 19.725 253.407 20.7583 254.124 21.525C254.857 22.275 255.807 22.65 256.974 22.65C257.557 22.65 258.09 22.5667 258.574 22.4C259.074 22.2167 259.549 21.9833 259.999 21.7L260.724 23.05C260.19 23.3833 259.599 23.675 258.949 23.925C258.299 24.175 257.557 24.3 256.724 24.3ZM252.899 16.95H259.399C259.399 15.7167 259.132 14.7833 258.599 14.15C258.082 13.5 257.349 13.175 256.399 13.175C255.965 13.175 255.549 13.2583 255.149 13.425C254.765 13.5917 254.415 13.8417 254.099 14.175C253.782 14.4917 253.515 14.8833 253.299 15.35C253.099 15.8167 252.965 16.35 252.899 16.95Z" fill="white"/>
<path d="M344 72.7666H300.133" stroke="white"/>
<path d="M132.152 68.825L131.377 71.325H136.302L135.527 68.825C135.227 67.9083 134.943 67 134.677 66.1C134.41 65.1833 134.143 64.25 133.877 63.3H133.777C133.527 64.25 133.268 65.1833 133.002 66.1C132.735 67 132.452 67.9083 132.152 68.825ZM127.152 78L132.702 61.6H135.052L140.602 78H138.377L136.827 73H130.852L129.277 78H127.152ZM147.65 78.3C146.834 78.3 146.067 78.1583 145.35 77.875C144.65 77.575 144.034 77.1583 143.5 76.625C142.984 76.075 142.575 75.4083 142.275 74.625C141.975 73.8417 141.825 72.95 141.825 71.95C141.825 70.95 141.975 70.0583 142.275 69.275C142.592 68.475 143 67.8 143.5 67.25C144.017 66.7 144.6 66.2833 145.25 66C145.9 65.7 146.575 65.55 147.275 65.55C148.042 65.55 148.725 65.6833 149.325 65.95C149.942 66.2167 150.45 66.6 150.85 67.1C151.267 67.6 151.584 68.2 151.8 68.9C152.017 69.6 152.125 70.3833 152.125 71.25C152.125 71.4667 152.117 71.6833 152.1 71.9C152.1 72.1 152.084 72.275 152.05 72.425H143.85C143.934 73.725 144.334 74.7583 145.05 75.525C145.784 76.275 146.734 76.65 147.9 76.65C148.484 76.65 149.017 76.5667 149.5 76.4C150 76.2167 150.475 75.9833 150.925 75.7L151.65 77.05C151.117 77.3833 150.525 77.675 149.875 77.925C149.225 78.175 148.484 78.3 147.65 78.3ZM143.825 70.95H150.325C150.325 69.7167 150.059 68.7833 149.525 68.15C149.009 67.5 148.275 67.175 147.325 67.175C146.892 67.175 146.475 67.2583 146.075 67.425C145.692 67.5917 145.342 67.8417 145.025 68.175C144.709 68.4917 144.442 68.8833 144.225 69.35C144.025 69.8167 143.892 70.35 143.825 70.95ZM146.95 63.675L145.9 62.65L149.425 58.475L150.875 59.85L146.95 63.675ZM155.128 78V65.85H156.828L157.003 68.05H157.078C157.494 67.2833 157.994 66.675 158.578 66.225C159.178 65.775 159.828 65.55 160.528 65.55C161.011 65.55 161.444 65.6333 161.828 65.8L161.428 67.6C161.228 67.5333 161.044 67.4833 160.878 67.45C160.711 67.4167 160.503 67.4 160.253 67.4C159.736 67.4 159.194 67.6083 158.628 68.025C158.078 68.4417 157.594 69.1667 157.178 70.2V78H155.128ZM168.275 78.3C167.525 78.3 166.809 78.1583 166.125 77.875C165.459 77.5917 164.867 77.1833 164.35 76.65C163.834 76.1 163.417 75.4333 163.1 74.65C162.8 73.85 162.65 72.95 162.65 71.95C162.65 70.9333 162.8 70.0333 163.1 69.25C163.417 68.45 163.834 67.775 164.35 67.225C164.867 66.675 165.459 66.2583 166.125 65.975C166.809 65.6917 167.525 65.55 168.275 65.55C169.025 65.55 169.734 65.6917 170.4 65.975C171.084 66.2583 171.684 66.675 172.2 67.225C172.717 67.775 173.125 68.45 173.425 69.25C173.742 70.0333 173.9 70.9333 173.9 71.95C173.9 72.95 173.742 73.85 173.425 74.65C173.125 75.4333 172.717 76.1 172.2 76.65C171.684 77.1833 171.084 77.5917 170.4 77.875C169.734 78.1583 169.025 78.3 168.275 78.3ZM168.275 76.6C168.792 76.6 169.267 76.4917 169.7 76.275C170.134 76.0417 170.5 75.725 170.8 75.325C171.117 74.9083 171.359 74.4167 171.525 73.85C171.692 73.2833 171.775 72.65 171.775 71.95C171.775 71.25 171.692 70.6167 171.525 70.05C171.359 69.4667 171.117 68.9667 170.8 68.55C170.5 68.1333 170.134 67.8167 169.7 67.6C169.267 67.3667 168.792 67.25 168.275 67.25C167.759 67.25 167.284 67.3667 166.85 67.6C166.417 67.8167 166.042 68.1333 165.725 68.55C165.425 68.9667 165.192 69.4667 165.025 70.05C164.859 70.6167 164.775 71.25 164.775 71.95C164.775 72.65 164.859 73.2833 165.025 73.85C165.192 74.4167 165.425 74.9083 165.725 75.325C166.042 75.725 166.417 76.0417 166.85 76.275C167.284 76.4917 167.759 76.6 168.275 76.6ZM177.1 83.125V65.85H178.8L178.975 67.25H179.05C179.6 66.7833 180.2 66.3833 180.85 66.05C181.517 65.7167 182.209 65.55 182.925 65.55C183.709 65.55 184.4 65.7 185 66C185.6 66.2833 186.1 66.7 186.5 67.25C186.9 67.7833 187.2 68.4333 187.4 69.2C187.617 69.95 187.725 70.8 187.725 71.75C187.725 72.7833 187.584 73.7083 187.3 74.525C187.017 75.325 186.634 76.0083 186.15 76.575C185.667 77.1417 185.109 77.575 184.475 77.875C183.842 78.1583 183.175 78.3 182.475 78.3C181.909 78.3 181.342 78.175 180.775 77.925C180.225 77.675 179.667 77.3333 179.1 76.9L179.15 79.025V83.125H177.1ZM182.125 76.575C182.625 76.575 183.084 76.4667 183.5 76.25C183.934 76.0167 184.3 75.7 184.6 75.3C184.917 74.8833 185.159 74.375 185.325 73.775C185.509 73.175 185.6 72.5 185.6 71.75C185.6 71.0833 185.542 70.475 185.425 69.925C185.309 69.375 185.117 68.9083 184.85 68.525C184.6 68.125 184.267 67.8167 183.85 67.6C183.45 67.3833 182.967 67.275 182.4 67.275C181.884 67.275 181.359 67.4167 180.825 67.7C180.309 67.9833 179.75 68.3917 179.15 68.925V75.3C179.7 75.7667 180.234 76.1 180.75 76.3C181.267 76.4833 181.725 76.575 182.125 76.575ZM195.692 78.3C194.942 78.3 194.226 78.1583 193.542 77.875C192.876 77.5917 192.284 77.1833 191.767 76.65C191.251 76.1 190.834 75.4333 190.517 74.65C190.217 73.85 190.067 72.95 190.067 71.95C190.067 70.9333 190.217 70.0333 190.517 69.25C190.834 68.45 191.251 67.775 191.767 67.225C192.284 66.675 192.876 66.2583 193.542 65.975C194.226 65.6917 194.942 65.55 195.692 65.55C196.442 65.55 197.151 65.6917 197.817 65.975C198.501 66.2583 199.101 66.675 199.617 67.225C200.134 67.775 200.542 68.45 200.842 69.25C201.159 70.0333 201.317 70.9333 201.317 71.95C201.317 72.95 201.159 73.85 200.842 74.65C200.542 75.4333 200.134 76.1 199.617 76.65C199.101 77.1833 198.501 77.5917 197.817 77.875C197.151 78.1583 196.442 78.3 195.692 78.3ZM195.692 76.6C196.209 76.6 196.684 76.4917 197.117 76.275C197.551 76.0417 197.917 75.725 198.217 75.325C198.534 74.9083 198.776 74.4167 198.942 73.85C199.109 73.2833 199.192 72.65 199.192 71.95C199.192 71.25 199.109 70.6167 198.942 70.05C198.776 69.4667 198.534 68.9667 198.217 68.55C197.917 68.1333 197.551 67.8167 197.117 67.6C196.684 67.3667 196.209 67.25 195.692 67.25C195.176 67.25 194.701 67.3667 194.267 67.6C193.834 67.8167 193.459 68.1333 193.142 68.55C192.842 68.9667 192.609 69.4667 192.442 70.05C192.276 70.6167 192.192 71.25 192.192 71.95C192.192 72.65 192.276 73.2833 192.442 73.85C192.609 74.4167 192.842 74.9083 193.142 75.325C193.459 75.725 193.834 76.0417 194.267 76.275C194.701 76.4917 195.176 76.6 195.692 76.6ZM204.517 78V65.85H206.217L206.392 68.05H206.467C206.884 67.2833 207.384 66.675 207.967 66.225C208.567 65.775 209.217 65.55 209.917 65.55C210.401 65.55 210.834 65.6333 211.217 65.8L210.817 67.6C210.617 67.5333 210.434 67.4833 210.267 67.45C210.101 67.4167 209.892 67.4 209.642 67.4C209.126 67.4 208.584 67.6083 208.017 68.025C207.467 68.4417 206.984 69.1667 206.567 70.2V78H204.517ZM217.009 78.3C216.359 78.3 215.809 78.2 215.359 78C214.926 77.8 214.568 77.525 214.284 77.175C214.018 76.825 213.826 76.4 213.709 75.9C213.593 75.4 213.534 74.85 213.534 74.25V67.525H211.734V65.975L213.634 65.85L213.884 62.45H215.609V65.85H218.884V67.525H215.609V74.275C215.609 75.025 215.743 75.6083 216.009 76.025C216.293 76.425 216.784 76.625 217.484 76.625C217.701 76.625 217.934 76.5917 218.184 76.525C218.434 76.4583 218.659 76.3833 218.859 76.3L219.259 77.85C218.926 77.9667 218.559 78.0667 218.159 78.15C217.776 78.25 217.393 78.3 217.009 78.3ZM230.786 78.3C229.253 78.3 228.028 77.75 227.111 76.65C226.211 75.55 225.761 73.9833 225.761 71.95C225.761 70.9667 225.903 70.0833 226.186 69.3C226.486 68.5 226.878 67.825 227.361 67.275C227.845 66.725 228.403 66.3 229.036 66C229.67 65.7 230.336 65.55 231.036 65.55C231.736 65.55 232.345 65.675 232.861 65.925C233.378 66.175 233.903 66.5167 234.436 66.95L234.336 64.875V60.2H236.411V78H234.711L234.536 76.575H234.461C233.978 77.0417 233.42 77.45 232.786 77.8C232.17 78.1333 231.503 78.3 230.786 78.3ZM231.236 76.575C231.803 76.575 232.336 76.4417 232.836 76.175C233.336 75.8917 233.836 75.4667 234.336 74.9V68.55C233.82 68.0833 233.32 67.7583 232.836 67.575C232.37 67.375 231.886 67.275 231.386 67.275C230.903 67.275 230.445 67.3917 230.011 67.625C229.595 67.8417 229.228 68.1583 228.911 68.575C228.595 68.975 228.345 69.4583 228.161 70.025C227.978 70.5917 227.886 71.225 227.886 71.925C227.886 73.3917 228.178 74.5333 228.761 75.35C229.345 76.1667 230.17 76.575 231.236 76.575ZM244.054 78.3C242.754 78.3 241.804 77.9 241.204 77.1C240.62 76.3 240.329 75.1167 240.329 73.55V65.85H242.404V73.275C242.404 74.425 242.579 75.2583 242.929 75.775C243.295 76.275 243.879 76.525 244.679 76.525C245.312 76.525 245.87 76.3667 246.354 76.05C246.837 75.7167 247.37 75.1917 247.954 74.475V65.85H250.004V78H248.304L248.129 76.1H248.054C247.487 76.7667 246.887 77.3 246.254 77.7C245.637 78.1 244.904 78.3 244.054 78.3ZM259.307 78V61.6H261.382V76.225H268.557V78H259.307ZM275.897 78.3C275.081 78.3 274.314 78.1583 273.597 77.875C272.897 77.575 272.281 77.1583 271.747 76.625C271.231 76.075 270.822 75.4083 270.522 74.625C270.222 73.8417 270.072 72.95 270.072 71.95C270.072 70.95 270.222 70.0583 270.522 69.275C270.839 68.475 271.247 67.8 271.747 67.25C272.264 66.7 272.847 66.2833 273.497 66C274.147 65.7 274.822 65.55 275.522 65.55C276.289 65.55 276.972 65.6833 277.572 65.95C278.189 66.2167 278.697 66.6 279.097 67.1C279.514 67.6 279.831 68.2 280.047 68.9C280.264 69.6 280.372 70.3833 280.372 71.25C280.372 71.4667 280.364 71.6833 280.347 71.9C280.347 72.1 280.331 72.275 280.297 72.425H272.097C272.181 73.725 272.581 74.7583 273.297 75.525C274.031 76.275 274.981 76.65 276.147 76.65C276.731 76.65 277.264 76.5667 277.747 76.4C278.247 76.2167 278.722 75.9833 279.172 75.7L279.897 77.05C279.364 77.3833 278.772 77.675 278.122 77.925C277.472 78.175 276.731 78.3 275.897 78.3ZM272.072 70.95H278.572C278.572 69.7167 278.306 68.7833 277.772 68.15C277.256 67.5 276.522 67.175 275.572 67.175C275.139 67.175 274.722 67.2583 274.322 67.425C273.939 67.5917 273.589 67.8417 273.272 68.175C272.956 68.4917 272.689 68.8833 272.472 69.35C272.272 69.8167 272.139 70.35 272.072 70.95ZM283.375 78V60.2H285.425V65.05L285.35 67.55C285.933 67 286.541 66.5333 287.175 66.15C287.808 65.75 288.55 65.55 289.4 65.55C290.683 65.55 291.616 65.95 292.2 66.75C292.8 67.55 293.1 68.7333 293.1 70.3V78H291.05V70.575C291.05 69.425 290.866 68.6 290.5 68.1C290.133 67.5833 289.55 67.325 288.75 67.325C288.116 67.325 287.558 67.4833 287.075 67.8C286.591 68.1167 286.041 68.5833 285.425 69.2V78H283.375Z" fill="white"/>
<line x1="311.867" y1="121.5" x2="268" y2="121.5" stroke="white"/>
<line x1="289.867" y1="173.5" x2="246" y2="173.5" stroke="white"/>
<path d="M43.8374 125V108.6H47.9374C50.4707 108.6 52.3957 109.3 53.7124 110.7C55.0291 112.1 55.6874 114.108 55.6874 116.725C55.6874 118.025 55.5207 119.192 55.1874 120.225C54.8541 121.242 54.3624 122.108 53.7124 122.825C53.0624 123.525 52.2624 124.067 51.3124 124.45C50.3624 124.817 49.2707 125 48.0374 125H43.8374ZM45.9124 123.3H47.7874C49.7041 123.3 51.1374 122.725 52.0874 121.575C53.0541 120.425 53.5374 118.808 53.5374 116.725C53.5374 114.642 53.0541 113.05 52.0874 111.95C51.1374 110.85 49.7041 110.3 47.7874 110.3H45.9124V123.3ZM63.9433 125.3C63.1266 125.3 62.3599 125.158 61.6433 124.875C60.9433 124.575 60.3266 124.158 59.7933 123.625C59.2766 123.075 58.8683 122.408 58.5683 121.625C58.2683 120.842 58.1183 119.95 58.1183 118.95C58.1183 117.95 58.2683 117.058 58.5683 116.275C58.8849 115.475 59.2933 114.8 59.7933 114.25C60.3099 113.7 60.8933 113.283 61.5433 113C62.1933 112.7 62.8683 112.55 63.5683 112.55C64.3349 112.55 65.0183 112.683 65.6183 112.95C66.2349 113.217 66.7433 113.6 67.1433 114.1C67.5599 114.6 67.8766 115.2 68.0933 115.9C68.3099 116.6 68.4183 117.383 68.4183 118.25C68.4183 118.467 68.4099 118.683 68.3933 118.9C68.3933 119.1 68.3766 119.275 68.3433 119.425H60.1433C60.2266 120.725 60.6266 121.758 61.3433 122.525C62.0766 123.275 63.0266 123.65 64.1933 123.65C64.7766 123.65 65.3099 123.567 65.7933 123.4C66.2933 123.217 66.7683 122.983 67.2183 122.7L67.9433 124.05C67.4099 124.383 66.8183 124.675 66.1683 124.925C65.5183 125.175 64.7766 125.3 63.9433 125.3ZM60.1183 117.95H66.6183C66.6183 116.717 66.3516 115.783 65.8183 115.15C65.3016 114.5 64.5683 114.175 63.6183 114.175C63.1849 114.175 62.7683 114.258 62.3683 114.425C61.9849 114.592 61.6349 114.842 61.3183 115.175C61.0016 115.492 60.7349 115.883 60.5183 116.35C60.3183 116.817 60.1849 117.35 60.1183 117.95ZM63.2433 110.675L62.1933 109.65L65.7183 105.475L67.1683 106.85L63.2433 110.675ZM76.7956 125.3C76.2289 125.3 75.6373 125.167 75.0206 124.9C74.4206 124.617 73.8539 124.233 73.3206 123.75H73.2456L73.0706 125H71.4206V107.2H73.4706V112.05L73.4206 114.25C73.9706 113.767 74.5706 113.367 75.2206 113.05C75.8706 112.717 76.5373 112.55 77.2206 112.55C78.0039 112.55 78.6956 112.7 79.2956 113C79.8956 113.283 80.3956 113.7 80.7956 114.25C81.2123 114.783 81.5206 115.433 81.7206 116.2C81.9373 116.95 82.0456 117.792 82.0456 118.725C82.0456 119.758 81.9039 120.683 81.6206 121.5C81.3373 122.317 80.9539 123.008 80.4706 123.575C79.9873 124.142 79.4289 124.575 78.7956 124.875C78.1623 125.158 77.4956 125.3 76.7956 125.3ZM76.4456 123.575C76.9456 123.575 77.4039 123.467 77.8206 123.25C78.2539 123.017 78.6206 122.7 78.9206 122.3C79.2373 121.883 79.4789 121.375 79.6456 120.775C79.8289 120.175 79.9206 119.5 79.9206 118.75C79.9206 118.083 79.8623 117.475 79.7456 116.925C79.6289 116.375 79.4373 115.908 79.1706 115.525C78.9206 115.125 78.5873 114.817 78.1706 114.6C77.7706 114.383 77.2873 114.275 76.7206 114.275C75.7373 114.275 74.6539 114.825 73.4706 115.925V122.3C74.0039 122.767 74.5289 123.1 75.0456 123.3C75.5789 123.483 76.0456 123.575 76.4456 123.575ZM88.789 125.3C87.489 125.3 86.539 124.9 85.939 124.1C85.3556 123.3 85.064 122.117 85.064 120.55V112.85H87.139V120.275C87.139 121.425 87.314 122.258 87.664 122.775C88.0306 123.275 88.614 123.525 89.414 123.525C90.0473 123.525 90.6056 123.367 91.089 123.05C91.5723 122.717 92.1056 122.192 92.689 121.475V112.85H94.739V125H93.039L92.864 123.1H92.789C92.2223 123.767 91.6223 124.3 90.989 124.7C90.3723 125.1 89.639 125.3 88.789 125.3ZM102.663 125.3C102.013 125.3 101.463 125.2 101.013 125C100.579 124.8 100.221 124.525 99.9376 124.175C99.6709 123.825 99.4793 123.4 99.3626 122.9C99.2459 122.4 99.1876 121.85 99.1876 121.25V114.525H97.3876V112.975L99.2876 112.85L99.5376 109.45H101.263V112.85H104.538V114.525H101.263V121.275C101.263 122.025 101.396 122.608 101.663 123.025C101.946 123.425 102.438 123.625 103.138 123.625C103.354 123.625 103.588 123.592 103.838 123.525C104.088 123.458 104.313 123.383 104.513 123.3L104.913 124.85C104.579 124.967 104.213 125.067 103.813 125.15C103.429 125.25 103.046 125.3 102.663 125.3ZM116.44 125.3C114.906 125.3 113.681 124.75 112.765 123.65C111.865 122.55 111.415 120.983 111.415 118.95C111.415 117.967 111.556 117.083 111.84 116.3C112.14 115.5 112.531 114.825 113.015 114.275C113.498 113.725 114.056 113.3 114.69 113C115.323 112.7 115.99 112.55 116.69 112.55C117.39 112.55 117.998 112.675 118.515 112.925C119.031 113.175 119.556 113.517 120.09 113.95L119.99 111.875V107.2H122.065V125H120.365L120.19 123.575H120.115C119.631 124.042 119.073 124.45 118.44 124.8C117.823 125.133 117.156 125.3 116.44 125.3ZM116.89 123.575C117.456 123.575 117.99 123.442 118.49 123.175C118.99 122.892 119.49 122.467 119.99 121.9V115.55C119.473 115.083 118.973 114.758 118.49 114.575C118.023 114.375 117.54 114.275 117.04 114.275C116.556 114.275 116.098 114.392 115.665 114.625C115.248 114.842 114.881 115.158 114.565 115.575C114.248 115.975 113.998 116.458 113.815 117.025C113.631 117.592 113.54 118.225 113.54 118.925C113.54 120.392 113.831 121.533 114.415 122.35C114.998 123.167 115.823 123.575 116.89 123.575ZM131.082 125.3C130.265 125.3 129.499 125.158 128.782 124.875C128.082 124.575 127.465 124.158 126.932 123.625C126.415 123.075 126.007 122.408 125.707 121.625C125.407 120.842 125.257 119.95 125.257 118.95C125.257 117.95 125.407 117.058 125.707 116.275C126.024 115.475 126.432 114.8 126.932 114.25C127.449 113.7 128.032 113.283 128.682 113C129.332 112.7 130.007 112.55 130.707 112.55C131.474 112.55 132.157 112.683 132.757 112.95C133.374 113.217 133.882 113.6 134.282 114.1C134.699 114.6 135.015 115.2 135.232 115.9C135.449 116.6 135.557 117.383 135.557 118.25C135.557 118.467 135.549 118.683 135.532 118.9C135.532 119.1 135.515 119.275 135.482 119.425H127.282C127.365 120.725 127.765 121.758 128.482 122.525C129.215 123.275 130.165 123.65 131.332 123.65C131.915 123.65 132.449 123.567 132.932 123.4C133.432 123.217 133.907 122.983 134.357 122.7L135.082 124.05C134.549 124.383 133.957 124.675 133.307 124.925C132.657 125.175 131.915 125.3 131.082 125.3ZM127.257 117.95H133.757C133.757 116.717 133.49 115.783 132.957 115.15C132.44 114.5 131.707 114.175 130.757 114.175C130.324 114.175 129.907 114.258 129.507 114.425C129.124 114.592 128.774 114.842 128.457 115.175C128.14 115.492 127.874 115.883 127.657 116.35C127.457 116.817 127.324 117.35 127.257 117.95ZM145.739 125.3C144.956 125.3 144.397 125.067 144.064 124.6C143.731 124.133 143.564 123.45 143.564 122.55V107.2H145.614V122.7C145.614 123.033 145.672 123.267 145.789 123.4C145.906 123.533 146.039 123.6 146.189 123.6C146.256 123.6 146.314 123.6 146.364 123.6C146.431 123.6 146.522 123.583 146.639 123.55L146.914 125.1C146.781 125.167 146.622 125.217 146.439 125.25C146.256 125.283 146.022 125.3 145.739 125.3ZM152.736 125.3C151.72 125.3 150.87 125 150.186 124.4C149.52 123.8 149.186 122.95 149.186 121.85C149.186 120.517 149.778 119.5 150.961 118.8C152.145 118.083 154.036 117.583 156.636 117.3C156.636 116.917 156.595 116.542 156.511 116.175C156.445 115.808 156.32 115.483 156.136 115.2C155.953 114.917 155.695 114.692 155.361 114.525C155.045 114.342 154.636 114.25 154.136 114.25C153.436 114.25 152.778 114.383 152.161 114.65C151.545 114.917 150.995 115.217 150.511 115.55L149.711 114.125C150.278 113.758 150.97 113.408 151.786 113.075C152.603 112.725 153.503 112.55 154.486 112.55C155.97 112.55 157.045 113.008 157.711 113.925C158.378 114.825 158.711 116.033 158.711 117.55V125H157.011L156.836 123.55H156.761C156.178 124.033 155.553 124.45 154.886 124.8C154.22 125.133 153.503 125.3 152.736 125.3ZM153.336 123.65C153.92 123.65 154.47 123.517 154.986 123.25C155.503 122.967 156.053 122.558 156.636 122.025V118.65C155.62 118.783 154.761 118.942 154.061 119.125C153.378 119.308 152.82 119.525 152.386 119.775C151.97 120.025 151.661 120.317 151.461 120.65C151.278 120.967 151.186 121.317 151.186 121.7C151.186 122.4 151.395 122.9 151.811 123.2C152.228 123.5 152.736 123.65 153.336 123.65ZM171.364 125.3C170.714 125.3 170.164 125.2 169.714 125C169.28 124.8 168.922 124.525 168.639 124.175C168.372 123.825 168.18 123.4 168.064 122.9C167.947 122.4 167.889 121.85 167.889 121.25V114.525H166.089V112.975L167.989 112.85L168.239 109.45H169.964V112.85H173.239V114.525H169.964V121.275C169.964 122.025 170.097 122.608 170.364 123.025C170.647 123.425 171.139 123.625 171.839 123.625C172.055 123.625 172.289 123.592 172.539 123.525C172.789 123.458 173.014 123.383 173.214 123.3L173.614 124.85C173.28 124.967 172.914 125.067 172.514 125.15C172.13 125.25 171.747 125.3 171.364 125.3ZM175.986 125V112.85H177.686L177.861 115.05H177.936C178.353 114.283 178.853 113.675 179.436 113.225C180.036 112.775 180.686 112.55 181.386 112.55C181.869 112.55 182.303 112.633 182.686 112.8L182.286 114.6C182.086 114.533 181.903 114.483 181.736 114.45C181.569 114.417 181.361 114.4 181.111 114.4C180.594 114.4 180.053 114.608 179.486 115.025C178.936 115.442 178.453 116.167 178.036 117.2V125H175.986ZM186.843 125.3C185.826 125.3 184.976 125 184.293 124.4C183.626 123.8 183.293 122.95 183.293 121.85C183.293 120.517 183.884 119.5 185.068 118.8C186.251 118.083 188.143 117.583 190.743 117.3C190.743 116.917 190.701 116.542 190.618 116.175C190.551 115.808 190.426 115.483 190.243 115.2C190.059 114.917 189.801 114.692 189.468 114.525C189.151 114.342 188.743 114.25 188.243 114.25C187.543 114.25 186.884 114.383 186.268 114.65C185.651 114.917 185.101 115.217 184.618 115.55L183.818 114.125C184.384 113.758 185.076 113.408 185.893 113.075C186.709 112.725 187.609 112.55 188.593 112.55C190.076 112.55 191.151 113.008 191.818 113.925C192.484 114.825 192.818 116.033 192.818 117.55V125H191.118L190.943 123.55H190.868C190.284 124.033 189.659 124.45 188.993 124.8C188.326 125.133 187.609 125.3 186.843 125.3ZM187.443 123.65C188.026 123.65 188.576 123.517 189.093 123.25C189.609 122.967 190.159 122.558 190.743 122.025V118.65C189.726 118.783 188.868 118.942 188.168 119.125C187.484 119.308 186.926 119.525 186.493 119.775C186.076 120.025 185.768 120.317 185.568 120.65C185.384 120.967 185.293 121.317 185.293 121.7C185.293 122.4 185.501 122.9 185.918 123.2C186.334 123.5 186.843 123.65 187.443 123.65ZM199.265 125L194.89 112.85H197.015L199.315 119.75C199.499 120.35 199.682 120.95 199.865 121.55C200.065 122.15 200.257 122.742 200.44 123.325H200.54C200.724 122.742 200.907 122.15 201.09 121.55C201.274 120.95 201.457 120.35 201.64 119.75L203.94 112.85H205.965L201.665 125H199.265ZM213.138 125.3C212.321 125.3 211.554 125.158 210.838 124.875C210.138 124.575 209.521 124.158 208.988 123.625C208.471 123.075 208.063 122.408 207.763 121.625C207.463 120.842 207.313 119.95 207.313 118.95C207.313 117.95 207.463 117.058 207.763 116.275C208.079 115.475 208.488 114.8 208.988 114.25C209.504 113.7 210.088 113.283 210.738 113C211.388 112.7 212.063 112.55 212.763 112.55C213.529 112.55 214.213 112.683 214.813 112.95C215.429 113.217 215.938 113.6 216.338 114.1C216.754 114.6 217.071 115.2 217.288 115.9C217.504 116.6 217.613 117.383 217.613 118.25C217.613 118.467 217.604 118.683 217.588 118.9C217.588 119.1 217.571 119.275 217.538 119.425H209.338C209.421 120.725 209.821 121.758 210.538 122.525C211.271 123.275 212.221 123.65 213.388 123.65C213.971 123.65 214.504 123.567 214.988 123.4C215.488 123.217 215.963 122.983 216.413 122.7L217.138 124.05C216.604 124.383 216.013 124.675 215.363 124.925C214.713 125.175 213.971 125.3 213.138 125.3ZM209.313 117.95H215.813C215.813 116.717 215.546 115.783 215.013 115.15C214.496 114.5 213.763 114.175 212.813 114.175C212.379 114.175 211.963 114.258 211.563 114.425C211.179 114.592 210.829 114.842 210.513 115.175C210.196 115.492 209.929 115.883 209.713 116.35C209.513 116.817 209.379 117.35 209.313 117.95ZM220.615 125V112.85H222.315L222.49 115.05H222.565C222.982 114.283 223.482 113.675 224.065 113.225C224.665 112.775 225.315 112.55 226.015 112.55C226.498 112.55 226.932 112.633 227.315 112.8L226.915 114.6C226.715 114.533 226.532 114.483 226.365 114.45C226.198 114.417 225.99 114.4 225.74 114.4C225.223 114.4 224.682 114.608 224.115 115.025C223.565 115.442 223.082 116.167 222.665 117.2V125H220.615ZM232.359 125.3C231.493 125.3 230.668 125.142 229.884 124.825C229.101 124.508 228.418 124.108 227.834 123.625L228.859 122.25C229.393 122.683 229.934 123.033 230.484 123.3C231.051 123.567 231.701 123.7 232.434 123.7C233.234 123.7 233.834 123.517 234.234 123.15C234.634 122.783 234.834 122.333 234.834 121.8C234.834 121.483 234.751 121.208 234.584 120.975C234.418 120.742 234.201 120.542 233.934 120.375C233.684 120.192 233.393 120.033 233.059 119.9C232.726 119.767 232.393 119.633 232.059 119.5C231.626 119.35 231.193 119.183 230.759 119C230.326 118.8 229.934 118.567 229.584 118.3C229.251 118.017 228.976 117.692 228.759 117.325C228.543 116.958 228.434 116.517 228.434 116C228.434 115.517 228.526 115.067 228.709 114.65C228.909 114.217 229.184 113.85 229.534 113.55C229.901 113.233 230.343 112.992 230.859 112.825C231.376 112.642 231.959 112.55 232.609 112.55C233.376 112.55 234.076 112.683 234.709 112.95C235.359 113.217 235.918 113.542 236.384 113.925L235.409 115.225C234.993 114.908 234.559 114.65 234.109 114.45C233.659 114.25 233.168 114.15 232.634 114.15C231.868 114.15 231.301 114.325 230.934 114.675C230.584 115.025 230.409 115.433 230.409 115.9C230.409 116.183 230.484 116.433 230.634 116.65C230.784 116.85 230.984 117.033 231.234 117.2C231.484 117.35 231.768 117.492 232.084 117.625C232.418 117.742 232.759 117.867 233.109 118C233.543 118.167 233.976 118.342 234.409 118.525C234.859 118.708 235.259 118.942 235.609 119.225C235.959 119.492 236.243 119.825 236.459 120.225C236.693 120.625 236.809 121.108 236.809 121.675C236.809 122.175 236.709 122.642 236.509 123.075C236.326 123.508 236.043 123.892 235.659 124.225C235.293 124.558 234.826 124.817 234.259 125C233.709 125.2 233.076 125.3 232.359 125.3ZM244.583 125.3C243.766 125.3 243 125.158 242.283 124.875C241.583 124.575 240.966 124.158 240.433 123.625C239.916 123.075 239.508 122.408 239.208 121.625C238.908 120.842 238.758 119.95 238.758 118.95C238.758 117.95 238.908 117.058 239.208 116.275C239.525 115.475 239.933 114.8 240.433 114.25C240.95 113.7 241.533 113.283 242.183 113C242.833 112.7 243.508 112.55 244.208 112.55C244.975 112.55 245.658 112.683 246.258 112.95C246.875 113.217 247.383 113.6 247.783 114.1C248.2 114.6 248.516 115.2 248.733 115.9C248.95 116.6 249.058 117.383 249.058 118.25C249.058 118.467 249.05 118.683 249.033 118.9C249.033 119.1 249.016 119.275 248.983 119.425H240.783C240.866 120.725 241.266 121.758 241.983 122.525C242.716 123.275 243.666 123.65 244.833 123.65C245.416 123.65 245.95 123.567 246.433 123.4C246.933 123.217 247.408 122.983 247.858 122.7L248.583 124.05C248.05 124.383 247.458 124.675 246.808 124.925C246.158 125.175 245.416 125.3 244.583 125.3ZM240.758 117.95H247.258C247.258 116.717 246.991 115.783 246.458 115.15C245.941 114.5 245.208 114.175 244.258 114.175C243.825 114.175 243.408 114.258 243.008 114.425C242.625 114.592 242.275 114.842 241.958 115.175C241.641 115.492 241.375 115.883 241.158 116.35C240.958 116.817 240.825 117.35 240.758 117.95ZM243.883 110.675L242.833 109.65L246.358 105.475L247.808 106.85L243.883 110.675ZM256.985 125.3C256.169 125.3 255.402 125.158 254.685 124.875C253.985 124.575 253.369 124.158 252.835 123.625C252.319 123.075 251.91 122.408 251.61 121.625C251.31 120.842 251.16 119.95 251.16 118.95C251.16 117.95 251.31 117.058 251.61 116.275C251.927 115.475 252.335 114.8 252.835 114.25C253.352 113.7 253.935 113.283 254.585 113C255.235 112.7 255.91 112.55 256.61 112.55C257.377 112.55 258.06 112.683 258.66 112.95C259.277 113.217 259.785 113.6 260.185 114.1C260.602 114.6 260.919 115.2 261.135 115.9C261.352 116.6 261.46 117.383 261.46 118.25C261.46 118.467 261.452 118.683 261.435 118.9C261.435 119.1 261.419 119.275 261.385 119.425H253.185C253.269 120.725 253.669 121.758 254.385 122.525C255.119 123.275 256.069 123.65 257.235 123.65C257.819 123.65 258.352 123.567 258.835 123.4C259.335 123.217 259.81 122.983 260.26 122.7L260.985 124.05C260.452 124.383 259.86 124.675 259.21 124.925C258.56 125.175 257.819 125.3 256.985 125.3ZM253.16 117.95H259.66C259.66 116.717 259.394 115.783 258.86 115.15C258.344 114.5 257.61 114.175 256.66 114.175C256.227 114.175 255.81 114.258 255.41 114.425C255.027 114.592 254.677 114.842 254.36 115.175C254.044 115.492 253.777 115.883 253.56 116.35C253.36 116.817 253.227 117.35 253.16 117.95Z" fill="white"/>
<path d="M66.409 178.3C65.3757 178.3 64.4257 178.108 63.559 177.725C62.6923 177.342 61.934 176.792 61.284 176.075C60.6507 175.342 60.1507 174.45 59.784 173.4C59.434 172.333 59.259 171.133 59.259 169.8C59.259 168.483 59.4423 167.3 59.809 166.25C60.1757 165.2 60.684 164.308 61.334 163.575C61.984 162.842 62.7507 162.283 63.634 161.9C64.5173 161.5 65.484 161.3 66.534 161.3C67.534 161.3 68.409 161.508 69.159 161.925C69.9257 162.325 70.5507 162.792 71.034 163.325L69.909 164.675C69.4757 164.208 68.984 163.833 68.434 163.55C67.884 163.267 67.259 163.125 66.559 163.125C65.7757 163.125 65.0673 163.283 64.434 163.6C63.8007 163.9 63.259 164.342 62.809 164.925C62.359 165.492 62.009 166.183 61.759 167C61.5257 167.817 61.409 168.733 61.409 169.75C61.409 170.783 61.5257 171.717 61.759 172.55C62.009 173.367 62.3507 174.067 62.784 174.65C63.2173 175.233 63.7423 175.683 64.359 176C64.9923 176.317 65.7007 176.475 66.484 176.475C67.284 176.475 67.984 176.317 68.584 176C69.184 175.667 69.7507 175.208 70.284 174.625L71.434 175.925C70.784 176.675 70.0507 177.258 69.234 177.675C68.4173 178.092 67.4757 178.3 66.409 178.3ZM74.2912 178V160.2H76.3412V165.05L76.2662 167.55C76.8495 167 77.4579 166.533 78.0912 166.15C78.7245 165.75 79.4662 165.55 80.3162 165.55C81.5995 165.55 82.5329 165.95 83.1162 166.75C83.7162 167.55 84.0162 168.733 84.0162 170.3V178H81.9662V170.575C81.9662 169.425 81.7829 168.6 81.4162 168.1C81.0495 167.583 80.4662 167.325 79.6662 167.325C79.0329 167.325 78.4745 167.483 77.9912 167.8C77.5079 168.117 76.9579 168.583 76.3412 169.2V178H74.2912ZM91.4398 178.3C90.1398 178.3 89.1898 177.9 88.5898 177.1C88.0065 176.3 87.7148 175.117 87.7148 173.55V165.85H89.7898V173.275C89.7898 174.425 89.9648 175.258 90.3148 175.775C90.6815 176.275 91.2648 176.525 92.0648 176.525C92.6982 176.525 93.2565 176.367 93.7398 176.05C94.2232 175.717 94.7565 175.192 95.3398 174.475V165.85H97.3898V178H95.6898L95.5148 176.1H95.4398C94.8732 176.767 94.2732 177.3 93.6398 177.7C93.0232 178.1 92.2898 178.3 91.4398 178.3ZM105.313 178.3C104.663 178.3 104.113 178.2 103.663 178C103.23 177.8 102.872 177.525 102.588 177.175C102.322 176.825 102.13 176.4 102.013 175.9C101.897 175.4 101.838 174.85 101.838 174.25V167.525H100.038V165.975L101.938 165.85L102.188 162.45H103.913V165.85H107.188V167.525H103.913V174.275C103.913 175.025 104.047 175.608 104.313 176.025C104.597 176.425 105.088 176.625 105.788 176.625C106.005 176.625 106.238 176.592 106.488 176.525C106.738 176.458 106.963 176.383 107.163 176.3L107.563 177.85C107.23 177.967 106.863 178.067 106.463 178.15C106.08 178.25 105.697 178.3 105.313 178.3ZM114.519 178.3C113.702 178.3 112.936 178.158 112.219 177.875C111.519 177.575 110.902 177.158 110.369 176.625C109.852 176.075 109.444 175.408 109.144 174.625C108.844 173.842 108.694 172.95 108.694 171.95C108.694 170.95 108.844 170.058 109.144 169.275C109.461 168.475 109.869 167.8 110.369 167.25C110.886 166.7 111.469 166.283 112.119 166C112.769 165.7 113.444 165.55 114.144 165.55C114.911 165.55 115.594 165.683 116.194 165.95C116.811 166.217 117.319 166.6 117.719 167.1C118.136 167.6 118.452 168.2 118.669 168.9C118.886 169.6 118.994 170.383 118.994 171.25C118.994 171.467 118.986 171.683 118.969 171.9C118.969 172.1 118.952 172.275 118.919 172.425H110.719C110.802 173.725 111.202 174.758 111.919 175.525C112.652 176.275 113.602 176.65 114.769 176.65C115.352 176.65 115.886 176.567 116.369 176.4C116.869 176.217 117.344 175.983 117.794 175.7L118.519 177.05C117.986 177.383 117.394 177.675 116.744 177.925C116.094 178.175 115.352 178.3 114.519 178.3ZM110.694 170.95H117.194C117.194 169.717 116.927 168.783 116.394 168.15C115.877 167.5 115.144 167.175 114.194 167.175C113.761 167.175 113.344 167.258 112.944 167.425C112.561 167.592 112.211 167.842 111.894 168.175C111.577 168.492 111.311 168.883 111.094 169.35C110.894 169.817 110.761 170.35 110.694 170.95ZM131.151 178.3C129.618 178.3 128.393 177.75 127.476 176.65C126.576 175.55 126.126 173.983 126.126 171.95C126.126 170.967 126.268 170.083 126.551 169.3C126.851 168.5 127.243 167.825 127.726 167.275C128.21 166.725 128.768 166.3 129.401 166C130.035 165.7 130.701 165.55 131.401 165.55C132.101 165.55 132.71 165.675 133.226 165.925C133.743 166.175 134.268 166.517 134.801 166.95L134.701 164.875V160.2H136.776V178H135.076L134.901 176.575H134.826C134.343 177.042 133.785 177.45 133.151 177.8C132.535 178.133 131.868 178.3 131.151 178.3ZM131.601 176.575C132.168 176.575 132.701 176.442 133.201 176.175C133.701 175.892 134.201 175.467 134.701 174.9V168.55C134.185 168.083 133.685 167.758 133.201 167.575C132.735 167.375 132.251 167.275 131.751 167.275C131.268 167.275 130.81 167.392 130.376 167.625C129.96 167.842 129.593 168.158 129.276 168.575C128.96 168.975 128.71 169.458 128.526 170.025C128.343 170.592 128.251 171.225 128.251 171.925C128.251 173.392 128.543 174.533 129.126 175.35C129.71 176.167 130.535 176.575 131.601 176.575ZM145.793 178.3C144.977 178.3 144.21 178.158 143.493 177.875C142.793 177.575 142.177 177.158 141.643 176.625C141.127 176.075 140.718 175.408 140.418 174.625C140.118 173.842 139.968 172.95 139.968 171.95C139.968 170.95 140.118 170.058 140.418 169.275C140.735 168.475 141.143 167.8 141.643 167.25C142.16 166.7 142.743 166.283 143.393 166C144.043 165.7 144.718 165.55 145.418 165.55C146.185 165.55 146.868 165.683 147.468 165.95C148.085 166.217 148.593 166.6 148.993 167.1C149.41 167.6 149.727 168.2 149.943 168.9C150.16 169.6 150.268 170.383 150.268 171.25C150.268 171.467 150.26 171.683 150.243 171.9C150.243 172.1 150.227 172.275 150.193 172.425H141.993C142.077 173.725 142.477 174.758 143.193 175.525C143.927 176.275 144.877 176.65 146.043 176.65C146.627 176.65 147.16 176.567 147.643 176.4C148.143 176.217 148.618 175.983 149.068 175.7L149.793 177.05C149.26 177.383 148.668 177.675 148.018 177.925C147.368 178.175 146.627 178.3 145.793 178.3ZM141.968 170.95H148.468C148.468 169.717 148.202 168.783 147.668 168.15C147.152 167.5 146.418 167.175 145.468 167.175C145.035 167.175 144.618 167.258 144.218 167.425C143.835 167.592 143.485 167.842 143.168 168.175C142.852 168.492 142.585 168.883 142.368 169.35C142.168 169.817 142.035 170.35 141.968 170.95ZM161.526 178.3C159.476 178.3 157.967 177.425 157.001 175.675L158.501 174.625C158.867 175.275 159.284 175.75 159.751 176.05C160.217 176.333 160.742 176.475 161.326 176.475C162.209 176.475 162.867 176.208 163.301 175.675C163.734 175.125 163.951 174.225 163.951 172.975V161.6H166.051V173.175C166.051 173.875 165.959 174.542 165.776 175.175C165.609 175.792 165.342 176.333 164.976 176.8C164.626 177.267 164.159 177.633 163.576 177.9C163.009 178.167 162.326 178.3 161.526 178.3ZM173.087 178.3C172.071 178.3 171.221 178 170.537 177.4C169.871 176.8 169.537 175.95 169.537 174.85C169.537 173.517 170.129 172.5 171.312 171.8C172.496 171.083 174.387 170.583 176.987 170.3C176.987 169.917 176.946 169.542 176.862 169.175C176.796 168.808 176.671 168.483 176.487 168.2C176.304 167.917 176.046 167.692 175.712 167.525C175.396 167.342 174.987 167.25 174.487 167.25C173.787 167.25 173.129 167.383 172.512 167.65C171.896 167.917 171.346 168.217 170.862 168.55L170.062 167.125C170.629 166.758 171.321 166.408 172.137 166.075C172.954 165.725 173.854 165.55 174.837 165.55C176.321 165.55 177.396 166.008 178.062 166.925C178.729 167.825 179.062 169.033 179.062 170.55V178H177.362L177.187 176.55H177.112C176.529 177.033 175.904 177.45 175.237 177.8C174.571 178.133 173.854 178.3 173.087 178.3ZM173.687 176.65C174.271 176.65 174.821 176.517 175.337 176.25C175.854 175.967 176.404 175.558 176.987 175.025V171.65C175.971 171.783 175.112 171.942 174.412 172.125C173.729 172.308 173.171 172.525 172.737 172.775C172.321 173.025 172.012 173.317 171.812 173.65C171.629 173.967 171.537 174.317 171.537 174.7C171.537 175.4 171.746 175.9 172.162 176.2C172.579 176.5 173.087 176.65 173.687 176.65ZM187.685 178.3C186.885 178.3 186.135 178.158 185.435 177.875C184.735 177.592 184.127 177.183 183.61 176.65C183.11 176.1 182.71 175.433 182.41 174.65C182.127 173.85 181.985 172.95 181.985 171.95C181.985 170.933 182.143 170.033 182.46 169.25C182.777 168.45 183.202 167.775 183.735 167.225C184.268 166.675 184.885 166.258 185.585 165.975C186.302 165.692 187.052 165.55 187.835 165.55C188.635 165.55 189.318 165.692 189.885 165.975C190.452 166.258 190.952 166.592 191.385 166.975L190.335 168.325C189.985 168.008 189.61 167.75 189.21 167.55C188.827 167.35 188.393 167.25 187.91 167.25C187.36 167.25 186.852 167.367 186.385 167.6C185.918 167.817 185.518 168.133 185.185 168.55C184.852 168.967 184.585 169.467 184.385 170.05C184.202 170.617 184.11 171.25 184.11 171.95C184.11 172.65 184.202 173.283 184.385 173.85C184.568 174.417 184.818 174.908 185.135 175.325C185.468 175.725 185.868 176.042 186.335 176.275C186.802 176.492 187.31 176.6 187.86 176.6C188.427 176.6 188.943 176.483 189.41 176.25C189.893 176 190.327 175.708 190.71 175.375L191.61 176.75C191.06 177.233 190.452 177.617 189.785 177.9C189.118 178.167 188.418 178.3 187.685 178.3ZM201.449 183.125V178.8L201.549 176.6C201.066 177.083 200.508 177.492 199.874 177.825C199.258 178.142 198.599 178.3 197.899 178.3C196.366 178.3 195.141 177.75 194.224 176.65C193.324 175.55 192.874 173.983 192.874 171.95C192.874 170.967 193.016 170.083 193.299 169.3C193.599 168.5 193.991 167.825 194.474 167.275C194.958 166.725 195.516 166.3 196.149 166C196.783 165.7 197.449 165.55 198.149 165.55C198.849 165.55 199.466 165.675 199.999 165.925C200.533 166.158 201.074 166.517 201.624 167H201.674L201.874 165.85H203.524V183.125H201.449ZM198.349 176.575C198.916 176.575 199.449 176.442 199.949 176.175C200.449 175.892 200.949 175.467 201.449 174.9V168.55C200.933 168.083 200.433 167.758 199.949 167.575C199.483 167.375 198.999 167.275 198.499 167.275C198.016 167.275 197.558 167.392 197.124 167.625C196.708 167.842 196.341 168.158 196.024 168.575C195.708 168.975 195.458 169.458 195.274 170.025C195.091 170.592 194.999 171.225 194.999 171.925C194.999 173.392 195.291 174.533 195.874 175.35C196.458 176.167 197.283 176.575 198.349 176.575ZM211.166 178.3C209.866 178.3 208.916 177.9 208.316 177.1C207.733 176.3 207.441 175.117 207.441 173.55V165.85H209.516V173.275C209.516 174.425 209.691 175.258 210.041 175.775C210.408 176.275 210.991 176.525 211.791 176.525C212.425 176.525 212.983 176.367 213.466 176.05C213.95 175.717 214.483 175.192 215.066 174.475V165.85H217.116V178H215.416L215.241 176.1H215.166C214.6 176.767 214 177.3 213.366 177.7C212.75 178.1 212.016 178.3 211.166 178.3ZM226.14 178.3C225.323 178.3 224.557 178.158 223.84 177.875C223.14 177.575 222.523 177.158 221.99 176.625C221.473 176.075 221.065 175.408 220.765 174.625C220.465 173.842 220.315 172.95 220.315 171.95C220.315 170.95 220.465 170.058 220.765 169.275C221.082 168.475 221.49 167.8 221.99 167.25C222.507 166.7 223.09 166.283 223.74 166C224.39 165.7 225.065 165.55 225.765 165.55C226.532 165.55 227.215 165.683 227.815 165.95C228.432 166.217 228.94 166.6 229.34 167.1C229.757 167.6 230.073 168.2 230.29 168.9C230.507 169.6 230.615 170.383 230.615 171.25C230.615 171.467 230.607 171.683 230.59 171.9C230.59 172.1 230.573 172.275 230.54 172.425H222.34C222.423 173.725 222.823 174.758 223.54 175.525C224.273 176.275 225.223 176.65 226.39 176.65C226.973 176.65 227.507 176.567 227.99 176.4C228.49 176.217 228.965 175.983 229.415 175.7L230.14 177.05C229.607 177.383 229.015 177.675 228.365 177.925C227.715 178.175 226.973 178.3 226.14 178.3ZM222.315 170.95H228.815C228.815 169.717 228.548 168.783 228.015 168.15C227.498 167.5 226.765 167.175 225.815 167.175C225.382 167.175 224.965 167.258 224.565 167.425C224.182 167.592 223.832 167.842 223.515 168.175C223.198 168.492 222.932 168.883 222.715 169.35C222.515 169.817 222.382 170.35 222.315 170.95ZM236.792 178.3C235.926 178.3 235.101 178.142 234.317 177.825C233.534 177.508 232.851 177.108 232.267 176.625L233.292 175.25C233.826 175.683 234.367 176.033 234.917 176.3C235.484 176.567 236.134 176.7 236.867 176.7C237.667 176.7 238.267 176.517 238.667 176.15C239.067 175.783 239.267 175.333 239.267 174.8C239.267 174.483 239.184 174.208 239.017 173.975C238.851 173.742 238.634 173.542 238.367 173.375C238.117 173.192 237.826 173.033 237.492 172.9C237.159 172.767 236.826 172.633 236.492 172.5C236.059 172.35 235.626 172.183 235.192 172C234.759 171.8 234.367 171.567 234.017 171.3C233.684 171.017 233.409 170.692 233.192 170.325C232.976 169.958 232.867 169.517 232.867 169C232.867 168.517 232.959 168.067 233.142 167.65C233.342 167.217 233.617 166.85 233.967 166.55C234.334 166.233 234.776 165.992 235.292 165.825C235.809 165.642 236.392 165.55 237.042 165.55C237.809 165.55 238.509 165.683 239.142 165.95C239.792 166.217 240.351 166.542 240.817 166.925L239.842 168.225C239.426 167.908 238.992 167.65 238.542 167.45C238.092 167.25 237.601 167.15 237.067 167.15C236.301 167.15 235.734 167.325 235.367 167.675C235.017 168.025 234.842 168.433 234.842 168.9C234.842 169.183 234.917 169.433 235.067 169.65C235.217 169.85 235.417 170.033 235.667 170.2C235.917 170.35 236.201 170.492 236.517 170.625C236.851 170.742 237.192 170.867 237.542 171C237.976 171.167 238.409 171.342 238.842 171.525C239.292 171.708 239.692 171.942 240.042 172.225C240.392 172.492 240.676 172.825 240.892 173.225C241.126 173.625 241.242 174.108 241.242 174.675C241.242 175.175 241.142 175.642 240.942 176.075C240.759 176.508 240.476 176.892 240.092 177.225C239.726 177.558 239.259 177.817 238.692 178C238.142 178.2 237.509 178.3 236.792 178.3Z" fill="white"/>
</svg>
