<svg width="326" height="381" viewBox="0 0 326 381" fill="none" xmlns="https://www.w3.org/2000/svg">
<path d="M287.586 325.296C287.586 325.471 287.763 325.471 287.763 325.646C295.552 337.372 295.552 354.348 295.375 368.524" stroke="white" stroke-width="0.9124" stroke-miterlimit="10"/>
<path d="M278.38 317.596C264.749 310.071 243.86 306.92 239.612 292.919" stroke="white" stroke-width="0.9124" stroke-miterlimit="10"/>
<path d="M239.789 281.193C242.267 272.793 250.588 268.768 257.314 263.867C268.467 255.817 277.672 246.191 281.036 233.24" stroke="white" stroke-width="0.9124" stroke-miterlimit="10"/>
<path d="M264.75 167.436C265.458 171.811 266.874 176.187 268.998 180.387C276.256 193.863 282.629 206.114 282.452 221.515" stroke="white" stroke-width="0.9124" stroke-miterlimit="10"/>
<path d="M264.396 155.535C265.635 140.659 273.07 125.608 282.629 113.532" stroke="white" stroke-width="0.9124" stroke-miterlimit="10"/>
<path d="M290.772 104.607C293.25 102.332 295.552 100.232 298.03 98.4819C308.12 91.1314 317.149 79.5807 319.096 67.5049" stroke="white" stroke-width="0.9124" stroke-miterlimit="10"/>
<path d="M284.399 12.9004C286.701 35.8269 302.633 31.9766 313.077 45.2775C315.733 48.6027 317.503 52.103 318.388 55.6032" stroke="white" stroke-width="0.9124" stroke-miterlimit="10"/>
<path d="M284.045 12.9008C287.369 12.9008 290.064 10.2367 290.064 6.95039C290.064 3.66408 287.369 1 284.045 1C280.721 1 278.026 3.66408 278.026 6.95039C278.026 10.2367 280.721 12.9008 284.045 12.9008Z" fill="white" stroke="white" stroke-width="0.9124" stroke-miterlimit="10"/>
<path d="M295.375 380.25C298.699 380.25 301.394 377.586 301.394 374.3C301.394 371.013 298.699 368.349 295.375 368.349C292.051 368.349 289.356 371.013 289.356 374.3C289.356 377.586 292.051 380.25 295.375 380.25Z" fill="white" stroke="white" stroke-width="0.9124" stroke-miterlimit="10"/>
<path d="M239.019 292.509C242.343 292.509 245.038 289.845 245.038 286.559C245.038 283.272 242.343 280.608 239.019 280.608C235.695 280.608 233 283.272 233 286.559C233 289.845 235.695 292.509 239.019 292.509Z" fill="white" stroke="white" stroke-width="0.9124" stroke-miterlimit="10"/>
<path d="M281.859 232.83C285.183 232.83 287.877 230.166 287.877 226.88C287.877 223.593 285.183 220.929 281.859 220.929C278.535 220.929 275.84 223.593 275.84 226.88C275.84 230.166 278.535 232.83 281.859 232.83Z" fill="white" stroke="white" stroke-width="0.9124" stroke-miterlimit="10"/>
<path d="M283.275 326.636C286.599 326.636 289.294 323.972 289.294 320.686C289.294 317.399 286.599 314.735 283.275 314.735C279.951 314.735 277.256 317.399 277.256 320.686C277.256 323.972 279.951 326.636 283.275 326.636Z" fill="white" stroke="white" stroke-width="0.9124" stroke-miterlimit="10"/>
<path d="M264.333 167.026C267.657 167.026 270.352 164.362 270.352 161.075C270.352 157.789 267.657 155.125 264.333 155.125C261.009 155.125 258.314 157.789 258.314 161.075C258.314 164.362 261.009 167.026 264.333 167.026Z" fill="white" stroke="white" stroke-width="0.9124" stroke-miterlimit="10"/>
<path d="M319.096 67.5043C322.42 67.5043 325.115 64.8402 325.115 61.5539C325.115 58.2676 322.42 55.6035 319.096 55.6035C315.772 55.6035 313.077 58.2676 313.077 61.5539C313.077 64.8402 315.772 67.5043 319.096 67.5043Z" fill="white" stroke="white" stroke-width="0.9124" stroke-miterlimit="10"/>
<path d="M286.7 114.933C290.025 114.933 292.719 112.269 292.719 108.983C292.719 105.696 290.025 103.032 286.7 103.032C283.376 103.032 280.682 105.696 280.682 108.983C280.682 112.269 283.376 114.933 286.7 114.933Z" fill="white" stroke="white" stroke-width="0.9124" stroke-miterlimit="10"/>
<line x1="295.867" y1="374.625" x2="252" y2="374.625" stroke="white"/>
<path d="M57.5723 378.125V361.725H67.0223V363.475H59.6473V369.025H65.8973V370.775H59.6473V378.125H57.5723ZM69.7258 378.125V365.975H71.7758V378.125H69.7258ZM70.7758 363.475C70.3758 363.475 70.0341 363.35 69.7508 363.1C69.4841 362.85 69.3508 362.533 69.3508 362.15C69.3508 361.75 69.4841 361.433 69.7508 361.2C70.0341 360.95 70.3758 360.825 70.7758 360.825C71.1758 360.825 71.5091 360.95 71.7758 361.2C72.0591 361.433 72.2008 361.75 72.2008 362.15C72.2008 362.533 72.0591 362.85 71.7758 363.1C71.5091 363.35 71.1758 363.475 70.7758 363.475ZM75.8781 378.125V365.975H77.5781L77.7531 367.725H77.8281C78.4115 367.142 79.0198 366.658 79.6531 366.275C80.3031 365.875 81.0531 365.675 81.9031 365.675C83.1865 365.675 84.1198 366.075 84.7031 366.875C85.3031 367.675 85.6031 368.858 85.6031 370.425V378.125H83.5531V370.7C83.5531 369.55 83.3698 368.725 83.0031 368.225C82.6365 367.708 82.0531 367.45 81.2531 367.45C80.6198 367.45 80.0615 367.608 79.5781 367.925C79.0948 368.242 78.5448 368.708 77.9281 369.325V378.125H75.8781ZM98.7049 378.425C97.1715 378.425 95.9465 377.875 95.0299 376.775C94.1299 375.675 93.6799 374.108 93.6799 372.075C93.6799 371.092 93.8215 370.208 94.1049 369.425C94.4049 368.625 94.7965 367.95 95.2799 367.4C95.7632 366.85 96.3215 366.425 96.9549 366.125C97.5882 365.825 98.2549 365.675 98.9549 365.675C99.6549 365.675 100.263 365.8 100.78 366.05C101.297 366.3 101.822 366.642 102.355 367.075L102.255 365V360.325H104.33V378.125H102.63L102.455 376.7H102.38C101.897 377.167 101.338 377.575 100.705 377.925C100.088 378.258 99.4215 378.425 98.7049 378.425ZM99.1549 376.7C99.7215 376.7 100.255 376.567 100.755 376.3C101.255 376.017 101.755 375.592 102.255 375.025V368.675C101.738 368.208 101.238 367.883 100.755 367.7C100.288 367.5 99.8049 367.4 99.3049 367.4C98.8215 367.4 98.3632 367.517 97.9299 367.75C97.5132 367.967 97.1465 368.283 96.8299 368.7C96.5132 369.1 96.2632 369.583 96.0799 370.15C95.8965 370.717 95.8049 371.35 95.8049 372.05C95.8049 373.517 96.0965 374.658 96.6799 375.475C97.2632 376.292 98.0882 376.7 99.1549 376.7ZM113.347 378.425C112.53 378.425 111.764 378.283 111.047 378C110.347 377.7 109.73 377.283 109.197 376.75C108.68 376.2 108.272 375.533 107.972 374.75C107.672 373.967 107.522 373.075 107.522 372.075C107.522 371.075 107.672 370.183 107.972 369.4C108.289 368.6 108.697 367.925 109.197 367.375C109.714 366.825 110.297 366.408 110.947 366.125C111.597 365.825 112.272 365.675 112.972 365.675C113.739 365.675 114.422 365.808 115.022 366.075C115.639 366.342 116.147 366.725 116.547 367.225C116.964 367.725 117.28 368.325 117.497 369.025C117.714 369.725 117.822 370.508 117.822 371.375C117.822 371.592 117.814 371.808 117.797 372.025C117.797 372.225 117.78 372.4 117.747 372.55H109.547C109.63 373.85 110.03 374.883 110.747 375.65C111.48 376.4 112.43 376.775 113.597 376.775C114.18 376.775 114.714 376.692 115.197 376.525C115.697 376.342 116.172 376.108 116.622 375.825L117.347 377.175C116.814 377.508 116.222 377.8 115.572 378.05C114.922 378.3 114.18 378.425 113.347 378.425ZM109.522 371.075H116.022C116.022 369.842 115.755 368.908 115.222 368.275C114.705 367.625 113.972 367.3 113.022 367.3C112.589 367.3 112.172 367.383 111.772 367.55C111.389 367.717 111.039 367.967 110.722 368.3C110.405 368.617 110.139 369.008 109.922 369.475C109.722 369.942 109.589 370.475 109.522 371.075ZM128.004 378.425C127.221 378.425 126.663 378.192 126.329 377.725C125.996 377.258 125.829 376.575 125.829 375.675V360.325H127.879V375.825C127.879 376.158 127.938 376.392 128.054 376.525C128.171 376.658 128.304 376.725 128.454 376.725C128.521 376.725 128.579 376.725 128.629 376.725C128.696 376.725 128.788 376.708 128.904 376.675L129.179 378.225C129.046 378.292 128.888 378.342 128.704 378.375C128.521 378.408 128.288 378.425 128.004 378.425ZM135.001 378.425C133.985 378.425 133.135 378.125 132.451 377.525C131.785 376.925 131.451 376.075 131.451 374.975C131.451 373.642 132.043 372.625 133.226 371.925C134.41 371.208 136.301 370.708 138.901 370.425C138.901 370.042 138.86 369.667 138.776 369.3C138.71 368.933 138.585 368.608 138.401 368.325C138.218 368.042 137.96 367.817 137.626 367.65C137.31 367.467 136.901 367.375 136.401 367.375C135.701 367.375 135.043 367.508 134.426 367.775C133.81 368.042 133.26 368.342 132.776 368.675L131.976 367.25C132.543 366.883 133.235 366.533 134.051 366.2C134.868 365.85 135.768 365.675 136.751 365.675C138.235 365.675 139.31 366.133 139.976 367.05C140.643 367.95 140.976 369.158 140.976 370.675V378.125H139.276L139.101 376.675H139.026C138.443 377.158 137.818 377.575 137.151 377.925C136.485 378.258 135.768 378.425 135.001 378.425ZM135.601 376.775C136.185 376.775 136.735 376.642 137.251 376.375C137.768 376.092 138.318 375.683 138.901 375.15V371.775C137.885 371.908 137.026 372.067 136.326 372.25C135.643 372.433 135.085 372.65 134.651 372.9C134.235 373.15 133.926 373.442 133.726 373.775C133.543 374.092 133.451 374.442 133.451 374.825C133.451 375.525 133.66 376.025 134.076 376.325C134.493 376.625 135.001 376.775 135.601 376.775ZM153.629 378.425C152.979 378.425 152.429 378.325 151.979 378.125C151.546 377.925 151.187 377.65 150.904 377.3C150.637 376.95 150.446 376.525 150.329 376.025C150.212 375.525 150.154 374.975 150.154 374.375V367.65H148.354V366.1L150.254 365.975L150.504 362.575H152.229V365.975H155.504V367.65H152.229V374.4C152.229 375.15 152.362 375.733 152.629 376.15C152.912 376.55 153.404 376.75 154.104 376.75C154.321 376.75 154.554 376.717 154.804 376.65C155.054 376.583 155.279 376.508 155.479 376.425L155.879 377.975C155.546 378.092 155.179 378.192 154.779 378.275C154.396 378.375 154.012 378.425 153.629 378.425ZM158.251 378.125V365.975H159.951L160.126 368.175H160.201C160.618 367.408 161.118 366.8 161.701 366.35C162.301 365.9 162.951 365.675 163.651 365.675C164.135 365.675 164.568 365.758 164.951 365.925L164.551 367.725C164.351 367.658 164.168 367.608 164.001 367.575C163.835 367.542 163.626 367.525 163.376 367.525C162.86 367.525 162.318 367.733 161.751 368.15C161.201 368.567 160.718 369.292 160.301 370.325V378.125H158.251ZM169.108 378.425C168.091 378.425 167.241 378.125 166.558 377.525C165.891 376.925 165.558 376.075 165.558 374.975C165.558 373.642 166.149 372.625 167.333 371.925C168.516 371.208 170.408 370.708 173.008 370.425C173.008 370.042 172.966 369.667 172.883 369.3C172.816 368.933 172.691 368.608 172.508 368.325C172.324 368.042 172.066 367.817 171.733 367.65C171.416 367.467 171.008 367.375 170.508 367.375C169.808 367.375 169.149 367.508 168.533 367.775C167.916 368.042 167.366 368.342 166.883 368.675L166.083 367.25C166.649 366.883 167.341 366.533 168.158 366.2C168.974 365.85 169.874 365.675 170.858 365.675C172.341 365.675 173.416 366.133 174.083 367.05C174.749 367.95 175.083 369.158 175.083 370.675V378.125H173.383L173.208 376.675H173.133C172.549 377.158 171.924 377.575 171.258 377.925C170.591 378.258 169.874 378.425 169.108 378.425ZM169.708 376.775C170.291 376.775 170.841 376.642 171.358 376.375C171.874 376.092 172.424 375.683 173.008 375.15V371.775C171.991 371.908 171.133 372.067 170.433 372.25C169.749 372.433 169.191 372.65 168.758 372.9C168.341 373.15 168.033 373.442 167.833 373.775C167.649 374.092 167.558 374.442 167.558 374.825C167.558 375.525 167.766 376.025 168.183 376.325C168.599 376.625 169.108 376.775 169.708 376.775ZM181.53 378.125L177.155 365.975H179.28L181.58 372.875C181.764 373.475 181.947 374.075 182.13 374.675C182.33 375.275 182.522 375.867 182.705 376.45H182.805C182.989 375.867 183.172 375.275 183.355 374.675C183.539 374.075 183.722 373.475 183.905 372.875L186.205 365.975H188.23L183.93 378.125H181.53ZM195.403 378.425C194.586 378.425 193.819 378.283 193.103 378C192.403 377.7 191.786 377.283 191.253 376.75C190.736 376.2 190.328 375.533 190.028 374.75C189.728 373.967 189.578 373.075 189.578 372.075C189.578 371.075 189.728 370.183 190.028 369.4C190.344 368.6 190.753 367.925 191.253 367.375C191.769 366.825 192.353 366.408 193.003 366.125C193.653 365.825 194.328 365.675 195.028 365.675C195.794 365.675 196.478 365.808 197.078 366.075C197.694 366.342 198.203 366.725 198.603 367.225C199.019 367.725 199.336 368.325 199.553 369.025C199.769 369.725 199.878 370.508 199.878 371.375C199.878 371.592 199.869 371.808 199.853 372.025C199.853 372.225 199.836 372.4 199.803 372.55H191.603C191.686 373.85 192.086 374.883 192.803 375.65C193.536 376.4 194.486 376.775 195.653 376.775C196.236 376.775 196.769 376.692 197.253 376.525C197.753 376.342 198.228 376.108 198.678 375.825L199.403 377.175C198.869 377.508 198.278 377.8 197.628 378.05C196.978 378.3 196.236 378.425 195.403 378.425ZM191.578 371.075H198.078C198.078 369.842 197.811 368.908 197.278 368.275C196.761 367.625 196.028 367.3 195.078 367.3C194.644 367.3 194.228 367.383 193.828 367.55C193.444 367.717 193.094 367.967 192.778 368.3C192.461 368.617 192.194 369.008 191.978 369.475C191.778 369.942 191.644 370.475 191.578 371.075ZM202.88 378.125V365.975H204.58L204.755 368.175H204.83C205.247 367.408 205.747 366.8 206.33 366.35C206.93 365.9 207.58 365.675 208.28 365.675C208.763 365.675 209.197 365.758 209.58 365.925L209.18 367.725C208.98 367.658 208.797 367.608 208.63 367.575C208.463 367.542 208.255 367.525 208.005 367.525C207.488 367.525 206.947 367.733 206.38 368.15C205.83 368.567 205.347 369.292 204.93 370.325V378.125H202.88ZM214.624 378.425C213.758 378.425 212.933 378.267 212.149 377.95C211.366 377.633 210.683 377.233 210.099 376.75L211.124 375.375C211.658 375.808 212.199 376.158 212.749 376.425C213.316 376.692 213.966 376.825 214.699 376.825C215.499 376.825 216.099 376.642 216.499 376.275C216.899 375.908 217.099 375.458 217.099 374.925C217.099 374.608 217.016 374.333 216.849 374.1C216.683 373.867 216.466 373.667 216.199 373.5C215.949 373.317 215.658 373.158 215.324 373.025C214.991 372.892 214.658 372.758 214.324 372.625C213.891 372.475 213.458 372.308 213.024 372.125C212.591 371.925 212.199 371.692 211.849 371.425C211.516 371.142 211.241 370.817 211.024 370.45C210.808 370.083 210.699 369.642 210.699 369.125C210.699 368.642 210.791 368.192 210.974 367.775C211.174 367.342 211.449 366.975 211.799 366.675C212.166 366.358 212.608 366.117 213.124 365.95C213.641 365.767 214.224 365.675 214.874 365.675C215.641 365.675 216.341 365.808 216.974 366.075C217.624 366.342 218.183 366.667 218.649 367.05L217.674 368.35C217.258 368.033 216.824 367.775 216.374 367.575C215.924 367.375 215.433 367.275 214.899 367.275C214.133 367.275 213.566 367.45 213.199 367.8C212.849 368.15 212.674 368.558 212.674 369.025C212.674 369.308 212.749 369.558 212.899 369.775C213.049 369.975 213.249 370.158 213.499 370.325C213.749 370.475 214.033 370.617 214.349 370.75C214.683 370.867 215.024 370.992 215.374 371.125C215.808 371.292 216.241 371.467 216.674 371.65C217.124 371.833 217.524 372.067 217.874 372.35C218.224 372.617 218.508 372.95 218.724 373.35C218.958 373.75 219.074 374.233 219.074 374.8C219.074 375.3 218.974 375.767 218.774 376.2C218.591 376.633 218.308 377.017 217.924 377.35C217.558 377.683 217.091 377.942 216.524 378.125C215.974 378.325 215.341 378.425 214.624 378.425ZM226.848 378.425C226.031 378.425 225.265 378.283 224.548 378C223.848 377.7 223.231 377.283 222.698 376.75C222.181 376.2 221.773 375.533 221.473 374.75C221.173 373.967 221.023 373.075 221.023 372.075C221.023 371.075 221.173 370.183 221.473 369.4C221.79 368.6 222.198 367.925 222.698 367.375C223.215 366.825 223.798 366.408 224.448 366.125C225.098 365.825 225.773 365.675 226.473 365.675C227.24 365.675 227.923 365.808 228.523 366.075C229.14 366.342 229.648 366.725 230.048 367.225C230.465 367.725 230.781 368.325 230.998 369.025C231.215 369.725 231.323 370.508 231.323 371.375C231.323 371.592 231.315 371.808 231.298 372.025C231.298 372.225 231.281 372.4 231.248 372.55H223.048C223.131 373.85 223.531 374.883 224.248 375.65C224.981 376.4 225.931 376.775 227.098 376.775C227.681 376.775 228.215 376.692 228.698 376.525C229.198 376.342 229.673 376.108 230.123 375.825L230.848 377.175C230.315 377.508 229.723 377.8 229.073 378.05C228.423 378.3 227.681 378.425 226.848 378.425ZM223.023 371.075H229.523C229.523 369.842 229.256 368.908 228.723 368.275C228.206 367.625 227.473 367.3 226.523 367.3C226.09 367.3 225.673 367.383 225.273 367.55C224.89 367.717 224.54 367.967 224.223 368.3C223.906 368.617 223.64 369.008 223.423 369.475C223.223 369.942 223.09 370.475 223.023 371.075ZM226.148 363.8L225.098 362.775L228.623 358.6L230.073 359.975L226.148 363.8ZM239.25 378.425C238.434 378.425 237.667 378.283 236.95 378C236.25 377.7 235.634 377.283 235.1 376.75C234.584 376.2 234.175 375.533 233.875 374.75C233.575 373.967 233.425 373.075 233.425 372.075C233.425 371.075 233.575 370.183 233.875 369.4C234.192 368.6 234.6 367.925 235.1 367.375C235.617 366.825 236.2 366.408 236.85 366.125C237.5 365.825 238.175 365.675 238.875 365.675C239.642 365.675 240.325 365.808 240.925 366.075C241.542 366.342 242.05 366.725 242.45 367.225C242.867 367.725 243.184 368.325 243.4 369.025C243.617 369.725 243.725 370.508 243.725 371.375C243.725 371.592 243.717 371.808 243.7 372.025C243.7 372.225 243.684 372.4 243.65 372.55H235.45C235.534 373.85 235.934 374.883 236.65 375.65C237.384 376.4 238.334 376.775 239.5 376.775C240.084 376.775 240.617 376.692 241.1 376.525C241.6 376.342 242.075 376.108 242.525 375.825L243.25 377.175C242.717 377.508 242.125 377.8 241.475 378.05C240.825 378.3 240.084 378.425 239.25 378.425ZM235.425 371.075H241.925C241.925 369.842 241.659 368.908 241.125 368.275C240.609 367.625 239.875 367.3 238.925 367.3C238.492 367.3 238.075 367.383 237.675 367.55C237.292 367.717 236.942 367.967 236.625 368.3C236.309 368.617 236.042 369.008 235.825 369.475C235.625 369.942 235.492 370.475 235.425 371.075Z" fill="white"/>
</svg>
