<svg width="361" height="381" viewBox="0 0 361 381" fill="none" xmlns="http://www.w3.org/2000/svg">
<path d="M322.586 325.171C322.586 325.346 322.763 325.346 322.763 325.521C330.552 337.247 330.552 354.223 330.375 368.399" stroke="#485F62" stroke-width="0.9124" stroke-miterlimit="10"/>
<path d="M313.38 317.471C299.749 309.946 278.86 306.795 274.612 292.794" stroke="#485F62" stroke-width="0.9124" stroke-miterlimit="10"/>
<path d="M274.789 281.068C277.267 272.668 285.588 268.643 292.314 263.742C303.467 255.692 312.672 246.066 316.036 233.115" stroke="#485F62" stroke-width="0.9124" stroke-miterlimit="10"/>
<path d="M299.75 167.311C300.458 171.686 301.874 176.062 303.998 180.262C311.256 193.738 317.629 205.989 317.452 221.39" stroke="#485F62" stroke-width="0.9124" stroke-miterlimit="10"/>
<path d="M299.396 155.41C300.635 140.534 308.07 125.483 317.629 113.407" stroke="#485F62" stroke-width="0.9124" stroke-miterlimit="10"/>
<path d="M325.772 104.482C328.25 102.207 330.552 100.107 333.03 98.3569C343.12 91.0064 352.149 79.4557 354.096 67.3799" stroke="#485F62" stroke-width="0.9124" stroke-miterlimit="10"/>
<path d="M319.399 12.7754C321.701 35.7019 337.633 31.8516 348.077 45.1525C350.733 48.4777 352.503 51.978 353.388 55.4782" stroke="#485F62" stroke-width="0.9124" stroke-miterlimit="10"/>
<path d="M319.045 12.7758C322.369 12.7758 325.064 10.1117 325.064 6.82539C325.064 3.53908 322.369 0.875 319.045 0.875C315.721 0.875 313.026 3.53908 313.026 6.82539C313.026 10.1117 315.721 12.7758 319.045 12.7758Z" fill="#485F62" stroke="#485F62" stroke-width="0.9124" stroke-miterlimit="10"/>
<path d="M330.375 380.125C333.699 380.125 336.394 377.461 336.394 374.175C336.394 370.888 333.699 368.224 330.375 368.224C327.051 368.224 324.356 370.888 324.356 374.175C324.356 377.461 327.051 380.125 330.375 380.125Z" stroke="#485F62" stroke-width="0.9124" stroke-miterlimit="10"/>
<path d="M274.019 292.384C277.343 292.384 280.038 289.72 280.038 286.434C280.038 283.147 277.343 280.483 274.019 280.483C270.695 280.483 268 283.147 268 286.434C268 289.72 270.695 292.384 274.019 292.384Z" stroke="#485F62" stroke-width="0.9124" stroke-miterlimit="10"/>
<path d="M316.859 232.705C320.183 232.705 322.877 230.041 322.877 226.755C322.877 223.468 320.183 220.804 316.859 220.804C313.535 220.804 310.84 223.468 310.84 226.755C310.84 230.041 313.535 232.705 316.859 232.705Z" fill="#485F62" stroke="#485F62" stroke-width="0.9124" stroke-miterlimit="10"/>
<path d="M318.275 326.511C321.599 326.511 324.294 323.847 324.294 320.561C324.294 317.274 321.599 314.61 318.275 314.61C314.951 314.61 312.256 317.274 312.256 320.561C312.256 323.847 314.951 326.511 318.275 326.511Z" stroke="#485F62" stroke-width="0.9124" stroke-miterlimit="10"/>
<path d="M299.333 166.901C302.657 166.901 305.352 164.237 305.352 160.95C305.352 157.664 302.657 155 299.333 155C296.009 155 293.314 157.664 293.314 160.95C293.314 164.237 296.009 166.901 299.333 166.901Z" fill="#485F62" stroke="#485F62" stroke-width="0.9124" stroke-miterlimit="10"/>
<path d="M354.096 67.3793C357.42 67.3793 360.115 64.7152 360.115 61.4289C360.115 58.1426 357.42 55.4785 354.096 55.4785C350.772 55.4785 348.077 58.1426 348.077 61.4289C348.077 64.7152 350.772 67.3793 354.096 67.3793Z" fill="#485F62" stroke="#485F62" stroke-width="0.9124" stroke-miterlimit="10"/>
<path d="M321.7 114.808C325.025 114.808 327.719 112.144 327.719 108.858C327.719 105.571 325.025 102.907 321.7 102.907C318.376 102.907 315.682 105.571 315.682 108.858C315.682 112.144 318.376 114.808 321.7 114.808Z" fill="#485F62" stroke="#485F62" stroke-width="0.9124" stroke-miterlimit="10"/>
<line x1="315.867" y1="227.5" x2="272" y2="227.5" stroke="#485F62"/>
<path d="M34.5742 233V216.6H39.6992C40.5326 216.6 41.2992 216.683 41.9992 216.85C42.7159 217 43.3242 217.258 43.8242 217.625C44.3409 217.992 44.7409 218.467 45.0242 219.05C45.3076 219.633 45.4492 220.35 45.4492 221.2C45.4492 222.483 45.1159 223.508 44.4492 224.275C43.7826 225.042 42.8826 225.567 41.7492 225.85L45.9242 233H43.5742L39.6242 226.075H36.6492V233H34.5742ZM36.6492 224.375H39.3992C40.6826 224.375 41.6659 224.117 42.3492 223.6C43.0326 223.067 43.3742 222.267 43.3742 221.2C43.3742 220.117 43.0326 219.358 42.3492 218.925C41.6659 218.492 40.6826 218.275 39.3992 218.275H36.6492V224.375ZM53.2885 233.3C52.4718 233.3 51.7051 233.158 50.9885 232.875C50.2885 232.575 49.6718 232.158 49.1385 231.625C48.6218 231.075 48.2135 230.408 47.9135 229.625C47.6135 228.842 47.4635 227.95 47.4635 226.95C47.4635 225.95 47.6135 225.058 47.9135 224.275C48.2301 223.475 48.6385 222.8 49.1385 222.25C49.6551 221.7 50.2385 221.283 50.8885 221C51.5385 220.7 52.2135 220.55 52.9135 220.55C53.6801 220.55 54.3635 220.683 54.9635 220.95C55.5801 221.217 56.0885 221.6 56.4885 222.1C56.9051 222.6 57.2218 223.2 57.4385 223.9C57.6551 224.6 57.7635 225.383 57.7635 226.25C57.7635 226.467 57.7551 226.683 57.7385 226.9C57.7385 227.1 57.7218 227.275 57.6885 227.425H49.4885C49.5718 228.725 49.9718 229.758 50.6885 230.525C51.4218 231.275 52.3718 231.65 53.5385 231.65C54.1218 231.65 54.6551 231.567 55.1385 231.4C55.6385 231.217 56.1135 230.983 56.5635 230.7L57.2885 232.05C56.7551 232.383 56.1635 232.675 55.5135 232.925C54.8635 233.175 54.1218 233.3 53.2885 233.3ZM49.4635 225.95H55.9635C55.9635 224.717 55.6968 223.783 55.1635 223.15C54.6468 222.5 53.9135 222.175 52.9635 222.175C52.5301 222.175 52.1135 222.258 51.7135 222.425C51.3301 222.592 50.9801 222.842 50.6635 223.175C50.3468 223.492 50.0801 223.883 49.8635 224.35C49.6635 224.817 49.5301 225.35 49.4635 225.95ZM60.7658 238.125V220.85H62.4658L62.6408 222.25H62.7158C63.2658 221.783 63.8658 221.383 64.5158 221.05C65.1825 220.717 65.8742 220.55 66.5908 220.55C67.3742 220.55 68.0658 220.7 68.6658 221C69.2658 221.283 69.7658 221.7 70.1658 222.25C70.5658 222.783 70.8658 223.433 71.0658 224.2C71.2825 224.95 71.3908 225.8 71.3908 226.75C71.3908 227.783 71.2492 228.708 70.9658 229.525C70.6825 230.325 70.2992 231.008 69.8158 231.575C69.3325 232.142 68.7742 232.575 68.1408 232.875C67.5075 233.158 66.8408 233.3 66.1408 233.3C65.5742 233.3 65.0075 233.175 64.4408 232.925C63.8908 232.675 63.3325 232.333 62.7658 231.9L62.8158 234.025V238.125H60.7658ZM65.7908 231.575C66.2908 231.575 66.7492 231.467 67.1658 231.25C67.5992 231.017 67.9658 230.7 68.2658 230.3C68.5825 229.883 68.8242 229.375 68.9908 228.775C69.1742 228.175 69.2658 227.5 69.2658 226.75C69.2658 226.083 69.2075 225.475 69.0908 224.925C68.9742 224.375 68.7825 223.908 68.5158 223.525C68.2658 223.125 67.9325 222.817 67.5158 222.6C67.1158 222.383 66.6325 222.275 66.0658 222.275C65.5492 222.275 65.0242 222.417 64.4908 222.7C63.9742 222.983 63.4158 223.392 62.8158 223.925V230.3C63.3658 230.767 63.8992 231.1 64.4158 231.3C64.9325 231.483 65.3908 231.575 65.7908 231.575ZM74.633 233V220.85H76.333L76.508 223.05H76.583C76.9997 222.283 77.4997 221.675 78.083 221.225C78.683 220.775 79.333 220.55 80.033 220.55C80.5163 220.55 80.9497 220.633 81.333 220.8L80.933 222.6C80.733 222.533 80.5497 222.483 80.383 222.45C80.2163 222.417 80.008 222.4 79.758 222.4C79.2413 222.4 78.6997 222.608 78.133 223.025C77.583 223.442 77.0997 224.167 76.683 225.2V233H74.633ZM87.9809 233.3C87.1642 233.3 86.3975 233.158 85.6809 232.875C84.9809 232.575 84.3642 232.158 83.8309 231.625C83.3142 231.075 82.9059 230.408 82.6059 229.625C82.3059 228.842 82.1559 227.95 82.1559 226.95C82.1559 225.95 82.3059 225.058 82.6059 224.275C82.9225 223.475 83.3309 222.8 83.8309 222.25C84.3475 221.7 84.9309 221.283 85.5809 221C86.2309 220.7 86.9059 220.55 87.6059 220.55C88.3725 220.55 89.0559 220.683 89.6559 220.95C90.2725 221.217 90.7809 221.6 91.1809 222.1C91.5975 222.6 91.9142 223.2 92.1309 223.9C92.3475 224.6 92.4559 225.383 92.4559 226.25C92.4559 226.467 92.4475 226.683 92.4309 226.9C92.4309 227.1 92.4142 227.275 92.3809 227.425H84.1809C84.2642 228.725 84.6642 229.758 85.3809 230.525C86.1142 231.275 87.0642 231.65 88.2309 231.65C88.8142 231.65 89.3475 231.567 89.8309 231.4C90.3309 231.217 90.8059 230.983 91.2559 230.7L91.9809 232.05C91.4475 232.383 90.8559 232.675 90.2059 232.925C89.5559 233.175 88.8142 233.3 87.9809 233.3ZM84.1559 225.95H90.6559C90.6559 224.717 90.3892 223.783 89.8559 223.15C89.3392 222.5 88.6059 222.175 87.6559 222.175C87.2225 222.175 86.8059 222.258 86.4059 222.425C86.0225 222.592 85.6725 222.842 85.3559 223.175C85.0392 223.492 84.7725 223.883 84.5559 224.35C84.3559 224.817 84.2225 225.35 84.1559 225.95ZM95.4582 233V220.85H97.1582L97.3332 222.6H97.4082C97.9915 222.017 98.5999 221.533 99.2332 221.15C99.8832 220.75 100.633 220.55 101.483 220.55C102.767 220.55 103.7 220.95 104.283 221.75C104.883 222.55 105.183 223.733 105.183 225.3V233H103.133V225.575C103.133 224.425 102.95 223.6 102.583 223.1C102.217 222.583 101.633 222.325 100.833 222.325C100.2 222.325 99.6415 222.483 99.1582 222.8C98.6749 223.117 98.1249 223.583 97.5082 224.2V233H95.4582ZM113.28 233.3C111.747 233.3 110.522 232.75 109.605 231.65C108.705 230.55 108.255 228.983 108.255 226.95C108.255 225.967 108.397 225.083 108.68 224.3C108.98 223.5 109.372 222.825 109.855 222.275C110.338 221.725 110.897 221.3 111.53 221C112.163 220.7 112.83 220.55 113.53 220.55C114.23 220.55 114.838 220.675 115.355 220.925C115.872 221.175 116.397 221.517 116.93 221.95L116.83 219.875V215.2H118.905V233H117.205L117.03 231.575H116.955C116.472 232.042 115.913 232.45 115.28 232.8C114.663 233.133 113.997 233.3 113.28 233.3ZM113.73 231.575C114.297 231.575 114.83 231.442 115.33 231.175C115.83 230.892 116.33 230.467 116.83 229.9V223.55C116.313 223.083 115.813 222.758 115.33 222.575C114.863 222.375 114.38 222.275 113.88 222.275C113.397 222.275 112.938 222.392 112.505 222.625C112.088 222.842 111.722 223.158 111.405 223.575C111.088 223.975 110.838 224.458 110.655 225.025C110.472 225.592 110.38 226.225 110.38 226.925C110.38 228.392 110.672 229.533 111.255 230.35C111.838 231.167 112.663 231.575 113.73 231.575ZM122.997 233V220.85H124.697L124.872 223.05H124.947C125.364 222.283 125.864 221.675 126.447 221.225C127.047 220.775 127.697 220.55 128.397 220.55C128.881 220.55 129.314 220.633 129.697 220.8L129.297 222.6C129.097 222.533 128.914 222.483 128.747 222.45C128.581 222.417 128.372 222.4 128.122 222.4C127.606 222.4 127.064 222.608 126.497 223.025C125.947 223.442 125.464 224.167 125.047 225.2V233H122.997ZM136.345 233.3C135.528 233.3 134.762 233.158 134.045 232.875C133.345 232.575 132.728 232.158 132.195 231.625C131.678 231.075 131.27 230.408 130.97 229.625C130.67 228.842 130.52 227.95 130.52 226.95C130.52 225.95 130.67 225.058 130.97 224.275C131.287 223.475 131.695 222.8 132.195 222.25C132.712 221.7 133.295 221.283 133.945 221C134.595 220.7 135.27 220.55 135.97 220.55C136.737 220.55 137.42 220.683 138.02 220.95C138.637 221.217 139.145 221.6 139.545 222.1C139.962 222.6 140.278 223.2 140.495 223.9C140.712 224.6 140.82 225.383 140.82 226.25C140.82 226.467 140.812 226.683 140.795 226.9C140.795 227.1 140.778 227.275 140.745 227.425H132.545C132.628 228.725 133.028 229.758 133.745 230.525C134.478 231.275 135.428 231.65 136.595 231.65C137.178 231.65 137.712 231.567 138.195 231.4C138.695 231.217 139.17 230.983 139.62 230.7L140.345 232.05C139.812 232.383 139.22 232.675 138.57 232.925C137.92 233.175 137.178 233.3 136.345 233.3ZM132.52 225.95H139.02C139.02 224.717 138.753 223.783 138.22 223.15C137.703 222.5 136.97 222.175 136.02 222.175C135.587 222.175 135.17 222.258 134.77 222.425C134.387 222.592 134.037 222.842 133.72 223.175C133.403 223.492 133.137 223.883 132.92 224.35C132.72 224.817 132.587 225.35 132.52 225.95ZM151.002 233.3C150.219 233.3 149.661 233.067 149.327 232.6C148.994 232.133 148.827 231.45 148.827 230.55V215.2H150.877V230.7C150.877 231.033 150.936 231.267 151.052 231.4C151.169 231.533 151.302 231.6 151.452 231.6C151.519 231.6 151.577 231.6 151.627 231.6C151.694 231.6 151.786 231.583 151.902 231.55L152.177 233.1C152.044 233.167 151.886 233.217 151.702 233.25C151.519 233.283 151.286 233.3 151.002 233.3ZM157.999 233.3C156.983 233.3 156.133 233 155.449 232.4C154.783 231.8 154.449 230.95 154.449 229.85C154.449 228.517 155.041 227.5 156.224 226.8C157.408 226.083 159.299 225.583 161.899 225.3C161.899 224.917 161.858 224.542 161.774 224.175C161.708 223.808 161.583 223.483 161.399 223.2C161.216 222.917 160.958 222.692 160.624 222.525C160.308 222.342 159.899 222.25 159.399 222.25C158.699 222.25 158.041 222.383 157.424 222.65C156.808 222.917 156.258 223.217 155.774 223.55L154.974 222.125C155.541 221.758 156.233 221.408 157.049 221.075C157.866 220.725 158.766 220.55 159.749 220.55C161.233 220.55 162.308 221.008 162.974 221.925C163.641 222.825 163.974 224.033 163.974 225.55V233H162.274L162.099 231.55H162.024C161.441 232.033 160.816 232.45 160.149 232.8C159.483 233.133 158.766 233.3 157.999 233.3ZM158.599 231.65C159.183 231.65 159.733 231.517 160.249 231.25C160.766 230.967 161.316 230.558 161.899 230.025V226.65C160.883 226.783 160.024 226.942 159.324 227.125C158.641 227.308 158.083 227.525 157.649 227.775C157.233 228.025 156.924 228.317 156.724 228.65C156.541 228.967 156.449 229.317 156.449 229.7C156.449 230.4 156.658 230.9 157.074 231.2C157.491 231.5 157.999 231.65 158.599 231.65ZM176.627 233.3C175.977 233.3 175.427 233.2 174.977 233C174.544 232.8 174.185 232.525 173.902 232.175C173.635 231.825 173.444 231.4 173.327 230.9C173.21 230.4 173.152 229.85 173.152 229.25V222.525H171.352V220.975L173.252 220.85L173.502 217.45H175.227V220.85H178.502V222.525H175.227V229.275C175.227 230.025 175.36 230.608 175.627 231.025C175.91 231.425 176.402 231.625 177.102 231.625C177.319 231.625 177.552 231.592 177.802 231.525C178.052 231.458 178.277 231.383 178.477 231.3L178.877 232.85C178.544 232.967 178.177 233.067 177.777 233.15C177.394 233.25 177.01 233.3 176.627 233.3ZM181.249 233V220.85H182.949L183.124 223.05H183.199C183.616 222.283 184.116 221.675 184.699 221.225C185.299 220.775 185.949 220.55 186.649 220.55C187.133 220.55 187.566 220.633 187.949 220.8L187.549 222.6C187.349 222.533 187.166 222.483 186.999 222.45C186.833 222.417 186.624 222.4 186.374 222.4C185.858 222.4 185.316 222.608 184.749 223.025C184.199 223.442 183.716 224.167 183.299 225.2V233H181.249ZM192.106 233.3C191.089 233.3 190.239 233 189.556 232.4C188.889 231.8 188.556 230.95 188.556 229.85C188.556 228.517 189.148 227.5 190.331 226.8C191.514 226.083 193.406 225.583 196.006 225.3C196.006 224.917 195.964 224.542 195.881 224.175C195.814 223.808 195.689 223.483 195.506 223.2C195.323 222.917 195.064 222.692 194.731 222.525C194.414 222.342 194.006 222.25 193.506 222.25C192.806 222.25 192.148 222.383 191.531 222.65C190.914 222.917 190.364 223.217 189.881 223.55L189.081 222.125C189.648 221.758 190.339 221.408 191.156 221.075C191.973 220.725 192.873 220.55 193.856 220.55C195.339 220.55 196.414 221.008 197.081 221.925C197.748 222.825 198.081 224.033 198.081 225.55V233H196.381L196.206 231.55H196.131C195.548 232.033 194.923 232.45 194.256 232.8C193.589 233.133 192.873 233.3 192.106 233.3ZM192.706 231.65C193.289 231.65 193.839 231.517 194.356 231.25C194.873 230.967 195.423 230.558 196.006 230.025V226.65C194.989 226.783 194.131 226.942 193.431 227.125C192.748 227.308 192.189 227.525 191.756 227.775C191.339 228.025 191.031 228.317 190.831 228.65C190.648 228.967 190.556 229.317 190.556 229.7C190.556 230.4 190.764 230.9 191.181 231.2C191.598 231.5 192.106 231.65 192.706 231.65ZM204.529 233L200.154 220.85H202.279L204.579 227.75C204.762 228.35 204.945 228.95 205.129 229.55C205.329 230.15 205.52 230.742 205.704 231.325H205.804C205.987 230.742 206.17 230.15 206.354 229.55C206.537 228.95 206.72 228.35 206.904 227.75L209.204 220.85H211.229L206.929 233H204.529ZM218.401 233.3C217.584 233.3 216.817 233.158 216.101 232.875C215.401 232.575 214.784 232.158 214.251 231.625C213.734 231.075 213.326 230.408 213.026 229.625C212.726 228.842 212.576 227.95 212.576 226.95C212.576 225.95 212.726 225.058 213.026 224.275C213.342 223.475 213.751 222.8 214.251 222.25C214.767 221.7 215.351 221.283 216.001 221C216.651 220.7 217.326 220.55 218.026 220.55C218.792 220.55 219.476 220.683 220.076 220.95C220.692 221.217 221.201 221.6 221.601 222.1C222.017 222.6 222.334 223.2 222.551 223.9C222.767 224.6 222.876 225.383 222.876 226.25C222.876 226.467 222.867 226.683 222.851 226.9C222.851 227.1 222.834 227.275 222.801 227.425H214.601C214.684 228.725 215.084 229.758 215.801 230.525C216.534 231.275 217.484 231.65 218.651 231.65C219.234 231.65 219.767 231.567 220.251 231.4C220.751 231.217 221.226 230.983 221.676 230.7L222.401 232.05C221.867 232.383 221.276 232.675 220.626 232.925C219.976 233.175 219.234 233.3 218.401 233.3ZM214.576 225.95H221.076C221.076 224.717 220.809 223.783 220.276 223.15C219.759 222.5 219.026 222.175 218.076 222.175C217.642 222.175 217.226 222.258 216.826 222.425C216.442 222.592 216.092 222.842 215.776 223.175C215.459 223.492 215.192 223.883 214.976 224.35C214.776 224.817 214.642 225.35 214.576 225.95ZM225.878 233V220.85H227.578L227.753 223.05H227.828C228.245 222.283 228.745 221.675 229.328 221.225C229.928 220.775 230.578 220.55 231.278 220.55C231.761 220.55 232.195 220.633 232.578 220.8L232.178 222.6C231.978 222.533 231.795 222.483 231.628 222.45C231.461 222.417 231.253 222.4 231.003 222.4C230.486 222.4 229.945 222.608 229.378 223.025C228.828 223.442 228.345 224.167 227.928 225.2V233H225.878ZM237.622 233.3C236.756 233.3 235.931 233.142 235.147 232.825C234.364 232.508 233.681 232.108 233.097 231.625L234.122 230.25C234.656 230.683 235.197 231.033 235.747 231.3C236.314 231.567 236.964 231.7 237.697 231.7C238.497 231.7 239.097 231.517 239.497 231.15C239.897 230.783 240.097 230.333 240.097 229.8C240.097 229.483 240.014 229.208 239.847 228.975C239.681 228.742 239.464 228.542 239.197 228.375C238.947 228.192 238.656 228.033 238.322 227.9C237.989 227.767 237.656 227.633 237.322 227.5C236.889 227.35 236.456 227.183 236.022 227C235.589 226.8 235.197 226.567 234.847 226.3C234.514 226.017 234.239 225.692 234.022 225.325C233.806 224.958 233.697 224.517 233.697 224C233.697 223.517 233.789 223.067 233.972 222.65C234.172 222.217 234.447 221.85 234.797 221.55C235.164 221.233 235.606 220.992 236.122 220.825C236.639 220.642 237.222 220.55 237.872 220.55C238.639 220.55 239.339 220.683 239.972 220.95C240.622 221.217 241.181 221.542 241.647 221.925L240.672 223.225C240.256 222.908 239.822 222.65 239.372 222.45C238.922 222.25 238.431 222.15 237.897 222.15C237.131 222.15 236.564 222.325 236.197 222.675C235.847 223.025 235.672 223.433 235.672 223.9C235.672 224.183 235.747 224.433 235.897 224.65C236.047 224.85 236.247 225.033 236.497 225.2C236.747 225.35 237.031 225.492 237.347 225.625C237.681 225.742 238.022 225.867 238.372 226C238.806 226.167 239.239 226.342 239.672 226.525C240.122 226.708 240.522 226.942 240.872 227.225C241.222 227.492 241.506 227.825 241.722 228.225C241.956 228.625 242.072 229.108 242.072 229.675C242.072 230.175 241.972 230.642 241.772 231.075C241.589 231.508 241.306 231.892 240.922 232.225C240.556 232.558 240.089 232.817 239.522 233C238.972 233.2 238.339 233.3 237.622 233.3ZM249.846 233.3C249.029 233.3 248.263 233.158 247.546 232.875C246.846 232.575 246.229 232.158 245.696 231.625C245.179 231.075 244.771 230.408 244.471 229.625C244.171 228.842 244.021 227.95 244.021 226.95C244.021 225.95 244.171 225.058 244.471 224.275C244.788 223.475 245.196 222.8 245.696 222.25C246.213 221.7 246.796 221.283 247.446 221C248.096 220.7 248.771 220.55 249.471 220.55C250.238 220.55 250.921 220.683 251.521 220.95C252.138 221.217 252.646 221.6 253.046 222.1C253.463 222.6 253.779 223.2 253.996 223.9C254.213 224.6 254.321 225.383 254.321 226.25C254.321 226.467 254.313 226.683 254.296 226.9C254.296 227.1 254.279 227.275 254.246 227.425H246.046C246.129 228.725 246.529 229.758 247.246 230.525C247.979 231.275 248.929 231.65 250.096 231.65C250.679 231.65 251.213 231.567 251.696 231.4C252.196 231.217 252.671 230.983 253.121 230.7L253.846 232.05C253.313 232.383 252.721 232.675 252.071 232.925C251.421 233.175 250.679 233.3 249.846 233.3ZM246.021 225.95H252.521C252.521 224.717 252.254 223.783 251.721 223.15C251.204 222.5 250.471 222.175 249.521 222.175C249.088 222.175 248.671 222.258 248.271 222.425C247.888 222.592 247.538 222.842 247.221 223.175C246.904 223.492 246.638 223.883 246.421 224.35C246.221 224.817 246.088 225.35 246.021 225.95ZM249.146 218.675L248.096 217.65L251.621 213.475L253.071 214.85L249.146 218.675ZM262.248 233.3C261.432 233.3 260.665 233.158 259.948 232.875C259.248 232.575 258.632 232.158 258.098 231.625C257.582 231.075 257.173 230.408 256.873 229.625C256.573 228.842 256.423 227.95 256.423 226.95C256.423 225.95 256.573 225.058 256.873 224.275C257.19 223.475 257.598 222.8 258.098 222.25C258.615 221.7 259.198 221.283 259.848 221C260.498 220.7 261.173 220.55 261.873 220.55C262.64 220.55 263.323 220.683 263.923 220.95C264.54 221.217 265.048 221.6 265.448 222.1C265.865 222.6 266.182 223.2 266.398 223.9C266.615 224.6 266.723 225.383 266.723 226.25C266.723 226.467 266.715 226.683 266.698 226.9C266.698 227.1 266.682 227.275 266.648 227.425H258.448C258.532 228.725 258.932 229.758 259.648 230.525C260.382 231.275 261.332 231.65 262.498 231.65C263.082 231.65 263.615 231.567 264.098 231.4C264.598 231.217 265.073 230.983 265.523 230.7L266.248 232.05C265.715 232.383 265.123 232.675 264.473 232.925C263.823 233.175 263.082 233.3 262.248 233.3ZM258.423 225.95H264.923C264.923 224.717 264.657 223.783 264.123 223.15C263.607 222.5 262.873 222.175 261.923 222.175C261.49 222.175 261.073 222.258 260.673 222.425C260.29 222.592 259.94 222.842 259.623 223.175C259.307 223.492 259.04 223.883 258.823 224.35C258.623 224.817 258.49 225.35 258.423 225.95Z" fill="#485F62"/>
</svg>
