<svg width="300" height="381" viewBox="0 0 300 381" fill="none" xmlns="http://www.w3.org/2000/svg">
<path d="M251.586 325.171C251.586 325.346 251.763 325.346 251.763 325.521C259.552 337.247 259.552 354.223 259.375 368.399" stroke="#485F62" stroke-width="0.9124" stroke-miterlimit="10"/>
<path d="M242.38 317.471C228.749 309.946 207.86 306.795 203.611 292.794" stroke="#485F62" stroke-width="0.9124" stroke-miterlimit="10"/>
<path d="M203.789 281.068C206.267 272.668 214.588 268.643 221.314 263.742C232.467 255.692 241.672 246.066 245.036 233.115" stroke="#485F62" stroke-width="0.9124" stroke-miterlimit="10"/>
<path d="M228.75 167.311C229.458 171.686 230.874 176.062 232.999 180.262C240.257 193.738 246.629 205.989 246.452 221.39" stroke="#485F62" stroke-width="0.9124" stroke-miterlimit="10"/>
<path d="M228.396 155.41C229.635 140.534 237.07 125.483 246.629 113.407" stroke="#485F62" stroke-width="0.9124" stroke-miterlimit="10"/>
<path d="M254.771 104.482C257.25 102.207 259.551 100.107 262.029 98.3569C272.12 91.0064 281.148 79.4557 283.095 67.3799" stroke="#485F62" stroke-width="0.9124" stroke-miterlimit="10"/>
<path d="M248.399 12.7754C250.701 35.7019 266.633 31.8516 277.077 45.1525C279.733 48.4777 281.503 51.978 282.388 55.4782" stroke="#485F62" stroke-width="0.9124" stroke-miterlimit="10"/>
<path d="M248.045 12.7758C251.369 12.7758 254.064 10.1117 254.064 6.82539C254.064 3.53908 251.369 0.875 248.045 0.875C244.721 0.875 242.026 3.53908 242.026 6.82539C242.026 10.1117 244.721 12.7758 248.045 12.7758Z" fill="#485F62" stroke="#485F62" stroke-width="0.9124" stroke-miterlimit="10"/>
<path d="M259.374 380.125C262.698 380.125 265.393 377.461 265.393 374.175C265.393 370.888 262.698 368.224 259.374 368.224C256.05 368.224 253.355 370.888 253.355 374.175C253.355 377.461 256.05 380.125 259.374 380.125Z" stroke="#485F62" stroke-width="0.9124" stroke-miterlimit="10"/>
<path d="M203.019 292.384C206.343 292.384 209.038 289.72 209.038 286.434C209.038 283.147 206.343 280.483 203.019 280.483C199.695 280.483 197 283.147 197 286.434C197 289.72 199.695 292.384 203.019 292.384Z" stroke="#485F62" stroke-width="0.9124" stroke-miterlimit="10"/>
<path d="M245.859 232.705C249.183 232.705 251.877 230.041 251.877 226.755C251.877 223.468 249.183 220.804 245.859 220.804C242.535 220.804 239.84 223.468 239.84 226.755C239.84 230.041 242.535 232.705 245.859 232.705Z" stroke="#485F62" stroke-width="0.9124" stroke-miterlimit="10"/>
<path d="M247.275 326.511C250.599 326.511 253.294 323.847 253.294 320.561C253.294 317.274 250.599 314.61 247.275 314.61C243.951 314.61 241.256 317.274 241.256 320.561C241.256 323.847 243.951 326.511 247.275 326.511Z" stroke="#485F62" stroke-width="0.9124" stroke-miterlimit="10"/>
<path d="M228.333 166.901C231.657 166.901 234.352 164.237 234.352 160.95C234.352 157.664 231.657 155 228.333 155C225.009 155 222.314 157.664 222.314 160.95C222.314 164.237 225.009 166.901 228.333 166.901Z" stroke="#485F62" stroke-width="0.9124" stroke-miterlimit="10"/>
<path d="M283.096 67.3793C286.42 67.3793 289.115 64.7152 289.115 61.4289C289.115 58.1426 286.42 55.4785 283.096 55.4785C279.772 55.4785 277.077 58.1426 277.077 61.4289C277.077 64.7152 279.772 67.3793 283.096 67.3793Z" fill="#485F62" stroke="#485F62" stroke-width="0.9124" stroke-miterlimit="10"/>
<path d="M250.7 114.808C254.025 114.808 256.719 112.144 256.719 108.858C256.719 105.571 254.025 102.907 250.7 102.907C247.376 102.907 244.682 105.571 244.682 108.858C244.682 112.144 247.376 114.808 250.7 114.808Z" stroke="#485F62" stroke-width="0.9124" stroke-miterlimit="10"/>
<path d="M283 60.7666L239.133 60.7666" stroke="#485F62"/>
<path d="M71.1517 56.825L70.3767 59.325H75.3017L74.5267 56.825C74.2267 55.9083 73.9433 55 73.6767 54.1C73.41 53.1833 73.1433 52.25 72.8767 51.3H72.7767C72.5267 52.25 72.2683 53.1833 72.0017 54.1C71.735 55 71.4517 55.9083 71.1517 56.825ZM66.1517 66L71.7017 49.6H74.0517L79.6017 66H77.3767L75.8267 61H69.8517L68.2767 66H66.1517ZM86.6503 66.3C85.8336 66.3 85.067 66.1583 84.3503 65.875C83.6503 65.575 83.0336 65.1583 82.5003 64.625C81.9836 64.075 81.5753 63.4083 81.2753 62.625C80.9753 61.8417 80.8253 60.95 80.8253 59.95C80.8253 58.95 80.9753 58.0583 81.2753 57.275C81.592 56.475 82.0003 55.8 82.5003 55.25C83.017 54.7 83.6003 54.2833 84.2503 54C84.9003 53.7 85.5753 53.55 86.2753 53.55C87.042 53.55 87.7253 53.6833 88.3253 53.95C88.942 54.2167 89.4503 54.6 89.8503 55.1C90.267 55.6 90.5836 56.2 90.8003 56.9C91.017 57.6 91.1253 58.3833 91.1253 59.25C91.1253 59.4667 91.117 59.6833 91.1003 59.9C91.1003 60.1 91.0836 60.275 91.0503 60.425H82.8503C82.9336 61.725 83.3336 62.7583 84.0503 63.525C84.7836 64.275 85.7336 64.65 86.9003 64.65C87.4836 64.65 88.017 64.5667 88.5003 64.4C89.0003 64.2167 89.4753 63.9833 89.9253 63.7L90.6503 65.05C90.117 65.3833 89.5253 65.675 88.8753 65.925C88.2253 66.175 87.4836 66.3 86.6503 66.3ZM82.8253 58.95H89.3253C89.3253 57.7167 89.0586 56.7833 88.5253 56.15C88.0086 55.5 87.2753 55.175 86.3253 55.175C85.892 55.175 85.4753 55.2583 85.0753 55.425C84.692 55.5917 84.342 55.8417 84.0253 56.175C83.7086 56.4917 83.442 56.8833 83.2253 57.35C83.0253 57.8167 82.892 58.35 82.8253 58.95ZM85.9503 51.675L84.9003 50.65L88.4253 46.475L89.8753 47.85L85.9503 51.675ZM94.1276 66V53.85H95.8276L96.0026 56.05H96.0776C96.4943 55.2833 96.9943 54.675 97.5776 54.225C98.1776 53.775 98.8276 53.55 99.5276 53.55C100.011 53.55 100.444 53.6333 100.828 53.8L100.428 55.6C100.228 55.5333 100.044 55.4833 99.8776 55.45C99.711 55.4167 99.5026 55.4 99.2526 55.4C98.736 55.4 98.1943 55.6083 97.6276 56.025C97.0776 56.4417 96.5943 57.1667 96.1776 58.2V66H94.1276ZM107.275 66.3C106.525 66.3 105.809 66.1583 105.125 65.875C104.459 65.5917 103.867 65.1833 103.35 64.65C102.834 64.1 102.417 63.4333 102.1 62.65C101.8 61.85 101.65 60.95 101.65 59.95C101.65 58.9333 101.8 58.0333 102.1 57.25C102.417 56.45 102.834 55.775 103.35 55.225C103.867 54.675 104.459 54.2583 105.125 53.975C105.809 53.6917 106.525 53.55 107.275 53.55C108.025 53.55 108.734 53.6917 109.4 53.975C110.084 54.2583 110.684 54.675 111.2 55.225C111.717 55.775 112.125 56.45 112.425 57.25C112.742 58.0333 112.9 58.9333 112.9 59.95C112.9 60.95 112.742 61.85 112.425 62.65C112.125 63.4333 111.717 64.1 111.2 64.65C110.684 65.1833 110.084 65.5917 109.4 65.875C108.734 66.1583 108.025 66.3 107.275 66.3ZM107.275 64.6C107.792 64.6 108.267 64.4917 108.7 64.275C109.134 64.0417 109.5 63.725 109.8 63.325C110.117 62.9083 110.359 62.4167 110.525 61.85C110.692 61.2833 110.775 60.65 110.775 59.95C110.775 59.25 110.692 58.6167 110.525 58.05C110.359 57.4667 110.117 56.9667 109.8 56.55C109.5 56.1333 109.134 55.8167 108.7 55.6C108.267 55.3667 107.792 55.25 107.275 55.25C106.759 55.25 106.284 55.3667 105.85 55.6C105.417 55.8167 105.042 56.1333 104.725 56.55C104.425 56.9667 104.192 57.4667 104.025 58.05C103.859 58.6167 103.775 59.25 103.775 59.95C103.775 60.65 103.859 61.2833 104.025 61.85C104.192 62.4167 104.425 62.9083 104.725 63.325C105.042 63.725 105.417 64.0417 105.85 64.275C106.284 64.4917 106.759 64.6 107.275 64.6ZM116.1 71.125V53.85H117.8L117.975 55.25H118.05C118.6 54.7833 119.2 54.3833 119.85 54.05C120.517 53.7167 121.209 53.55 121.925 53.55C122.709 53.55 123.4 53.7 124 54C124.6 54.2833 125.1 54.7 125.5 55.25C125.9 55.7833 126.2 56.4333 126.4 57.2C126.617 57.95 126.725 58.8 126.725 59.75C126.725 60.7833 126.584 61.7083 126.3 62.525C126.017 63.325 125.634 64.0083 125.15 64.575C124.667 65.1417 124.109 65.575 123.475 65.875C122.842 66.1583 122.175 66.3 121.475 66.3C120.909 66.3 120.342 66.175 119.775 65.925C119.225 65.675 118.667 65.3333 118.1 64.9L118.15 67.025V71.125H116.1ZM121.125 64.575C121.625 64.575 122.084 64.4667 122.5 64.25C122.934 64.0167 123.3 63.7 123.6 63.3C123.917 62.8833 124.159 62.375 124.325 61.775C124.509 61.175 124.6 60.5 124.6 59.75C124.6 59.0833 124.542 58.475 124.425 57.925C124.309 57.375 124.117 56.9083 123.85 56.525C123.6 56.125 123.267 55.8167 122.85 55.6C122.45 55.3833 121.967 55.275 121.4 55.275C120.884 55.275 120.359 55.4167 119.825 55.7C119.309 55.9833 118.75 56.3917 118.15 56.925V63.3C118.7 63.7667 119.234 64.1 119.75 64.3C120.267 64.4833 120.725 64.575 121.125 64.575ZM134.692 66.3C133.942 66.3 133.226 66.1583 132.542 65.875C131.876 65.5917 131.284 65.1833 130.767 64.65C130.251 64.1 129.834 63.4333 129.517 62.65C129.217 61.85 129.067 60.95 129.067 59.95C129.067 58.9333 129.217 58.0333 129.517 57.25C129.834 56.45 130.251 55.775 130.767 55.225C131.284 54.675 131.876 54.2583 132.542 53.975C133.226 53.6917 133.942 53.55 134.692 53.55C135.442 53.55 136.151 53.6917 136.817 53.975C137.501 54.2583 138.101 54.675 138.617 55.225C139.134 55.775 139.542 56.45 139.842 57.25C140.159 58.0333 140.317 58.9333 140.317 59.95C140.317 60.95 140.159 61.85 139.842 62.65C139.542 63.4333 139.134 64.1 138.617 64.65C138.101 65.1833 137.501 65.5917 136.817 65.875C136.151 66.1583 135.442 66.3 134.692 66.3ZM134.692 64.6C135.209 64.6 135.684 64.4917 136.117 64.275C136.551 64.0417 136.917 63.725 137.217 63.325C137.534 62.9083 137.776 62.4167 137.942 61.85C138.109 61.2833 138.192 60.65 138.192 59.95C138.192 59.25 138.109 58.6167 137.942 58.05C137.776 57.4667 137.534 56.9667 137.217 56.55C136.917 56.1333 136.551 55.8167 136.117 55.6C135.684 55.3667 135.209 55.25 134.692 55.25C134.176 55.25 133.701 55.3667 133.267 55.6C132.834 55.8167 132.459 56.1333 132.142 56.55C131.842 56.9667 131.609 57.4667 131.442 58.05C131.276 58.6167 131.192 59.25 131.192 59.95C131.192 60.65 131.276 61.2833 131.442 61.85C131.609 62.4167 131.842 62.9083 132.142 63.325C132.459 63.725 132.834 64.0417 133.267 64.275C133.701 64.4917 134.176 64.6 134.692 64.6ZM143.517 66V53.85H145.217L145.392 56.05H145.467C145.884 55.2833 146.384 54.675 146.967 54.225C147.567 53.775 148.217 53.55 148.917 53.55C149.401 53.55 149.834 53.6333 150.217 53.8L149.817 55.6C149.617 55.5333 149.434 55.4833 149.267 55.45C149.101 55.4167 148.892 55.4 148.642 55.4C148.126 55.4 147.584 55.6083 147.017 56.025C146.467 56.4417 145.984 57.1667 145.567 58.2V66H143.517ZM156.009 66.3C155.359 66.3 154.809 66.2 154.359 66C153.926 65.8 153.568 65.525 153.284 65.175C153.018 64.825 152.826 64.4 152.709 63.9C152.593 63.4 152.534 62.85 152.534 62.25V55.525H150.734V53.975L152.634 53.85L152.884 50.45H154.609V53.85H157.884V55.525H154.609V62.275C154.609 63.025 154.743 63.6083 155.009 64.025C155.293 64.425 155.784 64.625 156.484 64.625C156.701 64.625 156.934 64.5917 157.184 64.525C157.434 64.4583 157.659 64.3833 157.859 64.3L158.259 65.85C157.926 65.9667 157.559 66.0667 157.159 66.15C156.776 66.25 156.393 66.3 156.009 66.3ZM169.786 66.3C168.253 66.3 167.028 65.75 166.111 64.65C165.211 63.55 164.761 61.9833 164.761 59.95C164.761 58.9667 164.903 58.0833 165.186 57.3C165.486 56.5 165.878 55.825 166.361 55.275C166.845 54.725 167.403 54.3 168.036 54C168.67 53.7 169.336 53.55 170.036 53.55C170.736 53.55 171.345 53.675 171.861 53.925C172.378 54.175 172.903 54.5167 173.436 54.95L173.336 52.875V48.2H175.411V66H173.711L173.536 64.575H173.461C172.978 65.0417 172.42 65.45 171.786 65.8C171.17 66.1333 170.503 66.3 169.786 66.3ZM170.236 64.575C170.803 64.575 171.336 64.4417 171.836 64.175C172.336 63.8917 172.836 63.4667 173.336 62.9V56.55C172.82 56.0833 172.32 55.7583 171.836 55.575C171.37 55.375 170.886 55.275 170.386 55.275C169.903 55.275 169.445 55.3917 169.011 55.625C168.595 55.8417 168.228 56.1583 167.911 56.575C167.595 56.975 167.345 57.4583 167.161 58.025C166.978 58.5917 166.886 59.225 166.886 59.925C166.886 61.3917 167.178 62.5333 167.761 63.35C168.345 64.1667 169.17 64.575 170.236 64.575ZM183.054 66.3C181.754 66.3 180.804 65.9 180.204 65.1C179.62 64.3 179.329 63.1167 179.329 61.55V53.85H181.404V61.275C181.404 62.425 181.579 63.2583 181.929 63.775C182.295 64.275 182.879 64.525 183.679 64.525C184.312 64.525 184.87 64.3667 185.354 64.05C185.837 63.7167 186.37 63.1917 186.954 62.475V53.85H189.004V66H187.304L187.129 64.1H187.054C186.487 64.7667 185.887 65.3 185.254 65.7C184.637 66.1 183.904 66.3 183.054 66.3ZM198.307 66V49.6H200.382V64.225H207.557V66H198.307ZM214.897 66.3C214.081 66.3 213.314 66.1583 212.597 65.875C211.897 65.575 211.281 65.1583 210.747 64.625C210.231 64.075 209.822 63.4083 209.522 62.625C209.222 61.8417 209.072 60.95 209.072 59.95C209.072 58.95 209.222 58.0583 209.522 57.275C209.839 56.475 210.247 55.8 210.747 55.25C211.264 54.7 211.847 54.2833 212.497 54C213.147 53.7 213.822 53.55 214.522 53.55C215.289 53.55 215.972 53.6833 216.572 53.95C217.189 54.2167 217.697 54.6 218.097 55.1C218.514 55.6 218.831 56.2 219.047 56.9C219.264 57.6 219.372 58.3833 219.372 59.25C219.372 59.4667 219.364 59.6833 219.347 59.9C219.347 60.1 219.331 60.275 219.297 60.425H211.097C211.181 61.725 211.581 62.7583 212.297 63.525C213.031 64.275 213.981 64.65 215.147 64.65C215.731 64.65 216.264 64.5667 216.747 64.4C217.247 64.2167 217.722 63.9833 218.172 63.7L218.897 65.05C218.364 65.3833 217.772 65.675 217.122 65.925C216.472 66.175 215.731 66.3 214.897 66.3ZM211.072 58.95H217.572C217.572 57.7167 217.306 56.7833 216.772 56.15C216.256 55.5 215.522 55.175 214.572 55.175C214.139 55.175 213.722 55.2583 213.322 55.425C212.939 55.5917 212.589 55.8417 212.272 56.175C211.956 56.4917 211.689 56.8833 211.472 57.35C211.272 57.8167 211.139 58.35 211.072 58.95ZM222.375 66V48.2H224.425V53.05L224.35 55.55C224.933 55 225.541 54.5333 226.175 54.15C226.808 53.75 227.55 53.55 228.4 53.55C229.683 53.55 230.616 53.95 231.2 54.75C231.8 55.55 232.1 56.7333 232.1 58.3V66H230.05V58.575C230.05 57.425 229.866 56.6 229.5 56.1C229.133 55.5833 228.55 55.325 227.75 55.325C227.116 55.325 226.558 55.4833 226.075 55.8C225.591 56.1167 225.041 56.5833 224.425 57.2V66H222.375Z" fill="#485F62"/>
</svg>
