<svg width="326" height="381" viewBox="0 0 326 381" fill="none" xmlns="http://www.w3.org/2000/svg">
<path d="M287.586 325.171C287.586 325.346 287.763 325.346 287.763 325.521C295.552 337.247 295.552 354.223 295.375 368.399" stroke="#485F62" stroke-width="0.9124" stroke-miterlimit="10"/>
<path d="M278.38 317.471C264.749 309.946 243.86 306.795 239.612 292.794" stroke="#485F62" stroke-width="0.9124" stroke-miterlimit="10"/>
<path d="M239.789 281.068C242.267 272.668 250.588 268.643 257.314 263.742C268.467 255.692 277.672 246.066 281.036 233.115" stroke="#485F62" stroke-width="0.9124" stroke-miterlimit="10"/>
<path d="M264.75 167.311C265.458 171.686 266.874 176.062 268.998 180.262C276.256 193.738 282.629 205.989 282.452 221.39" stroke="#485F62" stroke-width="0.9124" stroke-miterlimit="10"/>
<path d="M264.396 155.41C265.635 140.534 273.07 125.483 282.629 113.407" stroke="#485F62" stroke-width="0.9124" stroke-miterlimit="10"/>
<path d="M290.772 104.482C293.25 102.207 295.552 100.107 298.03 98.3569C308.12 91.0064 317.149 79.4557 319.096 67.3799" stroke="#485F62" stroke-width="0.9124" stroke-miterlimit="10"/>
<path d="M284.399 12.7754C286.701 35.7019 302.633 31.8516 313.077 45.1525C315.733 48.4777 317.503 51.978 318.388 55.4782" stroke="#485F62" stroke-width="0.9124" stroke-miterlimit="10"/>
<path d="M284.045 12.7758C287.369 12.7758 290.064 10.1117 290.064 6.82539C290.064 3.53908 287.369 0.875 284.045 0.875C280.721 0.875 278.026 3.53908 278.026 6.82539C278.026 10.1117 280.721 12.7758 284.045 12.7758Z" fill="#485F62" stroke="#485F62" stroke-width="0.9124" stroke-miterlimit="10"/>
<path d="M295.375 380.125C298.699 380.125 301.394 377.461 301.394 374.175C301.394 370.888 298.699 368.224 295.375 368.224C292.051 368.224 289.356 370.888 289.356 374.175C289.356 377.461 292.051 380.125 295.375 380.125Z" fill="#485F62" stroke="#485F62" stroke-width="0.9124" stroke-miterlimit="10"/>
<path d="M239.019 292.384C242.343 292.384 245.038 289.72 245.038 286.434C245.038 283.147 242.343 280.483 239.019 280.483C235.695 280.483 233 283.147 233 286.434C233 289.72 235.695 292.384 239.019 292.384Z" fill="#485F62" stroke="#485F62" stroke-width="0.9124" stroke-miterlimit="10"/>
<path d="M281.859 232.705C285.183 232.705 287.877 230.041 287.877 226.755C287.877 223.468 285.183 220.804 281.859 220.804C278.535 220.804 275.84 223.468 275.84 226.755C275.84 230.041 278.535 232.705 281.859 232.705Z" fill="#485F62" stroke="#485F62" stroke-width="0.9124" stroke-miterlimit="10"/>
<path d="M283.275 326.511C286.599 326.511 289.294 323.847 289.294 320.561C289.294 317.274 286.599 314.61 283.275 314.61C279.951 314.61 277.256 317.274 277.256 320.561C277.256 323.847 279.951 326.511 283.275 326.511Z" fill="#485F62" stroke="#485F62" stroke-width="0.9124" stroke-miterlimit="10"/>
<path d="M264.333 166.901C267.657 166.901 270.352 164.237 270.352 160.95C270.352 157.664 267.657 155 264.333 155C261.009 155 258.314 157.664 258.314 160.95C258.314 164.237 261.009 166.901 264.333 166.901Z" fill="#485F62" stroke="#485F62" stroke-width="0.9124" stroke-miterlimit="10"/>
<path d="M319.096 67.3793C322.42 67.3793 325.115 64.7152 325.115 61.4289C325.115 58.1426 322.42 55.4785 319.096 55.4785C315.772 55.4785 313.077 58.1426 313.077 61.4289C313.077 64.7152 315.772 67.3793 319.096 67.3793Z" fill="#485F62" stroke="#485F62" stroke-width="0.9124" stroke-miterlimit="10"/>
<path d="M286.7 114.808C290.025 114.808 292.719 112.144 292.719 108.858C292.719 105.571 290.025 102.907 286.7 102.907C283.376 102.907 280.682 105.571 280.682 108.858C280.682 112.144 283.376 114.808 286.7 114.808Z" fill="#485F62" stroke="#485F62" stroke-width="0.9124" stroke-miterlimit="10"/>
<line x1="295.867" y1="374.5" x2="252" y2="374.5" stroke="#485F62"/>
<path d="M57.5723 378V361.6H67.0223V363.35H59.6473V368.9H65.8973V370.65H59.6473V378H57.5723ZM69.7258 378V365.85H71.7758V378H69.7258ZM70.7758 363.35C70.3758 363.35 70.0341 363.225 69.7508 362.975C69.4841 362.725 69.3508 362.408 69.3508 362.025C69.3508 361.625 69.4841 361.308 69.7508 361.075C70.0341 360.825 70.3758 360.7 70.7758 360.7C71.1758 360.7 71.5091 360.825 71.7758 361.075C72.0591 361.308 72.2008 361.625 72.2008 362.025C72.2008 362.408 72.0591 362.725 71.7758 362.975C71.5091 363.225 71.1758 363.35 70.7758 363.35ZM75.8781 378V365.85H77.5781L77.7531 367.6H77.8281C78.4115 367.017 79.0198 366.533 79.6531 366.15C80.3031 365.75 81.0531 365.55 81.9031 365.55C83.1865 365.55 84.1198 365.95 84.7031 366.75C85.3031 367.55 85.6031 368.733 85.6031 370.3V378H83.5531V370.575C83.5531 369.425 83.3698 368.6 83.0031 368.1C82.6365 367.583 82.0531 367.325 81.2531 367.325C80.6198 367.325 80.0615 367.483 79.5781 367.8C79.0948 368.117 78.5448 368.583 77.9281 369.2V378H75.8781ZM98.7049 378.3C97.1715 378.3 95.9465 377.75 95.0299 376.65C94.1299 375.55 93.6799 373.983 93.6799 371.95C93.6799 370.967 93.8215 370.083 94.1049 369.3C94.4049 368.5 94.7965 367.825 95.2799 367.275C95.7632 366.725 96.3215 366.3 96.9549 366C97.5882 365.7 98.2549 365.55 98.9549 365.55C99.6549 365.55 100.263 365.675 100.78 365.925C101.297 366.175 101.822 366.517 102.355 366.95L102.255 364.875V360.2H104.33V378H102.63L102.455 376.575H102.38C101.897 377.042 101.338 377.45 100.705 377.8C100.088 378.133 99.4215 378.3 98.7049 378.3ZM99.1549 376.575C99.7215 376.575 100.255 376.442 100.755 376.175C101.255 375.892 101.755 375.467 102.255 374.9V368.55C101.738 368.083 101.238 367.758 100.755 367.575C100.288 367.375 99.8049 367.275 99.3049 367.275C98.8215 367.275 98.3632 367.392 97.9299 367.625C97.5132 367.842 97.1465 368.158 96.8299 368.575C96.5132 368.975 96.2632 369.458 96.0799 370.025C95.8965 370.592 95.8049 371.225 95.8049 371.925C95.8049 373.392 96.0965 374.533 96.6799 375.35C97.2632 376.167 98.0882 376.575 99.1549 376.575ZM113.347 378.3C112.53 378.3 111.764 378.158 111.047 377.875C110.347 377.575 109.73 377.158 109.197 376.625C108.68 376.075 108.272 375.408 107.972 374.625C107.672 373.842 107.522 372.95 107.522 371.95C107.522 370.95 107.672 370.058 107.972 369.275C108.289 368.475 108.697 367.8 109.197 367.25C109.714 366.7 110.297 366.283 110.947 366C111.597 365.7 112.272 365.55 112.972 365.55C113.739 365.55 114.422 365.683 115.022 365.95C115.639 366.217 116.147 366.6 116.547 367.1C116.964 367.6 117.28 368.2 117.497 368.9C117.714 369.6 117.822 370.383 117.822 371.25C117.822 371.467 117.814 371.683 117.797 371.9C117.797 372.1 117.78 372.275 117.747 372.425H109.547C109.63 373.725 110.03 374.758 110.747 375.525C111.48 376.275 112.43 376.65 113.597 376.65C114.18 376.65 114.714 376.567 115.197 376.4C115.697 376.217 116.172 375.983 116.622 375.7L117.347 377.05C116.814 377.383 116.222 377.675 115.572 377.925C114.922 378.175 114.18 378.3 113.347 378.3ZM109.522 370.95H116.022C116.022 369.717 115.755 368.783 115.222 368.15C114.705 367.5 113.972 367.175 113.022 367.175C112.589 367.175 112.172 367.258 111.772 367.425C111.389 367.592 111.039 367.842 110.722 368.175C110.405 368.492 110.139 368.883 109.922 369.35C109.722 369.817 109.589 370.35 109.522 370.95ZM128.004 378.3C127.221 378.3 126.663 378.067 126.329 377.6C125.996 377.133 125.829 376.45 125.829 375.55V360.2H127.879V375.7C127.879 376.033 127.938 376.267 128.054 376.4C128.171 376.533 128.304 376.6 128.454 376.6C128.521 376.6 128.579 376.6 128.629 376.6C128.696 376.6 128.788 376.583 128.904 376.55L129.179 378.1C129.046 378.167 128.888 378.217 128.704 378.25C128.521 378.283 128.288 378.3 128.004 378.3ZM135.001 378.3C133.985 378.3 133.135 378 132.451 377.4C131.785 376.8 131.451 375.95 131.451 374.85C131.451 373.517 132.043 372.5 133.226 371.8C134.41 371.083 136.301 370.583 138.901 370.3C138.901 369.917 138.86 369.542 138.776 369.175C138.71 368.808 138.585 368.483 138.401 368.2C138.218 367.917 137.96 367.692 137.626 367.525C137.31 367.342 136.901 367.25 136.401 367.25C135.701 367.25 135.043 367.383 134.426 367.65C133.81 367.917 133.26 368.217 132.776 368.55L131.976 367.125C132.543 366.758 133.235 366.408 134.051 366.075C134.868 365.725 135.768 365.55 136.751 365.55C138.235 365.55 139.31 366.008 139.976 366.925C140.643 367.825 140.976 369.033 140.976 370.55V378H139.276L139.101 376.55H139.026C138.443 377.033 137.818 377.45 137.151 377.8C136.485 378.133 135.768 378.3 135.001 378.3ZM135.601 376.65C136.185 376.65 136.735 376.517 137.251 376.25C137.768 375.967 138.318 375.558 138.901 375.025V371.65C137.885 371.783 137.026 371.942 136.326 372.125C135.643 372.308 135.085 372.525 134.651 372.775C134.235 373.025 133.926 373.317 133.726 373.65C133.543 373.967 133.451 374.317 133.451 374.7C133.451 375.4 133.66 375.9 134.076 376.2C134.493 376.5 135.001 376.65 135.601 376.65ZM153.629 378.3C152.979 378.3 152.429 378.2 151.979 378C151.546 377.8 151.187 377.525 150.904 377.175C150.637 376.825 150.446 376.4 150.329 375.9C150.212 375.4 150.154 374.85 150.154 374.25V367.525H148.354V365.975L150.254 365.85L150.504 362.45H152.229V365.85H155.504V367.525H152.229V374.275C152.229 375.025 152.362 375.608 152.629 376.025C152.912 376.425 153.404 376.625 154.104 376.625C154.321 376.625 154.554 376.592 154.804 376.525C155.054 376.458 155.279 376.383 155.479 376.3L155.879 377.85C155.546 377.967 155.179 378.067 154.779 378.15C154.396 378.25 154.012 378.3 153.629 378.3ZM158.251 378V365.85H159.951L160.126 368.05H160.201C160.618 367.283 161.118 366.675 161.701 366.225C162.301 365.775 162.951 365.55 163.651 365.55C164.135 365.55 164.568 365.633 164.951 365.8L164.551 367.6C164.351 367.533 164.168 367.483 164.001 367.45C163.835 367.417 163.626 367.4 163.376 367.4C162.86 367.4 162.318 367.608 161.751 368.025C161.201 368.442 160.718 369.167 160.301 370.2V378H158.251ZM169.108 378.3C168.091 378.3 167.241 378 166.558 377.4C165.891 376.8 165.558 375.95 165.558 374.85C165.558 373.517 166.149 372.5 167.333 371.8C168.516 371.083 170.408 370.583 173.008 370.3C173.008 369.917 172.966 369.542 172.883 369.175C172.816 368.808 172.691 368.483 172.508 368.2C172.324 367.917 172.066 367.692 171.733 367.525C171.416 367.342 171.008 367.25 170.508 367.25C169.808 367.25 169.149 367.383 168.533 367.65C167.916 367.917 167.366 368.217 166.883 368.55L166.083 367.125C166.649 366.758 167.341 366.408 168.158 366.075C168.974 365.725 169.874 365.55 170.858 365.55C172.341 365.55 173.416 366.008 174.083 366.925C174.749 367.825 175.083 369.033 175.083 370.55V378H173.383L173.208 376.55H173.133C172.549 377.033 171.924 377.45 171.258 377.8C170.591 378.133 169.874 378.3 169.108 378.3ZM169.708 376.65C170.291 376.65 170.841 376.517 171.358 376.25C171.874 375.967 172.424 375.558 173.008 375.025V371.65C171.991 371.783 171.133 371.942 170.433 372.125C169.749 372.308 169.191 372.525 168.758 372.775C168.341 373.025 168.033 373.317 167.833 373.65C167.649 373.967 167.558 374.317 167.558 374.7C167.558 375.4 167.766 375.9 168.183 376.2C168.599 376.5 169.108 376.65 169.708 376.65ZM181.53 378L177.155 365.85H179.28L181.58 372.75C181.764 373.35 181.947 373.95 182.13 374.55C182.33 375.15 182.522 375.742 182.705 376.325H182.805C182.989 375.742 183.172 375.15 183.355 374.55C183.539 373.95 183.722 373.35 183.905 372.75L186.205 365.85H188.23L183.93 378H181.53ZM195.403 378.3C194.586 378.3 193.819 378.158 193.103 377.875C192.403 377.575 191.786 377.158 191.253 376.625C190.736 376.075 190.328 375.408 190.028 374.625C189.728 373.842 189.578 372.95 189.578 371.95C189.578 370.95 189.728 370.058 190.028 369.275C190.344 368.475 190.753 367.8 191.253 367.25C191.769 366.7 192.353 366.283 193.003 366C193.653 365.7 194.328 365.55 195.028 365.55C195.794 365.55 196.478 365.683 197.078 365.95C197.694 366.217 198.203 366.6 198.603 367.1C199.019 367.6 199.336 368.2 199.553 368.9C199.769 369.6 199.878 370.383 199.878 371.25C199.878 371.467 199.869 371.683 199.853 371.9C199.853 372.1 199.836 372.275 199.803 372.425H191.603C191.686 373.725 192.086 374.758 192.803 375.525C193.536 376.275 194.486 376.65 195.653 376.65C196.236 376.65 196.769 376.567 197.253 376.4C197.753 376.217 198.228 375.983 198.678 375.7L199.403 377.05C198.869 377.383 198.278 377.675 197.628 377.925C196.978 378.175 196.236 378.3 195.403 378.3ZM191.578 370.95H198.078C198.078 369.717 197.811 368.783 197.278 368.15C196.761 367.5 196.028 367.175 195.078 367.175C194.644 367.175 194.228 367.258 193.828 367.425C193.444 367.592 193.094 367.842 192.778 368.175C192.461 368.492 192.194 368.883 191.978 369.35C191.778 369.817 191.644 370.35 191.578 370.95ZM202.88 378V365.85H204.58L204.755 368.05H204.83C205.247 367.283 205.747 366.675 206.33 366.225C206.93 365.775 207.58 365.55 208.28 365.55C208.763 365.55 209.197 365.633 209.58 365.8L209.18 367.6C208.98 367.533 208.797 367.483 208.63 367.45C208.463 367.417 208.255 367.4 208.005 367.4C207.488 367.4 206.947 367.608 206.38 368.025C205.83 368.442 205.347 369.167 204.93 370.2V378H202.88ZM214.624 378.3C213.758 378.3 212.933 378.142 212.149 377.825C211.366 377.508 210.683 377.108 210.099 376.625L211.124 375.25C211.658 375.683 212.199 376.033 212.749 376.3C213.316 376.567 213.966 376.7 214.699 376.7C215.499 376.7 216.099 376.517 216.499 376.15C216.899 375.783 217.099 375.333 217.099 374.8C217.099 374.483 217.016 374.208 216.849 373.975C216.683 373.742 216.466 373.542 216.199 373.375C215.949 373.192 215.658 373.033 215.324 372.9C214.991 372.767 214.658 372.633 214.324 372.5C213.891 372.35 213.458 372.183 213.024 372C212.591 371.8 212.199 371.567 211.849 371.3C211.516 371.017 211.241 370.692 211.024 370.325C210.808 369.958 210.699 369.517 210.699 369C210.699 368.517 210.791 368.067 210.974 367.65C211.174 367.217 211.449 366.85 211.799 366.55C212.166 366.233 212.608 365.992 213.124 365.825C213.641 365.642 214.224 365.55 214.874 365.55C215.641 365.55 216.341 365.683 216.974 365.95C217.624 366.217 218.183 366.542 218.649 366.925L217.674 368.225C217.258 367.908 216.824 367.65 216.374 367.45C215.924 367.25 215.433 367.15 214.899 367.15C214.133 367.15 213.566 367.325 213.199 367.675C212.849 368.025 212.674 368.433 212.674 368.9C212.674 369.183 212.749 369.433 212.899 369.65C213.049 369.85 213.249 370.033 213.499 370.2C213.749 370.35 214.033 370.492 214.349 370.625C214.683 370.742 215.024 370.867 215.374 371C215.808 371.167 216.241 371.342 216.674 371.525C217.124 371.708 217.524 371.942 217.874 372.225C218.224 372.492 218.508 372.825 218.724 373.225C218.958 373.625 219.074 374.108 219.074 374.675C219.074 375.175 218.974 375.642 218.774 376.075C218.591 376.508 218.308 376.892 217.924 377.225C217.558 377.558 217.091 377.817 216.524 378C215.974 378.2 215.341 378.3 214.624 378.3ZM226.848 378.3C226.031 378.3 225.265 378.158 224.548 377.875C223.848 377.575 223.231 377.158 222.698 376.625C222.181 376.075 221.773 375.408 221.473 374.625C221.173 373.842 221.023 372.95 221.023 371.95C221.023 370.95 221.173 370.058 221.473 369.275C221.79 368.475 222.198 367.8 222.698 367.25C223.215 366.7 223.798 366.283 224.448 366C225.098 365.7 225.773 365.55 226.473 365.55C227.24 365.55 227.923 365.683 228.523 365.95C229.14 366.217 229.648 366.6 230.048 367.1C230.465 367.6 230.781 368.2 230.998 368.9C231.215 369.6 231.323 370.383 231.323 371.25C231.323 371.467 231.315 371.683 231.298 371.9C231.298 372.1 231.281 372.275 231.248 372.425H223.048C223.131 373.725 223.531 374.758 224.248 375.525C224.981 376.275 225.931 376.65 227.098 376.65C227.681 376.65 228.215 376.567 228.698 376.4C229.198 376.217 229.673 375.983 230.123 375.7L230.848 377.05C230.315 377.383 229.723 377.675 229.073 377.925C228.423 378.175 227.681 378.3 226.848 378.3ZM223.023 370.95H229.523C229.523 369.717 229.256 368.783 228.723 368.15C228.206 367.5 227.473 367.175 226.523 367.175C226.09 367.175 225.673 367.258 225.273 367.425C224.89 367.592 224.54 367.842 224.223 368.175C223.906 368.492 223.64 368.883 223.423 369.35C223.223 369.817 223.09 370.35 223.023 370.95ZM226.148 363.675L225.098 362.65L228.623 358.475L230.073 359.85L226.148 363.675ZM239.25 378.3C238.434 378.3 237.667 378.158 236.95 377.875C236.25 377.575 235.634 377.158 235.1 376.625C234.584 376.075 234.175 375.408 233.875 374.625C233.575 373.842 233.425 372.95 233.425 371.95C233.425 370.95 233.575 370.058 233.875 369.275C234.192 368.475 234.6 367.8 235.1 367.25C235.617 366.7 236.2 366.283 236.85 366C237.5 365.7 238.175 365.55 238.875 365.55C239.642 365.55 240.325 365.683 240.925 365.95C241.542 366.217 242.05 366.6 242.45 367.1C242.867 367.6 243.184 368.2 243.4 368.9C243.617 369.6 243.725 370.383 243.725 371.25C243.725 371.467 243.717 371.683 243.7 371.9C243.7 372.1 243.684 372.275 243.65 372.425H235.45C235.534 373.725 235.934 374.758 236.65 375.525C237.384 376.275 238.334 376.65 239.5 376.65C240.084 376.65 240.617 376.567 241.1 376.4C241.6 376.217 242.075 375.983 242.525 375.7L243.25 377.05C242.717 377.383 242.125 377.675 241.475 377.925C240.825 378.175 240.084 378.3 239.25 378.3ZM235.425 370.95H241.925C241.925 369.717 241.659 368.783 241.125 368.15C240.609 367.5 239.875 367.175 238.925 367.175C238.492 367.175 238.075 367.258 237.675 367.425C237.292 367.592 236.942 367.842 236.625 368.175C236.309 368.492 236.042 368.883 235.825 369.35C235.625 369.817 235.492 370.35 235.425 370.95Z" fill="#485F62"/>
</svg>
