<svg width="371" height="393" viewBox="0 0 371 393" fill="none" xmlns="http://www.w3.org/2000/svg">
<path d="M322.586 337.171C322.586 337.346 322.763 337.346 322.763 337.521C330.552 349.247 330.552 366.223 330.375 380.399" stroke="white" stroke-width="0.9124" stroke-miterlimit="10"/>
<path d="M313.38 329.471C299.749 321.946 278.86 318.795 274.612 304.794" stroke="white" stroke-width="0.9124" stroke-miterlimit="10"/>
<path d="M274.789 293.068C277.267 284.668 285.588 280.643 292.314 275.742C303.467 267.692 312.672 258.066 316.036 245.115" stroke="white" stroke-width="0.9124" stroke-miterlimit="10"/>
<path d="M299.75 179.311C300.458 183.686 301.874 188.062 303.998 192.262C311.256 205.738 317.629 217.989 317.452 233.39" stroke="white" stroke-width="0.9124" stroke-miterlimit="10"/>
<path d="M299.396 167.41C300.635 152.534 308.07 137.483 317.629 125.407" stroke="white" stroke-width="0.9124" stroke-miterlimit="10"/>
<path d="M325.772 116.482C328.25 114.207 330.552 112.107 333.03 110.357C343.12 103.006 352.149 91.4557 354.096 79.3799" stroke="white" stroke-width="0.9124" stroke-miterlimit="10"/>
<path d="M319.399 24.7754C321.701 47.7019 337.633 43.8516 348.077 57.1525C350.733 60.4777 352.503 63.978 353.388 67.4782" stroke="white" stroke-width="0.9124" stroke-miterlimit="10"/>
<path d="M319.045 24.7758C322.369 24.7758 325.064 22.1117 325.064 18.8254C325.064 15.5391 322.369 12.875 319.045 12.875C315.721 12.875 313.026 15.5391 313.026 18.8254C313.026 22.1117 315.721 24.7758 319.045 24.7758Z" fill="white" stroke="white" stroke-width="0.9124" stroke-miterlimit="10"/>
<path d="M330.375 392.125C333.699 392.125 336.394 389.461 336.394 386.175C336.394 382.888 333.699 380.224 330.375 380.224C327.051 380.224 324.356 382.888 324.356 386.175C324.356 389.461 327.051 392.125 330.375 392.125Z" stroke="white" stroke-width="0.9124" stroke-miterlimit="10"/>
<path d="M274.019 304.384C277.343 304.384 280.038 301.72 280.038 298.434C280.038 295.147 277.343 292.483 274.019 292.483C270.695 292.483 268 295.147 268 298.434C268 301.72 270.695 304.384 274.019 304.384Z" stroke="white" stroke-width="0.9124" stroke-miterlimit="10"/>
<path d="M316.859 244.705C320.183 244.705 322.877 242.041 322.877 238.755C322.877 235.468 320.183 232.804 316.859 232.804C313.535 232.804 310.84 235.468 310.84 238.755C310.84 242.041 313.535 244.705 316.859 244.705Z" fill="white" stroke="white" stroke-width="0.9124" stroke-miterlimit="10"/>
<path d="M318.275 338.511C321.599 338.511 324.294 335.847 324.294 332.561C324.294 329.274 321.599 326.61 318.275 326.61C314.951 326.61 312.256 329.274 312.256 332.561C312.256 335.847 314.951 338.511 318.275 338.511Z" stroke="white" stroke-width="0.9124" stroke-miterlimit="10"/>
<path d="M299.333 178.901C302.657 178.901 305.352 176.237 305.352 172.95C305.352 169.664 302.657 167 299.333 167C296.009 167 293.314 169.664 293.314 172.95C293.314 176.237 296.009 178.901 299.333 178.901Z" fill="white" stroke="white" stroke-width="0.9124" stroke-miterlimit="10"/>
<path d="M354.096 79.3793C357.42 79.3793 360.115 76.7152 360.115 73.4289C360.115 70.1426 357.42 67.4785 354.096 67.4785C350.772 67.4785 348.077 70.1426 348.077 73.4289C348.077 76.7152 350.772 79.3793 354.096 79.3793Z" fill="white" stroke="white" stroke-width="0.9124" stroke-miterlimit="10"/>
<path d="M321.7 126.808C325.025 126.808 327.719 124.144 327.719 120.858C327.719 117.571 325.025 114.907 321.7 114.907C318.376 114.907 315.682 117.571 315.682 120.858C315.682 124.144 318.376 126.808 321.7 126.808Z" fill="white" stroke="white" stroke-width="0.9124" stroke-miterlimit="10"/>
<line x1="319.64" y1="18.7666" x2="275.773" y2="18.7666" stroke="white"/>
<path d="M90.0991 24V7.6H94.7741C95.6908 7.6 96.5241 7.68333 97.2741 7.85C98.0408 8.01667 98.6908 8.29167 99.2241 8.675C99.7575 9.04167 100.174 9.53333 100.474 10.15C100.774 10.7667 100.924 11.525 100.924 12.425C100.924 13.2917 100.774 14.0417 100.474 14.675C100.191 15.3083 99.7825 15.8333 99.2491 16.25C98.7158 16.6667 98.0741 16.9833 97.3241 17.2C96.5908 17.4 95.7741 17.5 94.8741 17.5H92.1741V24H90.0991ZM92.1741 15.8H94.6241C96.0575 15.8 97.1158 15.5333 97.7991 15C98.4991 14.45 98.8491 13.5917 98.8491 12.425C98.8491 11.2417 98.4825 10.425 97.7491 9.975C97.0325 9.50833 95.9575 9.275 94.5241 9.275H92.1741V15.8ZM105.785 24.3C104.768 24.3 103.918 24 103.235 23.4C102.568 22.8 102.235 21.95 102.235 20.85C102.235 19.5167 102.827 18.5 104.01 17.8C105.193 17.0833 107.085 16.5833 109.685 16.3C109.685 15.9167 109.643 15.5417 109.56 15.175C109.493 14.8083 109.368 14.4833 109.185 14.2C109.002 13.9167 108.743 13.6917 108.41 13.525C108.093 13.3417 107.685 13.25 107.185 13.25C106.485 13.25 105.827 13.3833 105.21 13.65C104.593 13.9167 104.043 14.2167 103.56 14.55L102.76 13.125C103.327 12.7583 104.018 12.4083 104.835 12.075C105.652 11.725 106.552 11.55 107.535 11.55C109.018 11.55 110.093 12.0083 110.76 12.925C111.427 13.825 111.76 15.0333 111.76 16.55V24H110.06L109.885 22.55H109.81C109.227 23.0333 108.602 23.45 107.935 23.8C107.268 24.1333 106.552 24.3 105.785 24.3ZM106.385 22.65C106.968 22.65 107.518 22.5167 108.035 22.25C108.552 21.9667 109.102 21.5583 109.685 21.025V17.65C108.668 17.7833 107.81 17.9417 107.11 18.125C106.427 18.3083 105.868 18.525 105.435 18.775C105.018 19.025 104.71 19.3167 104.51 19.65C104.327 19.9667 104.235 20.3167 104.235 20.7C104.235 21.4 104.443 21.9 104.86 22.2C105.277 22.5 105.785 22.65 106.385 22.65ZM115.583 24V11.85H117.283L117.458 14.05H117.533C117.949 13.2833 118.449 12.675 119.033 12.225C119.633 11.775 120.283 11.55 120.983 11.55C121.466 11.55 121.899 11.6333 122.283 11.8L121.883 13.6C121.683 13.5333 121.499 13.4833 121.333 13.45C121.166 13.4167 120.958 13.4 120.708 13.4C120.191 13.4 119.649 13.6083 119.083 14.025C118.533 14.4417 118.049 15.1667 117.633 16.2V24H115.583ZM128.075 24.3C127.425 24.3 126.875 24.2 126.425 24C125.991 23.8 125.633 23.525 125.35 23.175C125.083 22.825 124.891 22.4 124.775 21.9C124.658 21.4 124.6 20.85 124.6 20.25V13.525H122.8V11.975L124.7 11.85L124.95 8.45H126.675V11.85H129.95V13.525H126.675V20.275C126.675 21.025 126.808 21.6083 127.075 22.025C127.358 22.425 127.85 22.625 128.55 22.625C128.766 22.625 129 22.5917 129.25 22.525C129.5 22.4583 129.725 22.3833 129.925 22.3L130.325 23.85C129.991 23.9667 129.625 24.0667 129.225 24.15C128.841 24.25 128.458 24.3 128.075 24.3ZM132.697 24V11.85H134.747V24H132.697ZM133.747 9.35C133.347 9.35 133.005 9.225 132.722 8.975C132.455 8.725 132.322 8.40833 132.322 8.025C132.322 7.625 132.455 7.30833 132.722 7.075C133.005 6.825 133.347 6.7 133.747 6.7C134.147 6.7 134.48 6.825 134.747 7.075C135.03 7.30833 135.172 7.625 135.172 8.025C135.172 8.40833 135.03 8.725 134.747 8.975C134.48 9.225 134.147 9.35 133.747 9.35ZM138.849 24V11.85H140.549L140.724 14.05H140.799C141.216 13.2833 141.716 12.675 142.299 12.225C142.899 11.775 143.549 11.55 144.249 11.55C144.733 11.55 145.166 11.6333 145.549 11.8L145.149 13.6C144.949 13.5333 144.766 13.4833 144.599 13.45C144.433 13.4167 144.224 13.4 143.974 13.4C143.458 13.4 142.916 13.6083 142.349 14.025C141.799 14.4417 141.316 15.1667 140.899 16.2V24H138.849ZM155.321 24.3C154.305 24.3 153.455 24 152.771 23.4C152.105 22.8 151.771 21.95 151.771 20.85C151.771 19.5167 152.363 18.5 153.546 17.8C154.73 17.0833 156.621 16.5833 159.221 16.3C159.221 15.9167 159.18 15.5417 159.096 15.175C159.03 14.8083 158.905 14.4833 158.721 14.2C158.538 13.9167 158.28 13.6917 157.946 13.525C157.63 13.3417 157.221 13.25 156.721 13.25C156.021 13.25 155.363 13.3833 154.746 13.65C154.13 13.9167 153.58 14.2167 153.096 14.55L152.296 13.125C152.863 12.7583 153.555 12.4083 154.371 12.075C155.188 11.725 156.088 11.55 157.071 11.55C158.555 11.55 159.63 12.0083 160.296 12.925C160.963 13.825 161.296 15.0333 161.296 16.55V24H159.596L159.421 22.55H159.346C158.763 23.0333 158.138 23.45 157.471 23.8C156.805 24.1333 156.088 24.3 155.321 24.3ZM155.921 22.65C156.505 22.65 157.055 22.5167 157.571 22.25C158.088 21.9667 158.638 21.5583 159.221 21.025V17.65C158.205 17.7833 157.346 17.9417 156.646 18.125C155.963 18.3083 155.405 18.525 154.971 18.775C154.555 19.025 154.246 19.3167 154.046 19.65C153.863 19.9667 153.771 20.3167 153.771 20.7C153.771 21.4 153.98 21.9 154.396 22.2C154.813 22.5 155.321 22.65 155.921 22.65ZM157.371 9.675L153.446 5.85L154.896 4.475L158.421 8.65L157.371 9.675ZM172.299 24.3C171.515 24.3 170.957 24.0667 170.624 23.6C170.29 23.1333 170.124 22.45 170.124 21.55V6.2H172.174V21.7C172.174 22.0333 172.232 22.2667 172.349 22.4C172.465 22.5333 172.599 22.6 172.749 22.6C172.815 22.6 172.874 22.6 172.924 22.6C172.99 22.6 173.082 22.5833 173.199 22.55L173.474 24.1C173.34 24.1667 173.182 24.2167 172.999 24.25C172.815 24.2833 172.582 24.3 172.299 24.3ZM176.596 13.225L176.021 12.275C176.654 11.8583 177.121 11.4167 177.421 10.95C177.737 10.4667 177.896 9.86667 177.896 9.15C177.846 9.16667 177.779 9.175 177.696 9.175C177.346 9.175 177.037 9.06667 176.771 8.85C176.504 8.63333 176.371 8.325 176.371 7.925C176.371 7.49167 176.496 7.15 176.746 6.9C176.996 6.65 177.312 6.525 177.696 6.525C178.179 6.525 178.562 6.725 178.846 7.125C179.129 7.50833 179.271 8.06667 179.271 8.8C179.271 9.8 179.037 10.6667 178.571 11.4C178.121 12.1167 177.462 12.725 176.596 13.225ZM183.886 24.3C182.869 24.3 182.019 24 181.336 23.4C180.669 22.8 180.336 21.95 180.336 20.85C180.336 19.5167 180.927 18.5 182.111 17.8C183.294 17.0833 185.186 16.5833 187.786 16.3C187.786 15.9167 187.744 15.5417 187.661 15.175C187.594 14.8083 187.469 14.4833 187.286 14.2C187.102 13.9167 186.844 13.6917 186.511 13.525C186.194 13.3417 185.786 13.25 185.286 13.25C184.586 13.25 183.927 13.3833 183.311 13.65C182.694 13.9167 182.144 14.2167 181.661 14.55L180.861 13.125C181.427 12.7583 182.119 12.4083 182.936 12.075C183.752 11.725 184.652 11.55 185.636 11.55C187.119 11.55 188.194 12.0083 188.861 12.925C189.527 13.825 189.861 15.0333 189.861 16.55V24H188.161L187.986 22.55H187.911C187.327 23.0333 186.702 23.45 186.036 23.8C185.369 24.1333 184.652 24.3 183.886 24.3ZM184.486 22.65C185.069 22.65 185.619 22.5167 186.136 22.25C186.652 21.9667 187.202 21.5583 187.786 21.025V17.65C186.769 17.7833 185.911 17.9417 185.211 18.125C184.527 18.3083 183.969 18.525 183.536 18.775C183.119 19.025 182.811 19.3167 182.611 19.65C182.427 19.9667 182.336 20.3167 182.336 20.7C182.336 21.4 182.544 21.9 182.961 22.2C183.377 22.5 183.886 22.65 184.486 22.65ZM196.308 24L191.933 11.85H194.058L196.358 18.75C196.542 19.35 196.725 19.95 196.908 20.55C197.108 21.15 197.3 21.7417 197.483 22.325H197.583C197.767 21.7417 197.95 21.15 198.133 20.55C198.317 19.95 198.5 19.35 198.683 18.75L200.983 11.85H203.008L198.708 24H196.308ZM210.181 24.3C209.364 24.3 208.597 24.1583 207.881 23.875C207.181 23.575 206.564 23.1583 206.031 22.625C205.514 22.075 205.106 21.4083 204.806 20.625C204.506 19.8417 204.356 18.95 204.356 17.95C204.356 16.95 204.506 16.0583 204.806 15.275C205.122 14.475 205.531 13.8 206.031 13.25C206.547 12.7 207.131 12.2833 207.781 12C208.431 11.7 209.106 11.55 209.806 11.55C210.572 11.55 211.256 11.6833 211.856 11.95C212.472 12.2167 212.981 12.6 213.381 13.1C213.797 13.6 214.114 14.2 214.331 14.9C214.547 15.6 214.656 16.3833 214.656 17.25C214.656 17.4667 214.647 17.6833 214.631 17.9C214.631 18.1 214.614 18.275 214.581 18.425H206.381C206.464 19.725 206.864 20.7583 207.581 21.525C208.314 22.275 209.264 22.65 210.431 22.65C211.014 22.65 211.547 22.5667 212.031 22.4C212.531 22.2167 213.006 21.9833 213.456 21.7L214.181 23.05C213.647 23.3833 213.056 23.675 212.406 23.925C211.756 24.175 211.014 24.3 210.181 24.3ZM206.356 16.95H212.856C212.856 15.7167 212.589 14.7833 212.056 14.15C211.539 13.5 210.806 13.175 209.856 13.175C209.422 13.175 209.006 13.2583 208.606 13.425C208.222 13.5917 207.872 13.8417 207.556 14.175C207.239 14.4917 206.972 14.8833 206.756 15.35C206.556 15.8167 206.422 16.35 206.356 16.95ZM217.658 24V11.85H219.358L219.533 13.6H219.608C220.191 13.0167 220.8 12.5333 221.433 12.15C222.083 11.75 222.833 11.55 223.683 11.55C224.966 11.55 225.9 11.95 226.483 12.75C227.083 13.55 227.383 14.7333 227.383 16.3V24H225.333V16.575C225.333 15.425 225.15 14.6 224.783 14.1C224.416 13.5833 223.833 13.325 223.033 13.325C222.4 13.325 221.841 13.4833 221.358 13.8C220.875 14.1167 220.325 14.5833 219.708 15.2V24H217.658ZM235.155 24.3C234.505 24.3 233.955 24.2 233.505 24C233.071 23.8 232.713 23.525 232.43 23.175C232.163 22.825 231.971 22.4 231.855 21.9C231.738 21.4 231.68 20.85 231.68 20.25V13.525H229.88V11.975L231.78 11.85L232.03 8.45H233.755V11.85H237.03V13.525H233.755V20.275C233.755 21.025 233.888 21.6083 234.155 22.025C234.438 22.425 234.93 22.625 235.63 22.625C235.846 22.625 236.08 22.5917 236.33 22.525C236.58 22.4583 236.805 22.3833 237.005 22.3L237.405 23.85C237.071 23.9667 236.705 24.0667 236.305 24.15C235.921 24.25 235.538 24.3 235.155 24.3ZM243.327 24.3C242.027 24.3 241.077 23.9 240.477 23.1C239.894 22.3 239.602 21.1167 239.602 19.55V11.85H241.677V19.275C241.677 20.425 241.852 21.2583 242.202 21.775C242.569 22.275 243.152 22.525 243.952 22.525C244.585 22.525 245.144 22.3667 245.627 22.05C246.11 21.7167 246.644 21.1917 247.227 20.475V11.85H249.277V24H247.577L247.402 22.1H247.327C246.76 22.7667 246.16 23.3 245.527 23.7C244.91 24.1 244.177 24.3 243.327 24.3ZM253.376 24V11.85H255.076L255.251 14.05H255.326C255.742 13.2833 256.242 12.675 256.826 12.225C257.426 11.775 258.076 11.55 258.776 11.55C259.259 11.55 259.692 11.6333 260.076 11.8L259.676 13.6C259.476 13.5333 259.292 13.4833 259.126 13.45C258.959 13.4167 258.751 13.4 258.501 13.4C257.984 13.4 257.442 13.6083 256.876 14.025C256.326 14.4417 255.842 15.1667 255.426 16.2V24H253.376ZM266.724 24.3C265.907 24.3 265.14 24.1583 264.424 23.875C263.724 23.575 263.107 23.1583 262.574 22.625C262.057 22.075 261.649 21.4083 261.349 20.625C261.049 19.8417 260.899 18.95 260.899 17.95C260.899 16.95 261.049 16.0583 261.349 15.275C261.665 14.475 262.074 13.8 262.574 13.25C263.09 12.7 263.674 12.2833 264.324 12C264.974 11.7 265.649 11.55 266.349 11.55C267.115 11.55 267.799 11.6833 268.399 11.95C269.015 12.2167 269.524 12.6 269.924 13.1C270.34 13.6 270.657 14.2 270.874 14.9C271.09 15.6 271.199 16.3833 271.199 17.25C271.199 17.4667 271.19 17.6833 271.174 17.9C271.174 18.1 271.157 18.275 271.124 18.425H262.924C263.007 19.725 263.407 20.7583 264.124 21.525C264.857 22.275 265.807 22.65 266.974 22.65C267.557 22.65 268.09 22.5667 268.574 22.4C269.074 22.2167 269.549 21.9833 269.999 21.7L270.724 23.05C270.19 23.3833 269.599 23.675 268.949 23.925C268.299 24.175 267.557 24.3 266.724 24.3ZM262.899 16.95H269.399C269.399 15.7167 269.132 14.7833 268.599 14.15C268.082 13.5 267.349 13.175 266.399 13.175C265.965 13.175 265.549 13.2583 265.149 13.425C264.765 13.5917 264.415 13.8417 264.099 14.175C263.782 14.4917 263.515 14.8833 263.299 15.35C263.099 15.8167 262.965 16.35 262.899 16.95Z" fill="white"/>
<path d="M354 72.7666H310.133" stroke="white"/>
<path d="M142.152 68.825L141.377 71.325H146.302L145.527 68.825C145.227 67.9083 144.943 67 144.677 66.1C144.41 65.1833 144.143 64.25 143.877 63.3H143.777C143.527 64.25 143.268 65.1833 143.002 66.1C142.735 67 142.452 67.9083 142.152 68.825ZM137.152 78L142.702 61.6H145.052L150.602 78H148.377L146.827 73H140.852L139.277 78H137.152ZM157.65 78.3C156.834 78.3 156.067 78.1583 155.35 77.875C154.65 77.575 154.034 77.1583 153.5 76.625C152.984 76.075 152.575 75.4083 152.275 74.625C151.975 73.8417 151.825 72.95 151.825 71.95C151.825 70.95 151.975 70.0583 152.275 69.275C152.592 68.475 153 67.8 153.5 67.25C154.017 66.7 154.6 66.2833 155.25 66C155.9 65.7 156.575 65.55 157.275 65.55C158.042 65.55 158.725 65.6833 159.325 65.95C159.942 66.2167 160.45 66.6 160.85 67.1C161.267 67.6 161.584 68.2 161.8 68.9C162.017 69.6 162.125 70.3833 162.125 71.25C162.125 71.4667 162.117 71.6833 162.1 71.9C162.1 72.1 162.084 72.275 162.05 72.425H153.85C153.934 73.725 154.334 74.7583 155.05 75.525C155.784 76.275 156.734 76.65 157.9 76.65C158.484 76.65 159.017 76.5667 159.5 76.4C160 76.2167 160.475 75.9833 160.925 75.7L161.65 77.05C161.117 77.3833 160.525 77.675 159.875 77.925C159.225 78.175 158.484 78.3 157.65 78.3ZM153.825 70.95H160.325C160.325 69.7167 160.059 68.7833 159.525 68.15C159.009 67.5 158.275 67.175 157.325 67.175C156.892 67.175 156.475 67.2583 156.075 67.425C155.692 67.5917 155.342 67.8417 155.025 68.175C154.709 68.4917 154.442 68.8833 154.225 69.35C154.025 69.8167 153.892 70.35 153.825 70.95ZM156.95 63.675L155.9 62.65L159.425 58.475L160.875 59.85L156.95 63.675ZM165.128 78V65.85H166.828L167.003 68.05H167.078C167.494 67.2833 167.994 66.675 168.578 66.225C169.178 65.775 169.828 65.55 170.528 65.55C171.011 65.55 171.444 65.6333 171.828 65.8L171.428 67.6C171.228 67.5333 171.044 67.4833 170.878 67.45C170.711 67.4167 170.503 67.4 170.253 67.4C169.736 67.4 169.194 67.6083 168.628 68.025C168.078 68.4417 167.594 69.1667 167.178 70.2V78H165.128ZM178.275 78.3C177.525 78.3 176.809 78.1583 176.125 77.875C175.459 77.5917 174.867 77.1833 174.35 76.65C173.834 76.1 173.417 75.4333 173.1 74.65C172.8 73.85 172.65 72.95 172.65 71.95C172.65 70.9333 172.8 70.0333 173.1 69.25C173.417 68.45 173.834 67.775 174.35 67.225C174.867 66.675 175.459 66.2583 176.125 65.975C176.809 65.6917 177.525 65.55 178.275 65.55C179.025 65.55 179.734 65.6917 180.4 65.975C181.084 66.2583 181.684 66.675 182.2 67.225C182.717 67.775 183.125 68.45 183.425 69.25C183.742 70.0333 183.9 70.9333 183.9 71.95C183.9 72.95 183.742 73.85 183.425 74.65C183.125 75.4333 182.717 76.1 182.2 76.65C181.684 77.1833 181.084 77.5917 180.4 77.875C179.734 78.1583 179.025 78.3 178.275 78.3ZM178.275 76.6C178.792 76.6 179.267 76.4917 179.7 76.275C180.134 76.0417 180.5 75.725 180.8 75.325C181.117 74.9083 181.359 74.4167 181.525 73.85C181.692 73.2833 181.775 72.65 181.775 71.95C181.775 71.25 181.692 70.6167 181.525 70.05C181.359 69.4667 181.117 68.9667 180.8 68.55C180.5 68.1333 180.134 67.8167 179.7 67.6C179.267 67.3667 178.792 67.25 178.275 67.25C177.759 67.25 177.284 67.3667 176.85 67.6C176.417 67.8167 176.042 68.1333 175.725 68.55C175.425 68.9667 175.192 69.4667 175.025 70.05C174.859 70.6167 174.775 71.25 174.775 71.95C174.775 72.65 174.859 73.2833 175.025 73.85C175.192 74.4167 175.425 74.9083 175.725 75.325C176.042 75.725 176.417 76.0417 176.85 76.275C177.284 76.4917 177.759 76.6 178.275 76.6ZM187.1 83.125V65.85H188.8L188.975 67.25H189.05C189.6 66.7833 190.2 66.3833 190.85 66.05C191.517 65.7167 192.209 65.55 192.925 65.55C193.709 65.55 194.4 65.7 195 66C195.6 66.2833 196.1 66.7 196.5 67.25C196.9 67.7833 197.2 68.4333 197.4 69.2C197.617 69.95 197.725 70.8 197.725 71.75C197.725 72.7833 197.584 73.7083 197.3 74.525C197.017 75.325 196.634 76.0083 196.15 76.575C195.667 77.1417 195.109 77.575 194.475 77.875C193.842 78.1583 193.175 78.3 192.475 78.3C191.909 78.3 191.342 78.175 190.775 77.925C190.225 77.675 189.667 77.3333 189.1 76.9L189.15 79.025V83.125H187.1ZM192.125 76.575C192.625 76.575 193.084 76.4667 193.5 76.25C193.934 76.0167 194.3 75.7 194.6 75.3C194.917 74.8833 195.159 74.375 195.325 73.775C195.509 73.175 195.6 72.5 195.6 71.75C195.6 71.0833 195.542 70.475 195.425 69.925C195.309 69.375 195.117 68.9083 194.85 68.525C194.6 68.125 194.267 67.8167 193.85 67.6C193.45 67.3833 192.967 67.275 192.4 67.275C191.884 67.275 191.359 67.4167 190.825 67.7C190.309 67.9833 189.75 68.3917 189.15 68.925V75.3C189.7 75.7667 190.234 76.1 190.75 76.3C191.267 76.4833 191.725 76.575 192.125 76.575ZM205.692 78.3C204.942 78.3 204.226 78.1583 203.542 77.875C202.876 77.5917 202.284 77.1833 201.767 76.65C201.251 76.1 200.834 75.4333 200.517 74.65C200.217 73.85 200.067 72.95 200.067 71.95C200.067 70.9333 200.217 70.0333 200.517 69.25C200.834 68.45 201.251 67.775 201.767 67.225C202.284 66.675 202.876 66.2583 203.542 65.975C204.226 65.6917 204.942 65.55 205.692 65.55C206.442 65.55 207.151 65.6917 207.817 65.975C208.501 66.2583 209.101 66.675 209.617 67.225C210.134 67.775 210.542 68.45 210.842 69.25C211.159 70.0333 211.317 70.9333 211.317 71.95C211.317 72.95 211.159 73.85 210.842 74.65C210.542 75.4333 210.134 76.1 209.617 76.65C209.101 77.1833 208.501 77.5917 207.817 77.875C207.151 78.1583 206.442 78.3 205.692 78.3ZM205.692 76.6C206.209 76.6 206.684 76.4917 207.117 76.275C207.551 76.0417 207.917 75.725 208.217 75.325C208.534 74.9083 208.776 74.4167 208.942 73.85C209.109 73.2833 209.192 72.65 209.192 71.95C209.192 71.25 209.109 70.6167 208.942 70.05C208.776 69.4667 208.534 68.9667 208.217 68.55C207.917 68.1333 207.551 67.8167 207.117 67.6C206.684 67.3667 206.209 67.25 205.692 67.25C205.176 67.25 204.701 67.3667 204.267 67.6C203.834 67.8167 203.459 68.1333 203.142 68.55C202.842 68.9667 202.609 69.4667 202.442 70.05C202.276 70.6167 202.192 71.25 202.192 71.95C202.192 72.65 202.276 73.2833 202.442 73.85C202.609 74.4167 202.842 74.9083 203.142 75.325C203.459 75.725 203.834 76.0417 204.267 76.275C204.701 76.4917 205.176 76.6 205.692 76.6ZM214.517 78V65.85H216.217L216.392 68.05H216.467C216.884 67.2833 217.384 66.675 217.967 66.225C218.567 65.775 219.217 65.55 219.917 65.55C220.401 65.55 220.834 65.6333 221.217 65.8L220.817 67.6C220.617 67.5333 220.434 67.4833 220.267 67.45C220.101 67.4167 219.892 67.4 219.642 67.4C219.126 67.4 218.584 67.6083 218.017 68.025C217.467 68.4417 216.984 69.1667 216.567 70.2V78H214.517ZM227.009 78.3C226.359 78.3 225.809 78.2 225.359 78C224.926 77.8 224.568 77.525 224.284 77.175C224.018 76.825 223.826 76.4 223.709 75.9C223.593 75.4 223.534 74.85 223.534 74.25V67.525H221.734V65.975L223.634 65.85L223.884 62.45H225.609V65.85H228.884V67.525H225.609V74.275C225.609 75.025 225.743 75.6083 226.009 76.025C226.293 76.425 226.784 76.625 227.484 76.625C227.701 76.625 227.934 76.5917 228.184 76.525C228.434 76.4583 228.659 76.3833 228.859 76.3L229.259 77.85C228.926 77.9667 228.559 78.0667 228.159 78.15C227.776 78.25 227.393 78.3 227.009 78.3ZM240.786 78.3C239.253 78.3 238.028 77.75 237.111 76.65C236.211 75.55 235.761 73.9833 235.761 71.95C235.761 70.9667 235.903 70.0833 236.186 69.3C236.486 68.5 236.878 67.825 237.361 67.275C237.845 66.725 238.403 66.3 239.036 66C239.67 65.7 240.336 65.55 241.036 65.55C241.736 65.55 242.345 65.675 242.861 65.925C243.378 66.175 243.903 66.5167 244.436 66.95L244.336 64.875V60.2H246.411V78H244.711L244.536 76.575H244.461C243.978 77.0417 243.42 77.45 242.786 77.8C242.17 78.1333 241.503 78.3 240.786 78.3ZM241.236 76.575C241.803 76.575 242.336 76.4417 242.836 76.175C243.336 75.8917 243.836 75.4667 244.336 74.9V68.55C243.82 68.0833 243.32 67.7583 242.836 67.575C242.37 67.375 241.886 67.275 241.386 67.275C240.903 67.275 240.445 67.3917 240.011 67.625C239.595 67.8417 239.228 68.1583 238.911 68.575C238.595 68.975 238.345 69.4583 238.161 70.025C237.978 70.5917 237.886 71.225 237.886 71.925C237.886 73.3917 238.178 74.5333 238.761 75.35C239.345 76.1667 240.17 76.575 241.236 76.575ZM254.054 78.3C252.754 78.3 251.804 77.9 251.204 77.1C250.62 76.3 250.329 75.1167 250.329 73.55V65.85H252.404V73.275C252.404 74.425 252.579 75.2583 252.929 75.775C253.295 76.275 253.879 76.525 254.679 76.525C255.312 76.525 255.87 76.3667 256.354 76.05C256.837 75.7167 257.37 75.1917 257.954 74.475V65.85H260.004V78H258.304L258.129 76.1H258.054C257.487 76.7667 256.887 77.3 256.254 77.7C255.637 78.1 254.904 78.3 254.054 78.3ZM269.307 78V61.6H271.382V76.225H278.557V78H269.307ZM285.897 78.3C285.081 78.3 284.314 78.1583 283.597 77.875C282.897 77.575 282.281 77.1583 281.747 76.625C281.231 76.075 280.822 75.4083 280.522 74.625C280.222 73.8417 280.072 72.95 280.072 71.95C280.072 70.95 280.222 70.0583 280.522 69.275C280.839 68.475 281.247 67.8 281.747 67.25C282.264 66.7 282.847 66.2833 283.497 66C284.147 65.7 284.822 65.55 285.522 65.55C286.289 65.55 286.972 65.6833 287.572 65.95C288.189 66.2167 288.697 66.6 289.097 67.1C289.514 67.6 289.831 68.2 290.047 68.9C290.264 69.6 290.372 70.3833 290.372 71.25C290.372 71.4667 290.364 71.6833 290.347 71.9C290.347 72.1 290.331 72.275 290.297 72.425H282.097C282.181 73.725 282.581 74.7583 283.297 75.525C284.031 76.275 284.981 76.65 286.147 76.65C286.731 76.65 287.264 76.5667 287.747 76.4C288.247 76.2167 288.722 75.9833 289.172 75.7L289.897 77.05C289.364 77.3833 288.772 77.675 288.122 77.925C287.472 78.175 286.731 78.3 285.897 78.3ZM282.072 70.95H288.572C288.572 69.7167 288.306 68.7833 287.772 68.15C287.256 67.5 286.522 67.175 285.572 67.175C285.139 67.175 284.722 67.2583 284.322 67.425C283.939 67.5917 283.589 67.8417 283.272 68.175C282.956 68.4917 282.689 68.8833 282.472 69.35C282.272 69.8167 282.139 70.35 282.072 70.95ZM293.375 78V60.2H295.425V65.05L295.35 67.55C295.933 67 296.541 66.5333 297.175 66.15C297.808 65.75 298.55 65.55 299.4 65.55C300.683 65.55 301.616 65.95 302.2 66.75C302.8 67.55 303.1 68.7333 303.1 70.3V78H301.05V70.575C301.05 69.425 300.866 68.6 300.5 68.1C300.133 67.5833 299.55 67.325 298.75 67.325C298.116 67.325 297.558 67.4833 297.075 67.8C296.591 68.1167 296.041 68.5833 295.425 69.2V78H293.375Z" fill="white"/>
<line x1="321.867" y1="121.5" x2="278" y2="121.5" stroke="white"/>
<line x1="299.867" y1="173.5" x2="256" y2="173.5" stroke="white"/>
<line x1="315.867" y1="239.5" x2="272" y2="239.5" stroke="white"/>
<path d="M53.8374 125V108.6H57.9374C60.4707 108.6 62.3957 109.3 63.7124 110.7C65.0291 112.1 65.6874 114.108 65.6874 116.725C65.6874 118.025 65.5207 119.192 65.1874 120.225C64.8541 121.242 64.3624 122.108 63.7124 122.825C63.0624 123.525 62.2624 124.067 61.3124 124.45C60.3624 124.817 59.2707 125 58.0374 125H53.8374ZM55.9124 123.3H57.7874C59.7041 123.3 61.1374 122.725 62.0874 121.575C63.0541 120.425 63.5374 118.808 63.5374 116.725C63.5374 114.642 63.0541 113.05 62.0874 111.95C61.1374 110.85 59.7041 110.3 57.7874 110.3H55.9124V123.3ZM73.9433 125.3C73.1266 125.3 72.3599 125.158 71.6433 124.875C70.9433 124.575 70.3266 124.158 69.7933 123.625C69.2766 123.075 68.8683 122.408 68.5683 121.625C68.2683 120.842 68.1183 119.95 68.1183 118.95C68.1183 117.95 68.2683 117.058 68.5683 116.275C68.8849 115.475 69.2933 114.8 69.7933 114.25C70.3099 113.7 70.8933 113.283 71.5433 113C72.1933 112.7 72.8683 112.55 73.5683 112.55C74.3349 112.55 75.0183 112.683 75.6183 112.95C76.2349 113.217 76.7433 113.6 77.1433 114.1C77.5599 114.6 77.8766 115.2 78.0933 115.9C78.3099 116.6 78.4183 117.383 78.4183 118.25C78.4183 118.467 78.4099 118.683 78.3933 118.9C78.3933 119.1 78.3766 119.275 78.3433 119.425H70.1433C70.2266 120.725 70.6266 121.758 71.3433 122.525C72.0766 123.275 73.0266 123.65 74.1933 123.65C74.7766 123.65 75.3099 123.567 75.7933 123.4C76.2933 123.217 76.7683 122.983 77.2183 122.7L77.9433 124.05C77.4099 124.383 76.8183 124.675 76.1683 124.925C75.5183 125.175 74.7766 125.3 73.9433 125.3ZM70.1183 117.95H76.6183C76.6183 116.717 76.3516 115.783 75.8183 115.15C75.3016 114.5 74.5683 114.175 73.6183 114.175C73.1849 114.175 72.7683 114.258 72.3683 114.425C71.9849 114.592 71.6349 114.842 71.3183 115.175C71.0016 115.492 70.7349 115.883 70.5183 116.35C70.3183 116.817 70.1849 117.35 70.1183 117.95ZM73.2433 110.675L72.1933 109.65L75.7183 105.475L77.1683 106.85L73.2433 110.675ZM86.7956 125.3C86.2289 125.3 85.6373 125.167 85.0206 124.9C84.4206 124.617 83.8539 124.233 83.3206 123.75H83.2456L83.0706 125H81.4206V107.2H83.4706V112.05L83.4206 114.25C83.9706 113.767 84.5706 113.367 85.2206 113.05C85.8706 112.717 86.5373 112.55 87.2206 112.55C88.0039 112.55 88.6956 112.7 89.2956 113C89.8956 113.283 90.3956 113.7 90.7956 114.25C91.2123 114.783 91.5206 115.433 91.7206 116.2C91.9373 116.95 92.0456 117.792 92.0456 118.725C92.0456 119.758 91.9039 120.683 91.6206 121.5C91.3373 122.317 90.9539 123.008 90.4706 123.575C89.9873 124.142 89.4289 124.575 88.7956 124.875C88.1623 125.158 87.4956 125.3 86.7956 125.3ZM86.4456 123.575C86.9456 123.575 87.4039 123.467 87.8206 123.25C88.2539 123.017 88.6206 122.7 88.9206 122.3C89.2373 121.883 89.4789 121.375 89.6456 120.775C89.8289 120.175 89.9206 119.5 89.9206 118.75C89.9206 118.083 89.8623 117.475 89.7456 116.925C89.6289 116.375 89.4373 115.908 89.1706 115.525C88.9206 115.125 88.5873 114.817 88.1706 114.6C87.7706 114.383 87.2873 114.275 86.7206 114.275C85.7373 114.275 84.6539 114.825 83.4706 115.925V122.3C84.0039 122.767 84.5289 123.1 85.0456 123.3C85.5789 123.483 86.0456 123.575 86.4456 123.575ZM98.789 125.3C97.489 125.3 96.539 124.9 95.939 124.1C95.3556 123.3 95.064 122.117 95.064 120.55V112.85H97.139V120.275C97.139 121.425 97.314 122.258 97.664 122.775C98.0306 123.275 98.614 123.525 99.414 123.525C100.047 123.525 100.606 123.367 101.089 123.05C101.572 122.717 102.106 122.192 102.689 121.475V112.85H104.739V125H103.039L102.864 123.1H102.789C102.222 123.767 101.622 124.3 100.989 124.7C100.372 125.1 99.639 125.3 98.789 125.3ZM112.663 125.3C112.013 125.3 111.463 125.2 111.013 125C110.579 124.8 110.221 124.525 109.938 124.175C109.671 123.825 109.479 123.4 109.363 122.9C109.246 122.4 109.188 121.85 109.188 121.25V114.525H107.388V112.975L109.288 112.85L109.538 109.45H111.263V112.85H114.538V114.525H111.263V121.275C111.263 122.025 111.396 122.608 111.663 123.025C111.946 123.425 112.438 123.625 113.138 123.625C113.354 123.625 113.588 123.592 113.838 123.525C114.088 123.458 114.313 123.383 114.513 123.3L114.913 124.85C114.579 124.967 114.213 125.067 113.813 125.15C113.429 125.25 113.046 125.3 112.663 125.3ZM126.44 125.3C124.906 125.3 123.681 124.75 122.765 123.65C121.865 122.55 121.415 120.983 121.415 118.95C121.415 117.967 121.556 117.083 121.84 116.3C122.14 115.5 122.531 114.825 123.015 114.275C123.498 113.725 124.056 113.3 124.69 113C125.323 112.7 125.99 112.55 126.69 112.55C127.39 112.55 127.998 112.675 128.515 112.925C129.031 113.175 129.556 113.517 130.09 113.95L129.99 111.875V107.2H132.065V125H130.365L130.19 123.575H130.115C129.631 124.042 129.073 124.45 128.44 124.8C127.823 125.133 127.156 125.3 126.44 125.3ZM126.89 123.575C127.456 123.575 127.99 123.442 128.49 123.175C128.99 122.892 129.49 122.467 129.99 121.9V115.55C129.473 115.083 128.973 114.758 128.49 114.575C128.023 114.375 127.54 114.275 127.04 114.275C126.556 114.275 126.098 114.392 125.665 114.625C125.248 114.842 124.881 115.158 124.565 115.575C124.248 115.975 123.998 116.458 123.815 117.025C123.631 117.592 123.54 118.225 123.54 118.925C123.54 120.392 123.831 121.533 124.415 122.35C124.998 123.167 125.823 123.575 126.89 123.575ZM141.082 125.3C140.265 125.3 139.499 125.158 138.782 124.875C138.082 124.575 137.465 124.158 136.932 123.625C136.415 123.075 136.007 122.408 135.707 121.625C135.407 120.842 135.257 119.95 135.257 118.95C135.257 117.95 135.407 117.058 135.707 116.275C136.024 115.475 136.432 114.8 136.932 114.25C137.449 113.7 138.032 113.283 138.682 113C139.332 112.7 140.007 112.55 140.707 112.55C141.474 112.55 142.157 112.683 142.757 112.95C143.374 113.217 143.882 113.6 144.282 114.1C144.699 114.6 145.015 115.2 145.232 115.9C145.449 116.6 145.557 117.383 145.557 118.25C145.557 118.467 145.549 118.683 145.532 118.9C145.532 119.1 145.515 119.275 145.482 119.425H137.282C137.365 120.725 137.765 121.758 138.482 122.525C139.215 123.275 140.165 123.65 141.332 123.65C141.915 123.65 142.449 123.567 142.932 123.4C143.432 123.217 143.907 122.983 144.357 122.7L145.082 124.05C144.549 124.383 143.957 124.675 143.307 124.925C142.657 125.175 141.915 125.3 141.082 125.3ZM137.257 117.95H143.757C143.757 116.717 143.49 115.783 142.957 115.15C142.44 114.5 141.707 114.175 140.757 114.175C140.324 114.175 139.907 114.258 139.507 114.425C139.124 114.592 138.774 114.842 138.457 115.175C138.14 115.492 137.874 115.883 137.657 116.35C137.457 116.817 137.324 117.35 137.257 117.95ZM155.739 125.3C154.956 125.3 154.397 125.067 154.064 124.6C153.731 124.133 153.564 123.45 153.564 122.55V107.2H155.614V122.7C155.614 123.033 155.672 123.267 155.789 123.4C155.906 123.533 156.039 123.6 156.189 123.6C156.256 123.6 156.314 123.6 156.364 123.6C156.431 123.6 156.522 123.583 156.639 123.55L156.914 125.1C156.781 125.167 156.622 125.217 156.439 125.25C156.256 125.283 156.022 125.3 155.739 125.3ZM162.736 125.3C161.72 125.3 160.87 125 160.186 124.4C159.52 123.8 159.186 122.95 159.186 121.85C159.186 120.517 159.778 119.5 160.961 118.8C162.145 118.083 164.036 117.583 166.636 117.3C166.636 116.917 166.595 116.542 166.511 116.175C166.445 115.808 166.32 115.483 166.136 115.2C165.953 114.917 165.695 114.692 165.361 114.525C165.045 114.342 164.636 114.25 164.136 114.25C163.436 114.25 162.778 114.383 162.161 114.65C161.545 114.917 160.995 115.217 160.511 115.55L159.711 114.125C160.278 113.758 160.97 113.408 161.786 113.075C162.603 112.725 163.503 112.55 164.486 112.55C165.97 112.55 167.045 113.008 167.711 113.925C168.378 114.825 168.711 116.033 168.711 117.55V125H167.011L166.836 123.55H166.761C166.178 124.033 165.553 124.45 164.886 124.8C164.22 125.133 163.503 125.3 162.736 125.3ZM163.336 123.65C163.92 123.65 164.47 123.517 164.986 123.25C165.503 122.967 166.053 122.558 166.636 122.025V118.65C165.62 118.783 164.761 118.942 164.061 119.125C163.378 119.308 162.82 119.525 162.386 119.775C161.97 120.025 161.661 120.317 161.461 120.65C161.278 120.967 161.186 121.317 161.186 121.7C161.186 122.4 161.395 122.9 161.811 123.2C162.228 123.5 162.736 123.65 163.336 123.65ZM181.364 125.3C180.714 125.3 180.164 125.2 179.714 125C179.28 124.8 178.922 124.525 178.639 124.175C178.372 123.825 178.18 123.4 178.064 122.9C177.947 122.4 177.889 121.85 177.889 121.25V114.525H176.089V112.975L177.989 112.85L178.239 109.45H179.964V112.85H183.239V114.525H179.964V121.275C179.964 122.025 180.097 122.608 180.364 123.025C180.647 123.425 181.139 123.625 181.839 123.625C182.055 123.625 182.289 123.592 182.539 123.525C182.789 123.458 183.014 123.383 183.214 123.3L183.614 124.85C183.28 124.967 182.914 125.067 182.514 125.15C182.13 125.25 181.747 125.3 181.364 125.3ZM185.986 125V112.85H187.686L187.861 115.05H187.936C188.353 114.283 188.853 113.675 189.436 113.225C190.036 112.775 190.686 112.55 191.386 112.55C191.869 112.55 192.303 112.633 192.686 112.8L192.286 114.6C192.086 114.533 191.903 114.483 191.736 114.45C191.569 114.417 191.361 114.4 191.111 114.4C190.594 114.4 190.053 114.608 189.486 115.025C188.936 115.442 188.453 116.167 188.036 117.2V125H185.986ZM196.843 125.3C195.826 125.3 194.976 125 194.293 124.4C193.626 123.8 193.293 122.95 193.293 121.85C193.293 120.517 193.884 119.5 195.068 118.8C196.251 118.083 198.143 117.583 200.743 117.3C200.743 116.917 200.701 116.542 200.618 116.175C200.551 115.808 200.426 115.483 200.243 115.2C200.059 114.917 199.801 114.692 199.468 114.525C199.151 114.342 198.743 114.25 198.243 114.25C197.543 114.25 196.884 114.383 196.268 114.65C195.651 114.917 195.101 115.217 194.618 115.55L193.818 114.125C194.384 113.758 195.076 113.408 195.893 113.075C196.709 112.725 197.609 112.55 198.593 112.55C200.076 112.55 201.151 113.008 201.818 113.925C202.484 114.825 202.818 116.033 202.818 117.55V125H201.118L200.943 123.55H200.868C200.284 124.033 199.659 124.45 198.993 124.8C198.326 125.133 197.609 125.3 196.843 125.3ZM197.443 123.65C198.026 123.65 198.576 123.517 199.093 123.25C199.609 122.967 200.159 122.558 200.743 122.025V118.65C199.726 118.783 198.868 118.942 198.168 119.125C197.484 119.308 196.926 119.525 196.493 119.775C196.076 120.025 195.768 120.317 195.568 120.65C195.384 120.967 195.293 121.317 195.293 121.7C195.293 122.4 195.501 122.9 195.918 123.2C196.334 123.5 196.843 123.65 197.443 123.65ZM209.265 125L204.89 112.85H207.015L209.315 119.75C209.499 120.35 209.682 120.95 209.865 121.55C210.065 122.15 210.257 122.742 210.44 123.325H210.54C210.724 122.742 210.907 122.15 211.09 121.55C211.274 120.95 211.457 120.35 211.64 119.75L213.94 112.85H215.965L211.665 125H209.265ZM223.138 125.3C222.321 125.3 221.554 125.158 220.838 124.875C220.138 124.575 219.521 124.158 218.988 123.625C218.471 123.075 218.063 122.408 217.763 121.625C217.463 120.842 217.313 119.95 217.313 118.95C217.313 117.95 217.463 117.058 217.763 116.275C218.079 115.475 218.488 114.8 218.988 114.25C219.504 113.7 220.088 113.283 220.738 113C221.388 112.7 222.063 112.55 222.763 112.55C223.529 112.55 224.213 112.683 224.813 112.95C225.429 113.217 225.938 113.6 226.338 114.1C226.754 114.6 227.071 115.2 227.288 115.9C227.504 116.6 227.613 117.383 227.613 118.25C227.613 118.467 227.604 118.683 227.588 118.9C227.588 119.1 227.571 119.275 227.538 119.425H219.338C219.421 120.725 219.821 121.758 220.538 122.525C221.271 123.275 222.221 123.65 223.388 123.65C223.971 123.65 224.504 123.567 224.988 123.4C225.488 123.217 225.963 122.983 226.413 122.7L227.138 124.05C226.604 124.383 226.013 124.675 225.363 124.925C224.713 125.175 223.971 125.3 223.138 125.3ZM219.313 117.95H225.813C225.813 116.717 225.546 115.783 225.013 115.15C224.496 114.5 223.763 114.175 222.813 114.175C222.379 114.175 221.963 114.258 221.563 114.425C221.179 114.592 220.829 114.842 220.513 115.175C220.196 115.492 219.929 115.883 219.713 116.35C219.513 116.817 219.379 117.35 219.313 117.95ZM230.615 125V112.85H232.315L232.49 115.05H232.565C232.982 114.283 233.482 113.675 234.065 113.225C234.665 112.775 235.315 112.55 236.015 112.55C236.498 112.55 236.932 112.633 237.315 112.8L236.915 114.6C236.715 114.533 236.532 114.483 236.365 114.45C236.198 114.417 235.99 114.4 235.74 114.4C235.223 114.4 234.682 114.608 234.115 115.025C233.565 115.442 233.082 116.167 232.665 117.2V125H230.615ZM242.359 125.3C241.493 125.3 240.668 125.142 239.884 124.825C239.101 124.508 238.418 124.108 237.834 123.625L238.859 122.25C239.393 122.683 239.934 123.033 240.484 123.3C241.051 123.567 241.701 123.7 242.434 123.7C243.234 123.7 243.834 123.517 244.234 123.15C244.634 122.783 244.834 122.333 244.834 121.8C244.834 121.483 244.751 121.208 244.584 120.975C244.418 120.742 244.201 120.542 243.934 120.375C243.684 120.192 243.393 120.033 243.059 119.9C242.726 119.767 242.393 119.633 242.059 119.5C241.626 119.35 241.193 119.183 240.759 119C240.326 118.8 239.934 118.567 239.584 118.3C239.251 118.017 238.976 117.692 238.759 117.325C238.543 116.958 238.434 116.517 238.434 116C238.434 115.517 238.526 115.067 238.709 114.65C238.909 114.217 239.184 113.85 239.534 113.55C239.901 113.233 240.343 112.992 240.859 112.825C241.376 112.642 241.959 112.55 242.609 112.55C243.376 112.55 244.076 112.683 244.709 112.95C245.359 113.217 245.918 113.542 246.384 113.925L245.409 115.225C244.993 114.908 244.559 114.65 244.109 114.45C243.659 114.25 243.168 114.15 242.634 114.15C241.868 114.15 241.301 114.325 240.934 114.675C240.584 115.025 240.409 115.433 240.409 115.9C240.409 116.183 240.484 116.433 240.634 116.65C240.784 116.85 240.984 117.033 241.234 117.2C241.484 117.35 241.768 117.492 242.084 117.625C242.418 117.742 242.759 117.867 243.109 118C243.543 118.167 243.976 118.342 244.409 118.525C244.859 118.708 245.259 118.942 245.609 119.225C245.959 119.492 246.243 119.825 246.459 120.225C246.693 120.625 246.809 121.108 246.809 121.675C246.809 122.175 246.709 122.642 246.509 123.075C246.326 123.508 246.043 123.892 245.659 124.225C245.293 124.558 244.826 124.817 244.259 125C243.709 125.2 243.076 125.3 242.359 125.3ZM254.583 125.3C253.766 125.3 253 125.158 252.283 124.875C251.583 124.575 250.966 124.158 250.433 123.625C249.916 123.075 249.508 122.408 249.208 121.625C248.908 120.842 248.758 119.95 248.758 118.95C248.758 117.95 248.908 117.058 249.208 116.275C249.525 115.475 249.933 114.8 250.433 114.25C250.95 113.7 251.533 113.283 252.183 113C252.833 112.7 253.508 112.55 254.208 112.55C254.975 112.55 255.658 112.683 256.258 112.95C256.875 113.217 257.383 113.6 257.783 114.1C258.2 114.6 258.516 115.2 258.733 115.9C258.95 116.6 259.058 117.383 259.058 118.25C259.058 118.467 259.05 118.683 259.033 118.9C259.033 119.1 259.016 119.275 258.983 119.425H250.783C250.866 120.725 251.266 121.758 251.983 122.525C252.716 123.275 253.666 123.65 254.833 123.65C255.416 123.65 255.95 123.567 256.433 123.4C256.933 123.217 257.408 122.983 257.858 122.7L258.583 124.05C258.05 124.383 257.458 124.675 256.808 124.925C256.158 125.175 255.416 125.3 254.583 125.3ZM250.758 117.95H257.258C257.258 116.717 256.991 115.783 256.458 115.15C255.941 114.5 255.208 114.175 254.258 114.175C253.825 114.175 253.408 114.258 253.008 114.425C252.625 114.592 252.275 114.842 251.958 115.175C251.641 115.492 251.375 115.883 251.158 116.35C250.958 116.817 250.825 117.35 250.758 117.95ZM253.883 110.675L252.833 109.65L256.358 105.475L257.808 106.85L253.883 110.675ZM266.985 125.3C266.169 125.3 265.402 125.158 264.685 124.875C263.985 124.575 263.369 124.158 262.835 123.625C262.319 123.075 261.91 122.408 261.61 121.625C261.31 120.842 261.16 119.95 261.16 118.95C261.16 117.95 261.31 117.058 261.61 116.275C261.927 115.475 262.335 114.8 262.835 114.25C263.352 113.7 263.935 113.283 264.585 113C265.235 112.7 265.91 112.55 266.61 112.55C267.377 112.55 268.06 112.683 268.66 112.95C269.277 113.217 269.785 113.6 270.185 114.1C270.602 114.6 270.919 115.2 271.135 115.9C271.352 116.6 271.46 117.383 271.46 118.25C271.46 118.467 271.452 118.683 271.435 118.9C271.435 119.1 271.419 119.275 271.385 119.425H263.185C263.269 120.725 263.669 121.758 264.385 122.525C265.119 123.275 266.069 123.65 267.235 123.65C267.819 123.65 268.352 123.567 268.835 123.4C269.335 123.217 269.81 122.983 270.26 122.7L270.985 124.05C270.452 124.383 269.86 124.675 269.21 124.925C268.56 125.175 267.819 125.3 266.985 125.3ZM263.16 117.95H269.66C269.66 116.717 269.394 115.783 268.86 115.15C268.344 114.5 267.61 114.175 266.66 114.175C266.227 114.175 265.81 114.258 265.41 114.425C265.027 114.592 264.677 114.842 264.36 115.175C264.044 115.492 263.777 115.883 263.56 116.35C263.36 116.817 263.227 117.35 263.16 117.95Z" fill="white"/>
<path d="M76.409 178.3C75.3757 178.3 74.4257 178.108 73.559 177.725C72.6923 177.342 71.934 176.792 71.284 176.075C70.6507 175.342 70.1507 174.45 69.784 173.4C69.434 172.333 69.259 171.133 69.259 169.8C69.259 168.483 69.4423 167.3 69.809 166.25C70.1757 165.2 70.684 164.308 71.334 163.575C71.984 162.842 72.7507 162.283 73.634 161.9C74.5173 161.5 75.484 161.3 76.534 161.3C77.534 161.3 78.409 161.508 79.159 161.925C79.9257 162.325 80.5507 162.792 81.034 163.325L79.909 164.675C79.4757 164.208 78.984 163.833 78.434 163.55C77.884 163.267 77.259 163.125 76.559 163.125C75.7757 163.125 75.0673 163.283 74.434 163.6C73.8007 163.9 73.259 164.342 72.809 164.925C72.359 165.492 72.009 166.183 71.759 167C71.5257 167.817 71.409 168.733 71.409 169.75C71.409 170.783 71.5257 171.717 71.759 172.55C72.009 173.367 72.3507 174.067 72.784 174.65C73.2173 175.233 73.7423 175.683 74.359 176C74.9923 176.317 75.7007 176.475 76.484 176.475C77.284 176.475 77.984 176.317 78.584 176C79.184 175.667 79.7507 175.208 80.284 174.625L81.434 175.925C80.784 176.675 80.0507 177.258 79.234 177.675C78.4173 178.092 77.4757 178.3 76.409 178.3ZM84.2912 178V160.2H86.3412V165.05L86.2662 167.55C86.8495 167 87.4579 166.533 88.0912 166.15C88.7245 165.75 89.4662 165.55 90.3162 165.55C91.5995 165.55 92.5329 165.95 93.1162 166.75C93.7162 167.55 94.0162 168.733 94.0162 170.3V178H91.9662V170.575C91.9662 169.425 91.7829 168.6 91.4162 168.1C91.0495 167.583 90.4662 167.325 89.6662 167.325C89.0329 167.325 88.4745 167.483 87.9912 167.8C87.5079 168.117 86.9579 168.583 86.3412 169.2V178H84.2912ZM101.44 178.3C100.14 178.3 99.1898 177.9 98.5898 177.1C98.0065 176.3 97.7148 175.117 97.7148 173.55V165.85H99.7898V173.275C99.7898 174.425 99.9648 175.258 100.315 175.775C100.682 176.275 101.265 176.525 102.065 176.525C102.698 176.525 103.257 176.367 103.74 176.05C104.223 175.717 104.757 175.192 105.34 174.475V165.85H107.39V178H105.69L105.515 176.1H105.44C104.873 176.767 104.273 177.3 103.64 177.7C103.023 178.1 102.29 178.3 101.44 178.3ZM115.313 178.3C114.663 178.3 114.113 178.2 113.663 178C113.23 177.8 112.872 177.525 112.588 177.175C112.322 176.825 112.13 176.4 112.013 175.9C111.897 175.4 111.838 174.85 111.838 174.25V167.525H110.038V165.975L111.938 165.85L112.188 162.45H113.913V165.85H117.188V167.525H113.913V174.275C113.913 175.025 114.047 175.608 114.313 176.025C114.597 176.425 115.088 176.625 115.788 176.625C116.005 176.625 116.238 176.592 116.488 176.525C116.738 176.458 116.963 176.383 117.163 176.3L117.563 177.85C117.23 177.967 116.863 178.067 116.463 178.15C116.08 178.25 115.697 178.3 115.313 178.3ZM124.519 178.3C123.702 178.3 122.936 178.158 122.219 177.875C121.519 177.575 120.902 177.158 120.369 176.625C119.852 176.075 119.444 175.408 119.144 174.625C118.844 173.842 118.694 172.95 118.694 171.95C118.694 170.95 118.844 170.058 119.144 169.275C119.461 168.475 119.869 167.8 120.369 167.25C120.886 166.7 121.469 166.283 122.119 166C122.769 165.7 123.444 165.55 124.144 165.55C124.911 165.55 125.594 165.683 126.194 165.95C126.811 166.217 127.319 166.6 127.719 167.1C128.136 167.6 128.452 168.2 128.669 168.9C128.886 169.6 128.994 170.383 128.994 171.25C128.994 171.467 128.986 171.683 128.969 171.9C128.969 172.1 128.952 172.275 128.919 172.425H120.719C120.802 173.725 121.202 174.758 121.919 175.525C122.652 176.275 123.602 176.65 124.769 176.65C125.352 176.65 125.886 176.567 126.369 176.4C126.869 176.217 127.344 175.983 127.794 175.7L128.519 177.05C127.986 177.383 127.394 177.675 126.744 177.925C126.094 178.175 125.352 178.3 124.519 178.3ZM120.694 170.95H127.194C127.194 169.717 126.927 168.783 126.394 168.15C125.877 167.5 125.144 167.175 124.194 167.175C123.761 167.175 123.344 167.258 122.944 167.425C122.561 167.592 122.211 167.842 121.894 168.175C121.577 168.492 121.311 168.883 121.094 169.35C120.894 169.817 120.761 170.35 120.694 170.95ZM141.151 178.3C139.618 178.3 138.393 177.75 137.476 176.65C136.576 175.55 136.126 173.983 136.126 171.95C136.126 170.967 136.268 170.083 136.551 169.3C136.851 168.5 137.243 167.825 137.726 167.275C138.21 166.725 138.768 166.3 139.401 166C140.035 165.7 140.701 165.55 141.401 165.55C142.101 165.55 142.71 165.675 143.226 165.925C143.743 166.175 144.268 166.517 144.801 166.95L144.701 164.875V160.2H146.776V178H145.076L144.901 176.575H144.826C144.343 177.042 143.785 177.45 143.151 177.8C142.535 178.133 141.868 178.3 141.151 178.3ZM141.601 176.575C142.168 176.575 142.701 176.442 143.201 176.175C143.701 175.892 144.201 175.467 144.701 174.9V168.55C144.185 168.083 143.685 167.758 143.201 167.575C142.735 167.375 142.251 167.275 141.751 167.275C141.268 167.275 140.81 167.392 140.376 167.625C139.96 167.842 139.593 168.158 139.276 168.575C138.96 168.975 138.71 169.458 138.526 170.025C138.343 170.592 138.251 171.225 138.251 171.925C138.251 173.392 138.543 174.533 139.126 175.35C139.71 176.167 140.535 176.575 141.601 176.575ZM155.793 178.3C154.977 178.3 154.21 178.158 153.493 177.875C152.793 177.575 152.177 177.158 151.643 176.625C151.127 176.075 150.718 175.408 150.418 174.625C150.118 173.842 149.968 172.95 149.968 171.95C149.968 170.95 150.118 170.058 150.418 169.275C150.735 168.475 151.143 167.8 151.643 167.25C152.16 166.7 152.743 166.283 153.393 166C154.043 165.7 154.718 165.55 155.418 165.55C156.185 165.55 156.868 165.683 157.468 165.95C158.085 166.217 158.593 166.6 158.993 167.1C159.41 167.6 159.727 168.2 159.943 168.9C160.16 169.6 160.268 170.383 160.268 171.25C160.268 171.467 160.26 171.683 160.243 171.9C160.243 172.1 160.227 172.275 160.193 172.425H151.993C152.077 173.725 152.477 174.758 153.193 175.525C153.927 176.275 154.877 176.65 156.043 176.65C156.627 176.65 157.16 176.567 157.643 176.4C158.143 176.217 158.618 175.983 159.068 175.7L159.793 177.05C159.26 177.383 158.668 177.675 158.018 177.925C157.368 178.175 156.627 178.3 155.793 178.3ZM151.968 170.95H158.468C158.468 169.717 158.202 168.783 157.668 168.15C157.152 167.5 156.418 167.175 155.468 167.175C155.035 167.175 154.618 167.258 154.218 167.425C153.835 167.592 153.485 167.842 153.168 168.175C152.852 168.492 152.585 168.883 152.368 169.35C152.168 169.817 152.035 170.35 151.968 170.95ZM171.526 178.3C169.476 178.3 167.967 177.425 167.001 175.675L168.501 174.625C168.867 175.275 169.284 175.75 169.751 176.05C170.217 176.333 170.742 176.475 171.326 176.475C172.209 176.475 172.867 176.208 173.301 175.675C173.734 175.125 173.951 174.225 173.951 172.975V161.6H176.051V173.175C176.051 173.875 175.959 174.542 175.776 175.175C175.609 175.792 175.342 176.333 174.976 176.8C174.626 177.267 174.159 177.633 173.576 177.9C173.009 178.167 172.326 178.3 171.526 178.3ZM183.087 178.3C182.071 178.3 181.221 178 180.537 177.4C179.871 176.8 179.537 175.95 179.537 174.85C179.537 173.517 180.129 172.5 181.312 171.8C182.496 171.083 184.387 170.583 186.987 170.3C186.987 169.917 186.946 169.542 186.862 169.175C186.796 168.808 186.671 168.483 186.487 168.2C186.304 167.917 186.046 167.692 185.712 167.525C185.396 167.342 184.987 167.25 184.487 167.25C183.787 167.25 183.129 167.383 182.512 167.65C181.896 167.917 181.346 168.217 180.862 168.55L180.062 167.125C180.629 166.758 181.321 166.408 182.137 166.075C182.954 165.725 183.854 165.55 184.837 165.55C186.321 165.55 187.396 166.008 188.062 166.925C188.729 167.825 189.062 169.033 189.062 170.55V178H187.362L187.187 176.55H187.112C186.529 177.033 185.904 177.45 185.237 177.8C184.571 178.133 183.854 178.3 183.087 178.3ZM183.687 176.65C184.271 176.65 184.821 176.517 185.337 176.25C185.854 175.967 186.404 175.558 186.987 175.025V171.65C185.971 171.783 185.112 171.942 184.412 172.125C183.729 172.308 183.171 172.525 182.737 172.775C182.321 173.025 182.012 173.317 181.812 173.65C181.629 173.967 181.537 174.317 181.537 174.7C181.537 175.4 181.746 175.9 182.162 176.2C182.579 176.5 183.087 176.65 183.687 176.65ZM197.685 178.3C196.885 178.3 196.135 178.158 195.435 177.875C194.735 177.592 194.127 177.183 193.61 176.65C193.11 176.1 192.71 175.433 192.41 174.65C192.127 173.85 191.985 172.95 191.985 171.95C191.985 170.933 192.143 170.033 192.46 169.25C192.777 168.45 193.202 167.775 193.735 167.225C194.268 166.675 194.885 166.258 195.585 165.975C196.302 165.692 197.052 165.55 197.835 165.55C198.635 165.55 199.318 165.692 199.885 165.975C200.452 166.258 200.952 166.592 201.385 166.975L200.335 168.325C199.985 168.008 199.61 167.75 199.21 167.55C198.827 167.35 198.393 167.25 197.91 167.25C197.36 167.25 196.852 167.367 196.385 167.6C195.918 167.817 195.518 168.133 195.185 168.55C194.852 168.967 194.585 169.467 194.385 170.05C194.202 170.617 194.11 171.25 194.11 171.95C194.11 172.65 194.202 173.283 194.385 173.85C194.568 174.417 194.818 174.908 195.135 175.325C195.468 175.725 195.868 176.042 196.335 176.275C196.802 176.492 197.31 176.6 197.86 176.6C198.427 176.6 198.943 176.483 199.41 176.25C199.893 176 200.327 175.708 200.71 175.375L201.61 176.75C201.06 177.233 200.452 177.617 199.785 177.9C199.118 178.167 198.418 178.3 197.685 178.3ZM211.449 183.125V178.8L211.549 176.6C211.066 177.083 210.508 177.492 209.874 177.825C209.258 178.142 208.599 178.3 207.899 178.3C206.366 178.3 205.141 177.75 204.224 176.65C203.324 175.55 202.874 173.983 202.874 171.95C202.874 170.967 203.016 170.083 203.299 169.3C203.599 168.5 203.991 167.825 204.474 167.275C204.958 166.725 205.516 166.3 206.149 166C206.783 165.7 207.449 165.55 208.149 165.55C208.849 165.55 209.466 165.675 209.999 165.925C210.533 166.158 211.074 166.517 211.624 167H211.674L211.874 165.85H213.524V183.125H211.449ZM208.349 176.575C208.916 176.575 209.449 176.442 209.949 176.175C210.449 175.892 210.949 175.467 211.449 174.9V168.55C210.933 168.083 210.433 167.758 209.949 167.575C209.483 167.375 208.999 167.275 208.499 167.275C208.016 167.275 207.558 167.392 207.124 167.625C206.708 167.842 206.341 168.158 206.024 168.575C205.708 168.975 205.458 169.458 205.274 170.025C205.091 170.592 204.999 171.225 204.999 171.925C204.999 173.392 205.291 174.533 205.874 175.35C206.458 176.167 207.283 176.575 208.349 176.575ZM221.166 178.3C219.866 178.3 218.916 177.9 218.316 177.1C217.733 176.3 217.441 175.117 217.441 173.55V165.85H219.516V173.275C219.516 174.425 219.691 175.258 220.041 175.775C220.408 176.275 220.991 176.525 221.791 176.525C222.425 176.525 222.983 176.367 223.466 176.05C223.95 175.717 224.483 175.192 225.066 174.475V165.85H227.116V178H225.416L225.241 176.1H225.166C224.6 176.767 224 177.3 223.366 177.7C222.75 178.1 222.016 178.3 221.166 178.3ZM236.14 178.3C235.323 178.3 234.557 178.158 233.84 177.875C233.14 177.575 232.523 177.158 231.99 176.625C231.473 176.075 231.065 175.408 230.765 174.625C230.465 173.842 230.315 172.95 230.315 171.95C230.315 170.95 230.465 170.058 230.765 169.275C231.082 168.475 231.49 167.8 231.99 167.25C232.507 166.7 233.09 166.283 233.74 166C234.39 165.7 235.065 165.55 235.765 165.55C236.532 165.55 237.215 165.683 237.815 165.95C238.432 166.217 238.94 166.6 239.34 167.1C239.757 167.6 240.073 168.2 240.29 168.9C240.507 169.6 240.615 170.383 240.615 171.25C240.615 171.467 240.607 171.683 240.59 171.9C240.59 172.1 240.573 172.275 240.54 172.425H232.34C232.423 173.725 232.823 174.758 233.54 175.525C234.273 176.275 235.223 176.65 236.39 176.65C236.973 176.65 237.507 176.567 237.99 176.4C238.49 176.217 238.965 175.983 239.415 175.7L240.14 177.05C239.607 177.383 239.015 177.675 238.365 177.925C237.715 178.175 236.973 178.3 236.14 178.3ZM232.315 170.95H238.815C238.815 169.717 238.548 168.783 238.015 168.15C237.498 167.5 236.765 167.175 235.815 167.175C235.382 167.175 234.965 167.258 234.565 167.425C234.182 167.592 233.832 167.842 233.515 168.175C233.198 168.492 232.932 168.883 232.715 169.35C232.515 169.817 232.382 170.35 232.315 170.95ZM246.792 178.3C245.926 178.3 245.101 178.142 244.317 177.825C243.534 177.508 242.851 177.108 242.267 176.625L243.292 175.25C243.826 175.683 244.367 176.033 244.917 176.3C245.484 176.567 246.134 176.7 246.867 176.7C247.667 176.7 248.267 176.517 248.667 176.15C249.067 175.783 249.267 175.333 249.267 174.8C249.267 174.483 249.184 174.208 249.017 173.975C248.851 173.742 248.634 173.542 248.367 173.375C248.117 173.192 247.826 173.033 247.492 172.9C247.159 172.767 246.826 172.633 246.492 172.5C246.059 172.35 245.626 172.183 245.192 172C244.759 171.8 244.367 171.567 244.017 171.3C243.684 171.017 243.409 170.692 243.192 170.325C242.976 169.958 242.867 169.517 242.867 169C242.867 168.517 242.959 168.067 243.142 167.65C243.342 167.217 243.617 166.85 243.967 166.55C244.334 166.233 244.776 165.992 245.292 165.825C245.809 165.642 246.392 165.55 247.042 165.55C247.809 165.55 248.509 165.683 249.142 165.95C249.792 166.217 250.351 166.542 250.817 166.925L249.842 168.225C249.426 167.908 248.992 167.65 248.542 167.45C248.092 167.25 247.601 167.15 247.067 167.15C246.301 167.15 245.734 167.325 245.367 167.675C245.017 168.025 244.842 168.433 244.842 168.9C244.842 169.183 244.917 169.433 245.067 169.65C245.217 169.85 245.417 170.033 245.667 170.2C245.917 170.35 246.201 170.492 246.517 170.625C246.851 170.742 247.192 170.867 247.542 171C247.976 171.167 248.409 171.342 248.842 171.525C249.292 171.708 249.692 171.942 250.042 172.225C250.392 172.492 250.676 172.825 250.892 173.225C251.126 173.625 251.242 174.108 251.242 174.675C251.242 175.175 251.142 175.642 250.942 176.075C250.759 176.508 250.476 176.892 250.092 177.225C249.726 177.558 249.259 177.817 248.692 178C248.142 178.2 247.509 178.3 246.792 178.3Z" fill="white"/>
<path d="M34.5742 245V228.6H39.6992C40.5326 228.6 41.2992 228.683 41.9992 228.85C42.7159 229 43.3242 229.258 43.8242 229.625C44.3409 229.992 44.7409 230.467 45.0242 231.05C45.3076 231.633 45.4492 232.35 45.4492 233.2C45.4492 234.483 45.1159 235.508 44.4492 236.275C43.7826 237.042 42.8826 237.567 41.7492 237.85L45.9242 245H43.5742L39.6242 238.075H36.6492V245H34.5742ZM36.6492 236.375H39.3992C40.6826 236.375 41.6659 236.117 42.3492 235.6C43.0326 235.067 43.3742 234.267 43.3742 233.2C43.3742 232.117 43.0326 231.358 42.3492 230.925C41.6659 230.492 40.6826 230.275 39.3992 230.275H36.6492V236.375ZM53.2885 245.3C52.4718 245.3 51.7051 245.158 50.9885 244.875C50.2885 244.575 49.6718 244.158 49.1385 243.625C48.6218 243.075 48.2135 242.408 47.9135 241.625C47.6135 240.842 47.4635 239.95 47.4635 238.95C47.4635 237.95 47.6135 237.058 47.9135 236.275C48.2301 235.475 48.6385 234.8 49.1385 234.25C49.6551 233.7 50.2385 233.283 50.8885 233C51.5385 232.7 52.2135 232.55 52.9135 232.55C53.6801 232.55 54.3635 232.683 54.9635 232.95C55.5801 233.217 56.0885 233.6 56.4885 234.1C56.9051 234.6 57.2218 235.2 57.4385 235.9C57.6551 236.6 57.7635 237.383 57.7635 238.25C57.7635 238.467 57.7551 238.683 57.7385 238.9C57.7385 239.1 57.7218 239.275 57.6885 239.425H49.4885C49.5718 240.725 49.9718 241.758 50.6885 242.525C51.4218 243.275 52.3718 243.65 53.5385 243.65C54.1218 243.65 54.6551 243.567 55.1385 243.4C55.6385 243.217 56.1135 242.983 56.5635 242.7L57.2885 244.05C56.7551 244.383 56.1635 244.675 55.5135 244.925C54.8635 245.175 54.1218 245.3 53.2885 245.3ZM49.4635 237.95H55.9635C55.9635 236.717 55.6968 235.783 55.1635 235.15C54.6468 234.5 53.9135 234.175 52.9635 234.175C52.5301 234.175 52.1135 234.258 51.7135 234.425C51.3301 234.592 50.9801 234.842 50.6635 235.175C50.3468 235.492 50.0801 235.883 49.8635 236.35C49.6635 236.817 49.5301 237.35 49.4635 237.95ZM60.7658 250.125V232.85H62.4658L62.6408 234.25H62.7158C63.2658 233.783 63.8658 233.383 64.5158 233.05C65.1825 232.717 65.8742 232.55 66.5908 232.55C67.3742 232.55 68.0658 232.7 68.6658 233C69.2658 233.283 69.7658 233.7 70.1658 234.25C70.5658 234.783 70.8658 235.433 71.0658 236.2C71.2825 236.95 71.3908 237.8 71.3908 238.75C71.3908 239.783 71.2492 240.708 70.9658 241.525C70.6825 242.325 70.2992 243.008 69.8158 243.575C69.3325 244.142 68.7742 244.575 68.1408 244.875C67.5075 245.158 66.8408 245.3 66.1408 245.3C65.5742 245.3 65.0075 245.175 64.4408 244.925C63.8908 244.675 63.3325 244.333 62.7658 243.9L62.8158 246.025V250.125H60.7658ZM65.7908 243.575C66.2908 243.575 66.7492 243.467 67.1658 243.25C67.5992 243.017 67.9658 242.7 68.2658 242.3C68.5825 241.883 68.8242 241.375 68.9908 240.775C69.1742 240.175 69.2658 239.5 69.2658 238.75C69.2658 238.083 69.2075 237.475 69.0908 236.925C68.9742 236.375 68.7825 235.908 68.5158 235.525C68.2658 235.125 67.9325 234.817 67.5158 234.6C67.1158 234.383 66.6325 234.275 66.0658 234.275C65.5492 234.275 65.0242 234.417 64.4908 234.7C63.9742 234.983 63.4158 235.392 62.8158 235.925V242.3C63.3658 242.767 63.8992 243.1 64.4158 243.3C64.9325 243.483 65.3908 243.575 65.7908 243.575ZM74.633 245V232.85H76.333L76.508 235.05H76.583C76.9997 234.283 77.4997 233.675 78.083 233.225C78.683 232.775 79.333 232.55 80.033 232.55C80.5163 232.55 80.9497 232.633 81.333 232.8L80.933 234.6C80.733 234.533 80.5497 234.483 80.383 234.45C80.2163 234.417 80.008 234.4 79.758 234.4C79.2413 234.4 78.6997 234.608 78.133 235.025C77.583 235.442 77.0997 236.167 76.683 237.2V245H74.633ZM87.9809 245.3C87.1642 245.3 86.3975 245.158 85.6809 244.875C84.9809 244.575 84.3642 244.158 83.8309 243.625C83.3142 243.075 82.9059 242.408 82.6059 241.625C82.3059 240.842 82.1559 239.95 82.1559 238.95C82.1559 237.95 82.3059 237.058 82.6059 236.275C82.9225 235.475 83.3309 234.8 83.8309 234.25C84.3475 233.7 84.9309 233.283 85.5809 233C86.2309 232.7 86.9059 232.55 87.6059 232.55C88.3725 232.55 89.0559 232.683 89.6559 232.95C90.2725 233.217 90.7809 233.6 91.1809 234.1C91.5975 234.6 91.9142 235.2 92.1309 235.9C92.3475 236.6 92.4559 237.383 92.4559 238.25C92.4559 238.467 92.4475 238.683 92.4309 238.9C92.4309 239.1 92.4142 239.275 92.3809 239.425H84.1809C84.2642 240.725 84.6642 241.758 85.3809 242.525C86.1142 243.275 87.0642 243.65 88.2309 243.65C88.8142 243.65 89.3475 243.567 89.8309 243.4C90.3309 243.217 90.8059 242.983 91.2559 242.7L91.9809 244.05C91.4475 244.383 90.8559 244.675 90.2059 244.925C89.5559 245.175 88.8142 245.3 87.9809 245.3ZM84.1559 237.95H90.6559C90.6559 236.717 90.3892 235.783 89.8559 235.15C89.3392 234.5 88.6059 234.175 87.6559 234.175C87.2225 234.175 86.8059 234.258 86.4059 234.425C86.0225 234.592 85.6725 234.842 85.3559 235.175C85.0392 235.492 84.7725 235.883 84.5559 236.35C84.3559 236.817 84.2225 237.35 84.1559 237.95ZM95.4582 245V232.85H97.1582L97.3332 234.6H97.4082C97.9915 234.017 98.5999 233.533 99.2332 233.15C99.8832 232.75 100.633 232.55 101.483 232.55C102.767 232.55 103.7 232.95 104.283 233.75C104.883 234.55 105.183 235.733 105.183 237.3V245H103.133V237.575C103.133 236.425 102.95 235.6 102.583 235.1C102.217 234.583 101.633 234.325 100.833 234.325C100.2 234.325 99.6415 234.483 99.1582 234.8C98.6749 235.117 98.1249 235.583 97.5082 236.2V245H95.4582ZM113.28 245.3C111.747 245.3 110.522 244.75 109.605 243.65C108.705 242.55 108.255 240.983 108.255 238.95C108.255 237.967 108.397 237.083 108.68 236.3C108.98 235.5 109.372 234.825 109.855 234.275C110.338 233.725 110.897 233.3 111.53 233C112.163 232.7 112.83 232.55 113.53 232.55C114.23 232.55 114.838 232.675 115.355 232.925C115.872 233.175 116.397 233.517 116.93 233.95L116.83 231.875V227.2H118.905V245H117.205L117.03 243.575H116.955C116.472 244.042 115.913 244.45 115.28 244.8C114.663 245.133 113.997 245.3 113.28 245.3ZM113.73 243.575C114.297 243.575 114.83 243.442 115.33 243.175C115.83 242.892 116.33 242.467 116.83 241.9V235.55C116.313 235.083 115.813 234.758 115.33 234.575C114.863 234.375 114.38 234.275 113.88 234.275C113.397 234.275 112.938 234.392 112.505 234.625C112.088 234.842 111.722 235.158 111.405 235.575C111.088 235.975 110.838 236.458 110.655 237.025C110.472 237.592 110.38 238.225 110.38 238.925C110.38 240.392 110.672 241.533 111.255 242.35C111.838 243.167 112.663 243.575 113.73 243.575ZM122.997 245V232.85H124.697L124.872 235.05H124.947C125.364 234.283 125.864 233.675 126.447 233.225C127.047 232.775 127.697 232.55 128.397 232.55C128.881 232.55 129.314 232.633 129.697 232.8L129.297 234.6C129.097 234.533 128.914 234.483 128.747 234.45C128.581 234.417 128.372 234.4 128.122 234.4C127.606 234.4 127.064 234.608 126.497 235.025C125.947 235.442 125.464 236.167 125.047 237.2V245H122.997ZM136.345 245.3C135.528 245.3 134.762 245.158 134.045 244.875C133.345 244.575 132.728 244.158 132.195 243.625C131.678 243.075 131.27 242.408 130.97 241.625C130.67 240.842 130.52 239.95 130.52 238.95C130.52 237.95 130.67 237.058 130.97 236.275C131.287 235.475 131.695 234.8 132.195 234.25C132.712 233.7 133.295 233.283 133.945 233C134.595 232.7 135.27 232.55 135.97 232.55C136.737 232.55 137.42 232.683 138.02 232.95C138.637 233.217 139.145 233.6 139.545 234.1C139.962 234.6 140.278 235.2 140.495 235.9C140.712 236.6 140.82 237.383 140.82 238.25C140.82 238.467 140.812 238.683 140.795 238.9C140.795 239.1 140.778 239.275 140.745 239.425H132.545C132.628 240.725 133.028 241.758 133.745 242.525C134.478 243.275 135.428 243.65 136.595 243.65C137.178 243.65 137.712 243.567 138.195 243.4C138.695 243.217 139.17 242.983 139.62 242.7L140.345 244.05C139.812 244.383 139.22 244.675 138.57 244.925C137.92 245.175 137.178 245.3 136.345 245.3ZM132.52 237.95H139.02C139.02 236.717 138.753 235.783 138.22 235.15C137.703 234.5 136.97 234.175 136.02 234.175C135.587 234.175 135.17 234.258 134.77 234.425C134.387 234.592 134.037 234.842 133.72 235.175C133.403 235.492 133.137 235.883 132.92 236.35C132.72 236.817 132.587 237.35 132.52 237.95ZM151.002 245.3C150.219 245.3 149.661 245.067 149.327 244.6C148.994 244.133 148.827 243.45 148.827 242.55V227.2H150.877V242.7C150.877 243.033 150.936 243.267 151.052 243.4C151.169 243.533 151.302 243.6 151.452 243.6C151.519 243.6 151.577 243.6 151.627 243.6C151.694 243.6 151.786 243.583 151.902 243.55L152.177 245.1C152.044 245.167 151.886 245.217 151.702 245.25C151.519 245.283 151.286 245.3 151.002 245.3ZM157.999 245.3C156.983 245.3 156.133 245 155.449 244.4C154.783 243.8 154.449 242.95 154.449 241.85C154.449 240.517 155.041 239.5 156.224 238.8C157.408 238.083 159.299 237.583 161.899 237.3C161.899 236.917 161.858 236.542 161.774 236.175C161.708 235.808 161.583 235.483 161.399 235.2C161.216 234.917 160.958 234.692 160.624 234.525C160.308 234.342 159.899 234.25 159.399 234.25C158.699 234.25 158.041 234.383 157.424 234.65C156.808 234.917 156.258 235.217 155.774 235.55L154.974 234.125C155.541 233.758 156.233 233.408 157.049 233.075C157.866 232.725 158.766 232.55 159.749 232.55C161.233 232.55 162.308 233.008 162.974 233.925C163.641 234.825 163.974 236.033 163.974 237.55V245H162.274L162.099 243.55H162.024C161.441 244.033 160.816 244.45 160.149 244.8C159.483 245.133 158.766 245.3 157.999 245.3ZM158.599 243.65C159.183 243.65 159.733 243.517 160.249 243.25C160.766 242.967 161.316 242.558 161.899 242.025V238.65C160.883 238.783 160.024 238.942 159.324 239.125C158.641 239.308 158.083 239.525 157.649 239.775C157.233 240.025 156.924 240.317 156.724 240.65C156.541 240.967 156.449 241.317 156.449 241.7C156.449 242.4 156.658 242.9 157.074 243.2C157.491 243.5 157.999 243.65 158.599 243.65ZM176.627 245.3C175.977 245.3 175.427 245.2 174.977 245C174.544 244.8 174.185 244.525 173.902 244.175C173.635 243.825 173.444 243.4 173.327 242.9C173.21 242.4 173.152 241.85 173.152 241.25V234.525H171.352V232.975L173.252 232.85L173.502 229.45H175.227V232.85H178.502V234.525H175.227V241.275C175.227 242.025 175.36 242.608 175.627 243.025C175.91 243.425 176.402 243.625 177.102 243.625C177.319 243.625 177.552 243.592 177.802 243.525C178.052 243.458 178.277 243.383 178.477 243.3L178.877 244.85C178.544 244.967 178.177 245.067 177.777 245.15C177.394 245.25 177.01 245.3 176.627 245.3ZM181.249 245V232.85H182.949L183.124 235.05H183.199C183.616 234.283 184.116 233.675 184.699 233.225C185.299 232.775 185.949 232.55 186.649 232.55C187.133 232.55 187.566 232.633 187.949 232.8L187.549 234.6C187.349 234.533 187.166 234.483 186.999 234.45C186.833 234.417 186.624 234.4 186.374 234.4C185.858 234.4 185.316 234.608 184.749 235.025C184.199 235.442 183.716 236.167 183.299 237.2V245H181.249ZM192.106 245.3C191.089 245.3 190.239 245 189.556 244.4C188.889 243.8 188.556 242.95 188.556 241.85C188.556 240.517 189.148 239.5 190.331 238.8C191.514 238.083 193.406 237.583 196.006 237.3C196.006 236.917 195.964 236.542 195.881 236.175C195.814 235.808 195.689 235.483 195.506 235.2C195.323 234.917 195.064 234.692 194.731 234.525C194.414 234.342 194.006 234.25 193.506 234.25C192.806 234.25 192.148 234.383 191.531 234.65C190.914 234.917 190.364 235.217 189.881 235.55L189.081 234.125C189.648 233.758 190.339 233.408 191.156 233.075C191.973 232.725 192.873 232.55 193.856 232.55C195.339 232.55 196.414 233.008 197.081 233.925C197.748 234.825 198.081 236.033 198.081 237.55V245H196.381L196.206 243.55H196.131C195.548 244.033 194.923 244.45 194.256 244.8C193.589 245.133 192.873 245.3 192.106 245.3ZM192.706 243.65C193.289 243.65 193.839 243.517 194.356 243.25C194.873 242.967 195.423 242.558 196.006 242.025V238.65C194.989 238.783 194.131 238.942 193.431 239.125C192.748 239.308 192.189 239.525 191.756 239.775C191.339 240.025 191.031 240.317 190.831 240.65C190.648 240.967 190.556 241.317 190.556 241.7C190.556 242.4 190.764 242.9 191.181 243.2C191.598 243.5 192.106 243.65 192.706 243.65ZM204.529 245L200.154 232.85H202.279L204.579 239.75C204.762 240.35 204.945 240.95 205.129 241.55C205.329 242.15 205.52 242.742 205.704 243.325H205.804C205.987 242.742 206.17 242.15 206.354 241.55C206.537 240.95 206.72 240.35 206.904 239.75L209.204 232.85H211.229L206.929 245H204.529ZM218.401 245.3C217.584 245.3 216.817 245.158 216.101 244.875C215.401 244.575 214.784 244.158 214.251 243.625C213.734 243.075 213.326 242.408 213.026 241.625C212.726 240.842 212.576 239.95 212.576 238.95C212.576 237.95 212.726 237.058 213.026 236.275C213.342 235.475 213.751 234.8 214.251 234.25C214.767 233.7 215.351 233.283 216.001 233C216.651 232.7 217.326 232.55 218.026 232.55C218.792 232.55 219.476 232.683 220.076 232.95C220.692 233.217 221.201 233.6 221.601 234.1C222.017 234.6 222.334 235.2 222.551 235.9C222.767 236.6 222.876 237.383 222.876 238.25C222.876 238.467 222.867 238.683 222.851 238.9C222.851 239.1 222.834 239.275 222.801 239.425H214.601C214.684 240.725 215.084 241.758 215.801 242.525C216.534 243.275 217.484 243.65 218.651 243.65C219.234 243.65 219.767 243.567 220.251 243.4C220.751 243.217 221.226 242.983 221.676 242.7L222.401 244.05C221.867 244.383 221.276 244.675 220.626 244.925C219.976 245.175 219.234 245.3 218.401 245.3ZM214.576 237.95H221.076C221.076 236.717 220.809 235.783 220.276 235.15C219.759 234.5 219.026 234.175 218.076 234.175C217.642 234.175 217.226 234.258 216.826 234.425C216.442 234.592 216.092 234.842 215.776 235.175C215.459 235.492 215.192 235.883 214.976 236.35C214.776 236.817 214.642 237.35 214.576 237.95ZM225.878 245V232.85H227.578L227.753 235.05H227.828C228.245 234.283 228.745 233.675 229.328 233.225C229.928 232.775 230.578 232.55 231.278 232.55C231.761 232.55 232.195 232.633 232.578 232.8L232.178 234.6C231.978 234.533 231.795 234.483 231.628 234.45C231.461 234.417 231.253 234.4 231.003 234.4C230.486 234.4 229.945 234.608 229.378 235.025C228.828 235.442 228.345 236.167 227.928 237.2V245H225.878ZM237.622 245.3C236.756 245.3 235.931 245.142 235.147 244.825C234.364 244.508 233.681 244.108 233.097 243.625L234.122 242.25C234.656 242.683 235.197 243.033 235.747 243.3C236.314 243.567 236.964 243.7 237.697 243.7C238.497 243.7 239.097 243.517 239.497 243.15C239.897 242.783 240.097 242.333 240.097 241.8C240.097 241.483 240.014 241.208 239.847 240.975C239.681 240.742 239.464 240.542 239.197 240.375C238.947 240.192 238.656 240.033 238.322 239.9C237.989 239.767 237.656 239.633 237.322 239.5C236.889 239.35 236.456 239.183 236.022 239C235.589 238.8 235.197 238.567 234.847 238.3C234.514 238.017 234.239 237.692 234.022 237.325C233.806 236.958 233.697 236.517 233.697 236C233.697 235.517 233.789 235.067 233.972 234.65C234.172 234.217 234.447 233.85 234.797 233.55C235.164 233.233 235.606 232.992 236.122 232.825C236.639 232.642 237.222 232.55 237.872 232.55C238.639 232.55 239.339 232.683 239.972 232.95C240.622 233.217 241.181 233.542 241.647 233.925L240.672 235.225C240.256 234.908 239.822 234.65 239.372 234.45C238.922 234.25 238.431 234.15 237.897 234.15C237.131 234.15 236.564 234.325 236.197 234.675C235.847 235.025 235.672 235.433 235.672 235.9C235.672 236.183 235.747 236.433 235.897 236.65C236.047 236.85 236.247 237.033 236.497 237.2C236.747 237.35 237.031 237.492 237.347 237.625C237.681 237.742 238.022 237.867 238.372 238C238.806 238.167 239.239 238.342 239.672 238.525C240.122 238.708 240.522 238.942 240.872 239.225C241.222 239.492 241.506 239.825 241.722 240.225C241.956 240.625 242.072 241.108 242.072 241.675C242.072 242.175 241.972 242.642 241.772 243.075C241.589 243.508 241.306 243.892 240.922 244.225C240.556 244.558 240.089 244.817 239.522 245C238.972 245.2 238.339 245.3 237.622 245.3ZM249.846 245.3C249.029 245.3 248.263 245.158 247.546 244.875C246.846 244.575 246.229 244.158 245.696 243.625C245.179 243.075 244.771 242.408 244.471 241.625C244.171 240.842 244.021 239.95 244.021 238.95C244.021 237.95 244.171 237.058 244.471 236.275C244.788 235.475 245.196 234.8 245.696 234.25C246.213 233.7 246.796 233.283 247.446 233C248.096 232.7 248.771 232.55 249.471 232.55C250.238 232.55 250.921 232.683 251.521 232.95C252.138 233.217 252.646 233.6 253.046 234.1C253.463 234.6 253.779 235.2 253.996 235.9C254.213 236.6 254.321 237.383 254.321 238.25C254.321 238.467 254.313 238.683 254.296 238.9C254.296 239.1 254.279 239.275 254.246 239.425H246.046C246.129 240.725 246.529 241.758 247.246 242.525C247.979 243.275 248.929 243.65 250.096 243.65C250.679 243.65 251.213 243.567 251.696 243.4C252.196 243.217 252.671 242.983 253.121 242.7L253.846 244.05C253.313 244.383 252.721 244.675 252.071 244.925C251.421 245.175 250.679 245.3 249.846 245.3ZM246.021 237.95H252.521C252.521 236.717 252.254 235.783 251.721 235.15C251.204 234.5 250.471 234.175 249.521 234.175C249.088 234.175 248.671 234.258 248.271 234.425C247.888 234.592 247.538 234.842 247.221 235.175C246.904 235.492 246.638 235.883 246.421 236.35C246.221 236.817 246.088 237.35 246.021 237.95ZM249.146 230.675L248.096 229.65L251.621 225.475L253.071 226.85L249.146 230.675ZM262.248 245.3C261.432 245.3 260.665 245.158 259.948 244.875C259.248 244.575 258.632 244.158 258.098 243.625C257.582 243.075 257.173 242.408 256.873 241.625C256.573 240.842 256.423 239.95 256.423 238.95C256.423 237.95 256.573 237.058 256.873 236.275C257.19 235.475 257.598 234.8 258.098 234.25C258.615 233.7 259.198 233.283 259.848 233C260.498 232.7 261.173 232.55 261.873 232.55C262.64 232.55 263.323 232.683 263.923 232.95C264.54 233.217 265.048 233.6 265.448 234.1C265.865 234.6 266.182 235.2 266.398 235.9C266.615 236.6 266.723 237.383 266.723 238.25C266.723 238.467 266.715 238.683 266.698 238.9C266.698 239.1 266.682 239.275 266.648 239.425H258.448C258.532 240.725 258.932 241.758 259.648 242.525C260.382 243.275 261.332 243.65 262.498 243.65C263.082 243.65 263.615 243.567 264.098 243.4C264.598 243.217 265.073 242.983 265.523 242.7L266.248 244.05C265.715 244.383 265.123 244.675 264.473 244.925C263.823 245.175 263.082 245.3 262.248 245.3ZM258.423 237.95H264.923C264.923 236.717 264.657 235.783 264.123 235.15C263.607 234.5 262.873 234.175 261.923 234.175C261.49 234.175 261.073 234.258 260.673 234.425C260.29 234.592 259.94 234.842 259.623 235.175C259.307 235.492 259.04 235.883 258.823 236.35C258.623 236.817 258.49 237.35 258.423 237.95Z" fill="white"/>
</svg>
