<svg width="94" height="381" viewBox="0 0 94 381" fill="none" xmlns="http://www.w3.org/2000/svg">
<path d="M55.5859 325.296C55.5859 325.471 55.763 325.471 55.763 325.646C63.552 337.372 63.552 354.348 63.375 368.524" stroke="white" stroke-width="0.9124" stroke-miterlimit="10"/>
<path d="M46.3802 317.596C32.7493 310.071 11.8604 306.92 7.61182 292.919" stroke="white" stroke-width="0.9124" stroke-miterlimit="10"/>
<path d="M7.78906 281.193C10.2674 272.793 18.5876 268.768 25.3145 263.867C36.467 255.817 45.6723 246.191 49.0358 233.24" stroke="white" stroke-width="0.9124" stroke-miterlimit="10"/>
<path d="M32.7495 167.436C33.4576 171.811 34.8738 176.187 36.9981 180.387C44.2561 193.863 50.629 206.114 50.452 221.515" stroke="white" stroke-width="0.9124" stroke-miterlimit="10"/>
<path d="M32.3955 155.535C33.6347 140.659 41.0697 125.608 50.629 113.532" stroke="white" stroke-width="0.9124" stroke-miterlimit="10"/>
<path d="M58.772 104.607C61.2503 102.332 63.5516 100.232 66.03 98.4819C76.1204 91.1314 85.1486 79.5807 87.0959 67.5049" stroke="white" stroke-width="0.9124" stroke-miterlimit="10"/>
<path d="M52.3994 12.9004C54.7007 35.8269 70.6329 31.9766 81.0774 45.2775C83.7327 48.6027 85.503 52.103 86.3881 55.6032" stroke="white" stroke-width="0.9124" stroke-miterlimit="10"/>
<path d="M52.0452 12.9008C55.3693 12.9008 58.064 10.2367 58.064 6.95039C58.064 3.66408 55.3693 1 52.0452 1C48.7211 1 46.0264 3.66408 46.0264 6.95039C46.0264 10.2367 48.7211 12.9008 52.0452 12.9008Z" fill="white" stroke="white" stroke-width="0.9124" stroke-miterlimit="10"/>
<path d="M63.3748 380.25C66.6989 380.25 69.3936 377.586 69.3936 374.3C69.3936 371.013 66.6989 368.349 63.3748 368.349C60.0507 368.349 57.356 371.013 57.356 374.3C57.356 377.586 60.0507 380.25 63.3748 380.25Z" stroke="white" stroke-width="0.9124" stroke-miterlimit="10"/>
<path d="M7.01883 292.509C10.3429 292.509 13.0377 289.845 13.0377 286.559C13.0377 283.272 10.3429 280.608 7.01883 280.608C3.69472 280.608 1 283.272 1 286.559C1 289.845 3.69472 292.509 7.01883 292.509Z" fill="white" stroke="white" stroke-width="0.9124" stroke-miterlimit="10"/>
<path d="M49.8587 232.83C53.1828 232.83 55.8775 230.166 55.8775 226.88C55.8775 223.593 53.1828 220.929 49.8587 220.929C46.5346 220.929 43.8398 223.593 43.8398 226.88C43.8398 230.166 46.5346 232.83 49.8587 232.83Z" fill="white" stroke="white" stroke-width="0.9124" stroke-miterlimit="10"/>
<path d="M51.2747 326.636C54.5988 326.636 57.2935 323.972 57.2935 320.686C57.2935 317.399 54.5988 314.735 51.2747 314.735C47.9506 314.735 45.2559 317.399 45.2559 320.686C45.2559 323.972 47.9506 326.636 51.2747 326.636Z" stroke="white" stroke-width="0.9124" stroke-miterlimit="10"/>
<path d="M32.3333 167.026C35.6574 167.026 38.3521 164.362 38.3521 161.075C38.3521 157.789 35.6574 155.125 32.3333 155.125C29.0092 155.125 26.3145 157.789 26.3145 161.075C26.3145 164.362 29.0092 167.026 32.3333 167.026Z" fill="white" stroke="white" stroke-width="0.9124" stroke-miterlimit="10"/>
<path d="M87.096 67.5043C90.4201 67.5043 93.1148 64.8402 93.1148 61.5539C93.1148 58.2676 90.4201 55.6035 87.096 55.6035C83.7719 55.6035 81.0771 58.2676 81.0771 61.5539C81.0771 64.8402 83.7719 67.5043 87.096 67.5043Z" fill="white" stroke="white" stroke-width="0.9124" stroke-miterlimit="10"/>
<path d="M54.7005 114.933C58.0246 114.933 60.7193 112.269 60.7193 108.983C60.7193 105.696 58.0246 103.032 54.7005 103.032C51.3764 103.032 48.6816 105.696 48.6816 108.983C48.6816 112.269 51.3764 114.933 54.7005 114.933Z" fill="white" stroke="white" stroke-width="0.9124" stroke-miterlimit="10"/>
</svg>
