<svg width="361" height="381" viewBox="0 0 361 381" fill="none" xmlns="http://www.w3.org/2000/svg">
<path d="M322.586 325.296C322.586 325.471 322.763 325.471 322.763 325.646C330.552 337.372 330.552 354.348 330.375 368.524" stroke="white" stroke-width="0.9124" stroke-miterlimit="10"/>
<path d="M313.38 317.596C299.749 310.071 278.86 306.92 274.612 292.919" stroke="white" stroke-width="0.9124" stroke-miterlimit="10"/>
<path d="M274.789 281.193C277.267 272.793 285.588 268.768 292.314 263.867C303.467 255.817 312.672 246.191 316.036 233.24" stroke="white" stroke-width="0.9124" stroke-miterlimit="10"/>
<path d="M299.75 167.436C300.458 171.811 301.874 176.187 303.998 180.387C311.256 193.863 317.629 206.114 317.452 221.515" stroke="white" stroke-width="0.9124" stroke-miterlimit="10"/>
<path d="M299.396 155.535C300.635 140.659 308.07 125.608 317.629 113.532" stroke="white" stroke-width="0.9124" stroke-miterlimit="10"/>
<path d="M325.772 104.607C328.25 102.332 330.552 100.232 333.03 98.4819C343.12 91.1314 352.149 79.5807 354.096 67.5049" stroke="white" stroke-width="0.9124" stroke-miterlimit="10"/>
<path d="M319.399 12.9004C321.701 35.8269 337.633 31.9766 348.077 45.2775C350.733 48.6027 352.503 52.103 353.388 55.6032" stroke="white" stroke-width="0.9124" stroke-miterlimit="10"/>
<path d="M319.045 12.9008C322.369 12.9008 325.064 10.2367 325.064 6.95039C325.064 3.66408 322.369 1 319.045 1C315.721 1 313.026 3.66408 313.026 6.95039C313.026 10.2367 315.721 12.9008 319.045 12.9008Z" fill="white" stroke="white" stroke-width="0.9124" stroke-miterlimit="10"/>
<path d="M330.375 380.25C333.699 380.25 336.394 377.586 336.394 374.3C336.394 371.013 333.699 368.349 330.375 368.349C327.051 368.349 324.356 371.013 324.356 374.3C324.356 377.586 327.051 380.25 330.375 380.25Z" stroke="white" stroke-width="0.9124" stroke-miterlimit="10"/>
<path d="M274.019 292.509C277.343 292.509 280.038 289.845 280.038 286.559C280.038 283.272 277.343 280.608 274.019 280.608C270.695 280.608 268 283.272 268 286.559C268 289.845 270.695 292.509 274.019 292.509Z" stroke="white" stroke-width="0.9124" stroke-miterlimit="10"/>
<path d="M316.859 232.83C320.183 232.83 322.877 230.166 322.877 226.88C322.877 223.593 320.183 220.929 316.859 220.929C313.535 220.929 310.84 223.593 310.84 226.88C310.84 230.166 313.535 232.83 316.859 232.83Z" fill="white" stroke="white" stroke-width="0.9124" stroke-miterlimit="10"/>
<path d="M318.275 326.636C321.599 326.636 324.294 323.972 324.294 320.686C324.294 317.399 321.599 314.735 318.275 314.735C314.951 314.735 312.256 317.399 312.256 320.686C312.256 323.972 314.951 326.636 318.275 326.636Z" stroke="white" stroke-width="0.9124" stroke-miterlimit="10"/>
<path d="M299.333 167.026C302.657 167.026 305.352 164.362 305.352 161.075C305.352 157.789 302.657 155.125 299.333 155.125C296.009 155.125 293.314 157.789 293.314 161.075C293.314 164.362 296.009 167.026 299.333 167.026Z" fill="white" stroke="white" stroke-width="0.9124" stroke-miterlimit="10"/>
<path d="M354.096 67.5043C357.42 67.5043 360.115 64.8402 360.115 61.5539C360.115 58.2676 357.42 55.6035 354.096 55.6035C350.772 55.6035 348.077 58.2676 348.077 61.5539C348.077 64.8402 350.772 67.5043 354.096 67.5043Z" fill="white" stroke="white" stroke-width="0.9124" stroke-miterlimit="10"/>
<path d="M321.7 114.933C325.025 114.933 327.719 112.269 327.719 108.983C327.719 105.696 325.025 103.032 321.7 103.032C318.376 103.032 315.682 105.696 315.682 108.983C315.682 112.269 318.376 114.933 321.7 114.933Z" fill="white" stroke="white" stroke-width="0.9124" stroke-miterlimit="10"/>
<line x1="315.867" y1="227.625" x2="272" y2="227.625" stroke="white"/>
<path d="M34.5742 233.125V216.725H39.6992C40.5326 216.725 41.2992 216.808 41.9992 216.975C42.7159 217.125 43.3242 217.383 43.8242 217.75C44.3409 218.117 44.7409 218.592 45.0242 219.175C45.3076 219.758 45.4492 220.475 45.4492 221.325C45.4492 222.608 45.1159 223.633 44.4492 224.4C43.7826 225.167 42.8826 225.692 41.7492 225.975L45.9242 233.125H43.5742L39.6242 226.2H36.6492V233.125H34.5742ZM36.6492 224.5H39.3992C40.6826 224.5 41.6659 224.242 42.3492 223.725C43.0326 223.192 43.3742 222.392 43.3742 221.325C43.3742 220.242 43.0326 219.483 42.3492 219.05C41.6659 218.617 40.6826 218.4 39.3992 218.4H36.6492V224.5ZM53.2885 233.425C52.4718 233.425 51.7051 233.283 50.9885 233C50.2885 232.7 49.6718 232.283 49.1385 231.75C48.6218 231.2 48.2135 230.533 47.9135 229.75C47.6135 228.967 47.4635 228.075 47.4635 227.075C47.4635 226.075 47.6135 225.183 47.9135 224.4C48.2301 223.6 48.6385 222.925 49.1385 222.375C49.6551 221.825 50.2385 221.408 50.8885 221.125C51.5385 220.825 52.2135 220.675 52.9135 220.675C53.6801 220.675 54.3635 220.808 54.9635 221.075C55.5801 221.342 56.0885 221.725 56.4885 222.225C56.9051 222.725 57.2218 223.325 57.4385 224.025C57.6551 224.725 57.7635 225.508 57.7635 226.375C57.7635 226.592 57.7551 226.808 57.7385 227.025C57.7385 227.225 57.7218 227.4 57.6885 227.55H49.4885C49.5718 228.85 49.9718 229.883 50.6885 230.65C51.4218 231.4 52.3718 231.775 53.5385 231.775C54.1218 231.775 54.6551 231.692 55.1385 231.525C55.6385 231.342 56.1135 231.108 56.5635 230.825L57.2885 232.175C56.7551 232.508 56.1635 232.8 55.5135 233.05C54.8635 233.3 54.1218 233.425 53.2885 233.425ZM49.4635 226.075H55.9635C55.9635 224.842 55.6968 223.908 55.1635 223.275C54.6468 222.625 53.9135 222.3 52.9635 222.3C52.5301 222.3 52.1135 222.383 51.7135 222.55C51.3301 222.717 50.9801 222.967 50.6635 223.3C50.3468 223.617 50.0801 224.008 49.8635 224.475C49.6635 224.942 49.5301 225.475 49.4635 226.075ZM60.7658 238.25V220.975H62.4658L62.6408 222.375H62.7158C63.2658 221.908 63.8658 221.508 64.5158 221.175C65.1825 220.842 65.8742 220.675 66.5908 220.675C67.3742 220.675 68.0658 220.825 68.6658 221.125C69.2658 221.408 69.7658 221.825 70.1658 222.375C70.5658 222.908 70.8658 223.558 71.0658 224.325C71.2825 225.075 71.3908 225.925 71.3908 226.875C71.3908 227.908 71.2492 228.833 70.9658 229.65C70.6825 230.45 70.2992 231.133 69.8158 231.7C69.3325 232.267 68.7742 232.7 68.1408 233C67.5075 233.283 66.8408 233.425 66.1408 233.425C65.5742 233.425 65.0075 233.3 64.4408 233.05C63.8908 232.8 63.3325 232.458 62.7658 232.025L62.8158 234.15V238.25H60.7658ZM65.7908 231.7C66.2908 231.7 66.7492 231.592 67.1658 231.375C67.5992 231.142 67.9658 230.825 68.2658 230.425C68.5825 230.008 68.8242 229.5 68.9908 228.9C69.1742 228.3 69.2658 227.625 69.2658 226.875C69.2658 226.208 69.2075 225.6 69.0908 225.05C68.9742 224.5 68.7825 224.033 68.5158 223.65C68.2658 223.25 67.9325 222.942 67.5158 222.725C67.1158 222.508 66.6325 222.4 66.0658 222.4C65.5492 222.4 65.0242 222.542 64.4908 222.825C63.9742 223.108 63.4158 223.517 62.8158 224.05V230.425C63.3658 230.892 63.8992 231.225 64.4158 231.425C64.9325 231.608 65.3908 231.7 65.7908 231.7ZM74.633 233.125V220.975H76.333L76.508 223.175H76.583C76.9997 222.408 77.4997 221.8 78.083 221.35C78.683 220.9 79.333 220.675 80.033 220.675C80.5163 220.675 80.9497 220.758 81.333 220.925L80.933 222.725C80.733 222.658 80.5497 222.608 80.383 222.575C80.2163 222.542 80.008 222.525 79.758 222.525C79.2413 222.525 78.6997 222.733 78.133 223.15C77.583 223.567 77.0997 224.292 76.683 225.325V233.125H74.633ZM87.9809 233.425C87.1642 233.425 86.3975 233.283 85.6809 233C84.9809 232.7 84.3642 232.283 83.8309 231.75C83.3142 231.2 82.9059 230.533 82.6059 229.75C82.3059 228.967 82.1559 228.075 82.1559 227.075C82.1559 226.075 82.3059 225.183 82.6059 224.4C82.9225 223.6 83.3309 222.925 83.8309 222.375C84.3475 221.825 84.9309 221.408 85.5809 221.125C86.2309 220.825 86.9059 220.675 87.6059 220.675C88.3725 220.675 89.0559 220.808 89.6559 221.075C90.2725 221.342 90.7809 221.725 91.1809 222.225C91.5975 222.725 91.9142 223.325 92.1309 224.025C92.3475 224.725 92.4559 225.508 92.4559 226.375C92.4559 226.592 92.4475 226.808 92.4309 227.025C92.4309 227.225 92.4142 227.4 92.3809 227.55H84.1809C84.2642 228.85 84.6642 229.883 85.3809 230.65C86.1142 231.4 87.0642 231.775 88.2309 231.775C88.8142 231.775 89.3475 231.692 89.8309 231.525C90.3309 231.342 90.8059 231.108 91.2559 230.825L91.9809 232.175C91.4475 232.508 90.8559 232.8 90.2059 233.05C89.5559 233.3 88.8142 233.425 87.9809 233.425ZM84.1559 226.075H90.6559C90.6559 224.842 90.3892 223.908 89.8559 223.275C89.3392 222.625 88.6059 222.3 87.6559 222.3C87.2225 222.3 86.8059 222.383 86.4059 222.55C86.0225 222.717 85.6725 222.967 85.3559 223.3C85.0392 223.617 84.7725 224.008 84.5559 224.475C84.3559 224.942 84.2225 225.475 84.1559 226.075ZM95.4582 233.125V220.975H97.1582L97.3332 222.725H97.4082C97.9915 222.142 98.5999 221.658 99.2332 221.275C99.8832 220.875 100.633 220.675 101.483 220.675C102.767 220.675 103.7 221.075 104.283 221.875C104.883 222.675 105.183 223.858 105.183 225.425V233.125H103.133V225.7C103.133 224.55 102.95 223.725 102.583 223.225C102.217 222.708 101.633 222.45 100.833 222.45C100.2 222.45 99.6415 222.608 99.1582 222.925C98.6749 223.242 98.1249 223.708 97.5082 224.325V233.125H95.4582ZM113.28 233.425C111.747 233.425 110.522 232.875 109.605 231.775C108.705 230.675 108.255 229.108 108.255 227.075C108.255 226.092 108.397 225.208 108.68 224.425C108.98 223.625 109.372 222.95 109.855 222.4C110.338 221.85 110.897 221.425 111.53 221.125C112.163 220.825 112.83 220.675 113.53 220.675C114.23 220.675 114.838 220.8 115.355 221.05C115.872 221.3 116.397 221.642 116.93 222.075L116.83 220V215.325H118.905V233.125H117.205L117.03 231.7H116.955C116.472 232.167 115.913 232.575 115.28 232.925C114.663 233.258 113.997 233.425 113.28 233.425ZM113.73 231.7C114.297 231.7 114.83 231.567 115.33 231.3C115.83 231.017 116.33 230.592 116.83 230.025V223.675C116.313 223.208 115.813 222.883 115.33 222.7C114.863 222.5 114.38 222.4 113.88 222.4C113.397 222.4 112.938 222.517 112.505 222.75C112.088 222.967 111.722 223.283 111.405 223.7C111.088 224.1 110.838 224.583 110.655 225.15C110.472 225.717 110.38 226.35 110.38 227.05C110.38 228.517 110.672 229.658 111.255 230.475C111.838 231.292 112.663 231.7 113.73 231.7ZM122.997 233.125V220.975H124.697L124.872 223.175H124.947C125.364 222.408 125.864 221.8 126.447 221.35C127.047 220.9 127.697 220.675 128.397 220.675C128.881 220.675 129.314 220.758 129.697 220.925L129.297 222.725C129.097 222.658 128.914 222.608 128.747 222.575C128.581 222.542 128.372 222.525 128.122 222.525C127.606 222.525 127.064 222.733 126.497 223.15C125.947 223.567 125.464 224.292 125.047 225.325V233.125H122.997ZM136.345 233.425C135.528 233.425 134.762 233.283 134.045 233C133.345 232.7 132.728 232.283 132.195 231.75C131.678 231.2 131.27 230.533 130.97 229.75C130.67 228.967 130.52 228.075 130.52 227.075C130.52 226.075 130.67 225.183 130.97 224.4C131.287 223.6 131.695 222.925 132.195 222.375C132.712 221.825 133.295 221.408 133.945 221.125C134.595 220.825 135.27 220.675 135.97 220.675C136.737 220.675 137.42 220.808 138.02 221.075C138.637 221.342 139.145 221.725 139.545 222.225C139.962 222.725 140.278 223.325 140.495 224.025C140.712 224.725 140.82 225.508 140.82 226.375C140.82 226.592 140.812 226.808 140.795 227.025C140.795 227.225 140.778 227.4 140.745 227.55H132.545C132.628 228.85 133.028 229.883 133.745 230.65C134.478 231.4 135.428 231.775 136.595 231.775C137.178 231.775 137.712 231.692 138.195 231.525C138.695 231.342 139.17 231.108 139.62 230.825L140.345 232.175C139.812 232.508 139.22 232.8 138.57 233.05C137.92 233.3 137.178 233.425 136.345 233.425ZM132.52 226.075H139.02C139.02 224.842 138.753 223.908 138.22 223.275C137.703 222.625 136.97 222.3 136.02 222.3C135.587 222.3 135.17 222.383 134.77 222.55C134.387 222.717 134.037 222.967 133.72 223.3C133.403 223.617 133.137 224.008 132.92 224.475C132.72 224.942 132.587 225.475 132.52 226.075ZM151.002 233.425C150.219 233.425 149.661 233.192 149.327 232.725C148.994 232.258 148.827 231.575 148.827 230.675V215.325H150.877V230.825C150.877 231.158 150.936 231.392 151.052 231.525C151.169 231.658 151.302 231.725 151.452 231.725C151.519 231.725 151.577 231.725 151.627 231.725C151.694 231.725 151.786 231.708 151.902 231.675L152.177 233.225C152.044 233.292 151.886 233.342 151.702 233.375C151.519 233.408 151.286 233.425 151.002 233.425ZM157.999 233.425C156.983 233.425 156.133 233.125 155.449 232.525C154.783 231.925 154.449 231.075 154.449 229.975C154.449 228.642 155.041 227.625 156.224 226.925C157.408 226.208 159.299 225.708 161.899 225.425C161.899 225.042 161.858 224.667 161.774 224.3C161.708 223.933 161.583 223.608 161.399 223.325C161.216 223.042 160.958 222.817 160.624 222.65C160.308 222.467 159.899 222.375 159.399 222.375C158.699 222.375 158.041 222.508 157.424 222.775C156.808 223.042 156.258 223.342 155.774 223.675L154.974 222.25C155.541 221.883 156.233 221.533 157.049 221.2C157.866 220.85 158.766 220.675 159.749 220.675C161.233 220.675 162.308 221.133 162.974 222.05C163.641 222.95 163.974 224.158 163.974 225.675V233.125H162.274L162.099 231.675H162.024C161.441 232.158 160.816 232.575 160.149 232.925C159.483 233.258 158.766 233.425 157.999 233.425ZM158.599 231.775C159.183 231.775 159.733 231.642 160.249 231.375C160.766 231.092 161.316 230.683 161.899 230.15V226.775C160.883 226.908 160.024 227.067 159.324 227.25C158.641 227.433 158.083 227.65 157.649 227.9C157.233 228.15 156.924 228.442 156.724 228.775C156.541 229.092 156.449 229.442 156.449 229.825C156.449 230.525 156.658 231.025 157.074 231.325C157.491 231.625 157.999 231.775 158.599 231.775ZM176.627 233.425C175.977 233.425 175.427 233.325 174.977 233.125C174.544 232.925 174.185 232.65 173.902 232.3C173.635 231.95 173.444 231.525 173.327 231.025C173.21 230.525 173.152 229.975 173.152 229.375V222.65H171.352V221.1L173.252 220.975L173.502 217.575H175.227V220.975H178.502V222.65H175.227V229.4C175.227 230.15 175.36 230.733 175.627 231.15C175.91 231.55 176.402 231.75 177.102 231.75C177.319 231.75 177.552 231.717 177.802 231.65C178.052 231.583 178.277 231.508 178.477 231.425L178.877 232.975C178.544 233.092 178.177 233.192 177.777 233.275C177.394 233.375 177.01 233.425 176.627 233.425ZM181.249 233.125V220.975H182.949L183.124 223.175H183.199C183.616 222.408 184.116 221.8 184.699 221.35C185.299 220.9 185.949 220.675 186.649 220.675C187.133 220.675 187.566 220.758 187.949 220.925L187.549 222.725C187.349 222.658 187.166 222.608 186.999 222.575C186.833 222.542 186.624 222.525 186.374 222.525C185.858 222.525 185.316 222.733 184.749 223.15C184.199 223.567 183.716 224.292 183.299 225.325V233.125H181.249ZM192.106 233.425C191.089 233.425 190.239 233.125 189.556 232.525C188.889 231.925 188.556 231.075 188.556 229.975C188.556 228.642 189.148 227.625 190.331 226.925C191.514 226.208 193.406 225.708 196.006 225.425C196.006 225.042 195.964 224.667 195.881 224.3C195.814 223.933 195.689 223.608 195.506 223.325C195.323 223.042 195.064 222.817 194.731 222.65C194.414 222.467 194.006 222.375 193.506 222.375C192.806 222.375 192.148 222.508 191.531 222.775C190.914 223.042 190.364 223.342 189.881 223.675L189.081 222.25C189.648 221.883 190.339 221.533 191.156 221.2C191.973 220.85 192.873 220.675 193.856 220.675C195.339 220.675 196.414 221.133 197.081 222.05C197.748 222.95 198.081 224.158 198.081 225.675V233.125H196.381L196.206 231.675H196.131C195.548 232.158 194.923 232.575 194.256 232.925C193.589 233.258 192.873 233.425 192.106 233.425ZM192.706 231.775C193.289 231.775 193.839 231.642 194.356 231.375C194.873 231.092 195.423 230.683 196.006 230.15V226.775C194.989 226.908 194.131 227.067 193.431 227.25C192.748 227.433 192.189 227.65 191.756 227.9C191.339 228.15 191.031 228.442 190.831 228.775C190.648 229.092 190.556 229.442 190.556 229.825C190.556 230.525 190.764 231.025 191.181 231.325C191.598 231.625 192.106 231.775 192.706 231.775ZM204.529 233.125L200.154 220.975H202.279L204.579 227.875C204.762 228.475 204.945 229.075 205.129 229.675C205.329 230.275 205.52 230.867 205.704 231.45H205.804C205.987 230.867 206.17 230.275 206.354 229.675C206.537 229.075 206.72 228.475 206.904 227.875L209.204 220.975H211.229L206.929 233.125H204.529ZM218.401 233.425C217.584 233.425 216.817 233.283 216.101 233C215.401 232.7 214.784 232.283 214.251 231.75C213.734 231.2 213.326 230.533 213.026 229.75C212.726 228.967 212.576 228.075 212.576 227.075C212.576 226.075 212.726 225.183 213.026 224.4C213.342 223.6 213.751 222.925 214.251 222.375C214.767 221.825 215.351 221.408 216.001 221.125C216.651 220.825 217.326 220.675 218.026 220.675C218.792 220.675 219.476 220.808 220.076 221.075C220.692 221.342 221.201 221.725 221.601 222.225C222.017 222.725 222.334 223.325 222.551 224.025C222.767 224.725 222.876 225.508 222.876 226.375C222.876 226.592 222.867 226.808 222.851 227.025C222.851 227.225 222.834 227.4 222.801 227.55H214.601C214.684 228.85 215.084 229.883 215.801 230.65C216.534 231.4 217.484 231.775 218.651 231.775C219.234 231.775 219.767 231.692 220.251 231.525C220.751 231.342 221.226 231.108 221.676 230.825L222.401 232.175C221.867 232.508 221.276 232.8 220.626 233.05C219.976 233.3 219.234 233.425 218.401 233.425ZM214.576 226.075H221.076C221.076 224.842 220.809 223.908 220.276 223.275C219.759 222.625 219.026 222.3 218.076 222.3C217.642 222.3 217.226 222.383 216.826 222.55C216.442 222.717 216.092 222.967 215.776 223.3C215.459 223.617 215.192 224.008 214.976 224.475C214.776 224.942 214.642 225.475 214.576 226.075ZM225.878 233.125V220.975H227.578L227.753 223.175H227.828C228.245 222.408 228.745 221.8 229.328 221.35C229.928 220.9 230.578 220.675 231.278 220.675C231.761 220.675 232.195 220.758 232.578 220.925L232.178 222.725C231.978 222.658 231.795 222.608 231.628 222.575C231.461 222.542 231.253 222.525 231.003 222.525C230.486 222.525 229.945 222.733 229.378 223.15C228.828 223.567 228.345 224.292 227.928 225.325V233.125H225.878ZM237.622 233.425C236.756 233.425 235.931 233.267 235.147 232.95C234.364 232.633 233.681 232.233 233.097 231.75L234.122 230.375C234.656 230.808 235.197 231.158 235.747 231.425C236.314 231.692 236.964 231.825 237.697 231.825C238.497 231.825 239.097 231.642 239.497 231.275C239.897 230.908 240.097 230.458 240.097 229.925C240.097 229.608 240.014 229.333 239.847 229.1C239.681 228.867 239.464 228.667 239.197 228.5C238.947 228.317 238.656 228.158 238.322 228.025C237.989 227.892 237.656 227.758 237.322 227.625C236.889 227.475 236.456 227.308 236.022 227.125C235.589 226.925 235.197 226.692 234.847 226.425C234.514 226.142 234.239 225.817 234.022 225.45C233.806 225.083 233.697 224.642 233.697 224.125C233.697 223.642 233.789 223.192 233.972 222.775C234.172 222.342 234.447 221.975 234.797 221.675C235.164 221.358 235.606 221.117 236.122 220.95C236.639 220.767 237.222 220.675 237.872 220.675C238.639 220.675 239.339 220.808 239.972 221.075C240.622 221.342 241.181 221.667 241.647 222.05L240.672 223.35C240.256 223.033 239.822 222.775 239.372 222.575C238.922 222.375 238.431 222.275 237.897 222.275C237.131 222.275 236.564 222.45 236.197 222.8C235.847 223.15 235.672 223.558 235.672 224.025C235.672 224.308 235.747 224.558 235.897 224.775C236.047 224.975 236.247 225.158 236.497 225.325C236.747 225.475 237.031 225.617 237.347 225.75C237.681 225.867 238.022 225.992 238.372 226.125C238.806 226.292 239.239 226.467 239.672 226.65C240.122 226.833 240.522 227.067 240.872 227.35C241.222 227.617 241.506 227.95 241.722 228.35C241.956 228.75 242.072 229.233 242.072 229.8C242.072 230.3 241.972 230.767 241.772 231.2C241.589 231.633 241.306 232.017 240.922 232.35C240.556 232.683 240.089 232.942 239.522 233.125C238.972 233.325 238.339 233.425 237.622 233.425ZM249.846 233.425C249.029 233.425 248.263 233.283 247.546 233C246.846 232.7 246.229 232.283 245.696 231.75C245.179 231.2 244.771 230.533 244.471 229.75C244.171 228.967 244.021 228.075 244.021 227.075C244.021 226.075 244.171 225.183 244.471 224.4C244.788 223.6 245.196 222.925 245.696 222.375C246.213 221.825 246.796 221.408 247.446 221.125C248.096 220.825 248.771 220.675 249.471 220.675C250.238 220.675 250.921 220.808 251.521 221.075C252.138 221.342 252.646 221.725 253.046 222.225C253.463 222.725 253.779 223.325 253.996 224.025C254.213 224.725 254.321 225.508 254.321 226.375C254.321 226.592 254.313 226.808 254.296 227.025C254.296 227.225 254.279 227.4 254.246 227.55H246.046C246.129 228.85 246.529 229.883 247.246 230.65C247.979 231.4 248.929 231.775 250.096 231.775C250.679 231.775 251.213 231.692 251.696 231.525C252.196 231.342 252.671 231.108 253.121 230.825L253.846 232.175C253.313 232.508 252.721 232.8 252.071 233.05C251.421 233.3 250.679 233.425 249.846 233.425ZM246.021 226.075H252.521C252.521 224.842 252.254 223.908 251.721 223.275C251.204 222.625 250.471 222.3 249.521 222.3C249.088 222.3 248.671 222.383 248.271 222.55C247.888 222.717 247.538 222.967 247.221 223.3C246.904 223.617 246.638 224.008 246.421 224.475C246.221 224.942 246.088 225.475 246.021 226.075ZM249.146 218.8L248.096 217.775L251.621 213.6L253.071 214.975L249.146 218.8ZM262.248 233.425C261.432 233.425 260.665 233.283 259.948 233C259.248 232.7 258.632 232.283 258.098 231.75C257.582 231.2 257.173 230.533 256.873 229.75C256.573 228.967 256.423 228.075 256.423 227.075C256.423 226.075 256.573 225.183 256.873 224.4C257.19 223.6 257.598 222.925 258.098 222.375C258.615 221.825 259.198 221.408 259.848 221.125C260.498 220.825 261.173 220.675 261.873 220.675C262.64 220.675 263.323 220.808 263.923 221.075C264.54 221.342 265.048 221.725 265.448 222.225C265.865 222.725 266.182 223.325 266.398 224.025C266.615 224.725 266.723 225.508 266.723 226.375C266.723 226.592 266.715 226.808 266.698 227.025C266.698 227.225 266.682 227.4 266.648 227.55H258.448C258.532 228.85 258.932 229.883 259.648 230.65C260.382 231.4 261.332 231.775 262.498 231.775C263.082 231.775 263.615 231.692 264.098 231.525C264.598 231.342 265.073 231.108 265.523 230.825L266.248 232.175C265.715 232.508 265.123 232.8 264.473 233.05C263.823 233.3 263.082 233.425 262.248 233.425ZM258.423 226.075H264.923C264.923 224.842 264.657 223.908 264.123 223.275C263.607 222.625 262.873 222.3 261.923 222.3C261.49 222.3 261.073 222.383 260.673 222.55C260.29 222.717 259.94 222.967 259.623 223.3C259.307 223.617 259.04 224.008 258.823 224.475C258.623 224.942 258.49 225.475 258.423 226.075Z" fill="white"/>
</svg>
