<svg width="381" height="381" viewBox="0 0 381 381" fill="none" xmlns="http://www.w3.org/2000/svg">
<path d="M342.586 325.296C342.586 325.471 342.763 325.471 342.763 325.646C350.552 337.372 350.552 354.348 350.375 368.524" stroke="white" stroke-width="0.9124" stroke-miterlimit="10"/>
<path d="M333.38 317.596C319.749 310.071 298.86 306.92 294.612 292.919" stroke="white" stroke-width="0.9124" stroke-miterlimit="10"/>
<path d="M294.789 281.193C297.267 272.793 305.588 268.768 312.314 263.867C323.467 255.817 332.672 246.191 336.036 233.24" stroke="white" stroke-width="0.9124" stroke-miterlimit="10"/>
<path d="M319.75 167.436C320.458 171.811 321.874 176.187 323.998 180.387C331.256 193.863 337.629 206.114 337.452 221.515" stroke="white" stroke-width="0.9124" stroke-miterlimit="10"/>
<path d="M319.396 155.535C320.635 140.659 328.07 125.608 337.629 113.532" stroke="white" stroke-width="0.9124" stroke-miterlimit="10"/>
<path d="M345.772 104.607C348.25 102.332 350.552 100.232 353.03 98.4819C363.12 91.1314 372.149 79.5807 374.096 67.5049" stroke="white" stroke-width="0.9124" stroke-miterlimit="10"/>
<path d="M339.399 12.9004C341.701 35.8269 357.633 31.9766 368.077 45.2775C370.733 48.6027 372.503 52.103 373.388 55.6032" stroke="white" stroke-width="0.9124" stroke-miterlimit="10"/>
<path d="M339.045 12.9008C342.369 12.9008 345.064 10.2367 345.064 6.95039C345.064 3.66408 342.369 1 339.045 1C335.721 1 333.026 3.66408 333.026 6.95039C333.026 10.2367 335.721 12.9008 339.045 12.9008Z" fill="white" stroke="white" stroke-width="0.9124" stroke-miterlimit="10"/>
<path d="M350.375 380.25C353.699 380.25 356.394 377.586 356.394 374.3C356.394 371.013 353.699 368.349 350.375 368.349C347.051 368.349 344.356 371.013 344.356 374.3C344.356 377.586 347.051 380.25 350.375 380.25Z" stroke="white" stroke-width="0.9124" stroke-miterlimit="10"/>
<path d="M294.019 292.509C297.343 292.509 300.038 289.845 300.038 286.559C300.038 283.272 297.343 280.608 294.019 280.608C290.695 280.608 288 283.272 288 286.559C288 289.845 290.695 292.509 294.019 292.509Z" fill="white" stroke="white" stroke-width="0.9124" stroke-miterlimit="10"/>
<path d="M336.859 232.83C340.183 232.83 342.877 230.166 342.877 226.88C342.877 223.593 340.183 220.929 336.859 220.929C333.535 220.929 330.84 223.593 330.84 226.88C330.84 230.166 333.535 232.83 336.859 232.83Z" fill="white" stroke="white" stroke-width="0.9124" stroke-miterlimit="10"/>
<path d="M338.275 326.636C341.599 326.636 344.294 323.972 344.294 320.686C344.294 317.399 341.599 314.735 338.275 314.735C334.951 314.735 332.256 317.399 332.256 320.686C332.256 323.972 334.951 326.636 338.275 326.636Z" stroke="white" stroke-width="0.9124" stroke-miterlimit="10"/>
<path d="M319.333 167.026C322.657 167.026 325.352 164.362 325.352 161.075C325.352 157.789 322.657 155.125 319.333 155.125C316.009 155.125 313.314 157.789 313.314 161.075C313.314 164.362 316.009 167.026 319.333 167.026Z" fill="white" stroke="white" stroke-width="0.9124" stroke-miterlimit="10"/>
<path d="M374.096 67.5043C377.42 67.5043 380.115 64.8402 380.115 61.5539C380.115 58.2676 377.42 55.6035 374.096 55.6035C370.772 55.6035 368.077 58.2676 368.077 61.5539C368.077 64.8402 370.772 67.5043 374.096 67.5043Z" fill="white" stroke="white" stroke-width="0.9124" stroke-miterlimit="10"/>
<path d="M341.7 114.933C345.025 114.933 347.719 112.269 347.719 108.983C347.719 105.696 345.025 103.032 341.7 103.032C338.376 103.032 335.682 105.696 335.682 108.983C335.682 112.269 338.376 114.933 341.7 114.933Z" fill="white" stroke="white" stroke-width="0.9124" stroke-miterlimit="10"/>
<line x1="293.867" y1="287.625" x2="250" y2="287.625" stroke="white"/>
<path d="M63.3903 292.425C62.357 292.425 61.407 292.225 60.5403 291.825C59.6903 291.425 58.957 290.858 58.3403 290.125C57.7237 289.375 57.2403 288.475 56.8903 287.425C56.557 286.358 56.3903 285.167 56.3903 283.85C56.3903 282.533 56.557 281.358 56.8903 280.325C57.2403 279.275 57.7237 278.392 58.3403 277.675C58.957 276.942 59.6903 276.383 60.5403 276C61.407 275.617 62.357 275.425 63.3903 275.425C64.4237 275.425 65.3653 275.625 66.2153 276.025C67.082 276.408 67.8237 276.967 68.4403 277.7C69.0737 278.417 69.557 279.3 69.8903 280.35C70.2403 281.383 70.4153 282.55 70.4153 283.85C70.4153 285.167 70.2403 286.358 69.8903 287.425C69.557 288.475 69.0737 289.375 68.4403 290.125C67.8237 290.858 67.082 291.425 66.2153 291.825C65.3653 292.225 64.4237 292.425 63.3903 292.425ZM63.3903 290.6C64.1237 290.6 64.782 290.442 65.3653 290.125C65.9653 289.808 66.4737 289.358 66.8903 288.775C67.3237 288.175 67.657 287.467 67.8903 286.65C68.1237 285.817 68.2403 284.883 68.2403 283.85C68.2403 282.833 68.1237 281.917 67.8903 281.1C67.657 280.283 67.3237 279.592 66.8903 279.025C66.4737 278.458 65.9653 278.025 65.3653 277.725C64.782 277.408 64.1237 277.25 63.3903 277.25C62.657 277.25 61.9903 277.408 61.3903 277.725C60.807 278.025 60.2987 278.458 59.8653 279.025C59.4487 279.592 59.1237 280.283 58.8903 281.1C58.657 281.917 58.5403 282.833 58.5403 283.85C58.5403 284.883 58.657 285.817 58.8903 286.65C59.1237 287.467 59.4487 288.175 59.8653 288.775C60.2987 289.358 60.807 289.808 61.3903 290.125C61.9903 290.442 62.657 290.6 63.3903 290.6ZM77.2919 292.425C75.9919 292.425 75.0419 292.025 74.4419 291.225C73.8586 290.425 73.5669 289.242 73.5669 287.675V279.975H75.6419V287.4C75.6419 288.55 75.8169 289.383 76.1669 289.9C76.5336 290.4 77.1169 290.65 77.9169 290.65C78.5502 290.65 79.1086 290.492 79.5919 290.175C80.0752 289.842 80.6086 289.317 81.1919 288.6V279.975H83.2419V292.125H81.5419L81.3669 290.225H81.2919C80.7252 290.892 80.1252 291.425 79.4919 291.825C78.8752 292.225 78.1419 292.425 77.2919 292.425ZM78.8419 277.8L74.9169 273.975L76.3669 272.6L79.8919 276.775L78.8419 277.8ZM92.3454 297.25V279.975H94.0454L94.2204 281.375H94.2954C94.8454 280.908 95.4454 280.508 96.0954 280.175C96.7621 279.842 97.4537 279.675 98.1704 279.675C98.9537 279.675 99.6454 279.825 100.245 280.125C100.845 280.408 101.345 280.825 101.745 281.375C102.145 281.908 102.445 282.558 102.645 283.325C102.862 284.075 102.97 284.925 102.97 285.875C102.97 286.908 102.829 287.833 102.545 288.65C102.262 289.45 101.879 290.133 101.395 290.7C100.912 291.267 100.354 291.7 99.7204 292C99.0871 292.283 98.4204 292.425 97.7204 292.425C97.1537 292.425 96.5871 292.3 96.0204 292.05C95.4704 291.8 94.9121 291.458 94.3454 291.025L94.3954 293.15V297.25H92.3454ZM97.3704 290.7C97.8704 290.7 98.3287 290.592 98.7454 290.375C99.1787 290.142 99.5454 289.825 99.8454 289.425C100.162 289.008 100.404 288.5 100.57 287.9C100.754 287.3 100.845 286.625 100.845 285.875C100.845 285.208 100.787 284.6 100.67 284.05C100.554 283.5 100.362 283.033 100.095 282.65C99.8454 282.25 99.5121 281.942 99.0954 281.725C98.6954 281.508 98.2121 281.4 97.6454 281.4C97.1287 281.4 96.6037 281.542 96.0704 281.825C95.5537 282.108 94.9954 282.517 94.3954 283.05V289.425C94.9454 289.892 95.4787 290.225 95.9954 290.425C96.5121 290.608 96.9704 290.7 97.3704 290.7ZM108.671 292.425C107.654 292.425 106.804 292.125 106.121 291.525C105.454 290.925 105.121 290.075 105.121 288.975C105.121 287.642 105.712 286.625 106.896 285.925C108.079 285.208 109.971 284.708 112.571 284.425C112.571 284.042 112.529 283.667 112.446 283.3C112.379 282.933 112.254 282.608 112.071 282.325C111.887 282.042 111.629 281.817 111.296 281.65C110.979 281.467 110.571 281.375 110.071 281.375C109.371 281.375 108.712 281.508 108.096 281.775C107.479 282.042 106.929 282.342 106.446 282.675L105.646 281.25C106.212 280.883 106.904 280.533 107.721 280.2C108.537 279.85 109.437 279.675 110.421 279.675C111.904 279.675 112.979 280.133 113.646 281.05C114.312 281.95 114.646 283.158 114.646 284.675V292.125H112.946L112.771 290.675H112.696C112.112 291.158 111.487 291.575 110.821 291.925C110.154 292.258 109.437 292.425 108.671 292.425ZM109.271 290.775C109.854 290.775 110.404 290.642 110.921 290.375C111.437 290.092 111.987 289.683 112.571 289.15V285.775C111.554 285.908 110.696 286.067 109.996 286.25C109.312 286.433 108.754 286.65 108.321 286.9C107.904 287.15 107.596 287.442 107.396 287.775C107.212 288.092 107.121 288.442 107.121 288.825C107.121 289.525 107.329 290.025 107.746 290.325C108.162 290.625 108.671 290.775 109.271 290.775ZM121.643 292.425C120.777 292.425 119.952 292.267 119.168 291.95C118.385 291.633 117.702 291.233 117.118 290.75L118.143 289.375C118.677 289.808 119.218 290.158 119.768 290.425C120.335 290.692 120.985 290.825 121.718 290.825C122.518 290.825 123.118 290.642 123.518 290.275C123.918 289.908 124.118 289.458 124.118 288.925C124.118 288.608 124.035 288.333 123.868 288.1C123.702 287.867 123.485 287.667 123.218 287.5C122.968 287.317 122.677 287.158 122.343 287.025C122.01 286.892 121.677 286.758 121.343 286.625C120.91 286.475 120.477 286.308 120.043 286.125C119.61 285.925 119.218 285.692 118.868 285.425C118.535 285.142 118.26 284.817 118.043 284.45C117.827 284.083 117.718 283.642 117.718 283.125C117.718 282.642 117.81 282.192 117.993 281.775C118.193 281.342 118.468 280.975 118.818 280.675C119.185 280.358 119.627 280.117 120.143 279.95C120.66 279.767 121.243 279.675 121.893 279.675C122.66 279.675 123.36 279.808 123.993 280.075C124.643 280.342 125.202 280.667 125.668 281.05L124.693 282.35C124.277 282.033 123.843 281.775 123.393 281.575C122.943 281.375 122.452 281.275 121.918 281.275C121.152 281.275 120.585 281.45 120.218 281.8C119.868 282.15 119.693 282.558 119.693 283.025C119.693 283.308 119.768 283.558 119.918 283.775C120.068 283.975 120.268 284.158 120.518 284.325C120.768 284.475 121.052 284.617 121.368 284.75C121.702 284.867 122.043 284.992 122.393 285.125C122.827 285.292 123.26 285.467 123.693 285.65C124.143 285.833 124.543 286.067 124.893 286.35C125.243 286.617 125.527 286.95 125.743 287.35C125.977 287.75 126.093 288.233 126.093 288.8C126.093 289.3 125.993 289.767 125.793 290.2C125.61 290.633 125.327 291.017 124.943 291.35C124.577 291.683 124.11 291.942 123.543 292.125C122.993 292.325 122.36 292.425 121.643 292.425ZM132.117 292.425C131.25 292.425 130.425 292.267 129.642 291.95C128.859 291.633 128.175 291.233 127.592 290.75L128.617 289.375C129.15 289.808 129.692 290.158 130.242 290.425C130.809 290.692 131.459 290.825 132.192 290.825C132.992 290.825 133.592 290.642 133.992 290.275C134.392 289.908 134.592 289.458 134.592 288.925C134.592 288.608 134.509 288.333 134.342 288.1C134.175 287.867 133.959 287.667 133.692 287.5C133.442 287.317 133.15 287.158 132.817 287.025C132.484 286.892 132.15 286.758 131.817 286.625C131.384 286.475 130.95 286.308 130.517 286.125C130.084 285.925 129.692 285.692 129.342 285.425C129.009 285.142 128.734 284.817 128.517 284.45C128.3 284.083 128.192 283.642 128.192 283.125C128.192 282.642 128.284 282.192 128.467 281.775C128.667 281.342 128.942 280.975 129.292 280.675C129.659 280.358 130.1 280.117 130.617 279.95C131.134 279.767 131.717 279.675 132.367 279.675C133.134 279.675 133.834 279.808 134.467 280.075C135.117 280.342 135.675 280.667 136.142 281.05L135.167 282.35C134.75 282.033 134.317 281.775 133.867 281.575C133.417 281.375 132.925 281.275 132.392 281.275C131.625 281.275 131.059 281.45 130.692 281.8C130.342 282.15 130.167 282.558 130.167 283.025C130.167 283.308 130.242 283.558 130.392 283.775C130.542 283.975 130.742 284.158 130.992 284.325C131.242 284.475 131.525 284.617 131.842 284.75C132.175 284.867 132.517 284.992 132.867 285.125C133.3 285.292 133.734 285.467 134.167 285.65C134.617 285.833 135.017 286.067 135.367 286.35C135.717 286.617 136 286.95 136.217 287.35C136.45 287.75 136.567 288.233 136.567 288.8C136.567 289.3 136.467 289.767 136.267 290.2C136.084 290.633 135.8 291.017 135.417 291.35C135.05 291.683 134.584 291.942 134.017 292.125C133.467 292.325 132.834 292.425 132.117 292.425ZM144.341 292.425C143.524 292.425 142.757 292.283 142.041 292C141.341 291.7 140.724 291.283 140.191 290.75C139.674 290.2 139.266 289.533 138.966 288.75C138.666 287.967 138.516 287.075 138.516 286.075C138.516 285.075 138.666 284.183 138.966 283.4C139.282 282.6 139.691 281.925 140.191 281.375C140.707 280.825 141.291 280.408 141.941 280.125C142.591 279.825 143.266 279.675 143.966 279.675C144.732 279.675 145.416 279.808 146.016 280.075C146.632 280.342 147.141 280.725 147.541 281.225C147.957 281.725 148.274 282.325 148.491 283.025C148.707 283.725 148.816 284.508 148.816 285.375C148.816 285.592 148.807 285.808 148.791 286.025C148.791 286.225 148.774 286.4 148.741 286.55H140.541C140.624 287.85 141.024 288.883 141.741 289.65C142.474 290.4 143.424 290.775 144.591 290.775C145.174 290.775 145.707 290.692 146.191 290.525C146.691 290.342 147.166 290.108 147.616 289.825L148.341 291.175C147.807 291.508 147.216 291.8 146.566 292.05C145.916 292.3 145.174 292.425 144.341 292.425ZM140.516 285.075H147.016C147.016 283.842 146.749 282.908 146.216 282.275C145.699 281.625 144.966 281.3 144.016 281.3C143.582 281.3 143.166 281.383 142.766 281.55C142.382 281.717 142.032 281.967 141.716 282.3C141.399 282.617 141.132 283.008 140.916 283.475C140.716 283.942 140.582 284.475 140.516 285.075ZM151.818 292.125V279.975H153.518L153.693 282.175H153.768C154.185 281.408 154.685 280.8 155.268 280.35C155.868 279.9 156.518 279.675 157.218 279.675C157.701 279.675 158.135 279.758 158.518 279.925L158.118 281.725C157.918 281.658 157.735 281.608 157.568 281.575C157.401 281.542 157.193 281.525 156.943 281.525C156.426 281.525 155.885 281.733 155.318 282.15C154.768 282.567 154.285 283.292 153.868 284.325V292.125H151.818ZM167.665 292.425C166.882 292.425 166.323 292.192 165.99 291.725C165.657 291.258 165.49 290.575 165.49 289.675V274.325H167.54V289.825C167.54 290.158 167.598 290.392 167.715 290.525C167.832 290.658 167.965 290.725 168.115 290.725C168.182 290.725 168.24 290.725 168.29 290.725C168.357 290.725 168.448 290.708 168.565 290.675L168.84 292.225C168.707 292.292 168.548 292.342 168.365 292.375C168.182 292.408 167.948 292.425 167.665 292.425ZM174.662 292.425C173.645 292.425 172.795 292.125 172.112 291.525C171.445 290.925 171.112 290.075 171.112 288.975C171.112 287.642 171.704 286.625 172.887 285.925C174.07 285.208 175.962 284.708 178.562 284.425C178.562 284.042 178.52 283.667 178.437 283.3C178.37 282.933 178.245 282.608 178.062 282.325C177.879 282.042 177.62 281.817 177.287 281.65C176.97 281.467 176.562 281.375 176.062 281.375C175.362 281.375 174.704 281.508 174.087 281.775C173.47 282.042 172.92 282.342 172.437 282.675L171.637 281.25C172.204 280.883 172.895 280.533 173.712 280.2C174.529 279.85 175.429 279.675 176.412 279.675C177.895 279.675 178.97 280.133 179.637 281.05C180.304 281.95 180.637 283.158 180.637 284.675V292.125H178.937L178.762 290.675H178.687C178.104 291.158 177.479 291.575 176.812 291.925C176.145 292.258 175.429 292.425 174.662 292.425ZM175.262 290.775C175.845 290.775 176.395 290.642 176.912 290.375C177.429 290.092 177.979 289.683 178.562 289.15V285.775C177.545 285.908 176.687 286.067 175.987 286.25C175.304 286.433 174.745 286.65 174.312 286.9C173.895 287.15 173.587 287.442 173.387 287.775C173.204 288.092 173.112 288.442 173.112 288.825C173.112 289.525 173.32 290.025 173.737 290.325C174.154 290.625 174.662 290.775 175.262 290.775ZM189.465 292.125V279.975H191.165L191.34 281.725H191.415C191.998 281.142 192.606 280.658 193.24 280.275C193.89 279.875 194.64 279.675 195.49 279.675C196.773 279.675 197.706 280.075 198.29 280.875C198.89 281.675 199.19 282.858 199.19 284.425V292.125H197.14V284.7C197.14 283.55 196.956 282.725 196.59 282.225C196.223 281.708 195.64 281.45 194.84 281.45C194.206 281.45 193.648 281.608 193.165 281.925C192.681 282.242 192.131 282.708 191.515 283.325V292.125H189.465ZM206.686 292.425C205.386 292.425 204.436 292.025 203.836 291.225C203.253 290.425 202.961 289.242 202.961 287.675V279.975H205.036V287.4C205.036 288.55 205.211 289.383 205.561 289.9C205.928 290.4 206.511 290.65 207.311 290.65C207.945 290.65 208.503 290.492 208.986 290.175C209.47 289.842 210.003 289.317 210.586 288.6V279.975H212.636V292.125H210.936L210.761 290.225H210.686C210.12 290.892 209.52 291.425 208.886 291.825C208.27 292.225 207.536 292.425 206.686 292.425ZM216.735 292.125V279.975H218.785V292.125H216.735ZM217.785 277.475C217.385 277.475 217.043 277.35 216.76 277.1C216.493 276.85 216.36 276.533 216.36 276.15C216.36 275.75 216.493 275.433 216.76 275.2C217.043 274.95 217.385 274.825 217.785 274.825C218.185 274.825 218.518 274.95 218.785 275.2C219.068 275.433 219.21 275.75 219.21 276.15C219.21 276.533 219.068 276.85 218.785 277.1C218.518 277.35 218.185 277.475 217.785 277.475ZM226.712 292.425C226.062 292.425 225.512 292.325 225.062 292.125C224.629 291.925 224.271 291.65 223.987 291.3C223.721 290.95 223.529 290.525 223.412 290.025C223.296 289.525 223.237 288.975 223.237 288.375V281.65H221.437V280.1L223.337 279.975L223.587 276.575H225.312V279.975H228.587V281.65H225.312V288.4C225.312 289.15 225.446 289.733 225.712 290.15C225.996 290.55 226.487 290.75 227.187 290.75C227.404 290.75 227.637 290.717 227.887 290.65C228.137 290.583 228.362 290.508 228.562 290.425L228.962 291.975C228.629 292.092 228.262 292.192 227.862 292.275C227.479 292.375 227.096 292.425 226.712 292.425ZM238.29 287.175C238.19 286.525 238.206 285.942 238.34 285.425C238.49 284.892 238.69 284.408 238.94 283.975C239.19 283.525 239.473 283.108 239.79 282.725C240.123 282.342 240.431 281.967 240.715 281.6C240.998 281.217 241.231 280.833 241.415 280.45C241.615 280.067 241.715 279.65 241.715 279.2C241.715 278.533 241.506 277.967 241.09 277.5C240.69 277.017 240.09 276.775 239.29 276.775C238.74 276.775 238.215 276.908 237.715 277.175C237.231 277.425 236.798 277.775 236.415 278.225L235.24 277.15C235.773 276.55 236.39 276.058 237.09 275.675C237.806 275.275 238.623 275.075 239.54 275.075C240.806 275.075 241.815 275.433 242.565 276.15C243.331 276.85 243.715 277.825 243.715 279.075C243.715 279.625 243.615 280.125 243.415 280.575C243.215 281.025 242.965 281.45 242.665 281.85C242.381 282.25 242.073 282.65 241.74 283.05C241.423 283.433 241.123 283.833 240.84 284.25C240.573 284.667 240.365 285.117 240.215 285.6C240.065 286.067 240.023 286.592 240.09 287.175H238.29ZM239.24 292.425C238.823 292.425 238.473 292.283 238.19 292C237.906 291.7 237.765 291.325 237.765 290.875C237.765 290.392 237.906 290.008 238.19 289.725C238.473 289.425 238.823 289.275 239.24 289.275C239.656 289.275 240.006 289.425 240.29 289.725C240.59 290.008 240.74 290.392 240.74 290.875C240.74 291.325 240.59 291.7 240.29 292C240.006 292.283 239.656 292.425 239.24 292.425Z" fill="white"/>
</svg>
