<svg width="331" height="393" viewBox="0 0 331 393" fill="none" xmlns="http://www.w3.org/2000/svg">
<path d="M292.586 337.171C292.586 337.346 292.763 337.346 292.763 337.521C300.552 349.247 300.552 366.223 300.375 380.399" stroke="#485F62" stroke-width="0.9124" stroke-miterlimit="10"/>
<path d="M283.38 329.471C269.749 321.946 248.86 318.795 244.612 304.794" stroke="#485F62" stroke-width="0.9124" stroke-miterlimit="10"/>
<path d="M244.789 293.068C247.267 284.668 255.588 280.643 262.314 275.742C273.467 267.692 282.672 258.066 286.036 245.115" stroke="#485F62" stroke-width="0.9124" stroke-miterlimit="10"/>
<path d="M269.75 179.311C270.458 183.686 271.874 188.062 273.998 192.262C281.256 205.738 287.629 217.989 287.452 233.39" stroke="#485F62" stroke-width="0.9124" stroke-miterlimit="10"/>
<path d="M269.396 167.41C270.635 152.534 278.07 137.483 287.629 125.407" stroke="#485F62" stroke-width="0.9124" stroke-miterlimit="10"/>
<path d="M295.772 116.482C298.25 114.207 300.552 112.107 303.03 110.357C313.12 103.006 322.149 91.4557 324.096 79.3799" stroke="#485F62" stroke-width="0.9124" stroke-miterlimit="10"/>
<path d="M289.399 24.7754C291.701 47.7019 307.633 43.8516 318.077 57.1525C320.733 60.4777 322.503 63.978 323.388 67.4782" stroke="#485F62" stroke-width="0.9124" stroke-miterlimit="10"/>
<path d="M289.045 24.7758C292.369 24.7758 295.064 22.1117 295.064 18.8254C295.064 15.5391 292.369 12.875 289.045 12.875C285.721 12.875 283.026 15.5391 283.026 18.8254C283.026 22.1117 285.721 24.7758 289.045 24.7758Z" fill="#485F62" stroke="#485F62" stroke-width="0.9124" stroke-miterlimit="10"/>
<path d="M300.375 392.125C303.699 392.125 306.394 389.461 306.394 386.175C306.394 382.888 303.699 380.224 300.375 380.224C297.051 380.224 294.356 382.888 294.356 386.175C294.356 389.461 297.051 392.125 300.375 392.125Z" stroke="#485F62" stroke-width="0.9124" stroke-miterlimit="10"/>
<path d="M244.019 304.384C247.343 304.384 250.038 301.72 250.038 298.434C250.038 295.147 247.343 292.483 244.019 292.483C240.695 292.483 238 295.147 238 298.434C238 301.72 240.695 304.384 244.019 304.384Z" stroke="#485F62" stroke-width="0.9124" stroke-miterlimit="10"/>
<path d="M286.859 244.705C290.183 244.705 292.877 242.041 292.877 238.755C292.877 235.468 290.183 232.804 286.859 232.804C283.535 232.804 280.84 235.468 280.84 238.755C280.84 242.041 283.535 244.705 286.859 244.705Z" stroke="#485F62" stroke-width="0.9124" stroke-miterlimit="10"/>
<path d="M288.275 338.511C291.599 338.511 294.294 335.847 294.294 332.561C294.294 329.274 291.599 326.61 288.275 326.61C284.951 326.61 282.256 329.274 282.256 332.561C282.256 335.847 284.951 338.511 288.275 338.511Z" stroke="#485F62" stroke-width="0.9124" stroke-miterlimit="10"/>
<path d="M269.333 178.901C272.657 178.901 275.352 176.237 275.352 172.95C275.352 169.664 272.657 167 269.333 167C266.009 167 263.314 169.664 263.314 172.95C263.314 176.237 266.009 178.901 269.333 178.901Z" stroke="#485F62" stroke-width="0.9124" stroke-miterlimit="10"/>
<path d="M324.096 79.3793C327.42 79.3793 330.115 76.7152 330.115 73.4289C330.115 70.1426 327.42 67.4785 324.096 67.4785C320.772 67.4785 318.077 70.1426 318.077 73.4289C318.077 76.7152 320.772 79.3793 324.096 79.3793Z" stroke="#485F62" stroke-width="0.9124" stroke-miterlimit="10"/>
<path d="M291.7 126.808C295.025 126.808 297.719 124.144 297.719 120.858C297.719 117.571 295.025 114.907 291.7 114.907C288.376 114.907 285.682 117.571 285.682 120.858C285.682 124.144 288.376 126.808 291.7 126.808Z" stroke="#485F62" stroke-width="0.9124" stroke-miterlimit="10"/>
<line x1="289.64" y1="18.7666" x2="245.773" y2="18.7666" stroke="#485F62"/>
<path d="M60.0991 24V7.6H64.7741C65.6908 7.6 66.5241 7.68333 67.2741 7.85C68.0408 8.01667 68.6908 8.29167 69.2241 8.675C69.7575 9.04167 70.1741 9.53333 70.4741 10.15C70.7741 10.7667 70.9241 11.525 70.9241 12.425C70.9241 13.2917 70.7741 14.0417 70.4741 14.675C70.1908 15.3083 69.7825 15.8333 69.2491 16.25C68.7158 16.6667 68.0741 16.9833 67.3241 17.2C66.5908 17.4 65.7741 17.5 64.8741 17.5H62.1741V24H60.0991ZM62.1741 15.8H64.6241C66.0575 15.8 67.1158 15.5333 67.7991 15C68.4991 14.45 68.8491 13.5917 68.8491 12.425C68.8491 11.2417 68.4825 10.425 67.7491 9.975C67.0325 9.50833 65.9575 9.275 64.5241 9.275H62.1741V15.8ZM75.7851 24.3C74.7684 24.3 73.9184 24 73.2351 23.4C72.5684 22.8 72.2351 21.95 72.2351 20.85C72.2351 19.5167 72.8267 18.5 74.0101 17.8C75.1934 17.0833 77.0851 16.5833 79.6851 16.3C79.6851 15.9167 79.6434 15.5417 79.5601 15.175C79.4934 14.8083 79.3684 14.4833 79.1851 14.2C79.0017 13.9167 78.7434 13.6917 78.4101 13.525C78.0934 13.3417 77.6851 13.25 77.1851 13.25C76.4851 13.25 75.8267 13.3833 75.2101 13.65C74.5934 13.9167 74.0434 14.2167 73.5601 14.55L72.7601 13.125C73.3267 12.7583 74.0184 12.4083 74.8351 12.075C75.6517 11.725 76.5517 11.55 77.5351 11.55C79.0184 11.55 80.0934 12.0083 80.7601 12.925C81.4267 13.825 81.7601 15.0333 81.7601 16.55V24H80.0601L79.8851 22.55H79.8101C79.2267 23.0333 78.6017 23.45 77.9351 23.8C77.2684 24.1333 76.5517 24.3 75.7851 24.3ZM76.3851 22.65C76.9684 22.65 77.5184 22.5167 78.0351 22.25C78.5517 21.9667 79.1017 21.5583 79.6851 21.025V17.65C78.6684 17.7833 77.8101 17.9417 77.1101 18.125C76.4267 18.3083 75.8684 18.525 75.4351 18.775C75.0184 19.025 74.7101 19.3167 74.5101 19.65C74.3267 19.9667 74.2351 20.3167 74.2351 20.7C74.2351 21.4 74.4434 21.9 74.8601 22.2C75.2767 22.5 75.7851 22.65 76.3851 22.65ZM85.5827 24V11.85H87.2827L87.4577 14.05H87.5327C87.9494 13.2833 88.4494 12.675 89.0327 12.225C89.6327 11.775 90.2827 11.55 90.9827 11.55C91.466 11.55 91.8994 11.6333 92.2827 11.8L91.8827 13.6C91.6827 13.5333 91.4994 13.4833 91.3327 13.45C91.166 13.4167 90.9577 13.4 90.7077 13.4C90.191 13.4 89.6494 13.6083 89.0827 14.025C88.5327 14.4417 88.0494 15.1667 87.6327 16.2V24H85.5827ZM98.0747 24.3C97.4247 24.3 96.8747 24.2 96.4247 24C95.9914 23.8 95.633 23.525 95.3497 23.175C95.083 22.825 94.8914 22.4 94.7747 21.9C94.658 21.4 94.5997 20.85 94.5997 20.25V13.525H92.7997V11.975L94.6997 11.85L94.9497 8.45H96.6747V11.85H99.9497V13.525H96.6747V20.275C96.6747 21.025 96.808 21.6083 97.0747 22.025C97.358 22.425 97.8497 22.625 98.5497 22.625C98.7664 22.625 98.9997 22.5917 99.2497 22.525C99.4997 22.4583 99.7247 22.3833 99.9247 22.3L100.325 23.85C99.9914 23.9667 99.6247 24.0667 99.2247 24.15C98.8414 24.25 98.458 24.3 98.0747 24.3ZM102.697 24V11.85H104.747V24H102.697ZM103.747 9.35C103.347 9.35 103.005 9.225 102.722 8.975C102.455 8.725 102.322 8.40833 102.322 8.025C102.322 7.625 102.455 7.30833 102.722 7.075C103.005 6.825 103.347 6.7 103.747 6.7C104.147 6.7 104.48 6.825 104.747 7.075C105.03 7.30833 105.172 7.625 105.172 8.025C105.172 8.40833 105.03 8.725 104.747 8.975C104.48 9.225 104.147 9.35 103.747 9.35ZM108.849 24V11.85H110.549L110.724 14.05H110.799C111.216 13.2833 111.716 12.675 112.299 12.225C112.899 11.775 113.549 11.55 114.249 11.55C114.733 11.55 115.166 11.6333 115.549 11.8L115.149 13.6C114.949 13.5333 114.766 13.4833 114.599 13.45C114.433 13.4167 114.224 13.4 113.974 13.4C113.458 13.4 112.916 13.6083 112.349 14.025C111.799 14.4417 111.316 15.1667 110.899 16.2V24H108.849ZM125.321 24.3C124.305 24.3 123.455 24 122.771 23.4C122.105 22.8 121.771 21.95 121.771 20.85C121.771 19.5167 122.363 18.5 123.546 17.8C124.73 17.0833 126.621 16.5833 129.221 16.3C129.221 15.9167 129.18 15.5417 129.096 15.175C129.03 14.8083 128.905 14.4833 128.721 14.2C128.538 13.9167 128.28 13.6917 127.946 13.525C127.63 13.3417 127.221 13.25 126.721 13.25C126.021 13.25 125.363 13.3833 124.746 13.65C124.13 13.9167 123.58 14.2167 123.096 14.55L122.296 13.125C122.863 12.7583 123.555 12.4083 124.371 12.075C125.188 11.725 126.088 11.55 127.071 11.55C128.555 11.55 129.63 12.0083 130.296 12.925C130.963 13.825 131.296 15.0333 131.296 16.55V24H129.596L129.421 22.55H129.346C128.763 23.0333 128.138 23.45 127.471 23.8C126.805 24.1333 126.088 24.3 125.321 24.3ZM125.921 22.65C126.505 22.65 127.055 22.5167 127.571 22.25C128.088 21.9667 128.638 21.5583 129.221 21.025V17.65C128.205 17.7833 127.346 17.9417 126.646 18.125C125.963 18.3083 125.405 18.525 124.971 18.775C124.555 19.025 124.246 19.3167 124.046 19.65C123.863 19.9667 123.771 20.3167 123.771 20.7C123.771 21.4 123.98 21.9 124.396 22.2C124.813 22.5 125.321 22.65 125.921 22.65ZM127.371 9.675L123.446 5.85L124.896 4.475L128.421 8.65L127.371 9.675ZM142.299 24.3C141.515 24.3 140.957 24.0667 140.624 23.6C140.29 23.1333 140.124 22.45 140.124 21.55V6.2H142.174V21.7C142.174 22.0333 142.232 22.2667 142.349 22.4C142.465 22.5333 142.599 22.6 142.749 22.6C142.815 22.6 142.874 22.6 142.924 22.6C142.99 22.6 143.082 22.5833 143.199 22.55L143.474 24.1C143.34 24.1667 143.182 24.2167 142.999 24.25C142.815 24.2833 142.582 24.3 142.299 24.3ZM146.596 13.225L146.021 12.275C146.654 11.8583 147.121 11.4167 147.421 10.95C147.737 10.4667 147.896 9.86667 147.896 9.15C147.846 9.16667 147.779 9.175 147.696 9.175C147.346 9.175 147.037 9.06667 146.771 8.85C146.504 8.63333 146.371 8.325 146.371 7.925C146.371 7.49167 146.496 7.15 146.746 6.9C146.996 6.65 147.312 6.525 147.696 6.525C148.179 6.525 148.562 6.725 148.846 7.125C149.129 7.50833 149.271 8.06667 149.271 8.8C149.271 9.8 149.037 10.6667 148.571 11.4C148.121 12.1167 147.462 12.725 146.596 13.225ZM153.886 24.3C152.869 24.3 152.019 24 151.336 23.4C150.669 22.8 150.336 21.95 150.336 20.85C150.336 19.5167 150.927 18.5 152.111 17.8C153.294 17.0833 155.186 16.5833 157.786 16.3C157.786 15.9167 157.744 15.5417 157.661 15.175C157.594 14.8083 157.469 14.4833 157.286 14.2C157.102 13.9167 156.844 13.6917 156.511 13.525C156.194 13.3417 155.786 13.25 155.286 13.25C154.586 13.25 153.927 13.3833 153.311 13.65C152.694 13.9167 152.144 14.2167 151.661 14.55L150.861 13.125C151.427 12.7583 152.119 12.4083 152.936 12.075C153.752 11.725 154.652 11.55 155.636 11.55C157.119 11.55 158.194 12.0083 158.861 12.925C159.527 13.825 159.861 15.0333 159.861 16.55V24H158.161L157.986 22.55H157.911C157.327 23.0333 156.702 23.45 156.036 23.8C155.369 24.1333 154.652 24.3 153.886 24.3ZM154.486 22.65C155.069 22.65 155.619 22.5167 156.136 22.25C156.652 21.9667 157.202 21.5583 157.786 21.025V17.65C156.769 17.7833 155.911 17.9417 155.211 18.125C154.527 18.3083 153.969 18.525 153.536 18.775C153.119 19.025 152.811 19.3167 152.611 19.65C152.427 19.9667 152.336 20.3167 152.336 20.7C152.336 21.4 152.544 21.9 152.961 22.2C153.377 22.5 153.886 22.65 154.486 22.65ZM166.308 24L161.933 11.85H164.058L166.358 18.75C166.542 19.35 166.725 19.95 166.908 20.55C167.108 21.15 167.3 21.7417 167.483 22.325H167.583C167.767 21.7417 167.95 21.15 168.133 20.55C168.317 19.95 168.5 19.35 168.683 18.75L170.983 11.85H173.008L168.708 24H166.308ZM180.181 24.3C179.364 24.3 178.597 24.1583 177.881 23.875C177.181 23.575 176.564 23.1583 176.031 22.625C175.514 22.075 175.106 21.4083 174.806 20.625C174.506 19.8417 174.356 18.95 174.356 17.95C174.356 16.95 174.506 16.0583 174.806 15.275C175.122 14.475 175.531 13.8 176.031 13.25C176.547 12.7 177.131 12.2833 177.781 12C178.431 11.7 179.106 11.55 179.806 11.55C180.572 11.55 181.256 11.6833 181.856 11.95C182.472 12.2167 182.981 12.6 183.381 13.1C183.797 13.6 184.114 14.2 184.331 14.9C184.547 15.6 184.656 16.3833 184.656 17.25C184.656 17.4667 184.647 17.6833 184.631 17.9C184.631 18.1 184.614 18.275 184.581 18.425H176.381C176.464 19.725 176.864 20.7583 177.581 21.525C178.314 22.275 179.264 22.65 180.431 22.65C181.014 22.65 181.547 22.5667 182.031 22.4C182.531 22.2167 183.006 21.9833 183.456 21.7L184.181 23.05C183.647 23.3833 183.056 23.675 182.406 23.925C181.756 24.175 181.014 24.3 180.181 24.3ZM176.356 16.95H182.856C182.856 15.7167 182.589 14.7833 182.056 14.15C181.539 13.5 180.806 13.175 179.856 13.175C179.422 13.175 179.006 13.2583 178.606 13.425C178.222 13.5917 177.872 13.8417 177.556 14.175C177.239 14.4917 176.972 14.8833 176.756 15.35C176.556 15.8167 176.422 16.35 176.356 16.95ZM187.658 24V11.85H189.358L189.533 13.6H189.608C190.191 13.0167 190.8 12.5333 191.433 12.15C192.083 11.75 192.833 11.55 193.683 11.55C194.966 11.55 195.9 11.95 196.483 12.75C197.083 13.55 197.383 14.7333 197.383 16.3V24H195.333V16.575C195.333 15.425 195.15 14.6 194.783 14.1C194.416 13.5833 193.833 13.325 193.033 13.325C192.4 13.325 191.841 13.4833 191.358 13.8C190.875 14.1167 190.325 14.5833 189.708 15.2V24H187.658ZM205.155 24.3C204.505 24.3 203.955 24.2 203.505 24C203.071 23.8 202.713 23.525 202.43 23.175C202.163 22.825 201.971 22.4 201.855 21.9C201.738 21.4 201.68 20.85 201.68 20.25V13.525H199.88V11.975L201.78 11.85L202.03 8.45H203.755V11.85H207.03V13.525H203.755V20.275C203.755 21.025 203.888 21.6083 204.155 22.025C204.438 22.425 204.93 22.625 205.63 22.625C205.846 22.625 206.08 22.5917 206.33 22.525C206.58 22.4583 206.805 22.3833 207.005 22.3L207.405 23.85C207.071 23.9667 206.705 24.0667 206.305 24.15C205.921 24.25 205.538 24.3 205.155 24.3ZM213.327 24.3C212.027 24.3 211.077 23.9 210.477 23.1C209.894 22.3 209.602 21.1167 209.602 19.55V11.85H211.677V19.275C211.677 20.425 211.852 21.2583 212.202 21.775C212.569 22.275 213.152 22.525 213.952 22.525C214.585 22.525 215.144 22.3667 215.627 22.05C216.11 21.7167 216.644 21.1917 217.227 20.475V11.85H219.277V24H217.577L217.402 22.1H217.327C216.76 22.7667 216.16 23.3 215.527 23.7C214.91 24.1 214.177 24.3 213.327 24.3ZM223.376 24V11.85H225.076L225.251 14.05H225.326C225.742 13.2833 226.242 12.675 226.826 12.225C227.426 11.775 228.076 11.55 228.776 11.55C229.259 11.55 229.692 11.6333 230.076 11.8L229.676 13.6C229.476 13.5333 229.292 13.4833 229.126 13.45C228.959 13.4167 228.751 13.4 228.501 13.4C227.984 13.4 227.442 13.6083 226.876 14.025C226.326 14.4417 225.842 15.1667 225.426 16.2V24H223.376ZM236.724 24.3C235.907 24.3 235.14 24.1583 234.424 23.875C233.724 23.575 233.107 23.1583 232.574 22.625C232.057 22.075 231.649 21.4083 231.349 20.625C231.049 19.8417 230.899 18.95 230.899 17.95C230.899 16.95 231.049 16.0583 231.349 15.275C231.665 14.475 232.074 13.8 232.574 13.25C233.09 12.7 233.674 12.2833 234.324 12C234.974 11.7 235.649 11.55 236.349 11.55C237.115 11.55 237.799 11.6833 238.399 11.95C239.015 12.2167 239.524 12.6 239.924 13.1C240.34 13.6 240.657 14.2 240.874 14.9C241.09 15.6 241.199 16.3833 241.199 17.25C241.199 17.4667 241.19 17.6833 241.174 17.9C241.174 18.1 241.157 18.275 241.124 18.425H232.924C233.007 19.725 233.407 20.7583 234.124 21.525C234.857 22.275 235.807 22.65 236.974 22.65C237.557 22.65 238.09 22.5667 238.574 22.4C239.074 22.2167 239.549 21.9833 239.999 21.7L240.724 23.05C240.19 23.3833 239.599 23.675 238.949 23.925C238.299 24.175 237.557 24.3 236.724 24.3ZM232.899 16.95H239.399C239.399 15.7167 239.132 14.7833 238.599 14.15C238.082 13.5 237.349 13.175 236.399 13.175C235.965 13.175 235.549 13.2583 235.149 13.425C234.765 13.5917 234.415 13.8417 234.099 14.175C233.782 14.4917 233.515 14.8833 233.299 15.35C233.099 15.8167 232.965 16.35 232.899 16.95Z" fill="#485F62"/>
</svg>
