<svg width="381" height="381" viewBox="0 0 381 381" fill="none" xmlns="http://www.w3.org/2000/svg">
<path d="M342.586 325.171C342.586 325.346 342.763 325.346 342.763 325.521C350.552 337.247 350.552 354.223 350.375 368.399" stroke="#485F62" stroke-width="0.9124" stroke-miterlimit="10"/>
<path d="M333.38 317.471C319.749 309.946 298.86 306.795 294.612 292.794" stroke="#485F62" stroke-width="0.9124" stroke-miterlimit="10"/>
<path d="M294.789 281.068C297.267 272.668 305.588 268.643 312.314 263.742C323.467 255.692 332.672 246.066 336.036 233.115" stroke="#485F62" stroke-width="0.9124" stroke-miterlimit="10"/>
<path d="M319.75 167.311C320.458 171.686 321.874 176.062 323.998 180.262C331.256 193.738 337.629 205.989 337.452 221.39" stroke="#485F62" stroke-width="0.9124" stroke-miterlimit="10"/>
<path d="M319.396 155.41C320.635 140.534 328.07 125.483 337.629 113.407" stroke="#485F62" stroke-width="0.9124" stroke-miterlimit="10"/>
<path d="M345.772 104.482C348.25 102.207 350.552 100.107 353.03 98.3569C363.12 91.0064 372.149 79.4557 374.096 67.3799" stroke="#485F62" stroke-width="0.9124" stroke-miterlimit="10"/>
<path d="M339.399 12.7754C341.701 35.7019 357.633 31.8516 368.077 45.1525C370.733 48.4777 372.503 51.978 373.388 55.4782" stroke="#485F62" stroke-width="0.9124" stroke-miterlimit="10"/>
<path d="M339.045 12.7758C342.369 12.7758 345.064 10.1117 345.064 6.82539C345.064 3.53908 342.369 0.875 339.045 0.875C335.721 0.875 333.026 3.53908 333.026 6.82539C333.026 10.1117 335.721 12.7758 339.045 12.7758Z" fill="#485F62" stroke="#485F62" stroke-width="0.9124" stroke-miterlimit="10"/>
<path d="M350.375 380.125C353.699 380.125 356.394 377.461 356.394 374.175C356.394 370.888 353.699 368.224 350.375 368.224C347.051 368.224 344.356 370.888 344.356 374.175C344.356 377.461 347.051 380.125 350.375 380.125Z" stroke="#485F62" stroke-width="0.9124" stroke-miterlimit="10"/>
<path d="M294.019 292.384C297.343 292.384 300.038 289.72 300.038 286.434C300.038 283.147 297.343 280.483 294.019 280.483C290.695 280.483 288 283.147 288 286.434C288 289.72 290.695 292.384 294.019 292.384Z" fill="#485F62" stroke="#485F62" stroke-width="0.9124" stroke-miterlimit="10"/>
<path d="M336.859 232.705C340.183 232.705 342.877 230.041 342.877 226.755C342.877 223.468 340.183 220.804 336.859 220.804C333.535 220.804 330.84 223.468 330.84 226.755C330.84 230.041 333.535 232.705 336.859 232.705Z" fill="#485F62" stroke="#485F62" stroke-width="0.9124" stroke-miterlimit="10"/>
<path d="M338.275 326.511C341.599 326.511 344.294 323.847 344.294 320.561C344.294 317.274 341.599 314.61 338.275 314.61C334.951 314.61 332.256 317.274 332.256 320.561C332.256 323.847 334.951 326.511 338.275 326.511Z" stroke="#485F62" stroke-width="0.9124" stroke-miterlimit="10"/>
<path d="M319.333 166.901C322.657 166.901 325.352 164.237 325.352 160.95C325.352 157.664 322.657 155 319.333 155C316.009 155 313.314 157.664 313.314 160.95C313.314 164.237 316.009 166.901 319.333 166.901Z" fill="#485F62" stroke="#485F62" stroke-width="0.9124" stroke-miterlimit="10"/>
<path d="M374.096 67.3793C377.42 67.3793 380.115 64.7152 380.115 61.4289C380.115 58.1426 377.42 55.4785 374.096 55.4785C370.772 55.4785 368.077 58.1426 368.077 61.4289C368.077 64.7152 370.772 67.3793 374.096 67.3793Z" fill="#485F62" stroke="#485F62" stroke-width="0.9124" stroke-miterlimit="10"/>
<path d="M341.7 114.808C345.025 114.808 347.719 112.144 347.719 108.858C347.719 105.571 345.025 102.907 341.7 102.907C338.376 102.907 335.682 105.571 335.682 108.858C335.682 112.144 338.376 114.808 341.7 114.808Z" fill="#485F62" stroke="#485F62" stroke-width="0.9124" stroke-miterlimit="10"/>
<line x1="293.867" y1="287.5" x2="250" y2="287.5" stroke="#485F62"/>
<path d="M63.3903 292.3C62.357 292.3 61.407 292.1 60.5403 291.7C59.6903 291.3 58.957 290.733 58.3403 290C57.7237 289.25 57.2403 288.35 56.8903 287.3C56.557 286.233 56.3903 285.042 56.3903 283.725C56.3903 282.408 56.557 281.233 56.8903 280.2C57.2403 279.15 57.7237 278.267 58.3403 277.55C58.957 276.817 59.6903 276.258 60.5403 275.875C61.407 275.492 62.357 275.3 63.3903 275.3C64.4237 275.3 65.3653 275.5 66.2153 275.9C67.082 276.283 67.8237 276.842 68.4403 277.575C69.0737 278.292 69.557 279.175 69.8903 280.225C70.2403 281.258 70.4153 282.425 70.4153 283.725C70.4153 285.042 70.2403 286.233 69.8903 287.3C69.557 288.35 69.0737 289.25 68.4403 290C67.8237 290.733 67.082 291.3 66.2153 291.7C65.3653 292.1 64.4237 292.3 63.3903 292.3ZM63.3903 290.475C64.1237 290.475 64.782 290.317 65.3653 290C65.9653 289.683 66.4737 289.233 66.8903 288.65C67.3237 288.05 67.657 287.342 67.8903 286.525C68.1237 285.692 68.2403 284.758 68.2403 283.725C68.2403 282.708 68.1237 281.792 67.8903 280.975C67.657 280.158 67.3237 279.467 66.8903 278.9C66.4737 278.333 65.9653 277.9 65.3653 277.6C64.782 277.283 64.1237 277.125 63.3903 277.125C62.657 277.125 61.9903 277.283 61.3903 277.6C60.807 277.9 60.2987 278.333 59.8653 278.9C59.4487 279.467 59.1237 280.158 58.8903 280.975C58.657 281.792 58.5403 282.708 58.5403 283.725C58.5403 284.758 58.657 285.692 58.8903 286.525C59.1237 287.342 59.4487 288.05 59.8653 288.65C60.2987 289.233 60.807 289.683 61.3903 290C61.9903 290.317 62.657 290.475 63.3903 290.475ZM77.2919 292.3C75.9919 292.3 75.0419 291.9 74.4419 291.1C73.8586 290.3 73.5669 289.117 73.5669 287.55V279.85H75.6419V287.275C75.6419 288.425 75.8169 289.258 76.1669 289.775C76.5336 290.275 77.1169 290.525 77.9169 290.525C78.5502 290.525 79.1086 290.367 79.5919 290.05C80.0752 289.717 80.6086 289.192 81.1919 288.475V279.85H83.2419V292H81.5419L81.3669 290.1H81.2919C80.7252 290.767 80.1252 291.3 79.4919 291.7C78.8752 292.1 78.1419 292.3 77.2919 292.3ZM78.8419 277.675L74.9169 273.85L76.3669 272.475L79.8919 276.65L78.8419 277.675ZM92.3454 297.125V279.85H94.0454L94.2204 281.25H94.2954C94.8454 280.783 95.4454 280.383 96.0954 280.05C96.7621 279.717 97.4537 279.55 98.1704 279.55C98.9537 279.55 99.6454 279.7 100.245 280C100.845 280.283 101.345 280.7 101.745 281.25C102.145 281.783 102.445 282.433 102.645 283.2C102.862 283.95 102.97 284.8 102.97 285.75C102.97 286.783 102.829 287.708 102.545 288.525C102.262 289.325 101.879 290.008 101.395 290.575C100.912 291.142 100.354 291.575 99.7204 291.875C99.0871 292.158 98.4204 292.3 97.7204 292.3C97.1537 292.3 96.5871 292.175 96.0204 291.925C95.4704 291.675 94.9121 291.333 94.3454 290.9L94.3954 293.025V297.125H92.3454ZM97.3704 290.575C97.8704 290.575 98.3287 290.467 98.7454 290.25C99.1787 290.017 99.5454 289.7 99.8454 289.3C100.162 288.883 100.404 288.375 100.57 287.775C100.754 287.175 100.845 286.5 100.845 285.75C100.845 285.083 100.787 284.475 100.67 283.925C100.554 283.375 100.362 282.908 100.095 282.525C99.8454 282.125 99.5121 281.817 99.0954 281.6C98.6954 281.383 98.2121 281.275 97.6454 281.275C97.1287 281.275 96.6037 281.417 96.0704 281.7C95.5537 281.983 94.9954 282.392 94.3954 282.925V289.3C94.9454 289.767 95.4787 290.1 95.9954 290.3C96.5121 290.483 96.9704 290.575 97.3704 290.575ZM108.671 292.3C107.654 292.3 106.804 292 106.121 291.4C105.454 290.8 105.121 289.95 105.121 288.85C105.121 287.517 105.712 286.5 106.896 285.8C108.079 285.083 109.971 284.583 112.571 284.3C112.571 283.917 112.529 283.542 112.446 283.175C112.379 282.808 112.254 282.483 112.071 282.2C111.887 281.917 111.629 281.692 111.296 281.525C110.979 281.342 110.571 281.25 110.071 281.25C109.371 281.25 108.712 281.383 108.096 281.65C107.479 281.917 106.929 282.217 106.446 282.55L105.646 281.125C106.212 280.758 106.904 280.408 107.721 280.075C108.537 279.725 109.437 279.55 110.421 279.55C111.904 279.55 112.979 280.008 113.646 280.925C114.312 281.825 114.646 283.033 114.646 284.55V292H112.946L112.771 290.55H112.696C112.112 291.033 111.487 291.45 110.821 291.8C110.154 292.133 109.437 292.3 108.671 292.3ZM109.271 290.65C109.854 290.65 110.404 290.517 110.921 290.25C111.437 289.967 111.987 289.558 112.571 289.025V285.65C111.554 285.783 110.696 285.942 109.996 286.125C109.312 286.308 108.754 286.525 108.321 286.775C107.904 287.025 107.596 287.317 107.396 287.65C107.212 287.967 107.121 288.317 107.121 288.7C107.121 289.4 107.329 289.9 107.746 290.2C108.162 290.5 108.671 290.65 109.271 290.65ZM121.643 292.3C120.777 292.3 119.952 292.142 119.168 291.825C118.385 291.508 117.702 291.108 117.118 290.625L118.143 289.25C118.677 289.683 119.218 290.033 119.768 290.3C120.335 290.567 120.985 290.7 121.718 290.7C122.518 290.7 123.118 290.517 123.518 290.15C123.918 289.783 124.118 289.333 124.118 288.8C124.118 288.483 124.035 288.208 123.868 287.975C123.702 287.742 123.485 287.542 123.218 287.375C122.968 287.192 122.677 287.033 122.343 286.9C122.01 286.767 121.677 286.633 121.343 286.5C120.91 286.35 120.477 286.183 120.043 286C119.61 285.8 119.218 285.567 118.868 285.3C118.535 285.017 118.26 284.692 118.043 284.325C117.827 283.958 117.718 283.517 117.718 283C117.718 282.517 117.81 282.067 117.993 281.65C118.193 281.217 118.468 280.85 118.818 280.55C119.185 280.233 119.627 279.992 120.143 279.825C120.66 279.642 121.243 279.55 121.893 279.55C122.66 279.55 123.36 279.683 123.993 279.95C124.643 280.217 125.202 280.542 125.668 280.925L124.693 282.225C124.277 281.908 123.843 281.65 123.393 281.45C122.943 281.25 122.452 281.15 121.918 281.15C121.152 281.15 120.585 281.325 120.218 281.675C119.868 282.025 119.693 282.433 119.693 282.9C119.693 283.183 119.768 283.433 119.918 283.65C120.068 283.85 120.268 284.033 120.518 284.2C120.768 284.35 121.052 284.492 121.368 284.625C121.702 284.742 122.043 284.867 122.393 285C122.827 285.167 123.26 285.342 123.693 285.525C124.143 285.708 124.543 285.942 124.893 286.225C125.243 286.492 125.527 286.825 125.743 287.225C125.977 287.625 126.093 288.108 126.093 288.675C126.093 289.175 125.993 289.642 125.793 290.075C125.61 290.508 125.327 290.892 124.943 291.225C124.577 291.558 124.11 291.817 123.543 292C122.993 292.2 122.36 292.3 121.643 292.3ZM132.117 292.3C131.25 292.3 130.425 292.142 129.642 291.825C128.859 291.508 128.175 291.108 127.592 290.625L128.617 289.25C129.15 289.683 129.692 290.033 130.242 290.3C130.809 290.567 131.459 290.7 132.192 290.7C132.992 290.7 133.592 290.517 133.992 290.15C134.392 289.783 134.592 289.333 134.592 288.8C134.592 288.483 134.509 288.208 134.342 287.975C134.175 287.742 133.959 287.542 133.692 287.375C133.442 287.192 133.15 287.033 132.817 286.9C132.484 286.767 132.15 286.633 131.817 286.5C131.384 286.35 130.95 286.183 130.517 286C130.084 285.8 129.692 285.567 129.342 285.3C129.009 285.017 128.734 284.692 128.517 284.325C128.3 283.958 128.192 283.517 128.192 283C128.192 282.517 128.284 282.067 128.467 281.65C128.667 281.217 128.942 280.85 129.292 280.55C129.659 280.233 130.1 279.992 130.617 279.825C131.134 279.642 131.717 279.55 132.367 279.55C133.134 279.55 133.834 279.683 134.467 279.95C135.117 280.217 135.675 280.542 136.142 280.925L135.167 282.225C134.75 281.908 134.317 281.65 133.867 281.45C133.417 281.25 132.925 281.15 132.392 281.15C131.625 281.15 131.059 281.325 130.692 281.675C130.342 282.025 130.167 282.433 130.167 282.9C130.167 283.183 130.242 283.433 130.392 283.65C130.542 283.85 130.742 284.033 130.992 284.2C131.242 284.35 131.525 284.492 131.842 284.625C132.175 284.742 132.517 284.867 132.867 285C133.3 285.167 133.734 285.342 134.167 285.525C134.617 285.708 135.017 285.942 135.367 286.225C135.717 286.492 136 286.825 136.217 287.225C136.45 287.625 136.567 288.108 136.567 288.675C136.567 289.175 136.467 289.642 136.267 290.075C136.084 290.508 135.8 290.892 135.417 291.225C135.05 291.558 134.584 291.817 134.017 292C133.467 292.2 132.834 292.3 132.117 292.3ZM144.341 292.3C143.524 292.3 142.757 292.158 142.041 291.875C141.341 291.575 140.724 291.158 140.191 290.625C139.674 290.075 139.266 289.408 138.966 288.625C138.666 287.842 138.516 286.95 138.516 285.95C138.516 284.95 138.666 284.058 138.966 283.275C139.282 282.475 139.691 281.8 140.191 281.25C140.707 280.7 141.291 280.283 141.941 280C142.591 279.7 143.266 279.55 143.966 279.55C144.732 279.55 145.416 279.683 146.016 279.95C146.632 280.217 147.141 280.6 147.541 281.1C147.957 281.6 148.274 282.2 148.491 282.9C148.707 283.6 148.816 284.383 148.816 285.25C148.816 285.467 148.807 285.683 148.791 285.9C148.791 286.1 148.774 286.275 148.741 286.425H140.541C140.624 287.725 141.024 288.758 141.741 289.525C142.474 290.275 143.424 290.65 144.591 290.65C145.174 290.65 145.707 290.567 146.191 290.4C146.691 290.217 147.166 289.983 147.616 289.7L148.341 291.05C147.807 291.383 147.216 291.675 146.566 291.925C145.916 292.175 145.174 292.3 144.341 292.3ZM140.516 284.95H147.016C147.016 283.717 146.749 282.783 146.216 282.15C145.699 281.5 144.966 281.175 144.016 281.175C143.582 281.175 143.166 281.258 142.766 281.425C142.382 281.592 142.032 281.842 141.716 282.175C141.399 282.492 141.132 282.883 140.916 283.35C140.716 283.817 140.582 284.35 140.516 284.95ZM151.818 292V279.85H153.518L153.693 282.05H153.768C154.185 281.283 154.685 280.675 155.268 280.225C155.868 279.775 156.518 279.55 157.218 279.55C157.701 279.55 158.135 279.633 158.518 279.8L158.118 281.6C157.918 281.533 157.735 281.483 157.568 281.45C157.401 281.417 157.193 281.4 156.943 281.4C156.426 281.4 155.885 281.608 155.318 282.025C154.768 282.442 154.285 283.167 153.868 284.2V292H151.818ZM167.665 292.3C166.882 292.3 166.323 292.067 165.99 291.6C165.657 291.133 165.49 290.45 165.49 289.55V274.2H167.54V289.7C167.54 290.033 167.598 290.267 167.715 290.4C167.832 290.533 167.965 290.6 168.115 290.6C168.182 290.6 168.24 290.6 168.29 290.6C168.357 290.6 168.448 290.583 168.565 290.55L168.84 292.1C168.707 292.167 168.548 292.217 168.365 292.25C168.182 292.283 167.948 292.3 167.665 292.3ZM174.662 292.3C173.645 292.3 172.795 292 172.112 291.4C171.445 290.8 171.112 289.95 171.112 288.85C171.112 287.517 171.704 286.5 172.887 285.8C174.07 285.083 175.962 284.583 178.562 284.3C178.562 283.917 178.52 283.542 178.437 283.175C178.37 282.808 178.245 282.483 178.062 282.2C177.879 281.917 177.62 281.692 177.287 281.525C176.97 281.342 176.562 281.25 176.062 281.25C175.362 281.25 174.704 281.383 174.087 281.65C173.47 281.917 172.92 282.217 172.437 282.55L171.637 281.125C172.204 280.758 172.895 280.408 173.712 280.075C174.529 279.725 175.429 279.55 176.412 279.55C177.895 279.55 178.97 280.008 179.637 280.925C180.304 281.825 180.637 283.033 180.637 284.55V292H178.937L178.762 290.55H178.687C178.104 291.033 177.479 291.45 176.812 291.8C176.145 292.133 175.429 292.3 174.662 292.3ZM175.262 290.65C175.845 290.65 176.395 290.517 176.912 290.25C177.429 289.967 177.979 289.558 178.562 289.025V285.65C177.545 285.783 176.687 285.942 175.987 286.125C175.304 286.308 174.745 286.525 174.312 286.775C173.895 287.025 173.587 287.317 173.387 287.65C173.204 287.967 173.112 288.317 173.112 288.7C173.112 289.4 173.32 289.9 173.737 290.2C174.154 290.5 174.662 290.65 175.262 290.65ZM189.465 292V279.85H191.165L191.34 281.6H191.415C191.998 281.017 192.606 280.533 193.24 280.15C193.89 279.75 194.64 279.55 195.49 279.55C196.773 279.55 197.706 279.95 198.29 280.75C198.89 281.55 199.19 282.733 199.19 284.3V292H197.14V284.575C197.14 283.425 196.956 282.6 196.59 282.1C196.223 281.583 195.64 281.325 194.84 281.325C194.206 281.325 193.648 281.483 193.165 281.8C192.681 282.117 192.131 282.583 191.515 283.2V292H189.465ZM206.686 292.3C205.386 292.3 204.436 291.9 203.836 291.1C203.253 290.3 202.961 289.117 202.961 287.55V279.85H205.036V287.275C205.036 288.425 205.211 289.258 205.561 289.775C205.928 290.275 206.511 290.525 207.311 290.525C207.945 290.525 208.503 290.367 208.986 290.05C209.47 289.717 210.003 289.192 210.586 288.475V279.85H212.636V292H210.936L210.761 290.1H210.686C210.12 290.767 209.52 291.3 208.886 291.7C208.27 292.1 207.536 292.3 206.686 292.3ZM216.735 292V279.85H218.785V292H216.735ZM217.785 277.35C217.385 277.35 217.043 277.225 216.76 276.975C216.493 276.725 216.36 276.408 216.36 276.025C216.36 275.625 216.493 275.308 216.76 275.075C217.043 274.825 217.385 274.7 217.785 274.7C218.185 274.7 218.518 274.825 218.785 275.075C219.068 275.308 219.21 275.625 219.21 276.025C219.21 276.408 219.068 276.725 218.785 276.975C218.518 277.225 218.185 277.35 217.785 277.35ZM226.712 292.3C226.062 292.3 225.512 292.2 225.062 292C224.629 291.8 224.271 291.525 223.987 291.175C223.721 290.825 223.529 290.4 223.412 289.9C223.296 289.4 223.237 288.85 223.237 288.25V281.525H221.437V279.975L223.337 279.85L223.587 276.45H225.312V279.85H228.587V281.525H225.312V288.275C225.312 289.025 225.446 289.608 225.712 290.025C225.996 290.425 226.487 290.625 227.187 290.625C227.404 290.625 227.637 290.592 227.887 290.525C228.137 290.458 228.362 290.383 228.562 290.3L228.962 291.85C228.629 291.967 228.262 292.067 227.862 292.15C227.479 292.25 227.096 292.3 226.712 292.3ZM238.29 287.05C238.19 286.4 238.206 285.817 238.34 285.3C238.49 284.767 238.69 284.283 238.94 283.85C239.19 283.4 239.473 282.983 239.79 282.6C240.123 282.217 240.431 281.842 240.715 281.475C240.998 281.092 241.231 280.708 241.415 280.325C241.615 279.942 241.715 279.525 241.715 279.075C241.715 278.408 241.506 277.842 241.09 277.375C240.69 276.892 240.09 276.65 239.29 276.65C238.74 276.65 238.215 276.783 237.715 277.05C237.231 277.3 236.798 277.65 236.415 278.1L235.24 277.025C235.773 276.425 236.39 275.933 237.09 275.55C237.806 275.15 238.623 274.95 239.54 274.95C240.806 274.95 241.815 275.308 242.565 276.025C243.331 276.725 243.715 277.7 243.715 278.95C243.715 279.5 243.615 280 243.415 280.45C243.215 280.9 242.965 281.325 242.665 281.725C242.381 282.125 242.073 282.525 241.74 282.925C241.423 283.308 241.123 283.708 240.84 284.125C240.573 284.542 240.365 284.992 240.215 285.475C240.065 285.942 240.023 286.467 240.09 287.05H238.29ZM239.24 292.3C238.823 292.3 238.473 292.158 238.19 291.875C237.906 291.575 237.765 291.2 237.765 290.75C237.765 290.267 237.906 289.883 238.19 289.6C238.473 289.3 238.823 289.15 239.24 289.15C239.656 289.15 240.006 289.3 240.29 289.6C240.59 289.883 240.74 290.267 240.74 290.75C240.74 291.2 240.59 291.575 240.29 291.875C240.006 292.158 239.656 292.3 239.24 292.3Z" fill="#485F62"/>
</svg>
