<svg width="433" height="84" viewBox="0 0 433 84" fill="none" xmlns="http://www.w3.org/2000/svg">
<path d="M17.9907 64.504C14.6867 64.504 11.6627 63.916 8.91867 62.74C6.23067 61.508 4.07467 59.548 2.45067 56.86C0.826672 54.172 0.0146721 50.616 0.0146721 46.192V20.908C0.0146721 16.484 0.826672 12.928 2.45067 10.24C4.13067 7.552 6.34267 5.62 9.08667 4.444C11.8307 3.212 14.8267 2.596 18.0747 2.596C21.8267 2.596 25.0467 3.24 27.7347 4.528C30.4787 5.816 32.5787 7.58 34.0347 9.82C35.4907 12.004 36.2187 14.468 36.2187 17.212C36.2187 18.78 35.9107 19.816 35.2947 20.32C34.7347 20.824 33.8667 21.076 32.6907 21.076C30.3947 21.076 29.2187 20.264 29.1627 18.64C29.1067 17.8 28.9387 16.848 28.6587 15.784C28.3787 14.664 27.8747 13.6 27.1467 12.592C26.4187 11.528 25.3267 10.66 23.8707 9.988C22.4707 9.316 20.5947 8.98 18.2427 8.98C14.6587 8.98 11.8867 9.96 9.92667 11.92C8.02267 13.824 7.07067 16.82 7.07067 20.908V46.192C7.07067 50.28 8.05067 53.304 10.0107 55.264C11.9707 57.168 14.7987 58.12 18.4947 58.12C20.8467 58.12 22.6947 57.812 24.0387 57.196C25.4387 56.524 26.4747 55.684 27.1467 54.676C27.8187 53.612 28.2947 52.52 28.5747 51.4C28.8547 50.224 29.0507 49.132 29.1627 48.124C29.3307 46.5 30.5067 45.688 32.6907 45.688C33.8667 45.688 34.7347 45.94 35.2947 46.444C35.9107 46.948 36.2187 48.012 36.2187 49.636C36.2187 52.38 35.4627 54.9 33.9507 57.196C32.4947 59.436 30.3947 61.228 27.6507 62.572C24.9627 63.86 21.7427 64.504 17.9907 64.504ZM59.3377 64.672C56.3697 64.672 53.6257 63.916 51.1057 62.404C48.5857 60.836 46.5697 58.82 45.0577 56.356C43.5457 53.892 42.7897 51.232 42.7897 48.376V39.808C42.7897 36.952 43.5177 34.32 44.9737 31.912C46.4857 29.448 48.5017 27.46 51.0217 25.948C53.5417 24.436 56.3137 23.68 59.3377 23.68C62.3057 23.68 65.0497 24.408 67.5697 25.864C70.0897 27.32 72.1057 29.28 73.6177 31.744C75.1857 34.208 75.9697 36.896 75.9697 39.808V48.376C75.9697 51.176 75.1857 53.836 73.6177 56.356C72.1057 58.82 70.0897 60.836 67.5697 62.404C65.0497 63.916 62.3057 64.672 59.3377 64.672ZM59.3377 58.372C61.1297 58.372 62.7537 57.896 64.2097 56.944C65.6657 55.992 66.8137 54.76 67.6537 53.248C68.5497 51.68 68.9977 50.056 68.9977 48.376V39.808C68.9977 38.184 68.5497 36.616 67.6537 35.104C66.8137 33.592 65.6657 32.36 64.2097 31.408C62.7537 30.456 61.1297 29.98 59.3377 29.98C57.5457 29.98 55.9217 30.456 54.4657 31.408C53.0097 32.36 51.8617 33.592 51.0217 35.104C50.1817 36.616 49.7617 38.184 49.7617 39.808V48.376C49.7617 50.056 50.1817 51.68 51.0217 53.248C51.8617 54.76 53.0097 55.992 54.4657 56.944C55.9217 57.896 57.5457 58.372 59.3377 58.372ZM100.545 64.672C97.521 64.672 94.749 63.916 92.229 62.404C89.709 60.892 87.693 58.904 86.181 56.44C84.669 53.976 83.913 51.344 83.913 48.544V26.704C83.913 26.088 84.249 25.528 84.921 25.024C85.649 24.464 86.489 24.184 87.441 24.184C88.393 24.184 89.205 24.464 89.877 25.024C90.549 25.528 90.885 26.088 90.885 26.704V48.544C90.885 50.168 91.305 51.736 92.145 53.248C93.041 54.76 94.217 55.992 95.673 56.944C97.129 57.896 98.753 58.372 100.545 58.372C102.337 58.372 103.961 57.896 105.417 56.944C106.873 55.992 108.021 54.788 108.861 53.332C109.701 51.82 110.121 50.224 110.121 48.544V26.62C110.121 26.004 110.457 25.444 111.129 24.94C111.857 24.436 112.697 24.184 113.649 24.184C114.657 24.184 115.469 24.436 116.085 24.94C116.757 25.444 117.093 26.004 117.093 26.62V48.544C117.093 51.4 116.337 54.06 114.825 56.524C113.369 58.932 111.381 60.892 108.861 62.404C106.341 63.916 103.569 64.672 100.545 64.672ZM130.105 83.236C129.153 83.236 128.341 82.956 127.669 82.396C127.053 81.892 126.745 81.332 126.745 80.716V26.62C126.745 25.892 127.053 25.304 127.669 24.856C128.341 24.408 129.153 24.184 130.105 24.184C131.001 24.184 131.757 24.408 132.373 24.856C133.045 25.304 133.381 25.892 133.381 26.62V30.064C134.333 28.44 135.761 26.984 137.665 25.696C139.569 24.352 141.893 23.68 144.637 23.68C147.437 23.68 149.957 24.408 152.197 25.864C154.493 27.32 156.313 29.28 157.657 31.744C159.057 34.208 159.757 36.896 159.757 39.808V48.376C159.757 51.176 159.057 53.836 157.657 56.356C156.313 58.82 154.521 60.836 152.281 62.404C150.041 63.916 147.577 64.672 144.889 64.672C142.369 64.672 140.073 64.028 138.001 62.74C135.985 61.396 134.557 59.856 133.717 58.12V80.716C133.717 81.332 133.353 81.892 132.625 82.396C131.953 82.956 131.113 83.236 130.105 83.236ZM143.209 58.372C144.889 58.372 146.457 57.896 147.913 56.944C149.369 55.936 150.545 54.676 151.441 53.164C152.337 51.652 152.785 50.056 152.785 48.376V39.808C152.785 38.184 152.337 36.616 151.441 35.104C150.601 33.592 149.425 32.36 147.913 31.408C146.457 30.456 144.833 29.98 143.041 29.98C141.529 29.98 140.045 30.372 138.589 31.156C137.189 31.94 136.013 33.088 135.061 34.6C134.165 36.056 133.717 37.792 133.717 39.808V50.644C133.717 51.428 134.109 52.436 134.893 53.668C135.733 54.844 136.853 55.936 138.253 56.944C139.709 57.896 141.361 58.372 143.209 58.372ZM185.389 64.672C181.749 64.672 178.501 64 175.645 62.656C172.845 61.256 170.633 59.352 169.009 56.944C167.441 54.48 166.657 51.624 166.657 48.376V39.556C166.657 36.7 167.413 34.068 168.925 31.66C170.437 29.252 172.453 27.32 174.973 25.864C177.549 24.408 180.349 23.68 183.373 23.68C186.229 23.68 188.889 24.352 191.353 25.696C193.817 27.04 195.777 28.888 197.233 31.24C198.745 33.536 199.501 36.168 199.501 39.136C199.501 41.376 199.137 43 198.409 44.008C197.737 44.96 196.813 45.548 195.637 45.772C194.517 45.996 193.341 46.108 192.109 46.108H173.629V48.628C173.629 51.764 174.749 54.256 176.989 56.104C179.229 57.896 182.113 58.792 185.641 58.792C187.713 58.792 189.365 58.512 190.597 57.952C191.829 57.392 192.809 56.86 193.537 56.356C194.321 55.796 195.049 55.516 195.721 55.516C196.561 55.516 197.233 55.908 197.737 56.692C198.297 57.42 198.577 58.092 198.577 58.708C198.577 59.436 198.045 60.276 196.981 61.228C195.917 62.124 194.377 62.936 192.361 63.664C190.401 64.336 188.077 64.672 185.389 64.672ZM173.629 41.404H189.169C190.625 41.404 191.605 41.236 192.109 40.9C192.613 40.564 192.865 39.836 192.865 38.716C192.865 37.036 192.445 35.496 191.605 34.096C190.821 32.64 189.701 31.464 188.245 30.568C186.789 29.672 185.137 29.224 183.289 29.224C180.657 29.224 178.389 30.12 176.485 31.912C174.581 33.704 173.629 35.86 173.629 38.38V41.404ZM210.576 64C209.624 64 208.812 63.748 208.14 63.244C207.524 62.684 207.216 62.096 207.216 61.48V26.62C207.216 25.892 207.524 25.304 208.14 24.856C208.812 24.408 209.624 24.184 210.576 24.184C211.472 24.184 212.228 24.408 212.844 24.856C213.516 25.304 213.852 25.892 213.852 26.62V30.568C214.748 28.832 216.148 27.264 218.052 25.864C219.956 24.408 222.224 23.68 224.856 23.68H227.712C228.384 23.68 229 24.016 229.56 24.688C230.12 25.304 230.4 26.032 230.4 26.872C230.4 27.712 230.12 28.44 229.56 29.056C229 29.672 228.384 29.98 227.712 29.98H224.856C223.064 29.98 221.356 30.484 219.732 31.492C218.108 32.5 216.764 33.928 215.7 35.776C214.692 37.568 214.188 39.752 214.188 42.328V61.48C214.188 62.096 213.824 62.684 213.096 63.244C212.424 63.748 211.584 64 210.576 64ZM256.943 64C255.935 64 255.095 63.748 254.423 63.244C253.807 62.684 253.499 62.096 253.499 61.48V2.596C253.499 1.868 253.807 1.28 254.423 0.831997C255.095 0.383996 255.935 0.159996 256.943 0.159996C257.895 0.159996 258.707 0.383996 259.379 0.831997C260.107 1.28 260.471 1.868 260.471 2.596V61.48C260.471 62.096 260.107 62.684 259.379 63.244C258.707 63.748 257.895 64 256.943 64ZM288.338 64.672C284.698 64.672 281.45 64 278.594 62.656C275.794 61.256 273.582 59.352 271.958 56.944C270.39 54.48 269.606 51.624 269.606 48.376V39.556C269.606 36.7 270.362 34.068 271.874 31.66C273.386 29.252 275.402 27.32 277.922 25.864C280.498 24.408 283.298 23.68 286.322 23.68C289.178 23.68 291.838 24.352 294.302 25.696C296.766 27.04 298.726 28.888 300.182 31.24C301.694 33.536 302.45 36.168 302.45 39.136C302.45 41.376 302.086 43 301.358 44.008C300.686 44.96 299.762 45.548 298.586 45.772C297.466 45.996 296.29 46.108 295.058 46.108H276.578V48.628C276.578 51.764 277.698 54.256 279.938 56.104C282.178 57.896 285.062 58.792 288.59 58.792C290.662 58.792 292.314 58.512 293.546 57.952C294.778 57.392 295.758 56.86 296.486 56.356C297.27 55.796 297.998 55.516 298.67 55.516C299.51 55.516 300.182 55.908 300.686 56.692C301.246 57.42 301.526 58.092 301.526 58.708C301.526 59.436 300.994 60.276 299.93 61.228C298.866 62.124 297.326 62.936 295.31 63.664C293.35 64.336 291.026 64.672 288.338 64.672ZM276.578 41.404H292.118C293.574 41.404 294.554 41.236 295.058 40.9C295.562 40.564 295.814 39.836 295.814 38.716C295.814 37.036 295.394 35.496 294.554 34.096C293.77 32.64 292.65 31.464 291.194 30.568C289.738 29.672 288.086 29.224 286.238 29.224C283.606 29.224 281.338 30.12 279.434 31.912C277.53 33.704 276.578 35.86 276.578 38.38V41.404ZM338.405 64.672C335.717 64.672 333.337 64.336 331.265 63.664C329.193 62.992 327.569 62.18 326.393 61.228C325.217 60.22 324.629 59.24 324.629 58.288C324.629 57.672 324.853 57 325.301 56.272C325.805 55.488 326.393 55.096 327.065 55.096C327.737 55.096 328.437 55.432 329.165 56.104C329.949 56.72 331.013 57.364 332.357 58.036C333.757 58.708 335.717 59.044 338.237 59.044C341.205 59.044 343.277 58.512 344.453 57.448C345.629 56.328 346.217 55.096 346.217 53.752C346.217 52.016 345.713 50.7 344.705 49.804C343.697 48.852 342.409 48.124 340.841 47.62C339.273 47.06 337.621 46.528 335.885 46.024C334.149 45.52 332.497 44.904 330.929 44.176C329.361 43.392 328.073 42.328 327.065 40.984C326.113 39.64 325.637 37.792 325.637 35.44C325.637 33.592 326.085 31.772 326.981 29.98C327.877 28.188 329.333 26.704 331.349 25.528C333.365 24.296 336.053 23.68 339.413 23.68C341.373 23.68 343.249 23.904 345.041 24.352C346.889 24.8 348.373 25.36 349.493 26.032C350.669 26.704 351.257 27.432 351.257 28.216C351.257 28.776 351.005 29.504 350.501 30.4C349.997 31.296 349.325 31.744 348.485 31.744C347.981 31.744 347.337 31.548 346.553 31.156C345.769 30.708 344.789 30.288 343.613 29.896C342.493 29.504 341.121 29.308 339.497 29.308C336.697 29.308 334.709 29.98 333.533 31.324C332.413 32.668 331.853 33.956 331.853 35.188C331.853 36.588 332.329 37.68 333.281 38.464C334.289 39.248 335.577 39.892 337.145 40.396C338.713 40.844 340.365 41.32 342.101 41.824C343.893 42.272 345.573 42.944 347.141 43.84C348.709 44.68 349.997 45.856 351.005 47.368C352.013 48.88 352.517 50.896 352.517 53.416C352.517 56.832 351.285 59.576 348.821 61.648C346.357 63.664 342.885 64.672 338.405 64.672ZM375.158 64.672C372.19 64.672 369.446 63.916 366.926 62.404C364.406 60.836 362.39 58.82 360.878 56.356C359.366 53.892 358.61 51.232 358.61 48.376V39.808C358.61 36.952 359.338 34.32 360.794 31.912C362.306 29.448 364.322 27.46 366.842 25.948C369.362 24.436 372.134 23.68 375.158 23.68C378.126 23.68 380.87 24.408 383.39 25.864C385.91 27.32 387.926 29.28 389.438 31.744C391.006 34.208 391.79 36.896 391.79 39.808V48.376C391.79 51.176 391.006 53.836 389.438 56.356C387.926 58.82 385.91 60.836 383.39 62.404C380.87 63.916 378.126 64.672 375.158 64.672ZM375.158 58.372C376.95 58.372 378.574 57.896 380.03 56.944C381.486 55.992 382.634 54.76 383.474 53.248C384.37 51.68 384.818 50.056 384.818 48.376V39.808C384.818 38.184 384.37 36.616 383.474 35.104C382.634 33.592 381.486 32.36 380.03 31.408C378.574 30.456 376.95 29.98 375.158 29.98C373.366 29.98 371.742 30.456 370.286 31.408C368.83 32.36 367.682 33.592 366.842 35.104C366.002 36.616 365.582 38.184 365.582 39.808V48.376C365.582 50.056 366.002 51.68 366.842 53.248C367.682 54.76 368.83 55.992 370.286 56.944C371.742 57.896 373.366 58.372 375.158 58.372ZM403.597 64C402.589 64 401.749 63.748 401.077 63.244C400.461 62.684 400.153 62.096 400.153 61.48V26.62C400.153 25.892 400.461 25.304 401.077 24.856C401.749 24.408 402.589 24.184 403.597 24.184C404.437 24.184 405.165 24.408 405.781 24.856C406.453 25.304 406.789 25.892 406.789 26.62V30.064C407.629 28.44 409.001 26.984 410.905 25.696C412.865 24.352 415.245 23.68 418.045 23.68C420.677 23.68 423.113 24.408 425.353 25.864C427.593 27.32 429.385 29.28 430.729 31.744C432.129 34.208 432.829 36.896 432.829 39.808V61.48C432.829 62.32 432.465 62.964 431.737 63.412C431.009 63.804 430.197 64 429.301 64C428.461 64 427.677 63.804 426.949 63.412C426.221 62.964 425.857 62.32 425.857 61.48V39.808C425.857 38.184 425.409 36.616 424.513 35.104C423.673 33.592 422.525 32.36 421.069 31.408C419.613 30.456 418.017 29.98 416.281 29.98C414.769 29.98 413.313 30.372 411.913 31.156C410.513 31.94 409.365 33.088 408.469 34.6C407.573 36.056 407.125 37.792 407.125 39.808V61.48C407.125 62.096 406.761 62.684 406.033 63.244C405.361 63.748 404.549 64 403.597 64Z" fill="white"/>
</svg>
