<svg width="473" height="351" viewBox="0 0 473 351" fill="none" xmlns="http://www.w3.org/2000/svg">
<path d="M13.4093 292C12.4573 292 11.5053 291.72 10.5532 291.16C9.65725 290.6 9.20925 289.9 9.20925 289.06C9.20925 288.836 9.23725 288.612 9.29325 288.388L26.5133 232.528C26.7373 231.688 27.2693 231.072 28.1093 230.68C28.9493 230.288 29.8453 230.092 30.7973 230.092C31.8053 230.092 32.7293 230.316 33.5693 230.764C34.4093 231.156 34.9413 231.744 35.1653 232.528L52.3013 288.388C52.4133 288.612 52.4693 288.808 52.4693 288.976C52.4693 289.816 51.9653 290.544 50.9572 291.16C50.0053 291.72 49.0533 292 48.1013 292C46.7573 292 45.9173 291.468 45.5813 290.404L41.8013 277.888H19.7093L16.0973 290.404C15.8733 290.964 15.5373 291.384 15.0893 291.664C14.6413 291.888 14.0813 292 13.4093 292ZM21.3893 272.092H40.2053L30.7973 240.508L21.3893 272.092ZM74.2128 292.672C70.3488 292.672 67.1568 291.972 64.6368 290.572C62.1728 289.116 60.3248 287.156 59.0928 284.692C57.9168 282.228 57.3288 279.456 57.3288 276.376V267.976C57.3288 264.952 57.9168 262.208 59.0928 259.744C60.3248 257.28 62.1728 255.32 64.6368 253.864C67.1008 252.408 70.2648 251.68 74.1288 251.68C76.5928 251.68 78.7488 251.988 80.5968 252.604C82.4448 253.22 83.8728 253.976 84.8808 254.872C85.8888 255.768 86.3928 256.636 86.3928 257.476C86.3928 258.204 86.1128 258.96 85.5528 259.744C84.9928 260.528 84.3208 260.92 83.5368 260.92C82.9768 260.92 82.3608 260.668 81.6888 260.164C81.0728 259.66 80.2048 259.184 79.0848 258.736C78.0208 258.232 76.5088 257.98 74.5488 257.98C71.1328 257.98 68.5568 258.876 66.8208 260.668C65.1408 262.46 64.3008 264.896 64.3008 267.976V276.376C64.3008 279.456 65.1408 281.892 66.8208 283.684C68.5568 285.476 71.1608 286.372 74.6328 286.372C76.6488 286.372 78.2168 286.12 79.3368 285.616C80.4568 285.112 81.3248 284.608 81.9408 284.104C82.6128 283.6 83.2568 283.348 83.8728 283.348C84.7688 283.348 85.4968 283.74 86.0568 284.524C86.6168 285.252 86.8968 285.98 86.8968 286.708C86.8968 287.548 86.3648 288.444 85.3008 289.396C84.2368 290.292 82.7528 291.076 80.8488 291.748C78.9448 292.364 76.7328 292.672 74.2128 292.672ZM107.642 292C103.106 292 99.6342 290.992 97.2262 288.976C94.8742 286.96 93.6982 283.74 93.6982 279.316V236.056C93.6982 235.328 94.0622 234.74 94.7902 234.292C95.5182 233.844 96.3022 233.62 97.1422 233.62C98.0382 233.62 98.8502 233.844 99.5782 234.292C100.306 234.74 100.67 235.328 100.67 236.056V252.184H111.254C111.926 252.184 112.43 252.492 112.766 253.108C113.158 253.668 113.354 254.284 113.354 254.956C113.354 255.684 113.158 256.328 112.766 256.888C112.43 257.392 111.926 257.644 111.254 257.644H100.67V279.316C100.67 281.724 101.174 283.432 102.182 284.44C103.246 285.392 105.066 285.868 107.642 285.868H110.246C111.198 285.868 111.926 286.176 112.43 286.792C112.99 287.408 113.27 288.108 113.27 288.892C113.27 289.732 112.99 290.46 112.43 291.076C111.926 291.692 111.198 292 110.246 292H107.642ZM123.232 292C122.224 292 121.384 291.748 120.712 291.244C120.096 290.684 119.788 290.096 119.788 289.48V254.62C119.788 253.892 120.096 253.304 120.712 252.856C121.384 252.408 122.224 252.184 123.232 252.184C124.184 252.184 124.996 252.408 125.668 252.856C126.396 253.304 126.76 253.892 126.76 254.62V289.48C126.76 290.096 126.396 290.684 125.668 291.244C124.996 291.748 124.184 292 123.232 292ZM123.232 241.264C122 241.264 120.964 240.872 120.124 240.088C119.284 239.248 118.864 238.296 118.864 237.232C118.864 236.168 119.284 235.244 120.124 234.46C120.964 233.676 122 233.284 123.232 233.284C124.408 233.284 125.416 233.676 126.256 234.46C127.096 235.244 127.516 236.168 127.516 237.232C127.516 238.296 127.096 239.248 126.256 240.088C125.416 240.872 124.408 241.264 123.232 241.264ZM149.96 292.756C149.232 292.756 148.56 292.616 147.944 292.336C147.384 292.112 146.992 291.748 146.768 291.244L132.992 256.384C132.936 256.272 132.852 256.076 132.74 255.796C132.684 255.516 132.656 255.264 132.656 255.04C132.656 254.2 133.16 253.5 134.168 252.94C135.176 252.324 136.156 252.016 137.108 252.016C138.228 252.016 138.984 252.464 139.376 253.36L149.96 281.92L160.544 253.696C160.768 253.192 161.048 252.8 161.384 252.52C161.72 252.184 162.196 252.016 162.812 252.016C163.596 252.016 164.548 252.324 165.668 252.94C166.788 253.5 167.348 254.2 167.348 255.04C167.348 255.32 167.292 255.572 167.18 255.796C167.124 256.02 167.068 256.216 167.012 256.384L153.236 291.244C153.012 291.692 152.592 292.056 151.976 292.336C151.36 292.616 150.688 292.756 149.96 292.756ZM190.246 292.672C186.606 292.672 183.358 292 180.502 290.656C177.702 289.256 175.49 287.352 173.866 284.944C172.298 282.48 171.514 279.624 171.514 276.376V267.556C171.514 264.7 172.27 262.068 173.782 259.66C175.294 257.252 177.31 255.32 179.83 253.864C182.406 252.408 185.206 251.68 188.23 251.68C191.086 251.68 193.746 252.352 196.21 253.696C198.674 255.04 200.634 256.888 202.09 259.24C203.602 261.536 204.358 264.168 204.358 267.136C204.358 269.376 203.994 271 203.266 272.008C202.594 272.96 201.67 273.548 200.494 273.772C199.374 273.996 198.198 274.108 196.966 274.108H178.486V276.628C178.486 279.764 179.606 282.256 181.846 284.104C184.086 285.896 186.97 286.792 190.498 286.792C192.57 286.792 194.222 286.512 195.454 285.952C196.686 285.392 197.666 284.86 198.394 284.356C199.178 283.796 199.906 283.516 200.578 283.516C201.418 283.516 202.09 283.908 202.594 284.692C203.154 285.42 203.434 286.092 203.434 286.708C203.434 287.436 202.902 288.276 201.838 289.228C200.774 290.124 199.234 290.936 197.218 291.664C195.258 292.336 192.934 292.672 190.246 292.672ZM178.486 269.404H194.026C195.482 269.404 196.462 269.236 196.966 268.9C197.47 268.564 197.722 267.836 197.722 266.716C197.722 265.036 197.302 263.496 196.462 262.096C195.678 260.64 194.558 259.464 193.102 258.568C191.646 257.672 189.994 257.224 188.146 257.224C185.514 257.224 183.246 258.12 181.342 259.912C179.438 261.704 178.486 263.86 178.486 266.38V269.404ZM215.433 292C214.481 292 213.669 291.748 212.997 291.244C212.381 290.684 212.073 290.096 212.073 289.48V254.62C212.073 253.892 212.381 253.304 212.997 252.856C213.669 252.408 214.481 252.184 215.433 252.184C216.329 252.184 217.085 252.408 217.701 252.856C218.373 253.304 218.709 253.892 218.709 254.62V258.568C219.605 256.832 221.005 255.264 222.909 253.864C224.813 252.408 227.081 251.68 229.713 251.68H232.569C233.241 251.68 233.857 252.016 234.417 252.688C234.977 253.304 235.257 254.032 235.257 254.872C235.257 255.712 234.977 256.44 234.417 257.056C233.857 257.672 233.241 257.98 232.569 257.98H229.713C227.921 257.98 226.213 258.484 224.589 259.492C222.965 260.5 221.621 261.928 220.557 263.776C219.549 265.568 219.045 267.752 219.045 270.328V289.48C219.045 290.096 218.681 290.684 217.953 291.244C217.281 291.748 216.441 292 215.433 292ZM261.801 292C260.793 292 259.953 291.748 259.281 291.244C258.665 290.684 258.357 290.096 258.357 289.48V230.596C258.357 229.868 258.665 229.28 259.281 228.832C259.953 228.384 260.793 228.16 261.801 228.16C262.753 228.16 263.565 228.384 264.237 228.832C264.965 229.28 265.329 229.868 265.329 230.596V289.48C265.329 290.096 264.965 290.684 264.237 291.244C263.565 291.748 262.753 292 261.801 292ZM293.196 292.672C289.556 292.672 286.308 292 283.452 290.656C280.652 289.256 278.44 287.352 276.816 284.944C275.248 282.48 274.464 279.624 274.464 276.376V267.556C274.464 264.7 275.22 262.068 276.732 259.66C278.244 257.252 280.26 255.32 282.78 253.864C285.356 252.408 288.156 251.68 291.18 251.68C294.036 251.68 296.696 252.352 299.16 253.696C301.624 255.04 303.584 256.888 305.04 259.24C306.552 261.536 307.308 264.168 307.308 267.136C307.308 269.376 306.944 271 306.216 272.008C305.544 272.96 304.62 273.548 303.444 273.772C302.324 273.996 301.148 274.108 299.916 274.108H281.436V276.628C281.436 279.764 282.556 282.256 284.796 284.104C287.036 285.896 289.92 286.792 293.448 286.792C295.52 286.792 297.172 286.512 298.404 285.952C299.636 285.392 300.616 284.86 301.344 284.356C302.128 283.796 302.856 283.516 303.528 283.516C304.368 283.516 305.04 283.908 305.544 284.692C306.104 285.42 306.384 286.092 306.384 286.708C306.384 287.436 305.852 288.276 304.788 289.228C303.724 290.124 302.184 290.936 300.168 291.664C298.208 292.336 295.884 292.672 293.196 292.672ZM281.436 269.404H296.976C298.432 269.404 299.412 269.236 299.916 268.9C300.42 268.564 300.672 267.836 300.672 266.716C300.672 265.036 300.252 263.496 299.412 262.096C298.628 260.64 297.508 259.464 296.052 258.568C294.596 257.672 292.944 257.224 291.096 257.224C288.464 257.224 286.196 258.12 284.292 259.912C282.388 261.704 281.436 263.86 281.436 266.38V269.404ZM343.263 292.672C340.575 292.672 338.195 292.336 336.123 291.664C334.051 290.992 332.427 290.18 331.251 289.228C330.075 288.22 329.487 287.24 329.487 286.288C329.487 285.672 329.711 285 330.159 284.272C330.663 283.488 331.251 283.096 331.923 283.096C332.595 283.096 333.295 283.432 334.023 284.104C334.807 284.72 335.871 285.364 337.215 286.036C338.615 286.708 340.575 287.044 343.095 287.044C346.063 287.044 348.135 286.512 349.311 285.448C350.487 284.328 351.075 283.096 351.075 281.752C351.075 280.016 350.571 278.7 349.563 277.804C348.555 276.852 347.267 276.124 345.699 275.62C344.131 275.06 342.479 274.528 340.743 274.024C339.007 273.52 337.355 272.904 335.787 272.176C334.219 271.392 332.931 270.328 331.923 268.984C330.971 267.64 330.495 265.792 330.495 263.44C330.495 261.592 330.943 259.772 331.839 257.98C332.735 256.188 334.191 254.704 336.207 253.528C338.223 252.296 340.911 251.68 344.271 251.68C346.231 251.68 348.107 251.904 349.899 252.352C351.747 252.8 353.231 253.36 354.351 254.032C355.527 254.704 356.115 255.432 356.115 256.216C356.115 256.776 355.863 257.504 355.359 258.4C354.855 259.296 354.183 259.744 353.343 259.744C352.839 259.744 352.195 259.548 351.411 259.156C350.627 258.708 349.647 258.288 348.471 257.896C347.351 257.504 345.979 257.308 344.355 257.308C341.555 257.308 339.567 257.98 338.391 259.324C337.271 260.668 336.711 261.956 336.711 263.188C336.711 264.588 337.187 265.68 338.139 266.464C339.147 267.248 340.435 267.892 342.003 268.396C343.571 268.844 345.223 269.32 346.959 269.824C348.751 270.272 350.431 270.944 351.999 271.84C353.567 272.68 354.855 273.856 355.863 275.368C356.871 276.88 357.375 278.896 357.375 281.416C357.375 284.832 356.143 287.576 353.679 289.648C351.215 291.664 347.743 292.672 343.263 292.672ZM380.015 292.672C377.047 292.672 374.303 291.916 371.783 290.404C369.263 288.836 367.247 286.82 365.735 284.356C364.223 281.892 363.467 279.232 363.467 276.376V267.808C363.467 264.952 364.195 262.32 365.651 259.912C367.163 257.448 369.179 255.46 371.699 253.948C374.219 252.436 376.991 251.68 380.015 251.68C382.983 251.68 385.727 252.408 388.247 253.864C390.767 255.32 392.783 257.28 394.295 259.744C395.863 262.208 396.647 264.896 396.647 267.808V276.376C396.647 279.176 395.863 281.836 394.295 284.356C392.783 286.82 390.767 288.836 388.247 290.404C385.727 291.916 382.983 292.672 380.015 292.672ZM380.015 286.372C381.807 286.372 383.431 285.896 384.887 284.944C386.343 283.992 387.491 282.76 388.331 281.248C389.227 279.68 389.675 278.056 389.675 276.376V267.808C389.675 266.184 389.227 264.616 388.331 263.104C387.491 261.592 386.343 260.36 384.887 259.408C383.431 258.456 381.807 257.98 380.015 257.98C378.223 257.98 376.599 258.456 375.143 259.408C373.687 260.36 372.539 261.592 371.699 263.104C370.859 264.616 370.439 266.184 370.439 267.808V276.376C370.439 278.056 370.859 279.68 371.699 281.248C372.539 282.76 373.687 283.992 375.143 284.944C376.599 285.896 378.223 286.372 380.015 286.372ZM408.455 292C407.447 292 406.607 291.748 405.935 291.244C405.319 290.684 405.011 290.096 405.011 289.48V254.62C405.011 253.892 405.319 253.304 405.935 252.856C406.607 252.408 407.447 252.184 408.455 252.184C409.295 252.184 410.023 252.408 410.639 252.856C411.311 253.304 411.647 253.892 411.647 254.62V258.064C412.487 256.44 413.859 254.984 415.763 253.696C417.723 252.352 420.103 251.68 422.903 251.68C425.535 251.68 427.971 252.408 430.211 253.864C432.451 255.32 434.243 257.28 435.587 259.744C436.987 262.208 437.687 264.896 437.687 267.808V289.48C437.687 290.32 437.323 290.964 436.595 291.412C435.867 291.804 435.055 292 434.159 292C433.319 292 432.535 291.804 431.807 291.412C431.079 290.964 430.715 290.32 430.715 289.48V267.808C430.715 266.184 430.267 264.616 429.371 263.104C428.531 261.592 427.383 260.36 425.927 259.408C424.471 258.456 422.875 257.98 421.139 257.98C419.627 257.98 418.171 258.372 416.771 259.156C415.371 259.94 414.223 261.088 413.327 262.6C412.431 264.056 411.983 265.792 411.983 267.808V289.48C411.983 290.096 411.619 290.684 410.891 291.244C410.219 291.748 409.407 292 408.455 292Z" fill=""/>
</svg>
