<svg width="1920" height="54" viewBox="0 0 1920 54" fill="none" xmlns="http://www.w3.org/2000/svg">
<path d="M947.703 50.015C947.583 50.015 947.483 49.96 947.403 49.85C947.323 49.74 947.253 49.625 947.193 49.505L944.868 45.005H942.963V49.625C942.963 49.745 942.908 49.84 942.798 49.91C942.698 49.97 942.588 50 942.468 50C942.338 50 942.223 49.97 942.123 49.91C942.023 49.84 941.973 49.745 941.973 49.625V39.395C941.973 39.305 942.008 39.225 942.078 39.155C942.148 39.085 942.238 39.045 942.348 39.035H945.003C945.593 39.035 946.133 39.125 946.623 39.305C947.113 39.485 947.503 39.79 947.793 40.22C948.093 40.65 948.243 41.24 948.243 41.99C948.243 42.61 948.138 43.12 947.928 43.52C947.718 43.92 947.438 44.23 947.088 44.45C946.738 44.66 946.343 44.805 945.903 44.885L948.213 49.325C948.253 49.385 948.273 49.45 948.273 49.52C948.273 49.65 948.213 49.765 948.093 49.865C947.973 49.965 947.843 50.015 947.703 50.015ZM942.963 44.15H945.003C945.673 44.15 946.213 43.99 946.623 43.67C947.043 43.34 947.253 42.795 947.253 42.035C947.253 41.285 947.043 40.75 946.623 40.43C946.213 40.11 945.673 39.95 945.003 39.95H942.963V44.15ZM952.496 50.105C951.866 50.105 951.306 49.99 950.816 49.76C950.336 49.52 949.956 49.185 949.676 48.755C949.406 48.325 949.271 47.825 949.271 47.255V45.575C949.271 45.075 949.401 44.62 949.661 44.21C949.921 43.79 950.266 43.455 950.696 43.205C951.136 42.945 951.616 42.815 952.136 42.815C952.636 42.815 953.096 42.935 953.516 43.175C953.946 43.405 954.291 43.725 954.551 44.135C954.811 44.545 954.941 45.015 954.941 45.545C954.941 45.935 954.876 46.215 954.746 46.385C954.616 46.545 954.451 46.645 954.251 46.685C954.061 46.725 953.856 46.745 953.636 46.745H950.246V47.3C950.246 47.9 950.461 48.38 950.891 48.74C951.321 49.09 951.866 49.265 952.526 49.265C952.926 49.265 953.231 49.215 953.441 49.115C953.661 49.015 953.836 48.915 953.966 48.815C954.096 48.715 954.216 48.665 954.326 48.665C954.446 48.665 954.546 48.72 954.626 48.83C954.706 48.93 954.746 49.025 954.746 49.115C954.746 49.235 954.651 49.375 954.461 49.535C954.281 49.685 954.021 49.82 953.681 49.94C953.351 50.05 952.956 50.105 952.496 50.105ZM950.246 46.025H953.246C953.546 46.025 953.746 45.995 953.846 45.935C953.946 45.865 953.996 45.725 953.996 45.515C953.996 45.195 953.916 44.895 953.756 44.615C953.596 44.325 953.376 44.09 953.096 43.91C952.816 43.72 952.491 43.625 952.121 43.625C951.771 43.625 951.456 43.71 951.176 43.88C950.896 44.04 950.671 44.26 950.501 44.54C950.331 44.82 950.246 45.125 950.246 45.455V46.025ZM958.751 50C957.981 50 957.391 49.825 956.981 49.475C956.571 49.125 956.366 48.565 956.366 47.795V39.89C956.366 39.79 956.416 39.705 956.516 39.635C956.626 39.565 956.736 39.53 956.846 39.53C956.976 39.53 957.091 39.565 957.191 39.635C957.291 39.705 957.341 39.79 957.341 39.89V42.905H959.291C959.391 42.905 959.471 42.95 959.531 43.04C959.591 43.12 959.621 43.21 959.621 43.31C959.621 43.42 959.591 43.515 959.531 43.595C959.471 43.675 959.391 43.715 959.291 43.715H957.341V47.795C957.341 48.285 957.446 48.63 957.656 48.83C957.866 49.02 958.231 49.115 958.751 49.115H959.171C959.301 49.115 959.406 49.16 959.486 49.25C959.566 49.34 959.606 49.44 959.606 49.55C959.606 49.67 959.566 49.775 959.486 49.865C959.406 49.955 959.301 50 959.171 50H958.751ZM963.254 50.105C962.744 50.105 962.274 49.975 961.844 49.715C961.414 49.445 961.064 49.095 960.794 48.665C960.534 48.225 960.404 47.755 960.404 47.255V45.62C960.404 45.12 960.534 44.66 960.794 44.24C961.054 43.81 961.399 43.465 961.829 43.205C962.259 42.945 962.734 42.815 963.254 42.815C963.764 42.815 964.234 42.945 964.664 43.205C965.094 43.455 965.439 43.795 965.699 44.225C965.969 44.645 966.104 45.11 966.104 45.62V47.255C966.104 47.755 965.969 48.225 965.699 48.665C965.439 49.095 965.094 49.445 964.664 49.715C964.234 49.975 963.764 50.105 963.254 50.105ZM963.254 49.205C963.594 49.205 963.904 49.115 964.184 48.935C964.474 48.745 964.704 48.505 964.874 48.215C965.044 47.915 965.129 47.595 965.129 47.255V45.62C965.129 45.3 965.044 44.995 964.874 44.705C964.714 44.415 964.489 44.18 964.199 44C963.919 43.81 963.604 43.715 963.254 43.715C962.904 43.715 962.584 43.81 962.294 44C962.014 44.18 961.789 44.415 961.619 44.705C961.459 44.995 961.379 45.3 961.379 45.62V47.255C961.379 47.595 961.464 47.915 961.634 48.215C961.804 48.505 962.029 48.745 962.309 48.935C962.589 49.115 962.904 49.205 963.254 49.205ZM970.51 50.105C969.98 50.105 969.5 49.975 969.07 49.715C968.64 49.445 968.295 49.1 968.035 48.68C967.775 48.25 967.645 47.785 967.645 47.285V43.28C967.645 43.19 967.69 43.105 967.78 43.025C967.88 42.945 968 42.905 968.14 42.905C968.27 42.905 968.38 42.945 968.47 43.025C968.57 43.105 968.62 43.19 968.62 43.28V47.285C968.62 47.615 968.705 47.925 968.875 48.215C969.045 48.505 969.27 48.745 969.55 48.935C969.84 49.115 970.16 49.205 970.51 49.205C970.85 49.205 971.16 49.115 971.44 48.935C971.73 48.755 971.955 48.52 972.115 48.23C972.285 47.93 972.37 47.615 972.37 47.285V43.265C972.37 43.175 972.42 43.095 972.52 43.025C972.62 42.945 972.735 42.905 972.865 42.905C973.005 42.905 973.12 42.945 973.21 43.025C973.3 43.095 973.345 43.175 973.345 43.265V47.285C973.345 47.785 973.215 48.25 972.955 48.68C972.695 49.11 972.35 49.455 971.92 49.715C971.49 49.975 971.02 50.105 970.51 50.105ZM975.626 50C975.486 50 975.371 49.96 975.281 49.88C975.191 49.8 975.146 49.715 975.146 49.625V43.265C975.146 43.165 975.191 43.08 975.281 43.01C975.371 42.94 975.486 42.905 975.626 42.905C975.756 42.905 975.866 42.94 975.956 43.01C976.046 43.08 976.091 43.165 976.091 43.265V44C976.251 43.7 976.501 43.43 976.841 43.19C977.191 42.94 977.611 42.815 978.101 42.815H978.626C978.726 42.815 978.816 42.86 978.896 42.95C978.976 43.04 979.016 43.145 979.016 43.265C979.016 43.385 978.976 43.49 978.896 43.58C978.816 43.67 978.726 43.715 978.626 43.715H978.101C977.771 43.715 977.451 43.805 977.141 43.985C976.841 44.155 976.596 44.405 976.406 44.735C976.216 45.055 976.121 45.445 976.121 45.905V49.625C976.121 49.715 976.071 49.8 975.971 49.88C975.881 49.96 975.766 50 975.626 50Z" fill="#485F62"/>
<line y1="-0.5" x2="19.799" y2="-0.5" transform="matrix(0.707107 -0.707107 -0.707107 -0.707107 946 18.5)" stroke="#485F62"/>
<line y1="-0.5" x2="19.799" y2="-0.5" transform="matrix(-0.707107 -0.707107 -0.707107 0.707107 974 18.5)" stroke="#485F62"/>
</svg>
