<svg width="712" height="97" viewBox="0 0 712 97" fill="none" xmlns="http://www.w3.org/2000/svg">
<g clip-path="url(#clip0)">
<path d="M372 26.0492C372 29.2889 372 32.5285 372 35.8013C371.968 38.9417 371.291 41.8839 369.615 44.5285C367.102 48.5285 363.589 51.0079 358.981 51.7682C354.728 52.4624 350.828 51.5368 347.38 48.9252C343.191 45.7517 341.097 41.388 341.032 36.0657C340.968 29.388 341 22.7103 341.032 16.0327C341.064 8.92522 345.221 2.87563 351.827 0.826045C357.886 -1.05825 363.332 0.363235 367.779 5.09051C370.711 8.19795 371.968 11.9996 372 16.2641C372 19.5368 372 22.8095 372 26.0492ZM343.868 26.0492C343.836 29.3219 343.868 32.6277 343.836 35.9004C343.804 39.5037 344.996 42.6442 347.445 45.1897C350.7 48.5285 354.663 49.7847 359.142 48.826C365.136 47.5037 369.132 42.2806 369.164 35.9665C369.164 29.355 369.164 22.7434 369.164 16.1318C369.164 15.1732 369.1 14.1814 368.906 13.2227C367.295 5.78472 360.109 1.38803 352.988 3.47067C347.832 4.92522 343.965 9.91695 343.9 15.3715C343.836 18.9417 343.868 22.4789 343.868 26.0492Z" fill="#485F62"/>
<path d="M357.918 13.7186C357.918 14.6773 357.918 15.636 357.918 16.5616C357.918 17.4211 357.37 18.0161 356.597 18.0492C355.791 18.0822 355.147 17.5203 355.147 16.6277C355.114 14.6773 355.114 12.7269 355.147 10.7765C355.147 9.95001 355.791 9.35497 356.564 9.38803C357.338 9.38803 357.918 10.0161 357.918 10.8426C357.918 11.8013 357.918 12.7599 357.918 13.7186Z" fill="#485F62"/>
</g>
<defs>
<clipPath id="clip0">
<rect x="341" width="31" height="52" fill="white"/>
</clipPath>
</defs>
</svg>
