<svg width="412" height="84" viewBox="0 0 412 84" fill="none" xmlns="http://www.w3.org/2000/svg">
<g clip-path="url(#clip0)">
<path d="M222 26.0492C222 29.2889 222 32.5285 222 35.8013C221.968 38.9417 221.291 41.8839 219.615 44.5285C217.102 48.5285 213.589 51.0079 208.981 51.7682C204.728 52.4624 200.828 51.5368 197.38 48.9252C193.191 45.7517 191.097 41.388 191.032 36.0657C190.968 29.388 191 22.7103 191.032 16.0327C191.064 8.92522 195.221 2.87563 201.827 0.826045C207.886 -1.05825 213.332 0.363235 217.779 5.09051C220.711 8.19795 221.968 11.9996 222 16.2641C222 19.5368 222 22.8095 222 26.0492ZM193.868 26.0492C193.836 29.3219 193.868 32.6277 193.836 35.9004C193.804 39.5037 194.996 42.6442 197.445 45.1897C200.7 48.5285 204.663 49.7847 209.142 48.826C215.136 47.5037 219.132 42.2806 219.164 35.9665C219.164 29.355 219.164 22.7434 219.164 16.1318C219.164 15.1732 219.1 14.1814 218.906 13.2227C217.295 5.78472 210.109 1.38803 202.988 3.47067C197.832 4.92522 193.965 9.91695 193.9 15.3715C193.836 18.9417 193.868 22.4789 193.868 26.0492Z" fill="white"/>
<path d="M207.918 13.7186C207.918 14.6773 207.918 15.636 207.918 16.5616C207.918 17.4211 207.37 18.0161 206.597 18.0492C205.791 18.0822 205.147 17.5203 205.147 16.6277C205.114 14.6773 205.114 12.7269 205.147 10.7765C205.147 9.95001 205.791 9.35497 206.564 9.38803C207.338 9.38803 207.918 10.0161 207.918 10.8426C207.918 11.8013 207.918 12.7599 207.918 13.7186Z" fill="white"/>
</g>
<defs>
<clipPath id="clip0">
<rect x="191" width="31" height="52" fill="white"/>
</clipPath>
</defs>
</svg>
