<svg width="412" height="87" viewBox="0 0 412 87" fill="none" xmlns="http://www.w3.org/2000/svg">
<g clip-path="url(#clip0)">
<path d="M222 26.0492C222 29.2889 222 32.5285 222 35.8013C221.968 38.9417 221.291 41.8839 219.615 44.5285C217.102 48.5285 213.589 51.0079 208.981 51.7682C204.728 52.4624 200.828 51.5368 197.38 48.9252C193.191 45.7517 191.097 41.388 191.032 36.0657C190.968 29.388 191 22.7103 191.032 16.0327C191.064 8.92522 195.221 2.87563 201.827 0.826045C207.886 -1.05825 213.332 0.363235 217.779 5.09051C220.711 8.19795 221.968 11.9996 222 16.2641C222 19.5368 222 22.8095 222 26.0492ZM193.868 26.0492C193.836 29.3219 193.868 32.6277 193.836 35.9004C193.804 39.5037 194.996 42.6442 197.445 45.1897C200.7 48.5285 204.663 49.7847 209.142 48.826C215.136 47.5037 219.132 42.2806 219.164 35.9665C219.164 29.355 219.164 22.7434 219.164 16.1318C219.164 15.1732 219.1 14.1814 218.906 13.2227C217.295 5.78472 210.109 1.38803 202.988 3.47067C197.832 4.92522 193.965 9.91695 193.9 15.3715C193.836 18.9417 193.868 22.4789 193.868 26.0492Z" fill="#485F62"/>
<path d="M207.918 13.7186C207.918 14.6773 207.918 15.636 207.918 16.5616C207.918 17.4211 207.37 18.0161 206.597 18.0492C205.791 18.0822 205.147 17.5203 205.147 16.6277C205.114 14.6773 205.114 12.7269 205.147 10.7765C205.147 9.95001 205.791 9.35497 206.564 9.38803C207.338 9.38803 207.918 10.0161 207.918 10.8426C207.918 11.8013 207.918 12.7599 207.918 13.7186Z" fill="#485F62"/>
</g>
<path d="M34.5178 81.154C33.5792 81.154 32.7725 81.0147 32.0978 80.736C31.4232 80.4427 30.9025 80.1127 30.5358 79.746C30.1838 79.3647 30.0078 79.042 30.0078 78.778C30.0078 78.602 30.0738 78.426 30.2058 78.25C30.3525 78.0593 30.5065 77.964 30.6678 77.964C30.8145 77.964 30.9612 78.0593 31.1078 78.25C31.2692 78.426 31.4745 78.6387 31.7238 78.888C31.9878 79.1227 32.3325 79.3353 32.7578 79.526C33.1832 79.702 33.7405 79.79 34.4298 79.79C35.4565 79.79 36.2558 79.5407 36.8278 79.042C37.4145 78.5287 37.7078 77.766 37.7078 76.754C37.7078 76.0647 37.5758 75.5 37.3118 75.06C37.0478 74.62 36.6958 74.268 36.2558 74.004C35.8305 73.7253 35.3538 73.4907 34.8258 73.3C34.3125 73.1093 33.7918 72.9113 33.2638 72.706C32.7505 72.5007 32.2738 72.2513 31.8338 71.958C31.4085 71.65 31.0638 71.254 30.7998 70.77C30.5358 70.2713 30.4038 69.6407 30.4038 68.878C30.4038 68.0713 30.5505 67.4113 30.8438 66.898C31.1372 66.37 31.5112 65.9593 31.9658 65.666C32.4352 65.3727 32.9412 65.1673 33.4838 65.05C34.0265 64.9327 34.5545 64.874 35.0678 64.874C35.6105 64.874 36.1678 64.9327 36.7398 65.05C37.3118 65.1673 37.7885 65.3287 38.1698 65.534C38.5658 65.7247 38.7638 65.952 38.7638 66.216C38.7638 66.3627 38.7052 66.5387 38.5878 66.744C38.4852 66.9347 38.3312 67.03 38.1258 67.03C37.9938 67.03 37.8105 66.964 37.5758 66.832C37.3412 66.6853 37.0185 66.546 36.6078 66.414C36.2118 66.2673 35.6912 66.194 35.0458 66.194C34.5032 66.194 33.9898 66.2747 33.5058 66.436C33.0218 66.5827 32.6258 66.8467 32.3178 67.228C32.0098 67.5947 31.8558 68.1007 31.8558 68.746C31.8558 69.3327 31.9878 69.8093 32.2518 70.176C32.5158 70.528 32.8605 70.8213 33.2858 71.056C33.7258 71.276 34.2025 71.474 34.7158 71.65C35.2438 71.826 35.7645 72.024 36.2778 72.244C36.8058 72.464 37.2825 72.75 37.7078 73.102C38.1478 73.454 38.4998 73.9087 38.7638 74.466C39.0278 75.0233 39.1598 75.742 39.1598 76.622C39.1598 77.6633 38.9618 78.5213 38.5658 79.196C38.1698 79.856 37.6198 80.3473 36.9158 80.67C36.2265 80.9927 35.4272 81.154 34.5178 81.154ZM45.3669 81.154C44.3989 81.154 43.5996 80.9707 42.9689 80.604C42.3382 80.2373 41.8689 79.746 41.5609 79.13C41.2529 78.4993 41.0989 77.7807 41.0989 76.974V74.62C41.0989 73.8427 41.2456 73.1387 41.5389 72.508C41.8469 71.8773 42.3162 71.3787 42.9469 71.012C43.5776 70.6453 44.3842 70.462 45.3669 70.462C45.9829 70.462 46.5182 70.5427 46.9729 70.704C47.4422 70.8507 47.8016 71.0413 48.0509 71.276C48.3149 71.496 48.4469 71.7013 48.4469 71.892C48.4469 72.0387 48.3809 72.1927 48.2489 72.354C48.1316 72.5153 47.9922 72.596 47.8309 72.596C47.6842 72.596 47.5302 72.53 47.3689 72.398C47.2076 72.2513 46.9729 72.112 46.6649 71.98C46.3716 71.848 45.9609 71.782 45.4329 71.782C44.4796 71.782 43.7536 72.0387 43.2549 72.552C42.7709 73.0507 42.5289 73.74 42.5289 74.62V76.974C42.5289 77.8687 42.7709 78.5727 43.2549 79.086C43.7389 79.5847 44.4722 79.834 45.4549 79.834C46.0122 79.834 46.4449 79.768 46.7529 79.636C47.0609 79.4893 47.2956 79.35 47.4569 79.218C47.6329 79.086 47.7942 79.02 47.9409 79.02C48.1316 79.02 48.2856 79.0933 48.4029 79.24C48.5202 79.3867 48.5789 79.5407 48.5789 79.702C48.5789 79.8927 48.4469 80.1053 48.1829 80.34C47.9189 80.56 47.5449 80.7507 47.0609 80.912C46.5769 81.0733 46.0122 81.154 45.3669 81.154ZM51.2213 81C51.016 81 50.8473 80.9413 50.7153 80.824C50.5833 80.7067 50.5173 80.582 50.5173 80.45V71.122C50.5173 70.9753 50.5833 70.8507 50.7153 70.748C50.8473 70.6453 51.016 70.594 51.2213 70.594C51.412 70.594 51.5733 70.6453 51.7053 70.748C51.8373 70.8507 51.9033 70.9753 51.9033 71.122V72.2C52.138 71.76 52.5047 71.364 53.0033 71.012C53.5167 70.6453 54.1327 70.462 54.8513 70.462H55.6213C55.768 70.462 55.9 70.528 56.0173 70.66C56.1347 70.792 56.1933 70.946 56.1933 71.122C56.1933 71.298 56.1347 71.452 56.0173 71.584C55.9 71.716 55.768 71.782 55.6213 71.782H54.8513C54.3673 71.782 53.898 71.914 53.4433 72.178C53.0033 72.4273 52.644 72.794 52.3653 73.278C52.0867 73.7473 51.9473 74.3193 51.9473 74.994V80.45C51.9473 80.582 51.874 80.7067 51.7273 80.824C51.5953 80.9413 51.4267 81 51.2213 81ZM61.0904 81.154C60.3424 81.154 59.653 80.9633 59.0224 80.582C58.3917 80.186 57.8784 79.6727 57.4824 79.042C57.101 78.3967 56.9104 77.7073 56.9104 76.974V74.576C56.9104 73.8427 57.101 73.168 57.4824 72.552C57.8637 71.9213 58.3697 71.4153 59.0004 71.034C59.631 70.6527 60.3277 70.462 61.0904 70.462C61.8384 70.462 62.5277 70.6527 63.1584 71.034C63.789 71.4007 64.295 71.8993 64.6764 72.53C65.0724 73.146 65.2704 73.828 65.2704 74.576V76.974C65.2704 77.7073 65.0724 78.3967 64.6764 79.042C64.295 79.6727 63.789 80.186 63.1584 80.582C62.5277 80.9633 61.8384 81.154 61.0904 81.154ZM61.0904 79.834C61.589 79.834 62.0437 79.702 62.4544 79.438C62.8797 79.1593 63.217 78.8073 63.4664 78.382C63.7157 77.942 63.8404 77.4727 63.8404 76.974V74.576C63.8404 74.1067 63.7157 73.6593 63.4664 73.234C63.2317 72.8087 62.9017 72.464 62.4764 72.2C62.0657 71.9213 61.6037 71.782 61.0904 71.782C60.577 71.782 60.1077 71.9213 59.6824 72.2C59.2717 72.464 58.9417 72.8087 58.6924 73.234C58.4577 73.6593 58.3404 74.1067 58.3404 74.576V76.974C58.3404 77.4727 58.465 77.942 58.7144 78.382C58.9637 78.8073 59.2937 79.1593 59.7044 79.438C60.115 79.702 60.577 79.834 61.0904 79.834ZM68.5209 81C68.3155 81 68.1469 80.9413 68.0149 80.824C67.8829 80.7067 67.8169 80.582 67.8169 80.45V64.742C67.8169 64.5953 67.8829 64.4707 68.0149 64.368C68.1469 64.2653 68.3155 64.214 68.5209 64.214C68.7262 64.214 68.8949 64.2653 69.0269 64.368C69.1735 64.4707 69.2469 64.5953 69.2469 64.742V80.45C69.2469 80.582 69.1735 80.7067 69.0269 80.824C68.8949 80.9413 68.7262 81 68.5209 81ZM73.0756 81C72.8702 81 72.7016 80.9413 72.5696 80.824C72.4376 80.7067 72.3716 80.582 72.3716 80.45V64.742C72.3716 64.5953 72.4376 64.4707 72.5696 64.368C72.7016 64.2653 72.8702 64.214 73.0756 64.214C73.2809 64.214 73.4496 64.2653 73.5816 64.368C73.7282 64.4707 73.8016 64.5953 73.8016 64.742V80.45C73.8016 80.582 73.7282 80.7067 73.5816 80.824C73.4496 80.9413 73.2809 81 73.0756 81ZM81.0843 81.154C80.1603 81.154 79.3389 80.9853 78.6203 80.648C77.9163 80.296 77.3589 79.8047 76.9483 79.174C76.5523 78.5433 76.3543 77.81 76.3543 76.974V74.51C76.3543 73.7767 76.5449 73.1093 76.9263 72.508C77.3076 71.892 77.8136 71.4007 78.4443 71.034C79.0896 70.6527 79.7936 70.462 80.5563 70.462C81.2896 70.462 81.9643 70.638 82.5803 70.99C83.2109 71.3273 83.7169 71.7967 84.0983 72.398C84.4796 72.9993 84.6703 73.6887 84.6703 74.466C84.6703 75.038 84.5749 75.4487 84.3843 75.698C84.1936 75.9327 83.9516 76.0793 83.6583 76.138C83.3796 76.1967 83.0789 76.226 82.7563 76.226H77.7843V77.04C77.7843 77.92 78.0996 78.624 78.7303 79.152C79.3609 79.6653 80.1603 79.922 81.1283 79.922C81.7149 79.922 82.1623 79.8487 82.4703 79.702C82.7929 79.5553 83.0496 79.4087 83.2403 79.262C83.4309 79.1153 83.6069 79.042 83.7683 79.042C83.9443 79.042 84.0909 79.1227 84.2083 79.284C84.3256 79.4307 84.3843 79.57 84.3843 79.702C84.3843 79.878 84.2449 80.0833 83.9663 80.318C83.7023 80.538 83.3209 80.736 82.8223 80.912C82.3383 81.0733 81.7589 81.154 81.0843 81.154ZM77.7843 75.17H82.1843C82.6243 75.17 82.9176 75.126 83.0643 75.038C83.2109 74.9353 83.2843 74.73 83.2843 74.422C83.2843 73.9527 83.1669 73.5127 82.9323 73.102C82.6976 72.6767 82.3749 72.332 81.9643 72.068C81.5536 71.7893 81.0769 71.65 80.5343 71.65C80.0209 71.65 79.5589 71.7747 79.1483 72.024C78.7376 72.2587 78.4076 72.5813 78.1583 72.992C77.9089 73.4027 77.7843 73.85 77.7843 74.334V75.17ZM86.5404 81C86.3644 81 86.2251 80.9413 86.1224 80.824C86.0198 80.7067 85.9684 80.582 85.9684 80.45C85.9684 80.2447 86.0418 80.0613 86.1884 79.9L91.5564 71.848H86.7164C86.5698 71.848 86.4378 71.7893 86.3204 71.672C86.2178 71.5547 86.1664 71.408 86.1664 71.232C86.1664 71.056 86.2178 70.9093 86.3204 70.792C86.4231 70.66 86.5551 70.594 86.7164 70.594H92.9204C93.0818 70.594 93.2138 70.6453 93.3164 70.748C93.4338 70.8507 93.4924 70.99 93.4924 71.166C93.4924 71.3567 93.4264 71.5327 93.2944 71.694L87.9044 79.746H93.2064C93.3531 79.746 93.4778 79.812 93.5804 79.944C93.6978 80.0613 93.7564 80.208 93.7564 80.384C93.7564 80.5453 93.7051 80.692 93.6024 80.824C93.4998 80.9413 93.3678 81 93.2064 81H86.5404ZM100.765 86.104C100.559 86.104 100.391 86.0453 100.259 85.928C100.127 85.8107 100.061 85.6787 100.061 85.532V71.122C100.061 70.9753 100.127 70.8507 100.259 70.748C100.391 70.6453 100.559 70.594 100.765 70.594C100.955 70.594 101.117 70.6453 101.249 70.748C101.381 70.8507 101.447 70.9753 101.447 71.122V72.134C101.681 71.7087 102.048 71.3273 102.547 70.99C103.06 70.638 103.676 70.462 104.395 70.462C105.113 70.462 105.773 70.6527 106.375 71.034C106.976 71.4007 107.453 71.8993 107.805 72.53C108.171 73.146 108.355 73.828 108.355 74.576V76.974C108.355 77.7073 108.171 78.3967 107.805 79.042C107.453 79.6727 106.976 80.186 106.375 80.582C105.788 80.9633 105.15 81.154 104.461 81.154C103.786 81.154 103.177 80.9853 102.635 80.648C102.107 80.3107 101.725 79.9147 101.491 79.46V85.532C101.491 85.6787 101.417 85.8107 101.271 85.928C101.139 86.0453 100.97 86.104 100.765 86.104ZM104.197 79.834C104.681 79.834 105.128 79.702 105.539 79.438C105.949 79.1593 106.279 78.8 106.529 78.36C106.793 77.92 106.925 77.458 106.925 76.974V74.576C106.925 74.1067 106.8 73.6593 106.551 73.234C106.301 72.8087 105.964 72.464 105.539 72.2C105.128 71.9213 104.666 71.782 104.153 71.782C103.713 71.782 103.287 71.892 102.877 72.112C102.481 72.332 102.151 72.6547 101.887 73.08C101.623 73.4907 101.491 73.9893 101.491 74.576V77.656C101.491 77.876 101.608 78.162 101.843 78.514C102.077 78.8513 102.393 79.1593 102.789 79.438C103.199 79.702 103.669 79.834 104.197 79.834ZM114.479 81.154C113.731 81.154 113.042 80.9633 112.411 80.582C111.78 80.186 111.267 79.6727 110.871 79.042C110.49 78.3967 110.299 77.7073 110.299 76.974V74.576C110.299 73.8427 110.49 73.168 110.871 72.552C111.252 71.9213 111.758 71.4153 112.389 71.034C113.02 70.6527 113.716 70.462 114.479 70.462C115.227 70.462 115.916 70.6527 116.547 71.034C117.178 71.4007 117.684 71.8993 118.065 72.53C118.461 73.146 118.659 73.828 118.659 74.576V76.974C118.659 77.7073 118.461 78.3967 118.065 79.042C117.684 79.6727 117.178 80.186 116.547 80.582C115.916 80.9633 115.227 81.154 114.479 81.154ZM114.479 79.834C114.978 79.834 115.432 79.702 115.843 79.438C116.268 79.1593 116.606 78.8073 116.855 78.382C117.104 77.942 117.229 77.4727 117.229 76.974V74.576C117.229 74.1067 117.104 73.6593 116.855 73.234C116.62 72.8087 116.29 72.464 115.865 72.2C115.454 71.9213 114.992 71.782 114.479 71.782C113.966 71.782 113.496 71.9213 113.071 72.2C112.66 72.464 112.33 72.8087 112.081 73.234C111.846 73.6593 111.729 74.1067 111.729 74.576V76.974C111.729 77.4727 111.854 77.942 112.103 78.382C112.352 78.8073 112.682 79.1593 113.093 79.438C113.504 79.702 113.966 79.834 114.479 79.834ZM125.122 81.154C124.344 81.154 123.64 80.9633 123.01 80.582C122.379 80.186 121.873 79.68 121.492 79.064C121.11 78.4333 120.92 77.7513 120.92 77.018V71.144C120.92 71.012 120.986 70.8873 121.118 70.77C121.264 70.6527 121.44 70.594 121.646 70.594C121.836 70.594 121.998 70.6527 122.13 70.77C122.276 70.8873 122.35 71.012 122.35 71.144V77.018C122.35 77.502 122.474 77.9567 122.724 78.382C122.973 78.8073 123.303 79.1593 123.714 79.438C124.139 79.702 124.608 79.834 125.122 79.834C125.62 79.834 126.075 79.702 126.486 79.438C126.911 79.174 127.241 78.8293 127.476 78.404C127.725 77.964 127.85 77.502 127.85 77.018V71.122C127.85 70.99 127.923 70.8727 128.07 70.77C128.216 70.6527 128.385 70.594 128.576 70.594C128.781 70.594 128.95 70.6527 129.082 70.77C129.214 70.8727 129.28 70.99 129.28 71.122V77.018C129.28 77.7513 129.089 78.4333 128.708 79.064C128.326 79.6947 127.82 80.2007 127.19 80.582C126.559 80.9633 125.87 81.154 125.122 81.154ZM132.626 81C132.42 81 132.252 80.9413 132.12 80.824C131.988 80.7067 131.922 80.582 131.922 80.45V71.122C131.922 70.9753 131.988 70.8507 132.12 70.748C132.252 70.6453 132.42 70.594 132.626 70.594C132.816 70.594 132.978 70.6453 133.11 70.748C133.242 70.8507 133.308 70.9753 133.308 71.122V72.2C133.542 71.76 133.909 71.364 134.408 71.012C134.921 70.6453 135.537 70.462 136.256 70.462H137.026C137.172 70.462 137.304 70.528 137.422 70.66C137.539 70.792 137.598 70.946 137.598 71.122C137.598 71.298 137.539 71.452 137.422 71.584C137.304 71.716 137.172 71.782 137.026 71.782H136.256C135.772 71.782 135.302 71.914 134.848 72.178C134.408 72.4273 134.048 72.794 133.77 73.278C133.491 73.7473 133.352 74.3193 133.352 74.994V80.45C133.352 80.582 133.278 80.7067 133.132 80.824C133 80.9413 132.831 81 132.626 81ZM147.108 81.154C146.404 81.154 145.758 80.9633 145.172 80.582C144.585 80.186 144.108 79.6727 143.742 79.042C143.39 78.3967 143.214 77.7073 143.214 76.974V74.576C143.214 73.828 143.39 73.146 143.742 72.53C144.094 71.8993 144.57 71.4007 145.172 71.034C145.773 70.6527 146.433 70.462 147.152 70.462C147.87 70.462 148.472 70.638 148.956 70.99C149.454 71.3273 149.821 71.7087 150.056 72.134V64.742C150.056 64.5953 150.122 64.4707 150.254 64.368C150.4 64.2653 150.576 64.214 150.782 64.214C150.987 64.214 151.156 64.2653 151.288 64.368C151.42 64.4707 151.486 64.5953 151.486 64.742V80.45C151.486 80.582 151.42 80.7067 151.288 80.824C151.156 80.9413 150.987 81 150.782 81C150.606 81 150.452 80.9413 150.32 80.824C150.188 80.7067 150.122 80.582 150.122 80.45V79.46C149.872 79.9147 149.476 80.3107 148.934 80.648C148.391 80.9853 147.782 81.154 147.108 81.154ZM147.35 79.834C147.863 79.834 148.325 79.702 148.736 79.438C149.146 79.1593 149.469 78.8513 149.704 78.514C149.938 78.162 150.056 77.876 150.056 77.656V74.576C150.056 73.9893 149.924 73.4907 149.66 73.08C149.396 72.6547 149.058 72.332 148.648 72.112C148.237 71.892 147.812 71.782 147.372 71.782C146.873 71.782 146.411 71.9213 145.986 72.2C145.575 72.464 145.245 72.8087 144.996 73.234C144.746 73.6593 144.622 74.1067 144.622 74.576V76.974C144.622 77.458 144.746 77.92 144.996 78.36C145.245 78.8 145.575 79.1593 145.986 79.438C146.411 79.702 146.866 79.834 147.35 79.834ZM158.6 81.154C157.676 81.154 156.855 80.9853 156.136 80.648C155.432 80.296 154.875 79.8047 154.464 79.174C154.068 78.5433 153.87 77.81 153.87 76.974V74.51C153.87 73.7767 154.061 73.1093 154.442 72.508C154.823 71.892 155.329 71.4007 155.96 71.034C156.605 70.6527 157.309 70.462 158.072 70.462C158.805 70.462 159.48 70.638 160.096 70.99C160.727 71.3273 161.233 71.7967 161.614 72.398C161.995 72.9993 162.186 73.6887 162.186 74.466C162.186 75.038 162.091 75.4487 161.9 75.698C161.709 75.9327 161.467 76.0793 161.174 76.138C160.895 76.1967 160.595 76.226 160.272 76.226H155.3V77.04C155.3 77.92 155.615 78.624 156.246 79.152C156.877 79.6653 157.676 79.922 158.644 79.922C159.231 79.922 159.678 79.8487 159.986 79.702C160.309 79.5553 160.565 79.4087 160.756 79.262C160.947 79.1153 161.123 79.042 161.284 79.042C161.46 79.042 161.607 79.1227 161.724 79.284C161.841 79.4307 161.9 79.57 161.9 79.702C161.9 79.878 161.761 80.0833 161.482 80.318C161.218 80.538 160.837 80.736 160.338 80.912C159.854 81.0733 159.275 81.154 158.6 81.154ZM155.3 75.17H159.7C160.14 75.17 160.433 75.126 160.58 75.038C160.727 74.9353 160.8 74.73 160.8 74.422C160.8 73.9527 160.683 73.5127 160.448 73.102C160.213 72.6767 159.891 72.332 159.48 72.068C159.069 71.7893 158.593 71.65 158.05 71.65C157.537 71.65 157.075 71.7747 156.664 72.024C156.253 72.2587 155.923 72.5813 155.674 72.992C155.425 73.4027 155.3 73.85 155.3 74.334V75.17ZM156.906 67.998C156.745 67.998 156.605 67.9393 156.488 67.822C156.385 67.69 156.334 67.5433 156.334 67.382C156.334 67.1913 156.415 67.0593 156.576 66.986L159.018 65.644C159.091 65.6 159.157 65.578 159.216 65.578C159.377 65.578 159.502 65.6513 159.59 65.798C159.693 65.93 159.744 66.062 159.744 66.194C159.744 66.4287 159.649 66.59 159.458 66.678L157.126 67.932C157.053 67.976 156.979 67.998 156.906 67.998ZM168.236 81.154C167.268 81.154 166.469 80.9707 165.838 80.604C165.207 80.2373 164.738 79.746 164.43 79.13C164.122 78.4993 163.968 77.7807 163.968 76.974V74.62C163.968 73.8427 164.115 73.1387 164.408 72.508C164.716 71.8773 165.185 71.3787 165.816 71.012C166.447 70.6453 167.253 70.462 168.236 70.462C168.852 70.462 169.387 70.5427 169.842 70.704C170.311 70.8507 170.671 71.0413 170.92 71.276C171.184 71.496 171.316 71.7013 171.316 71.892C171.316 72.0387 171.25 72.1927 171.118 72.354C171.001 72.5153 170.861 72.596 170.7 72.596C170.553 72.596 170.399 72.53 170.238 72.398C170.077 72.2513 169.842 72.112 169.534 71.98C169.241 71.848 168.83 71.782 168.302 71.782C167.349 71.782 166.623 72.0387 166.124 72.552C165.64 73.0507 165.398 73.74 165.398 74.62V76.974C165.398 77.8687 165.64 78.5727 166.124 79.086C166.608 79.5847 167.341 79.834 168.324 79.834C168.881 79.834 169.314 79.768 169.622 79.636C169.93 79.4893 170.165 79.35 170.326 79.218C170.502 79.086 170.663 79.02 170.81 79.02C171.001 79.02 171.155 79.0933 171.272 79.24C171.389 79.3867 171.448 79.5407 171.448 79.702C171.448 79.8927 171.316 80.1053 171.052 80.34C170.788 80.56 170.414 80.7507 169.93 80.912C169.446 81.0733 168.881 81.154 168.236 81.154ZM177.042 81.154C176.294 81.154 175.604 80.9633 174.974 80.582C174.343 80.186 173.83 79.6727 173.434 79.042C173.052 78.3967 172.862 77.7073 172.862 76.974V74.576C172.862 73.8427 173.052 73.168 173.434 72.552C173.815 71.9213 174.321 71.4153 174.952 71.034C175.582 70.6527 176.279 70.462 177.042 70.462C177.79 70.462 178.479 70.6527 179.11 71.034C179.74 71.4007 180.246 71.8993 180.628 72.53C181.024 73.146 181.222 73.828 181.222 74.576V76.974C181.222 77.7073 181.024 78.3967 180.628 79.042C180.246 79.6727 179.74 80.186 179.11 80.582C178.479 80.9633 177.79 81.154 177.042 81.154ZM177.042 79.834C177.54 79.834 177.995 79.702 178.406 79.438C178.831 79.1593 179.168 78.8073 179.418 78.382C179.667 77.942 179.792 77.4727 179.792 76.974V74.576C179.792 74.1067 179.667 73.6593 179.418 73.234C179.183 72.8087 178.853 72.464 178.428 72.2C178.017 71.9213 177.555 71.782 177.042 71.782C176.528 71.782 176.059 71.9213 175.634 72.2C175.223 72.464 174.893 72.8087 174.644 73.234C174.409 73.6593 174.292 74.1067 174.292 74.576V76.974C174.292 77.4727 174.416 77.942 174.666 78.382C174.915 78.8073 175.245 79.1593 175.656 79.438C176.066 79.702 176.528 79.834 177.042 79.834ZM187.684 81.154C186.907 81.154 186.203 80.9633 185.572 80.582C184.941 80.186 184.435 79.68 184.054 79.064C183.673 78.4333 183.482 77.7513 183.482 77.018V71.144C183.482 71.012 183.548 70.8873 183.68 70.77C183.827 70.6527 184.003 70.594 184.208 70.594C184.399 70.594 184.56 70.6527 184.692 70.77C184.839 70.8873 184.912 71.012 184.912 71.144V77.018C184.912 77.502 185.037 77.9567 185.286 78.382C185.535 78.8073 185.865 79.1593 186.276 79.438C186.701 79.702 187.171 79.834 187.684 79.834C188.183 79.834 188.637 79.702 189.048 79.438C189.473 79.174 189.803 78.8293 190.038 78.404C190.287 77.964 190.412 77.502 190.412 77.018V71.122C190.412 70.99 190.485 70.8727 190.632 70.77C190.779 70.6527 190.947 70.594 191.138 70.594C191.343 70.594 191.512 70.6527 191.644 70.77C191.776 70.8727 191.842 70.99 191.842 71.122V77.018C191.842 77.7513 191.651 78.4333 191.27 79.064C190.889 79.6947 190.383 80.2007 189.752 80.582C189.121 80.9633 188.432 81.154 187.684 81.154ZM197.74 81.176C197.388 81.176 197.168 81.0587 197.08 80.824L193.538 71.54C193.523 71.5107 193.501 71.4593 193.472 71.386C193.457 71.3127 193.45 71.254 193.45 71.21C193.45 71.034 193.545 70.88 193.736 70.748C193.927 70.616 194.117 70.55 194.308 70.55C194.572 70.55 194.748 70.66 194.836 70.88L197.74 78.8L200.644 70.968C200.688 70.8507 200.739 70.7553 200.798 70.682C200.871 70.594 200.989 70.55 201.15 70.55C201.311 70.55 201.495 70.616 201.7 70.748C201.92 70.8653 202.03 71.012 202.03 71.188C202.03 71.2613 202.015 71.3273 201.986 71.386C201.971 71.4447 201.957 71.496 201.942 71.54L198.4 80.824C198.297 81.0587 198.077 81.176 197.74 81.176ZM204.426 81C204.221 81 204.052 80.9413 203.92 80.824C203.788 80.7067 203.722 80.582 203.722 80.45V71.122C203.722 70.9753 203.788 70.8507 203.92 70.748C204.052 70.6453 204.221 70.594 204.426 70.594C204.617 70.594 204.778 70.6453 204.91 70.748C205.042 70.8507 205.108 70.9753 205.108 71.122V72.2C205.343 71.76 205.71 71.364 206.208 71.012C206.722 70.6453 207.338 70.462 208.056 70.462H208.826C208.973 70.462 209.105 70.528 209.222 70.66C209.34 70.792 209.398 70.946 209.398 71.122C209.398 71.298 209.34 71.452 209.222 71.584C209.105 71.716 208.973 71.782 208.826 71.782H208.056C207.572 71.782 207.103 71.914 206.648 72.178C206.208 72.4273 205.849 72.794 205.57 73.278C205.292 73.7473 205.152 74.3193 205.152 74.994V80.45C205.152 80.582 205.079 80.7067 204.932 80.824C204.8 80.9413 204.632 81 204.426 81ZM211.688 81C211.497 81 211.329 80.9413 211.182 80.824C211.05 80.7067 210.984 80.582 210.984 80.45V71.122C210.984 70.9753 211.05 70.8507 211.182 70.748C211.329 70.6453 211.497 70.594 211.688 70.594C211.893 70.594 212.062 70.6453 212.194 70.748C212.341 70.8507 212.414 70.9753 212.414 71.122V80.45C212.414 80.582 212.341 80.7067 212.194 80.824C212.062 80.9413 211.893 81 211.688 81ZM211.688 67.514C211.424 67.514 211.197 67.426 211.006 67.25C210.815 67.0593 210.72 66.8393 210.72 66.59C210.72 66.3407 210.815 66.128 211.006 65.952C211.197 65.776 211.424 65.688 211.688 65.688C211.952 65.688 212.179 65.776 212.37 65.952C212.561 66.128 212.656 66.3407 212.656 66.59C212.656 66.8393 212.561 67.0593 212.37 67.25C212.179 67.426 211.952 67.514 211.688 67.514ZM215.856 81C215.651 81 215.482 80.9413 215.35 80.824C215.218 80.7067 215.152 80.582 215.152 80.45V71.122C215.152 70.9753 215.218 70.8507 215.35 70.748C215.482 70.6453 215.651 70.594 215.856 70.594C216.047 70.594 216.208 70.6453 216.34 70.748C216.472 70.8507 216.538 70.9753 216.538 71.122V72.2C216.773 71.76 217.139 71.364 217.638 71.012C218.151 70.6453 218.767 70.462 219.486 70.462H220.256C220.403 70.462 220.535 70.528 220.652 70.66C220.769 70.792 220.828 70.946 220.828 71.122C220.828 71.298 220.769 71.452 220.652 71.584C220.535 71.716 220.403 71.782 220.256 71.782H219.486C219.002 71.782 218.533 71.914 218.078 72.178C217.638 72.4273 217.279 72.794 217 73.278C216.721 73.7473 216.582 74.3193 216.582 74.994V80.45C216.582 80.582 216.509 80.7067 216.362 80.824C216.23 80.9413 216.061 81 215.856 81ZM227.72 81C227.515 81 227.346 80.9413 227.214 80.824C227.082 80.7067 227.016 80.582 227.016 80.45V64.742C227.016 64.5953 227.082 64.4707 227.214 64.368C227.346 64.2653 227.515 64.214 227.72 64.214C227.925 64.214 228.094 64.2653 228.226 64.368C228.373 64.4707 228.446 64.5953 228.446 64.742V80.45C228.446 80.582 228.373 80.7067 228.226 80.824C228.094 80.9413 227.925 81 227.72 81ZM233.683 81.154C232.847 81.154 232.135 80.9193 231.549 80.45C230.977 79.966 230.691 79.2327 230.691 78.25C230.691 77.4433 230.903 76.8273 231.329 76.402C231.769 75.962 232.37 75.6613 233.133 75.5C233.91 75.324 234.805 75.236 235.817 75.236H236.939V74.708C236.939 74.2387 236.851 73.7767 236.675 73.322C236.513 72.8527 236.242 72.4713 235.861 72.178C235.479 71.87 234.973 71.716 234.343 71.716C233.859 71.716 233.463 71.7747 233.155 71.892C232.847 71.9947 232.605 72.0973 232.429 72.2C232.253 72.3027 232.106 72.354 231.989 72.354C231.798 72.354 231.651 72.266 231.549 72.09C231.461 71.914 231.417 71.7453 231.417 71.584C231.417 71.3933 231.563 71.2173 231.857 71.056C232.165 70.88 232.546 70.7407 233.001 70.638C233.455 70.5207 233.917 70.462 234.387 70.462C235.369 70.462 236.147 70.6673 236.719 71.078C237.305 71.474 237.723 71.9947 237.973 72.64C238.237 73.2853 238.369 73.9747 238.369 74.708V80.45C238.369 80.5967 238.303 80.7287 238.171 80.846C238.039 80.9487 237.87 81 237.665 81C237.474 81 237.313 80.9487 237.181 80.846C237.063 80.7287 237.005 80.5967 237.005 80.45V79.46C236.623 79.9 236.154 80.296 235.597 80.648C235.054 80.9853 234.416 81.154 233.683 81.154ZM234.035 79.966C234.504 79.966 234.959 79.8413 235.399 79.592C235.853 79.3427 236.22 79.0347 236.499 78.668C236.792 78.3013 236.939 77.9567 236.939 77.634V76.226H236.015C235.34 76.226 234.702 76.27 234.101 76.358C233.514 76.4313 233.037 76.6073 232.671 76.886C232.304 77.15 232.121 77.5607 232.121 78.118C232.121 78.7487 232.304 79.218 232.671 79.526C233.037 79.8193 233.492 79.966 234.035 79.966ZM248.262 81.154C247.572 81.154 246.964 81.0733 246.436 80.912C245.922 80.736 245.519 80.5233 245.226 80.274C244.947 80.0247 244.808 79.79 244.808 79.57C244.808 79.438 244.852 79.2987 244.94 79.152C245.042 79.0053 245.167 78.932 245.314 78.932C245.475 78.932 245.651 79.02 245.842 79.196C246.032 79.3573 246.311 79.526 246.678 79.702C247.044 79.8633 247.558 79.944 248.218 79.944C249.054 79.944 249.64 79.79 249.978 79.482C250.315 79.1593 250.484 78.7927 250.484 78.382C250.484 77.898 250.352 77.524 250.088 77.26C249.824 76.9813 249.486 76.7687 249.076 76.622C248.665 76.4607 248.225 76.3213 247.756 76.204C247.301 76.072 246.861 75.9107 246.436 75.72C246.025 75.5147 245.688 75.236 245.424 74.884C245.174 74.532 245.05 74.0553 245.05 73.454C245.05 72.9847 245.16 72.5227 245.38 72.068C245.614 71.6133 245.988 71.232 246.502 70.924C247.015 70.616 247.69 70.462 248.526 70.462C249.01 70.462 249.472 70.5133 249.912 70.616C250.366 70.7187 250.74 70.858 251.034 71.034C251.327 71.1953 251.474 71.364 251.474 71.54C251.474 71.6573 251.415 71.8113 251.298 72.002C251.195 72.1927 251.056 72.288 250.88 72.288C250.762 72.288 250.601 72.2367 250.396 72.134C250.205 72.0313 249.956 71.9287 249.648 71.826C249.34 71.7233 248.973 71.672 248.548 71.672C248.005 71.672 247.572 71.7673 247.25 71.958C246.927 72.1487 246.692 72.376 246.546 72.64C246.414 72.904 246.348 73.1533 246.348 73.388C246.348 73.8133 246.48 74.1433 246.744 74.378C247.008 74.598 247.345 74.774 247.756 74.906C248.181 75.038 248.621 75.17 249.076 75.302C249.545 75.4193 249.985 75.588 250.396 75.808C250.806 76.028 251.144 76.336 251.408 76.732C251.672 77.128 251.804 77.656 251.804 78.316C251.804 79.196 251.496 79.8927 250.88 80.406C250.264 80.9047 249.391 81.154 248.262 81.154ZM258.045 81.154C257.268 81.154 256.564 80.9633 255.933 80.582C255.303 80.186 254.797 79.68 254.415 79.064C254.034 78.4333 253.843 77.7513 253.843 77.018V71.144C253.843 71.012 253.909 70.8873 254.041 70.77C254.188 70.6527 254.364 70.594 254.569 70.594C254.76 70.594 254.921 70.6527 255.053 70.77C255.2 70.8873 255.273 71.012 255.273 71.144V77.018C255.273 77.502 255.398 77.9567 255.647 78.382C255.897 78.8073 256.227 79.1593 256.637 79.438C257.063 79.702 257.532 79.834 258.045 79.834C258.544 79.834 258.999 79.702 259.409 79.438C259.835 79.174 260.165 78.8293 260.399 78.404C260.649 77.964 260.773 77.502 260.773 77.018V71.122C260.773 70.99 260.847 70.8727 260.993 70.77C261.14 70.6527 261.309 70.594 261.499 70.594C261.705 70.594 261.873 70.6527 262.005 70.77C262.137 70.8727 262.203 70.99 262.203 71.122V77.018C262.203 77.7513 262.013 78.4333 261.631 79.064C261.25 79.6947 260.744 80.2007 260.113 80.582C259.483 80.9633 258.793 81.154 258.045 81.154ZM265.549 81C265.359 81 265.19 80.9413 265.043 80.824C264.911 80.7067 264.845 80.582 264.845 80.45V71.122C264.845 70.9753 264.911 70.8507 265.043 70.748C265.19 70.6453 265.359 70.594 265.549 70.594C265.755 70.594 265.923 70.6453 266.055 70.748C266.202 70.8507 266.275 70.9753 266.275 71.122V80.45C266.275 80.582 266.202 80.7067 266.055 80.824C265.923 80.9413 265.755 81 265.549 81ZM265.549 67.514C265.285 67.514 265.058 67.426 264.867 67.25C264.677 67.0593 264.581 66.8393 264.581 66.59C264.581 66.3407 264.677 66.128 264.867 65.952C265.058 65.776 265.285 65.688 265.549 65.688C265.813 65.688 266.041 65.776 266.231 65.952C266.422 66.128 266.517 66.3407 266.517 66.59C266.517 66.8393 266.422 67.0593 266.231 67.25C266.041 67.426 265.813 67.514 265.549 67.514ZM272.467 81C271.338 81 270.473 80.7433 269.871 80.23C269.27 79.7167 268.969 78.8953 268.969 77.766V66.172C268.969 66.0253 269.043 65.9007 269.189 65.798C269.351 65.6953 269.512 65.644 269.673 65.644C269.864 65.644 270.033 65.6953 270.179 65.798C270.326 65.9007 270.399 66.0253 270.399 66.172V70.594H273.259C273.406 70.594 273.523 70.66 273.611 70.792C273.699 70.9093 273.743 71.0413 273.743 71.188C273.743 71.3493 273.699 71.4887 273.611 71.606C273.523 71.7233 273.406 71.782 273.259 71.782H270.399V77.766C270.399 78.4847 270.553 78.9907 270.861 79.284C271.169 79.5627 271.705 79.702 272.467 79.702H273.083C273.274 79.702 273.428 79.768 273.545 79.9C273.663 80.032 273.721 80.1787 273.721 80.34C273.721 80.516 273.663 80.67 273.545 80.802C273.428 80.934 273.274 81 273.083 81H272.467ZM279.643 81.154C278.719 81.154 277.898 80.9853 277.179 80.648C276.475 80.296 275.918 79.8047 275.507 79.174C275.111 78.5433 274.913 77.81 274.913 76.974V74.51C274.913 73.7767 275.104 73.1093 275.485 72.508C275.866 71.892 276.372 71.4007 277.003 71.034C277.648 70.6527 278.352 70.462 279.115 70.462C279.848 70.462 280.523 70.638 281.139 70.99C281.77 71.3273 282.276 71.7967 282.657 72.398C283.038 72.9993 283.229 73.6887 283.229 74.466C283.229 75.038 283.134 75.4487 282.943 75.698C282.752 75.9327 282.51 76.0793 282.217 76.138C281.938 76.1967 281.638 76.226 281.315 76.226H276.343V77.04C276.343 77.92 276.658 78.624 277.289 79.152C277.92 79.6653 278.719 79.922 279.687 79.922C280.274 79.922 280.721 79.8487 281.029 79.702C281.352 79.5553 281.608 79.4087 281.799 79.262C281.99 79.1153 282.166 79.042 282.327 79.042C282.503 79.042 282.65 79.1227 282.767 79.284C282.884 79.4307 282.943 79.57 282.943 79.702C282.943 79.878 282.804 80.0833 282.525 80.318C282.261 80.538 281.88 80.736 281.381 80.912C280.897 81.0733 280.318 81.154 279.643 81.154ZM276.343 75.17H280.743C281.183 75.17 281.476 75.126 281.623 75.038C281.77 74.9353 281.843 74.73 281.843 74.422C281.843 73.9527 281.726 73.5127 281.491 73.102C281.256 72.6767 280.934 72.332 280.523 72.068C280.112 71.7893 279.636 71.65 279.093 71.65C278.58 71.65 278.118 71.7747 277.707 72.024C277.296 72.2587 276.966 72.5813 276.717 72.992C276.468 73.4027 276.343 73.85 276.343 74.334V75.17ZM293.287 81.154C292.583 81.154 291.938 80.9633 291.351 80.582C290.765 80.186 290.288 79.6727 289.921 79.042C289.569 78.3967 289.393 77.7073 289.393 76.974V74.576C289.393 73.828 289.569 73.146 289.921 72.53C290.273 71.8993 290.75 71.4007 291.351 71.034C291.953 70.6527 292.613 70.462 293.331 70.462C294.05 70.462 294.651 70.638 295.135 70.99C295.634 71.3273 296.001 71.7087 296.235 72.134V64.742C296.235 64.5953 296.301 64.4707 296.433 64.368C296.58 64.2653 296.756 64.214 296.961 64.214C297.167 64.214 297.335 64.2653 297.467 64.368C297.599 64.4707 297.665 64.5953 297.665 64.742V80.45C297.665 80.582 297.599 80.7067 297.467 80.824C297.335 80.9413 297.167 81 296.961 81C296.785 81 296.631 80.9413 296.499 80.824C296.367 80.7067 296.301 80.582 296.301 80.45V79.46C296.052 79.9147 295.656 80.3107 295.113 80.648C294.571 80.9853 293.962 81.154 293.287 81.154ZM293.529 79.834C294.043 79.834 294.505 79.702 294.915 79.438C295.326 79.1593 295.649 78.8513 295.883 78.514C296.118 78.162 296.235 77.876 296.235 77.656V74.576C296.235 73.9893 296.103 73.4907 295.839 73.08C295.575 72.6547 295.238 72.332 294.827 72.112C294.417 71.892 293.991 71.782 293.551 71.782C293.053 71.782 292.591 71.9213 292.165 72.2C291.755 72.464 291.425 72.8087 291.175 73.234C290.926 73.6593 290.801 74.1067 290.801 74.576V76.974C290.801 77.458 290.926 77.92 291.175 78.36C291.425 78.8 291.755 79.1593 292.165 79.438C292.591 79.702 293.045 79.834 293.529 79.834ZM304.78 81.154C303.856 81.154 303.034 80.9853 302.316 80.648C301.612 80.296 301.054 79.8047 300.644 79.174C300.248 78.5433 300.05 77.81 300.05 76.974V74.51C300.05 73.7767 300.24 73.1093 300.622 72.508C301.003 71.892 301.509 71.4007 302.14 71.034C302.785 70.6527 303.489 70.462 304.252 70.462C304.985 70.462 305.66 70.638 306.276 70.99C306.906 71.3273 307.412 71.7967 307.794 72.398C308.175 72.9993 308.366 73.6887 308.366 74.466C308.366 75.038 308.27 75.4487 308.08 75.698C307.889 75.9327 307.647 76.0793 307.354 76.138C307.075 76.1967 306.774 76.226 306.452 76.226H301.48V77.04C301.48 77.92 301.795 78.624 302.426 79.152C303.056 79.6653 303.856 79.922 304.824 79.922C305.41 79.922 305.858 79.8487 306.166 79.702C306.488 79.5553 306.745 79.4087 306.936 79.262C307.126 79.1153 307.302 79.042 307.464 79.042C307.64 79.042 307.786 79.1227 307.904 79.284C308.021 79.4307 308.08 79.57 308.08 79.702C308.08 79.878 307.94 80.0833 307.662 80.318C307.398 80.538 307.016 80.736 306.518 80.912C306.034 81.0733 305.454 81.154 304.78 81.154ZM301.48 75.17H305.88C306.32 75.17 306.613 75.126 306.76 75.038C306.906 74.9353 306.98 74.73 306.98 74.422C306.98 73.9527 306.862 73.5127 306.628 73.102C306.393 72.6767 306.07 72.332 305.66 72.068C305.249 71.7893 304.772 71.65 304.23 71.65C303.716 71.65 303.254 71.7747 302.844 72.024C302.433 72.2587 302.103 72.5813 301.854 72.992C301.604 73.4027 301.48 73.85 301.48 74.334V75.17ZM315.806 81C315.601 81 315.432 80.9413 315.3 80.824C315.168 80.7067 315.102 80.582 315.102 80.45V64.742C315.102 64.5953 315.168 64.4707 315.3 64.368C315.432 64.2653 315.601 64.214 315.806 64.214C316.011 64.214 316.18 64.2653 316.312 64.368C316.459 64.4707 316.532 64.5953 316.532 64.742V80.45C316.532 80.582 316.459 80.7067 316.312 80.824C316.18 80.9413 316.011 81 315.806 81ZM319.635 68.46C319.503 68.46 319.378 68.416 319.261 68.328C319.143 68.24 319.085 68.13 319.085 67.998C319.085 67.9247 319.099 67.8587 319.129 67.8L319.569 66.656C319.129 66.5093 318.909 66.194 318.909 65.71C318.909 65.4313 319.004 65.1967 319.195 65.006C319.385 64.8007 319.627 64.698 319.921 64.698C320.185 64.698 320.412 64.8007 320.603 65.006C320.808 65.1967 320.911 65.4313 320.911 65.71C320.911 66.0767 320.617 66.9053 320.031 68.196C319.943 68.372 319.811 68.46 319.635 68.46ZM323.687 81C323.481 81 323.313 80.9413 323.181 80.824C323.049 80.7067 322.983 80.582 322.983 80.45V64.742C322.983 64.5953 323.049 64.4707 323.181 64.368C323.313 64.2653 323.481 64.214 323.687 64.214C323.892 64.214 324.061 64.2653 324.193 64.368C324.339 64.4707 324.413 64.5953 324.413 64.742V72.134C324.647 71.7087 325.007 71.3273 325.491 70.99C325.975 70.638 326.583 70.462 327.317 70.462C328.021 70.462 328.666 70.6527 329.253 71.034C329.854 71.4007 330.331 71.8993 330.683 72.53C331.035 73.146 331.211 73.828 331.211 74.576V80.45C331.211 80.626 331.137 80.7653 330.991 80.868C330.844 80.956 330.675 81 330.485 81C330.323 81 330.162 80.956 330.001 80.868C329.854 80.7653 329.781 80.626 329.781 80.45V74.576C329.781 74.1067 329.656 73.6593 329.407 73.234C329.157 72.8087 328.827 72.464 328.417 72.2C328.006 71.9213 327.551 71.782 327.053 71.782C326.613 71.782 326.187 71.892 325.777 72.112C325.381 72.332 325.051 72.6547 324.787 73.08C324.537 73.4907 324.413 73.9893 324.413 74.576V80.45C324.413 80.582 324.339 80.7067 324.193 80.824C324.061 80.9413 323.892 81 323.687 81ZM334.557 81C334.367 81 334.198 80.9413 334.051 80.824C333.919 80.7067 333.853 80.582 333.853 80.45V71.122C333.853 70.9753 333.919 70.8507 334.051 70.748C334.198 70.6453 334.367 70.594 334.557 70.594C334.763 70.594 334.931 70.6453 335.063 70.748C335.21 70.8507 335.283 70.9753 335.283 71.122V80.45C335.283 80.582 335.21 80.7067 335.063 80.824C334.931 80.9413 334.763 81 334.557 81ZM334.557 67.514C334.293 67.514 334.066 67.426 333.875 67.25C333.685 67.0593 333.589 66.8393 333.589 66.59C333.589 66.3407 333.685 66.128 333.875 65.952C334.066 65.776 334.293 65.688 334.557 65.688C334.821 65.688 335.049 65.776 335.239 65.952C335.43 66.128 335.525 66.3407 335.525 66.59C335.525 66.8393 335.43 67.0593 335.239 67.25C335.049 67.426 334.821 67.514 334.557 67.514ZM340.859 81.154C340.17 81.154 339.561 81.0733 339.033 80.912C338.52 80.736 338.117 80.5233 337.823 80.274C337.545 80.0247 337.405 79.79 337.405 79.57C337.405 79.438 337.449 79.2987 337.537 79.152C337.64 79.0053 337.765 78.932 337.911 78.932C338.073 78.932 338.249 79.02 338.439 79.196C338.63 79.3573 338.909 79.526 339.275 79.702C339.642 79.8633 340.155 79.944 340.815 79.944C341.651 79.944 342.238 79.79 342.575 79.482C342.913 79.1593 343.081 78.7927 343.081 78.382C343.081 77.898 342.949 77.524 342.685 77.26C342.421 76.9813 342.084 76.7687 341.673 76.622C341.263 76.4607 340.823 76.3213 340.353 76.204C339.899 76.072 339.459 75.9107 339.033 75.72C338.623 75.5147 338.285 75.236 338.021 74.884C337.772 74.532 337.647 74.0553 337.647 73.454C337.647 72.9847 337.757 72.5227 337.977 72.068C338.212 71.6133 338.586 71.232 339.099 70.924C339.613 70.616 340.287 70.462 341.123 70.462C341.607 70.462 342.069 70.5133 342.509 70.616C342.964 70.7187 343.338 70.858 343.631 71.034C343.925 71.1953 344.071 71.364 344.071 71.54C344.071 71.6573 344.013 71.8113 343.895 72.002C343.793 72.1927 343.653 72.288 343.477 72.288C343.36 72.288 343.199 72.2367 342.993 72.134C342.803 72.0313 342.553 71.9287 342.245 71.826C341.937 71.7233 341.571 71.672 341.145 71.672C340.603 71.672 340.17 71.7673 339.847 71.958C339.525 72.1487 339.29 72.376 339.143 72.64C339.011 72.904 338.945 73.1533 338.945 73.388C338.945 73.8133 339.077 74.1433 339.341 74.378C339.605 74.598 339.943 74.774 340.353 74.906C340.779 75.038 341.219 75.17 341.673 75.302C342.143 75.4193 342.583 75.588 342.993 75.808C343.404 76.028 343.741 76.336 344.005 76.732C344.269 77.128 344.401 77.656 344.401 78.316C344.401 79.196 344.093 79.8927 343.477 80.406C342.861 80.9047 341.989 81.154 340.859 81.154ZM349.983 81C348.854 81 347.988 80.7433 347.387 80.23C346.786 79.7167 346.485 78.8953 346.485 77.766V66.172C346.485 66.0253 346.558 65.9007 346.705 65.798C346.866 65.6953 347.028 65.644 347.189 65.644C347.38 65.644 347.548 65.6953 347.695 65.798C347.842 65.9007 347.915 66.0253 347.915 66.172V70.594H350.775C350.922 70.594 351.039 70.66 351.127 70.792C351.215 70.9093 351.259 71.0413 351.259 71.188C351.259 71.3493 351.215 71.4887 351.127 71.606C351.039 71.7233 350.922 71.782 350.775 71.782H347.915V77.766C347.915 78.4847 348.069 78.9907 348.377 79.284C348.685 79.5627 349.22 79.702 349.983 79.702H350.599C350.79 79.702 350.944 79.768 351.061 79.9C351.178 80.032 351.237 80.1787 351.237 80.34C351.237 80.516 351.178 80.67 351.061 80.802C350.944 80.934 350.79 81 350.599 81H349.983ZM356.586 81.154C355.838 81.154 355.149 80.9633 354.518 80.582C353.888 80.186 353.374 79.6727 352.978 79.042C352.597 78.3967 352.406 77.7073 352.406 76.974V74.576C352.406 73.8427 352.597 73.168 352.978 72.552C353.36 71.9213 353.866 71.4153 354.496 71.034C355.127 70.6527 355.824 70.462 356.586 70.462C357.334 70.462 358.024 70.6527 358.654 71.034C359.285 71.4007 359.791 71.8993 360.172 72.53C360.568 73.146 360.766 73.828 360.766 74.576V76.974C360.766 77.7073 360.568 78.3967 360.172 79.042C359.791 79.6727 359.285 80.186 358.654 80.582C358.024 80.9633 357.334 81.154 356.586 81.154ZM356.586 79.834C357.085 79.834 357.54 79.702 357.95 79.438C358.376 79.1593 358.713 78.8073 358.962 78.382C359.212 77.942 359.336 77.4727 359.336 76.974V74.576C359.336 74.1067 359.212 73.6593 358.962 73.234C358.728 72.8087 358.398 72.464 357.972 72.2C357.562 71.9213 357.1 71.782 356.586 71.782C356.073 71.782 355.604 71.9213 355.178 72.2C354.768 72.464 354.438 72.8087 354.188 73.234C353.954 73.6593 353.836 74.1067 353.836 74.576V76.974C353.836 77.4727 353.961 77.942 354.21 78.382C354.46 78.8073 354.79 79.1593 355.2 79.438C355.611 79.702 356.073 79.834 356.586 79.834ZM363.819 81C363.628 81 363.46 80.9413 363.313 80.824C363.181 80.7067 363.115 80.582 363.115 80.45V71.122C363.115 70.9753 363.181 70.8507 363.313 70.748C363.46 70.6453 363.628 70.594 363.819 70.594C364.024 70.594 364.193 70.6453 364.325 70.748C364.472 70.8507 364.545 70.9753 364.545 71.122V80.45C364.545 80.582 364.472 80.7067 364.325 80.824C364.193 80.9413 364.024 81 363.819 81ZM363.819 67.514C363.555 67.514 363.328 67.426 363.137 67.25C362.946 67.0593 362.851 66.8393 362.851 66.59C362.851 66.3407 362.946 66.128 363.137 65.952C363.328 65.776 363.555 65.688 363.819 65.688C364.083 65.688 364.31 65.776 364.501 65.952C364.692 66.128 364.787 66.3407 364.787 66.59C364.787 66.8393 364.692 67.0593 364.501 67.25C364.31 67.426 364.083 67.514 363.819 67.514ZM367.987 81C367.782 81 367.613 80.9413 367.481 80.824C367.349 80.7067 367.283 80.582 367.283 80.45V71.122C367.283 70.9753 367.349 70.8507 367.481 70.748C367.613 70.6453 367.782 70.594 367.987 70.594C368.178 70.594 368.339 70.6453 368.471 70.748C368.603 70.8507 368.669 70.9753 368.669 71.122V72.2C368.904 71.76 369.27 71.364 369.769 71.012C370.282 70.6453 370.898 70.462 371.617 70.462H372.387C372.534 70.462 372.666 70.528 372.783 70.66C372.9 70.792 372.959 70.946 372.959 71.122C372.959 71.298 372.9 71.452 372.783 71.584C372.666 71.716 372.534 71.782 372.387 71.782H371.617C371.133 71.782 370.664 71.914 370.209 72.178C369.769 72.4273 369.41 72.794 369.131 73.278C368.852 73.7473 368.713 74.3193 368.713 74.994V80.45C368.713 80.582 368.64 80.7067 368.493 80.824C368.361 80.9413 368.192 81 367.987 81ZM378.428 81.154C377.504 81.154 376.683 80.9853 375.964 80.648C375.26 80.296 374.703 79.8047 374.292 79.174C373.896 78.5433 373.698 77.81 373.698 76.974V74.51C373.698 73.7767 373.889 73.1093 374.27 72.508C374.651 71.892 375.157 71.4007 375.788 71.034C376.433 70.6527 377.137 70.462 377.9 70.462C378.633 70.462 379.308 70.638 379.924 70.99C380.555 71.3273 381.061 71.7967 381.442 72.398C381.823 72.9993 382.014 73.6887 382.014 74.466C382.014 75.038 381.919 75.4487 381.728 75.698C381.537 75.9327 381.295 76.0793 381.002 76.138C380.723 76.1967 380.423 76.226 380.1 76.226H375.128V77.04C375.128 77.92 375.443 78.624 376.074 79.152C376.705 79.6653 377.504 79.922 378.472 79.922C379.059 79.922 379.506 79.8487 379.814 79.702C380.137 79.5553 380.393 79.4087 380.584 79.262C380.775 79.1153 380.951 79.042 381.112 79.042C381.288 79.042 381.435 79.1227 381.552 79.284C381.669 79.4307 381.728 79.57 381.728 79.702C381.728 79.878 381.589 80.0833 381.31 80.318C381.046 80.538 380.665 80.736 380.166 80.912C379.682 81.0733 379.103 81.154 378.428 81.154ZM375.128 75.17H379.528C379.968 75.17 380.261 75.126 380.408 75.038C380.555 74.9353 380.628 74.73 380.628 74.422C380.628 73.9527 380.511 73.5127 380.276 73.102C380.041 72.6767 379.719 72.332 379.308 72.068C378.897 71.7893 378.421 71.65 377.878 71.65C377.365 71.65 376.903 71.7747 376.492 72.024C376.081 72.2587 375.751 72.5813 375.502 72.992C375.253 73.4027 375.128 73.85 375.128 74.334V75.17Z" fill="#485F62"/>
<defs>
<clipPath id="clip0">
<rect x="191" width="31" height="52" fill="white"/>
</clipPath>
</defs>
</svg>
