<svg width="712" height="100" viewBox="0 0 712 100" fill="none" xmlns="http://www.w3.org/2000/svg">
<g clip-path="url(#clip0)">
<path d="M372 26.0492C372 29.2889 372 32.5285 372 35.8013C371.968 38.9417 371.291 41.8839 369.615 44.5285C367.102 48.5285 363.589 51.0079 358.981 51.7682C354.728 52.4624 350.828 51.5368 347.38 48.9252C343.191 45.7517 341.097 41.388 341.032 36.0657C340.968 29.388 341 22.7103 341.032 16.0327C341.064 8.92522 345.221 2.87563 351.827 0.826045C357.886 -1.05825 363.332 0.363235 367.779 5.09051C370.711 8.19795 371.968 11.9996 372 16.2641C372 19.5368 372 22.8095 372 26.0492ZM343.868 26.0492C343.836 29.3219 343.868 32.6277 343.836 35.9004C343.804 39.5037 344.996 42.6442 347.445 45.1897C350.7 48.5285 354.663 49.7847 359.142 48.826C365.136 47.5037 369.132 42.2806 369.164 35.9665C369.164 29.355 369.164 22.7434 369.164 16.1318C369.164 15.1732 369.1 14.1814 368.906 13.2227C367.295 5.78472 360.109 1.38803 352.988 3.47067C347.832 4.92522 343.965 9.91695 343.9 15.3715C343.836 18.9417 343.868 22.4789 343.868 26.0492Z" fill="#485F62"/>
<path d="M357.918 13.7186C357.918 14.6773 357.918 15.636 357.918 16.5616C357.918 17.4211 357.37 18.0161 356.597 18.0492C355.791 18.0822 355.147 17.5203 355.147 16.6277C355.114 14.6773 355.114 12.7269 355.147 10.7765C355.147 9.95001 355.791 9.35497 356.564 9.38803C357.338 9.38803 357.918 10.0161 357.918 10.8426C357.918 11.8013 357.918 12.7599 357.918 13.7186Z" fill="#485F62"/>
</g>
<path d="M184.453 94.154C183.515 94.154 182.708 94.0147 182.033 93.736C181.359 93.4427 180.838 93.1127 180.471 92.746C180.119 92.3647 179.943 92.042 179.943 91.778C179.943 91.6607 179.973 91.536 180.031 91.404C180.105 91.272 180.193 91.1693 180.295 91.096C180.398 91.008 180.501 90.964 180.603 90.964C180.75 90.964 180.897 91.0593 181.043 91.25C181.205 91.426 181.41 91.6387 181.659 91.888C181.923 92.1227 182.268 92.3353 182.693 92.526C183.119 92.702 183.676 92.79 184.365 92.79C185.055 92.79 185.641 92.68 186.125 92.46C186.624 92.2253 186.998 91.888 187.247 91.448C187.511 90.9933 187.643 90.4287 187.643 89.754C187.643 89.05 187.511 88.4853 187.247 88.06C186.983 87.62 186.631 87.268 186.191 87.004C185.766 86.7253 185.297 86.4907 184.783 86.3C184.27 86.0947 183.749 85.8967 183.221 85.706C182.708 85.5007 182.231 85.2513 181.791 84.958C181.366 84.65 181.014 84.254 180.735 83.77C180.471 83.2713 180.339 82.6407 180.339 81.878C180.339 81.0713 180.486 80.4113 180.779 79.898C181.073 79.3847 181.447 78.9813 181.901 78.688C182.371 78.3947 182.877 78.1893 183.419 78.072C183.962 77.94 184.49 77.874 185.003 77.874C185.414 77.874 185.832 77.9107 186.257 77.984C186.697 78.0427 187.101 78.1307 187.467 78.248C187.834 78.3653 188.127 78.5047 188.347 78.666C188.582 78.8273 188.699 79.0107 188.699 79.216C188.699 79.3187 188.67 79.436 188.611 79.568C188.567 79.6853 188.501 79.7953 188.413 79.898C188.325 79.986 188.208 80.03 188.061 80.03C187.929 80.03 187.746 79.964 187.511 79.832C187.277 79.6853 186.954 79.546 186.543 79.414C186.147 79.2673 185.627 79.194 184.981 79.194C184.453 79.194 183.94 79.2747 183.441 79.436C182.957 79.5827 182.561 79.8393 182.253 80.206C181.945 80.5727 181.791 81.086 181.791 81.746C181.791 82.3327 181.923 82.8093 182.187 83.176C182.466 83.528 182.818 83.814 183.243 84.034C183.683 84.254 184.16 84.4593 184.673 84.65C185.187 84.826 185.7 85.0313 186.213 85.266C186.741 85.486 187.218 85.772 187.643 86.124C188.083 86.4613 188.435 86.9087 188.699 87.466C188.963 88.0233 189.095 88.742 189.095 89.622C189.095 90.6633 188.897 91.5213 188.501 92.196C188.105 92.856 187.555 93.3473 186.851 93.67C186.162 93.9927 185.363 94.154 184.453 94.154ZM195.302 94.154C194.334 94.154 193.535 93.9707 192.904 93.604C192.274 93.2373 191.804 92.7387 191.496 92.108C191.188 91.4773 191.034 90.766 191.034 89.974V87.62C191.034 86.8427 191.181 86.1387 191.474 85.508C191.782 84.8773 192.252 84.3787 192.882 84.012C193.528 83.6453 194.334 83.462 195.302 83.462C195.918 83.462 196.454 83.5427 196.908 83.704C197.378 83.8507 197.737 84.034 197.986 84.254C198.25 84.474 198.382 84.6867 198.382 84.892C198.382 84.98 198.353 85.0827 198.294 85.2C198.25 85.3027 198.177 85.398 198.074 85.486C197.986 85.5593 197.884 85.596 197.766 85.596C197.634 85.596 197.48 85.53 197.304 85.398C197.143 85.2513 196.916 85.112 196.622 84.98C196.329 84.848 195.911 84.782 195.368 84.782C194.415 84.782 193.689 85.0387 193.19 85.552C192.706 86.0507 192.464 86.74 192.464 87.62V89.974C192.464 90.8687 192.706 91.5727 193.19 92.086C193.689 92.5847 194.422 92.834 195.39 92.834C195.948 92.834 196.38 92.768 196.688 92.636C196.996 92.4893 197.231 92.35 197.392 92.218C197.568 92.0713 197.73 91.998 197.876 91.998C198.008 91.998 198.118 92.0347 198.206 92.108C198.309 92.1813 198.382 92.2693 198.426 92.372C198.485 92.4747 198.514 92.5847 198.514 92.702C198.514 92.8927 198.382 93.1053 198.118 93.34C197.854 93.56 197.48 93.7507 196.996 93.912C196.527 94.0733 195.962 94.154 195.302 94.154ZM201.157 94C200.966 94 200.798 93.9413 200.651 93.824C200.519 93.7067 200.453 93.5747 200.453 93.428V84.122C200.453 83.9607 200.519 83.836 200.651 83.748C200.798 83.6453 200.966 83.594 201.157 83.594C201.348 83.594 201.509 83.6453 201.641 83.748C201.773 83.836 201.839 83.9607 201.839 84.122V85.2C202 84.9067 202.22 84.628 202.499 84.364C202.778 84.1 203.108 83.8873 203.489 83.726C203.87 83.55 204.303 83.462 204.787 83.462H205.557C205.718 83.462 205.85 83.528 205.953 83.66C206.07 83.7773 206.129 83.9313 206.129 84.122C206.129 84.298 206.07 84.452 205.953 84.584C205.85 84.716 205.718 84.782 205.557 84.782H204.787C204.303 84.782 203.834 84.914 203.379 85.178C202.939 85.4273 202.58 85.794 202.301 86.278C202.022 86.7473 201.883 87.3193 201.883 87.994V93.428C201.883 93.5747 201.81 93.7067 201.663 93.824C201.531 93.9413 201.362 94 201.157 94ZM211.026 94.154C210.278 94.154 209.589 93.9633 208.958 93.582C208.327 93.186 207.814 92.6727 207.418 92.042C207.037 91.3967 206.846 90.7073 206.846 89.974V87.576C206.846 86.8427 207.037 86.168 207.418 85.552C207.799 84.9213 208.305 84.4153 208.936 84.034C209.567 83.6527 210.263 83.462 211.026 83.462C211.774 83.462 212.463 83.6527 213.094 84.034C213.739 84.4007 214.253 84.892 214.634 85.508C215.015 86.124 215.206 86.8133 215.206 87.576V89.974C215.206 90.6927 215.015 91.3747 214.634 92.02C214.253 92.6653 213.739 93.186 213.094 93.582C212.463 93.9633 211.774 94.154 211.026 94.154ZM211.026 92.834C211.539 92.834 212.001 92.702 212.412 92.438C212.823 92.1593 213.153 91.8 213.402 91.36C213.651 90.92 213.776 90.458 213.776 89.974V87.576C213.776 87.1067 213.651 86.6593 213.402 86.234C213.167 85.8087 212.837 85.464 212.412 85.2C212.001 84.9213 211.539 84.782 211.026 84.782C210.513 84.782 210.051 84.9213 209.64 85.2C209.229 85.464 208.899 85.8087 208.65 86.234C208.401 86.6593 208.276 87.1067 208.276 87.576V89.974C208.276 90.458 208.401 90.92 208.65 91.36C208.899 91.8 209.229 92.1593 209.64 92.438C210.065 92.702 210.527 92.834 211.026 92.834ZM218.456 94C218.266 94 218.097 93.9413 217.95 93.824C217.818 93.7067 217.752 93.5747 217.752 93.428V77.742C217.752 77.5807 217.818 77.456 217.95 77.368C218.097 77.2653 218.266 77.214 218.456 77.214C218.662 77.214 218.83 77.2653 218.962 77.368C219.109 77.456 219.182 77.5807 219.182 77.742V93.428C219.182 93.5747 219.109 93.7067 218.962 93.824C218.83 93.9413 218.662 94 218.456 94ZM223.033 94C222.842 94 222.673 93.9413 222.527 93.824C222.395 93.7067 222.329 93.5747 222.329 93.428V77.742C222.329 77.5807 222.395 77.456 222.527 77.368C222.673 77.2653 222.842 77.214 223.033 77.214C223.238 77.214 223.407 77.2653 223.539 77.368C223.685 77.456 223.759 77.5807 223.759 77.742V93.428C223.759 93.5747 223.685 93.7067 223.539 93.824C223.407 93.9413 223.238 94 223.033 94ZM231.063 94.154C230.139 94.154 229.317 93.978 228.599 93.626C227.895 93.274 227.337 92.79 226.927 92.174C226.531 91.5433 226.333 90.81 226.333 89.974V87.51C226.333 86.7767 226.523 86.102 226.905 85.486C227.286 84.87 227.792 84.3787 228.423 84.012C229.068 83.6453 229.772 83.462 230.535 83.462C231.268 83.462 231.943 83.638 232.559 83.99C233.189 84.3273 233.695 84.7967 234.077 85.398C234.458 85.9993 234.649 86.6887 234.649 87.466C234.649 88.038 234.553 88.4487 234.363 88.698C234.172 88.9327 233.93 89.0793 233.637 89.138C233.358 89.1967 233.057 89.226 232.735 89.226H227.763V90.04C227.763 90.92 228.078 91.6167 228.709 92.13C229.339 92.6433 230.139 92.9 231.107 92.9C231.693 92.9 232.148 92.8267 232.471 92.68C232.793 92.5333 233.043 92.3867 233.219 92.24C233.409 92.0933 233.585 92.02 233.747 92.02C233.864 92.02 233.967 92.064 234.055 92.152C234.157 92.2253 234.231 92.3133 234.275 92.416C234.333 92.5187 234.363 92.614 234.363 92.702C234.363 92.8633 234.231 93.0613 233.967 93.296C233.703 93.5307 233.321 93.736 232.823 93.912C232.324 94.0733 231.737 94.154 231.063 94.154ZM227.763 88.17H232.163C232.603 88.17 232.896 88.126 233.043 88.038C233.189 87.9353 233.263 87.73 233.263 87.422C233.263 86.9527 233.145 86.5053 232.911 86.08C232.691 85.6547 232.368 85.31 231.943 85.046C231.532 84.782 231.055 84.65 230.513 84.65C230.014 84.65 229.552 84.7747 229.127 85.024C228.716 85.2587 228.386 85.5813 228.137 85.992C227.887 86.388 227.763 86.8353 227.763 87.334V88.17ZM236.519 94C236.343 94 236.204 93.9413 236.101 93.824C235.998 93.7067 235.947 93.5747 235.947 93.428C235.947 93.34 235.969 93.2447 236.013 93.142C236.057 93.0393 236.108 92.9513 236.167 92.878L241.535 84.848H236.695C236.548 84.848 236.416 84.7893 236.299 84.672C236.196 84.5547 236.145 84.408 236.145 84.232C236.145 84.056 236.196 83.9093 236.299 83.792C236.416 83.66 236.548 83.594 236.695 83.594H242.899C243.06 83.594 243.192 83.6453 243.295 83.748C243.412 83.8507 243.471 83.99 243.471 84.166C243.471 84.342 243.405 84.518 243.273 84.694L237.883 92.724H243.185C243.346 92.724 243.478 92.79 243.581 92.922C243.684 93.0393 243.735 93.1933 243.735 93.384C243.735 93.5453 243.684 93.692 243.581 93.824C243.478 93.9413 243.346 94 243.185 94H236.519ZM250.743 99.104C250.553 99.104 250.384 99.0453 250.237 98.928C250.105 98.8107 250.039 98.6787 250.039 98.532V84.122C250.039 83.9607 250.105 83.836 250.237 83.748C250.384 83.6453 250.553 83.594 250.743 83.594C250.934 83.594 251.095 83.6453 251.227 83.748C251.359 83.836 251.425 83.9607 251.425 84.122V85.134C251.675 84.7087 252.049 84.3273 252.547 83.99C253.046 83.638 253.655 83.462 254.373 83.462C255.107 83.462 255.767 83.6527 256.353 84.034C256.955 84.4007 257.431 84.892 257.783 85.508C258.15 86.124 258.333 86.8133 258.333 87.576V89.974C258.333 90.6927 258.15 91.3747 257.783 92.02C257.431 92.6653 256.962 93.186 256.375 93.582C255.789 93.9633 255.143 94.154 254.439 94.154C253.765 94.154 253.163 93.9853 252.635 93.648C252.107 93.3107 251.719 92.9147 251.469 92.46V98.532C251.469 98.6787 251.396 98.8107 251.249 98.928C251.117 99.0453 250.949 99.104 250.743 99.104ZM254.175 92.834C254.659 92.834 255.107 92.702 255.517 92.438C255.928 92.1593 256.258 91.8 256.507 91.36C256.771 90.92 256.903 90.458 256.903 89.974V87.576C256.903 87.1067 256.779 86.6593 256.529 86.234C256.28 85.8087 255.943 85.464 255.517 85.2C255.107 84.9213 254.645 84.782 254.131 84.782C253.691 84.782 253.266 84.8993 252.855 85.134C252.459 85.354 252.129 85.6693 251.865 86.08C251.601 86.4907 251.469 86.9893 251.469 87.576V90.656C251.469 90.876 251.587 91.162 251.821 91.514C252.056 91.8513 252.379 92.1593 252.789 92.438C253.2 92.702 253.662 92.834 254.175 92.834ZM264.458 94.154C263.71 94.154 263.02 93.9633 262.39 93.582C261.759 93.186 261.246 92.6727 260.85 92.042C260.468 91.3967 260.278 90.7073 260.278 89.974V87.576C260.278 86.8427 260.468 86.168 260.85 85.552C261.231 84.9213 261.737 84.4153 262.368 84.034C262.998 83.6527 263.695 83.462 264.458 83.462C265.206 83.462 265.895 83.6527 266.526 84.034C267.171 84.4007 267.684 84.892 268.066 85.508C268.447 86.124 268.638 86.8133 268.638 87.576V89.974C268.638 90.6927 268.447 91.3747 268.066 92.02C267.684 92.6653 267.171 93.186 266.526 93.582C265.895 93.9633 265.206 94.154 264.458 94.154ZM264.458 92.834C264.971 92.834 265.433 92.702 265.844 92.438C266.254 92.1593 266.584 91.8 266.834 91.36C267.083 90.92 267.208 90.458 267.208 89.974V87.576C267.208 87.1067 267.083 86.6593 266.834 86.234C266.599 85.8087 266.269 85.464 265.844 85.2C265.433 84.9213 264.971 84.782 264.458 84.782C263.944 84.782 263.482 84.9213 263.072 85.2C262.661 85.464 262.331 85.8087 262.082 86.234C261.832 86.6593 261.708 87.1067 261.708 87.576V89.974C261.708 90.458 261.832 90.92 262.082 91.36C262.331 91.8 262.661 92.1593 263.072 92.438C263.497 92.702 263.959 92.834 264.458 92.834ZM275.1 94.154C274.323 94.154 273.619 93.9633 272.988 93.582C272.357 93.2007 271.851 92.6947 271.47 92.064C271.089 91.4187 270.898 90.7367 270.898 90.018V84.144C270.898 84.012 270.971 83.8873 271.118 83.77C271.265 83.6527 271.433 83.594 271.624 83.594C271.815 83.594 271.976 83.6527 272.108 83.77C272.255 83.8873 272.328 84.012 272.328 84.144V90.018C272.328 90.502 272.453 90.9567 272.702 91.382C272.951 91.8073 273.281 92.1593 273.692 92.438C274.103 92.702 274.565 92.834 275.078 92.834C275.606 92.834 276.075 92.702 276.486 92.438C276.897 92.174 277.219 91.8293 277.454 91.404C277.703 90.964 277.828 90.502 277.828 90.018V84.122C277.828 83.9753 277.901 83.8507 278.048 83.748C278.195 83.6453 278.363 83.594 278.554 83.594C278.774 83.594 278.943 83.6453 279.06 83.748C279.192 83.8507 279.258 83.9753 279.258 84.122V90.018C279.258 90.766 279.067 91.4553 278.686 92.086C278.319 92.702 277.813 93.2007 277.168 93.582C276.537 93.9633 275.848 94.154 275.1 94.154ZM282.604 94C282.413 94 282.245 93.9413 282.098 93.824C281.966 93.7067 281.9 93.5747 281.9 93.428V84.122C281.9 83.9607 281.966 83.836 282.098 83.748C282.245 83.6453 282.413 83.594 282.604 83.594C282.795 83.594 282.956 83.6453 283.088 83.748C283.22 83.836 283.286 83.9607 283.286 84.122V85.2C283.447 84.9067 283.667 84.628 283.946 84.364C284.225 84.1 284.555 83.8873 284.936 83.726C285.317 83.55 285.75 83.462 286.234 83.462H287.004C287.165 83.462 287.297 83.528 287.4 83.66C287.517 83.7773 287.576 83.9313 287.576 84.122C287.576 84.298 287.517 84.452 287.4 84.584C287.297 84.716 287.165 84.782 287.004 84.782H286.234C285.75 84.782 285.281 84.914 284.826 85.178C284.386 85.4273 284.027 85.794 283.748 86.278C283.469 86.7473 283.33 87.3193 283.33 87.994V93.428C283.33 93.5747 283.257 93.7067 283.11 93.824C282.978 93.9413 282.809 94 282.604 94ZM297.086 94.154C296.397 94.154 295.751 93.9633 295.15 93.582C294.549 93.186 294.072 92.6653 293.72 92.02C293.368 91.3747 293.192 90.6927 293.192 89.974V87.576C293.192 86.8133 293.368 86.124 293.72 85.508C294.072 84.892 294.549 84.4007 295.15 84.034C295.751 83.6527 296.411 83.462 297.13 83.462C297.849 83.462 298.45 83.638 298.934 83.99C299.433 84.3273 299.799 84.7087 300.034 85.134V77.742C300.034 77.5807 300.107 77.456 300.254 77.368C300.401 77.2653 300.569 77.214 300.76 77.214C300.98 77.214 301.149 77.2653 301.266 77.368C301.398 77.456 301.464 77.5807 301.464 77.742V93.428C301.464 93.5747 301.398 93.7067 301.266 93.824C301.149 93.9413 300.98 94 300.76 94C300.584 94 300.43 93.9413 300.298 93.824C300.166 93.7067 300.1 93.5747 300.1 93.428V92.46C299.865 92.9147 299.469 93.3107 298.912 93.648C298.369 93.9853 297.761 94.154 297.086 94.154ZM297.328 92.834C297.856 92.834 298.318 92.702 298.714 92.438C299.125 92.1593 299.447 91.8513 299.682 91.514C299.917 91.162 300.034 90.876 300.034 90.656V87.576C300.034 86.9893 299.902 86.4907 299.638 86.08C299.374 85.6693 299.037 85.354 298.626 85.134C298.215 84.8993 297.79 84.782 297.35 84.782C296.851 84.782 296.397 84.9213 295.986 85.2C295.575 85.464 295.245 85.8087 294.996 86.234C294.747 86.6593 294.622 87.1067 294.622 87.576V89.974C294.622 90.458 294.747 90.92 294.996 91.36C295.245 91.8 295.575 92.1593 295.986 92.438C296.397 92.702 296.844 92.834 297.328 92.834ZM308.578 94.154C307.654 94.154 306.833 93.978 306.114 93.626C305.41 93.274 304.853 92.79 304.442 92.174C304.046 91.5433 303.848 90.81 303.848 89.974V87.51C303.848 86.7767 304.039 86.102 304.42 85.486C304.802 84.87 305.308 84.3787 305.938 84.012C306.584 83.6453 307.288 83.462 308.05 83.462C308.784 83.462 309.458 83.638 310.074 83.99C310.705 84.3273 311.211 84.7967 311.592 85.398C311.974 85.9993 312.164 86.6887 312.164 87.466C312.164 88.038 312.069 88.4487 311.878 88.698C311.688 88.9327 311.446 89.0793 311.152 89.138C310.874 89.1967 310.573 89.226 310.25 89.226H305.278V90.04C305.278 90.92 305.594 91.6167 306.224 92.13C306.855 92.6433 307.654 92.9 308.622 92.9C309.209 92.9 309.664 92.8267 309.986 92.68C310.309 92.5333 310.558 92.3867 310.734 92.24C310.925 92.0933 311.101 92.02 311.262 92.02C311.38 92.02 311.482 92.064 311.57 92.152C311.673 92.2253 311.746 92.3133 311.79 92.416C311.849 92.5187 311.878 92.614 311.878 92.702C311.878 92.8633 311.746 93.0613 311.482 93.296C311.218 93.5307 310.837 93.736 310.338 93.912C309.84 94.0733 309.253 94.154 308.578 94.154ZM305.278 88.17H309.678C310.118 88.17 310.412 88.126 310.558 88.038C310.705 87.9353 310.778 87.73 310.778 87.422C310.778 86.9527 310.661 86.5053 310.426 86.08C310.206 85.6547 309.884 85.31 309.458 85.046C309.048 84.782 308.571 84.65 308.028 84.65C307.53 84.65 307.068 84.7747 306.642 85.024C306.232 85.2587 305.902 85.5813 305.652 85.992C305.403 86.388 305.278 86.8353 305.278 87.334V88.17ZM306.884 80.998C306.738 80.998 306.606 80.932 306.488 80.8C306.371 80.668 306.312 80.5287 306.312 80.382C306.312 80.1913 306.393 80.0593 306.554 79.986L309.018 78.644C309.092 78.6 309.15 78.578 309.194 78.578C309.356 78.578 309.48 78.644 309.568 78.776C309.671 78.908 309.722 79.0473 309.722 79.194C309.722 79.414 309.634 79.5753 309.458 79.678L307.104 80.932C307.075 80.9467 307.038 80.9613 306.994 80.976C306.95 80.9907 306.914 80.998 306.884 80.998ZM318.215 94.154C317.247 94.154 316.447 93.9707 315.817 93.604C315.186 93.2373 314.717 92.7387 314.409 92.108C314.101 91.4773 313.947 90.766 313.947 89.974V87.62C313.947 86.8427 314.093 86.1387 314.387 85.508C314.695 84.8773 315.164 84.3787 315.795 84.012C316.44 83.6453 317.247 83.462 318.215 83.462C318.831 83.462 319.366 83.5427 319.821 83.704C320.29 83.8507 320.649 84.034 320.899 84.254C321.163 84.474 321.295 84.6867 321.295 84.892C321.295 84.98 321.265 85.0827 321.207 85.2C321.163 85.3027 321.089 85.398 320.987 85.486C320.899 85.5593 320.796 85.596 320.679 85.596C320.547 85.596 320.393 85.53 320.217 85.398C320.055 85.2513 319.828 85.112 319.535 84.98C319.241 84.848 318.823 84.782 318.281 84.782C317.327 84.782 316.601 85.0387 316.103 85.552C315.619 86.0507 315.377 86.74 315.377 87.62V89.974C315.377 90.8687 315.619 91.5727 316.103 92.086C316.601 92.5847 317.335 92.834 318.303 92.834C318.86 92.834 319.293 92.768 319.601 92.636C319.909 92.4893 320.143 92.35 320.305 92.218C320.481 92.0713 320.642 91.998 320.789 91.998C320.921 91.998 321.031 92.0347 321.119 92.108C321.221 92.1813 321.295 92.2693 321.339 92.372C321.397 92.4747 321.427 92.5847 321.427 92.702C321.427 92.8927 321.295 93.1053 321.031 93.34C320.767 93.56 320.393 93.7507 319.909 93.912C319.439 94.0733 318.875 94.154 318.215 94.154ZM327.02 94.154C326.272 94.154 325.583 93.9633 324.952 93.582C324.321 93.186 323.808 92.6727 323.412 92.042C323.031 91.3967 322.84 90.7073 322.84 89.974V87.576C322.84 86.8427 323.031 86.168 323.412 85.552C323.793 84.9213 324.299 84.4153 324.93 84.034C325.561 83.6527 326.257 83.462 327.02 83.462C327.768 83.462 328.457 83.6527 329.088 84.034C329.733 84.4007 330.247 84.892 330.628 85.508C331.009 86.124 331.2 86.8133 331.2 87.576V89.974C331.2 90.6927 331.009 91.3747 330.628 92.02C330.247 92.6653 329.733 93.186 329.088 93.582C328.457 93.9633 327.768 94.154 327.02 94.154ZM327.02 92.834C327.533 92.834 327.995 92.702 328.406 92.438C328.817 92.1593 329.147 91.8 329.396 91.36C329.645 90.92 329.77 90.458 329.77 89.974V87.576C329.77 87.1067 329.645 86.6593 329.396 86.234C329.161 85.8087 328.831 85.464 328.406 85.2C327.995 84.9213 327.533 84.782 327.02 84.782C326.507 84.782 326.045 84.9213 325.634 85.2C325.223 85.464 324.893 85.8087 324.644 86.234C324.395 86.6593 324.27 87.1067 324.27 87.576V89.974C324.27 90.458 324.395 90.92 324.644 91.36C324.893 91.8 325.223 92.1593 325.634 92.438C326.059 92.702 326.521 92.834 327.02 92.834ZM337.663 94.154C336.885 94.154 336.181 93.9633 335.551 93.582C334.92 93.2007 334.414 92.6947 334.033 92.064C333.651 91.4187 333.461 90.7367 333.461 90.018V84.144C333.461 84.012 333.534 83.8873 333.681 83.77C333.827 83.6527 333.996 83.594 334.187 83.594C334.377 83.594 334.539 83.6527 334.671 83.77C334.817 83.8873 334.891 84.012 334.891 84.144V90.018C334.891 90.502 335.015 90.9567 335.265 91.382C335.514 91.8073 335.844 92.1593 336.255 92.438C336.665 92.702 337.127 92.834 337.641 92.834C338.169 92.834 338.638 92.702 339.049 92.438C339.459 92.174 339.782 91.8293 340.017 91.404C340.266 90.964 340.391 90.502 340.391 90.018V84.122C340.391 83.9753 340.464 83.8507 340.611 83.748C340.757 83.6453 340.926 83.594 341.117 83.594C341.337 83.594 341.505 83.6453 341.623 83.748C341.755 83.8507 341.821 83.9753 341.821 84.122V90.018C341.821 90.766 341.63 91.4553 341.249 92.086C340.882 92.702 340.376 93.2007 339.731 93.582C339.1 93.9633 338.411 94.154 337.663 94.154ZM347.719 94.176C347.557 94.176 347.418 94.1467 347.301 94.088C347.183 94.0293 347.103 93.9413 347.059 93.824L343.517 84.54C343.502 84.5107 343.48 84.4593 343.451 84.386C343.436 84.3127 343.429 84.254 343.429 84.21C343.429 84.0927 343.473 83.9827 343.561 83.88C343.649 83.7773 343.759 83.6967 343.891 83.638C344.037 83.5793 344.169 83.55 344.287 83.55C344.404 83.55 344.507 83.5793 344.595 83.638C344.697 83.682 344.771 83.7627 344.815 83.88L347.719 91.8L350.623 83.968C350.652 83.8507 350.703 83.7553 350.777 83.682C350.85 83.594 350.967 83.55 351.129 83.55C351.246 83.55 351.371 83.5793 351.503 83.638C351.635 83.6967 351.752 83.7773 351.855 83.88C351.957 83.968 352.009 84.0707 352.009 84.188C352.009 84.2613 352.001 84.3273 351.987 84.386C351.972 84.4447 351.95 84.496 351.921 84.54L348.379 93.824C348.335 93.9267 348.247 94.0073 348.115 94.066C347.997 94.1393 347.865 94.176 347.719 94.176ZM354.405 94C354.214 94 354.046 93.9413 353.899 93.824C353.767 93.7067 353.701 93.5747 353.701 93.428V84.122C353.701 83.9607 353.767 83.836 353.899 83.748C354.046 83.6453 354.214 83.594 354.405 83.594C354.596 83.594 354.757 83.6453 354.889 83.748C355.021 83.836 355.087 83.9607 355.087 84.122V85.2C355.248 84.9067 355.468 84.628 355.747 84.364C356.026 84.1 356.356 83.8873 356.737 83.726C357.118 83.55 357.551 83.462 358.035 83.462H358.805C358.966 83.462 359.098 83.528 359.201 83.66C359.318 83.7773 359.377 83.9313 359.377 84.122C359.377 84.298 359.318 84.452 359.201 84.584C359.098 84.716 358.966 84.782 358.805 84.782H358.035C357.551 84.782 357.082 84.914 356.627 85.178C356.187 85.4273 355.828 85.794 355.549 86.278C355.27 86.7473 355.131 87.3193 355.131 87.994V93.428C355.131 93.5747 355.058 93.7067 354.911 93.824C354.779 93.9413 354.61 94 354.405 94ZM361.667 94C361.476 94 361.307 93.9413 361.161 93.824C361.029 93.7067 360.963 93.5747 360.963 93.428V84.122C360.963 83.9607 361.029 83.836 361.161 83.748C361.307 83.6453 361.476 83.594 361.667 83.594C361.872 83.594 362.041 83.6453 362.173 83.748C362.319 83.836 362.393 83.9607 362.393 84.122V93.428C362.393 93.5747 362.319 93.7067 362.173 93.824C362.041 93.9413 361.872 94 361.667 94ZM361.667 80.514C361.403 80.514 361.175 80.426 360.985 80.25C360.794 80.0593 360.699 79.8393 360.699 79.59C360.699 79.3407 360.794 79.128 360.985 78.952C361.175 78.776 361.403 78.688 361.667 78.688C361.945 78.688 362.173 78.776 362.349 78.952C362.539 79.128 362.635 79.3407 362.635 79.59C362.635 79.8393 362.539 80.0593 362.349 80.25C362.173 80.426 361.945 80.514 361.667 80.514ZM365.835 94C365.644 94 365.475 93.9413 365.329 93.824C365.197 93.7067 365.131 93.5747 365.131 93.428V84.122C365.131 83.9607 365.197 83.836 365.329 83.748C365.475 83.6453 365.644 83.594 365.835 83.594C366.025 83.594 366.187 83.6453 366.319 83.748C366.451 83.836 366.517 83.9607 366.517 84.122V85.2C366.678 84.9067 366.898 84.628 367.177 84.364C367.455 84.1 367.785 83.8873 368.167 83.726C368.548 83.55 368.981 83.462 369.465 83.462H370.235C370.396 83.462 370.528 83.528 370.631 83.66C370.748 83.7773 370.807 83.9313 370.807 84.122C370.807 84.298 370.748 84.452 370.631 84.584C370.528 84.716 370.396 84.782 370.235 84.782H369.465C368.981 84.782 368.511 84.914 368.057 85.178C367.617 85.4273 367.257 85.794 366.979 86.278C366.7 86.7473 366.561 87.3193 366.561 87.994V93.428C366.561 93.5747 366.487 93.7067 366.341 93.824C366.209 93.9413 366.04 94 365.835 94ZM377.699 94C377.508 94 377.339 93.9413 377.193 93.824C377.061 93.7067 376.995 93.5747 376.995 93.428V77.742C376.995 77.5807 377.061 77.456 377.193 77.368C377.339 77.2653 377.508 77.214 377.699 77.214C377.904 77.214 378.073 77.2653 378.205 77.368C378.351 77.456 378.425 77.5807 378.425 77.742V93.428C378.425 93.5747 378.351 93.7067 378.205 93.824C378.073 93.9413 377.904 94 377.699 94ZM383.683 94.154C382.861 94.154 382.157 93.9193 381.571 93.45C380.984 92.966 380.691 92.2327 380.691 91.25C380.691 90.4433 380.903 89.8273 381.329 89.402C381.769 88.962 382.37 88.6613 383.133 88.5C383.91 88.324 384.805 88.236 385.817 88.236H386.939V87.708C386.939 87.2387 386.851 86.7767 386.675 86.322C386.513 85.8527 386.242 85.4713 385.861 85.178C385.494 84.87 384.988 84.716 384.343 84.716C383.859 84.716 383.463 84.7673 383.155 84.87C382.847 84.9727 382.605 85.0827 382.429 85.2C382.253 85.3027 382.106 85.354 381.989 85.354C381.813 85.354 381.673 85.266 381.571 85.09C381.468 84.914 381.417 84.7453 381.417 84.584C381.417 84.3933 381.563 84.2173 381.857 84.056C382.165 83.88 382.546 83.7407 383.001 83.638C383.47 83.5207 383.932 83.462 384.387 83.462C385.369 83.462 386.147 83.6673 386.719 84.078C387.305 84.474 387.723 84.9947 387.973 85.64C388.237 86.2853 388.369 86.9747 388.369 87.708V93.428C388.369 93.5893 388.303 93.7287 388.171 93.846C388.053 93.9487 387.885 94 387.665 94C387.489 94 387.335 93.9487 387.203 93.846C387.071 93.7287 387.005 93.5893 387.005 93.428V92.46C386.623 92.8853 386.161 93.274 385.619 93.626C385.076 93.978 384.431 94.154 383.683 94.154ZM384.035 92.944C384.519 92.944 384.981 92.8193 385.421 92.57C385.861 92.3207 386.22 92.02 386.499 91.668C386.792 91.3013 386.939 90.9567 386.939 90.634V89.226H386.015C385.355 89.226 384.724 89.27 384.123 89.358C383.536 89.4313 383.052 89.6 382.671 89.864C382.304 90.128 382.121 90.546 382.121 91.118C382.121 91.7487 382.304 92.2107 382.671 92.504C383.052 92.7973 383.507 92.944 384.035 92.944ZM398.262 94.154C397.572 94.154 396.971 94.066 396.458 93.89C395.944 93.714 395.541 93.5087 395.248 93.274C394.954 93.0247 394.808 92.79 394.808 92.57C394.808 92.4673 394.83 92.372 394.874 92.284C394.918 92.1813 394.976 92.0933 395.05 92.02C395.138 91.9467 395.226 91.91 395.314 91.91C395.475 91.91 395.651 91.998 395.842 92.174C396.047 92.3353 396.326 92.504 396.678 92.68C397.044 92.856 397.558 92.944 398.218 92.944C399.054 92.944 399.64 92.79 399.978 92.482C400.315 92.1593 400.484 91.7927 400.484 91.382C400.484 90.898 400.352 90.524 400.088 90.26C399.838 89.9813 399.501 89.7687 399.076 89.622C398.665 89.4607 398.225 89.3213 397.756 89.204C397.301 89.072 396.861 88.9107 396.436 88.72C396.025 88.5147 395.688 88.236 395.424 87.884C395.174 87.532 395.05 87.0553 395.05 86.454C395.05 85.9847 395.167 85.5227 395.402 85.068C395.636 84.5987 396.003 84.2173 396.502 83.924C397.015 83.616 397.69 83.462 398.526 83.462C399.01 83.462 399.479 83.5133 399.934 83.616C400.388 83.7187 400.755 83.858 401.034 84.034C401.327 84.1953 401.474 84.364 401.474 84.54C401.474 84.6133 401.444 84.7087 401.386 84.826C401.342 84.9433 401.276 85.0533 401.188 85.156C401.1 85.244 400.997 85.288 400.88 85.288C400.762 85.288 400.601 85.2367 400.396 85.134C400.205 85.0167 399.956 84.914 399.648 84.826C399.34 84.7233 398.973 84.672 398.548 84.672C398.02 84.672 397.594 84.7673 397.272 84.958C396.949 85.1487 396.714 85.376 396.568 85.64C396.421 85.8893 396.348 86.1387 396.348 86.388C396.348 86.8133 396.48 87.136 396.744 87.356C397.008 87.576 397.345 87.7593 397.756 87.906C398.181 88.038 398.621 88.17 399.076 88.302C399.545 88.4193 399.985 88.588 400.396 88.808C400.821 89.028 401.158 89.336 401.408 89.732C401.672 90.128 401.804 90.656 401.804 91.316C401.804 92.1813 401.496 92.8707 400.88 93.384C400.264 93.8973 399.391 94.154 398.262 94.154ZM408.045 94.154C407.268 94.154 406.564 93.9633 405.933 93.582C405.303 93.2007 404.797 92.6947 404.415 92.064C404.034 91.4187 403.843 90.7367 403.843 90.018V84.144C403.843 84.012 403.917 83.8873 404.063 83.77C404.21 83.6527 404.379 83.594 404.569 83.594C404.76 83.594 404.921 83.6527 405.053 83.77C405.2 83.8873 405.273 84.012 405.273 84.144V90.018C405.273 90.502 405.398 90.9567 405.647 91.382C405.897 91.8073 406.227 92.1593 406.637 92.438C407.048 92.702 407.51 92.834 408.023 92.834C408.551 92.834 409.021 92.702 409.431 92.438C409.842 92.174 410.165 91.8293 410.399 91.404C410.649 90.964 410.773 90.502 410.773 90.018V84.122C410.773 83.9753 410.847 83.8507 410.993 83.748C411.14 83.6453 411.309 83.594 411.499 83.594C411.719 83.594 411.888 83.6453 412.005 83.748C412.137 83.8507 412.203 83.9753 412.203 84.122V90.018C412.203 90.766 412.013 91.4553 411.631 92.086C411.265 92.702 410.759 93.2007 410.113 93.582C409.483 93.9633 408.793 94.154 408.045 94.154ZM415.549 94C415.359 94 415.19 93.9413 415.043 93.824C414.911 93.7067 414.845 93.5747 414.845 93.428V84.122C414.845 83.9607 414.911 83.836 415.043 83.748C415.19 83.6453 415.359 83.594 415.549 83.594C415.755 83.594 415.923 83.6453 416.055 83.748C416.202 83.836 416.275 83.9607 416.275 84.122V93.428C416.275 93.5747 416.202 93.7067 416.055 93.824C415.923 93.9413 415.755 94 415.549 94ZM415.549 80.514C415.285 80.514 415.058 80.426 414.867 80.25C414.677 80.0593 414.581 79.8393 414.581 79.59C414.581 79.3407 414.677 79.128 414.867 78.952C415.058 78.776 415.285 78.688 415.549 78.688C415.828 78.688 416.055 78.776 416.231 78.952C416.422 79.128 416.517 79.3407 416.517 79.59C416.517 79.8393 416.422 80.0593 416.231 80.25C416.055 80.426 415.828 80.514 415.549 80.514ZM422.467 94C421.338 94 420.473 93.7433 419.871 93.23C419.27 92.7167 418.969 91.8953 418.969 90.766V79.172C418.969 79.0107 419.043 78.886 419.189 78.798C419.351 78.6953 419.512 78.644 419.673 78.644C419.864 78.644 420.033 78.6953 420.179 78.798C420.326 78.886 420.399 79.0107 420.399 79.172V83.594H423.259C423.406 83.594 423.523 83.6527 423.611 83.77C423.699 83.8873 423.743 84.0267 423.743 84.188C423.743 84.3493 423.699 84.4887 423.611 84.606C423.523 84.7233 423.406 84.782 423.259 84.782H420.399V90.766C420.399 91.4847 420.553 91.9907 420.861 92.284C421.169 92.5627 421.705 92.702 422.467 92.702H423.083C423.289 92.702 423.443 92.768 423.545 92.9C423.663 93.0173 423.721 93.164 423.721 93.34C423.721 93.516 423.663 93.67 423.545 93.802C423.443 93.934 423.289 94 423.083 94H422.467ZM429.664 94.154C428.74 94.154 427.919 93.978 427.2 93.626C426.496 93.274 425.939 92.79 425.528 92.174C425.132 91.5433 424.934 90.81 424.934 89.974V87.51C424.934 86.7767 425.125 86.102 425.506 85.486C425.888 84.87 426.394 84.3787 427.024 84.012C427.67 83.6453 428.374 83.462 429.136 83.462C429.87 83.462 430.544 83.638 431.16 83.99C431.791 84.3273 432.297 84.7967 432.678 85.398C433.06 85.9993 433.25 86.6887 433.25 87.466C433.25 88.038 433.155 88.4487 432.964 88.698C432.774 88.9327 432.532 89.0793 432.238 89.138C431.96 89.1967 431.659 89.226 431.336 89.226H426.364V90.04C426.364 90.92 426.68 91.6167 427.31 92.13C427.941 92.6433 428.74 92.9 429.708 92.9C430.295 92.9 430.75 92.8267 431.072 92.68C431.395 92.5333 431.644 92.3867 431.82 92.24C432.011 92.0933 432.187 92.02 432.348 92.02C432.466 92.02 432.568 92.064 432.656 92.152C432.759 92.2253 432.832 92.3133 432.876 92.416C432.935 92.5187 432.964 92.614 432.964 92.702C432.964 92.8633 432.832 93.0613 432.568 93.296C432.304 93.5307 431.923 93.736 431.424 93.912C430.926 94.0733 430.339 94.154 429.664 94.154ZM426.364 88.17H430.764C431.204 88.17 431.498 88.126 431.644 88.038C431.791 87.9353 431.864 87.73 431.864 87.422C431.864 86.9527 431.747 86.5053 431.512 86.08C431.292 85.6547 430.97 85.31 430.544 85.046C430.134 84.782 429.657 84.65 429.114 84.65C428.616 84.65 428.154 84.7747 427.728 85.024C427.318 85.2587 426.988 85.5813 426.738 85.992C426.489 86.388 426.364 86.8353 426.364 87.334V88.17ZM443.309 94.154C442.619 94.154 441.974 93.9633 441.373 93.582C440.771 93.186 440.295 92.6653 439.943 92.02C439.591 91.3747 439.415 90.6927 439.415 89.974V87.576C439.415 86.8133 439.591 86.124 439.943 85.508C440.295 84.892 440.771 84.4007 441.373 84.034C441.974 83.6527 442.634 83.462 443.353 83.462C444.071 83.462 444.673 83.638 445.157 83.99C445.655 84.3273 446.022 84.7087 446.257 85.134V77.742C446.257 77.5807 446.33 77.456 446.477 77.368C446.623 77.2653 446.792 77.214 446.983 77.214C447.203 77.214 447.371 77.2653 447.489 77.368C447.621 77.456 447.687 77.5807 447.687 77.742V93.428C447.687 93.5747 447.621 93.7067 447.489 93.824C447.371 93.9413 447.203 94 446.983 94C446.807 94 446.653 93.9413 446.521 93.824C446.389 93.7067 446.323 93.5747 446.323 93.428V92.46C446.088 92.9147 445.692 93.3107 445.135 93.648C444.592 93.9853 443.983 94.154 443.309 94.154ZM443.551 92.834C444.079 92.834 444.541 92.702 444.937 92.438C445.347 92.1593 445.67 91.8513 445.905 91.514C446.139 91.162 446.257 90.876 446.257 90.656V87.576C446.257 86.9893 446.125 86.4907 445.861 86.08C445.597 85.6693 445.259 85.354 444.849 85.134C444.438 84.8993 444.013 84.782 443.573 84.782C443.074 84.782 442.619 84.9213 442.209 85.2C441.798 85.464 441.468 85.8087 441.219 86.234C440.969 86.6593 440.845 87.1067 440.845 87.576V89.974C440.845 90.458 440.969 90.92 441.219 91.36C441.468 91.8 441.798 92.1593 442.209 92.438C442.619 92.702 443.067 92.834 443.551 92.834ZM454.801 94.154C453.877 94.154 453.056 93.978 452.337 93.626C451.633 93.274 451.076 92.79 450.665 92.174C450.269 91.5433 450.071 90.81 450.071 89.974V87.51C450.071 86.7767 450.262 86.102 450.643 85.486C451.024 84.87 451.53 84.3787 452.161 84.012C452.806 83.6453 453.51 83.462 454.273 83.462C455.006 83.462 455.681 83.638 456.297 83.99C456.928 84.3273 457.434 84.7967 457.815 85.398C458.196 85.9993 458.387 86.6887 458.387 87.466C458.387 88.038 458.292 88.4487 458.101 88.698C457.91 88.9327 457.668 89.0793 457.375 89.138C457.096 89.1967 456.796 89.226 456.473 89.226H451.501V90.04C451.501 90.92 451.816 91.6167 452.447 92.13C453.078 92.6433 453.877 92.9 454.845 92.9C455.432 92.9 455.886 92.8267 456.209 92.68C456.532 92.5333 456.781 92.3867 456.957 92.24C457.148 92.0933 457.324 92.02 457.485 92.02C457.602 92.02 457.705 92.064 457.793 92.152C457.896 92.2253 457.969 92.3133 458.013 92.416C458.072 92.5187 458.101 92.614 458.101 92.702C458.101 92.8633 457.969 93.0613 457.705 93.296C457.441 93.5307 457.06 93.736 456.561 93.912C456.062 94.0733 455.476 94.154 454.801 94.154ZM451.501 88.17H455.901C456.341 88.17 456.634 88.126 456.781 88.038C456.928 87.9353 457.001 87.73 457.001 87.422C457.001 86.9527 456.884 86.5053 456.649 86.08C456.429 85.6547 456.106 85.31 455.681 85.046C455.27 84.782 454.794 84.65 454.251 84.65C453.752 84.65 453.29 84.7747 452.865 85.024C452.454 85.2587 452.124 85.5813 451.875 85.992C451.626 86.388 451.501 86.8353 451.501 87.334V88.17ZM465.828 94C465.637 94 465.468 93.9413 465.322 93.824C465.19 93.7067 465.124 93.5747 465.124 93.428V77.742C465.124 77.5807 465.19 77.456 465.322 77.368C465.468 77.2653 465.637 77.214 465.828 77.214C466.033 77.214 466.202 77.2653 466.334 77.368C466.48 77.456 466.554 77.5807 466.554 77.742V93.428C466.554 93.5747 466.48 93.7067 466.334 93.824C466.202 93.9413 466.033 94 465.828 94ZM469.678 81.46C469.546 81.46 469.421 81.4233 469.304 81.35C469.186 81.262 469.128 81.1447 469.128 80.998C469.128 80.9247 469.142 80.8587 469.172 80.8L469.612 79.656C469.406 79.5827 469.245 79.4653 469.128 79.304C469.01 79.128 468.952 78.93 468.952 78.71C468.952 78.4313 469.047 78.1967 469.238 78.006C469.428 77.8007 469.67 77.698 469.964 77.698C470.228 77.698 470.455 77.8007 470.646 78.006C470.851 78.1967 470.954 78.4313 470.954 78.71C470.954 78.7833 470.932 78.9007 470.888 79.062C470.858 79.2087 470.807 79.3847 470.734 79.59C470.66 79.7953 470.565 80.0373 470.448 80.316C470.345 80.58 470.22 80.8733 470.074 81.196C470.03 81.2693 469.971 81.3353 469.898 81.394C469.824 81.438 469.751 81.46 469.678 81.46ZM473.73 94C473.539 94 473.37 93.9413 473.224 93.824C473.092 93.7067 473.026 93.5747 473.026 93.428V77.742C473.026 77.5807 473.092 77.456 473.224 77.368C473.37 77.2653 473.539 77.214 473.73 77.214C473.935 77.214 474.104 77.2653 474.236 77.368C474.382 77.456 474.456 77.5807 474.456 77.742V85.134C474.705 84.7087 475.072 84.3273 475.556 83.99C476.04 83.638 476.641 83.462 477.36 83.462C478.064 83.462 478.709 83.6527 479.296 84.034C479.897 84.4007 480.374 84.892 480.726 85.508C481.078 86.124 481.254 86.8133 481.254 87.576V93.428C481.254 93.6187 481.18 93.7653 481.034 93.868C480.887 93.956 480.718 94 480.528 94C480.366 94 480.205 93.956 480.044 93.868C479.897 93.7653 479.824 93.6187 479.824 93.428V87.576C479.824 87.1067 479.699 86.6593 479.45 86.234C479.2 85.8087 478.87 85.464 478.46 85.2C478.049 84.9213 477.594 84.782 477.096 84.782C476.656 84.782 476.23 84.8993 475.82 85.134C475.424 85.354 475.094 85.6693 474.83 86.08C474.58 86.4907 474.456 86.9893 474.456 87.576V93.428C474.456 93.5747 474.382 93.7067 474.236 93.824C474.104 93.9413 473.935 94 473.73 94ZM484.6 94C484.41 94 484.241 93.9413 484.094 93.824C483.962 93.7067 483.896 93.5747 483.896 93.428V84.122C483.896 83.9607 483.962 83.836 484.094 83.748C484.241 83.6453 484.41 83.594 484.6 83.594C484.806 83.594 484.974 83.6453 485.106 83.748C485.253 83.836 485.326 83.9607 485.326 84.122V93.428C485.326 93.5747 485.253 93.7067 485.106 93.824C484.974 93.9413 484.806 94 484.6 94ZM484.6 80.514C484.336 80.514 484.109 80.426 483.918 80.25C483.728 80.0593 483.632 79.8393 483.632 79.59C483.632 79.3407 483.728 79.128 483.918 78.952C484.109 78.776 484.336 78.688 484.6 78.688C484.879 78.688 485.106 78.776 485.282 78.952C485.473 79.128 485.568 79.3407 485.568 79.59C485.568 79.8393 485.473 80.0593 485.282 80.25C485.106 80.426 484.879 80.514 484.6 80.514ZM490.902 94.154C490.213 94.154 489.612 94.066 489.098 93.89C488.585 93.714 488.182 93.5087 487.888 93.274C487.595 93.0247 487.448 92.79 487.448 92.57C487.448 92.4673 487.47 92.372 487.514 92.284C487.558 92.1813 487.617 92.0933 487.69 92.02C487.778 91.9467 487.866 91.91 487.954 91.91C488.116 91.91 488.292 91.998 488.482 92.174C488.688 92.3353 488.966 92.504 489.318 92.68C489.685 92.856 490.198 92.944 490.858 92.944C491.694 92.944 492.281 92.79 492.618 92.482C492.956 92.1593 493.124 91.7927 493.124 91.382C493.124 90.898 492.992 90.524 492.728 90.26C492.479 89.9813 492.142 89.7687 491.716 89.622C491.306 89.4607 490.866 89.3213 490.396 89.204C489.942 89.072 489.502 88.9107 489.076 88.72C488.666 88.5147 488.328 88.236 488.064 87.884C487.815 87.532 487.69 87.0553 487.69 86.454C487.69 85.9847 487.808 85.5227 488.042 85.068C488.277 84.5987 488.644 84.2173 489.142 83.924C489.656 83.616 490.33 83.462 491.166 83.462C491.65 83.462 492.12 83.5133 492.574 83.616C493.029 83.7187 493.396 83.858 493.674 84.034C493.968 84.1953 494.114 84.364 494.114 84.54C494.114 84.6133 494.085 84.7087 494.026 84.826C493.982 84.9433 493.916 85.0533 493.828 85.156C493.74 85.244 493.638 85.288 493.52 85.288C493.403 85.288 493.242 85.2367 493.036 85.134C492.846 85.0167 492.596 84.914 492.288 84.826C491.98 84.7233 491.614 84.672 491.188 84.672C490.66 84.672 490.235 84.7673 489.912 84.958C489.59 85.1487 489.355 85.376 489.208 85.64C489.062 85.8893 488.988 86.1387 488.988 86.388C488.988 86.8133 489.12 87.136 489.384 87.356C489.648 87.576 489.986 87.7593 490.396 87.906C490.822 88.038 491.262 88.17 491.716 88.302C492.186 88.4193 492.626 88.588 493.036 88.808C493.462 89.028 493.799 89.336 494.048 89.732C494.312 90.128 494.444 90.656 494.444 91.316C494.444 92.1813 494.136 92.8707 493.52 93.384C492.904 93.8973 492.032 94.154 490.902 94.154ZM500.026 94C498.897 94 498.031 93.7433 497.43 93.23C496.829 92.7167 496.528 91.8953 496.528 90.766V79.172C496.528 79.0107 496.601 78.886 496.748 78.798C496.909 78.6953 497.071 78.644 497.232 78.644C497.423 78.644 497.591 78.6953 497.738 78.798C497.885 78.886 497.958 79.0107 497.958 79.172V83.594H500.818C500.965 83.594 501.082 83.6527 501.17 83.77C501.258 83.8873 501.302 84.0267 501.302 84.188C501.302 84.3493 501.258 84.4887 501.17 84.606C501.082 84.7233 500.965 84.782 500.818 84.782H497.958V90.766C497.958 91.4847 498.112 91.9907 498.42 92.284C498.728 92.5627 499.263 92.702 500.026 92.702H500.642C500.847 92.702 501.001 92.768 501.104 92.9C501.221 93.0173 501.28 93.164 501.28 93.34C501.28 93.516 501.221 93.67 501.104 93.802C501.001 93.934 500.847 94 500.642 94H500.026ZM506.651 94.154C505.903 94.154 505.214 93.9633 504.583 93.582C503.952 93.186 503.439 92.6727 503.043 92.042C502.662 91.3967 502.471 90.7073 502.471 89.974V87.576C502.471 86.8427 502.662 86.168 503.043 85.552C503.424 84.9213 503.93 84.4153 504.561 84.034C505.192 83.6527 505.888 83.462 506.651 83.462C507.399 83.462 508.088 83.6527 508.719 84.034C509.364 84.4007 509.878 84.892 510.259 85.508C510.64 86.124 510.831 86.8133 510.831 87.576V89.974C510.831 90.6927 510.64 91.3747 510.259 92.02C509.878 92.6653 509.364 93.186 508.719 93.582C508.088 93.9633 507.399 94.154 506.651 94.154ZM506.651 92.834C507.164 92.834 507.626 92.702 508.037 92.438C508.448 92.1593 508.778 91.8 509.027 91.36C509.276 90.92 509.401 90.458 509.401 89.974V87.576C509.401 87.1067 509.276 86.6593 509.027 86.234C508.792 85.8087 508.462 85.464 508.037 85.2C507.626 84.9213 507.164 84.782 506.651 84.782C506.138 84.782 505.676 84.9213 505.265 85.2C504.854 85.464 504.524 85.8087 504.275 86.234C504.026 86.6593 503.901 87.1067 503.901 87.576V89.974C503.901 90.458 504.026 90.92 504.275 91.36C504.524 91.8 504.854 92.1593 505.265 92.438C505.69 92.702 506.152 92.834 506.651 92.834ZM513.883 94C513.693 94 513.524 93.9413 513.377 93.824C513.245 93.7067 513.179 93.5747 513.179 93.428V84.122C513.179 83.9607 513.245 83.836 513.377 83.748C513.524 83.6453 513.693 83.594 513.883 83.594C514.089 83.594 514.257 83.6453 514.389 83.748C514.536 83.836 514.609 83.9607 514.609 84.122V93.428C514.609 93.5747 514.536 93.7067 514.389 93.824C514.257 93.9413 514.089 94 513.883 94ZM513.883 80.514C513.619 80.514 513.392 80.426 513.201 80.25C513.011 80.0593 512.915 79.8393 512.915 79.59C512.915 79.3407 513.011 79.128 513.201 78.952C513.392 78.776 513.619 78.688 513.883 78.688C514.162 78.688 514.389 78.776 514.565 78.952C514.756 79.128 514.851 79.3407 514.851 79.59C514.851 79.8393 514.756 80.0593 514.565 80.25C514.389 80.426 514.162 80.514 513.883 80.514ZM518.051 94C517.861 94 517.692 93.9413 517.545 93.824C517.413 93.7067 517.347 93.5747 517.347 93.428V84.122C517.347 83.9607 517.413 83.836 517.545 83.748C517.692 83.6453 517.861 83.594 518.051 83.594C518.242 83.594 518.403 83.6453 518.535 83.748C518.667 83.836 518.733 83.9607 518.733 84.122V85.2C518.895 84.9067 519.115 84.628 519.393 84.364C519.672 84.1 520.002 83.8873 520.383 83.726C520.765 83.55 521.197 83.462 521.681 83.462H522.451C522.613 83.462 522.745 83.528 522.847 83.66C522.965 83.7773 523.023 83.9313 523.023 84.122C523.023 84.298 522.965 84.452 522.847 84.584C522.745 84.716 522.613 84.782 522.451 84.782H521.681C521.197 84.782 520.728 84.914 520.273 85.178C519.833 85.4273 519.474 85.794 519.195 86.278C518.917 86.7473 518.777 87.3193 518.777 87.994V93.428C518.777 93.5747 518.704 93.7067 518.557 93.824C518.425 93.9413 518.257 94 518.051 94ZM528.492 94.154C527.568 94.154 526.747 93.978 526.028 93.626C525.324 93.274 524.767 92.79 524.356 92.174C523.96 91.5433 523.762 90.81 523.762 89.974V87.51C523.762 86.7767 523.953 86.102 524.334 85.486C524.716 84.87 525.222 84.3787 525.852 84.012C526.498 83.6453 527.202 83.462 527.964 83.462C528.698 83.462 529.372 83.638 529.988 83.99C530.619 84.3273 531.125 84.7967 531.506 85.398C531.888 85.9993 532.078 86.6887 532.078 87.466C532.078 88.038 531.983 88.4487 531.792 88.698C531.602 88.9327 531.36 89.0793 531.066 89.138C530.788 89.1967 530.487 89.226 530.164 89.226H525.192V90.04C525.192 90.92 525.508 91.6167 526.138 92.13C526.769 92.6433 527.568 92.9 528.536 92.9C529.123 92.9 529.578 92.8267 529.9 92.68C530.223 92.5333 530.472 92.3867 530.648 92.24C530.839 92.0933 531.015 92.02 531.176 92.02C531.294 92.02 531.396 92.064 531.484 92.152C531.587 92.2253 531.66 92.3133 531.704 92.416C531.763 92.5187 531.792 92.614 531.792 92.702C531.792 92.8633 531.66 93.0613 531.396 93.296C531.132 93.5307 530.751 93.736 530.252 93.912C529.754 94.0733 529.167 94.154 528.492 94.154ZM525.192 88.17H529.592C530.032 88.17 530.326 88.126 530.472 88.038C530.619 87.9353 530.692 87.73 530.692 87.422C530.692 86.9527 530.575 86.5053 530.34 86.08C530.12 85.6547 529.798 85.31 529.372 85.046C528.962 84.782 528.485 84.65 527.942 84.65C527.444 84.65 526.982 84.7747 526.556 85.024C526.146 85.2587 525.816 85.5813 525.566 85.992C525.317 86.388 525.192 86.8353 525.192 87.334V88.17Z" fill="#485F62"/>
<defs>
<clipPath id="clip0">
<rect x="341" width="31" height="52" fill="white"/>
</clipPath>
</defs>
</svg>
